G04 #@! TF.FileFunction,Copper,L2,Bot,Signal*
%FSLAX46Y46*%
G04 Gerber Fmt 4.6, Leading zero omitted, Abs format (unit mm)*
G04 Created by KiCad (PCBNEW 4.0.6) date Friday, July 28, 2017 'PMt' 03:28:58 PM*
%MOMM*%
%LPD*%
G01*
G04 APERTURE LIST*
%ADD10C,0.100000*%
%ADD11C,4.064000*%
%ADD12C,1.778000*%
%ADD13R,1.778000X1.778000*%
%ADD14C,1.524000*%
%ADD15C,2.540000*%
%ADD16C,3.556000*%
%ADD17C,1.600000*%
%ADD18R,1.600000X1.600000*%
%ADD19R,3.500120X3.500120*%
%ADD20R,2.000000X2.000000*%
%ADD21C,2.000000*%
%ADD22R,1.727200X1.727200*%
%ADD23O,1.727200X1.727200*%
%ADD24R,1.727200X2.032000*%
%ADD25O,1.727200X2.032000*%
%ADD26O,1.600000X1.600000*%
%ADD27R,1.800000X1.800000*%
%ADD28O,1.800000X1.800000*%
%ADD29C,5.588000*%
%ADD30C,1.998980*%
%ADD31R,1.998980X1.998980*%
%ADD32R,1.700000X1.700000*%
%ADD33O,1.700000X1.700000*%
%ADD34C,1.400000*%
%ADD35C,0.600000*%
%ADD36C,0.250000*%
%ADD37C,0.762000*%
%ADD38C,0.254000*%
G04 APERTURE END LIST*
D10*
D11*
X158750000Y-103378000D03*
X158750000Y-136398000D03*
X176530000Y-136398000D03*
D12*
X176530000Y-121158000D03*
X176530000Y-123698000D03*
X176530000Y-126238000D03*
X176530000Y-128778000D03*
D13*
X176530000Y-131318000D03*
D12*
X176530000Y-118618000D03*
X176530000Y-116078000D03*
X176530000Y-113538000D03*
X176530000Y-110998000D03*
X176530000Y-108458000D03*
D11*
X176530000Y-103378000D03*
D14*
X194691000Y-131064000D03*
X181737000Y-131064000D03*
X181737000Y-128016000D03*
X194691000Y-128016000D03*
D15*
X188087000Y-138430000D03*
D14*
X169037000Y-81026000D03*
X166497000Y-81026000D03*
X161417000Y-97790000D03*
X163957000Y-97790000D03*
X166497000Y-97790000D03*
X169037000Y-97790000D03*
X171577000Y-97790000D03*
X174117000Y-97790000D03*
D16*
X160147000Y-79502000D03*
X175387000Y-79502000D03*
D14*
X126238000Y-81788000D03*
X123698000Y-81788000D03*
X118618000Y-98552000D03*
X121158000Y-98552000D03*
X123698000Y-98552000D03*
X126238000Y-98552000D03*
X128778000Y-98552000D03*
X131318000Y-98552000D03*
D16*
X117348000Y-80264000D03*
X132588000Y-80264000D03*
D17*
X138049000Y-120269000D03*
X138049000Y-122809000D03*
X138049000Y-125349000D03*
X138049000Y-127889000D03*
X138049000Y-117729000D03*
X138049000Y-115189000D03*
X138049000Y-112649000D03*
X138049000Y-130429000D03*
X138049000Y-132969000D03*
X138049000Y-135509000D03*
X138049000Y-138049000D03*
X140589000Y-125349000D03*
X143129000Y-125349000D03*
X145669000Y-125349000D03*
X148209000Y-125349000D03*
X150749000Y-125349000D03*
X153289000Y-138049000D03*
X153289000Y-135509000D03*
X153289000Y-132969000D03*
X153289000Y-130429000D03*
X153289000Y-127889000D03*
X153289000Y-125349000D03*
X153289000Y-122809000D03*
X153289000Y-120269000D03*
X138049000Y-110109000D03*
X138049000Y-107569000D03*
X138049000Y-105029000D03*
X138049000Y-102489000D03*
X138049000Y-99949000D03*
X138049000Y-97409000D03*
X138049000Y-94869000D03*
X138049000Y-92329000D03*
X138049000Y-89789000D03*
X138049000Y-87249000D03*
X138049000Y-84709000D03*
X138049000Y-82169000D03*
D18*
X138049000Y-79629000D03*
D17*
X153289000Y-117729000D03*
X153289000Y-115189000D03*
X153289000Y-112649000D03*
X153289000Y-110109000D03*
X153289000Y-107569000D03*
X153289000Y-105029000D03*
X153289000Y-102489000D03*
X153289000Y-99949000D03*
X153289000Y-97409000D03*
X153289000Y-94869000D03*
X153289000Y-92329000D03*
X153289000Y-89789000D03*
X153289000Y-87249000D03*
X153289000Y-84709000D03*
X153289000Y-82169000D03*
X153289000Y-79629000D03*
X150749000Y-82169000D03*
X150749000Y-87249000D03*
X150749000Y-89789000D03*
X150749000Y-92329000D03*
X145669000Y-94869000D03*
X145669000Y-97409000D03*
X145669000Y-99949000D03*
X145669000Y-102489000D03*
X145669000Y-117729000D03*
X145669000Y-120269000D03*
X145669000Y-122809000D03*
X145669000Y-127889000D03*
X145669000Y-130429000D03*
X145669000Y-132969000D03*
X145669000Y-135509000D03*
X145669000Y-138049000D03*
X148209000Y-138049000D03*
X148209000Y-135509000D03*
X148209000Y-132969000D03*
X148209000Y-130429000D03*
X148209000Y-127889000D03*
X148209000Y-122809000D03*
X148209000Y-120269000D03*
X148209000Y-117729000D03*
X148209000Y-102489000D03*
X148209000Y-99949000D03*
X148209000Y-97409000D03*
X148209000Y-94869000D03*
X141049000Y-85979000D03*
X141049000Y-88519000D03*
X141049000Y-91059000D03*
X141049000Y-93599000D03*
X141049000Y-96139000D03*
D16*
X130048000Y-105410000D03*
X116078000Y-105410000D03*
D12*
X123063000Y-119380000D03*
X125603000Y-119380000D03*
X128143000Y-119380000D03*
X130683000Y-119380000D03*
X120523000Y-119380000D03*
X117983000Y-119380000D03*
X115443000Y-119380000D03*
D19*
X193263520Y-98094800D03*
X199263000Y-98094800D03*
X196263260Y-93395800D03*
D20*
X185420000Y-80518000D03*
D21*
X185420000Y-83058000D03*
D22*
X127508000Y-129032000D03*
D23*
X127508000Y-131572000D03*
X124968000Y-129032000D03*
X124968000Y-131572000D03*
X122428000Y-129032000D03*
X122428000Y-131572000D03*
X119888000Y-129032000D03*
X119888000Y-131572000D03*
X117348000Y-129032000D03*
X117348000Y-131572000D03*
D24*
X183134000Y-120269000D03*
D25*
X185674000Y-120269000D03*
X188214000Y-120269000D03*
D17*
X180340000Y-78867000D03*
D26*
X180340000Y-89027000D03*
D14*
X186740800Y-107924600D03*
X189280800Y-107924600D03*
X184200800Y-107924600D03*
D27*
X191389000Y-81915000D03*
D28*
X193929000Y-81915000D03*
X196469000Y-81915000D03*
D29*
X109220000Y-80645000D03*
X109220000Y-136525000D03*
X203200000Y-136525000D03*
X203200000Y-80645000D03*
D30*
X180975000Y-105791000D03*
D31*
X180975000Y-109601000D03*
D30*
X195326000Y-86995000D03*
D31*
X191516000Y-86995000D03*
D30*
X195326000Y-89789000D03*
D31*
X191516000Y-89789000D03*
D32*
X184277000Y-113030000D03*
D33*
X184277000Y-115570000D03*
D32*
X188087000Y-113030000D03*
D33*
X188087000Y-115570000D03*
D32*
X201422000Y-112776000D03*
D33*
X201422000Y-115316000D03*
X201422000Y-117856000D03*
D32*
X197485000Y-117983000D03*
D33*
X197485000Y-115443000D03*
D34*
X202819000Y-86995000D03*
X202819000Y-89495000D03*
X186944000Y-88900000D03*
X184444000Y-88900000D03*
X195035800Y-107823000D03*
X197535800Y-107823000D03*
D13*
X180975000Y-96850200D03*
D14*
X188595000Y-96850200D03*
D35*
X133086010Y-112794276D03*
X162814000Y-98702002D03*
X131835990Y-113799084D03*
X134874000Y-84963000D03*
X164540042Y-99952022D03*
X150495000Y-98298000D03*
X146685000Y-98552000D03*
X137287000Y-113919000D03*
X143002000Y-101854000D03*
X142240000Y-100965000D03*
X182626000Y-126238000D03*
X192786000Y-124841000D03*
X113411000Y-95377000D03*
X184226200Y-102412800D03*
X183083200Y-101625400D03*
X159766000Y-86106000D03*
X190322200Y-102692200D03*
D36*
X138049000Y-107569000D02*
X133086010Y-112531990D01*
X133086010Y-112531990D02*
X133086010Y-112794276D01*
X139714002Y-112649000D02*
X149334001Y-103029001D01*
X153829001Y-93743999D02*
X158962003Y-98877001D01*
X162389736Y-98702002D02*
X162814000Y-98702002D01*
X149334001Y-103029001D02*
X149334001Y-97158997D01*
X149334001Y-97158997D02*
X152748999Y-93743999D01*
X138049000Y-112649000D02*
X139714002Y-112649000D01*
X158962003Y-98877001D02*
X162214737Y-98877001D01*
X152748999Y-93743999D02*
X153829001Y-93743999D01*
X162214737Y-98877001D02*
X162389736Y-98702002D01*
X132260254Y-113799084D02*
X131835990Y-113799084D01*
X135767546Y-113799084D02*
X132260254Y-113799084D01*
X136917630Y-112649000D02*
X135767546Y-113799084D01*
X138049000Y-112649000D02*
X136917630Y-112649000D01*
X152163999Y-103029001D02*
X152163999Y-98534001D01*
X152489001Y-98208999D02*
X153289000Y-97409000D01*
X152163999Y-98534001D02*
X152489001Y-98208999D01*
X153829001Y-103614001D02*
X152748999Y-103614001D01*
X152748999Y-103614001D02*
X152163999Y-103029001D01*
X173913000Y-123698000D02*
X153829001Y-103614001D01*
X176530000Y-123698000D02*
X173913000Y-123698000D01*
X153811002Y-101346000D02*
X153554630Y-101346000D01*
X153554630Y-101346000D02*
X153289000Y-101080370D01*
X153289000Y-101080370D02*
X153289000Y-99949000D01*
X154414001Y-101948999D02*
X153811002Y-101346000D01*
X176530000Y-121158000D02*
X172477758Y-121158000D01*
X172477758Y-121158000D02*
X154414001Y-103094243D01*
X154414001Y-103094243D02*
X154414001Y-101948999D01*
X171577000Y-97790000D02*
X170489999Y-98877001D01*
X170489999Y-98877001D02*
X165975239Y-98877001D01*
X165975239Y-98877001D02*
X165044001Y-97945763D01*
X165044001Y-97945763D02*
X165044001Y-97268239D01*
X147668999Y-91203999D02*
X141463998Y-97409000D01*
X165044001Y-97268239D02*
X158979761Y-91203999D01*
X158979761Y-91203999D02*
X147668999Y-91203999D01*
X141463998Y-97409000D02*
X139180370Y-97409000D01*
X139180370Y-97409000D02*
X138049000Y-97409000D01*
X138049000Y-94869000D02*
X132461000Y-94869000D01*
X132461000Y-94869000D02*
X128778000Y-98552000D01*
X134874000Y-84963000D02*
X137668000Y-82169000D01*
X137668000Y-82169000D02*
X138049000Y-82169000D01*
X152748999Y-96283999D02*
X153829001Y-96283999D01*
X151511000Y-97521998D02*
X152748999Y-96283999D01*
X153829001Y-96283999D02*
X157497024Y-99952022D01*
X157497024Y-99952022D02*
X164115778Y-99952022D01*
X164115778Y-99952022D02*
X164540042Y-99952022D01*
X150495000Y-98298000D02*
X151271002Y-97521998D01*
X151271002Y-97521998D02*
X151511000Y-97521998D01*
X131318000Y-98552000D02*
X146644400Y-98592600D01*
X146644400Y-98592600D02*
X146685000Y-98552000D01*
X151511000Y-97521998D02*
X151511000Y-110871000D01*
X151511000Y-110871000D02*
X153289000Y-112649000D01*
X137287000Y-113919000D02*
X131826000Y-119380000D01*
X131826000Y-119380000D02*
X130683000Y-119380000D01*
X143002000Y-101854000D02*
X138701999Y-106154001D01*
X138701999Y-106154001D02*
X137798997Y-106154001D01*
X128143000Y-115809998D02*
X128143000Y-118122765D01*
X137798997Y-106154001D02*
X128143000Y-115809998D01*
X128143000Y-118122765D02*
X128143000Y-119380000D01*
X142240000Y-100965000D02*
X139590999Y-103614001D01*
X139590999Y-103614001D02*
X137798997Y-103614001D01*
X137798997Y-103614001D02*
X125603000Y-115809998D01*
X125603000Y-115809998D02*
X125603000Y-118122765D01*
X125603000Y-118122765D02*
X125603000Y-119380000D01*
D37*
X182626000Y-126238000D02*
X176530000Y-126238000D01*
X192786000Y-124841000D02*
X188214000Y-120269000D01*
X113411000Y-95377000D02*
X122301000Y-95377000D01*
X122301000Y-95377000D02*
X122428000Y-95250000D01*
X123698000Y-93980000D02*
X122428000Y-95250000D01*
X127508000Y-131572000D02*
X128371599Y-130708401D01*
X128371599Y-130708401D02*
X128604601Y-130708401D01*
X128604601Y-130708401D02*
X128952601Y-130360401D01*
X128952601Y-130360401D02*
X128952601Y-127809601D01*
X128952601Y-127809601D02*
X121411999Y-120268999D01*
X121411999Y-120268999D02*
X120523000Y-119380000D01*
X123698000Y-98552000D02*
X123698000Y-116205000D01*
X123698000Y-116205000D02*
X120523000Y-119380000D01*
X138049000Y-79629000D02*
X123698000Y-93980000D01*
X123698000Y-93980000D02*
X123698000Y-98552000D01*
X153289000Y-82169000D02*
X150749000Y-79629000D01*
X150749000Y-79629000D02*
X138049000Y-79629000D01*
X166497000Y-97790000D02*
X166497000Y-95377000D01*
X166497000Y-95377000D02*
X153289000Y-82169000D01*
X188214000Y-120269000D02*
X188214000Y-121031000D01*
X193929000Y-81915000D02*
X193929000Y-80642208D01*
X193929000Y-80642208D02*
X193720791Y-80433999D01*
X193720791Y-80433999D02*
X187266001Y-80433999D01*
X187266001Y-80433999D02*
X187182000Y-80518000D01*
X187182000Y-80518000D02*
X185420000Y-80518000D01*
X184200800Y-107924600D02*
X184200800Y-102438200D01*
X184200800Y-102438200D02*
X184226200Y-102412800D01*
X185674000Y-120269000D02*
X185674000Y-118491000D01*
X185674000Y-118491000D02*
X185708001Y-118456999D01*
X185708001Y-118456999D02*
X185708001Y-109431801D01*
X185708001Y-109431801D02*
X184962799Y-108686599D01*
X184962799Y-108686599D02*
X184200800Y-107924600D01*
X184277000Y-115570000D02*
X180975000Y-112268000D01*
X180975000Y-112268000D02*
X180975000Y-109601000D01*
X182630801Y-102636599D02*
X182630801Y-102077799D01*
X182630801Y-102077799D02*
X183083200Y-101625400D01*
X182630801Y-102636599D02*
X182630801Y-109771801D01*
X182630801Y-109771801D02*
X184277000Y-111418000D01*
X184277000Y-111418000D02*
X184277000Y-113030000D01*
X159766000Y-86106000D02*
X153289000Y-79629000D01*
X180594000Y-89281000D02*
X180340000Y-89027000D01*
X189280800Y-107924600D02*
X189280800Y-103733600D01*
X189280800Y-103733600D02*
X190322200Y-102692200D01*
X188087000Y-113030000D02*
X188087000Y-109118400D01*
X188087000Y-109118400D02*
X189280800Y-107924600D01*
D36*
X154368399Y-95668999D02*
X158026412Y-99327012D01*
X158026412Y-99327012D02*
X171648750Y-99327012D01*
X171648750Y-99327012D02*
X173029999Y-97945763D01*
X173029999Y-97945763D02*
X173029999Y-97268239D01*
X173029999Y-97268239D02*
X173595239Y-96702999D01*
X173595239Y-96702999D02*
X179688799Y-96702999D01*
X179688799Y-96702999D02*
X179836000Y-96850200D01*
X179836000Y-96850200D02*
X180975000Y-96850200D01*
X153289000Y-94869000D02*
X154088999Y-95668999D01*
X154088999Y-95668999D02*
X154368399Y-95668999D01*
D38*
G36*
X158102551Y-78133361D02*
X157734420Y-79019919D01*
X157733583Y-79979870D01*
X158100166Y-80867069D01*
X158778361Y-81546449D01*
X159664919Y-81914580D01*
X160624870Y-81915417D01*
X161512069Y-81548834D01*
X161758672Y-81302661D01*
X165099758Y-81302661D01*
X165311990Y-81816303D01*
X165704630Y-82209629D01*
X166217900Y-82422757D01*
X166773661Y-82423242D01*
X167287303Y-82211010D01*
X167680629Y-81818370D01*
X167766949Y-81610488D01*
X167851990Y-81816303D01*
X168244630Y-82209629D01*
X168757900Y-82422757D01*
X169313661Y-82423242D01*
X169827303Y-82211010D01*
X170220629Y-81818370D01*
X170433757Y-81305100D01*
X170434242Y-80749339D01*
X170222010Y-80235697D01*
X169829370Y-79842371D01*
X169316100Y-79629243D01*
X168760339Y-79628758D01*
X168246697Y-79840990D01*
X167853371Y-80233630D01*
X167767051Y-80441512D01*
X167682010Y-80235697D01*
X167289370Y-79842371D01*
X166776100Y-79629243D01*
X166220339Y-79628758D01*
X165706697Y-79840990D01*
X165313371Y-80233630D01*
X165100243Y-80746900D01*
X165099758Y-81302661D01*
X161758672Y-81302661D01*
X162191449Y-80870639D01*
X162559580Y-79984081D01*
X162560417Y-79024130D01*
X162193834Y-78136931D01*
X161577979Y-77520000D01*
X173956984Y-77520000D01*
X173342551Y-78133361D01*
X172974420Y-79019919D01*
X172973583Y-79979870D01*
X173340166Y-80867069D01*
X174018361Y-81546449D01*
X174904919Y-81914580D01*
X175864870Y-81915417D01*
X176752069Y-81548834D01*
X177431449Y-80870639D01*
X177799580Y-79984081D01*
X177800417Y-79024130D01*
X177433834Y-78136931D01*
X176817979Y-77520000D01*
X179842236Y-77520000D01*
X179528200Y-77649757D01*
X179124176Y-78053077D01*
X178905250Y-78580309D01*
X178904752Y-79151187D01*
X179122757Y-79678800D01*
X179526077Y-80082824D01*
X180053309Y-80301750D01*
X180624187Y-80302248D01*
X181151800Y-80084243D01*
X181555824Y-79680923D01*
X181675924Y-79391690D01*
X183785000Y-79391690D01*
X183785000Y-80232250D01*
X183943750Y-80391000D01*
X185293000Y-80391000D01*
X185293000Y-79041750D01*
X185547000Y-79041750D01*
X185547000Y-80391000D01*
X186896250Y-80391000D01*
X187055000Y-80232250D01*
X187055000Y-79391690D01*
X186958327Y-79158301D01*
X186779698Y-78979673D01*
X186546309Y-78883000D01*
X185705750Y-78883000D01*
X185547000Y-79041750D01*
X185293000Y-79041750D01*
X185134250Y-78883000D01*
X184293691Y-78883000D01*
X184060302Y-78979673D01*
X183881673Y-79158301D01*
X183785000Y-79391690D01*
X181675924Y-79391690D01*
X181774750Y-79153691D01*
X181775248Y-78582813D01*
X181557243Y-78055200D01*
X181153923Y-77651176D01*
X180838016Y-77520000D01*
X201783748Y-77520000D01*
X201260165Y-77736340D01*
X200294730Y-78700092D01*
X199771597Y-79959937D01*
X199770406Y-81324078D01*
X200291340Y-82584835D01*
X201255092Y-83550270D01*
X202514937Y-84073403D01*
X203879078Y-84074594D01*
X205139835Y-83553660D01*
X206105270Y-82589908D01*
X206325000Y-82060739D01*
X206325000Y-135108748D01*
X206108660Y-134585165D01*
X205144908Y-133619730D01*
X203885063Y-133096597D01*
X202520922Y-133095406D01*
X201260165Y-133616340D01*
X200294730Y-134580092D01*
X199771597Y-135839937D01*
X199770406Y-137204078D01*
X200291340Y-138464835D01*
X201255092Y-139430270D01*
X201784261Y-139650000D01*
X189561300Y-139650000D01*
X189701039Y-139510505D01*
X189991668Y-138810590D01*
X189992330Y-138052735D01*
X189702922Y-137352314D01*
X189167505Y-136815961D01*
X188467590Y-136525332D01*
X187709735Y-136524670D01*
X187009314Y-136814078D01*
X186472961Y-137349495D01*
X186182332Y-138049410D01*
X186181670Y-138807265D01*
X186471078Y-139507686D01*
X186613144Y-139650000D01*
X110636252Y-139650000D01*
X111159835Y-139433660D01*
X112125270Y-138469908D01*
X112648403Y-137210063D01*
X112649594Y-135845922D01*
X112128660Y-134585165D01*
X111164908Y-133619730D01*
X109905063Y-133096597D01*
X108540922Y-133095406D01*
X107280165Y-133616340D01*
X106314730Y-134580092D01*
X106095000Y-135109261D01*
X106095000Y-129032000D01*
X115820041Y-129032000D01*
X115934115Y-129605489D01*
X116258971Y-130091670D01*
X116573752Y-130302000D01*
X116258971Y-130512330D01*
X115934115Y-130998511D01*
X115820041Y-131572000D01*
X115934115Y-132145489D01*
X116258971Y-132631670D01*
X116745152Y-132956526D01*
X117318641Y-133070600D01*
X117377359Y-133070600D01*
X117950848Y-132956526D01*
X118437029Y-132631670D01*
X118618000Y-132360828D01*
X118798971Y-132631670D01*
X119285152Y-132956526D01*
X119858641Y-133070600D01*
X119917359Y-133070600D01*
X120490848Y-132956526D01*
X120977029Y-132631670D01*
X121158000Y-132360828D01*
X121338971Y-132631670D01*
X121825152Y-132956526D01*
X122398641Y-133070600D01*
X122457359Y-133070600D01*
X123030848Y-132956526D01*
X123517029Y-132631670D01*
X123698000Y-132360828D01*
X123878971Y-132631670D01*
X124365152Y-132956526D01*
X124938641Y-133070600D01*
X124997359Y-133070600D01*
X125570848Y-132956526D01*
X126057029Y-132631670D01*
X126237992Y-132360839D01*
X126619510Y-132778821D01*
X127148973Y-133026968D01*
X127381000Y-132906469D01*
X127381000Y-131699000D01*
X127635000Y-131699000D01*
X127635000Y-132906469D01*
X127867027Y-133026968D01*
X128396490Y-132778821D01*
X128790688Y-132346947D01*
X128962958Y-131931026D01*
X128841817Y-131699000D01*
X127635000Y-131699000D01*
X127381000Y-131699000D01*
X127361000Y-131699000D01*
X127361000Y-131445000D01*
X127381000Y-131445000D01*
X127381000Y-131425000D01*
X127635000Y-131425000D01*
X127635000Y-131445000D01*
X128841817Y-131445000D01*
X128962958Y-131212974D01*
X128790688Y-130797053D01*
X128531391Y-130512973D01*
X128606917Y-130498762D01*
X128823041Y-130359690D01*
X128968031Y-130147490D01*
X129019040Y-129895600D01*
X129019040Y-128168400D01*
X128974762Y-127933083D01*
X128835690Y-127716959D01*
X128623490Y-127571969D01*
X128371600Y-127520960D01*
X126644400Y-127520960D01*
X126409083Y-127565238D01*
X126192959Y-127704310D01*
X126047969Y-127916510D01*
X126039092Y-127960345D01*
X125570848Y-127647474D01*
X124997359Y-127533400D01*
X124938641Y-127533400D01*
X124365152Y-127647474D01*
X123878971Y-127972330D01*
X123698000Y-128243172D01*
X123517029Y-127972330D01*
X123030848Y-127647474D01*
X122457359Y-127533400D01*
X122398641Y-127533400D01*
X121825152Y-127647474D01*
X121338971Y-127972330D01*
X121158000Y-128243172D01*
X120977029Y-127972330D01*
X120490848Y-127647474D01*
X119917359Y-127533400D01*
X119858641Y-127533400D01*
X119285152Y-127647474D01*
X118798971Y-127972330D01*
X118618000Y-128243172D01*
X118437029Y-127972330D01*
X117950848Y-127647474D01*
X117377359Y-127533400D01*
X117318641Y-127533400D01*
X116745152Y-127647474D01*
X116258971Y-127972330D01*
X115934115Y-128458511D01*
X115820041Y-129032000D01*
X106095000Y-129032000D01*
X106095000Y-119681812D01*
X113918736Y-119681812D01*
X114150262Y-120242149D01*
X114578596Y-120671231D01*
X115138528Y-120903735D01*
X115744812Y-120904264D01*
X116305149Y-120672738D01*
X116713336Y-120265263D01*
X117118596Y-120671231D01*
X117678528Y-120903735D01*
X118284812Y-120904264D01*
X118845149Y-120672738D01*
X119066076Y-120452196D01*
X119630409Y-120452196D01*
X119715467Y-120707539D01*
X120284965Y-120915516D01*
X120890700Y-120889723D01*
X121330533Y-120707539D01*
X121415591Y-120452196D01*
X120523000Y-119559605D01*
X119630409Y-120452196D01*
X119066076Y-120452196D01*
X119274231Y-120244404D01*
X119285405Y-120217494D01*
X119450804Y-120272591D01*
X120343395Y-119380000D01*
X120702605Y-119380000D01*
X121595196Y-120272591D01*
X121760138Y-120217647D01*
X121770262Y-120242149D01*
X122198596Y-120671231D01*
X122758528Y-120903735D01*
X123364812Y-120904264D01*
X123925149Y-120672738D01*
X124333336Y-120265263D01*
X124738596Y-120671231D01*
X125298528Y-120903735D01*
X125904812Y-120904264D01*
X126465149Y-120672738D01*
X126873336Y-120265263D01*
X127278596Y-120671231D01*
X127838528Y-120903735D01*
X128444812Y-120904264D01*
X129005149Y-120672738D01*
X129413336Y-120265263D01*
X129818596Y-120671231D01*
X130378528Y-120903735D01*
X130984812Y-120904264D01*
X131545149Y-120672738D01*
X131974231Y-120244404D01*
X132034832Y-120098460D01*
X132116839Y-120082148D01*
X132363401Y-119917401D01*
X136670434Y-115610368D01*
X136831757Y-116000800D01*
X137235077Y-116404824D01*
X137365215Y-116458862D01*
X137237200Y-116511757D01*
X136833176Y-116915077D01*
X136614250Y-117442309D01*
X136613752Y-118013187D01*
X136831757Y-118540800D01*
X137235077Y-118944824D01*
X137365215Y-118998862D01*
X137237200Y-119051757D01*
X136833176Y-119455077D01*
X136614250Y-119982309D01*
X136613752Y-120553187D01*
X136831757Y-121080800D01*
X137235077Y-121484824D01*
X137365215Y-121538862D01*
X137237200Y-121591757D01*
X136833176Y-121995077D01*
X136614250Y-122522309D01*
X136613752Y-123093187D01*
X136831757Y-123620800D01*
X137235077Y-124024824D01*
X137365215Y-124078862D01*
X137237200Y-124131757D01*
X136833176Y-124535077D01*
X136614250Y-125062309D01*
X136613752Y-125633187D01*
X136831757Y-126160800D01*
X137235077Y-126564824D01*
X137365215Y-126618862D01*
X137237200Y-126671757D01*
X136833176Y-127075077D01*
X136614250Y-127602309D01*
X136613752Y-128173187D01*
X136831757Y-128700800D01*
X137235077Y-129104824D01*
X137365215Y-129158862D01*
X137237200Y-129211757D01*
X136833176Y-129615077D01*
X136614250Y-130142309D01*
X136613752Y-130713187D01*
X136831757Y-131240800D01*
X137235077Y-131644824D01*
X137365215Y-131698862D01*
X137237200Y-131751757D01*
X136833176Y-132155077D01*
X136614250Y-132682309D01*
X136613752Y-133253187D01*
X136831757Y-133780800D01*
X137235077Y-134184824D01*
X137365215Y-134238862D01*
X137237200Y-134291757D01*
X136833176Y-134695077D01*
X136614250Y-135222309D01*
X136613752Y-135793187D01*
X136831757Y-136320800D01*
X137235077Y-136724824D01*
X137365215Y-136778862D01*
X137237200Y-136831757D01*
X136833176Y-137235077D01*
X136614250Y-137762309D01*
X136613752Y-138333187D01*
X136831757Y-138860800D01*
X137235077Y-139264824D01*
X137762309Y-139483750D01*
X138333187Y-139484248D01*
X138860800Y-139266243D01*
X139264824Y-138862923D01*
X139483750Y-138335691D01*
X139484248Y-137764813D01*
X139266243Y-137237200D01*
X138862923Y-136833176D01*
X138732785Y-136779138D01*
X138860800Y-136726243D01*
X139264824Y-136322923D01*
X139483750Y-135795691D01*
X139484248Y-135224813D01*
X139266243Y-134697200D01*
X138862923Y-134293176D01*
X138732785Y-134239138D01*
X138860800Y-134186243D01*
X139264824Y-133782923D01*
X139483750Y-133255691D01*
X139484248Y-132684813D01*
X139266243Y-132157200D01*
X138862923Y-131753176D01*
X138732785Y-131699138D01*
X138860800Y-131646243D01*
X139264824Y-131242923D01*
X139483750Y-130715691D01*
X139484248Y-130144813D01*
X139266243Y-129617200D01*
X138862923Y-129213176D01*
X138732785Y-129159138D01*
X138860800Y-129106243D01*
X139264824Y-128702923D01*
X139483750Y-128175691D01*
X139484248Y-127604813D01*
X139266243Y-127077200D01*
X138862923Y-126673176D01*
X138732785Y-126619138D01*
X138860800Y-126566243D01*
X139264824Y-126162923D01*
X139318862Y-126032785D01*
X139371757Y-126160800D01*
X139775077Y-126564824D01*
X140302309Y-126783750D01*
X140873187Y-126784248D01*
X141400800Y-126566243D01*
X141804824Y-126162923D01*
X141858862Y-126032785D01*
X141911757Y-126160800D01*
X142315077Y-126564824D01*
X142842309Y-126783750D01*
X143413187Y-126784248D01*
X143940800Y-126566243D01*
X144344824Y-126162923D01*
X144398862Y-126032785D01*
X144451757Y-126160800D01*
X144855077Y-126564824D01*
X144985215Y-126618862D01*
X144857200Y-126671757D01*
X144453176Y-127075077D01*
X144234250Y-127602309D01*
X144233752Y-128173187D01*
X144451757Y-128700800D01*
X144855077Y-129104824D01*
X144985215Y-129158862D01*
X144857200Y-129211757D01*
X144453176Y-129615077D01*
X144234250Y-130142309D01*
X144233752Y-130713187D01*
X144451757Y-131240800D01*
X144855077Y-131644824D01*
X144985215Y-131698862D01*
X144857200Y-131751757D01*
X144453176Y-132155077D01*
X144234250Y-132682309D01*
X144233752Y-133253187D01*
X144451757Y-133780800D01*
X144855077Y-134184824D01*
X144985215Y-134238862D01*
X144857200Y-134291757D01*
X144453176Y-134695077D01*
X144234250Y-135222309D01*
X144233752Y-135793187D01*
X144451757Y-136320800D01*
X144855077Y-136724824D01*
X144985215Y-136778862D01*
X144857200Y-136831757D01*
X144453176Y-137235077D01*
X144234250Y-137762309D01*
X144233752Y-138333187D01*
X144451757Y-138860800D01*
X144855077Y-139264824D01*
X145382309Y-139483750D01*
X145953187Y-139484248D01*
X146480800Y-139266243D01*
X146884824Y-138862923D01*
X146938862Y-138732785D01*
X146991757Y-138860800D01*
X147395077Y-139264824D01*
X147922309Y-139483750D01*
X148493187Y-139484248D01*
X149020800Y-139266243D01*
X149424824Y-138862923D01*
X149643750Y-138335691D01*
X149644248Y-137764813D01*
X149426243Y-137237200D01*
X149022923Y-136833176D01*
X148892785Y-136779138D01*
X149020800Y-136726243D01*
X149424824Y-136322923D01*
X149643750Y-135795691D01*
X149644248Y-135224813D01*
X149426243Y-134697200D01*
X149022923Y-134293176D01*
X148892785Y-134239138D01*
X149020800Y-134186243D01*
X149424824Y-133782923D01*
X149643750Y-133255691D01*
X149644248Y-132684813D01*
X149426243Y-132157200D01*
X149022923Y-131753176D01*
X148892785Y-131699138D01*
X149020800Y-131646243D01*
X149424824Y-131242923D01*
X149643750Y-130715691D01*
X149644248Y-130144813D01*
X149426243Y-129617200D01*
X149022923Y-129213176D01*
X148892785Y-129159138D01*
X149020800Y-129106243D01*
X149424824Y-128702923D01*
X149643750Y-128175691D01*
X149644248Y-127604813D01*
X149426243Y-127077200D01*
X149022923Y-126673176D01*
X148892785Y-126619138D01*
X149020800Y-126566243D01*
X149424824Y-126162923D01*
X149478862Y-126032785D01*
X149531757Y-126160800D01*
X149935077Y-126564824D01*
X150462309Y-126783750D01*
X151033187Y-126784248D01*
X151560800Y-126566243D01*
X151964824Y-126162923D01*
X152018862Y-126032785D01*
X152071757Y-126160800D01*
X152475077Y-126564824D01*
X152605215Y-126618862D01*
X152477200Y-126671757D01*
X152073176Y-127075077D01*
X151854250Y-127602309D01*
X151853752Y-128173187D01*
X152071757Y-128700800D01*
X152475077Y-129104824D01*
X152605215Y-129158862D01*
X152477200Y-129211757D01*
X152073176Y-129615077D01*
X151854250Y-130142309D01*
X151853752Y-130713187D01*
X152071757Y-131240800D01*
X152475077Y-131644824D01*
X152605215Y-131698862D01*
X152477200Y-131751757D01*
X152073176Y-132155077D01*
X151854250Y-132682309D01*
X151853752Y-133253187D01*
X152071757Y-133780800D01*
X152475077Y-134184824D01*
X152605215Y-134238862D01*
X152477200Y-134291757D01*
X152073176Y-134695077D01*
X151854250Y-135222309D01*
X151853752Y-135793187D01*
X152071757Y-136320800D01*
X152475077Y-136724824D01*
X152605215Y-136778862D01*
X152477200Y-136831757D01*
X152073176Y-137235077D01*
X151854250Y-137762309D01*
X151853752Y-138333187D01*
X152071757Y-138860800D01*
X152475077Y-139264824D01*
X153002309Y-139483750D01*
X153573187Y-139484248D01*
X154100800Y-139266243D01*
X154504824Y-138862923D01*
X154723750Y-138335691D01*
X154724248Y-137764813D01*
X154506243Y-137237200D01*
X154195757Y-136926172D01*
X156082538Y-136926172D01*
X156487709Y-137906761D01*
X157237293Y-138657655D01*
X158217173Y-139064536D01*
X159278172Y-139065462D01*
X160258761Y-138660291D01*
X161009655Y-137910707D01*
X161416536Y-136930827D01*
X161416540Y-136926172D01*
X173862538Y-136926172D01*
X174267709Y-137906761D01*
X175017293Y-138657655D01*
X175997173Y-139064536D01*
X177058172Y-139065462D01*
X178038761Y-138660291D01*
X178789655Y-137910707D01*
X179196536Y-136930827D01*
X179197462Y-135869828D01*
X178792291Y-134889239D01*
X178042707Y-134138345D01*
X177062827Y-133731464D01*
X176001828Y-133730538D01*
X175021239Y-134135709D01*
X174270345Y-134885293D01*
X173863464Y-135865173D01*
X173862538Y-136926172D01*
X161416540Y-136926172D01*
X161417462Y-135869828D01*
X161012291Y-134889239D01*
X160262707Y-134138345D01*
X159282827Y-133731464D01*
X158221828Y-133730538D01*
X157241239Y-134135709D01*
X156490345Y-134885293D01*
X156083464Y-135865173D01*
X156082538Y-136926172D01*
X154195757Y-136926172D01*
X154102923Y-136833176D01*
X153972785Y-136779138D01*
X154100800Y-136726243D01*
X154504824Y-136322923D01*
X154723750Y-135795691D01*
X154724248Y-135224813D01*
X154506243Y-134697200D01*
X154102923Y-134293176D01*
X153972785Y-134239138D01*
X154100800Y-134186243D01*
X154504824Y-133782923D01*
X154723750Y-133255691D01*
X154724248Y-132684813D01*
X154506243Y-132157200D01*
X154102923Y-131753176D01*
X153972785Y-131699138D01*
X154100800Y-131646243D01*
X154504824Y-131242923D01*
X154723750Y-130715691D01*
X154724000Y-130429000D01*
X174993560Y-130429000D01*
X174993560Y-132207000D01*
X175037838Y-132442317D01*
X175176910Y-132658441D01*
X175389110Y-132803431D01*
X175641000Y-132854440D01*
X177419000Y-132854440D01*
X177654317Y-132810162D01*
X177870441Y-132671090D01*
X178015431Y-132458890D01*
X178066440Y-132207000D01*
X178066440Y-131340661D01*
X180339758Y-131340661D01*
X180551990Y-131854303D01*
X180944630Y-132247629D01*
X181457900Y-132460757D01*
X182013661Y-132461242D01*
X182527303Y-132249010D01*
X182920629Y-131856370D01*
X183133757Y-131343100D01*
X183133759Y-131340661D01*
X193293758Y-131340661D01*
X193505990Y-131854303D01*
X193898630Y-132247629D01*
X194411900Y-132460757D01*
X194967661Y-132461242D01*
X195481303Y-132249010D01*
X195874629Y-131856370D01*
X196087757Y-131343100D01*
X196088242Y-130787339D01*
X195876010Y-130273697D01*
X195483370Y-129880371D01*
X194970100Y-129667243D01*
X194414339Y-129666758D01*
X193900697Y-129878990D01*
X193507371Y-130271630D01*
X193294243Y-130784900D01*
X193293758Y-131340661D01*
X183133759Y-131340661D01*
X183134242Y-130787339D01*
X182922010Y-130273697D01*
X182529370Y-129880371D01*
X182016100Y-129667243D01*
X181460339Y-129666758D01*
X180946697Y-129878990D01*
X180553371Y-130271630D01*
X180340243Y-130784900D01*
X180339758Y-131340661D01*
X178066440Y-131340661D01*
X178066440Y-130429000D01*
X178022162Y-130193683D01*
X177883090Y-129977559D01*
X177670890Y-129832569D01*
X177637506Y-129825809D01*
X177821231Y-129642404D01*
X178053735Y-129082472D01*
X178054264Y-128476188D01*
X177978433Y-128292661D01*
X180339758Y-128292661D01*
X180551990Y-128806303D01*
X180944630Y-129199629D01*
X181457900Y-129412757D01*
X182013661Y-129413242D01*
X182527303Y-129201010D01*
X182920629Y-128808370D01*
X183133757Y-128295100D01*
X183133759Y-128292661D01*
X193293758Y-128292661D01*
X193505990Y-128806303D01*
X193898630Y-129199629D01*
X194411900Y-129412757D01*
X194967661Y-129413242D01*
X195481303Y-129201010D01*
X195874629Y-128808370D01*
X196087757Y-128295100D01*
X196088242Y-127739339D01*
X195876010Y-127225697D01*
X195483370Y-126832371D01*
X194970100Y-126619243D01*
X194414339Y-126618758D01*
X193900697Y-126830990D01*
X193507371Y-127223630D01*
X193294243Y-127736900D01*
X193293758Y-128292661D01*
X183133759Y-128292661D01*
X183134242Y-127739339D01*
X182922010Y-127225697D01*
X182529370Y-126832371D01*
X182016100Y-126619243D01*
X181460339Y-126618758D01*
X180946697Y-126830990D01*
X180553371Y-127223630D01*
X180340243Y-127736900D01*
X180339758Y-128292661D01*
X177978433Y-128292661D01*
X177822738Y-127915851D01*
X177394404Y-127486769D01*
X177367494Y-127475595D01*
X177422591Y-127310196D01*
X176530000Y-126417605D01*
X175637409Y-127310196D01*
X175692353Y-127475138D01*
X175667851Y-127485262D01*
X175238769Y-127913596D01*
X175006265Y-128473528D01*
X175005736Y-129079812D01*
X175237262Y-129640149D01*
X175419948Y-129823154D01*
X175405683Y-129825838D01*
X175189559Y-129964910D01*
X175044569Y-130177110D01*
X174993560Y-130429000D01*
X154724000Y-130429000D01*
X154724248Y-130144813D01*
X154506243Y-129617200D01*
X154102923Y-129213176D01*
X153972785Y-129159138D01*
X154100800Y-129106243D01*
X154504824Y-128702923D01*
X154723750Y-128175691D01*
X154724248Y-127604813D01*
X154506243Y-127077200D01*
X154102923Y-126673176D01*
X153972785Y-126619138D01*
X154100800Y-126566243D01*
X154504824Y-126162923D01*
X154572490Y-125999965D01*
X174994484Y-125999965D01*
X175020277Y-126605700D01*
X175202461Y-127045533D01*
X175457804Y-127130591D01*
X176350395Y-126238000D01*
X176709605Y-126238000D01*
X177602196Y-127130591D01*
X177857539Y-127045533D01*
X178065516Y-126476035D01*
X178039723Y-125870300D01*
X177857539Y-125430467D01*
X177602196Y-125345409D01*
X176709605Y-126238000D01*
X176350395Y-126238000D01*
X175457804Y-125345409D01*
X175202461Y-125430467D01*
X174994484Y-125999965D01*
X154572490Y-125999965D01*
X154723750Y-125635691D01*
X154724248Y-125064813D01*
X154506243Y-124537200D01*
X154102923Y-124133176D01*
X153972785Y-124079138D01*
X154100800Y-124026243D01*
X154504824Y-123622923D01*
X154723750Y-123095691D01*
X154724248Y-122524813D01*
X154506243Y-121997200D01*
X154102923Y-121593176D01*
X153972785Y-121539138D01*
X154100800Y-121486243D01*
X154504824Y-121082923D01*
X154723750Y-120555691D01*
X154724248Y-119984813D01*
X154506243Y-119457200D01*
X154102923Y-119053176D01*
X153972785Y-118999138D01*
X154100800Y-118946243D01*
X154504824Y-118542923D01*
X154723750Y-118015691D01*
X154724248Y-117444813D01*
X154506243Y-116917200D01*
X154102923Y-116513176D01*
X153972785Y-116459138D01*
X154100800Y-116406243D01*
X154504824Y-116002923D01*
X154723750Y-115475691D01*
X154724248Y-114904813D01*
X154506243Y-114377200D01*
X154102923Y-113973176D01*
X153972785Y-113919138D01*
X154100800Y-113866243D01*
X154504824Y-113462923D01*
X154723750Y-112935691D01*
X154724248Y-112364813D01*
X154506243Y-111837200D01*
X154102923Y-111433176D01*
X153972785Y-111379138D01*
X154100800Y-111326243D01*
X154504824Y-110922923D01*
X154723750Y-110395691D01*
X154724248Y-109824813D01*
X154506243Y-109297200D01*
X154102923Y-108893176D01*
X153972785Y-108839138D01*
X154100800Y-108786243D01*
X154504824Y-108382923D01*
X154723750Y-107855691D01*
X154724248Y-107284813D01*
X154506243Y-106757200D01*
X154102923Y-106353176D01*
X153972785Y-106299138D01*
X154100800Y-106246243D01*
X154504824Y-105842923D01*
X154645158Y-105504960D01*
X173375599Y-124235401D01*
X173622161Y-124400148D01*
X173913000Y-124458000D01*
X175195055Y-124458000D01*
X175237262Y-124560149D01*
X175665596Y-124989231D01*
X175692506Y-125000405D01*
X175637409Y-125165804D01*
X176530000Y-126058395D01*
X177422591Y-125165804D01*
X177367647Y-125000862D01*
X177392149Y-124990738D01*
X177821231Y-124562404D01*
X178053735Y-124002472D01*
X178054264Y-123396188D01*
X177822738Y-122835851D01*
X177415263Y-122427664D01*
X177821231Y-122022404D01*
X178053735Y-121462472D01*
X178054264Y-120856188D01*
X177822738Y-120295851D01*
X177415263Y-119887664D01*
X177821231Y-119482404D01*
X178053735Y-118922472D01*
X178054264Y-118316188D01*
X177822738Y-117755851D01*
X177415263Y-117347664D01*
X177821231Y-116942404D01*
X178053735Y-116382472D01*
X178054264Y-115776188D01*
X177822738Y-115215851D01*
X177415263Y-114807664D01*
X177821231Y-114402404D01*
X178053735Y-113842472D01*
X178054264Y-113236188D01*
X177822738Y-112675851D01*
X177415263Y-112267664D01*
X177821231Y-111862404D01*
X178053735Y-111302472D01*
X178054264Y-110696188D01*
X177822738Y-110135851D01*
X177415263Y-109727664D01*
X177821231Y-109322404D01*
X178053735Y-108762472D01*
X178053875Y-108601510D01*
X179328070Y-108601510D01*
X179328070Y-110600490D01*
X179372348Y-110835807D01*
X179511420Y-111051931D01*
X179723620Y-111196921D01*
X179959000Y-111244587D01*
X179959000Y-112268000D01*
X180009471Y-112521735D01*
X180036338Y-112656807D01*
X180256580Y-112986420D01*
X182775724Y-115505565D01*
X182762907Y-115570000D01*
X182875946Y-116138285D01*
X183197853Y-116620054D01*
X183679622Y-116941961D01*
X184247907Y-117055000D01*
X184306093Y-117055000D01*
X184692001Y-116978238D01*
X184692001Y-118320065D01*
X184658000Y-118491000D01*
X184658000Y-118995406D01*
X184614330Y-119024585D01*
X184604757Y-119038913D01*
X184600762Y-119017683D01*
X184461690Y-118801559D01*
X184249490Y-118656569D01*
X183997600Y-118605560D01*
X182270400Y-118605560D01*
X182035083Y-118649838D01*
X181818959Y-118788910D01*
X181673969Y-119001110D01*
X181622960Y-119253000D01*
X181622960Y-121285000D01*
X181667238Y-121520317D01*
X181806310Y-121736441D01*
X182018510Y-121881431D01*
X182270400Y-121932440D01*
X183997600Y-121932440D01*
X184232917Y-121888162D01*
X184449041Y-121749090D01*
X184594031Y-121536890D01*
X184602400Y-121495561D01*
X184614330Y-121513415D01*
X185100511Y-121838271D01*
X185674000Y-121952345D01*
X186247489Y-121838271D01*
X186733670Y-121513415D01*
X186940461Y-121203931D01*
X187311964Y-121619732D01*
X187839209Y-121873709D01*
X187854974Y-121876358D01*
X188087000Y-121755217D01*
X188087000Y-120396000D01*
X188341000Y-120396000D01*
X188341000Y-121755217D01*
X188573026Y-121876358D01*
X188588791Y-121873709D01*
X189116036Y-121619732D01*
X189505954Y-121183320D01*
X189699184Y-120630913D01*
X189554924Y-120396000D01*
X188341000Y-120396000D01*
X188087000Y-120396000D01*
X188067000Y-120396000D01*
X188067000Y-120142000D01*
X188087000Y-120142000D01*
X188087000Y-118782783D01*
X188341000Y-118782783D01*
X188341000Y-120142000D01*
X189554924Y-120142000D01*
X189699184Y-119907087D01*
X189505954Y-119354680D01*
X189116036Y-118918268D01*
X188588791Y-118664291D01*
X188573026Y-118661642D01*
X188341000Y-118782783D01*
X188087000Y-118782783D01*
X187854974Y-118661642D01*
X187839209Y-118664291D01*
X187311964Y-118918268D01*
X186940461Y-119334069D01*
X186733670Y-119024585D01*
X186690000Y-118995406D01*
X186690000Y-118627935D01*
X186724001Y-118456999D01*
X186724001Y-116195238D01*
X187007853Y-116620054D01*
X187489622Y-116941961D01*
X188057907Y-117055000D01*
X188116093Y-117055000D01*
X188684378Y-116941961D01*
X189166147Y-116620054D01*
X189488054Y-116138285D01*
X189601093Y-115570000D01*
X189575832Y-115443000D01*
X195970907Y-115443000D01*
X196083946Y-116011285D01*
X196405853Y-116493054D01*
X196447452Y-116520850D01*
X196399683Y-116529838D01*
X196183559Y-116668910D01*
X196038569Y-116881110D01*
X195987560Y-117133000D01*
X195987560Y-118833000D01*
X196031838Y-119068317D01*
X196170910Y-119284441D01*
X196383110Y-119429431D01*
X196635000Y-119480440D01*
X198335000Y-119480440D01*
X198570317Y-119436162D01*
X198786441Y-119297090D01*
X198931431Y-119084890D01*
X198982440Y-118833000D01*
X198982440Y-117133000D01*
X198938162Y-116897683D01*
X198799090Y-116681559D01*
X198586890Y-116536569D01*
X198519459Y-116522914D01*
X198564147Y-116493054D01*
X198886054Y-116011285D01*
X198999093Y-115443000D01*
X198973832Y-115316000D01*
X199907907Y-115316000D01*
X200020946Y-115884285D01*
X200342853Y-116366054D01*
X200672026Y-116586000D01*
X200342853Y-116805946D01*
X200020946Y-117287715D01*
X199907907Y-117856000D01*
X200020946Y-118424285D01*
X200342853Y-118906054D01*
X200824622Y-119227961D01*
X201392907Y-119341000D01*
X201451093Y-119341000D01*
X202019378Y-119227961D01*
X202501147Y-118906054D01*
X202823054Y-118424285D01*
X202936093Y-117856000D01*
X202823054Y-117287715D01*
X202501147Y-116805946D01*
X202171974Y-116586000D01*
X202501147Y-116366054D01*
X202823054Y-115884285D01*
X202936093Y-115316000D01*
X202823054Y-114747715D01*
X202501147Y-114265946D01*
X202459548Y-114238150D01*
X202507317Y-114229162D01*
X202723441Y-114090090D01*
X202868431Y-113877890D01*
X202919440Y-113626000D01*
X202919440Y-111926000D01*
X202875162Y-111690683D01*
X202736090Y-111474559D01*
X202523890Y-111329569D01*
X202272000Y-111278560D01*
X200572000Y-111278560D01*
X200336683Y-111322838D01*
X200120559Y-111461910D01*
X199975569Y-111674110D01*
X199924560Y-111926000D01*
X199924560Y-113626000D01*
X199968838Y-113861317D01*
X200107910Y-114077441D01*
X200320110Y-114222431D01*
X200387541Y-114236086D01*
X200342853Y-114265946D01*
X200020946Y-114747715D01*
X199907907Y-115316000D01*
X198973832Y-115316000D01*
X198886054Y-114874715D01*
X198564147Y-114392946D01*
X198082378Y-114071039D01*
X197514093Y-113958000D01*
X197455907Y-113958000D01*
X196887622Y-114071039D01*
X196405853Y-114392946D01*
X196083946Y-114874715D01*
X195970907Y-115443000D01*
X189575832Y-115443000D01*
X189488054Y-115001715D01*
X189166147Y-114519946D01*
X189124548Y-114492150D01*
X189172317Y-114483162D01*
X189388441Y-114344090D01*
X189533431Y-114131890D01*
X189584440Y-113880000D01*
X189584440Y-112180000D01*
X189540162Y-111944683D01*
X189401090Y-111728559D01*
X189188890Y-111583569D01*
X189103000Y-111566176D01*
X189103000Y-109539240D01*
X189320605Y-109321635D01*
X189557461Y-109321842D01*
X190071103Y-109109610D01*
X190464429Y-108716970D01*
X190677557Y-108203700D01*
X190677658Y-108087383D01*
X193700569Y-108087383D01*
X193903382Y-108578229D01*
X194278596Y-108954098D01*
X194769087Y-109157768D01*
X195300183Y-109158231D01*
X195791029Y-108955418D01*
X195988516Y-108758275D01*
X196780131Y-108758275D01*
X196841969Y-108994042D01*
X197342922Y-109170419D01*
X197873240Y-109141664D01*
X198229631Y-108994042D01*
X198291469Y-108758275D01*
X197535800Y-108002605D01*
X196780131Y-108758275D01*
X195988516Y-108758275D01*
X196166898Y-108580204D01*
X196279091Y-108310013D01*
X196364758Y-108516831D01*
X196600525Y-108578669D01*
X197356195Y-107823000D01*
X197715405Y-107823000D01*
X198471075Y-108578669D01*
X198706842Y-108516831D01*
X198883219Y-108015878D01*
X198854464Y-107485560D01*
X198706842Y-107129169D01*
X198471075Y-107067331D01*
X197715405Y-107823000D01*
X197356195Y-107823000D01*
X196600525Y-107067331D01*
X196364758Y-107129169D01*
X196286007Y-107352842D01*
X196168218Y-107067771D01*
X195988486Y-106887725D01*
X196780131Y-106887725D01*
X197535800Y-107643395D01*
X198291469Y-106887725D01*
X198229631Y-106651958D01*
X197728678Y-106475581D01*
X197198360Y-106504336D01*
X196841969Y-106651958D01*
X196780131Y-106887725D01*
X195988486Y-106887725D01*
X195793004Y-106691902D01*
X195302513Y-106488232D01*
X194771417Y-106487769D01*
X194280571Y-106690582D01*
X193904702Y-107065796D01*
X193701032Y-107556287D01*
X193700569Y-108087383D01*
X190677658Y-108087383D01*
X190678042Y-107647939D01*
X190465810Y-107134297D01*
X190296800Y-106964992D01*
X190296800Y-104154440D01*
X191040620Y-103410620D01*
X191260862Y-103081007D01*
X191338199Y-102692200D01*
X191260862Y-102303393D01*
X191040620Y-101973780D01*
X190711007Y-101753538D01*
X190322200Y-101676201D01*
X189933393Y-101753538D01*
X189603780Y-101973780D01*
X188562380Y-103015180D01*
X188342138Y-103344793D01*
X188338009Y-103365551D01*
X188264800Y-103733600D01*
X188264800Y-106964893D01*
X188097171Y-107132230D01*
X188017405Y-107324327D01*
X187963197Y-107193457D01*
X187721013Y-107123992D01*
X186920405Y-107924600D01*
X186934548Y-107938743D01*
X186754943Y-108118348D01*
X186740800Y-108104205D01*
X186726658Y-108118348D01*
X186547053Y-107938743D01*
X186561195Y-107924600D01*
X185760587Y-107123992D01*
X185518403Y-107193457D01*
X185468291Y-107333918D01*
X185385810Y-107134297D01*
X185216800Y-106964992D01*
X185216800Y-106944387D01*
X185940192Y-106944387D01*
X186740800Y-107744995D01*
X187541408Y-106944387D01*
X187471943Y-106702203D01*
X186948498Y-106515456D01*
X186393432Y-106543238D01*
X186009657Y-106702203D01*
X185940192Y-106944387D01*
X185216800Y-106944387D01*
X185216800Y-102540492D01*
X185242199Y-102412800D01*
X185164862Y-102023993D01*
X184944620Y-101694380D01*
X184615007Y-101474138D01*
X184226200Y-101396801D01*
X184060293Y-101429801D01*
X184021862Y-101236593D01*
X183801621Y-100906979D01*
X183472007Y-100686738D01*
X183083200Y-100609401D01*
X182694393Y-100686738D01*
X182364780Y-100906979D01*
X181912381Y-101359379D01*
X181692139Y-101688992D01*
X181692139Y-101688993D01*
X181614801Y-102077799D01*
X181614801Y-104286868D01*
X181301547Y-104156794D01*
X180651306Y-104156226D01*
X180050345Y-104404538D01*
X179590154Y-104863927D01*
X179340794Y-105464453D01*
X179340226Y-106114694D01*
X179588538Y-106715655D01*
X180047927Y-107175846D01*
X180648453Y-107425206D01*
X181298694Y-107425774D01*
X181614801Y-107295161D01*
X181614801Y-107954070D01*
X179975510Y-107954070D01*
X179740193Y-107998348D01*
X179524069Y-108137420D01*
X179379079Y-108349620D01*
X179328070Y-108601510D01*
X178053875Y-108601510D01*
X178054264Y-108156188D01*
X177822738Y-107595851D01*
X177394404Y-107166769D01*
X176834472Y-106934265D01*
X176228188Y-106933736D01*
X175667851Y-107165262D01*
X175238769Y-107593596D01*
X175006265Y-108153528D01*
X175005736Y-108759812D01*
X175237262Y-109320149D01*
X175644737Y-109728336D01*
X175238769Y-110133596D01*
X175006265Y-110693528D01*
X175005736Y-111299812D01*
X175237262Y-111860149D01*
X175644737Y-112268336D01*
X175238769Y-112673596D01*
X175006265Y-113233528D01*
X175005736Y-113839812D01*
X175237262Y-114400149D01*
X175644737Y-114808336D01*
X175238769Y-115213596D01*
X175006265Y-115773528D01*
X175005736Y-116379812D01*
X175237262Y-116940149D01*
X175644737Y-117348336D01*
X175238769Y-117753596D01*
X175006265Y-118313528D01*
X175005736Y-118919812D01*
X175237262Y-119480149D01*
X175644737Y-119888336D01*
X175238769Y-120293596D01*
X175195417Y-120398000D01*
X172792560Y-120398000D01*
X158439290Y-106044730D01*
X159278172Y-106045462D01*
X160258761Y-105640291D01*
X161009655Y-104890707D01*
X161416536Y-103910827D01*
X161416540Y-103906172D01*
X173862538Y-103906172D01*
X174267709Y-104886761D01*
X175017293Y-105637655D01*
X175997173Y-106044536D01*
X177058172Y-106045462D01*
X178038761Y-105640291D01*
X178789655Y-104890707D01*
X179196536Y-103910827D01*
X179197462Y-102849828D01*
X178792291Y-101869239D01*
X178042707Y-101118345D01*
X177062827Y-100711464D01*
X176001828Y-100710538D01*
X175021239Y-101115709D01*
X174270345Y-101865293D01*
X173863464Y-102845173D01*
X173862538Y-103906172D01*
X161416540Y-103906172D01*
X161417462Y-102849828D01*
X161012291Y-101869239D01*
X160262707Y-101118345D01*
X159284171Y-100712022D01*
X163977579Y-100712022D01*
X164009715Y-100744214D01*
X164353243Y-100886860D01*
X164725209Y-100887184D01*
X165068985Y-100745139D01*
X165332234Y-100482349D01*
X165474880Y-100138821D01*
X165474925Y-100087012D01*
X171648750Y-100087012D01*
X171939589Y-100029160D01*
X172186151Y-99864413D01*
X173200891Y-98849673D01*
X173324630Y-98973629D01*
X173837900Y-99186757D01*
X174393661Y-99187242D01*
X174907303Y-98975010D01*
X175300629Y-98582370D01*
X175513757Y-98069100D01*
X175514242Y-97513339D01*
X175493442Y-97462999D01*
X179411440Y-97462999D01*
X179438560Y-97481120D01*
X179438560Y-97739200D01*
X179482838Y-97974517D01*
X179621910Y-98190641D01*
X179834110Y-98335631D01*
X180086000Y-98386640D01*
X181864000Y-98386640D01*
X182099317Y-98342362D01*
X182315441Y-98203290D01*
X182460431Y-97991090D01*
X182492968Y-97830413D01*
X187794392Y-97830413D01*
X187863857Y-98072597D01*
X188387302Y-98259344D01*
X188942368Y-98231562D01*
X189326143Y-98072597D01*
X189395608Y-97830413D01*
X188595000Y-97029805D01*
X187794392Y-97830413D01*
X182492968Y-97830413D01*
X182511440Y-97739200D01*
X182511440Y-96642502D01*
X187185856Y-96642502D01*
X187213638Y-97197568D01*
X187372603Y-97581343D01*
X187614787Y-97650808D01*
X188415395Y-96850200D01*
X188774605Y-96850200D01*
X189575213Y-97650808D01*
X189817397Y-97581343D01*
X190004144Y-97057898D01*
X189976362Y-96502832D01*
X189910879Y-96344740D01*
X190866020Y-96344740D01*
X190866020Y-99844860D01*
X190910298Y-100080177D01*
X191049370Y-100296301D01*
X191261570Y-100441291D01*
X191513460Y-100492300D01*
X195013580Y-100492300D01*
X195248897Y-100448022D01*
X195465021Y-100308950D01*
X195610011Y-100096750D01*
X195661020Y-99844860D01*
X195661020Y-98380550D01*
X196877940Y-98380550D01*
X196877940Y-99971170D01*
X196974613Y-100204559D01*
X197153242Y-100383187D01*
X197386631Y-100479860D01*
X198977250Y-100479860D01*
X199136000Y-100321110D01*
X199136000Y-98221800D01*
X199390000Y-98221800D01*
X199390000Y-100321110D01*
X199548750Y-100479860D01*
X201139369Y-100479860D01*
X201372758Y-100383187D01*
X201551387Y-100204559D01*
X201648060Y-99971170D01*
X201648060Y-98380550D01*
X201489310Y-98221800D01*
X199390000Y-98221800D01*
X199136000Y-98221800D01*
X197036690Y-98221800D01*
X196877940Y-98380550D01*
X195661020Y-98380550D01*
X195661020Y-96344740D01*
X195616742Y-96109423D01*
X195477670Y-95893299D01*
X195331317Y-95793300D01*
X197184900Y-95793300D01*
X197153242Y-95806413D01*
X196974613Y-95985041D01*
X196877940Y-96218430D01*
X196877940Y-97809050D01*
X197036690Y-97967800D01*
X199136000Y-97967800D01*
X199136000Y-95868490D01*
X199390000Y-95868490D01*
X199390000Y-97967800D01*
X201489310Y-97967800D01*
X201648060Y-97809050D01*
X201648060Y-96218430D01*
X201551387Y-95985041D01*
X201372758Y-95806413D01*
X201139369Y-95709740D01*
X199548750Y-95709740D01*
X199390000Y-95868490D01*
X199136000Y-95868490D01*
X198977250Y-95709740D01*
X198309683Y-95709740D01*
X198464761Y-95609950D01*
X198609751Y-95397750D01*
X198660760Y-95145860D01*
X198660760Y-91645740D01*
X198616482Y-91410423D01*
X198477410Y-91194299D01*
X198265210Y-91049309D01*
X198013320Y-90998300D01*
X196428126Y-90998300D01*
X196710846Y-90716073D01*
X196829519Y-90430275D01*
X202063331Y-90430275D01*
X202125169Y-90666042D01*
X202626122Y-90842419D01*
X203156440Y-90813664D01*
X203512831Y-90666042D01*
X203574669Y-90430275D01*
X202819000Y-89674605D01*
X202063331Y-90430275D01*
X196829519Y-90430275D01*
X196960206Y-90115547D01*
X196960774Y-89465306D01*
X196893348Y-89302122D01*
X201471581Y-89302122D01*
X201500336Y-89832440D01*
X201647958Y-90188831D01*
X201883725Y-90250669D01*
X202639395Y-89495000D01*
X202998605Y-89495000D01*
X203754275Y-90250669D01*
X203990042Y-90188831D01*
X204166419Y-89687878D01*
X204137664Y-89157560D01*
X203990042Y-88801169D01*
X203754275Y-88739331D01*
X202998605Y-89495000D01*
X202639395Y-89495000D01*
X201883725Y-88739331D01*
X201647958Y-88801169D01*
X201471581Y-89302122D01*
X196893348Y-89302122D01*
X196712462Y-88864345D01*
X196253073Y-88404154D01*
X196224475Y-88392279D01*
X196250655Y-88381462D01*
X196710846Y-87922073D01*
X196960206Y-87321547D01*
X196960260Y-87259383D01*
X201483769Y-87259383D01*
X201686582Y-87750229D01*
X202061796Y-88126098D01*
X202331987Y-88238291D01*
X202125169Y-88323958D01*
X202063331Y-88559725D01*
X202819000Y-89315395D01*
X203574669Y-88559725D01*
X203512831Y-88323958D01*
X203289158Y-88245207D01*
X203574229Y-88127418D01*
X203950098Y-87752204D01*
X204153768Y-87261713D01*
X204154231Y-86730617D01*
X203951418Y-86239771D01*
X203576204Y-85863902D01*
X203085713Y-85660232D01*
X202554617Y-85659769D01*
X202063771Y-85862582D01*
X201687902Y-86237796D01*
X201484232Y-86728287D01*
X201483769Y-87259383D01*
X196960260Y-87259383D01*
X196960774Y-86671306D01*
X196712462Y-86070345D01*
X196253073Y-85610154D01*
X195652547Y-85360794D01*
X195002306Y-85360226D01*
X194401345Y-85608538D01*
X193941154Y-86067927D01*
X193691794Y-86668453D01*
X193691226Y-87318694D01*
X193939538Y-87919655D01*
X194398927Y-88379846D01*
X194427525Y-88391721D01*
X194401345Y-88402538D01*
X193941154Y-88861927D01*
X193691794Y-89462453D01*
X193691226Y-90112694D01*
X193939538Y-90713655D01*
X194271797Y-91046494D01*
X194061759Y-91181650D01*
X193916769Y-91393850D01*
X193865760Y-91645740D01*
X193865760Y-95145860D01*
X193910038Y-95381177D01*
X194049110Y-95597301D01*
X194195463Y-95697300D01*
X191513460Y-95697300D01*
X191278143Y-95741578D01*
X191062019Y-95880650D01*
X190917029Y-96092850D01*
X190866020Y-96344740D01*
X189910879Y-96344740D01*
X189817397Y-96119057D01*
X189575213Y-96049592D01*
X188774605Y-96850200D01*
X188415395Y-96850200D01*
X187614787Y-96049592D01*
X187372603Y-96119057D01*
X187185856Y-96642502D01*
X182511440Y-96642502D01*
X182511440Y-95961200D01*
X182494278Y-95869987D01*
X187794392Y-95869987D01*
X188595000Y-96670595D01*
X189395608Y-95869987D01*
X189326143Y-95627803D01*
X188802698Y-95441056D01*
X188247632Y-95468838D01*
X187863857Y-95627803D01*
X187794392Y-95869987D01*
X182494278Y-95869987D01*
X182467162Y-95725883D01*
X182328090Y-95509759D01*
X182115890Y-95364769D01*
X181864000Y-95313760D01*
X180086000Y-95313760D01*
X179850683Y-95358038D01*
X179634559Y-95497110D01*
X179489569Y-95709310D01*
X179442246Y-95942999D01*
X173595239Y-95942999D01*
X173304400Y-96000851D01*
X173057838Y-96165598D01*
X172493109Y-96730327D01*
X172369370Y-96606371D01*
X171856100Y-96393243D01*
X171300339Y-96392758D01*
X170786697Y-96604990D01*
X170393371Y-96997630D01*
X170307051Y-97205512D01*
X170222010Y-96999697D01*
X169829370Y-96606371D01*
X169316100Y-96393243D01*
X168760339Y-96392758D01*
X168246697Y-96604990D01*
X167853371Y-96997630D01*
X167773605Y-97189727D01*
X167719397Y-97058857D01*
X167477213Y-96989392D01*
X166676605Y-97790000D01*
X166690748Y-97804143D01*
X166511143Y-97983748D01*
X166497000Y-97969605D01*
X166482858Y-97983748D01*
X166303253Y-97804143D01*
X166317395Y-97790000D01*
X166303253Y-97775858D01*
X166482858Y-97596253D01*
X166497000Y-97610395D01*
X167297608Y-96809787D01*
X167228143Y-96567603D01*
X166704698Y-96380856D01*
X166149632Y-96408638D01*
X165765857Y-96567603D01*
X165696393Y-96809785D01*
X165581382Y-96694774D01*
X165563360Y-96712796D01*
X159517162Y-90666598D01*
X159270600Y-90501851D01*
X158979761Y-90443999D01*
X154570815Y-90443999D01*
X154723750Y-90075691D01*
X154724248Y-89504813D01*
X154515204Y-88998887D01*
X178905000Y-88998887D01*
X178905000Y-89055113D01*
X179014233Y-89604264D01*
X179325302Y-90069811D01*
X179790849Y-90380880D01*
X180340000Y-90490113D01*
X180889151Y-90380880D01*
X181354698Y-90069811D01*
X181665767Y-89604264D01*
X181753264Y-89164383D01*
X183108769Y-89164383D01*
X183311582Y-89655229D01*
X183686796Y-90031098D01*
X184177287Y-90234768D01*
X184708383Y-90235231D01*
X185199229Y-90032418D01*
X185396716Y-89835275D01*
X186188331Y-89835275D01*
X186250169Y-90071042D01*
X186751122Y-90247419D01*
X187281440Y-90218664D01*
X187637831Y-90071042D01*
X187699669Y-89835275D01*
X186944000Y-89079605D01*
X186188331Y-89835275D01*
X185396716Y-89835275D01*
X185575098Y-89657204D01*
X185687291Y-89387013D01*
X185772958Y-89593831D01*
X186008725Y-89655669D01*
X186764395Y-88900000D01*
X187123605Y-88900000D01*
X187879275Y-89655669D01*
X188115042Y-89593831D01*
X188291419Y-89092878D01*
X188262664Y-88562560D01*
X188115042Y-88206169D01*
X187879275Y-88144331D01*
X187123605Y-88900000D01*
X186764395Y-88900000D01*
X186008725Y-88144331D01*
X185772958Y-88206169D01*
X185694207Y-88429842D01*
X185576418Y-88144771D01*
X185396686Y-87964725D01*
X186188331Y-87964725D01*
X186944000Y-88720395D01*
X187699669Y-87964725D01*
X187637831Y-87728958D01*
X187136878Y-87552581D01*
X186606560Y-87581336D01*
X186250169Y-87728958D01*
X186188331Y-87964725D01*
X185396686Y-87964725D01*
X185201204Y-87768902D01*
X184710713Y-87565232D01*
X184179617Y-87564769D01*
X183688771Y-87767582D01*
X183312902Y-88142796D01*
X183109232Y-88633287D01*
X183108769Y-89164383D01*
X181753264Y-89164383D01*
X181775000Y-89055113D01*
X181775000Y-88998887D01*
X181665767Y-88449736D01*
X181354698Y-87984189D01*
X180889151Y-87673120D01*
X180340000Y-87563887D01*
X179790849Y-87673120D01*
X179325302Y-87984189D01*
X179014233Y-88449736D01*
X178905000Y-88998887D01*
X154515204Y-88998887D01*
X154506243Y-88977200D01*
X154102923Y-88573176D01*
X153972785Y-88519138D01*
X154100800Y-88466243D01*
X154504824Y-88062923D01*
X154723750Y-87535691D01*
X154724248Y-86964813D01*
X154506243Y-86437200D01*
X154102923Y-86033176D01*
X153972785Y-85979138D01*
X154100800Y-85926243D01*
X154504824Y-85522923D01*
X154723750Y-84995691D01*
X154724248Y-84424813D01*
X154506243Y-83897200D01*
X154102923Y-83493176D01*
X153988232Y-83445552D01*
X154043005Y-83422864D01*
X154117139Y-83176745D01*
X153289000Y-82348605D01*
X152460861Y-83176745D01*
X152534995Y-83422864D01*
X152593254Y-83443805D01*
X152477200Y-83491757D01*
X152073176Y-83895077D01*
X151854250Y-84422309D01*
X151853752Y-84993187D01*
X152071757Y-85520800D01*
X152475077Y-85924824D01*
X152605215Y-85978862D01*
X152477200Y-86031757D01*
X152073176Y-86435077D01*
X152019138Y-86565215D01*
X151966243Y-86437200D01*
X151562923Y-86033176D01*
X151035691Y-85814250D01*
X150464813Y-85813752D01*
X149937200Y-86031757D01*
X149533176Y-86435077D01*
X149314250Y-86962309D01*
X149313752Y-87533187D01*
X149531757Y-88060800D01*
X149935077Y-88464824D01*
X150065215Y-88518862D01*
X149937200Y-88571757D01*
X149533176Y-88975077D01*
X149314250Y-89502309D01*
X149313752Y-90073187D01*
X149466968Y-90443999D01*
X147668999Y-90443999D01*
X147378160Y-90501851D01*
X147131598Y-90666598D01*
X142326109Y-95472087D01*
X142266243Y-95327200D01*
X141862923Y-94923176D01*
X141732785Y-94869138D01*
X141860800Y-94816243D01*
X142264824Y-94412923D01*
X142483750Y-93885691D01*
X142484248Y-93314813D01*
X142266243Y-92787200D01*
X141862923Y-92383176D01*
X141732785Y-92329138D01*
X141860800Y-92276243D01*
X142264824Y-91872923D01*
X142483750Y-91345691D01*
X142484248Y-90774813D01*
X142266243Y-90247200D01*
X141862923Y-89843176D01*
X141732785Y-89789138D01*
X141860800Y-89736243D01*
X142264824Y-89332923D01*
X142483750Y-88805691D01*
X142484248Y-88234813D01*
X142266243Y-87707200D01*
X141862923Y-87303176D01*
X141732785Y-87249138D01*
X141860800Y-87196243D01*
X142264824Y-86792923D01*
X142483750Y-86265691D01*
X142484248Y-85694813D01*
X142266243Y-85167200D01*
X141862923Y-84763176D01*
X141335691Y-84544250D01*
X140764813Y-84543752D01*
X140237200Y-84761757D01*
X139833176Y-85165077D01*
X139614250Y-85692309D01*
X139613752Y-86263187D01*
X139831757Y-86790800D01*
X140235077Y-87194824D01*
X140365215Y-87248862D01*
X140237200Y-87301757D01*
X139833176Y-87705077D01*
X139614250Y-88232309D01*
X139613752Y-88803187D01*
X139831757Y-89330800D01*
X140235077Y-89734824D01*
X140365215Y-89788862D01*
X140237200Y-89841757D01*
X139833176Y-90245077D01*
X139614250Y-90772309D01*
X139613752Y-91343187D01*
X139831757Y-91870800D01*
X140235077Y-92274824D01*
X140365215Y-92328862D01*
X140237200Y-92381757D01*
X139833176Y-92785077D01*
X139614250Y-93312309D01*
X139613752Y-93883187D01*
X139831757Y-94410800D01*
X140235077Y-94814824D01*
X140365215Y-94868862D01*
X140237200Y-94921757D01*
X139833176Y-95325077D01*
X139614250Y-95852309D01*
X139613752Y-96423187D01*
X139707056Y-96649000D01*
X139287646Y-96649000D01*
X139266243Y-96597200D01*
X138862923Y-96193176D01*
X138732785Y-96139138D01*
X138860800Y-96086243D01*
X139264824Y-95682923D01*
X139483750Y-95155691D01*
X139484248Y-94584813D01*
X139266243Y-94057200D01*
X138862923Y-93653176D01*
X138732785Y-93599138D01*
X138860800Y-93546243D01*
X139264824Y-93142923D01*
X139483750Y-92615691D01*
X139484248Y-92044813D01*
X139266243Y-91517200D01*
X138862923Y-91113176D01*
X138732785Y-91059138D01*
X138860800Y-91006243D01*
X139264824Y-90602923D01*
X139483750Y-90075691D01*
X139484248Y-89504813D01*
X139266243Y-88977200D01*
X138862923Y-88573176D01*
X138732785Y-88519138D01*
X138860800Y-88466243D01*
X139264824Y-88062923D01*
X139483750Y-87535691D01*
X139484248Y-86964813D01*
X139266243Y-86437200D01*
X138862923Y-86033176D01*
X138732785Y-85979138D01*
X138860800Y-85926243D01*
X139264824Y-85522923D01*
X139483750Y-84995691D01*
X139484248Y-84424813D01*
X139266243Y-83897200D01*
X138862923Y-83493176D01*
X138732785Y-83439138D01*
X138860800Y-83386243D01*
X139264824Y-82982923D01*
X139483750Y-82455691D01*
X139483752Y-82453187D01*
X149313752Y-82453187D01*
X149531757Y-82980800D01*
X149935077Y-83384824D01*
X150462309Y-83603750D01*
X151033187Y-83604248D01*
X151560800Y-83386243D01*
X151964824Y-82982923D01*
X152012448Y-82868232D01*
X152035136Y-82923005D01*
X152281255Y-82997139D01*
X153109395Y-82169000D01*
X152281255Y-81340861D01*
X152035136Y-81414995D01*
X152014195Y-81473254D01*
X151966243Y-81357200D01*
X151562923Y-80953176D01*
X151035691Y-80734250D01*
X150464813Y-80733752D01*
X149937200Y-80951757D01*
X149533176Y-81355077D01*
X149314250Y-81882309D01*
X149313752Y-82453187D01*
X139483752Y-82453187D01*
X139484248Y-81884813D01*
X139266243Y-81357200D01*
X138973554Y-81064000D01*
X138975310Y-81064000D01*
X139208699Y-80967327D01*
X139387327Y-80788698D01*
X139484000Y-80555309D01*
X139484000Y-79914750D01*
X139482437Y-79913187D01*
X151853752Y-79913187D01*
X152071757Y-80440800D01*
X152475077Y-80844824D01*
X152589768Y-80892448D01*
X152534995Y-80915136D01*
X152460861Y-81161255D01*
X153289000Y-81989395D01*
X153303142Y-81975252D01*
X153482748Y-82154858D01*
X153468605Y-82169000D01*
X154296745Y-82997139D01*
X154542864Y-82923005D01*
X154702378Y-82479219D01*
X159047579Y-86824420D01*
X159377193Y-87044661D01*
X159766000Y-87121999D01*
X160154807Y-87044661D01*
X160484420Y-86824420D01*
X160704661Y-86494807D01*
X160781999Y-86106000D01*
X160760022Y-85995510D01*
X189869070Y-85995510D01*
X189869070Y-87994490D01*
X189913348Y-88229807D01*
X190018619Y-88393402D01*
X189920079Y-88537620D01*
X189869070Y-88789510D01*
X189869070Y-90788490D01*
X189913348Y-91023807D01*
X190052420Y-91239931D01*
X190264620Y-91384921D01*
X190516510Y-91435930D01*
X192515490Y-91435930D01*
X192750807Y-91391652D01*
X192966931Y-91252580D01*
X193111921Y-91040380D01*
X193162930Y-90788490D01*
X193162930Y-88789510D01*
X193118652Y-88554193D01*
X193013381Y-88390598D01*
X193111921Y-88246380D01*
X193162930Y-87994490D01*
X193162930Y-85995510D01*
X193118652Y-85760193D01*
X192979580Y-85544069D01*
X192767380Y-85399079D01*
X192515490Y-85348070D01*
X190516510Y-85348070D01*
X190281193Y-85392348D01*
X190065069Y-85531420D01*
X189920079Y-85743620D01*
X189869070Y-85995510D01*
X160760022Y-85995510D01*
X160704661Y-85717193D01*
X160484420Y-85387579D01*
X158478636Y-83381795D01*
X183784716Y-83381795D01*
X184033106Y-83982943D01*
X184492637Y-84443278D01*
X185093352Y-84692716D01*
X185743795Y-84693284D01*
X186344943Y-84444894D01*
X186805278Y-83985363D01*
X187054716Y-83384648D01*
X187055284Y-82734205D01*
X186806894Y-82133057D01*
X186744749Y-82070803D01*
X186779698Y-82056327D01*
X186958327Y-81877699D01*
X187055000Y-81644310D01*
X187055000Y-81015000D01*
X189841560Y-81015000D01*
X189841560Y-82815000D01*
X189885838Y-83050317D01*
X190024910Y-83266441D01*
X190237110Y-83411431D01*
X190489000Y-83462440D01*
X192289000Y-83462440D01*
X192524317Y-83418162D01*
X192740441Y-83279090D01*
X192885431Y-83066890D01*
X192895766Y-83015854D01*
X193021424Y-83152966D01*
X193564258Y-83406046D01*
X193802000Y-83285997D01*
X193802000Y-82042000D01*
X193782000Y-82042000D01*
X193782000Y-81788000D01*
X193802000Y-81788000D01*
X193802000Y-80544003D01*
X194056000Y-80544003D01*
X194056000Y-81788000D01*
X194076000Y-81788000D01*
X194076000Y-82042000D01*
X194056000Y-82042000D01*
X194056000Y-83285997D01*
X194293742Y-83406046D01*
X194836576Y-83152966D01*
X195194499Y-82762418D01*
X195353519Y-83000409D01*
X195851509Y-83333155D01*
X196438928Y-83450000D01*
X196499072Y-83450000D01*
X197086491Y-83333155D01*
X197584481Y-83000409D01*
X197917227Y-82502419D01*
X198034072Y-81915000D01*
X197917227Y-81327581D01*
X197584481Y-80829591D01*
X197086491Y-80496845D01*
X196499072Y-80380000D01*
X196438928Y-80380000D01*
X195851509Y-80496845D01*
X195353519Y-80829591D01*
X195194499Y-81067582D01*
X194836576Y-80677034D01*
X194293742Y-80423954D01*
X194056000Y-80544003D01*
X193802000Y-80544003D01*
X193564258Y-80423954D01*
X193021424Y-80677034D01*
X192898156Y-80811538D01*
X192892162Y-80779683D01*
X192753090Y-80563559D01*
X192540890Y-80418569D01*
X192289000Y-80367560D01*
X190489000Y-80367560D01*
X190253683Y-80411838D01*
X190037559Y-80550910D01*
X189892569Y-80763110D01*
X189841560Y-81015000D01*
X187055000Y-81015000D01*
X187055000Y-80803750D01*
X186896250Y-80645000D01*
X185547000Y-80645000D01*
X185547000Y-80665000D01*
X185293000Y-80665000D01*
X185293000Y-80645000D01*
X183943750Y-80645000D01*
X183785000Y-80803750D01*
X183785000Y-81644310D01*
X183881673Y-81877699D01*
X184060302Y-82056327D01*
X184094834Y-82070630D01*
X184034722Y-82130637D01*
X183785284Y-82731352D01*
X183784716Y-83381795D01*
X158478636Y-83381795D01*
X154724002Y-79627162D01*
X154724248Y-79344813D01*
X154506243Y-78817200D01*
X154102923Y-78413176D01*
X153575691Y-78194250D01*
X153004813Y-78193752D01*
X152477200Y-78411757D01*
X152073176Y-78815077D01*
X151854250Y-79342309D01*
X151853752Y-79913187D01*
X139482437Y-79913187D01*
X139325250Y-79756000D01*
X138176000Y-79756000D01*
X138176000Y-79776000D01*
X137922000Y-79776000D01*
X137922000Y-79756000D01*
X136772750Y-79756000D01*
X136614000Y-79914750D01*
X136614000Y-80555309D01*
X136710673Y-80788698D01*
X136889301Y-80967327D01*
X137122690Y-81064000D01*
X137124761Y-81064000D01*
X136833176Y-81355077D01*
X136614250Y-81882309D01*
X136614018Y-82148180D01*
X134734320Y-84027878D01*
X134688833Y-84027838D01*
X134345057Y-84169883D01*
X134081808Y-84432673D01*
X133939162Y-84776201D01*
X133938838Y-85148167D01*
X134080883Y-85491943D01*
X134343673Y-85755192D01*
X134687201Y-85897838D01*
X135059167Y-85898162D01*
X135402943Y-85756117D01*
X135666192Y-85493327D01*
X135808838Y-85149799D01*
X135808879Y-85102923D01*
X136702839Y-84208963D01*
X136614250Y-84422309D01*
X136613752Y-84993187D01*
X136831757Y-85520800D01*
X137235077Y-85924824D01*
X137365215Y-85978862D01*
X137237200Y-86031757D01*
X136833176Y-86435077D01*
X136614250Y-86962309D01*
X136613752Y-87533187D01*
X136831757Y-88060800D01*
X137235077Y-88464824D01*
X137365215Y-88518862D01*
X137237200Y-88571757D01*
X136833176Y-88975077D01*
X136614250Y-89502309D01*
X136613752Y-90073187D01*
X136831757Y-90600800D01*
X137235077Y-91004824D01*
X137365215Y-91058862D01*
X137237200Y-91111757D01*
X136833176Y-91515077D01*
X136614250Y-92042309D01*
X136613752Y-92613187D01*
X136831757Y-93140800D01*
X137235077Y-93544824D01*
X137365215Y-93598862D01*
X137237200Y-93651757D01*
X136833176Y-94055077D01*
X136810785Y-94109000D01*
X132461000Y-94109000D01*
X132170161Y-94166852D01*
X131923599Y-94331599D01*
X129087381Y-97167817D01*
X129057100Y-97155243D01*
X128501339Y-97154758D01*
X127987697Y-97366990D01*
X127594371Y-97759630D01*
X127508051Y-97967512D01*
X127423010Y-97761697D01*
X127030370Y-97368371D01*
X126517100Y-97155243D01*
X125961339Y-97154758D01*
X125447697Y-97366990D01*
X125054371Y-97759630D01*
X124974605Y-97951727D01*
X124920397Y-97820857D01*
X124678213Y-97751392D01*
X123877605Y-98552000D01*
X124678213Y-99352608D01*
X124920397Y-99283143D01*
X124970509Y-99142682D01*
X125052990Y-99342303D01*
X125445630Y-99735629D01*
X125958900Y-99948757D01*
X126514661Y-99949242D01*
X127028303Y-99737010D01*
X127421629Y-99344370D01*
X127507949Y-99136488D01*
X127592990Y-99342303D01*
X127985630Y-99735629D01*
X128498900Y-99948757D01*
X129054661Y-99949242D01*
X129568303Y-99737010D01*
X129961629Y-99344370D01*
X130047949Y-99136488D01*
X130132990Y-99342303D01*
X130525630Y-99735629D01*
X131038900Y-99948757D01*
X131594661Y-99949242D01*
X132108303Y-99737010D01*
X132501629Y-99344370D01*
X132513754Y-99315170D01*
X136753731Y-99326402D01*
X136614250Y-99662309D01*
X136613752Y-100233187D01*
X136831757Y-100760800D01*
X137235077Y-101164824D01*
X137365215Y-101218862D01*
X137237200Y-101271757D01*
X136833176Y-101675077D01*
X136614250Y-102202309D01*
X136613752Y-102773187D01*
X136831757Y-103300800D01*
X136934487Y-103403709D01*
X125065599Y-115272597D01*
X124900852Y-115519159D01*
X124843000Y-115809998D01*
X124843000Y-118045055D01*
X124740851Y-118087262D01*
X124332664Y-118494737D01*
X123927404Y-118088769D01*
X123367472Y-117856265D01*
X122761188Y-117855736D01*
X122200851Y-118087262D01*
X121771769Y-118515596D01*
X121760595Y-118542506D01*
X121595196Y-118487409D01*
X120702605Y-119380000D01*
X120343395Y-119380000D01*
X119450804Y-118487409D01*
X119285862Y-118542353D01*
X119275738Y-118517851D01*
X119066058Y-118307804D01*
X119630409Y-118307804D01*
X120523000Y-119200395D01*
X121415591Y-118307804D01*
X121330533Y-118052461D01*
X120761035Y-117844484D01*
X120155300Y-117870277D01*
X119715467Y-118052461D01*
X119630409Y-118307804D01*
X119066058Y-118307804D01*
X118847404Y-118088769D01*
X118287472Y-117856265D01*
X117681188Y-117855736D01*
X117120851Y-118087262D01*
X116712664Y-118494737D01*
X116307404Y-118088769D01*
X115747472Y-117856265D01*
X115141188Y-117855736D01*
X114580851Y-118087262D01*
X114151769Y-118515596D01*
X113919265Y-119075528D01*
X113918736Y-119681812D01*
X106095000Y-119681812D01*
X106095000Y-105887870D01*
X113664583Y-105887870D01*
X114031166Y-106775069D01*
X114709361Y-107454449D01*
X115595919Y-107822580D01*
X116555870Y-107823417D01*
X117443069Y-107456834D01*
X118122449Y-106778639D01*
X118490580Y-105892081D01*
X118490583Y-105887870D01*
X127634583Y-105887870D01*
X128001166Y-106775069D01*
X128679361Y-107454449D01*
X129565919Y-107822580D01*
X130525870Y-107823417D01*
X131413069Y-107456834D01*
X132092449Y-106778639D01*
X132460580Y-105892081D01*
X132461417Y-104932130D01*
X132094834Y-104044931D01*
X131416639Y-103365551D01*
X130530081Y-102997420D01*
X129570130Y-102996583D01*
X128682931Y-103363166D01*
X128003551Y-104041361D01*
X127635420Y-104927919D01*
X127634583Y-105887870D01*
X118490583Y-105887870D01*
X118491417Y-104932130D01*
X118124834Y-104044931D01*
X117446639Y-103365551D01*
X116560081Y-102997420D01*
X115600130Y-102996583D01*
X114712931Y-103363166D01*
X114033551Y-104041361D01*
X113665420Y-104927919D01*
X113664583Y-105887870D01*
X106095000Y-105887870D01*
X106095000Y-98828661D01*
X117220758Y-98828661D01*
X117432990Y-99342303D01*
X117825630Y-99735629D01*
X118338900Y-99948757D01*
X118894661Y-99949242D01*
X119408303Y-99737010D01*
X119801629Y-99344370D01*
X119887949Y-99136488D01*
X119972990Y-99342303D01*
X120365630Y-99735629D01*
X120878900Y-99948757D01*
X121434661Y-99949242D01*
X121948303Y-99737010D01*
X122153457Y-99532213D01*
X122897392Y-99532213D01*
X122966857Y-99774397D01*
X123490302Y-99961144D01*
X124045368Y-99933362D01*
X124429143Y-99774397D01*
X124498608Y-99532213D01*
X123698000Y-98731605D01*
X122897392Y-99532213D01*
X122153457Y-99532213D01*
X122341629Y-99344370D01*
X122421395Y-99152273D01*
X122475603Y-99283143D01*
X122717787Y-99352608D01*
X123518395Y-98552000D01*
X122717787Y-97751392D01*
X122475603Y-97820857D01*
X122425491Y-97961318D01*
X122343010Y-97761697D01*
X122153432Y-97571787D01*
X122897392Y-97571787D01*
X123698000Y-98372395D01*
X124498608Y-97571787D01*
X124429143Y-97329603D01*
X123905698Y-97142856D01*
X123350632Y-97170638D01*
X122966857Y-97329603D01*
X122897392Y-97571787D01*
X122153432Y-97571787D01*
X121950370Y-97368371D01*
X121437100Y-97155243D01*
X120881339Y-97154758D01*
X120367697Y-97366990D01*
X119974371Y-97759630D01*
X119888051Y-97967512D01*
X119803010Y-97761697D01*
X119410370Y-97368371D01*
X118897100Y-97155243D01*
X118341339Y-97154758D01*
X117827697Y-97366990D01*
X117434371Y-97759630D01*
X117221243Y-98272900D01*
X117220758Y-98828661D01*
X106095000Y-98828661D01*
X106095000Y-82061252D01*
X106311340Y-82584835D01*
X107275092Y-83550270D01*
X108534937Y-84073403D01*
X109899078Y-84074594D01*
X111159835Y-83553660D01*
X112125270Y-82589908D01*
X112648403Y-81330063D01*
X112648916Y-80741870D01*
X114934583Y-80741870D01*
X115301166Y-81629069D01*
X115979361Y-82308449D01*
X116865919Y-82676580D01*
X117825870Y-82677417D01*
X118713069Y-82310834D01*
X118959672Y-82064661D01*
X122300758Y-82064661D01*
X122512990Y-82578303D01*
X122905630Y-82971629D01*
X123418900Y-83184757D01*
X123974661Y-83185242D01*
X124488303Y-82973010D01*
X124881629Y-82580370D01*
X124967949Y-82372488D01*
X125052990Y-82578303D01*
X125445630Y-82971629D01*
X125958900Y-83184757D01*
X126514661Y-83185242D01*
X127028303Y-82973010D01*
X127421629Y-82580370D01*
X127634757Y-82067100D01*
X127635242Y-81511339D01*
X127423010Y-80997697D01*
X127167630Y-80741870D01*
X130174583Y-80741870D01*
X130541166Y-81629069D01*
X131219361Y-82308449D01*
X132105919Y-82676580D01*
X133065870Y-82677417D01*
X133953069Y-82310834D01*
X134632449Y-81632639D01*
X135000580Y-80746081D01*
X135001417Y-79786130D01*
X134634834Y-78898931D01*
X134438937Y-78702691D01*
X136614000Y-78702691D01*
X136614000Y-79343250D01*
X136772750Y-79502000D01*
X137922000Y-79502000D01*
X137922000Y-78352750D01*
X138176000Y-78352750D01*
X138176000Y-79502000D01*
X139325250Y-79502000D01*
X139484000Y-79343250D01*
X139484000Y-78702691D01*
X139387327Y-78469302D01*
X139208699Y-78290673D01*
X138975310Y-78194000D01*
X138334750Y-78194000D01*
X138176000Y-78352750D01*
X137922000Y-78352750D01*
X137763250Y-78194000D01*
X137122690Y-78194000D01*
X136889301Y-78290673D01*
X136710673Y-78469302D01*
X136614000Y-78702691D01*
X134438937Y-78702691D01*
X133956639Y-78219551D01*
X133070081Y-77851420D01*
X132110130Y-77850583D01*
X131222931Y-78217166D01*
X130543551Y-78895361D01*
X130175420Y-79781919D01*
X130174583Y-80741870D01*
X127167630Y-80741870D01*
X127030370Y-80604371D01*
X126517100Y-80391243D01*
X125961339Y-80390758D01*
X125447697Y-80602990D01*
X125054371Y-80995630D01*
X124968051Y-81203512D01*
X124883010Y-80997697D01*
X124490370Y-80604371D01*
X123977100Y-80391243D01*
X123421339Y-80390758D01*
X122907697Y-80602990D01*
X122514371Y-80995630D01*
X122301243Y-81508900D01*
X122300758Y-82064661D01*
X118959672Y-82064661D01*
X119392449Y-81632639D01*
X119760580Y-80746081D01*
X119761417Y-79786130D01*
X119394834Y-78898931D01*
X118716639Y-78219551D01*
X117830081Y-77851420D01*
X116870130Y-77850583D01*
X115982931Y-78217166D01*
X115303551Y-78895361D01*
X114935420Y-79781919D01*
X114934583Y-80741870D01*
X112648916Y-80741870D01*
X112649594Y-79965922D01*
X112128660Y-78705165D01*
X111164908Y-77739730D01*
X110635739Y-77520000D01*
X158716984Y-77520000D01*
X158102551Y-78133361D01*
X158102551Y-78133361D01*
G37*
X158102551Y-78133361D02*
X157734420Y-79019919D01*
X157733583Y-79979870D01*
X158100166Y-80867069D01*
X158778361Y-81546449D01*
X159664919Y-81914580D01*
X160624870Y-81915417D01*
X161512069Y-81548834D01*
X161758672Y-81302661D01*
X165099758Y-81302661D01*
X165311990Y-81816303D01*
X165704630Y-82209629D01*
X166217900Y-82422757D01*
X166773661Y-82423242D01*
X167287303Y-82211010D01*
X167680629Y-81818370D01*
X167766949Y-81610488D01*
X167851990Y-81816303D01*
X168244630Y-82209629D01*
X168757900Y-82422757D01*
X169313661Y-82423242D01*
X169827303Y-82211010D01*
X170220629Y-81818370D01*
X170433757Y-81305100D01*
X170434242Y-80749339D01*
X170222010Y-80235697D01*
X169829370Y-79842371D01*
X169316100Y-79629243D01*
X168760339Y-79628758D01*
X168246697Y-79840990D01*
X167853371Y-80233630D01*
X167767051Y-80441512D01*
X167682010Y-80235697D01*
X167289370Y-79842371D01*
X166776100Y-79629243D01*
X166220339Y-79628758D01*
X165706697Y-79840990D01*
X165313371Y-80233630D01*
X165100243Y-80746900D01*
X165099758Y-81302661D01*
X161758672Y-81302661D01*
X162191449Y-80870639D01*
X162559580Y-79984081D01*
X162560417Y-79024130D01*
X162193834Y-78136931D01*
X161577979Y-77520000D01*
X173956984Y-77520000D01*
X173342551Y-78133361D01*
X172974420Y-79019919D01*
X172973583Y-79979870D01*
X173340166Y-80867069D01*
X174018361Y-81546449D01*
X174904919Y-81914580D01*
X175864870Y-81915417D01*
X176752069Y-81548834D01*
X177431449Y-80870639D01*
X177799580Y-79984081D01*
X177800417Y-79024130D01*
X177433834Y-78136931D01*
X176817979Y-77520000D01*
X179842236Y-77520000D01*
X179528200Y-77649757D01*
X179124176Y-78053077D01*
X178905250Y-78580309D01*
X178904752Y-79151187D01*
X179122757Y-79678800D01*
X179526077Y-80082824D01*
X180053309Y-80301750D01*
X180624187Y-80302248D01*
X181151800Y-80084243D01*
X181555824Y-79680923D01*
X181675924Y-79391690D01*
X183785000Y-79391690D01*
X183785000Y-80232250D01*
X183943750Y-80391000D01*
X185293000Y-80391000D01*
X185293000Y-79041750D01*
X185547000Y-79041750D01*
X185547000Y-80391000D01*
X186896250Y-80391000D01*
X187055000Y-80232250D01*
X187055000Y-79391690D01*
X186958327Y-79158301D01*
X186779698Y-78979673D01*
X186546309Y-78883000D01*
X185705750Y-78883000D01*
X185547000Y-79041750D01*
X185293000Y-79041750D01*
X185134250Y-78883000D01*
X184293691Y-78883000D01*
X184060302Y-78979673D01*
X183881673Y-79158301D01*
X183785000Y-79391690D01*
X181675924Y-79391690D01*
X181774750Y-79153691D01*
X181775248Y-78582813D01*
X181557243Y-78055200D01*
X181153923Y-77651176D01*
X180838016Y-77520000D01*
X201783748Y-77520000D01*
X201260165Y-77736340D01*
X200294730Y-78700092D01*
X199771597Y-79959937D01*
X199770406Y-81324078D01*
X200291340Y-82584835D01*
X201255092Y-83550270D01*
X202514937Y-84073403D01*
X203879078Y-84074594D01*
X205139835Y-83553660D01*
X206105270Y-82589908D01*
X206325000Y-82060739D01*
X206325000Y-135108748D01*
X206108660Y-134585165D01*
X205144908Y-133619730D01*
X203885063Y-133096597D01*
X202520922Y-133095406D01*
X201260165Y-133616340D01*
X200294730Y-134580092D01*
X199771597Y-135839937D01*
X199770406Y-137204078D01*
X200291340Y-138464835D01*
X201255092Y-139430270D01*
X201784261Y-139650000D01*
X189561300Y-139650000D01*
X189701039Y-139510505D01*
X189991668Y-138810590D01*
X189992330Y-138052735D01*
X189702922Y-137352314D01*
X189167505Y-136815961D01*
X188467590Y-136525332D01*
X187709735Y-136524670D01*
X187009314Y-136814078D01*
X186472961Y-137349495D01*
X186182332Y-138049410D01*
X186181670Y-138807265D01*
X186471078Y-139507686D01*
X186613144Y-139650000D01*
X110636252Y-139650000D01*
X111159835Y-139433660D01*
X112125270Y-138469908D01*
X112648403Y-137210063D01*
X112649594Y-135845922D01*
X112128660Y-134585165D01*
X111164908Y-133619730D01*
X109905063Y-133096597D01*
X108540922Y-133095406D01*
X107280165Y-133616340D01*
X106314730Y-134580092D01*
X106095000Y-135109261D01*
X106095000Y-129032000D01*
X115820041Y-129032000D01*
X115934115Y-129605489D01*
X116258971Y-130091670D01*
X116573752Y-130302000D01*
X116258971Y-130512330D01*
X115934115Y-130998511D01*
X115820041Y-131572000D01*
X115934115Y-132145489D01*
X116258971Y-132631670D01*
X116745152Y-132956526D01*
X117318641Y-133070600D01*
X117377359Y-133070600D01*
X117950848Y-132956526D01*
X118437029Y-132631670D01*
X118618000Y-132360828D01*
X118798971Y-132631670D01*
X119285152Y-132956526D01*
X119858641Y-133070600D01*
X119917359Y-133070600D01*
X120490848Y-132956526D01*
X120977029Y-132631670D01*
X121158000Y-132360828D01*
X121338971Y-132631670D01*
X121825152Y-132956526D01*
X122398641Y-133070600D01*
X122457359Y-133070600D01*
X123030848Y-132956526D01*
X123517029Y-132631670D01*
X123698000Y-132360828D01*
X123878971Y-132631670D01*
X124365152Y-132956526D01*
X124938641Y-133070600D01*
X124997359Y-133070600D01*
X125570848Y-132956526D01*
X126057029Y-132631670D01*
X126237992Y-132360839D01*
X126619510Y-132778821D01*
X127148973Y-133026968D01*
X127381000Y-132906469D01*
X127381000Y-131699000D01*
X127635000Y-131699000D01*
X127635000Y-132906469D01*
X127867027Y-133026968D01*
X128396490Y-132778821D01*
X128790688Y-132346947D01*
X128962958Y-131931026D01*
X128841817Y-131699000D01*
X127635000Y-131699000D01*
X127381000Y-131699000D01*
X127361000Y-131699000D01*
X127361000Y-131445000D01*
X127381000Y-131445000D01*
X127381000Y-131425000D01*
X127635000Y-131425000D01*
X127635000Y-131445000D01*
X128841817Y-131445000D01*
X128962958Y-131212974D01*
X128790688Y-130797053D01*
X128531391Y-130512973D01*
X128606917Y-130498762D01*
X128823041Y-130359690D01*
X128968031Y-130147490D01*
X129019040Y-129895600D01*
X129019040Y-128168400D01*
X128974762Y-127933083D01*
X128835690Y-127716959D01*
X128623490Y-127571969D01*
X128371600Y-127520960D01*
X126644400Y-127520960D01*
X126409083Y-127565238D01*
X126192959Y-127704310D01*
X126047969Y-127916510D01*
X126039092Y-127960345D01*
X125570848Y-127647474D01*
X124997359Y-127533400D01*
X124938641Y-127533400D01*
X124365152Y-127647474D01*
X123878971Y-127972330D01*
X123698000Y-128243172D01*
X123517029Y-127972330D01*
X123030848Y-127647474D01*
X122457359Y-127533400D01*
X122398641Y-127533400D01*
X121825152Y-127647474D01*
X121338971Y-127972330D01*
X121158000Y-128243172D01*
X120977029Y-127972330D01*
X120490848Y-127647474D01*
X119917359Y-127533400D01*
X119858641Y-127533400D01*
X119285152Y-127647474D01*
X118798971Y-127972330D01*
X118618000Y-128243172D01*
X118437029Y-127972330D01*
X117950848Y-127647474D01*
X117377359Y-127533400D01*
X117318641Y-127533400D01*
X116745152Y-127647474D01*
X116258971Y-127972330D01*
X115934115Y-128458511D01*
X115820041Y-129032000D01*
X106095000Y-129032000D01*
X106095000Y-119681812D01*
X113918736Y-119681812D01*
X114150262Y-120242149D01*
X114578596Y-120671231D01*
X115138528Y-120903735D01*
X115744812Y-120904264D01*
X116305149Y-120672738D01*
X116713336Y-120265263D01*
X117118596Y-120671231D01*
X117678528Y-120903735D01*
X118284812Y-120904264D01*
X118845149Y-120672738D01*
X119066076Y-120452196D01*
X119630409Y-120452196D01*
X119715467Y-120707539D01*
X120284965Y-120915516D01*
X120890700Y-120889723D01*
X121330533Y-120707539D01*
X121415591Y-120452196D01*
X120523000Y-119559605D01*
X119630409Y-120452196D01*
X119066076Y-120452196D01*
X119274231Y-120244404D01*
X119285405Y-120217494D01*
X119450804Y-120272591D01*
X120343395Y-119380000D01*
X120702605Y-119380000D01*
X121595196Y-120272591D01*
X121760138Y-120217647D01*
X121770262Y-120242149D01*
X122198596Y-120671231D01*
X122758528Y-120903735D01*
X123364812Y-120904264D01*
X123925149Y-120672738D01*
X124333336Y-120265263D01*
X124738596Y-120671231D01*
X125298528Y-120903735D01*
X125904812Y-120904264D01*
X126465149Y-120672738D01*
X126873336Y-120265263D01*
X127278596Y-120671231D01*
X127838528Y-120903735D01*
X128444812Y-120904264D01*
X129005149Y-120672738D01*
X129413336Y-120265263D01*
X129818596Y-120671231D01*
X130378528Y-120903735D01*
X130984812Y-120904264D01*
X131545149Y-120672738D01*
X131974231Y-120244404D01*
X132034832Y-120098460D01*
X132116839Y-120082148D01*
X132363401Y-119917401D01*
X136670434Y-115610368D01*
X136831757Y-116000800D01*
X137235077Y-116404824D01*
X137365215Y-116458862D01*
X137237200Y-116511757D01*
X136833176Y-116915077D01*
X136614250Y-117442309D01*
X136613752Y-118013187D01*
X136831757Y-118540800D01*
X137235077Y-118944824D01*
X137365215Y-118998862D01*
X137237200Y-119051757D01*
X136833176Y-119455077D01*
X136614250Y-119982309D01*
X136613752Y-120553187D01*
X136831757Y-121080800D01*
X137235077Y-121484824D01*
X137365215Y-121538862D01*
X137237200Y-121591757D01*
X136833176Y-121995077D01*
X136614250Y-122522309D01*
X136613752Y-123093187D01*
X136831757Y-123620800D01*
X137235077Y-124024824D01*
X137365215Y-124078862D01*
X137237200Y-124131757D01*
X136833176Y-124535077D01*
X136614250Y-125062309D01*
X136613752Y-125633187D01*
X136831757Y-126160800D01*
X137235077Y-126564824D01*
X137365215Y-126618862D01*
X137237200Y-126671757D01*
X136833176Y-127075077D01*
X136614250Y-127602309D01*
X136613752Y-128173187D01*
X136831757Y-128700800D01*
X137235077Y-129104824D01*
X137365215Y-129158862D01*
X137237200Y-129211757D01*
X136833176Y-129615077D01*
X136614250Y-130142309D01*
X136613752Y-130713187D01*
X136831757Y-131240800D01*
X137235077Y-131644824D01*
X137365215Y-131698862D01*
X137237200Y-131751757D01*
X136833176Y-132155077D01*
X136614250Y-132682309D01*
X136613752Y-133253187D01*
X136831757Y-133780800D01*
X137235077Y-134184824D01*
X137365215Y-134238862D01*
X137237200Y-134291757D01*
X136833176Y-134695077D01*
X136614250Y-135222309D01*
X136613752Y-135793187D01*
X136831757Y-136320800D01*
X137235077Y-136724824D01*
X137365215Y-136778862D01*
X137237200Y-136831757D01*
X136833176Y-137235077D01*
X136614250Y-137762309D01*
X136613752Y-138333187D01*
X136831757Y-138860800D01*
X137235077Y-139264824D01*
X137762309Y-139483750D01*
X138333187Y-139484248D01*
X138860800Y-139266243D01*
X139264824Y-138862923D01*
X139483750Y-138335691D01*
X139484248Y-137764813D01*
X139266243Y-137237200D01*
X138862923Y-136833176D01*
X138732785Y-136779138D01*
X138860800Y-136726243D01*
X139264824Y-136322923D01*
X139483750Y-135795691D01*
X139484248Y-135224813D01*
X139266243Y-134697200D01*
X138862923Y-134293176D01*
X138732785Y-134239138D01*
X138860800Y-134186243D01*
X139264824Y-133782923D01*
X139483750Y-133255691D01*
X139484248Y-132684813D01*
X139266243Y-132157200D01*
X138862923Y-131753176D01*
X138732785Y-131699138D01*
X138860800Y-131646243D01*
X139264824Y-131242923D01*
X139483750Y-130715691D01*
X139484248Y-130144813D01*
X139266243Y-129617200D01*
X138862923Y-129213176D01*
X138732785Y-129159138D01*
X138860800Y-129106243D01*
X139264824Y-128702923D01*
X139483750Y-128175691D01*
X139484248Y-127604813D01*
X139266243Y-127077200D01*
X138862923Y-126673176D01*
X138732785Y-126619138D01*
X138860800Y-126566243D01*
X139264824Y-126162923D01*
X139318862Y-126032785D01*
X139371757Y-126160800D01*
X139775077Y-126564824D01*
X140302309Y-126783750D01*
X140873187Y-126784248D01*
X141400800Y-126566243D01*
X141804824Y-126162923D01*
X141858862Y-126032785D01*
X141911757Y-126160800D01*
X142315077Y-126564824D01*
X142842309Y-126783750D01*
X143413187Y-126784248D01*
X143940800Y-126566243D01*
X144344824Y-126162923D01*
X144398862Y-126032785D01*
X144451757Y-126160800D01*
X144855077Y-126564824D01*
X144985215Y-126618862D01*
X144857200Y-126671757D01*
X144453176Y-127075077D01*
X144234250Y-127602309D01*
X144233752Y-128173187D01*
X144451757Y-128700800D01*
X144855077Y-129104824D01*
X144985215Y-129158862D01*
X144857200Y-129211757D01*
X144453176Y-129615077D01*
X144234250Y-130142309D01*
X144233752Y-130713187D01*
X144451757Y-131240800D01*
X144855077Y-131644824D01*
X144985215Y-131698862D01*
X144857200Y-131751757D01*
X144453176Y-132155077D01*
X144234250Y-132682309D01*
X144233752Y-133253187D01*
X144451757Y-133780800D01*
X144855077Y-134184824D01*
X144985215Y-134238862D01*
X144857200Y-134291757D01*
X144453176Y-134695077D01*
X144234250Y-135222309D01*
X144233752Y-135793187D01*
X144451757Y-136320800D01*
X144855077Y-136724824D01*
X144985215Y-136778862D01*
X144857200Y-136831757D01*
X144453176Y-137235077D01*
X144234250Y-137762309D01*
X144233752Y-138333187D01*
X144451757Y-138860800D01*
X144855077Y-139264824D01*
X145382309Y-139483750D01*
X145953187Y-139484248D01*
X146480800Y-139266243D01*
X146884824Y-138862923D01*
X146938862Y-138732785D01*
X146991757Y-138860800D01*
X147395077Y-139264824D01*
X147922309Y-139483750D01*
X148493187Y-139484248D01*
X149020800Y-139266243D01*
X149424824Y-138862923D01*
X149643750Y-138335691D01*
X149644248Y-137764813D01*
X149426243Y-137237200D01*
X149022923Y-136833176D01*
X148892785Y-136779138D01*
X149020800Y-136726243D01*
X149424824Y-136322923D01*
X149643750Y-135795691D01*
X149644248Y-135224813D01*
X149426243Y-134697200D01*
X149022923Y-134293176D01*
X148892785Y-134239138D01*
X149020800Y-134186243D01*
X149424824Y-133782923D01*
X149643750Y-133255691D01*
X149644248Y-132684813D01*
X149426243Y-132157200D01*
X149022923Y-131753176D01*
X148892785Y-131699138D01*
X149020800Y-131646243D01*
X149424824Y-131242923D01*
X149643750Y-130715691D01*
X149644248Y-130144813D01*
X149426243Y-129617200D01*
X149022923Y-129213176D01*
X148892785Y-129159138D01*
X149020800Y-129106243D01*
X149424824Y-128702923D01*
X149643750Y-128175691D01*
X149644248Y-127604813D01*
X149426243Y-127077200D01*
X149022923Y-126673176D01*
X148892785Y-126619138D01*
X149020800Y-126566243D01*
X149424824Y-126162923D01*
X149478862Y-126032785D01*
X149531757Y-126160800D01*
X149935077Y-126564824D01*
X150462309Y-126783750D01*
X151033187Y-126784248D01*
X151560800Y-126566243D01*
X151964824Y-126162923D01*
X152018862Y-126032785D01*
X152071757Y-126160800D01*
X152475077Y-126564824D01*
X152605215Y-126618862D01*
X152477200Y-126671757D01*
X152073176Y-127075077D01*
X151854250Y-127602309D01*
X151853752Y-128173187D01*
X152071757Y-128700800D01*
X152475077Y-129104824D01*
X152605215Y-129158862D01*
X152477200Y-129211757D01*
X152073176Y-129615077D01*
X151854250Y-130142309D01*
X151853752Y-130713187D01*
X152071757Y-131240800D01*
X152475077Y-131644824D01*
X152605215Y-131698862D01*
X152477200Y-131751757D01*
X152073176Y-132155077D01*
X151854250Y-132682309D01*
X151853752Y-133253187D01*
X152071757Y-133780800D01*
X152475077Y-134184824D01*
X152605215Y-134238862D01*
X152477200Y-134291757D01*
X152073176Y-134695077D01*
X151854250Y-135222309D01*
X151853752Y-135793187D01*
X152071757Y-136320800D01*
X152475077Y-136724824D01*
X152605215Y-136778862D01*
X152477200Y-136831757D01*
X152073176Y-137235077D01*
X151854250Y-137762309D01*
X151853752Y-138333187D01*
X152071757Y-138860800D01*
X152475077Y-139264824D01*
X153002309Y-139483750D01*
X153573187Y-139484248D01*
X154100800Y-139266243D01*
X154504824Y-138862923D01*
X154723750Y-138335691D01*
X154724248Y-137764813D01*
X154506243Y-137237200D01*
X154195757Y-136926172D01*
X156082538Y-136926172D01*
X156487709Y-137906761D01*
X157237293Y-138657655D01*
X158217173Y-139064536D01*
X159278172Y-139065462D01*
X160258761Y-138660291D01*
X161009655Y-137910707D01*
X161416536Y-136930827D01*
X161416540Y-136926172D01*
X173862538Y-136926172D01*
X174267709Y-137906761D01*
X175017293Y-138657655D01*
X175997173Y-139064536D01*
X177058172Y-139065462D01*
X178038761Y-138660291D01*
X178789655Y-137910707D01*
X179196536Y-136930827D01*
X179197462Y-135869828D01*
X178792291Y-134889239D01*
X178042707Y-134138345D01*
X177062827Y-133731464D01*
X176001828Y-133730538D01*
X175021239Y-134135709D01*
X174270345Y-134885293D01*
X173863464Y-135865173D01*
X173862538Y-136926172D01*
X161416540Y-136926172D01*
X161417462Y-135869828D01*
X161012291Y-134889239D01*
X160262707Y-134138345D01*
X159282827Y-133731464D01*
X158221828Y-133730538D01*
X157241239Y-134135709D01*
X156490345Y-134885293D01*
X156083464Y-135865173D01*
X156082538Y-136926172D01*
X154195757Y-136926172D01*
X154102923Y-136833176D01*
X153972785Y-136779138D01*
X154100800Y-136726243D01*
X154504824Y-136322923D01*
X154723750Y-135795691D01*
X154724248Y-135224813D01*
X154506243Y-134697200D01*
X154102923Y-134293176D01*
X153972785Y-134239138D01*
X154100800Y-134186243D01*
X154504824Y-133782923D01*
X154723750Y-133255691D01*
X154724248Y-132684813D01*
X154506243Y-132157200D01*
X154102923Y-131753176D01*
X153972785Y-131699138D01*
X154100800Y-131646243D01*
X154504824Y-131242923D01*
X154723750Y-130715691D01*
X154724000Y-130429000D01*
X174993560Y-130429000D01*
X174993560Y-132207000D01*
X175037838Y-132442317D01*
X175176910Y-132658441D01*
X175389110Y-132803431D01*
X175641000Y-132854440D01*
X177419000Y-132854440D01*
X177654317Y-132810162D01*
X177870441Y-132671090D01*
X178015431Y-132458890D01*
X178066440Y-132207000D01*
X178066440Y-131340661D01*
X180339758Y-131340661D01*
X180551990Y-131854303D01*
X180944630Y-132247629D01*
X181457900Y-132460757D01*
X182013661Y-132461242D01*
X182527303Y-132249010D01*
X182920629Y-131856370D01*
X183133757Y-131343100D01*
X183133759Y-131340661D01*
X193293758Y-131340661D01*
X193505990Y-131854303D01*
X193898630Y-132247629D01*
X194411900Y-132460757D01*
X194967661Y-132461242D01*
X195481303Y-132249010D01*
X195874629Y-131856370D01*
X196087757Y-131343100D01*
X196088242Y-130787339D01*
X195876010Y-130273697D01*
X195483370Y-129880371D01*
X194970100Y-129667243D01*
X194414339Y-129666758D01*
X193900697Y-129878990D01*
X193507371Y-130271630D01*
X193294243Y-130784900D01*
X193293758Y-131340661D01*
X183133759Y-131340661D01*
X183134242Y-130787339D01*
X182922010Y-130273697D01*
X182529370Y-129880371D01*
X182016100Y-129667243D01*
X181460339Y-129666758D01*
X180946697Y-129878990D01*
X180553371Y-130271630D01*
X180340243Y-130784900D01*
X180339758Y-131340661D01*
X178066440Y-131340661D01*
X178066440Y-130429000D01*
X178022162Y-130193683D01*
X177883090Y-129977559D01*
X177670890Y-129832569D01*
X177637506Y-129825809D01*
X177821231Y-129642404D01*
X178053735Y-129082472D01*
X178054264Y-128476188D01*
X177978433Y-128292661D01*
X180339758Y-128292661D01*
X180551990Y-128806303D01*
X180944630Y-129199629D01*
X181457900Y-129412757D01*
X182013661Y-129413242D01*
X182527303Y-129201010D01*
X182920629Y-128808370D01*
X183133757Y-128295100D01*
X183133759Y-128292661D01*
X193293758Y-128292661D01*
X193505990Y-128806303D01*
X193898630Y-129199629D01*
X194411900Y-129412757D01*
X194967661Y-129413242D01*
X195481303Y-129201010D01*
X195874629Y-128808370D01*
X196087757Y-128295100D01*
X196088242Y-127739339D01*
X195876010Y-127225697D01*
X195483370Y-126832371D01*
X194970100Y-126619243D01*
X194414339Y-126618758D01*
X193900697Y-126830990D01*
X193507371Y-127223630D01*
X193294243Y-127736900D01*
X193293758Y-128292661D01*
X183133759Y-128292661D01*
X183134242Y-127739339D01*
X182922010Y-127225697D01*
X182529370Y-126832371D01*
X182016100Y-126619243D01*
X181460339Y-126618758D01*
X180946697Y-126830990D01*
X180553371Y-127223630D01*
X180340243Y-127736900D01*
X180339758Y-128292661D01*
X177978433Y-128292661D01*
X177822738Y-127915851D01*
X177394404Y-127486769D01*
X177367494Y-127475595D01*
X177422591Y-127310196D01*
X176530000Y-126417605D01*
X175637409Y-127310196D01*
X175692353Y-127475138D01*
X175667851Y-127485262D01*
X175238769Y-127913596D01*
X175006265Y-128473528D01*
X175005736Y-129079812D01*
X175237262Y-129640149D01*
X175419948Y-129823154D01*
X175405683Y-129825838D01*
X175189559Y-129964910D01*
X175044569Y-130177110D01*
X174993560Y-130429000D01*
X154724000Y-130429000D01*
X154724248Y-130144813D01*
X154506243Y-129617200D01*
X154102923Y-129213176D01*
X153972785Y-129159138D01*
X154100800Y-129106243D01*
X154504824Y-128702923D01*
X154723750Y-128175691D01*
X154724248Y-127604813D01*
X154506243Y-127077200D01*
X154102923Y-126673176D01*
X153972785Y-126619138D01*
X154100800Y-126566243D01*
X154504824Y-126162923D01*
X154572490Y-125999965D01*
X174994484Y-125999965D01*
X175020277Y-126605700D01*
X175202461Y-127045533D01*
X175457804Y-127130591D01*
X176350395Y-126238000D01*
X176709605Y-126238000D01*
X177602196Y-127130591D01*
X177857539Y-127045533D01*
X178065516Y-126476035D01*
X178039723Y-125870300D01*
X177857539Y-125430467D01*
X177602196Y-125345409D01*
X176709605Y-126238000D01*
X176350395Y-126238000D01*
X175457804Y-125345409D01*
X175202461Y-125430467D01*
X174994484Y-125999965D01*
X154572490Y-125999965D01*
X154723750Y-125635691D01*
X154724248Y-125064813D01*
X154506243Y-124537200D01*
X154102923Y-124133176D01*
X153972785Y-124079138D01*
X154100800Y-124026243D01*
X154504824Y-123622923D01*
X154723750Y-123095691D01*
X154724248Y-122524813D01*
X154506243Y-121997200D01*
X154102923Y-121593176D01*
X153972785Y-121539138D01*
X154100800Y-121486243D01*
X154504824Y-121082923D01*
X154723750Y-120555691D01*
X154724248Y-119984813D01*
X154506243Y-119457200D01*
X154102923Y-119053176D01*
X153972785Y-118999138D01*
X154100800Y-118946243D01*
X154504824Y-118542923D01*
X154723750Y-118015691D01*
X154724248Y-117444813D01*
X154506243Y-116917200D01*
X154102923Y-116513176D01*
X153972785Y-116459138D01*
X154100800Y-116406243D01*
X154504824Y-116002923D01*
X154723750Y-115475691D01*
X154724248Y-114904813D01*
X154506243Y-114377200D01*
X154102923Y-113973176D01*
X153972785Y-113919138D01*
X154100800Y-113866243D01*
X154504824Y-113462923D01*
X154723750Y-112935691D01*
X154724248Y-112364813D01*
X154506243Y-111837200D01*
X154102923Y-111433176D01*
X153972785Y-111379138D01*
X154100800Y-111326243D01*
X154504824Y-110922923D01*
X154723750Y-110395691D01*
X154724248Y-109824813D01*
X154506243Y-109297200D01*
X154102923Y-108893176D01*
X153972785Y-108839138D01*
X154100800Y-108786243D01*
X154504824Y-108382923D01*
X154723750Y-107855691D01*
X154724248Y-107284813D01*
X154506243Y-106757200D01*
X154102923Y-106353176D01*
X153972785Y-106299138D01*
X154100800Y-106246243D01*
X154504824Y-105842923D01*
X154645158Y-105504960D01*
X173375599Y-124235401D01*
X173622161Y-124400148D01*
X173913000Y-124458000D01*
X175195055Y-124458000D01*
X175237262Y-124560149D01*
X175665596Y-124989231D01*
X175692506Y-125000405D01*
X175637409Y-125165804D01*
X176530000Y-126058395D01*
X177422591Y-125165804D01*
X177367647Y-125000862D01*
X177392149Y-124990738D01*
X177821231Y-124562404D01*
X178053735Y-124002472D01*
X178054264Y-123396188D01*
X177822738Y-122835851D01*
X177415263Y-122427664D01*
X177821231Y-122022404D01*
X178053735Y-121462472D01*
X178054264Y-120856188D01*
X177822738Y-120295851D01*
X177415263Y-119887664D01*
X177821231Y-119482404D01*
X178053735Y-118922472D01*
X178054264Y-118316188D01*
X177822738Y-117755851D01*
X177415263Y-117347664D01*
X177821231Y-116942404D01*
X178053735Y-116382472D01*
X178054264Y-115776188D01*
X177822738Y-115215851D01*
X177415263Y-114807664D01*
X177821231Y-114402404D01*
X178053735Y-113842472D01*
X178054264Y-113236188D01*
X177822738Y-112675851D01*
X177415263Y-112267664D01*
X177821231Y-111862404D01*
X178053735Y-111302472D01*
X178054264Y-110696188D01*
X177822738Y-110135851D01*
X177415263Y-109727664D01*
X177821231Y-109322404D01*
X178053735Y-108762472D01*
X178053875Y-108601510D01*
X179328070Y-108601510D01*
X179328070Y-110600490D01*
X179372348Y-110835807D01*
X179511420Y-111051931D01*
X179723620Y-111196921D01*
X179959000Y-111244587D01*
X179959000Y-112268000D01*
X180009471Y-112521735D01*
X180036338Y-112656807D01*
X180256580Y-112986420D01*
X182775724Y-115505565D01*
X182762907Y-115570000D01*
X182875946Y-116138285D01*
X183197853Y-116620054D01*
X183679622Y-116941961D01*
X184247907Y-117055000D01*
X184306093Y-117055000D01*
X184692001Y-116978238D01*
X184692001Y-118320065D01*
X184658000Y-118491000D01*
X184658000Y-118995406D01*
X184614330Y-119024585D01*
X184604757Y-119038913D01*
X184600762Y-119017683D01*
X184461690Y-118801559D01*
X184249490Y-118656569D01*
X183997600Y-118605560D01*
X182270400Y-118605560D01*
X182035083Y-118649838D01*
X181818959Y-118788910D01*
X181673969Y-119001110D01*
X181622960Y-119253000D01*
X181622960Y-121285000D01*
X181667238Y-121520317D01*
X181806310Y-121736441D01*
X182018510Y-121881431D01*
X182270400Y-121932440D01*
X183997600Y-121932440D01*
X184232917Y-121888162D01*
X184449041Y-121749090D01*
X184594031Y-121536890D01*
X184602400Y-121495561D01*
X184614330Y-121513415D01*
X185100511Y-121838271D01*
X185674000Y-121952345D01*
X186247489Y-121838271D01*
X186733670Y-121513415D01*
X186940461Y-121203931D01*
X187311964Y-121619732D01*
X187839209Y-121873709D01*
X187854974Y-121876358D01*
X188087000Y-121755217D01*
X188087000Y-120396000D01*
X188341000Y-120396000D01*
X188341000Y-121755217D01*
X188573026Y-121876358D01*
X188588791Y-121873709D01*
X189116036Y-121619732D01*
X189505954Y-121183320D01*
X189699184Y-120630913D01*
X189554924Y-120396000D01*
X188341000Y-120396000D01*
X188087000Y-120396000D01*
X188067000Y-120396000D01*
X188067000Y-120142000D01*
X188087000Y-120142000D01*
X188087000Y-118782783D01*
X188341000Y-118782783D01*
X188341000Y-120142000D01*
X189554924Y-120142000D01*
X189699184Y-119907087D01*
X189505954Y-119354680D01*
X189116036Y-118918268D01*
X188588791Y-118664291D01*
X188573026Y-118661642D01*
X188341000Y-118782783D01*
X188087000Y-118782783D01*
X187854974Y-118661642D01*
X187839209Y-118664291D01*
X187311964Y-118918268D01*
X186940461Y-119334069D01*
X186733670Y-119024585D01*
X186690000Y-118995406D01*
X186690000Y-118627935D01*
X186724001Y-118456999D01*
X186724001Y-116195238D01*
X187007853Y-116620054D01*
X187489622Y-116941961D01*
X188057907Y-117055000D01*
X188116093Y-117055000D01*
X188684378Y-116941961D01*
X189166147Y-116620054D01*
X189488054Y-116138285D01*
X189601093Y-115570000D01*
X189575832Y-115443000D01*
X195970907Y-115443000D01*
X196083946Y-116011285D01*
X196405853Y-116493054D01*
X196447452Y-116520850D01*
X196399683Y-116529838D01*
X196183559Y-116668910D01*
X196038569Y-116881110D01*
X195987560Y-117133000D01*
X195987560Y-118833000D01*
X196031838Y-119068317D01*
X196170910Y-119284441D01*
X196383110Y-119429431D01*
X196635000Y-119480440D01*
X198335000Y-119480440D01*
X198570317Y-119436162D01*
X198786441Y-119297090D01*
X198931431Y-119084890D01*
X198982440Y-118833000D01*
X198982440Y-117133000D01*
X198938162Y-116897683D01*
X198799090Y-116681559D01*
X198586890Y-116536569D01*
X198519459Y-116522914D01*
X198564147Y-116493054D01*
X198886054Y-116011285D01*
X198999093Y-115443000D01*
X198973832Y-115316000D01*
X199907907Y-115316000D01*
X200020946Y-115884285D01*
X200342853Y-116366054D01*
X200672026Y-116586000D01*
X200342853Y-116805946D01*
X200020946Y-117287715D01*
X199907907Y-117856000D01*
X200020946Y-118424285D01*
X200342853Y-118906054D01*
X200824622Y-119227961D01*
X201392907Y-119341000D01*
X201451093Y-119341000D01*
X202019378Y-119227961D01*
X202501147Y-118906054D01*
X202823054Y-118424285D01*
X202936093Y-117856000D01*
X202823054Y-117287715D01*
X202501147Y-116805946D01*
X202171974Y-116586000D01*
X202501147Y-116366054D01*
X202823054Y-115884285D01*
X202936093Y-115316000D01*
X202823054Y-114747715D01*
X202501147Y-114265946D01*
X202459548Y-114238150D01*
X202507317Y-114229162D01*
X202723441Y-114090090D01*
X202868431Y-113877890D01*
X202919440Y-113626000D01*
X202919440Y-111926000D01*
X202875162Y-111690683D01*
X202736090Y-111474559D01*
X202523890Y-111329569D01*
X202272000Y-111278560D01*
X200572000Y-111278560D01*
X200336683Y-111322838D01*
X200120559Y-111461910D01*
X199975569Y-111674110D01*
X199924560Y-111926000D01*
X199924560Y-113626000D01*
X199968838Y-113861317D01*
X200107910Y-114077441D01*
X200320110Y-114222431D01*
X200387541Y-114236086D01*
X200342853Y-114265946D01*
X200020946Y-114747715D01*
X199907907Y-115316000D01*
X198973832Y-115316000D01*
X198886054Y-114874715D01*
X198564147Y-114392946D01*
X198082378Y-114071039D01*
X197514093Y-113958000D01*
X197455907Y-113958000D01*
X196887622Y-114071039D01*
X196405853Y-114392946D01*
X196083946Y-114874715D01*
X195970907Y-115443000D01*
X189575832Y-115443000D01*
X189488054Y-115001715D01*
X189166147Y-114519946D01*
X189124548Y-114492150D01*
X189172317Y-114483162D01*
X189388441Y-114344090D01*
X189533431Y-114131890D01*
X189584440Y-113880000D01*
X189584440Y-112180000D01*
X189540162Y-111944683D01*
X189401090Y-111728559D01*
X189188890Y-111583569D01*
X189103000Y-111566176D01*
X189103000Y-109539240D01*
X189320605Y-109321635D01*
X189557461Y-109321842D01*
X190071103Y-109109610D01*
X190464429Y-108716970D01*
X190677557Y-108203700D01*
X190677658Y-108087383D01*
X193700569Y-108087383D01*
X193903382Y-108578229D01*
X194278596Y-108954098D01*
X194769087Y-109157768D01*
X195300183Y-109158231D01*
X195791029Y-108955418D01*
X195988516Y-108758275D01*
X196780131Y-108758275D01*
X196841969Y-108994042D01*
X197342922Y-109170419D01*
X197873240Y-109141664D01*
X198229631Y-108994042D01*
X198291469Y-108758275D01*
X197535800Y-108002605D01*
X196780131Y-108758275D01*
X195988516Y-108758275D01*
X196166898Y-108580204D01*
X196279091Y-108310013D01*
X196364758Y-108516831D01*
X196600525Y-108578669D01*
X197356195Y-107823000D01*
X197715405Y-107823000D01*
X198471075Y-108578669D01*
X198706842Y-108516831D01*
X198883219Y-108015878D01*
X198854464Y-107485560D01*
X198706842Y-107129169D01*
X198471075Y-107067331D01*
X197715405Y-107823000D01*
X197356195Y-107823000D01*
X196600525Y-107067331D01*
X196364758Y-107129169D01*
X196286007Y-107352842D01*
X196168218Y-107067771D01*
X195988486Y-106887725D01*
X196780131Y-106887725D01*
X197535800Y-107643395D01*
X198291469Y-106887725D01*
X198229631Y-106651958D01*
X197728678Y-106475581D01*
X197198360Y-106504336D01*
X196841969Y-106651958D01*
X196780131Y-106887725D01*
X195988486Y-106887725D01*
X195793004Y-106691902D01*
X195302513Y-106488232D01*
X194771417Y-106487769D01*
X194280571Y-106690582D01*
X193904702Y-107065796D01*
X193701032Y-107556287D01*
X193700569Y-108087383D01*
X190677658Y-108087383D01*
X190678042Y-107647939D01*
X190465810Y-107134297D01*
X190296800Y-106964992D01*
X190296800Y-104154440D01*
X191040620Y-103410620D01*
X191260862Y-103081007D01*
X191338199Y-102692200D01*
X191260862Y-102303393D01*
X191040620Y-101973780D01*
X190711007Y-101753538D01*
X190322200Y-101676201D01*
X189933393Y-101753538D01*
X189603780Y-101973780D01*
X188562380Y-103015180D01*
X188342138Y-103344793D01*
X188338009Y-103365551D01*
X188264800Y-103733600D01*
X188264800Y-106964893D01*
X188097171Y-107132230D01*
X188017405Y-107324327D01*
X187963197Y-107193457D01*
X187721013Y-107123992D01*
X186920405Y-107924600D01*
X186934548Y-107938743D01*
X186754943Y-108118348D01*
X186740800Y-108104205D01*
X186726658Y-108118348D01*
X186547053Y-107938743D01*
X186561195Y-107924600D01*
X185760587Y-107123992D01*
X185518403Y-107193457D01*
X185468291Y-107333918D01*
X185385810Y-107134297D01*
X185216800Y-106964992D01*
X185216800Y-106944387D01*
X185940192Y-106944387D01*
X186740800Y-107744995D01*
X187541408Y-106944387D01*
X187471943Y-106702203D01*
X186948498Y-106515456D01*
X186393432Y-106543238D01*
X186009657Y-106702203D01*
X185940192Y-106944387D01*
X185216800Y-106944387D01*
X185216800Y-102540492D01*
X185242199Y-102412800D01*
X185164862Y-102023993D01*
X184944620Y-101694380D01*
X184615007Y-101474138D01*
X184226200Y-101396801D01*
X184060293Y-101429801D01*
X184021862Y-101236593D01*
X183801621Y-100906979D01*
X183472007Y-100686738D01*
X183083200Y-100609401D01*
X182694393Y-100686738D01*
X182364780Y-100906979D01*
X181912381Y-101359379D01*
X181692139Y-101688992D01*
X181692139Y-101688993D01*
X181614801Y-102077799D01*
X181614801Y-104286868D01*
X181301547Y-104156794D01*
X180651306Y-104156226D01*
X180050345Y-104404538D01*
X179590154Y-104863927D01*
X179340794Y-105464453D01*
X179340226Y-106114694D01*
X179588538Y-106715655D01*
X180047927Y-107175846D01*
X180648453Y-107425206D01*
X181298694Y-107425774D01*
X181614801Y-107295161D01*
X181614801Y-107954070D01*
X179975510Y-107954070D01*
X179740193Y-107998348D01*
X179524069Y-108137420D01*
X179379079Y-108349620D01*
X179328070Y-108601510D01*
X178053875Y-108601510D01*
X178054264Y-108156188D01*
X177822738Y-107595851D01*
X177394404Y-107166769D01*
X176834472Y-106934265D01*
X176228188Y-106933736D01*
X175667851Y-107165262D01*
X175238769Y-107593596D01*
X175006265Y-108153528D01*
X175005736Y-108759812D01*
X175237262Y-109320149D01*
X175644737Y-109728336D01*
X175238769Y-110133596D01*
X175006265Y-110693528D01*
X175005736Y-111299812D01*
X175237262Y-111860149D01*
X175644737Y-112268336D01*
X175238769Y-112673596D01*
X175006265Y-113233528D01*
X175005736Y-113839812D01*
X175237262Y-114400149D01*
X175644737Y-114808336D01*
X175238769Y-115213596D01*
X175006265Y-115773528D01*
X175005736Y-116379812D01*
X175237262Y-116940149D01*
X175644737Y-117348336D01*
X175238769Y-117753596D01*
X175006265Y-118313528D01*
X175005736Y-118919812D01*
X175237262Y-119480149D01*
X175644737Y-119888336D01*
X175238769Y-120293596D01*
X175195417Y-120398000D01*
X172792560Y-120398000D01*
X158439290Y-106044730D01*
X159278172Y-106045462D01*
X160258761Y-105640291D01*
X161009655Y-104890707D01*
X161416536Y-103910827D01*
X161416540Y-103906172D01*
X173862538Y-103906172D01*
X174267709Y-104886761D01*
X175017293Y-105637655D01*
X175997173Y-106044536D01*
X177058172Y-106045462D01*
X178038761Y-105640291D01*
X178789655Y-104890707D01*
X179196536Y-103910827D01*
X179197462Y-102849828D01*
X178792291Y-101869239D01*
X178042707Y-101118345D01*
X177062827Y-100711464D01*
X176001828Y-100710538D01*
X175021239Y-101115709D01*
X174270345Y-101865293D01*
X173863464Y-102845173D01*
X173862538Y-103906172D01*
X161416540Y-103906172D01*
X161417462Y-102849828D01*
X161012291Y-101869239D01*
X160262707Y-101118345D01*
X159284171Y-100712022D01*
X163977579Y-100712022D01*
X164009715Y-100744214D01*
X164353243Y-100886860D01*
X164725209Y-100887184D01*
X165068985Y-100745139D01*
X165332234Y-100482349D01*
X165474880Y-100138821D01*
X165474925Y-100087012D01*
X171648750Y-100087012D01*
X171939589Y-100029160D01*
X172186151Y-99864413D01*
X173200891Y-98849673D01*
X173324630Y-98973629D01*
X173837900Y-99186757D01*
X174393661Y-99187242D01*
X174907303Y-98975010D01*
X175300629Y-98582370D01*
X175513757Y-98069100D01*
X175514242Y-97513339D01*
X175493442Y-97462999D01*
X179411440Y-97462999D01*
X179438560Y-97481120D01*
X179438560Y-97739200D01*
X179482838Y-97974517D01*
X179621910Y-98190641D01*
X179834110Y-98335631D01*
X180086000Y-98386640D01*
X181864000Y-98386640D01*
X182099317Y-98342362D01*
X182315441Y-98203290D01*
X182460431Y-97991090D01*
X182492968Y-97830413D01*
X187794392Y-97830413D01*
X187863857Y-98072597D01*
X188387302Y-98259344D01*
X188942368Y-98231562D01*
X189326143Y-98072597D01*
X189395608Y-97830413D01*
X188595000Y-97029805D01*
X187794392Y-97830413D01*
X182492968Y-97830413D01*
X182511440Y-97739200D01*
X182511440Y-96642502D01*
X187185856Y-96642502D01*
X187213638Y-97197568D01*
X187372603Y-97581343D01*
X187614787Y-97650808D01*
X188415395Y-96850200D01*
X188774605Y-96850200D01*
X189575213Y-97650808D01*
X189817397Y-97581343D01*
X190004144Y-97057898D01*
X189976362Y-96502832D01*
X189910879Y-96344740D01*
X190866020Y-96344740D01*
X190866020Y-99844860D01*
X190910298Y-100080177D01*
X191049370Y-100296301D01*
X191261570Y-100441291D01*
X191513460Y-100492300D01*
X195013580Y-100492300D01*
X195248897Y-100448022D01*
X195465021Y-100308950D01*
X195610011Y-100096750D01*
X195661020Y-99844860D01*
X195661020Y-98380550D01*
X196877940Y-98380550D01*
X196877940Y-99971170D01*
X196974613Y-100204559D01*
X197153242Y-100383187D01*
X197386631Y-100479860D01*
X198977250Y-100479860D01*
X199136000Y-100321110D01*
X199136000Y-98221800D01*
X199390000Y-98221800D01*
X199390000Y-100321110D01*
X199548750Y-100479860D01*
X201139369Y-100479860D01*
X201372758Y-100383187D01*
X201551387Y-100204559D01*
X201648060Y-99971170D01*
X201648060Y-98380550D01*
X201489310Y-98221800D01*
X199390000Y-98221800D01*
X199136000Y-98221800D01*
X197036690Y-98221800D01*
X196877940Y-98380550D01*
X195661020Y-98380550D01*
X195661020Y-96344740D01*
X195616742Y-96109423D01*
X195477670Y-95893299D01*
X195331317Y-95793300D01*
X197184900Y-95793300D01*
X197153242Y-95806413D01*
X196974613Y-95985041D01*
X196877940Y-96218430D01*
X196877940Y-97809050D01*
X197036690Y-97967800D01*
X199136000Y-97967800D01*
X199136000Y-95868490D01*
X199390000Y-95868490D01*
X199390000Y-97967800D01*
X201489310Y-97967800D01*
X201648060Y-97809050D01*
X201648060Y-96218430D01*
X201551387Y-95985041D01*
X201372758Y-95806413D01*
X201139369Y-95709740D01*
X199548750Y-95709740D01*
X199390000Y-95868490D01*
X199136000Y-95868490D01*
X198977250Y-95709740D01*
X198309683Y-95709740D01*
X198464761Y-95609950D01*
X198609751Y-95397750D01*
X198660760Y-95145860D01*
X198660760Y-91645740D01*
X198616482Y-91410423D01*
X198477410Y-91194299D01*
X198265210Y-91049309D01*
X198013320Y-90998300D01*
X196428126Y-90998300D01*
X196710846Y-90716073D01*
X196829519Y-90430275D01*
X202063331Y-90430275D01*
X202125169Y-90666042D01*
X202626122Y-90842419D01*
X203156440Y-90813664D01*
X203512831Y-90666042D01*
X203574669Y-90430275D01*
X202819000Y-89674605D01*
X202063331Y-90430275D01*
X196829519Y-90430275D01*
X196960206Y-90115547D01*
X196960774Y-89465306D01*
X196893348Y-89302122D01*
X201471581Y-89302122D01*
X201500336Y-89832440D01*
X201647958Y-90188831D01*
X201883725Y-90250669D01*
X202639395Y-89495000D01*
X202998605Y-89495000D01*
X203754275Y-90250669D01*
X203990042Y-90188831D01*
X204166419Y-89687878D01*
X204137664Y-89157560D01*
X203990042Y-88801169D01*
X203754275Y-88739331D01*
X202998605Y-89495000D01*
X202639395Y-89495000D01*
X201883725Y-88739331D01*
X201647958Y-88801169D01*
X201471581Y-89302122D01*
X196893348Y-89302122D01*
X196712462Y-88864345D01*
X196253073Y-88404154D01*
X196224475Y-88392279D01*
X196250655Y-88381462D01*
X196710846Y-87922073D01*
X196960206Y-87321547D01*
X196960260Y-87259383D01*
X201483769Y-87259383D01*
X201686582Y-87750229D01*
X202061796Y-88126098D01*
X202331987Y-88238291D01*
X202125169Y-88323958D01*
X202063331Y-88559725D01*
X202819000Y-89315395D01*
X203574669Y-88559725D01*
X203512831Y-88323958D01*
X203289158Y-88245207D01*
X203574229Y-88127418D01*
X203950098Y-87752204D01*
X204153768Y-87261713D01*
X204154231Y-86730617D01*
X203951418Y-86239771D01*
X203576204Y-85863902D01*
X203085713Y-85660232D01*
X202554617Y-85659769D01*
X202063771Y-85862582D01*
X201687902Y-86237796D01*
X201484232Y-86728287D01*
X201483769Y-87259383D01*
X196960260Y-87259383D01*
X196960774Y-86671306D01*
X196712462Y-86070345D01*
X196253073Y-85610154D01*
X195652547Y-85360794D01*
X195002306Y-85360226D01*
X194401345Y-85608538D01*
X193941154Y-86067927D01*
X193691794Y-86668453D01*
X193691226Y-87318694D01*
X193939538Y-87919655D01*
X194398927Y-88379846D01*
X194427525Y-88391721D01*
X194401345Y-88402538D01*
X193941154Y-88861927D01*
X193691794Y-89462453D01*
X193691226Y-90112694D01*
X193939538Y-90713655D01*
X194271797Y-91046494D01*
X194061759Y-91181650D01*
X193916769Y-91393850D01*
X193865760Y-91645740D01*
X193865760Y-95145860D01*
X193910038Y-95381177D01*
X194049110Y-95597301D01*
X194195463Y-95697300D01*
X191513460Y-95697300D01*
X191278143Y-95741578D01*
X191062019Y-95880650D01*
X190917029Y-96092850D01*
X190866020Y-96344740D01*
X189910879Y-96344740D01*
X189817397Y-96119057D01*
X189575213Y-96049592D01*
X188774605Y-96850200D01*
X188415395Y-96850200D01*
X187614787Y-96049592D01*
X187372603Y-96119057D01*
X187185856Y-96642502D01*
X182511440Y-96642502D01*
X182511440Y-95961200D01*
X182494278Y-95869987D01*
X187794392Y-95869987D01*
X188595000Y-96670595D01*
X189395608Y-95869987D01*
X189326143Y-95627803D01*
X188802698Y-95441056D01*
X188247632Y-95468838D01*
X187863857Y-95627803D01*
X187794392Y-95869987D01*
X182494278Y-95869987D01*
X182467162Y-95725883D01*
X182328090Y-95509759D01*
X182115890Y-95364769D01*
X181864000Y-95313760D01*
X180086000Y-95313760D01*
X179850683Y-95358038D01*
X179634559Y-95497110D01*
X179489569Y-95709310D01*
X179442246Y-95942999D01*
X173595239Y-95942999D01*
X173304400Y-96000851D01*
X173057838Y-96165598D01*
X172493109Y-96730327D01*
X172369370Y-96606371D01*
X171856100Y-96393243D01*
X171300339Y-96392758D01*
X170786697Y-96604990D01*
X170393371Y-96997630D01*
X170307051Y-97205512D01*
X170222010Y-96999697D01*
X169829370Y-96606371D01*
X169316100Y-96393243D01*
X168760339Y-96392758D01*
X168246697Y-96604990D01*
X167853371Y-96997630D01*
X167773605Y-97189727D01*
X167719397Y-97058857D01*
X167477213Y-96989392D01*
X166676605Y-97790000D01*
X166690748Y-97804143D01*
X166511143Y-97983748D01*
X166497000Y-97969605D01*
X166482858Y-97983748D01*
X166303253Y-97804143D01*
X166317395Y-97790000D01*
X166303253Y-97775858D01*
X166482858Y-97596253D01*
X166497000Y-97610395D01*
X167297608Y-96809787D01*
X167228143Y-96567603D01*
X166704698Y-96380856D01*
X166149632Y-96408638D01*
X165765857Y-96567603D01*
X165696393Y-96809785D01*
X165581382Y-96694774D01*
X165563360Y-96712796D01*
X159517162Y-90666598D01*
X159270600Y-90501851D01*
X158979761Y-90443999D01*
X154570815Y-90443999D01*
X154723750Y-90075691D01*
X154724248Y-89504813D01*
X154515204Y-88998887D01*
X178905000Y-88998887D01*
X178905000Y-89055113D01*
X179014233Y-89604264D01*
X179325302Y-90069811D01*
X179790849Y-90380880D01*
X180340000Y-90490113D01*
X180889151Y-90380880D01*
X181354698Y-90069811D01*
X181665767Y-89604264D01*
X181753264Y-89164383D01*
X183108769Y-89164383D01*
X183311582Y-89655229D01*
X183686796Y-90031098D01*
X184177287Y-90234768D01*
X184708383Y-90235231D01*
X185199229Y-90032418D01*
X185396716Y-89835275D01*
X186188331Y-89835275D01*
X186250169Y-90071042D01*
X186751122Y-90247419D01*
X187281440Y-90218664D01*
X187637831Y-90071042D01*
X187699669Y-89835275D01*
X186944000Y-89079605D01*
X186188331Y-89835275D01*
X185396716Y-89835275D01*
X185575098Y-89657204D01*
X185687291Y-89387013D01*
X185772958Y-89593831D01*
X186008725Y-89655669D01*
X186764395Y-88900000D01*
X187123605Y-88900000D01*
X187879275Y-89655669D01*
X188115042Y-89593831D01*
X188291419Y-89092878D01*
X188262664Y-88562560D01*
X188115042Y-88206169D01*
X187879275Y-88144331D01*
X187123605Y-88900000D01*
X186764395Y-88900000D01*
X186008725Y-88144331D01*
X185772958Y-88206169D01*
X185694207Y-88429842D01*
X185576418Y-88144771D01*
X185396686Y-87964725D01*
X186188331Y-87964725D01*
X186944000Y-88720395D01*
X187699669Y-87964725D01*
X187637831Y-87728958D01*
X187136878Y-87552581D01*
X186606560Y-87581336D01*
X186250169Y-87728958D01*
X186188331Y-87964725D01*
X185396686Y-87964725D01*
X185201204Y-87768902D01*
X184710713Y-87565232D01*
X184179617Y-87564769D01*
X183688771Y-87767582D01*
X183312902Y-88142796D01*
X183109232Y-88633287D01*
X183108769Y-89164383D01*
X181753264Y-89164383D01*
X181775000Y-89055113D01*
X181775000Y-88998887D01*
X181665767Y-88449736D01*
X181354698Y-87984189D01*
X180889151Y-87673120D01*
X180340000Y-87563887D01*
X179790849Y-87673120D01*
X179325302Y-87984189D01*
X179014233Y-88449736D01*
X178905000Y-88998887D01*
X154515204Y-88998887D01*
X154506243Y-88977200D01*
X154102923Y-88573176D01*
X153972785Y-88519138D01*
X154100800Y-88466243D01*
X154504824Y-88062923D01*
X154723750Y-87535691D01*
X154724248Y-86964813D01*
X154506243Y-86437200D01*
X154102923Y-86033176D01*
X153972785Y-85979138D01*
X154100800Y-85926243D01*
X154504824Y-85522923D01*
X154723750Y-84995691D01*
X154724248Y-84424813D01*
X154506243Y-83897200D01*
X154102923Y-83493176D01*
X153988232Y-83445552D01*
X154043005Y-83422864D01*
X154117139Y-83176745D01*
X153289000Y-82348605D01*
X152460861Y-83176745D01*
X152534995Y-83422864D01*
X152593254Y-83443805D01*
X152477200Y-83491757D01*
X152073176Y-83895077D01*
X151854250Y-84422309D01*
X151853752Y-84993187D01*
X152071757Y-85520800D01*
X152475077Y-85924824D01*
X152605215Y-85978862D01*
X152477200Y-86031757D01*
X152073176Y-86435077D01*
X152019138Y-86565215D01*
X151966243Y-86437200D01*
X151562923Y-86033176D01*
X151035691Y-85814250D01*
X150464813Y-85813752D01*
X149937200Y-86031757D01*
X149533176Y-86435077D01*
X149314250Y-86962309D01*
X149313752Y-87533187D01*
X149531757Y-88060800D01*
X149935077Y-88464824D01*
X150065215Y-88518862D01*
X149937200Y-88571757D01*
X149533176Y-88975077D01*
X149314250Y-89502309D01*
X149313752Y-90073187D01*
X149466968Y-90443999D01*
X147668999Y-90443999D01*
X147378160Y-90501851D01*
X147131598Y-90666598D01*
X142326109Y-95472087D01*
X142266243Y-95327200D01*
X141862923Y-94923176D01*
X141732785Y-94869138D01*
X141860800Y-94816243D01*
X142264824Y-94412923D01*
X142483750Y-93885691D01*
X142484248Y-93314813D01*
X142266243Y-92787200D01*
X141862923Y-92383176D01*
X141732785Y-92329138D01*
X141860800Y-92276243D01*
X142264824Y-91872923D01*
X142483750Y-91345691D01*
X142484248Y-90774813D01*
X142266243Y-90247200D01*
X141862923Y-89843176D01*
X141732785Y-89789138D01*
X141860800Y-89736243D01*
X142264824Y-89332923D01*
X142483750Y-88805691D01*
X142484248Y-88234813D01*
X142266243Y-87707200D01*
X141862923Y-87303176D01*
X141732785Y-87249138D01*
X141860800Y-87196243D01*
X142264824Y-86792923D01*
X142483750Y-86265691D01*
X142484248Y-85694813D01*
X142266243Y-85167200D01*
X141862923Y-84763176D01*
X141335691Y-84544250D01*
X140764813Y-84543752D01*
X140237200Y-84761757D01*
X139833176Y-85165077D01*
X139614250Y-85692309D01*
X139613752Y-86263187D01*
X139831757Y-86790800D01*
X140235077Y-87194824D01*
X140365215Y-87248862D01*
X140237200Y-87301757D01*
X139833176Y-87705077D01*
X139614250Y-88232309D01*
X139613752Y-88803187D01*
X139831757Y-89330800D01*
X140235077Y-89734824D01*
X140365215Y-89788862D01*
X140237200Y-89841757D01*
X139833176Y-90245077D01*
X139614250Y-90772309D01*
X139613752Y-91343187D01*
X139831757Y-91870800D01*
X140235077Y-92274824D01*
X140365215Y-92328862D01*
X140237200Y-92381757D01*
X139833176Y-92785077D01*
X139614250Y-93312309D01*
X139613752Y-93883187D01*
X139831757Y-94410800D01*
X140235077Y-94814824D01*
X140365215Y-94868862D01*
X140237200Y-94921757D01*
X139833176Y-95325077D01*
X139614250Y-95852309D01*
X139613752Y-96423187D01*
X139707056Y-96649000D01*
X139287646Y-96649000D01*
X139266243Y-96597200D01*
X138862923Y-96193176D01*
X138732785Y-96139138D01*
X138860800Y-96086243D01*
X139264824Y-95682923D01*
X139483750Y-95155691D01*
X139484248Y-94584813D01*
X139266243Y-94057200D01*
X138862923Y-93653176D01*
X138732785Y-93599138D01*
X138860800Y-93546243D01*
X139264824Y-93142923D01*
X139483750Y-92615691D01*
X139484248Y-92044813D01*
X139266243Y-91517200D01*
X138862923Y-91113176D01*
X138732785Y-91059138D01*
X138860800Y-91006243D01*
X139264824Y-90602923D01*
X139483750Y-90075691D01*
X139484248Y-89504813D01*
X139266243Y-88977200D01*
X138862923Y-88573176D01*
X138732785Y-88519138D01*
X138860800Y-88466243D01*
X139264824Y-88062923D01*
X139483750Y-87535691D01*
X139484248Y-86964813D01*
X139266243Y-86437200D01*
X138862923Y-86033176D01*
X138732785Y-85979138D01*
X138860800Y-85926243D01*
X139264824Y-85522923D01*
X139483750Y-84995691D01*
X139484248Y-84424813D01*
X139266243Y-83897200D01*
X138862923Y-83493176D01*
X138732785Y-83439138D01*
X138860800Y-83386243D01*
X139264824Y-82982923D01*
X139483750Y-82455691D01*
X139483752Y-82453187D01*
X149313752Y-82453187D01*
X149531757Y-82980800D01*
X149935077Y-83384824D01*
X150462309Y-83603750D01*
X151033187Y-83604248D01*
X151560800Y-83386243D01*
X151964824Y-82982923D01*
X152012448Y-82868232D01*
X152035136Y-82923005D01*
X152281255Y-82997139D01*
X153109395Y-82169000D01*
X152281255Y-81340861D01*
X152035136Y-81414995D01*
X152014195Y-81473254D01*
X151966243Y-81357200D01*
X151562923Y-80953176D01*
X151035691Y-80734250D01*
X150464813Y-80733752D01*
X149937200Y-80951757D01*
X149533176Y-81355077D01*
X149314250Y-81882309D01*
X149313752Y-82453187D01*
X139483752Y-82453187D01*
X139484248Y-81884813D01*
X139266243Y-81357200D01*
X138973554Y-81064000D01*
X138975310Y-81064000D01*
X139208699Y-80967327D01*
X139387327Y-80788698D01*
X139484000Y-80555309D01*
X139484000Y-79914750D01*
X139482437Y-79913187D01*
X151853752Y-79913187D01*
X152071757Y-80440800D01*
X152475077Y-80844824D01*
X152589768Y-80892448D01*
X152534995Y-80915136D01*
X152460861Y-81161255D01*
X153289000Y-81989395D01*
X153303142Y-81975252D01*
X153482748Y-82154858D01*
X153468605Y-82169000D01*
X154296745Y-82997139D01*
X154542864Y-82923005D01*
X154702378Y-82479219D01*
X159047579Y-86824420D01*
X159377193Y-87044661D01*
X159766000Y-87121999D01*
X160154807Y-87044661D01*
X160484420Y-86824420D01*
X160704661Y-86494807D01*
X160781999Y-86106000D01*
X160760022Y-85995510D01*
X189869070Y-85995510D01*
X189869070Y-87994490D01*
X189913348Y-88229807D01*
X190018619Y-88393402D01*
X189920079Y-88537620D01*
X189869070Y-88789510D01*
X189869070Y-90788490D01*
X189913348Y-91023807D01*
X190052420Y-91239931D01*
X190264620Y-91384921D01*
X190516510Y-91435930D01*
X192515490Y-91435930D01*
X192750807Y-91391652D01*
X192966931Y-91252580D01*
X193111921Y-91040380D01*
X193162930Y-90788490D01*
X193162930Y-88789510D01*
X193118652Y-88554193D01*
X193013381Y-88390598D01*
X193111921Y-88246380D01*
X193162930Y-87994490D01*
X193162930Y-85995510D01*
X193118652Y-85760193D01*
X192979580Y-85544069D01*
X192767380Y-85399079D01*
X192515490Y-85348070D01*
X190516510Y-85348070D01*
X190281193Y-85392348D01*
X190065069Y-85531420D01*
X189920079Y-85743620D01*
X189869070Y-85995510D01*
X160760022Y-85995510D01*
X160704661Y-85717193D01*
X160484420Y-85387579D01*
X158478636Y-83381795D01*
X183784716Y-83381795D01*
X184033106Y-83982943D01*
X184492637Y-84443278D01*
X185093352Y-84692716D01*
X185743795Y-84693284D01*
X186344943Y-84444894D01*
X186805278Y-83985363D01*
X187054716Y-83384648D01*
X187055284Y-82734205D01*
X186806894Y-82133057D01*
X186744749Y-82070803D01*
X186779698Y-82056327D01*
X186958327Y-81877699D01*
X187055000Y-81644310D01*
X187055000Y-81015000D01*
X189841560Y-81015000D01*
X189841560Y-82815000D01*
X189885838Y-83050317D01*
X190024910Y-83266441D01*
X190237110Y-83411431D01*
X190489000Y-83462440D01*
X192289000Y-83462440D01*
X192524317Y-83418162D01*
X192740441Y-83279090D01*
X192885431Y-83066890D01*
X192895766Y-83015854D01*
X193021424Y-83152966D01*
X193564258Y-83406046D01*
X193802000Y-83285997D01*
X193802000Y-82042000D01*
X193782000Y-82042000D01*
X193782000Y-81788000D01*
X193802000Y-81788000D01*
X193802000Y-80544003D01*
X194056000Y-80544003D01*
X194056000Y-81788000D01*
X194076000Y-81788000D01*
X194076000Y-82042000D01*
X194056000Y-82042000D01*
X194056000Y-83285997D01*
X194293742Y-83406046D01*
X194836576Y-83152966D01*
X195194499Y-82762418D01*
X195353519Y-83000409D01*
X195851509Y-83333155D01*
X196438928Y-83450000D01*
X196499072Y-83450000D01*
X197086491Y-83333155D01*
X197584481Y-83000409D01*
X197917227Y-82502419D01*
X198034072Y-81915000D01*
X197917227Y-81327581D01*
X197584481Y-80829591D01*
X197086491Y-80496845D01*
X196499072Y-80380000D01*
X196438928Y-80380000D01*
X195851509Y-80496845D01*
X195353519Y-80829591D01*
X195194499Y-81067582D01*
X194836576Y-80677034D01*
X194293742Y-80423954D01*
X194056000Y-80544003D01*
X193802000Y-80544003D01*
X193564258Y-80423954D01*
X193021424Y-80677034D01*
X192898156Y-80811538D01*
X192892162Y-80779683D01*
X192753090Y-80563559D01*
X192540890Y-80418569D01*
X192289000Y-80367560D01*
X190489000Y-80367560D01*
X190253683Y-80411838D01*
X190037559Y-80550910D01*
X189892569Y-80763110D01*
X189841560Y-81015000D01*
X187055000Y-81015000D01*
X187055000Y-80803750D01*
X186896250Y-80645000D01*
X185547000Y-80645000D01*
X185547000Y-80665000D01*
X185293000Y-80665000D01*
X185293000Y-80645000D01*
X183943750Y-80645000D01*
X183785000Y-80803750D01*
X183785000Y-81644310D01*
X183881673Y-81877699D01*
X184060302Y-82056327D01*
X184094834Y-82070630D01*
X184034722Y-82130637D01*
X183785284Y-82731352D01*
X183784716Y-83381795D01*
X158478636Y-83381795D01*
X154724002Y-79627162D01*
X154724248Y-79344813D01*
X154506243Y-78817200D01*
X154102923Y-78413176D01*
X153575691Y-78194250D01*
X153004813Y-78193752D01*
X152477200Y-78411757D01*
X152073176Y-78815077D01*
X151854250Y-79342309D01*
X151853752Y-79913187D01*
X139482437Y-79913187D01*
X139325250Y-79756000D01*
X138176000Y-79756000D01*
X138176000Y-79776000D01*
X137922000Y-79776000D01*
X137922000Y-79756000D01*
X136772750Y-79756000D01*
X136614000Y-79914750D01*
X136614000Y-80555309D01*
X136710673Y-80788698D01*
X136889301Y-80967327D01*
X137122690Y-81064000D01*
X137124761Y-81064000D01*
X136833176Y-81355077D01*
X136614250Y-81882309D01*
X136614018Y-82148180D01*
X134734320Y-84027878D01*
X134688833Y-84027838D01*
X134345057Y-84169883D01*
X134081808Y-84432673D01*
X133939162Y-84776201D01*
X133938838Y-85148167D01*
X134080883Y-85491943D01*
X134343673Y-85755192D01*
X134687201Y-85897838D01*
X135059167Y-85898162D01*
X135402943Y-85756117D01*
X135666192Y-85493327D01*
X135808838Y-85149799D01*
X135808879Y-85102923D01*
X136702839Y-84208963D01*
X136614250Y-84422309D01*
X136613752Y-84993187D01*
X136831757Y-85520800D01*
X137235077Y-85924824D01*
X137365215Y-85978862D01*
X137237200Y-86031757D01*
X136833176Y-86435077D01*
X136614250Y-86962309D01*
X136613752Y-87533187D01*
X136831757Y-88060800D01*
X137235077Y-88464824D01*
X137365215Y-88518862D01*
X137237200Y-88571757D01*
X136833176Y-88975077D01*
X136614250Y-89502309D01*
X136613752Y-90073187D01*
X136831757Y-90600800D01*
X137235077Y-91004824D01*
X137365215Y-91058862D01*
X137237200Y-91111757D01*
X136833176Y-91515077D01*
X136614250Y-92042309D01*
X136613752Y-92613187D01*
X136831757Y-93140800D01*
X137235077Y-93544824D01*
X137365215Y-93598862D01*
X137237200Y-93651757D01*
X136833176Y-94055077D01*
X136810785Y-94109000D01*
X132461000Y-94109000D01*
X132170161Y-94166852D01*
X131923599Y-94331599D01*
X129087381Y-97167817D01*
X129057100Y-97155243D01*
X128501339Y-97154758D01*
X127987697Y-97366990D01*
X127594371Y-97759630D01*
X127508051Y-97967512D01*
X127423010Y-97761697D01*
X127030370Y-97368371D01*
X126517100Y-97155243D01*
X125961339Y-97154758D01*
X125447697Y-97366990D01*
X125054371Y-97759630D01*
X124974605Y-97951727D01*
X124920397Y-97820857D01*
X124678213Y-97751392D01*
X123877605Y-98552000D01*
X124678213Y-99352608D01*
X124920397Y-99283143D01*
X124970509Y-99142682D01*
X125052990Y-99342303D01*
X125445630Y-99735629D01*
X125958900Y-99948757D01*
X126514661Y-99949242D01*
X127028303Y-99737010D01*
X127421629Y-99344370D01*
X127507949Y-99136488D01*
X127592990Y-99342303D01*
X127985630Y-99735629D01*
X128498900Y-99948757D01*
X129054661Y-99949242D01*
X129568303Y-99737010D01*
X129961629Y-99344370D01*
X130047949Y-99136488D01*
X130132990Y-99342303D01*
X130525630Y-99735629D01*
X131038900Y-99948757D01*
X131594661Y-99949242D01*
X132108303Y-99737010D01*
X132501629Y-99344370D01*
X132513754Y-99315170D01*
X136753731Y-99326402D01*
X136614250Y-99662309D01*
X136613752Y-100233187D01*
X136831757Y-100760800D01*
X137235077Y-101164824D01*
X137365215Y-101218862D01*
X137237200Y-101271757D01*
X136833176Y-101675077D01*
X136614250Y-102202309D01*
X136613752Y-102773187D01*
X136831757Y-103300800D01*
X136934487Y-103403709D01*
X125065599Y-115272597D01*
X124900852Y-115519159D01*
X124843000Y-115809998D01*
X124843000Y-118045055D01*
X124740851Y-118087262D01*
X124332664Y-118494737D01*
X123927404Y-118088769D01*
X123367472Y-117856265D01*
X122761188Y-117855736D01*
X122200851Y-118087262D01*
X121771769Y-118515596D01*
X121760595Y-118542506D01*
X121595196Y-118487409D01*
X120702605Y-119380000D01*
X120343395Y-119380000D01*
X119450804Y-118487409D01*
X119285862Y-118542353D01*
X119275738Y-118517851D01*
X119066058Y-118307804D01*
X119630409Y-118307804D01*
X120523000Y-119200395D01*
X121415591Y-118307804D01*
X121330533Y-118052461D01*
X120761035Y-117844484D01*
X120155300Y-117870277D01*
X119715467Y-118052461D01*
X119630409Y-118307804D01*
X119066058Y-118307804D01*
X118847404Y-118088769D01*
X118287472Y-117856265D01*
X117681188Y-117855736D01*
X117120851Y-118087262D01*
X116712664Y-118494737D01*
X116307404Y-118088769D01*
X115747472Y-117856265D01*
X115141188Y-117855736D01*
X114580851Y-118087262D01*
X114151769Y-118515596D01*
X113919265Y-119075528D01*
X113918736Y-119681812D01*
X106095000Y-119681812D01*
X106095000Y-105887870D01*
X113664583Y-105887870D01*
X114031166Y-106775069D01*
X114709361Y-107454449D01*
X115595919Y-107822580D01*
X116555870Y-107823417D01*
X117443069Y-107456834D01*
X118122449Y-106778639D01*
X118490580Y-105892081D01*
X118490583Y-105887870D01*
X127634583Y-105887870D01*
X128001166Y-106775069D01*
X128679361Y-107454449D01*
X129565919Y-107822580D01*
X130525870Y-107823417D01*
X131413069Y-107456834D01*
X132092449Y-106778639D01*
X132460580Y-105892081D01*
X132461417Y-104932130D01*
X132094834Y-104044931D01*
X131416639Y-103365551D01*
X130530081Y-102997420D01*
X129570130Y-102996583D01*
X128682931Y-103363166D01*
X128003551Y-104041361D01*
X127635420Y-104927919D01*
X127634583Y-105887870D01*
X118490583Y-105887870D01*
X118491417Y-104932130D01*
X118124834Y-104044931D01*
X117446639Y-103365551D01*
X116560081Y-102997420D01*
X115600130Y-102996583D01*
X114712931Y-103363166D01*
X114033551Y-104041361D01*
X113665420Y-104927919D01*
X113664583Y-105887870D01*
X106095000Y-105887870D01*
X106095000Y-98828661D01*
X117220758Y-98828661D01*
X117432990Y-99342303D01*
X117825630Y-99735629D01*
X118338900Y-99948757D01*
X118894661Y-99949242D01*
X119408303Y-99737010D01*
X119801629Y-99344370D01*
X119887949Y-99136488D01*
X119972990Y-99342303D01*
X120365630Y-99735629D01*
X120878900Y-99948757D01*
X121434661Y-99949242D01*
X121948303Y-99737010D01*
X122153457Y-99532213D01*
X122897392Y-99532213D01*
X122966857Y-99774397D01*
X123490302Y-99961144D01*
X124045368Y-99933362D01*
X124429143Y-99774397D01*
X124498608Y-99532213D01*
X123698000Y-98731605D01*
X122897392Y-99532213D01*
X122153457Y-99532213D01*
X122341629Y-99344370D01*
X122421395Y-99152273D01*
X122475603Y-99283143D01*
X122717787Y-99352608D01*
X123518395Y-98552000D01*
X122717787Y-97751392D01*
X122475603Y-97820857D01*
X122425491Y-97961318D01*
X122343010Y-97761697D01*
X122153432Y-97571787D01*
X122897392Y-97571787D01*
X123698000Y-98372395D01*
X124498608Y-97571787D01*
X124429143Y-97329603D01*
X123905698Y-97142856D01*
X123350632Y-97170638D01*
X122966857Y-97329603D01*
X122897392Y-97571787D01*
X122153432Y-97571787D01*
X121950370Y-97368371D01*
X121437100Y-97155243D01*
X120881339Y-97154758D01*
X120367697Y-97366990D01*
X119974371Y-97759630D01*
X119888051Y-97967512D01*
X119803010Y-97761697D01*
X119410370Y-97368371D01*
X118897100Y-97155243D01*
X118341339Y-97154758D01*
X117827697Y-97366990D01*
X117434371Y-97759630D01*
X117221243Y-98272900D01*
X117220758Y-98828661D01*
X106095000Y-98828661D01*
X106095000Y-82061252D01*
X106311340Y-82584835D01*
X107275092Y-83550270D01*
X108534937Y-84073403D01*
X109899078Y-84074594D01*
X111159835Y-83553660D01*
X112125270Y-82589908D01*
X112648403Y-81330063D01*
X112648916Y-80741870D01*
X114934583Y-80741870D01*
X115301166Y-81629069D01*
X115979361Y-82308449D01*
X116865919Y-82676580D01*
X117825870Y-82677417D01*
X118713069Y-82310834D01*
X118959672Y-82064661D01*
X122300758Y-82064661D01*
X122512990Y-82578303D01*
X122905630Y-82971629D01*
X123418900Y-83184757D01*
X123974661Y-83185242D01*
X124488303Y-82973010D01*
X124881629Y-82580370D01*
X124967949Y-82372488D01*
X125052990Y-82578303D01*
X125445630Y-82971629D01*
X125958900Y-83184757D01*
X126514661Y-83185242D01*
X127028303Y-82973010D01*
X127421629Y-82580370D01*
X127634757Y-82067100D01*
X127635242Y-81511339D01*
X127423010Y-80997697D01*
X127167630Y-80741870D01*
X130174583Y-80741870D01*
X130541166Y-81629069D01*
X131219361Y-82308449D01*
X132105919Y-82676580D01*
X133065870Y-82677417D01*
X133953069Y-82310834D01*
X134632449Y-81632639D01*
X135000580Y-80746081D01*
X135001417Y-79786130D01*
X134634834Y-78898931D01*
X134438937Y-78702691D01*
X136614000Y-78702691D01*
X136614000Y-79343250D01*
X136772750Y-79502000D01*
X137922000Y-79502000D01*
X137922000Y-78352750D01*
X138176000Y-78352750D01*
X138176000Y-79502000D01*
X139325250Y-79502000D01*
X139484000Y-79343250D01*
X139484000Y-78702691D01*
X139387327Y-78469302D01*
X139208699Y-78290673D01*
X138975310Y-78194000D01*
X138334750Y-78194000D01*
X138176000Y-78352750D01*
X137922000Y-78352750D01*
X137763250Y-78194000D01*
X137122690Y-78194000D01*
X136889301Y-78290673D01*
X136710673Y-78469302D01*
X136614000Y-78702691D01*
X134438937Y-78702691D01*
X133956639Y-78219551D01*
X133070081Y-77851420D01*
X132110130Y-77850583D01*
X131222931Y-78217166D01*
X130543551Y-78895361D01*
X130175420Y-79781919D01*
X130174583Y-80741870D01*
X127167630Y-80741870D01*
X127030370Y-80604371D01*
X126517100Y-80391243D01*
X125961339Y-80390758D01*
X125447697Y-80602990D01*
X125054371Y-80995630D01*
X124968051Y-81203512D01*
X124883010Y-80997697D01*
X124490370Y-80604371D01*
X123977100Y-80391243D01*
X123421339Y-80390758D01*
X122907697Y-80602990D01*
X122514371Y-80995630D01*
X122301243Y-81508900D01*
X122300758Y-82064661D01*
X118959672Y-82064661D01*
X119392449Y-81632639D01*
X119760580Y-80746081D01*
X119761417Y-79786130D01*
X119394834Y-78898931D01*
X118716639Y-78219551D01*
X117830081Y-77851420D01*
X116870130Y-77850583D01*
X115982931Y-78217166D01*
X115303551Y-78895361D01*
X114935420Y-79781919D01*
X114934583Y-80741870D01*
X112648916Y-80741870D01*
X112649594Y-79965922D01*
X112128660Y-78705165D01*
X111164908Y-77739730D01*
X110635739Y-77520000D01*
X158716984Y-77520000D01*
X158102551Y-78133361D01*
M02*
