G04 #@! TF.FileFunction,Copper,L1,Top,Signal*
%FSLAX46Y46*%
G04 Gerber Fmt 4.6, Leading zero omitted, Abs format (unit mm)*
G04 Created by KiCad (PCBNEW 4.0.6) date Friday, July 28, 2017 'PMt' 03:28:58 PM*
%MOMM*%
%LPD*%
G01*
G04 APERTURE LIST*
%ADD10C,0.100000*%
%ADD11C,4.064000*%
%ADD12C,1.778000*%
%ADD13R,1.778000X1.778000*%
%ADD14C,10.160000*%
%ADD15C,1.524000*%
%ADD16C,2.540000*%
%ADD17C,3.556000*%
%ADD18C,1.600000*%
%ADD19R,1.600000X1.600000*%
%ADD20R,3.500120X3.500120*%
%ADD21R,2.000000X2.000000*%
%ADD22C,2.000000*%
%ADD23R,1.727200X1.727200*%
%ADD24O,1.727200X1.727200*%
%ADD25R,1.727200X2.032000*%
%ADD26O,1.727200X2.032000*%
%ADD27O,1.600000X1.600000*%
%ADD28R,1.800000X1.800000*%
%ADD29O,1.800000X1.800000*%
%ADD30C,5.588000*%
%ADD31C,1.998980*%
%ADD32R,1.998980X1.998980*%
%ADD33R,1.700000X1.700000*%
%ADD34O,1.700000X1.700000*%
%ADD35R,1.550000X0.600000*%
%ADD36R,1.800000X1.200000*%
%ADD37C,1.400000*%
%ADD38C,0.600000*%
%ADD39C,0.250000*%
%ADD40C,0.762000*%
G04 APERTURE END LIST*
D10*
D11*
X158750000Y-103378000D03*
X158750000Y-136398000D03*
X176530000Y-136398000D03*
D12*
X176530000Y-121158000D03*
X176530000Y-123698000D03*
X176530000Y-126238000D03*
X176530000Y-128778000D03*
D13*
X176530000Y-131318000D03*
D12*
X176530000Y-118618000D03*
X176530000Y-116078000D03*
X176530000Y-113538000D03*
X176530000Y-110998000D03*
X176530000Y-108458000D03*
D11*
X176530000Y-103378000D03*
D14*
X188087000Y-129540000D03*
D15*
X194691000Y-131064000D03*
X181737000Y-131064000D03*
X181737000Y-128016000D03*
X194691000Y-128016000D03*
D16*
X188087000Y-138430000D03*
D15*
X169037000Y-81026000D03*
X166497000Y-81026000D03*
X161417000Y-97790000D03*
X163957000Y-97790000D03*
X166497000Y-97790000D03*
X169037000Y-97790000D03*
X171577000Y-97790000D03*
X174117000Y-97790000D03*
D17*
X160147000Y-79502000D03*
X175387000Y-79502000D03*
D15*
X126238000Y-81788000D03*
X123698000Y-81788000D03*
X118618000Y-98552000D03*
X121158000Y-98552000D03*
X123698000Y-98552000D03*
X126238000Y-98552000D03*
X128778000Y-98552000D03*
X131318000Y-98552000D03*
D17*
X117348000Y-80264000D03*
X132588000Y-80264000D03*
D18*
X138049000Y-120269000D03*
X138049000Y-122809000D03*
X138049000Y-125349000D03*
X138049000Y-127889000D03*
X138049000Y-117729000D03*
X138049000Y-115189000D03*
X138049000Y-112649000D03*
X138049000Y-130429000D03*
X138049000Y-132969000D03*
X138049000Y-135509000D03*
X138049000Y-138049000D03*
X140589000Y-125349000D03*
X143129000Y-125349000D03*
X145669000Y-125349000D03*
X148209000Y-125349000D03*
X150749000Y-125349000D03*
X153289000Y-138049000D03*
X153289000Y-135509000D03*
X153289000Y-132969000D03*
X153289000Y-130429000D03*
X153289000Y-127889000D03*
X153289000Y-125349000D03*
X153289000Y-122809000D03*
X153289000Y-120269000D03*
X138049000Y-110109000D03*
X138049000Y-107569000D03*
X138049000Y-105029000D03*
X138049000Y-102489000D03*
X138049000Y-99949000D03*
X138049000Y-97409000D03*
X138049000Y-94869000D03*
X138049000Y-92329000D03*
X138049000Y-89789000D03*
X138049000Y-87249000D03*
X138049000Y-84709000D03*
X138049000Y-82169000D03*
D19*
X138049000Y-79629000D03*
D18*
X153289000Y-117729000D03*
X153289000Y-115189000D03*
X153289000Y-112649000D03*
X153289000Y-110109000D03*
X153289000Y-107569000D03*
X153289000Y-105029000D03*
X153289000Y-102489000D03*
X153289000Y-99949000D03*
X153289000Y-97409000D03*
X153289000Y-94869000D03*
X153289000Y-92329000D03*
X153289000Y-89789000D03*
X153289000Y-87249000D03*
X153289000Y-84709000D03*
X153289000Y-82169000D03*
X153289000Y-79629000D03*
X150749000Y-82169000D03*
X150749000Y-87249000D03*
X150749000Y-89789000D03*
X150749000Y-92329000D03*
X145669000Y-94869000D03*
X145669000Y-97409000D03*
X145669000Y-99949000D03*
X145669000Y-102489000D03*
X145669000Y-117729000D03*
X145669000Y-120269000D03*
X145669000Y-122809000D03*
X145669000Y-127889000D03*
X145669000Y-130429000D03*
X145669000Y-132969000D03*
X145669000Y-135509000D03*
X145669000Y-138049000D03*
X148209000Y-138049000D03*
X148209000Y-135509000D03*
X148209000Y-132969000D03*
X148209000Y-130429000D03*
X148209000Y-127889000D03*
X148209000Y-122809000D03*
X148209000Y-120269000D03*
X148209000Y-117729000D03*
X148209000Y-102489000D03*
X148209000Y-99949000D03*
X148209000Y-97409000D03*
X148209000Y-94869000D03*
X141049000Y-85979000D03*
X141049000Y-88519000D03*
X141049000Y-91059000D03*
X141049000Y-93599000D03*
X141049000Y-96139000D03*
D17*
X130048000Y-105410000D03*
X116078000Y-105410000D03*
D12*
X123063000Y-119380000D03*
X125603000Y-119380000D03*
X128143000Y-119380000D03*
X130683000Y-119380000D03*
X120523000Y-119380000D03*
X117983000Y-119380000D03*
X115443000Y-119380000D03*
D20*
X193263520Y-98094800D03*
X199263000Y-98094800D03*
X196263260Y-93395800D03*
D21*
X185420000Y-80518000D03*
D22*
X185420000Y-83058000D03*
D23*
X127508000Y-129032000D03*
D24*
X127508000Y-131572000D03*
X124968000Y-129032000D03*
X124968000Y-131572000D03*
X122428000Y-129032000D03*
X122428000Y-131572000D03*
X119888000Y-129032000D03*
X119888000Y-131572000D03*
X117348000Y-129032000D03*
X117348000Y-131572000D03*
D25*
X183134000Y-120269000D03*
D26*
X185674000Y-120269000D03*
X188214000Y-120269000D03*
D18*
X180340000Y-78867000D03*
D27*
X180340000Y-89027000D03*
D15*
X186740800Y-107924600D03*
X189280800Y-107924600D03*
X184200800Y-107924600D03*
D28*
X191389000Y-81915000D03*
D29*
X193929000Y-81915000D03*
X196469000Y-81915000D03*
D30*
X109220000Y-80645000D03*
X109220000Y-136525000D03*
X203200000Y-136525000D03*
X203200000Y-80645000D03*
D31*
X180975000Y-105791000D03*
D32*
X180975000Y-109601000D03*
D31*
X195326000Y-86995000D03*
D32*
X191516000Y-86995000D03*
D31*
X195326000Y-89789000D03*
D32*
X191516000Y-89789000D03*
D33*
X184277000Y-113030000D03*
D34*
X184277000Y-115570000D03*
D33*
X188087000Y-113030000D03*
D34*
X188087000Y-115570000D03*
D33*
X201422000Y-112776000D03*
D34*
X201422000Y-115316000D03*
X201422000Y-117856000D03*
D33*
X197485000Y-117983000D03*
D34*
X197485000Y-115443000D03*
D35*
X111698000Y-91343000D03*
X111698000Y-92343000D03*
X111698000Y-93343000D03*
X111698000Y-94343000D03*
X111698000Y-95343000D03*
D36*
X107823000Y-90043000D03*
X107823000Y-96643000D03*
D37*
X202819000Y-86995000D03*
X202819000Y-89495000D03*
X186944000Y-88900000D03*
X184444000Y-88900000D03*
X195035800Y-107823000D03*
X197535800Y-107823000D03*
D13*
X180975000Y-96850200D03*
D15*
X188595000Y-96850200D03*
D38*
X133086010Y-112794276D03*
X162814000Y-98702002D03*
X131835990Y-113799084D03*
X134874000Y-84963000D03*
X164540042Y-99952022D03*
X150495000Y-98298000D03*
X146685000Y-98552000D03*
X137287000Y-113919000D03*
X143002000Y-101854000D03*
X142240000Y-100965000D03*
X182626000Y-126238000D03*
X192786000Y-124841000D03*
X113411000Y-95377000D03*
X184226200Y-102412800D03*
X183083200Y-101625400D03*
X159766000Y-86106000D03*
X190322200Y-102692200D03*
D39*
X135001000Y-118364000D02*
X135001000Y-102997000D01*
X135001000Y-102997000D02*
X138049000Y-99949000D01*
X125831599Y-127533401D02*
X135001000Y-118364000D01*
X124968000Y-129032000D02*
X125831599Y-128168401D01*
X125831599Y-128168401D02*
X125831599Y-127533401D01*
X137249001Y-103288999D02*
X138049000Y-102489000D01*
X135451011Y-105086989D02*
X137249001Y-103288999D01*
X135451011Y-118550400D02*
X135451011Y-105086989D01*
X126319399Y-127682011D02*
X135451011Y-118550400D01*
X124968000Y-131572000D02*
X126319399Y-130220601D01*
X126319399Y-130220601D02*
X126319399Y-127682011D01*
X133086010Y-113218540D02*
X133086010Y-112794276D01*
X133086010Y-118773712D02*
X133086010Y-113218540D01*
X122428000Y-129032000D02*
X124388999Y-127071001D01*
X124388999Y-127071001D02*
X124788721Y-127071001D01*
X124788721Y-127071001D02*
X133086010Y-118773712D01*
X137249001Y-90588999D02*
X138049000Y-89789000D01*
X133749870Y-94088130D02*
X137249001Y-90588999D01*
X133749870Y-118746263D02*
X133749870Y-94088130D01*
X124975121Y-127521012D02*
X133749870Y-118746263D01*
X124719858Y-127521012D02*
X124975121Y-127521012D01*
X123616601Y-128624269D02*
X124719858Y-127521012D01*
X123616601Y-130383399D02*
X123616601Y-128624269D01*
X122428000Y-131572000D02*
X123616601Y-130383399D01*
X167949999Y-98877001D02*
X163413263Y-98877001D01*
X163238264Y-98702002D02*
X162814000Y-98702002D01*
X163413263Y-98877001D02*
X163238264Y-98702002D01*
X169037000Y-97790000D02*
X167949999Y-98877001D01*
X201422000Y-112776000D02*
X200322000Y-112776000D01*
X200322000Y-112776000D02*
X200183978Y-112637978D01*
X200183978Y-112637978D02*
X197727978Y-112637978D01*
X189966600Y-103555800D02*
X181870818Y-103555800D01*
X197727978Y-112637978D02*
X192354200Y-107264200D01*
X192354200Y-107264200D02*
X192354200Y-105943400D01*
X192354200Y-105943400D02*
X189966600Y-103555800D01*
X181870818Y-103555800D02*
X175018017Y-96702999D01*
X175018017Y-96702999D02*
X170124001Y-96702999D01*
X170124001Y-96702999D02*
X169037000Y-97790000D01*
X126238000Y-108201094D02*
X131535991Y-113499085D01*
X131535991Y-113499085D02*
X131835990Y-113799084D01*
X126238000Y-98552000D02*
X126238000Y-108201094D01*
X150999003Y-101363999D02*
X153829001Y-101363999D01*
X138049000Y-110109000D02*
X142254002Y-110109000D01*
X191451602Y-107670600D02*
X198660001Y-114878999D01*
X201986001Y-119031001D02*
X202597001Y-118420001D01*
X142254002Y-110109000D02*
X150999003Y-101363999D01*
X153829001Y-101363999D02*
X154414001Y-101948999D01*
X158563757Y-107243999D02*
X181477801Y-107243999D01*
X154414001Y-101948999D02*
X154414001Y-103094243D01*
X154414001Y-103094243D02*
X158563757Y-107243999D01*
X202597001Y-118420001D02*
X202597001Y-116491001D01*
X202597001Y-116491001D02*
X201422000Y-115316000D01*
X181477801Y-107243999D02*
X184175400Y-104546400D01*
X184175400Y-104546400D02*
X189636400Y-104546400D01*
X189636400Y-104546400D02*
X191439800Y-106349800D01*
X191439800Y-106349800D02*
X191439800Y-107670600D01*
X191439800Y-107670600D02*
X191451602Y-107670600D01*
X198660001Y-116833003D02*
X200857999Y-119031001D01*
X198660001Y-114878999D02*
X198660001Y-116833003D01*
X200857999Y-119031001D02*
X201986001Y-119031001D01*
X197485000Y-117983000D02*
X186126652Y-117983000D01*
X186126652Y-117983000D02*
X184322601Y-119787051D01*
X184322601Y-121545001D02*
X182169602Y-123698000D01*
X184322601Y-119787051D02*
X184322601Y-121545001D01*
X182169602Y-123698000D02*
X177787235Y-123698000D01*
X177787235Y-123698000D02*
X176530000Y-123698000D01*
X196436999Y-114394999D02*
X191135000Y-114394999D01*
X181102000Y-116586000D02*
X177418999Y-120269001D01*
X191135000Y-114394999D02*
X191135000Y-113792998D01*
X191135000Y-113792998D02*
X189197001Y-111854999D01*
X189197001Y-111854999D02*
X183166999Y-111854999D01*
X183166999Y-111854999D02*
X181102000Y-113919998D01*
X181102000Y-113919998D02*
X181102000Y-116586000D01*
X177418999Y-120269001D02*
X176530000Y-121158000D01*
X197485000Y-115443000D02*
X196436999Y-114394999D01*
X154414001Y-136681757D02*
X172477758Y-118618000D01*
X175272765Y-118618000D02*
X176530000Y-118618000D01*
X172477758Y-118618000D02*
X175272765Y-118618000D01*
X154414001Y-136923999D02*
X154414001Y-136681757D01*
X153289000Y-138049000D02*
X154414001Y-136923999D01*
X153289000Y-135509000D02*
X172720000Y-116078000D01*
X172720000Y-116078000D02*
X176530000Y-116078000D01*
X176530000Y-113538000D02*
X172720000Y-113538000D01*
X172720000Y-113538000D02*
X153289000Y-132969000D01*
X153289000Y-130429000D02*
X172720000Y-110998000D01*
X172720000Y-110998000D02*
X176530000Y-110998000D01*
X176530000Y-108458000D02*
X172720000Y-108458000D01*
X172720000Y-108458000D02*
X153289000Y-127889000D01*
X127508000Y-129032000D02*
X127508000Y-127129822D01*
X137249001Y-105828999D02*
X138049000Y-105029000D01*
X135901022Y-107176978D02*
X137249001Y-105828999D01*
X135901022Y-118736800D02*
X135901022Y-107176978D01*
X127508000Y-127129822D02*
X135901022Y-118736800D01*
X125603000Y-94234000D02*
X134874000Y-84963000D01*
X111698000Y-94343000D02*
X125494000Y-94343000D01*
X125494000Y-94343000D02*
X125603000Y-94234000D01*
X171954978Y-99952022D02*
X164964306Y-99952022D01*
X164964306Y-99952022D02*
X164540042Y-99952022D01*
X174117000Y-97790000D02*
X171954978Y-99952022D01*
X201422000Y-117856000D02*
X199110012Y-115544012D01*
X174878999Y-98551999D02*
X174117000Y-97790000D01*
X199110012Y-115544012D02*
X199110012Y-114692599D01*
X199110012Y-114692599D02*
X197505402Y-113087989D01*
X197505402Y-113087989D02*
X197505402Y-113075802D01*
X175756241Y-98551999D02*
X174878999Y-98551999D01*
X197505402Y-113075802D02*
X191897000Y-107467400D01*
X191897000Y-107467400D02*
X191897000Y-106146600D01*
X191897000Y-106146600D02*
X189775158Y-104024758D01*
X189775158Y-104024758D02*
X181229000Y-104024758D01*
X181229000Y-104024758D02*
X175756241Y-98551999D01*
X132461000Y-115824000D02*
X132461000Y-99695000D01*
X132461000Y-99695000D02*
X131318000Y-98552000D01*
X129357001Y-118927999D02*
X132461000Y-115824000D01*
X123444000Y-127254000D02*
X129357001Y-121340999D01*
X129357001Y-121340999D02*
X129357001Y-118927999D01*
X119906870Y-127254000D02*
X123444000Y-127254000D01*
X119888000Y-131572000D02*
X118699399Y-130383399D01*
X118699399Y-130383399D02*
X118699399Y-128461471D01*
X118699399Y-128461471D02*
X119906870Y-127254000D01*
X146685000Y-98552000D02*
X147692999Y-98557399D01*
X147692999Y-98557399D02*
X149854601Y-98557399D01*
X149854601Y-98557399D02*
X150495000Y-98298000D01*
X152157630Y-102489000D02*
X142367000Y-112279630D01*
X137431999Y-113774001D02*
X137287000Y-113919000D01*
X140872629Y-113774001D02*
X137431999Y-113774001D01*
X142367000Y-112279630D02*
X140872629Y-113774001D01*
X153289000Y-102489000D02*
X152157630Y-102489000D01*
X143002000Y-95870998D02*
X143002000Y-101854000D01*
X145146998Y-93726000D02*
X143002000Y-95870998D01*
X151892000Y-93726000D02*
X145146998Y-93726000D01*
X153289000Y-92329000D02*
X151892000Y-93726000D01*
X145905001Y-91203999D02*
X142240000Y-94869000D01*
X142240000Y-94869000D02*
X142240000Y-100965000D01*
X153289000Y-89789000D02*
X151874001Y-91203999D01*
X151874001Y-91203999D02*
X145905001Y-91203999D01*
D40*
X188087000Y-129540000D02*
X185928000Y-129540000D01*
X185928000Y-129540000D02*
X182626000Y-126238000D01*
X188087000Y-129540000D02*
X192786000Y-124841000D01*
X111698000Y-95343000D02*
X113377000Y-95343000D01*
X113377000Y-95343000D02*
X113411000Y-95377000D01*
X195326000Y-86995000D02*
X195326000Y-89789000D01*
X195326000Y-86995000D02*
X202565000Y-87249000D01*
X202565000Y-87249000D02*
X202819000Y-86995000D01*
X196469000Y-81915000D02*
X195707000Y-86614000D01*
X195707000Y-86614000D02*
X195326000Y-86995000D01*
X175412400Y-95351600D02*
X182648210Y-102587410D01*
X182648210Y-102587410D02*
X183481677Y-102587410D01*
X183481677Y-102587410D02*
X183656287Y-102412800D01*
X183656287Y-102412800D02*
X184226200Y-102412800D01*
X163957000Y-97790000D02*
X166395400Y-95351600D01*
X166395400Y-95351600D02*
X175412400Y-95351600D01*
X184226200Y-102412800D02*
X184226200Y-89117800D01*
X184226200Y-89117800D02*
X184444000Y-88900000D01*
X180086000Y-125222000D02*
X182499000Y-125222000D01*
X182499000Y-125222000D02*
X185674000Y-122047000D01*
X176530000Y-128778000D02*
X180086000Y-125222000D01*
X185674000Y-122047000D02*
X185674000Y-120269000D01*
X137746209Y-77285989D02*
X151707989Y-77285989D01*
X136667999Y-78364199D02*
X137746209Y-77285989D01*
X136667999Y-84472885D02*
X136667999Y-78364199D01*
X124279873Y-96861011D02*
X136667999Y-84472885D01*
X122848989Y-96861011D02*
X124279873Y-96861011D01*
X121158000Y-98552000D02*
X122848989Y-96861011D01*
X117983000Y-119380000D02*
X121158000Y-116205000D01*
X121158000Y-116205000D02*
X121158000Y-98552000D01*
X151707989Y-77285989D02*
X149367999Y-79625979D01*
X149367999Y-79625979D02*
X149367999Y-85867999D01*
X149367999Y-85867999D02*
X149949001Y-86449001D01*
X149949001Y-86449001D02*
X150749000Y-87249000D01*
X157787999Y-80723630D02*
X154350358Y-77285989D01*
X163957000Y-97790000D02*
X157787999Y-91620999D01*
X154350358Y-77285989D02*
X151707989Y-77285989D01*
X157787999Y-91620999D02*
X157787999Y-80723630D01*
X185674000Y-120269000D02*
X185674000Y-120116600D01*
X185674000Y-120421400D02*
X185674000Y-120269000D01*
X191389000Y-81915000D02*
X191389000Y-83577000D01*
X193263520Y-85451520D02*
X193263520Y-95582740D01*
X191389000Y-83577000D02*
X193263520Y-85451520D01*
X193263520Y-95582740D02*
X193263520Y-98094800D01*
X195035800Y-107823000D02*
X195035800Y-99867080D01*
X195035800Y-99867080D02*
X193263520Y-98094800D01*
X178800988Y-106537988D02*
X179816988Y-106537988D01*
X154670001Y-93030643D02*
X154670001Y-78966119D01*
X178800988Y-106537988D02*
X168177346Y-106537988D01*
X150749000Y-81037630D02*
X150749000Y-82169000D01*
X168177346Y-106537988D02*
X154670001Y-93030643D01*
X153951881Y-78247999D02*
X152626119Y-78247999D01*
X154670001Y-78966119D02*
X153951881Y-78247999D01*
X150749000Y-80125118D02*
X150749000Y-81037630D01*
X152626119Y-78247999D02*
X150749000Y-80125118D01*
X179816988Y-106537988D02*
X180975000Y-105791000D01*
X183083200Y-101625400D02*
X183083200Y-91770200D01*
X183083200Y-91770200D02*
X180340000Y-89027000D01*
X188087000Y-115570000D02*
X186817000Y-115570000D01*
X186817000Y-115570000D02*
X184277000Y-113030000D01*
X183134000Y-119320919D02*
X186884919Y-115570000D01*
X183134000Y-120269000D02*
X183134000Y-119320919D01*
X186884919Y-115570000D02*
X188087000Y-115570000D01*
X181139999Y-88227001D02*
X180340000Y-89027000D01*
X191516000Y-86995000D02*
X181864000Y-87503000D01*
X181864000Y-87503000D02*
X181139999Y-88227001D01*
X163449000Y-89027000D02*
X162687000Y-89027000D01*
X162687000Y-89027000D02*
X159766000Y-86106000D01*
X180340000Y-89027000D02*
X163449000Y-89027000D01*
X183134000Y-120269000D02*
X183388000Y-121031000D01*
X190322200Y-102692200D02*
X190322200Y-90982800D01*
X190322200Y-90982800D02*
X191516000Y-89789000D01*
X183007000Y-82059213D02*
X183007000Y-81534000D01*
X183007000Y-81534000D02*
X180340000Y-78867000D01*
X185420000Y-83058000D02*
X184005787Y-83058000D01*
X184005787Y-83058000D02*
X183007000Y-82059213D01*
X181737000Y-131064000D02*
X179324000Y-133477000D01*
X179324000Y-133477000D02*
X166497000Y-133477000D01*
X194691000Y-131064000D02*
X190553999Y-135201001D01*
X190553999Y-135201001D02*
X184796371Y-135201001D01*
X184796371Y-135201001D02*
X181737000Y-132141630D01*
X181737000Y-132141630D02*
X181737000Y-131064000D01*
X166497000Y-133477000D02*
X160543999Y-139430001D01*
X160543999Y-139430001D02*
X145006119Y-139430001D01*
X140589000Y-135012882D02*
X140589000Y-126480370D01*
X145006119Y-139430001D02*
X140589000Y-135012882D01*
X140589000Y-126480370D02*
X140589000Y-125349000D01*
X181737000Y-128016000D02*
X181737000Y-131064000D01*
X194691000Y-128016000D02*
X194691000Y-131064000D01*
D39*
X128078529Y-132760601D02*
X121857471Y-132760601D01*
X129032000Y-131807130D02*
X128078529Y-132760601D01*
X138049000Y-117729000D02*
X129032000Y-126746000D01*
X129032000Y-126746000D02*
X129032000Y-131807130D01*
X121857471Y-132760601D02*
X121239399Y-132142529D01*
X121239399Y-132142529D02*
X121239399Y-130383399D01*
X121239399Y-130383399D02*
X120751599Y-129895599D01*
X120751599Y-129895599D02*
X119888000Y-129032000D01*
X130810000Y-131301952D02*
X130810000Y-128382998D01*
X152489001Y-108368999D02*
X153289000Y-107569000D01*
X130810000Y-128382998D02*
X137798997Y-121394001D01*
X137798997Y-121394001D02*
X139463999Y-121394001D01*
X139463999Y-121394001D02*
X152489001Y-108368999D01*
X117475000Y-133731000D02*
X128380952Y-133731000D01*
X128380952Y-133731000D02*
X130810000Y-131301952D01*
X116159399Y-132415399D02*
X117475000Y-133731000D01*
X117348000Y-129032000D02*
X116159399Y-130220601D01*
X116159399Y-130220601D02*
X116159399Y-132415399D01*
X129921000Y-128397000D02*
X137249001Y-121068999D01*
X129921000Y-131554541D02*
X129921000Y-128397000D01*
X128194552Y-133280989D02*
X129921000Y-131554541D01*
X117348000Y-131572000D02*
X119056989Y-133280989D01*
X137249001Y-121068999D02*
X138049000Y-120269000D01*
X119056989Y-133280989D02*
X128194552Y-133280989D01*
M02*
