G04 #@! TF.FileFunction,Soldermask,Top*
%FSLAX46Y46*%
G04 Gerber Fmt 4.6, Leading zero omitted, Abs format (unit mm)*
G04 Created by KiCad (PCBNEW 4.0.6) date Wednesday, July 12, 2017 'PMt' 01:02:18 PM*
%MOMM*%
%LPD*%
G01*
G04 APERTURE LIST*
%ADD10C,0.100000*%
%ADD11C,4.826000*%
%ADD12C,1.778000*%
%ADD13R,1.778000X1.778000*%
%ADD14R,1.600000X1.600000*%
%ADD15C,1.600000*%
%ADD16R,1.727200X1.727200*%
%ADD17O,1.727200X1.727200*%
%ADD18R,2.032000X2.032000*%
%ADD19O,2.032000X2.032000*%
%ADD20R,3.500120X3.500120*%
%ADD21C,1.524000*%
%ADD22C,3.556000*%
%ADD23C,4.064000*%
%ADD24R,3.500000X1.000000*%
%ADD25R,3.400000X1.600000*%
G04 APERTURE END LIST*
D10*
D11*
X168275000Y-103505000D03*
X168275000Y-136525000D03*
X186055000Y-136525000D03*
D12*
X186055000Y-121285000D03*
X186055000Y-123825000D03*
X186055000Y-126365000D03*
X186055000Y-128905000D03*
D13*
X186055000Y-131445000D03*
D12*
X186055000Y-118745000D03*
X186055000Y-116205000D03*
X186055000Y-113665000D03*
X186055000Y-111125000D03*
X186055000Y-108585000D03*
D11*
X186055000Y-103505000D03*
D14*
X192405000Y-97790000D03*
D15*
X192405000Y-100290000D03*
D16*
X136525000Y-129540000D03*
D17*
X136525000Y-132080000D03*
X133985000Y-129540000D03*
X133985000Y-132080000D03*
X131445000Y-129540000D03*
X131445000Y-132080000D03*
D18*
X192405000Y-80645000D03*
D19*
X194945000Y-80645000D03*
D20*
X191284860Y-90805000D03*
X197284340Y-90805000D03*
X194284600Y-86106000D03*
D18*
X200025000Y-109855000D03*
D19*
X200025000Y-112395000D03*
D18*
X195580000Y-112395000D03*
D19*
X195580000Y-109855000D03*
D21*
X178054000Y-81534000D03*
X175514000Y-81534000D03*
X170434000Y-98298000D03*
X172974000Y-98298000D03*
X175514000Y-98298000D03*
X178054000Y-98298000D03*
X180594000Y-98298000D03*
X183134000Y-98298000D03*
D22*
X169164000Y-80010000D03*
X184404000Y-80010000D03*
D21*
X132334000Y-82169000D03*
X129794000Y-82169000D03*
X124714000Y-98933000D03*
X127254000Y-98933000D03*
X129794000Y-98933000D03*
X132334000Y-98933000D03*
X134874000Y-98933000D03*
X137414000Y-98933000D03*
D22*
X123444000Y-80645000D03*
X138684000Y-80645000D03*
D15*
X146685000Y-120015000D03*
X146685000Y-122555000D03*
X146685000Y-125095000D03*
X146685000Y-127635000D03*
X146685000Y-117475000D03*
X146685000Y-114935000D03*
X146685000Y-112395000D03*
X146685000Y-130175000D03*
X146685000Y-132715000D03*
X146685000Y-135255000D03*
X146685000Y-137795000D03*
X149225000Y-125095000D03*
X151765000Y-125095000D03*
X154305000Y-125095000D03*
X156845000Y-125095000D03*
X159385000Y-125095000D03*
X161925000Y-137795000D03*
X161925000Y-135255000D03*
X161925000Y-132715000D03*
X161925000Y-130175000D03*
X161925000Y-127635000D03*
X161925000Y-125095000D03*
X161925000Y-122555000D03*
X161925000Y-120015000D03*
X146685000Y-109855000D03*
X146685000Y-107315000D03*
X146685000Y-104775000D03*
X146685000Y-102235000D03*
X146685000Y-99695000D03*
X146685000Y-97155000D03*
X146685000Y-94615000D03*
X146685000Y-92075000D03*
X146685000Y-89535000D03*
X146685000Y-86995000D03*
X146685000Y-84455000D03*
X146685000Y-81915000D03*
D14*
X146685000Y-79375000D03*
D15*
X161925000Y-117475000D03*
X161925000Y-114935000D03*
X161925000Y-112395000D03*
X161925000Y-109855000D03*
X161925000Y-107315000D03*
X161925000Y-104775000D03*
X161925000Y-102235000D03*
X161925000Y-99695000D03*
X161925000Y-97155000D03*
X161925000Y-94615000D03*
X161925000Y-92075000D03*
X161925000Y-89535000D03*
X161925000Y-86995000D03*
X161925000Y-84455000D03*
X161925000Y-81915000D03*
X161925000Y-79375000D03*
X159385000Y-81915000D03*
X159385000Y-86995000D03*
X159385000Y-89535000D03*
X159385000Y-92075000D03*
X154305000Y-94615000D03*
X154305000Y-97155000D03*
X154305000Y-99695000D03*
X154305000Y-102235000D03*
X154305000Y-117475000D03*
X154305000Y-120015000D03*
X154305000Y-122555000D03*
X154305000Y-127635000D03*
X154305000Y-130175000D03*
X154305000Y-132715000D03*
X154305000Y-135255000D03*
X154305000Y-137795000D03*
X156845000Y-137795000D03*
X156845000Y-135255000D03*
X156845000Y-132715000D03*
X156845000Y-130175000D03*
X156845000Y-127635000D03*
X156845000Y-122555000D03*
X156845000Y-120015000D03*
X156845000Y-117475000D03*
X156845000Y-102235000D03*
X156845000Y-99695000D03*
X156845000Y-97155000D03*
X156845000Y-94615000D03*
X149685000Y-85725000D03*
X149685000Y-88265000D03*
X149685000Y-90805000D03*
X149685000Y-93345000D03*
X149685000Y-95885000D03*
D22*
X138430000Y-106045000D03*
X124460000Y-106045000D03*
D12*
X131445000Y-120015000D03*
X133985000Y-120015000D03*
X136525000Y-120015000D03*
X139065000Y-120015000D03*
X128905000Y-120015000D03*
X126365000Y-120015000D03*
X123825000Y-120015000D03*
D23*
X115570000Y-81915000D03*
X115570000Y-135255000D03*
X201930000Y-135255000D03*
X201930000Y-81915000D03*
D24*
X196615000Y-124190000D03*
X196615000Y-122190000D03*
D25*
X202165000Y-126590000D03*
X202165000Y-119790000D03*
M02*
