M48
;DRILL file {KiCad 4.0.6} date Thursday, August 03, 2017 'PMt' 08:38:59 PM
;FORMAT={-:-/ absolute / inch / decimal}
FMAT,2
INCH,TZ
T1C0.015
T2C0.028
T3C0.030
T4C0.031
T5C0.039
T6C0.039
T7C0.040
T8C0.043
T9C0.050
T10C0.120
%
G90
G05
M72
T1
X4.465Y-3.755
X5.167Y-4.483
X5.2396Y-4.4407
X5.31Y-3.345
X5.405Y-4.485
X5.6Y-3.975
X5.63Y-4.01
X5.775Y-3.88
X5.925Y-3.87
X6.29Y-3.39
X6.387Y-3.91
X6.439Y-3.968
X7.1943Y-4.9743
X7.2068Y-3.9941
X7.253Y-4.032
X7.493Y-4.043
X7.59Y-4.915
T2
X7.2616Y-3.5
X7.36Y-3.5
X7.6786Y-4.245
X7.777Y-4.245
X7.867Y-3.4386
X7.867Y-3.537
T3
X4.67Y-3.88
X4.77Y-3.88
X4.87Y-3.22
X4.87Y-3.88
X4.97Y-3.22
X4.97Y-3.88
X5.07Y-3.88
X5.17Y-3.88
X6.355Y-3.855
X6.455Y-3.855
X6.555Y-3.195
X6.555Y-3.855
X6.655Y-3.195
X6.655Y-3.855
X6.755Y-3.855
X6.855Y-3.855
X7.425Y-3.813
T4
X7.1Y-3.105
X7.1Y-3.505
X7.252Y-4.249
X7.352Y-4.249
X7.452Y-4.249
T5
X7.255Y-4.45
X7.255Y-4.55
X7.405Y-4.45
X7.405Y-4.55
X7.535Y-3.225
X7.635Y-3.225
X7.735Y-3.225
X7.775Y-4.545
X7.775Y-4.645
X7.93Y-4.44
X7.93Y-4.54
X7.93Y-4.64
T6
X7.125Y-4.315
X7.3Y-3.17
X7.3Y-3.27
X7.54Y-3.425
X7.54Y-3.535
T7
X4.545Y-4.7
X4.62Y-5.08
X4.62Y-5.18
X4.645Y-4.7
X4.72Y-5.08
X4.72Y-5.18
X4.745Y-4.7
X4.82Y-5.08
X4.82Y-5.18
X4.845Y-4.7
X4.92Y-5.08
X4.92Y-5.18
X4.945Y-4.7
X5.02Y-5.08
X5.02Y-5.18
X5.045Y-4.7
X5.145Y-4.7
X6.95Y-4.27
X6.95Y-4.37
X6.95Y-4.47
X6.95Y-4.57
X6.95Y-4.67
X6.95Y-4.77
X6.95Y-4.87
X6.95Y-4.97
X6.95Y-5.07
X6.95Y-5.17
X7.125Y-3.813
X7.155Y-5.04
X7.155Y-5.16
X7.21Y-4.735
X7.31Y-4.735
X7.41Y-4.735
X7.6088Y-3.862
X7.665Y-5.04
X7.665Y-5.16
X7.7269Y-3.677
X7.845Y-3.862
X8.044Y-3.448
X8.044Y-3.548
T8
X5.435Y-3.135
X5.435Y-3.235
X5.435Y-3.335
X5.435Y-3.435
X5.435Y-3.535
X5.435Y-3.635
X5.435Y-3.735
X5.435Y-3.835
X5.435Y-3.935
X5.435Y-4.035
X5.435Y-4.135
X5.435Y-4.235
X5.435Y-4.335
X5.435Y-4.435
X5.435Y-4.535
X5.435Y-4.635
X5.435Y-4.735
X5.435Y-4.835
X5.435Y-4.935
X5.435Y-5.035
X5.435Y-5.135
X5.435Y-5.235
X5.435Y-5.335
X5.435Y-5.435
X5.535Y-4.935
X5.5531Y-3.385
X5.5531Y-3.485
X5.5531Y-3.585
X5.5531Y-3.685
X5.5531Y-3.785
X5.635Y-4.935
X5.735Y-3.735
X5.735Y-3.835
X5.735Y-3.935
X5.735Y-4.035
X5.735Y-4.635
X5.735Y-4.735
X5.735Y-4.835
X5.735Y-4.935
X5.735Y-5.035
X5.735Y-5.135
X5.735Y-5.235
X5.735Y-5.335
X5.735Y-5.435
X5.835Y-3.735
X5.835Y-3.835
X5.835Y-3.935
X5.835Y-4.035
X5.835Y-4.635
X5.835Y-4.735
X5.835Y-4.835
X5.835Y-4.935
X5.835Y-5.035
X5.835Y-5.135
X5.835Y-5.235
X5.835Y-5.335
X5.835Y-5.435
X5.935Y-3.235
X5.935Y-3.435
X5.935Y-3.535
X5.935Y-3.635
X5.935Y-4.935
X6.035Y-3.135
X6.035Y-3.235
X6.035Y-3.335
X6.035Y-3.435
X6.035Y-3.535
X6.035Y-3.635
X6.035Y-3.735
X6.035Y-3.835
X6.035Y-3.935
X6.035Y-4.035
X6.035Y-4.135
X6.035Y-4.235
X6.035Y-4.335
X6.035Y-4.435
X6.035Y-4.535
X6.035Y-4.635
X6.035Y-4.735
X6.035Y-4.835
X6.035Y-4.935
X6.035Y-5.035
X6.035Y-5.135
X6.035Y-5.235
X6.035Y-5.335
X6.035Y-5.435
T9
X7.125Y-4.165
X7.69Y-3.425
X7.69Y-3.535
T10
X4.3Y-3.175
X4.3Y-5.375
X4.57Y-4.15
X4.62Y-3.16
X5.12Y-4.15
X5.22Y-3.16
X6.25Y-4.07
X6.25Y-5.37
X6.305Y-3.135
X6.905Y-3.135
X6.95Y-4.07
X6.95Y-5.37
X8.Y-3.175
X8.Y-5.375
T0
M30
