M48
;DRILL file {KiCad 4.0.6} date Wednesday, July 12, 2017 'PMt' 01:01:48 PM
;FORMAT={-:-/ absolute / inch / decimal}
FMAT,2
INCH,TZ
T1C0.016
T2C0.030
T3C0.031
T4C0.039
T5C0.040
T6C0.043
T7C0.120
T8C0.130
%
G90
G05
M72
T1
X5.71Y-3.875
X6.1Y-4.11
X6.135Y-4.255
X6.16Y-4.22
X6.195Y-4.205
X6.275Y-4.475
X6.425Y-3.75
X6.625Y-3.75
X6.675Y-4.35
X7.45Y-4.2
X7.6Y-4.825
T2
X4.91Y-3.895
X5.01Y-3.895
X5.11Y-3.235
X5.11Y-3.895
X5.21Y-3.235
X5.21Y-3.895
X5.31Y-3.895
X5.41Y-3.895
X6.71Y-3.87
X6.81Y-3.87
X6.91Y-3.21
X6.91Y-3.87
X7.01Y-3.21
X7.01Y-3.87
X7.11Y-3.87
X7.21Y-3.87
T3
X7.575Y-3.85
X7.575Y-3.9484
T5
X4.875Y-4.725
X4.975Y-4.725
X5.075Y-4.725
X5.175Y-4.725
X5.175Y-5.1
X5.175Y-5.2
X5.275Y-4.725
X5.275Y-5.1
X5.275Y-5.2
X5.375Y-4.725
X5.375Y-5.1
X5.375Y-5.2
X5.475Y-4.725
X7.325Y-4.275
X7.325Y-4.375
X7.325Y-4.475
X7.325Y-4.575
X7.325Y-4.675
X7.325Y-4.775
X7.325Y-4.875
X7.325Y-4.975
X7.325Y-5.075
X7.325Y-5.175
X7.575Y-3.175
X7.675Y-3.175
X7.7Y-4.325
X7.7Y-4.425
X7.875Y-4.325
X7.875Y-4.425
T6
X5.775Y-3.125
X5.775Y-3.225
X5.775Y-3.325
X5.775Y-3.425
X5.775Y-3.525
X5.775Y-3.625
X5.775Y-3.725
X5.775Y-3.825
X5.775Y-3.925
X5.775Y-4.025
X5.775Y-4.125
X5.775Y-4.225
X5.775Y-4.325
X5.775Y-4.425
X5.775Y-4.525
X5.775Y-4.625
X5.775Y-4.725
X5.775Y-4.825
X5.775Y-4.925
X5.775Y-5.025
X5.775Y-5.125
X5.775Y-5.225
X5.775Y-5.325
X5.775Y-5.425
X5.875Y-4.925
X5.8931Y-3.375
X5.8931Y-3.475
X5.8931Y-3.575
X5.8931Y-3.675
X5.8931Y-3.775
X5.975Y-4.925
X6.075Y-3.725
X6.075Y-3.825
X6.075Y-3.925
X6.075Y-4.025
X6.075Y-4.625
X6.075Y-4.725
X6.075Y-4.825
X6.075Y-4.925
X6.075Y-5.025
X6.075Y-5.125
X6.075Y-5.225
X6.075Y-5.325
X6.075Y-5.425
X6.175Y-3.725
X6.175Y-3.825
X6.175Y-3.925
X6.175Y-4.025
X6.175Y-4.625
X6.175Y-4.725
X6.175Y-4.825
X6.175Y-4.925
X6.175Y-5.025
X6.175Y-5.125
X6.175Y-5.225
X6.175Y-5.325
X6.175Y-5.425
X6.275Y-3.225
X6.275Y-3.425
X6.275Y-3.525
X6.275Y-3.625
X6.275Y-4.925
X6.375Y-3.125
X6.375Y-3.225
X6.375Y-3.325
X6.375Y-3.425
X6.375Y-3.525
X6.375Y-3.625
X6.375Y-3.725
X6.375Y-3.825
X6.375Y-3.925
X6.375Y-4.025
X6.375Y-4.125
X6.375Y-4.225
X6.375Y-4.325
X6.375Y-4.425
X6.375Y-4.525
X6.375Y-4.625
X6.375Y-4.725
X6.375Y-4.825
X6.375Y-4.925
X6.375Y-5.025
X6.375Y-5.125
X6.375Y-5.225
X6.375Y-5.325
X6.375Y-5.425
T7
X4.55Y-3.225
X4.55Y-5.325
X4.86Y-3.175
X4.9Y-4.175
X5.45Y-4.175
X5.46Y-3.175
X6.66Y-3.15
X7.26Y-3.15
X7.95Y-3.225
X7.95Y-5.325
T8
X6.625Y-4.075
X6.625Y-5.375
X7.325Y-4.075
X7.325Y-5.375
T4
X7.5309Y-3.6143G85X7.5309Y-3.5356
G05
X7.6883Y-3.39G85X7.6097Y-3.39
G05
X7.7671Y-3.6143G85X7.7671Y-3.5356
G05
T0
M30
