G04 #@! TF.FileFunction,Soldermask,Bot*
%FSLAX46Y46*%
G04 Gerber Fmt 4.6, Leading zero omitted, Abs format (unit mm)*
G04 Created by KiCad (PCBNEW 4.0.6) date Monday, July 31, 2017 'PMt' 05:32:16 PM*
%MOMM*%
%LPD*%
G01*
G04 APERTURE LIST*
%ADD10C,0.100000*%
%ADD11C,1.600000*%
%ADD12R,1.600000X1.600000*%
%ADD13C,1.524000*%
%ADD14C,3.556000*%
%ADD15R,3.500120X3.500120*%
%ADD16C,4.064000*%
%ADD17C,1.778000*%
%ADD18R,1.778000X1.778000*%
%ADD19R,2.000000X2.000000*%
%ADD20C,2.000000*%
%ADD21R,1.727200X1.727200*%
%ADD22O,1.727200X1.727200*%
%ADD23R,1.727200X2.032000*%
%ADD24O,1.727200X2.032000*%
%ADD25O,1.600000X1.600000*%
%ADD26R,1.800000X1.800000*%
%ADD27O,1.800000X1.800000*%
%ADD28C,5.588000*%
%ADD29C,1.998980*%
%ADD30R,1.998980X1.998980*%
%ADD31R,1.700000X1.700000*%
%ADD32O,1.700000X1.700000*%
%ADD33C,1.400000*%
G04 APERTURE END LIST*
D10*
D11*
X138049000Y-120269000D03*
X138049000Y-122809000D03*
X138049000Y-125349000D03*
X138049000Y-127889000D03*
X138049000Y-117729000D03*
X138049000Y-115189000D03*
X138049000Y-112649000D03*
X138049000Y-130429000D03*
X138049000Y-132969000D03*
X138049000Y-135509000D03*
X138049000Y-138049000D03*
X140589000Y-125349000D03*
X143129000Y-125349000D03*
X145669000Y-125349000D03*
X148209000Y-125349000D03*
X150749000Y-125349000D03*
X153289000Y-138049000D03*
X153289000Y-135509000D03*
X153289000Y-132969000D03*
X153289000Y-130429000D03*
X153289000Y-127889000D03*
X153289000Y-125349000D03*
X153289000Y-122809000D03*
X153289000Y-120269000D03*
X138049000Y-110109000D03*
X138049000Y-107569000D03*
X138049000Y-105029000D03*
X138049000Y-102489000D03*
X138049000Y-99949000D03*
X138049000Y-97409000D03*
X138049000Y-94869000D03*
X138049000Y-92329000D03*
X138049000Y-89789000D03*
X138049000Y-87249000D03*
X138049000Y-84709000D03*
X138049000Y-82169000D03*
D12*
X138049000Y-79629000D03*
D11*
X153289000Y-117729000D03*
X153289000Y-115189000D03*
X153289000Y-112649000D03*
X153289000Y-110109000D03*
X153289000Y-107569000D03*
X153289000Y-105029000D03*
X153289000Y-102489000D03*
X153289000Y-99949000D03*
X153289000Y-97409000D03*
X153289000Y-94869000D03*
X153289000Y-92329000D03*
X153289000Y-89789000D03*
X153289000Y-87249000D03*
X153289000Y-84709000D03*
X153289000Y-82169000D03*
X153289000Y-79629000D03*
X150749000Y-82169000D03*
X150749000Y-87249000D03*
X150749000Y-89789000D03*
X150749000Y-92329000D03*
X145669000Y-94869000D03*
X145669000Y-97409000D03*
X145669000Y-99949000D03*
X145669000Y-102489000D03*
X145669000Y-117729000D03*
X145669000Y-120269000D03*
X145669000Y-122809000D03*
X145669000Y-127889000D03*
X145669000Y-130429000D03*
X145669000Y-132969000D03*
X145669000Y-135509000D03*
X145669000Y-138049000D03*
X148209000Y-138049000D03*
X148209000Y-135509000D03*
X148209000Y-132969000D03*
X148209000Y-130429000D03*
X148209000Y-127889000D03*
X148209000Y-122809000D03*
X148209000Y-120269000D03*
X148209000Y-117729000D03*
X148209000Y-102489000D03*
X148209000Y-99949000D03*
X148209000Y-97409000D03*
X148209000Y-94869000D03*
X141049000Y-85979000D03*
X141049000Y-88519000D03*
X141049000Y-91059000D03*
X141049000Y-93599000D03*
X141049000Y-96139000D03*
D13*
X169037000Y-81153000D03*
X166497000Y-81153000D03*
X161417000Y-97917000D03*
X163957000Y-97917000D03*
X166497000Y-97917000D03*
X169037000Y-97917000D03*
X171577000Y-97917000D03*
X174117000Y-97917000D03*
D14*
X160147000Y-79629000D03*
X175387000Y-79629000D03*
D13*
X194691000Y-131064000D03*
X181737000Y-131064000D03*
X181737000Y-128016000D03*
X194691000Y-128016000D03*
D15*
X193263520Y-98094800D03*
X199263000Y-98094800D03*
X196263260Y-93395800D03*
D16*
X158750000Y-103378000D03*
X158750000Y-136398000D03*
X176530000Y-136398000D03*
D17*
X176530000Y-121158000D03*
X176530000Y-123698000D03*
X176530000Y-126238000D03*
X176530000Y-128778000D03*
D18*
X176530000Y-131318000D03*
D17*
X176530000Y-118618000D03*
X176530000Y-116078000D03*
X176530000Y-113538000D03*
X176530000Y-110998000D03*
X176530000Y-108458000D03*
D16*
X176530000Y-103378000D03*
D13*
X126238000Y-81788000D03*
X123698000Y-81788000D03*
X118618000Y-98552000D03*
X121158000Y-98552000D03*
X123698000Y-98552000D03*
X126238000Y-98552000D03*
X128778000Y-98552000D03*
X131318000Y-98552000D03*
D14*
X117348000Y-80264000D03*
X132588000Y-80264000D03*
X130048000Y-105410000D03*
X116078000Y-105410000D03*
D17*
X123063000Y-119380000D03*
X125603000Y-119380000D03*
X128143000Y-119380000D03*
X130683000Y-119380000D03*
X120523000Y-119380000D03*
X117983000Y-119380000D03*
X115443000Y-119380000D03*
D19*
X185420000Y-80518000D03*
D20*
X185420000Y-83058000D03*
D21*
X127508000Y-129032000D03*
D22*
X127508000Y-131572000D03*
X124968000Y-129032000D03*
X124968000Y-131572000D03*
X122428000Y-129032000D03*
X122428000Y-131572000D03*
X119888000Y-129032000D03*
X119888000Y-131572000D03*
X117348000Y-129032000D03*
X117348000Y-131572000D03*
D23*
X183134000Y-120269000D03*
D24*
X185674000Y-120269000D03*
X188214000Y-120269000D03*
D11*
X180340000Y-78867000D03*
D25*
X180340000Y-89027000D03*
D13*
X186740800Y-107924600D03*
X189280800Y-107924600D03*
X184200800Y-107924600D03*
D26*
X191389000Y-81915000D03*
D27*
X193929000Y-81915000D03*
X196469000Y-81915000D03*
D28*
X109220000Y-80645000D03*
X109220000Y-136525000D03*
X203200000Y-136525000D03*
X203200000Y-80645000D03*
D29*
X180975000Y-105791000D03*
D30*
X180975000Y-109601000D03*
D29*
X195326000Y-86995000D03*
D30*
X191516000Y-86995000D03*
D29*
X195326000Y-89789000D03*
D30*
X191516000Y-89789000D03*
D31*
X184277000Y-113030000D03*
D32*
X184277000Y-115570000D03*
D31*
X188087000Y-113030000D03*
D32*
X188087000Y-115570000D03*
D31*
X201422000Y-112776000D03*
D32*
X201422000Y-115316000D03*
X201422000Y-117856000D03*
D31*
X197485000Y-117983000D03*
D32*
X197485000Y-115443000D03*
D33*
X202819000Y-86995000D03*
X202819000Y-89495000D03*
X186944000Y-88900000D03*
X184444000Y-88900000D03*
X195035800Y-107823000D03*
X197535800Y-107823000D03*
D18*
X180975000Y-96850200D03*
D13*
X188595000Y-96850200D03*
M02*
