G04 #@! TF.FileFunction,Legend,Bot*
%FSLAX46Y46*%
G04 Gerber Fmt 4.6, Leading zero omitted, Abs format (unit mm)*
G04 Created by KiCad (PCBNEW 4.0.6) date Wednesday, July 12, 2017 'PMt' 01:02:18 PM*
%MOMM*%
%LPD*%
G01*
G04 APERTURE LIST*
%ADD10C,0.100000*%
%ADD11C,0.010000*%
G04 APERTURE END LIST*
D10*
D11*
G36*
X148304659Y-98842479D02*
X148259413Y-98748183D01*
X148196637Y-98604748D01*
X148126134Y-98434558D01*
X147627398Y-97313917D01*
X147053364Y-96228495D01*
X146407409Y-95182225D01*
X145692907Y-94179039D01*
X144913236Y-93222867D01*
X144071771Y-92317644D01*
X143171888Y-91467301D01*
X142216963Y-90675769D01*
X141210371Y-89946982D01*
X140389497Y-89423387D01*
X139299674Y-88816327D01*
X138176282Y-88286786D01*
X137018928Y-87834627D01*
X135827221Y-87459716D01*
X134600766Y-87161917D01*
X133339172Y-86941094D01*
X133096000Y-86907899D01*
X132725173Y-86868098D01*
X132290083Y-86835646D01*
X131810852Y-86811004D01*
X131307605Y-86794631D01*
X130800464Y-86786990D01*
X130309552Y-86788540D01*
X129854992Y-86799744D01*
X129456908Y-86821061D01*
X129421435Y-86823731D01*
X128165733Y-86962739D01*
X126933673Y-87182119D01*
X125728238Y-87480134D01*
X124552412Y-87855050D01*
X123409176Y-88305130D01*
X122301514Y-88828639D01*
X121232409Y-89423842D01*
X120204843Y-90089002D01*
X119221800Y-90822384D01*
X118286261Y-91622252D01*
X117401210Y-92486871D01*
X116569631Y-93414504D01*
X115794504Y-94403416D01*
X115377917Y-94995579D01*
X115062757Y-95461925D01*
X115209437Y-95654086D01*
X115366145Y-95922700D01*
X115455365Y-96218512D01*
X115476446Y-96524140D01*
X115428735Y-96822197D01*
X115311577Y-97095301D01*
X115266181Y-97165013D01*
X115184046Y-97280860D01*
X115415435Y-97506767D01*
X115721814Y-97862455D01*
X115963509Y-98263879D01*
X116105147Y-98612180D01*
X116159280Y-98795816D01*
X116192978Y-98962087D01*
X116210668Y-99142964D01*
X116216778Y-99370420D01*
X116216992Y-99419833D01*
X116214154Y-99650249D01*
X116201661Y-99826738D01*
X116175164Y-99979872D01*
X116130311Y-100140226D01*
X116102545Y-100224166D01*
X115919319Y-100656716D01*
X115676261Y-101043760D01*
X115589026Y-101155500D01*
X115450705Y-101324833D01*
X115474092Y-101790500D01*
X115486454Y-102000837D01*
X115501302Y-102145862D01*
X115522863Y-102244910D01*
X115555364Y-102317318D01*
X115603032Y-102382420D01*
X115603655Y-102383166D01*
X115742040Y-102607503D01*
X115815761Y-102859869D01*
X115821877Y-103118381D01*
X115757449Y-103361156D01*
X115739974Y-103397911D01*
X115691302Y-103499894D01*
X115666987Y-103564017D01*
X115666659Y-103573436D01*
X115706568Y-103595578D01*
X115806144Y-103647101D01*
X115949227Y-103719720D01*
X116078769Y-103784743D01*
X116272951Y-103887305D01*
X116432474Y-103987702D01*
X116582245Y-104104551D01*
X116747170Y-104256471D01*
X116861167Y-104369586D01*
X117177413Y-104729656D01*
X117427081Y-105102125D01*
X117602945Y-105475642D01*
X117644536Y-105600500D01*
X117681649Y-105697914D01*
X117737603Y-105769176D01*
X117833790Y-105834781D01*
X117953811Y-105896833D01*
X118207132Y-106065386D01*
X118405105Y-106288578D01*
X118539965Y-106552238D01*
X118603950Y-106842193D01*
X118599835Y-107076091D01*
X118573041Y-107293833D01*
X118796604Y-107410524D01*
X119091588Y-107589146D01*
X119395913Y-107816220D01*
X119677442Y-108066388D01*
X119830158Y-108226155D01*
X119948932Y-108357054D01*
X120029958Y-108433226D01*
X120089196Y-108465393D01*
X120142606Y-108464281D01*
X120170857Y-108455076D01*
X120375738Y-108414430D01*
X120605187Y-108426795D01*
X120820854Y-108488530D01*
X120889769Y-108523326D01*
X121025625Y-108630904D01*
X121142287Y-108772425D01*
X121220568Y-108920545D01*
X121242667Y-109026220D01*
X121256784Y-109060230D01*
X121310688Y-109074733D01*
X121421709Y-109072240D01*
X121509716Y-109064876D01*
X121837805Y-109072746D01*
X122142708Y-109154863D01*
X122412849Y-109304910D01*
X122636654Y-109516568D01*
X122794426Y-109766037D01*
X122860285Y-109895245D01*
X122916079Y-109987447D01*
X122949017Y-110022208D01*
X122996913Y-110012588D01*
X123116801Y-109984314D01*
X123298688Y-109939865D01*
X123532578Y-109881718D01*
X123808477Y-109812350D01*
X124116391Y-109734238D01*
X124306639Y-109685666D01*
X124636081Y-109602682D01*
X124946190Y-109527064D01*
X125225618Y-109461389D01*
X125463021Y-109408231D01*
X125647052Y-109370166D01*
X125766364Y-109349769D01*
X125798728Y-109347000D01*
X125981298Y-109377329D01*
X126182966Y-109457123D01*
X126370120Y-109569588D01*
X126509145Y-109697932D01*
X126514232Y-109704467D01*
X126601006Y-109841027D01*
X126673662Y-109991921D01*
X126679399Y-110007007D01*
X126740034Y-110172500D01*
X126746000Y-109597430D01*
X126929636Y-109705048D01*
X127040468Y-109766986D01*
X127119971Y-109805888D01*
X127141303Y-109812666D01*
X127153348Y-109773402D01*
X127162800Y-109667866D01*
X127168378Y-109514444D01*
X127169333Y-109410500D01*
X127169333Y-109008333D01*
X127530520Y-109008333D01*
X127836574Y-108394500D01*
X128142628Y-107780666D01*
X128723125Y-107780666D01*
X129396146Y-108414314D01*
X130069167Y-109047961D01*
X135086777Y-109049314D01*
X135903216Y-109049914D01*
X136661721Y-109051246D01*
X137359675Y-109053288D01*
X137994456Y-109056017D01*
X138563445Y-109059413D01*
X139064023Y-109063452D01*
X139493568Y-109068114D01*
X139849463Y-109073377D01*
X140129086Y-109079218D01*
X140329817Y-109085617D01*
X140449038Y-109092551D01*
X140463111Y-109094029D01*
X141133554Y-109203474D01*
X141790288Y-109365613D01*
X142409335Y-109573869D01*
X142772883Y-109727492D01*
X142929033Y-109804690D01*
X143107007Y-109900740D01*
X143291804Y-110006509D01*
X143468421Y-110112860D01*
X143621858Y-110210658D01*
X143737113Y-110290767D01*
X143799184Y-110344053D01*
X143805787Y-110356492D01*
X143770199Y-110397532D01*
X143674020Y-110468849D01*
X143531767Y-110561641D01*
X143357956Y-110667105D01*
X143167102Y-110776435D01*
X142973723Y-110880829D01*
X142792334Y-110971483D01*
X142789590Y-110972783D01*
X142103361Y-111251556D01*
X141367550Y-111462167D01*
X140583173Y-111604342D01*
X140368419Y-111630390D01*
X140251860Y-111638185D01*
X140052140Y-111645274D01*
X139770761Y-111651647D01*
X139409227Y-111657290D01*
X138969041Y-111662191D01*
X138451704Y-111666337D01*
X137858720Y-111669715D01*
X137191592Y-111672313D01*
X136451823Y-111674119D01*
X135640914Y-111675119D01*
X135012983Y-111675333D01*
X130068629Y-111675333D01*
X129405789Y-112310333D01*
X128742948Y-112945333D01*
X128143530Y-112945333D01*
X127507470Y-111675333D01*
X127169333Y-111675333D01*
X127169333Y-110867430D01*
X126985698Y-110975048D01*
X126874866Y-111036986D01*
X126795363Y-111075888D01*
X126774031Y-111082666D01*
X126758876Y-111044112D01*
X126747103Y-110943563D01*
X126741678Y-110818083D01*
X126738542Y-110677259D01*
X126732625Y-110612735D01*
X126720264Y-110616149D01*
X126697794Y-110679138D01*
X126690655Y-110701666D01*
X126594471Y-110886736D01*
X126436701Y-111063202D01*
X126239626Y-111214657D01*
X126025525Y-111324691D01*
X125816678Y-111376897D01*
X125770959Y-111379000D01*
X125707217Y-111368753D01*
X125572167Y-111339702D01*
X125376436Y-111294384D01*
X125130649Y-111235333D01*
X124845433Y-111165085D01*
X124531414Y-111086175D01*
X124351572Y-111040333D01*
X124028504Y-110958014D01*
X123730453Y-110882919D01*
X123467648Y-110817558D01*
X123250321Y-110764443D01*
X123088702Y-110726086D01*
X122993022Y-110704997D01*
X122971954Y-110701666D01*
X122923188Y-110737159D01*
X122860552Y-110828147D01*
X122821433Y-110904180D01*
X122656871Y-111165824D01*
X122427555Y-111387716D01*
X122174000Y-111542509D01*
X122032281Y-111601499D01*
X121899231Y-111634430D01*
X121740433Y-111647610D01*
X121596021Y-111648469D01*
X121250876Y-111644870D01*
X121224757Y-111775466D01*
X121144772Y-111977628D01*
X120998128Y-112162822D01*
X120802710Y-112309523D01*
X120763902Y-112330098D01*
X120633407Y-112389474D01*
X120526073Y-112428416D01*
X120481372Y-112437333D01*
X120427066Y-112472158D01*
X120349232Y-112564880D01*
X120262605Y-112697867D01*
X120260244Y-112701916D01*
X120162843Y-112859852D01*
X120060966Y-113009991D01*
X119984486Y-113110132D01*
X119862517Y-113253765D01*
X120006598Y-113612603D01*
X120186960Y-114171633D01*
X120287468Y-114744391D01*
X120308734Y-115321820D01*
X120251371Y-115894862D01*
X120115992Y-116454459D01*
X119903209Y-116991554D01*
X119759642Y-117263333D01*
X119600609Y-117538500D01*
X119623119Y-118010942D01*
X119645629Y-118483385D01*
X119805015Y-118555258D01*
X120026783Y-118698978D01*
X120216364Y-118907798D01*
X120361825Y-119164610D01*
X120451231Y-119452307D01*
X120458216Y-119491710D01*
X120486244Y-119608413D01*
X120532895Y-119666695D01*
X120600009Y-119689662D01*
X120751081Y-119750228D01*
X120913922Y-119862143D01*
X121060001Y-120002296D01*
X121157642Y-120141297D01*
X121253685Y-120408702D01*
X121267525Y-120670109D01*
X121222586Y-120861666D01*
X121176439Y-120988675D01*
X121141147Y-121088936D01*
X121132243Y-121115666D01*
X121149891Y-121159063D01*
X121227362Y-121226000D01*
X121370096Y-121320413D01*
X121583535Y-121446234D01*
X121611299Y-121462010D01*
X122732303Y-122049192D01*
X123881144Y-122556922D01*
X125054922Y-122984642D01*
X126250740Y-123331790D01*
X127465698Y-123597809D01*
X128696900Y-123782137D01*
X129941447Y-123884215D01*
X131196441Y-123903485D01*
X132458984Y-123839384D01*
X133396197Y-123737978D01*
X134583972Y-123538583D01*
X135765301Y-123257830D01*
X136931896Y-122898961D01*
X138075468Y-122465219D01*
X139187728Y-121959847D01*
X140260389Y-121386087D01*
X141285162Y-120747182D01*
X141606805Y-120525852D01*
X141766275Y-120415266D01*
X141894420Y-120329924D01*
X141979264Y-120277536D01*
X142008827Y-120265812D01*
X142008008Y-120267639D01*
X141960406Y-120312655D01*
X141854103Y-120395957D01*
X141701050Y-120509176D01*
X141513199Y-120643946D01*
X141302503Y-120791899D01*
X141080913Y-120944667D01*
X140860381Y-121093882D01*
X140652860Y-121231177D01*
X140470302Y-121348185D01*
X140419667Y-121379632D01*
X139337288Y-121998727D01*
X138229613Y-122539670D01*
X137092942Y-123003738D01*
X135923571Y-123392207D01*
X134717801Y-123706356D01*
X133471929Y-123947460D01*
X132630333Y-124066654D01*
X132335570Y-124094761D01*
X131972854Y-124116802D01*
X131558619Y-124132778D01*
X131109299Y-124142689D01*
X130641328Y-124146535D01*
X130171140Y-124144317D01*
X129715168Y-124136036D01*
X129289847Y-124121692D01*
X128911610Y-124101286D01*
X128596891Y-124074818D01*
X128524000Y-124066518D01*
X127256162Y-123874618D01*
X126034833Y-123613749D01*
X124855201Y-123282283D01*
X123712456Y-122878589D01*
X122601787Y-122401041D01*
X121518383Y-121848008D01*
X120876899Y-121477756D01*
X119854825Y-120814035D01*
X118872039Y-120080071D01*
X117935037Y-119282133D01*
X117050315Y-118426490D01*
X116224369Y-117519410D01*
X115463696Y-116567161D01*
X114798296Y-115612333D01*
X114137989Y-114519628D01*
X113557937Y-113400175D01*
X113058017Y-112253594D01*
X112638107Y-111079501D01*
X112298082Y-109877515D01*
X112037820Y-108647254D01*
X111857196Y-107388336D01*
X111761627Y-106211650D01*
X111745505Y-105893904D01*
X111734286Y-105634371D01*
X111727995Y-105411531D01*
X111726655Y-105203862D01*
X111730291Y-104989843D01*
X111738925Y-104747953D01*
X111752583Y-104456671D01*
X111763816Y-104237363D01*
X111869958Y-102999810D01*
X112057289Y-101780109D01*
X112323570Y-100581663D01*
X112666568Y-99407874D01*
X112993590Y-98510388D01*
X112993590Y-100367506D01*
X112926294Y-100372226D01*
X112920806Y-100377771D01*
X112935006Y-100418472D01*
X112993991Y-100445907D01*
X113120944Y-100492669D01*
X113294606Y-100575305D01*
X113492228Y-100681276D01*
X113691058Y-100798041D01*
X113868348Y-100913063D01*
X113952764Y-100974361D01*
X114250954Y-101247496D01*
X114526049Y-101582550D01*
X114763411Y-101957202D01*
X114948406Y-102349126D01*
X115042987Y-102637166D01*
X115076242Y-102799151D01*
X115106639Y-103008317D01*
X115129010Y-103227210D01*
X115133734Y-103294908D01*
X115122510Y-103787549D01*
X115033099Y-104264571D01*
X114871612Y-104718254D01*
X114644158Y-105140880D01*
X114356847Y-105524728D01*
X114015791Y-105862079D01*
X113627100Y-106145213D01*
X113196883Y-106366411D01*
X112731251Y-106517953D01*
X112553750Y-106554385D01*
X112379659Y-106592597D01*
X112285832Y-106632287D01*
X112273804Y-106672411D01*
X112330315Y-106706569D01*
X112413178Y-106711605D01*
X112555899Y-106694371D01*
X112738042Y-106659454D01*
X112939170Y-106611438D01*
X113138847Y-106554911D01*
X113316635Y-106494456D01*
X113369470Y-106473402D01*
X113704738Y-106303214D01*
X114038351Y-106079977D01*
X114349089Y-105821102D01*
X114615734Y-105544000D01*
X114792992Y-105305356D01*
X114846639Y-105222082D01*
X114893559Y-105168154D01*
X114947747Y-105144962D01*
X115023195Y-105153896D01*
X115133897Y-105196343D01*
X115293845Y-105273692D01*
X115492410Y-105374776D01*
X116017877Y-105687508D01*
X116485593Y-106058901D01*
X116891395Y-106485142D01*
X117231120Y-106962418D01*
X117237640Y-106973167D01*
X117500557Y-107486681D01*
X117690996Y-108030922D01*
X117808535Y-108595321D01*
X117852753Y-109169309D01*
X117823228Y-109742317D01*
X117719541Y-110303777D01*
X117541269Y-110843120D01*
X117403765Y-111141183D01*
X117319249Y-111305532D01*
X116666875Y-111311705D01*
X116413410Y-111314997D01*
X116224838Y-111321161D01*
X116081387Y-111332924D01*
X115963283Y-111353015D01*
X115850752Y-111384164D01*
X115724021Y-111429100D01*
X115671279Y-111449114D01*
X115476423Y-111531010D01*
X115278730Y-111626108D01*
X115117052Y-111715557D01*
X115099779Y-111726380D01*
X114871500Y-111872408D01*
X114871500Y-111466954D01*
X114868757Y-111266359D01*
X114857121Y-111122952D01*
X114831482Y-111009339D01*
X114786728Y-110898126D01*
X114752427Y-110828666D01*
X114552314Y-110519794D01*
X114298468Y-110259677D01*
X114003961Y-110057337D01*
X113681865Y-109921795D01*
X113352435Y-109862489D01*
X113194440Y-109860449D01*
X113104980Y-109873842D01*
X113088022Y-109897175D01*
X113147532Y-109924957D01*
X113287478Y-109951697D01*
X113287946Y-109951760D01*
X113543263Y-110020706D01*
X113811865Y-110153030D01*
X114073610Y-110334322D01*
X114308357Y-110550170D01*
X114495963Y-110786164D01*
X114529175Y-110839808D01*
X114635301Y-111071575D01*
X114715898Y-111346134D01*
X114760316Y-111622926D01*
X114765667Y-111740348D01*
X114757074Y-111885054D01*
X114723315Y-111980921D01*
X114655871Y-112059537D01*
X114544571Y-112177446D01*
X114422344Y-112329362D01*
X114298389Y-112500761D01*
X114181903Y-112677115D01*
X114082086Y-112843898D01*
X114008135Y-112986584D01*
X113969249Y-113090647D01*
X113972031Y-113139475D01*
X114000643Y-113115095D01*
X114059161Y-113033069D01*
X114136219Y-112909675D01*
X114156293Y-112875569D01*
X114375237Y-112562258D01*
X114651295Y-112263949D01*
X114957760Y-112007575D01*
X115129010Y-111894555D01*
X115567689Y-111679607D01*
X116017683Y-111544198D01*
X116471107Y-111485405D01*
X116920074Y-111500307D01*
X117356699Y-111585982D01*
X117773096Y-111739508D01*
X118161378Y-111957963D01*
X118513659Y-112238425D01*
X118822053Y-112577972D01*
X119078674Y-112973682D01*
X119275636Y-113422633D01*
X119278923Y-113432166D01*
X119331346Y-113596468D01*
X119365618Y-113741574D01*
X119385562Y-113894775D01*
X119395003Y-114083364D01*
X119397567Y-114278833D01*
X119380326Y-114686146D01*
X119320457Y-115043476D01*
X119212179Y-115377070D01*
X119104102Y-115611265D01*
X119018422Y-115774712D01*
X118954310Y-115873375D01*
X118894237Y-115917573D01*
X118820676Y-115917623D01*
X118716100Y-115883843D01*
X118670463Y-115866522D01*
X118529015Y-115824457D01*
X118373165Y-115796038D01*
X118224459Y-115782685D01*
X118104442Y-115785818D01*
X118034660Y-115806858D01*
X118025333Y-115824000D01*
X118062728Y-115851223D01*
X118155451Y-115865666D01*
X118184083Y-115866366D01*
X118354961Y-115894676D01*
X118555124Y-115969899D01*
X118755540Y-116077573D01*
X118927176Y-116203234D01*
X118994912Y-116270311D01*
X119167682Y-116506816D01*
X119269990Y-116752584D01*
X119311373Y-117033555D01*
X119313298Y-117136333D01*
X119305260Y-117331275D01*
X119278732Y-117479325D01*
X119225812Y-117617596D01*
X119199504Y-117670721D01*
X119038379Y-117905716D01*
X118819254Y-118116680D01*
X118568795Y-118279614D01*
X118475906Y-118321966D01*
X118258167Y-118409484D01*
X118459386Y-118387533D01*
X118741686Y-118317038D01*
X118990955Y-118178455D01*
X119200901Y-117984030D01*
X119365228Y-117746009D01*
X119477644Y-117476638D01*
X119531855Y-117188163D01*
X119521568Y-116892830D01*
X119440489Y-116602886D01*
X119410489Y-116536870D01*
X119315510Y-116376371D01*
X119198232Y-116222040D01*
X119124739Y-116145397D01*
X119030930Y-116056514D01*
X118969922Y-115990783D01*
X118956667Y-115969452D01*
X118979762Y-115923341D01*
X119037241Y-115838341D01*
X119057665Y-115810592D01*
X119262316Y-115475169D01*
X119419262Y-115088465D01*
X119522886Y-114672663D01*
X119567570Y-114249947D01*
X119550565Y-113864163D01*
X119449822Y-113386645D01*
X119276451Y-112938450D01*
X119036992Y-112527880D01*
X118737984Y-112163236D01*
X118385969Y-111852822D01*
X117987486Y-111604939D01*
X117660130Y-111464374D01*
X117355949Y-111357008D01*
X117503795Y-111105907D01*
X117753296Y-110600238D01*
X117927094Y-110064904D01*
X118024623Y-109509263D01*
X118045315Y-108942675D01*
X117988605Y-108374499D01*
X117853926Y-107814096D01*
X117724558Y-107459043D01*
X117469299Y-106954018D01*
X117144269Y-106489631D01*
X116757658Y-106073493D01*
X116317656Y-105713211D01*
X115832450Y-105416396D01*
X115310229Y-105190656D01*
X115267822Y-105176138D01*
X114944476Y-105067536D01*
X115042111Y-104865148D01*
X115173694Y-104559537D01*
X115262211Y-104266837D01*
X115313719Y-103958524D01*
X115334271Y-103606072D01*
X115335303Y-103483833D01*
X115326928Y-103144761D01*
X115298298Y-102861243D01*
X115243296Y-102605353D01*
X115155803Y-102349169D01*
X115029700Y-102064764D01*
X115019956Y-102044500D01*
X114771573Y-101623129D01*
X114455420Y-101238128D01*
X114085539Y-100904113D01*
X113675972Y-100635698D01*
X113656233Y-100625075D01*
X113463750Y-100530042D01*
X113278416Y-100451828D01*
X113116330Y-100395844D01*
X112993590Y-100367506D01*
X112993590Y-98510388D01*
X113084044Y-98262143D01*
X113573763Y-97147873D01*
X114133489Y-96068465D01*
X114760985Y-95027322D01*
X115454014Y-94027845D01*
X116210341Y-93073437D01*
X117027729Y-92167499D01*
X117903942Y-91313434D01*
X118836744Y-90514643D01*
X119823898Y-89774528D01*
X120863167Y-89096492D01*
X121952316Y-88483936D01*
X122203879Y-88355553D01*
X123331057Y-87837894D01*
X124489082Y-87397717D01*
X125673334Y-87035625D01*
X126879192Y-86752219D01*
X128102036Y-86548102D01*
X129337246Y-86423876D01*
X130580201Y-86380144D01*
X131826282Y-86417507D01*
X133070867Y-86536568D01*
X134309338Y-86737929D01*
X134429500Y-86761970D01*
X135640482Y-87050951D01*
X136822298Y-87418020D01*
X137971706Y-87860664D01*
X139085460Y-88376371D01*
X140160317Y-88962627D01*
X141193034Y-89616921D01*
X142180366Y-90336738D01*
X143119071Y-91119566D01*
X144005903Y-91962893D01*
X144837619Y-92864205D01*
X145610975Y-93820990D01*
X146322728Y-94830734D01*
X146969634Y-95890926D01*
X147490632Y-96879833D01*
X147603053Y-97114995D01*
X147721681Y-97372584D01*
X147841740Y-97641202D01*
X147958454Y-97909447D01*
X148067048Y-98165922D01*
X148162744Y-98399226D01*
X148240767Y-98597959D01*
X148296341Y-98750724D01*
X148324689Y-98846119D01*
X148325629Y-98872815D01*
X148304659Y-98842479D01*
X148304659Y-98842479D01*
G37*
X148304659Y-98842479D02*
X148259413Y-98748183D01*
X148196637Y-98604748D01*
X148126134Y-98434558D01*
X147627398Y-97313917D01*
X147053364Y-96228495D01*
X146407409Y-95182225D01*
X145692907Y-94179039D01*
X144913236Y-93222867D01*
X144071771Y-92317644D01*
X143171888Y-91467301D01*
X142216963Y-90675769D01*
X141210371Y-89946982D01*
X140389497Y-89423387D01*
X139299674Y-88816327D01*
X138176282Y-88286786D01*
X137018928Y-87834627D01*
X135827221Y-87459716D01*
X134600766Y-87161917D01*
X133339172Y-86941094D01*
X133096000Y-86907899D01*
X132725173Y-86868098D01*
X132290083Y-86835646D01*
X131810852Y-86811004D01*
X131307605Y-86794631D01*
X130800464Y-86786990D01*
X130309552Y-86788540D01*
X129854992Y-86799744D01*
X129456908Y-86821061D01*
X129421435Y-86823731D01*
X128165733Y-86962739D01*
X126933673Y-87182119D01*
X125728238Y-87480134D01*
X124552412Y-87855050D01*
X123409176Y-88305130D01*
X122301514Y-88828639D01*
X121232409Y-89423842D01*
X120204843Y-90089002D01*
X119221800Y-90822384D01*
X118286261Y-91622252D01*
X117401210Y-92486871D01*
X116569631Y-93414504D01*
X115794504Y-94403416D01*
X115377917Y-94995579D01*
X115062757Y-95461925D01*
X115209437Y-95654086D01*
X115366145Y-95922700D01*
X115455365Y-96218512D01*
X115476446Y-96524140D01*
X115428735Y-96822197D01*
X115311577Y-97095301D01*
X115266181Y-97165013D01*
X115184046Y-97280860D01*
X115415435Y-97506767D01*
X115721814Y-97862455D01*
X115963509Y-98263879D01*
X116105147Y-98612180D01*
X116159280Y-98795816D01*
X116192978Y-98962087D01*
X116210668Y-99142964D01*
X116216778Y-99370420D01*
X116216992Y-99419833D01*
X116214154Y-99650249D01*
X116201661Y-99826738D01*
X116175164Y-99979872D01*
X116130311Y-100140226D01*
X116102545Y-100224166D01*
X115919319Y-100656716D01*
X115676261Y-101043760D01*
X115589026Y-101155500D01*
X115450705Y-101324833D01*
X115474092Y-101790500D01*
X115486454Y-102000837D01*
X115501302Y-102145862D01*
X115522863Y-102244910D01*
X115555364Y-102317318D01*
X115603032Y-102382420D01*
X115603655Y-102383166D01*
X115742040Y-102607503D01*
X115815761Y-102859869D01*
X115821877Y-103118381D01*
X115757449Y-103361156D01*
X115739974Y-103397911D01*
X115691302Y-103499894D01*
X115666987Y-103564017D01*
X115666659Y-103573436D01*
X115706568Y-103595578D01*
X115806144Y-103647101D01*
X115949227Y-103719720D01*
X116078769Y-103784743D01*
X116272951Y-103887305D01*
X116432474Y-103987702D01*
X116582245Y-104104551D01*
X116747170Y-104256471D01*
X116861167Y-104369586D01*
X117177413Y-104729656D01*
X117427081Y-105102125D01*
X117602945Y-105475642D01*
X117644536Y-105600500D01*
X117681649Y-105697914D01*
X117737603Y-105769176D01*
X117833790Y-105834781D01*
X117953811Y-105896833D01*
X118207132Y-106065386D01*
X118405105Y-106288578D01*
X118539965Y-106552238D01*
X118603950Y-106842193D01*
X118599835Y-107076091D01*
X118573041Y-107293833D01*
X118796604Y-107410524D01*
X119091588Y-107589146D01*
X119395913Y-107816220D01*
X119677442Y-108066388D01*
X119830158Y-108226155D01*
X119948932Y-108357054D01*
X120029958Y-108433226D01*
X120089196Y-108465393D01*
X120142606Y-108464281D01*
X120170857Y-108455076D01*
X120375738Y-108414430D01*
X120605187Y-108426795D01*
X120820854Y-108488530D01*
X120889769Y-108523326D01*
X121025625Y-108630904D01*
X121142287Y-108772425D01*
X121220568Y-108920545D01*
X121242667Y-109026220D01*
X121256784Y-109060230D01*
X121310688Y-109074733D01*
X121421709Y-109072240D01*
X121509716Y-109064876D01*
X121837805Y-109072746D01*
X122142708Y-109154863D01*
X122412849Y-109304910D01*
X122636654Y-109516568D01*
X122794426Y-109766037D01*
X122860285Y-109895245D01*
X122916079Y-109987447D01*
X122949017Y-110022208D01*
X122996913Y-110012588D01*
X123116801Y-109984314D01*
X123298688Y-109939865D01*
X123532578Y-109881718D01*
X123808477Y-109812350D01*
X124116391Y-109734238D01*
X124306639Y-109685666D01*
X124636081Y-109602682D01*
X124946190Y-109527064D01*
X125225618Y-109461389D01*
X125463021Y-109408231D01*
X125647052Y-109370166D01*
X125766364Y-109349769D01*
X125798728Y-109347000D01*
X125981298Y-109377329D01*
X126182966Y-109457123D01*
X126370120Y-109569588D01*
X126509145Y-109697932D01*
X126514232Y-109704467D01*
X126601006Y-109841027D01*
X126673662Y-109991921D01*
X126679399Y-110007007D01*
X126740034Y-110172500D01*
X126746000Y-109597430D01*
X126929636Y-109705048D01*
X127040468Y-109766986D01*
X127119971Y-109805888D01*
X127141303Y-109812666D01*
X127153348Y-109773402D01*
X127162800Y-109667866D01*
X127168378Y-109514444D01*
X127169333Y-109410500D01*
X127169333Y-109008333D01*
X127530520Y-109008333D01*
X127836574Y-108394500D01*
X128142628Y-107780666D01*
X128723125Y-107780666D01*
X129396146Y-108414314D01*
X130069167Y-109047961D01*
X135086777Y-109049314D01*
X135903216Y-109049914D01*
X136661721Y-109051246D01*
X137359675Y-109053288D01*
X137994456Y-109056017D01*
X138563445Y-109059413D01*
X139064023Y-109063452D01*
X139493568Y-109068114D01*
X139849463Y-109073377D01*
X140129086Y-109079218D01*
X140329817Y-109085617D01*
X140449038Y-109092551D01*
X140463111Y-109094029D01*
X141133554Y-109203474D01*
X141790288Y-109365613D01*
X142409335Y-109573869D01*
X142772883Y-109727492D01*
X142929033Y-109804690D01*
X143107007Y-109900740D01*
X143291804Y-110006509D01*
X143468421Y-110112860D01*
X143621858Y-110210658D01*
X143737113Y-110290767D01*
X143799184Y-110344053D01*
X143805787Y-110356492D01*
X143770199Y-110397532D01*
X143674020Y-110468849D01*
X143531767Y-110561641D01*
X143357956Y-110667105D01*
X143167102Y-110776435D01*
X142973723Y-110880829D01*
X142792334Y-110971483D01*
X142789590Y-110972783D01*
X142103361Y-111251556D01*
X141367550Y-111462167D01*
X140583173Y-111604342D01*
X140368419Y-111630390D01*
X140251860Y-111638185D01*
X140052140Y-111645274D01*
X139770761Y-111651647D01*
X139409227Y-111657290D01*
X138969041Y-111662191D01*
X138451704Y-111666337D01*
X137858720Y-111669715D01*
X137191592Y-111672313D01*
X136451823Y-111674119D01*
X135640914Y-111675119D01*
X135012983Y-111675333D01*
X130068629Y-111675333D01*
X129405789Y-112310333D01*
X128742948Y-112945333D01*
X128143530Y-112945333D01*
X127507470Y-111675333D01*
X127169333Y-111675333D01*
X127169333Y-110867430D01*
X126985698Y-110975048D01*
X126874866Y-111036986D01*
X126795363Y-111075888D01*
X126774031Y-111082666D01*
X126758876Y-111044112D01*
X126747103Y-110943563D01*
X126741678Y-110818083D01*
X126738542Y-110677259D01*
X126732625Y-110612735D01*
X126720264Y-110616149D01*
X126697794Y-110679138D01*
X126690655Y-110701666D01*
X126594471Y-110886736D01*
X126436701Y-111063202D01*
X126239626Y-111214657D01*
X126025525Y-111324691D01*
X125816678Y-111376897D01*
X125770959Y-111379000D01*
X125707217Y-111368753D01*
X125572167Y-111339702D01*
X125376436Y-111294384D01*
X125130649Y-111235333D01*
X124845433Y-111165085D01*
X124531414Y-111086175D01*
X124351572Y-111040333D01*
X124028504Y-110958014D01*
X123730453Y-110882919D01*
X123467648Y-110817558D01*
X123250321Y-110764443D01*
X123088702Y-110726086D01*
X122993022Y-110704997D01*
X122971954Y-110701666D01*
X122923188Y-110737159D01*
X122860552Y-110828147D01*
X122821433Y-110904180D01*
X122656871Y-111165824D01*
X122427555Y-111387716D01*
X122174000Y-111542509D01*
X122032281Y-111601499D01*
X121899231Y-111634430D01*
X121740433Y-111647610D01*
X121596021Y-111648469D01*
X121250876Y-111644870D01*
X121224757Y-111775466D01*
X121144772Y-111977628D01*
X120998128Y-112162822D01*
X120802710Y-112309523D01*
X120763902Y-112330098D01*
X120633407Y-112389474D01*
X120526073Y-112428416D01*
X120481372Y-112437333D01*
X120427066Y-112472158D01*
X120349232Y-112564880D01*
X120262605Y-112697867D01*
X120260244Y-112701916D01*
X120162843Y-112859852D01*
X120060966Y-113009991D01*
X119984486Y-113110132D01*
X119862517Y-113253765D01*
X120006598Y-113612603D01*
X120186960Y-114171633D01*
X120287468Y-114744391D01*
X120308734Y-115321820D01*
X120251371Y-115894862D01*
X120115992Y-116454459D01*
X119903209Y-116991554D01*
X119759642Y-117263333D01*
X119600609Y-117538500D01*
X119623119Y-118010942D01*
X119645629Y-118483385D01*
X119805015Y-118555258D01*
X120026783Y-118698978D01*
X120216364Y-118907798D01*
X120361825Y-119164610D01*
X120451231Y-119452307D01*
X120458216Y-119491710D01*
X120486244Y-119608413D01*
X120532895Y-119666695D01*
X120600009Y-119689662D01*
X120751081Y-119750228D01*
X120913922Y-119862143D01*
X121060001Y-120002296D01*
X121157642Y-120141297D01*
X121253685Y-120408702D01*
X121267525Y-120670109D01*
X121222586Y-120861666D01*
X121176439Y-120988675D01*
X121141147Y-121088936D01*
X121132243Y-121115666D01*
X121149891Y-121159063D01*
X121227362Y-121226000D01*
X121370096Y-121320413D01*
X121583535Y-121446234D01*
X121611299Y-121462010D01*
X122732303Y-122049192D01*
X123881144Y-122556922D01*
X125054922Y-122984642D01*
X126250740Y-123331790D01*
X127465698Y-123597809D01*
X128696900Y-123782137D01*
X129941447Y-123884215D01*
X131196441Y-123903485D01*
X132458984Y-123839384D01*
X133396197Y-123737978D01*
X134583972Y-123538583D01*
X135765301Y-123257830D01*
X136931896Y-122898961D01*
X138075468Y-122465219D01*
X139187728Y-121959847D01*
X140260389Y-121386087D01*
X141285162Y-120747182D01*
X141606805Y-120525852D01*
X141766275Y-120415266D01*
X141894420Y-120329924D01*
X141979264Y-120277536D01*
X142008827Y-120265812D01*
X142008008Y-120267639D01*
X141960406Y-120312655D01*
X141854103Y-120395957D01*
X141701050Y-120509176D01*
X141513199Y-120643946D01*
X141302503Y-120791899D01*
X141080913Y-120944667D01*
X140860381Y-121093882D01*
X140652860Y-121231177D01*
X140470302Y-121348185D01*
X140419667Y-121379632D01*
X139337288Y-121998727D01*
X138229613Y-122539670D01*
X137092942Y-123003738D01*
X135923571Y-123392207D01*
X134717801Y-123706356D01*
X133471929Y-123947460D01*
X132630333Y-124066654D01*
X132335570Y-124094761D01*
X131972854Y-124116802D01*
X131558619Y-124132778D01*
X131109299Y-124142689D01*
X130641328Y-124146535D01*
X130171140Y-124144317D01*
X129715168Y-124136036D01*
X129289847Y-124121692D01*
X128911610Y-124101286D01*
X128596891Y-124074818D01*
X128524000Y-124066518D01*
X127256162Y-123874618D01*
X126034833Y-123613749D01*
X124855201Y-123282283D01*
X123712456Y-122878589D01*
X122601787Y-122401041D01*
X121518383Y-121848008D01*
X120876899Y-121477756D01*
X119854825Y-120814035D01*
X118872039Y-120080071D01*
X117935037Y-119282133D01*
X117050315Y-118426490D01*
X116224369Y-117519410D01*
X115463696Y-116567161D01*
X114798296Y-115612333D01*
X114137989Y-114519628D01*
X113557937Y-113400175D01*
X113058017Y-112253594D01*
X112638107Y-111079501D01*
X112298082Y-109877515D01*
X112037820Y-108647254D01*
X111857196Y-107388336D01*
X111761627Y-106211650D01*
X111745505Y-105893904D01*
X111734286Y-105634371D01*
X111727995Y-105411531D01*
X111726655Y-105203862D01*
X111730291Y-104989843D01*
X111738925Y-104747953D01*
X111752583Y-104456671D01*
X111763816Y-104237363D01*
X111869958Y-102999810D01*
X112057289Y-101780109D01*
X112323570Y-100581663D01*
X112666568Y-99407874D01*
X112993590Y-98510388D01*
X112993590Y-100367506D01*
X112926294Y-100372226D01*
X112920806Y-100377771D01*
X112935006Y-100418472D01*
X112993991Y-100445907D01*
X113120944Y-100492669D01*
X113294606Y-100575305D01*
X113492228Y-100681276D01*
X113691058Y-100798041D01*
X113868348Y-100913063D01*
X113952764Y-100974361D01*
X114250954Y-101247496D01*
X114526049Y-101582550D01*
X114763411Y-101957202D01*
X114948406Y-102349126D01*
X115042987Y-102637166D01*
X115076242Y-102799151D01*
X115106639Y-103008317D01*
X115129010Y-103227210D01*
X115133734Y-103294908D01*
X115122510Y-103787549D01*
X115033099Y-104264571D01*
X114871612Y-104718254D01*
X114644158Y-105140880D01*
X114356847Y-105524728D01*
X114015791Y-105862079D01*
X113627100Y-106145213D01*
X113196883Y-106366411D01*
X112731251Y-106517953D01*
X112553750Y-106554385D01*
X112379659Y-106592597D01*
X112285832Y-106632287D01*
X112273804Y-106672411D01*
X112330315Y-106706569D01*
X112413178Y-106711605D01*
X112555899Y-106694371D01*
X112738042Y-106659454D01*
X112939170Y-106611438D01*
X113138847Y-106554911D01*
X113316635Y-106494456D01*
X113369470Y-106473402D01*
X113704738Y-106303214D01*
X114038351Y-106079977D01*
X114349089Y-105821102D01*
X114615734Y-105544000D01*
X114792992Y-105305356D01*
X114846639Y-105222082D01*
X114893559Y-105168154D01*
X114947747Y-105144962D01*
X115023195Y-105153896D01*
X115133897Y-105196343D01*
X115293845Y-105273692D01*
X115492410Y-105374776D01*
X116017877Y-105687508D01*
X116485593Y-106058901D01*
X116891395Y-106485142D01*
X117231120Y-106962418D01*
X117237640Y-106973167D01*
X117500557Y-107486681D01*
X117690996Y-108030922D01*
X117808535Y-108595321D01*
X117852753Y-109169309D01*
X117823228Y-109742317D01*
X117719541Y-110303777D01*
X117541269Y-110843120D01*
X117403765Y-111141183D01*
X117319249Y-111305532D01*
X116666875Y-111311705D01*
X116413410Y-111314997D01*
X116224838Y-111321161D01*
X116081387Y-111332924D01*
X115963283Y-111353015D01*
X115850752Y-111384164D01*
X115724021Y-111429100D01*
X115671279Y-111449114D01*
X115476423Y-111531010D01*
X115278730Y-111626108D01*
X115117052Y-111715557D01*
X115099779Y-111726380D01*
X114871500Y-111872408D01*
X114871500Y-111466954D01*
X114868757Y-111266359D01*
X114857121Y-111122952D01*
X114831482Y-111009339D01*
X114786728Y-110898126D01*
X114752427Y-110828666D01*
X114552314Y-110519794D01*
X114298468Y-110259677D01*
X114003961Y-110057337D01*
X113681865Y-109921795D01*
X113352435Y-109862489D01*
X113194440Y-109860449D01*
X113104980Y-109873842D01*
X113088022Y-109897175D01*
X113147532Y-109924957D01*
X113287478Y-109951697D01*
X113287946Y-109951760D01*
X113543263Y-110020706D01*
X113811865Y-110153030D01*
X114073610Y-110334322D01*
X114308357Y-110550170D01*
X114495963Y-110786164D01*
X114529175Y-110839808D01*
X114635301Y-111071575D01*
X114715898Y-111346134D01*
X114760316Y-111622926D01*
X114765667Y-111740348D01*
X114757074Y-111885054D01*
X114723315Y-111980921D01*
X114655871Y-112059537D01*
X114544571Y-112177446D01*
X114422344Y-112329362D01*
X114298389Y-112500761D01*
X114181903Y-112677115D01*
X114082086Y-112843898D01*
X114008135Y-112986584D01*
X113969249Y-113090647D01*
X113972031Y-113139475D01*
X114000643Y-113115095D01*
X114059161Y-113033069D01*
X114136219Y-112909675D01*
X114156293Y-112875569D01*
X114375237Y-112562258D01*
X114651295Y-112263949D01*
X114957760Y-112007575D01*
X115129010Y-111894555D01*
X115567689Y-111679607D01*
X116017683Y-111544198D01*
X116471107Y-111485405D01*
X116920074Y-111500307D01*
X117356699Y-111585982D01*
X117773096Y-111739508D01*
X118161378Y-111957963D01*
X118513659Y-112238425D01*
X118822053Y-112577972D01*
X119078674Y-112973682D01*
X119275636Y-113422633D01*
X119278923Y-113432166D01*
X119331346Y-113596468D01*
X119365618Y-113741574D01*
X119385562Y-113894775D01*
X119395003Y-114083364D01*
X119397567Y-114278833D01*
X119380326Y-114686146D01*
X119320457Y-115043476D01*
X119212179Y-115377070D01*
X119104102Y-115611265D01*
X119018422Y-115774712D01*
X118954310Y-115873375D01*
X118894237Y-115917573D01*
X118820676Y-115917623D01*
X118716100Y-115883843D01*
X118670463Y-115866522D01*
X118529015Y-115824457D01*
X118373165Y-115796038D01*
X118224459Y-115782685D01*
X118104442Y-115785818D01*
X118034660Y-115806858D01*
X118025333Y-115824000D01*
X118062728Y-115851223D01*
X118155451Y-115865666D01*
X118184083Y-115866366D01*
X118354961Y-115894676D01*
X118555124Y-115969899D01*
X118755540Y-116077573D01*
X118927176Y-116203234D01*
X118994912Y-116270311D01*
X119167682Y-116506816D01*
X119269990Y-116752584D01*
X119311373Y-117033555D01*
X119313298Y-117136333D01*
X119305260Y-117331275D01*
X119278732Y-117479325D01*
X119225812Y-117617596D01*
X119199504Y-117670721D01*
X119038379Y-117905716D01*
X118819254Y-118116680D01*
X118568795Y-118279614D01*
X118475906Y-118321966D01*
X118258167Y-118409484D01*
X118459386Y-118387533D01*
X118741686Y-118317038D01*
X118990955Y-118178455D01*
X119200901Y-117984030D01*
X119365228Y-117746009D01*
X119477644Y-117476638D01*
X119531855Y-117188163D01*
X119521568Y-116892830D01*
X119440489Y-116602886D01*
X119410489Y-116536870D01*
X119315510Y-116376371D01*
X119198232Y-116222040D01*
X119124739Y-116145397D01*
X119030930Y-116056514D01*
X118969922Y-115990783D01*
X118956667Y-115969452D01*
X118979762Y-115923341D01*
X119037241Y-115838341D01*
X119057665Y-115810592D01*
X119262316Y-115475169D01*
X119419262Y-115088465D01*
X119522886Y-114672663D01*
X119567570Y-114249947D01*
X119550565Y-113864163D01*
X119449822Y-113386645D01*
X119276451Y-112938450D01*
X119036992Y-112527880D01*
X118737984Y-112163236D01*
X118385969Y-111852822D01*
X117987486Y-111604939D01*
X117660130Y-111464374D01*
X117355949Y-111357008D01*
X117503795Y-111105907D01*
X117753296Y-110600238D01*
X117927094Y-110064904D01*
X118024623Y-109509263D01*
X118045315Y-108942675D01*
X117988605Y-108374499D01*
X117853926Y-107814096D01*
X117724558Y-107459043D01*
X117469299Y-106954018D01*
X117144269Y-106489631D01*
X116757658Y-106073493D01*
X116317656Y-105713211D01*
X115832450Y-105416396D01*
X115310229Y-105190656D01*
X115267822Y-105176138D01*
X114944476Y-105067536D01*
X115042111Y-104865148D01*
X115173694Y-104559537D01*
X115262211Y-104266837D01*
X115313719Y-103958524D01*
X115334271Y-103606072D01*
X115335303Y-103483833D01*
X115326928Y-103144761D01*
X115298298Y-102861243D01*
X115243296Y-102605353D01*
X115155803Y-102349169D01*
X115029700Y-102064764D01*
X115019956Y-102044500D01*
X114771573Y-101623129D01*
X114455420Y-101238128D01*
X114085539Y-100904113D01*
X113675972Y-100635698D01*
X113656233Y-100625075D01*
X113463750Y-100530042D01*
X113278416Y-100451828D01*
X113116330Y-100395844D01*
X112993590Y-100367506D01*
X112993590Y-98510388D01*
X113084044Y-98262143D01*
X113573763Y-97147873D01*
X114133489Y-96068465D01*
X114760985Y-95027322D01*
X115454014Y-94027845D01*
X116210341Y-93073437D01*
X117027729Y-92167499D01*
X117903942Y-91313434D01*
X118836744Y-90514643D01*
X119823898Y-89774528D01*
X120863167Y-89096492D01*
X121952316Y-88483936D01*
X122203879Y-88355553D01*
X123331057Y-87837894D01*
X124489082Y-87397717D01*
X125673334Y-87035625D01*
X126879192Y-86752219D01*
X128102036Y-86548102D01*
X129337246Y-86423876D01*
X130580201Y-86380144D01*
X131826282Y-86417507D01*
X133070867Y-86536568D01*
X134309338Y-86737929D01*
X134429500Y-86761970D01*
X135640482Y-87050951D01*
X136822298Y-87418020D01*
X137971706Y-87860664D01*
X139085460Y-88376371D01*
X140160317Y-88962627D01*
X141193034Y-89616921D01*
X142180366Y-90336738D01*
X143119071Y-91119566D01*
X144005903Y-91962893D01*
X144837619Y-92864205D01*
X145610975Y-93820990D01*
X146322728Y-94830734D01*
X146969634Y-95890926D01*
X147490632Y-96879833D01*
X147603053Y-97114995D01*
X147721681Y-97372584D01*
X147841740Y-97641202D01*
X147958454Y-97909447D01*
X148067048Y-98165922D01*
X148162744Y-98399226D01*
X148240767Y-98597959D01*
X148296341Y-98750724D01*
X148324689Y-98846119D01*
X148325629Y-98872815D01*
X148304659Y-98842479D01*
G36*
X126552579Y-90413265D02*
X126481417Y-90409484D01*
X126390868Y-90393055D01*
X126248209Y-90373484D01*
X126098046Y-90356472D01*
X125945239Y-90342840D01*
X125856373Y-90343547D01*
X125811357Y-90362552D01*
X125790105Y-90403811D01*
X125786192Y-90417911D01*
X125743625Y-90490058D01*
X125688167Y-90504696D01*
X125649475Y-90460090D01*
X125645333Y-90426154D01*
X125677233Y-90349504D01*
X125756489Y-90261665D01*
X125782917Y-90240272D01*
X125867743Y-90184667D01*
X125995367Y-90110140D01*
X126145293Y-90027552D01*
X126297026Y-89947769D01*
X126430070Y-89881652D01*
X126523930Y-89840066D01*
X126554443Y-89831333D01*
X126574256Y-89865822D01*
X126576667Y-89894223D01*
X126541600Y-89943728D01*
X126449416Y-90014373D01*
X126319639Y-90091319D01*
X126312083Y-90095290D01*
X126047500Y-90233467D01*
X126216833Y-90244767D01*
X126403776Y-90263701D01*
X126517698Y-90292734D01*
X126570014Y-90335709D01*
X126576667Y-90365895D01*
X126552579Y-90413265D01*
X126552579Y-90413265D01*
G37*
X126552579Y-90413265D02*
X126481417Y-90409484D01*
X126390868Y-90393055D01*
X126248209Y-90373484D01*
X126098046Y-90356472D01*
X125945239Y-90342840D01*
X125856373Y-90343547D01*
X125811357Y-90362552D01*
X125790105Y-90403811D01*
X125786192Y-90417911D01*
X125743625Y-90490058D01*
X125688167Y-90504696D01*
X125649475Y-90460090D01*
X125645333Y-90426154D01*
X125677233Y-90349504D01*
X125756489Y-90261665D01*
X125782917Y-90240272D01*
X125867743Y-90184667D01*
X125995367Y-90110140D01*
X126145293Y-90027552D01*
X126297026Y-89947769D01*
X126430070Y-89881652D01*
X126523930Y-89840066D01*
X126554443Y-89831333D01*
X126574256Y-89865822D01*
X126576667Y-89894223D01*
X126541600Y-89943728D01*
X126449416Y-90014373D01*
X126319639Y-90091319D01*
X126312083Y-90095290D01*
X126047500Y-90233467D01*
X126216833Y-90244767D01*
X126403776Y-90263701D01*
X126517698Y-90292734D01*
X126570014Y-90335709D01*
X126576667Y-90365895D01*
X126552579Y-90413265D01*
G36*
X126691451Y-90667285D02*
X126640167Y-90705024D01*
X126583950Y-90755799D01*
X126576667Y-90783833D01*
X126542606Y-90845101D01*
X126513167Y-90862642D01*
X126458854Y-90855639D01*
X126449667Y-90820308D01*
X126423951Y-90773691D01*
X126382466Y-90779395D01*
X126237496Y-90820591D01*
X126096629Y-90837345D01*
X125986644Y-90828387D01*
X125938000Y-90800517D01*
X125901379Y-90695697D01*
X125927556Y-90621555D01*
X125989779Y-90594698D01*
X126024824Y-90641608D01*
X126026333Y-90661770D01*
X126048728Y-90709575D01*
X126121583Y-90704682D01*
X126230621Y-90683524D01*
X126289268Y-90678578D01*
X126368788Y-90649342D01*
X126453346Y-90582750D01*
X126526128Y-90523949D01*
X126563348Y-90537855D01*
X126564356Y-90540416D01*
X126618136Y-90588909D01*
X126643695Y-90593333D01*
X126697209Y-90617427D01*
X126691451Y-90667285D01*
X126691451Y-90667285D01*
G37*
X126691451Y-90667285D02*
X126640167Y-90705024D01*
X126583950Y-90755799D01*
X126576667Y-90783833D01*
X126542606Y-90845101D01*
X126513167Y-90862642D01*
X126458854Y-90855639D01*
X126449667Y-90820308D01*
X126423951Y-90773691D01*
X126382466Y-90779395D01*
X126237496Y-90820591D01*
X126096629Y-90837345D01*
X125986644Y-90828387D01*
X125938000Y-90800517D01*
X125901379Y-90695697D01*
X125927556Y-90621555D01*
X125989779Y-90594698D01*
X126024824Y-90641608D01*
X126026333Y-90661770D01*
X126048728Y-90709575D01*
X126121583Y-90704682D01*
X126230621Y-90683524D01*
X126289268Y-90678578D01*
X126368788Y-90649342D01*
X126453346Y-90582750D01*
X126526128Y-90523949D01*
X126563348Y-90537855D01*
X126564356Y-90540416D01*
X126618136Y-90588909D01*
X126643695Y-90593333D01*
X126697209Y-90617427D01*
X126691451Y-90667285D01*
G36*
X126570018Y-91041093D02*
X126525303Y-91093410D01*
X126426457Y-91141322D01*
X126295739Y-91180622D01*
X126155408Y-91207105D01*
X126027724Y-91216563D01*
X125934947Y-91204791D01*
X125899333Y-91167834D01*
X125941172Y-91120155D01*
X126064773Y-91076071D01*
X126142750Y-91058461D01*
X126294784Y-91027375D01*
X126426523Y-90999484D01*
X126485607Y-90986319D01*
X126558124Y-90981019D01*
X126572758Y-91023705D01*
X126570018Y-91041093D01*
X126570018Y-91041093D01*
G37*
X126570018Y-91041093D02*
X126525303Y-91093410D01*
X126426457Y-91141322D01*
X126295739Y-91180622D01*
X126155408Y-91207105D01*
X126027724Y-91216563D01*
X125934947Y-91204791D01*
X125899333Y-91167834D01*
X125941172Y-91120155D01*
X126064773Y-91076071D01*
X126142750Y-91058461D01*
X126294784Y-91027375D01*
X126426523Y-90999484D01*
X126485607Y-90986319D01*
X126558124Y-90981019D01*
X126572758Y-91023705D01*
X126570018Y-91041093D01*
G36*
X126554877Y-91654501D02*
X126499558Y-91771717D01*
X126408903Y-91838486D01*
X126306614Y-91838271D01*
X126250901Y-91784056D01*
X126199664Y-91684045D01*
X126194431Y-91669089D01*
X126141731Y-91563738D01*
X126085641Y-91526112D01*
X126041966Y-91558083D01*
X126026333Y-91649168D01*
X126038792Y-91746503D01*
X126066818Y-91798690D01*
X126089277Y-91853606D01*
X126082196Y-91889138D01*
X126052132Y-91931655D01*
X126004044Y-91901488D01*
X126000323Y-91897798D01*
X125933517Y-91779763D01*
X125917172Y-91634920D01*
X125955121Y-91504885D01*
X125963029Y-91492916D01*
X126059069Y-91406767D01*
X126157425Y-91401685D01*
X126246995Y-91475137D01*
X126297430Y-91569172D01*
X126347167Y-91667094D01*
X126392997Y-91715028D01*
X126407860Y-91714841D01*
X126439242Y-91661209D01*
X126448639Y-91578715D01*
X126435917Y-91506477D01*
X126408662Y-91482333D01*
X126385370Y-91451302D01*
X126392025Y-91418833D01*
X126435490Y-91362377D01*
X126485295Y-91372198D01*
X126530031Y-91431784D01*
X126558291Y-91524626D01*
X126558664Y-91634215D01*
X126554877Y-91654501D01*
X126554877Y-91654501D01*
G37*
X126554877Y-91654501D02*
X126499558Y-91771717D01*
X126408903Y-91838486D01*
X126306614Y-91838271D01*
X126250901Y-91784056D01*
X126199664Y-91684045D01*
X126194431Y-91669089D01*
X126141731Y-91563738D01*
X126085641Y-91526112D01*
X126041966Y-91558083D01*
X126026333Y-91649168D01*
X126038792Y-91746503D01*
X126066818Y-91798690D01*
X126089277Y-91853606D01*
X126082196Y-91889138D01*
X126052132Y-91931655D01*
X126004044Y-91901488D01*
X126000323Y-91897798D01*
X125933517Y-91779763D01*
X125917172Y-91634920D01*
X125955121Y-91504885D01*
X125963029Y-91492916D01*
X126059069Y-91406767D01*
X126157425Y-91401685D01*
X126246995Y-91475137D01*
X126297430Y-91569172D01*
X126347167Y-91667094D01*
X126392997Y-91715028D01*
X126407860Y-91714841D01*
X126439242Y-91661209D01*
X126448639Y-91578715D01*
X126435917Y-91506477D01*
X126408662Y-91482333D01*
X126385370Y-91451302D01*
X126392025Y-91418833D01*
X126435490Y-91362377D01*
X126485295Y-91372198D01*
X126530031Y-91431784D01*
X126558291Y-91524626D01*
X126558664Y-91634215D01*
X126554877Y-91654501D01*
G36*
X126540685Y-92278287D02*
X126481417Y-92305073D01*
X126342034Y-92333682D01*
X126191452Y-92363552D01*
X126054188Y-92389957D01*
X125954762Y-92408165D01*
X125918416Y-92413666D01*
X125893659Y-92387198D01*
X125909563Y-92331510D01*
X125952290Y-92282174D01*
X125973417Y-92272287D01*
X126068912Y-92248295D01*
X126174263Y-92223697D01*
X126322807Y-92169834D01*
X126396323Y-92089049D01*
X126407333Y-92027483D01*
X126439679Y-91960546D01*
X126492000Y-91948000D01*
X126561028Y-91959492D01*
X126565747Y-92000912D01*
X126505473Y-92082668D01*
X126481417Y-92109279D01*
X126386167Y-92212516D01*
X126481417Y-92183238D01*
X126555970Y-92175311D01*
X126576667Y-92219507D01*
X126540685Y-92278287D01*
X126540685Y-92278287D01*
G37*
X126540685Y-92278287D02*
X126481417Y-92305073D01*
X126342034Y-92333682D01*
X126191452Y-92363552D01*
X126054188Y-92389957D01*
X125954762Y-92408165D01*
X125918416Y-92413666D01*
X125893659Y-92387198D01*
X125909563Y-92331510D01*
X125952290Y-92282174D01*
X125973417Y-92272287D01*
X126068912Y-92248295D01*
X126174263Y-92223697D01*
X126322807Y-92169834D01*
X126396323Y-92089049D01*
X126407333Y-92027483D01*
X126439679Y-91960546D01*
X126492000Y-91948000D01*
X126561028Y-91959492D01*
X126565747Y-92000912D01*
X126505473Y-92082668D01*
X126481417Y-92109279D01*
X126386167Y-92212516D01*
X126481417Y-92183238D01*
X126555970Y-92175311D01*
X126576667Y-92219507D01*
X126540685Y-92278287D01*
G36*
X126536865Y-92861130D02*
X126456372Y-92970095D01*
X126435410Y-92986154D01*
X126305058Y-93040248D01*
X126159200Y-93047509D01*
X126030510Y-93010130D01*
X125965234Y-92954580D01*
X125905966Y-92828771D01*
X125922268Y-92709795D01*
X125968254Y-92630441D01*
X126025808Y-92567728D01*
X126065230Y-92578214D01*
X126070202Y-92585484D01*
X126077595Y-92661848D01*
X126058101Y-92711187D01*
X126032751Y-92804835D01*
X126060114Y-92885993D01*
X126128781Y-92921643D01*
X126130838Y-92921666D01*
X126171367Y-92900274D01*
X126191243Y-92825123D01*
X126195667Y-92710000D01*
X126198467Y-92584692D01*
X126215537Y-92522205D01*
X126259877Y-92500702D01*
X126321691Y-92498333D01*
X126354417Y-92507349D01*
X126354417Y-92633245D01*
X126304163Y-92640383D01*
X126283143Y-92700504D01*
X126280333Y-92771885D01*
X126284762Y-92870223D01*
X126307331Y-92900930D01*
X126361964Y-92880937D01*
X126367569Y-92877958D01*
X126429616Y-92809635D01*
X126439116Y-92722944D01*
X126397927Y-92652504D01*
X126354417Y-92633245D01*
X126354417Y-92507349D01*
X126445413Y-92532421D01*
X126526064Y-92619467D01*
X126558322Y-92736646D01*
X126536865Y-92861130D01*
X126536865Y-92861130D01*
G37*
X126536865Y-92861130D02*
X126456372Y-92970095D01*
X126435410Y-92986154D01*
X126305058Y-93040248D01*
X126159200Y-93047509D01*
X126030510Y-93010130D01*
X125965234Y-92954580D01*
X125905966Y-92828771D01*
X125922268Y-92709795D01*
X125968254Y-92630441D01*
X126025808Y-92567728D01*
X126065230Y-92578214D01*
X126070202Y-92585484D01*
X126077595Y-92661848D01*
X126058101Y-92711187D01*
X126032751Y-92804835D01*
X126060114Y-92885993D01*
X126128781Y-92921643D01*
X126130838Y-92921666D01*
X126171367Y-92900274D01*
X126191243Y-92825123D01*
X126195667Y-92710000D01*
X126198467Y-92584692D01*
X126215537Y-92522205D01*
X126259877Y-92500702D01*
X126321691Y-92498333D01*
X126354417Y-92507349D01*
X126354417Y-92633245D01*
X126304163Y-92640383D01*
X126283143Y-92700504D01*
X126280333Y-92771885D01*
X126284762Y-92870223D01*
X126307331Y-92900930D01*
X126361964Y-92880937D01*
X126367569Y-92877958D01*
X126429616Y-92809635D01*
X126439116Y-92722944D01*
X126397927Y-92652504D01*
X126354417Y-92633245D01*
X126354417Y-92507349D01*
X126445413Y-92532421D01*
X126526064Y-92619467D01*
X126558322Y-92736646D01*
X126536865Y-92861130D01*
G36*
X126576667Y-93193765D02*
X126539703Y-93250463D01*
X126440013Y-93323091D01*
X126343833Y-93375445D01*
X126221549Y-93439715D01*
X126137227Y-93492247D01*
X126111000Y-93518274D01*
X126149134Y-93538694D01*
X126247538Y-93561391D01*
X126343833Y-93576001D01*
X126495372Y-93604337D01*
X126568116Y-93642586D01*
X126576667Y-93665546D01*
X126572656Y-93700225D01*
X126550044Y-93718571D01*
X126492964Y-93721078D01*
X126385547Y-93708239D01*
X126211927Y-93680546D01*
X126193238Y-93677462D01*
X126019669Y-93641021D01*
X125924272Y-93598340D01*
X125907244Y-93544058D01*
X125968783Y-93472815D01*
X126109086Y-93379249D01*
X126206279Y-93323833D01*
X126374955Y-93230684D01*
X126482776Y-93173147D01*
X126543306Y-93146459D01*
X126570111Y-93145854D01*
X126576755Y-93166571D01*
X126576667Y-93193765D01*
X126576667Y-93193765D01*
G37*
X126576667Y-93193765D02*
X126539703Y-93250463D01*
X126440013Y-93323091D01*
X126343833Y-93375445D01*
X126221549Y-93439715D01*
X126137227Y-93492247D01*
X126111000Y-93518274D01*
X126149134Y-93538694D01*
X126247538Y-93561391D01*
X126343833Y-93576001D01*
X126495372Y-93604337D01*
X126568116Y-93642586D01*
X126576667Y-93665546D01*
X126572656Y-93700225D01*
X126550044Y-93718571D01*
X126492964Y-93721078D01*
X126385547Y-93708239D01*
X126211927Y-93680546D01*
X126193238Y-93677462D01*
X126019669Y-93641021D01*
X125924272Y-93598340D01*
X125907244Y-93544058D01*
X125968783Y-93472815D01*
X126109086Y-93379249D01*
X126206279Y-93323833D01*
X126374955Y-93230684D01*
X126482776Y-93173147D01*
X126543306Y-93146459D01*
X126570111Y-93145854D01*
X126576755Y-93166571D01*
X126576667Y-93193765D01*
G36*
X126570018Y-93919760D02*
X126525303Y-93972077D01*
X126426457Y-94019988D01*
X126295739Y-94059289D01*
X126155408Y-94085772D01*
X126027724Y-94095230D01*
X125934947Y-94083458D01*
X125899333Y-94046501D01*
X125941172Y-93998822D01*
X126064773Y-93954738D01*
X126142750Y-93937128D01*
X126294784Y-93906042D01*
X126426523Y-93878151D01*
X126485607Y-93864985D01*
X126558124Y-93859685D01*
X126572758Y-93902372D01*
X126570018Y-93919760D01*
X126570018Y-93919760D01*
G37*
X126570018Y-93919760D02*
X126525303Y-93972077D01*
X126426457Y-94019988D01*
X126295739Y-94059289D01*
X126155408Y-94085772D01*
X126027724Y-94095230D01*
X125934947Y-94083458D01*
X125899333Y-94046501D01*
X125941172Y-93998822D01*
X126064773Y-93954738D01*
X126142750Y-93937128D01*
X126294784Y-93906042D01*
X126426523Y-93878151D01*
X126485607Y-93864985D01*
X126558124Y-93859685D01*
X126572758Y-93902372D01*
X126570018Y-93919760D01*
G36*
X126531182Y-94735614D02*
X126430714Y-94776866D01*
X126280162Y-94811350D01*
X126100936Y-94844492D01*
X125988963Y-94860692D01*
X125928520Y-94859854D01*
X125903887Y-94841882D01*
X125899333Y-94809007D01*
X125940051Y-94761393D01*
X126055761Y-94717181D01*
X126118696Y-94701970D01*
X126293686Y-94654920D01*
X126397556Y-94599902D01*
X126443845Y-94527750D01*
X126449667Y-94477884D01*
X126443250Y-94433233D01*
X126411490Y-94411292D01*
X126335623Y-94408316D01*
X126196886Y-94420557D01*
X126174500Y-94422937D01*
X126023529Y-94435949D01*
X125938996Y-94432954D01*
X125903834Y-94411914D01*
X125899333Y-94390059D01*
X125934740Y-94344729D01*
X126044984Y-94305406D01*
X126154739Y-94282724D01*
X126300152Y-94262224D01*
X126416501Y-94254993D01*
X126468966Y-94260307D01*
X126542095Y-94326136D01*
X126551090Y-94428400D01*
X126514127Y-94513642D01*
X126459201Y-94610473D01*
X126461217Y-94650402D01*
X126516242Y-94640844D01*
X126566666Y-94641552D01*
X126568988Y-94687109D01*
X126531182Y-94735614D01*
X126531182Y-94735614D01*
G37*
X126531182Y-94735614D02*
X126430714Y-94776866D01*
X126280162Y-94811350D01*
X126100936Y-94844492D01*
X125988963Y-94860692D01*
X125928520Y-94859854D01*
X125903887Y-94841882D01*
X125899333Y-94809007D01*
X125940051Y-94761393D01*
X126055761Y-94717181D01*
X126118696Y-94701970D01*
X126293686Y-94654920D01*
X126397556Y-94599902D01*
X126443845Y-94527750D01*
X126449667Y-94477884D01*
X126443250Y-94433233D01*
X126411490Y-94411292D01*
X126335623Y-94408316D01*
X126196886Y-94420557D01*
X126174500Y-94422937D01*
X126023529Y-94435949D01*
X125938996Y-94432954D01*
X125903834Y-94411914D01*
X125899333Y-94390059D01*
X125934740Y-94344729D01*
X126044984Y-94305406D01*
X126154739Y-94282724D01*
X126300152Y-94262224D01*
X126416501Y-94254993D01*
X126468966Y-94260307D01*
X126542095Y-94326136D01*
X126551090Y-94428400D01*
X126514127Y-94513642D01*
X126459201Y-94610473D01*
X126461217Y-94650402D01*
X126516242Y-94640844D01*
X126566666Y-94641552D01*
X126568988Y-94687109D01*
X126531182Y-94735614D01*
G36*
X126781146Y-95558144D02*
X126749291Y-95586107D01*
X126677330Y-95612162D01*
X126549822Y-95642269D01*
X126397033Y-95673360D01*
X126199060Y-95700572D01*
X126063789Y-95687346D01*
X125977846Y-95630402D01*
X125939242Y-95561121D01*
X125905469Y-95438286D01*
X125917873Y-95330344D01*
X125942073Y-95263051D01*
X126023767Y-95151040D01*
X126172198Y-95065210D01*
X126395433Y-95000917D01*
X126398834Y-95000209D01*
X126589728Y-94965498D01*
X126710900Y-94956736D01*
X126773307Y-94974194D01*
X126788333Y-95009849D01*
X126747247Y-95050726D01*
X126628886Y-95091479D01*
X126505928Y-95118067D01*
X126308343Y-95158658D01*
X126180373Y-95199193D01*
X126107483Y-95248947D01*
X126075138Y-95317199D01*
X126068667Y-95397157D01*
X126077474Y-95500202D01*
X126098966Y-95559526D01*
X126101828Y-95561831D01*
X126156678Y-95564228D01*
X126271400Y-95551843D01*
X126423008Y-95527294D01*
X126451078Y-95522046D01*
X126603056Y-95493302D01*
X126718127Y-95471992D01*
X126775195Y-95462010D01*
X126777750Y-95461716D01*
X126787286Y-95496084D01*
X126788333Y-95522313D01*
X126781146Y-95558144D01*
X126781146Y-95558144D01*
G37*
X126781146Y-95558144D02*
X126749291Y-95586107D01*
X126677330Y-95612162D01*
X126549822Y-95642269D01*
X126397033Y-95673360D01*
X126199060Y-95700572D01*
X126063789Y-95687346D01*
X125977846Y-95630402D01*
X125939242Y-95561121D01*
X125905469Y-95438286D01*
X125917873Y-95330344D01*
X125942073Y-95263051D01*
X126023767Y-95151040D01*
X126172198Y-95065210D01*
X126395433Y-95000917D01*
X126398834Y-95000209D01*
X126589728Y-94965498D01*
X126710900Y-94956736D01*
X126773307Y-94974194D01*
X126788333Y-95009849D01*
X126747247Y-95050726D01*
X126628886Y-95091479D01*
X126505928Y-95118067D01*
X126308343Y-95158658D01*
X126180373Y-95199193D01*
X126107483Y-95248947D01*
X126075138Y-95317199D01*
X126068667Y-95397157D01*
X126077474Y-95500202D01*
X126098966Y-95559526D01*
X126101828Y-95561831D01*
X126156678Y-95564228D01*
X126271400Y-95551843D01*
X126423008Y-95527294D01*
X126451078Y-95522046D01*
X126603056Y-95493302D01*
X126718127Y-95471992D01*
X126775195Y-95462010D01*
X126777750Y-95461716D01*
X126787286Y-95496084D01*
X126788333Y-95522313D01*
X126781146Y-95558144D01*
G36*
X126531182Y-96725281D02*
X126430714Y-96766533D01*
X126280162Y-96801017D01*
X126100936Y-96834159D01*
X125988963Y-96850359D01*
X125928520Y-96849521D01*
X125903887Y-96831549D01*
X125899333Y-96798674D01*
X125940051Y-96751060D01*
X126055761Y-96706847D01*
X126118696Y-96691637D01*
X126293686Y-96644586D01*
X126397556Y-96589569D01*
X126443845Y-96517417D01*
X126449667Y-96467551D01*
X126443250Y-96422899D01*
X126411490Y-96400959D01*
X126335623Y-96397983D01*
X126196886Y-96410224D01*
X126174500Y-96412604D01*
X126023529Y-96425615D01*
X125938996Y-96422621D01*
X125903834Y-96401581D01*
X125899333Y-96379726D01*
X125934740Y-96334395D01*
X126044984Y-96295073D01*
X126154739Y-96272391D01*
X126300152Y-96251891D01*
X126416501Y-96244659D01*
X126468966Y-96249974D01*
X126542095Y-96315802D01*
X126551090Y-96418066D01*
X126514127Y-96503308D01*
X126459201Y-96600140D01*
X126461217Y-96640069D01*
X126516242Y-96630510D01*
X126566666Y-96631219D01*
X126568988Y-96676776D01*
X126531182Y-96725281D01*
X126531182Y-96725281D01*
G37*
X126531182Y-96725281D02*
X126430714Y-96766533D01*
X126280162Y-96801017D01*
X126100936Y-96834159D01*
X125988963Y-96850359D01*
X125928520Y-96849521D01*
X125903887Y-96831549D01*
X125899333Y-96798674D01*
X125940051Y-96751060D01*
X126055761Y-96706847D01*
X126118696Y-96691637D01*
X126293686Y-96644586D01*
X126397556Y-96589569D01*
X126443845Y-96517417D01*
X126449667Y-96467551D01*
X126443250Y-96422899D01*
X126411490Y-96400959D01*
X126335623Y-96397983D01*
X126196886Y-96410224D01*
X126174500Y-96412604D01*
X126023529Y-96425615D01*
X125938996Y-96422621D01*
X125903834Y-96401581D01*
X125899333Y-96379726D01*
X125934740Y-96334395D01*
X126044984Y-96295073D01*
X126154739Y-96272391D01*
X126300152Y-96251891D01*
X126416501Y-96244659D01*
X126468966Y-96249974D01*
X126542095Y-96315802D01*
X126551090Y-96418066D01*
X126514127Y-96503308D01*
X126459201Y-96600140D01*
X126461217Y-96640069D01*
X126516242Y-96630510D01*
X126566666Y-96631219D01*
X126568988Y-96676776D01*
X126531182Y-96725281D01*
G36*
X126534501Y-97211945D02*
X126408626Y-97251552D01*
X126282762Y-97275796D01*
X126102642Y-97304750D01*
X125990101Y-97318929D01*
X125929279Y-97317911D01*
X125904313Y-97301270D01*
X125899343Y-97268582D01*
X125899333Y-97265544D01*
X125937763Y-97218396D01*
X126037549Y-97181210D01*
X126057304Y-97177120D01*
X126232668Y-97130887D01*
X126342645Y-97064895D01*
X126406117Y-96967568D01*
X126408312Y-96961926D01*
X126459928Y-96884296D01*
X126512119Y-96858666D01*
X126569658Y-96881586D01*
X126559046Y-96944459D01*
X126492000Y-97028000D01*
X126434738Y-97088688D01*
X126437343Y-97110060D01*
X126492000Y-97112666D01*
X126560674Y-97136551D01*
X126576667Y-97169962D01*
X126534501Y-97211945D01*
X126534501Y-97211945D01*
G37*
X126534501Y-97211945D02*
X126408626Y-97251552D01*
X126282762Y-97275796D01*
X126102642Y-97304750D01*
X125990101Y-97318929D01*
X125929279Y-97317911D01*
X125904313Y-97301270D01*
X125899343Y-97268582D01*
X125899333Y-97265544D01*
X125937763Y-97218396D01*
X126037549Y-97181210D01*
X126057304Y-97177120D01*
X126232668Y-97130887D01*
X126342645Y-97064895D01*
X126406117Y-96967568D01*
X126408312Y-96961926D01*
X126459928Y-96884296D01*
X126512119Y-96858666D01*
X126569658Y-96881586D01*
X126559046Y-96944459D01*
X126492000Y-97028000D01*
X126434738Y-97088688D01*
X126437343Y-97110060D01*
X126492000Y-97112666D01*
X126560674Y-97136551D01*
X126576667Y-97169962D01*
X126534501Y-97211945D01*
G36*
X126536865Y-97814130D02*
X126456372Y-97923095D01*
X126435410Y-97939154D01*
X126305058Y-97993248D01*
X126159200Y-98000509D01*
X126030510Y-97963130D01*
X125965234Y-97907580D01*
X125905966Y-97781771D01*
X125922268Y-97662795D01*
X125968254Y-97583441D01*
X126025808Y-97520728D01*
X126065230Y-97531214D01*
X126070202Y-97538484D01*
X126077595Y-97614848D01*
X126058101Y-97664187D01*
X126032751Y-97757835D01*
X126060114Y-97838993D01*
X126128781Y-97874643D01*
X126130838Y-97874666D01*
X126171367Y-97853274D01*
X126191243Y-97778123D01*
X126195667Y-97663000D01*
X126198467Y-97537692D01*
X126215537Y-97475205D01*
X126259877Y-97453702D01*
X126321691Y-97451333D01*
X126354417Y-97460349D01*
X126354417Y-97586245D01*
X126304163Y-97593383D01*
X126283143Y-97653504D01*
X126280333Y-97724885D01*
X126284762Y-97823223D01*
X126307331Y-97853930D01*
X126361964Y-97833937D01*
X126367569Y-97830958D01*
X126429616Y-97762635D01*
X126439116Y-97675944D01*
X126397927Y-97605504D01*
X126354417Y-97586245D01*
X126354417Y-97460349D01*
X126445413Y-97485421D01*
X126526064Y-97572467D01*
X126558322Y-97689646D01*
X126536865Y-97814130D01*
X126536865Y-97814130D01*
G37*
X126536865Y-97814130D02*
X126456372Y-97923095D01*
X126435410Y-97939154D01*
X126305058Y-97993248D01*
X126159200Y-98000509D01*
X126030510Y-97963130D01*
X125965234Y-97907580D01*
X125905966Y-97781771D01*
X125922268Y-97662795D01*
X125968254Y-97583441D01*
X126025808Y-97520728D01*
X126065230Y-97531214D01*
X126070202Y-97538484D01*
X126077595Y-97614848D01*
X126058101Y-97664187D01*
X126032751Y-97757835D01*
X126060114Y-97838993D01*
X126128781Y-97874643D01*
X126130838Y-97874666D01*
X126171367Y-97853274D01*
X126191243Y-97778123D01*
X126195667Y-97663000D01*
X126198467Y-97537692D01*
X126215537Y-97475205D01*
X126259877Y-97453702D01*
X126321691Y-97451333D01*
X126354417Y-97460349D01*
X126354417Y-97586245D01*
X126304163Y-97593383D01*
X126283143Y-97653504D01*
X126280333Y-97724885D01*
X126284762Y-97823223D01*
X126307331Y-97853930D01*
X126361964Y-97833937D01*
X126367569Y-97830958D01*
X126429616Y-97762635D01*
X126439116Y-97675944D01*
X126397927Y-97605504D01*
X126354417Y-97586245D01*
X126354417Y-97460349D01*
X126445413Y-97485421D01*
X126526064Y-97572467D01*
X126558322Y-97689646D01*
X126536865Y-97814130D01*
G36*
X126691451Y-98202618D02*
X126640167Y-98240357D01*
X126583950Y-98291132D01*
X126576667Y-98319166D01*
X126542606Y-98380434D01*
X126513167Y-98397975D01*
X126458854Y-98390972D01*
X126449667Y-98355642D01*
X126423951Y-98309024D01*
X126382466Y-98314728D01*
X126237496Y-98355924D01*
X126096629Y-98372679D01*
X125986644Y-98363720D01*
X125938000Y-98335850D01*
X125901379Y-98231030D01*
X125927556Y-98156888D01*
X125989779Y-98130032D01*
X126024824Y-98176941D01*
X126026333Y-98197104D01*
X126048728Y-98244908D01*
X126121583Y-98240015D01*
X126230621Y-98218858D01*
X126289268Y-98213911D01*
X126368788Y-98184675D01*
X126453346Y-98118083D01*
X126526128Y-98059282D01*
X126563348Y-98073188D01*
X126564356Y-98075750D01*
X126618136Y-98124242D01*
X126643695Y-98128666D01*
X126697209Y-98152760D01*
X126691451Y-98202618D01*
X126691451Y-98202618D01*
G37*
X126691451Y-98202618D02*
X126640167Y-98240357D01*
X126583950Y-98291132D01*
X126576667Y-98319166D01*
X126542606Y-98380434D01*
X126513167Y-98397975D01*
X126458854Y-98390972D01*
X126449667Y-98355642D01*
X126423951Y-98309024D01*
X126382466Y-98314728D01*
X126237496Y-98355924D01*
X126096629Y-98372679D01*
X125986644Y-98363720D01*
X125938000Y-98335850D01*
X125901379Y-98231030D01*
X125927556Y-98156888D01*
X125989779Y-98130032D01*
X126024824Y-98176941D01*
X126026333Y-98197104D01*
X126048728Y-98244908D01*
X126121583Y-98240015D01*
X126230621Y-98218858D01*
X126289268Y-98213911D01*
X126368788Y-98184675D01*
X126453346Y-98118083D01*
X126526128Y-98059282D01*
X126563348Y-98073188D01*
X126564356Y-98075750D01*
X126618136Y-98124242D01*
X126643695Y-98128666D01*
X126697209Y-98152760D01*
X126691451Y-98202618D01*
G36*
X126556344Y-98884786D02*
X126510766Y-98965913D01*
X126420097Y-99049737D01*
X126329051Y-99051034D01*
X126244977Y-98971588D01*
X126203106Y-98891138D01*
X126151252Y-98791344D01*
X126104012Y-98738428D01*
X126089833Y-98735703D01*
X126047190Y-98787099D01*
X126033760Y-98878803D01*
X126052743Y-98970548D01*
X126069062Y-98996975D01*
X126095134Y-99070370D01*
X126069293Y-99130844D01*
X126030630Y-99144666D01*
X125989295Y-99108977D01*
X125943760Y-99024035D01*
X125909109Y-98923029D01*
X125899333Y-98855760D01*
X125922744Y-98767010D01*
X125966921Y-98686010D01*
X126056238Y-98609121D01*
X126152002Y-98612286D01*
X126243629Y-98692624D01*
X126291085Y-98774250D01*
X126346770Y-98873171D01*
X126395879Y-98928655D01*
X126407667Y-98933000D01*
X126439115Y-98898628D01*
X126448659Y-98821734D01*
X126436041Y-98741649D01*
X126409182Y-98701309D01*
X126387298Y-98646552D01*
X126395047Y-98607624D01*
X126421097Y-98568138D01*
X126460669Y-98590354D01*
X126499031Y-98634837D01*
X126567963Y-98761516D01*
X126556344Y-98884786D01*
X126556344Y-98884786D01*
G37*
X126556344Y-98884786D02*
X126510766Y-98965913D01*
X126420097Y-99049737D01*
X126329051Y-99051034D01*
X126244977Y-98971588D01*
X126203106Y-98891138D01*
X126151252Y-98791344D01*
X126104012Y-98738428D01*
X126089833Y-98735703D01*
X126047190Y-98787099D01*
X126033760Y-98878803D01*
X126052743Y-98970548D01*
X126069062Y-98996975D01*
X126095134Y-99070370D01*
X126069293Y-99130844D01*
X126030630Y-99144666D01*
X125989295Y-99108977D01*
X125943760Y-99024035D01*
X125909109Y-98923029D01*
X125899333Y-98855760D01*
X125922744Y-98767010D01*
X125966921Y-98686010D01*
X126056238Y-98609121D01*
X126152002Y-98612286D01*
X126243629Y-98692624D01*
X126291085Y-98774250D01*
X126346770Y-98873171D01*
X126395879Y-98928655D01*
X126407667Y-98933000D01*
X126439115Y-98898628D01*
X126448659Y-98821734D01*
X126436041Y-98741649D01*
X126409182Y-98701309D01*
X126387298Y-98646552D01*
X126395047Y-98607624D01*
X126421097Y-98568138D01*
X126460669Y-98590354D01*
X126499031Y-98634837D01*
X126567963Y-98761516D01*
X126556344Y-98884786D01*
G36*
X126555282Y-99563696D02*
X126508268Y-99646814D01*
X126445857Y-99710998D01*
X126395407Y-99699977D01*
X126393968Y-99698567D01*
X126372529Y-99639970D01*
X126398867Y-99601866D01*
X126444546Y-99523900D01*
X126445404Y-99448788D01*
X126404963Y-99406914D01*
X126376228Y-99406601D01*
X126313092Y-99461201D01*
X126276342Y-99583448D01*
X126228884Y-99729362D01*
X126151599Y-99808409D01*
X126055664Y-99814394D01*
X125965857Y-99755476D01*
X125907711Y-99674100D01*
X125913079Y-99587951D01*
X125943156Y-99522883D01*
X125965356Y-99455488D01*
X125943156Y-99441000D01*
X125902601Y-99407521D01*
X125899333Y-99387185D01*
X125938938Y-99348984D01*
X126047548Y-99309097D01*
X126097674Y-99297410D01*
X126097674Y-99443168D01*
X126054556Y-99469222D01*
X126028735Y-99540079D01*
X126034879Y-99629068D01*
X126054188Y-99666410D01*
X126104340Y-99670565D01*
X126159106Y-99621553D01*
X126193229Y-99545424D01*
X126195667Y-99520483D01*
X126164901Y-99454486D01*
X126097674Y-99443168D01*
X126097674Y-99297410D01*
X126163917Y-99281963D01*
X126309771Y-99255901D01*
X126397592Y-99250678D01*
X126452051Y-99269015D01*
X126497820Y-99313630D01*
X126502583Y-99319301D01*
X126568705Y-99440874D01*
X126555282Y-99563696D01*
X126555282Y-99563696D01*
G37*
X126555282Y-99563696D02*
X126508268Y-99646814D01*
X126445857Y-99710998D01*
X126395407Y-99699977D01*
X126393968Y-99698567D01*
X126372529Y-99639970D01*
X126398867Y-99601866D01*
X126444546Y-99523900D01*
X126445404Y-99448788D01*
X126404963Y-99406914D01*
X126376228Y-99406601D01*
X126313092Y-99461201D01*
X126276342Y-99583448D01*
X126228884Y-99729362D01*
X126151599Y-99808409D01*
X126055664Y-99814394D01*
X125965857Y-99755476D01*
X125907711Y-99674100D01*
X125913079Y-99587951D01*
X125943156Y-99522883D01*
X125965356Y-99455488D01*
X125943156Y-99441000D01*
X125902601Y-99407521D01*
X125899333Y-99387185D01*
X125938938Y-99348984D01*
X126047548Y-99309097D01*
X126097674Y-99297410D01*
X126097674Y-99443168D01*
X126054556Y-99469222D01*
X126028735Y-99540079D01*
X126034879Y-99629068D01*
X126054188Y-99666410D01*
X126104340Y-99670565D01*
X126159106Y-99621553D01*
X126193229Y-99545424D01*
X126195667Y-99520483D01*
X126164901Y-99454486D01*
X126097674Y-99443168D01*
X126097674Y-99297410D01*
X126163917Y-99281963D01*
X126309771Y-99255901D01*
X126397592Y-99250678D01*
X126452051Y-99269015D01*
X126497820Y-99313630D01*
X126502583Y-99319301D01*
X126568705Y-99440874D01*
X126555282Y-99563696D01*
G36*
X126547982Y-100248740D02*
X126476711Y-100350160D01*
X126452923Y-100375589D01*
X126310098Y-100476143D01*
X126168600Y-100498469D01*
X126040201Y-100442256D01*
X125987073Y-100387790D01*
X125919762Y-100285879D01*
X125907822Y-100198603D01*
X125941384Y-100090915D01*
X125996306Y-99987926D01*
X126037839Y-99966037D01*
X126055922Y-100022660D01*
X126047520Y-100118214D01*
X126035452Y-100248401D01*
X126057056Y-100319208D01*
X126074644Y-100334590D01*
X126139572Y-100365463D01*
X126176337Y-100346650D01*
X126192493Y-100265973D01*
X126195667Y-100139500D01*
X126198414Y-100006151D01*
X126212934Y-99936718D01*
X126248645Y-99910481D01*
X126301500Y-99906666D01*
X126302128Y-99906848D01*
X126302128Y-100049747D01*
X126282981Y-100106046D01*
X126280333Y-100177304D01*
X126284664Y-100277084D01*
X126295349Y-100328229D01*
X126298038Y-100330000D01*
X126396038Y-100293447D01*
X126447461Y-100203164D01*
X126449667Y-100177304D01*
X126443340Y-100099841D01*
X126431963Y-100076000D01*
X126382200Y-100062830D01*
X126347296Y-100050304D01*
X126302128Y-100049747D01*
X126302128Y-99906848D01*
X126421057Y-99941432D01*
X126521769Y-100027520D01*
X126574425Y-100137619D01*
X126576667Y-100163923D01*
X126547982Y-100248740D01*
X126547982Y-100248740D01*
G37*
X126547982Y-100248740D02*
X126476711Y-100350160D01*
X126452923Y-100375589D01*
X126310098Y-100476143D01*
X126168600Y-100498469D01*
X126040201Y-100442256D01*
X125987073Y-100387790D01*
X125919762Y-100285879D01*
X125907822Y-100198603D01*
X125941384Y-100090915D01*
X125996306Y-99987926D01*
X126037839Y-99966037D01*
X126055922Y-100022660D01*
X126047520Y-100118214D01*
X126035452Y-100248401D01*
X126057056Y-100319208D01*
X126074644Y-100334590D01*
X126139572Y-100365463D01*
X126176337Y-100346650D01*
X126192493Y-100265973D01*
X126195667Y-100139500D01*
X126198414Y-100006151D01*
X126212934Y-99936718D01*
X126248645Y-99910481D01*
X126301500Y-99906666D01*
X126302128Y-99906848D01*
X126302128Y-100049747D01*
X126282981Y-100106046D01*
X126280333Y-100177304D01*
X126284664Y-100277084D01*
X126295349Y-100328229D01*
X126298038Y-100330000D01*
X126396038Y-100293447D01*
X126447461Y-100203164D01*
X126449667Y-100177304D01*
X126443340Y-100099841D01*
X126431963Y-100076000D01*
X126382200Y-100062830D01*
X126347296Y-100050304D01*
X126302128Y-100049747D01*
X126302128Y-99906848D01*
X126421057Y-99941432D01*
X126521769Y-100027520D01*
X126574425Y-100137619D01*
X126576667Y-100163923D01*
X126547982Y-100248740D01*
G36*
X126552816Y-100825553D02*
X126531833Y-100871003D01*
X126474551Y-100986166D01*
X126458826Y-100864864D01*
X126443460Y-100789508D01*
X126406881Y-100759666D01*
X126323605Y-100762989D01*
X126266467Y-100771638D01*
X126129667Y-100795430D01*
X126013595Y-100818947D01*
X125994583Y-100823446D01*
X125920117Y-100816880D01*
X125896539Y-100769724D01*
X125930774Y-100713743D01*
X125966435Y-100694309D01*
X126045783Y-100674674D01*
X126173617Y-100653196D01*
X126253638Y-100642691D01*
X126395819Y-100632670D01*
X126481160Y-100647333D01*
X126531427Y-100686331D01*
X126566763Y-100750509D01*
X126552816Y-100825553D01*
X126552816Y-100825553D01*
G37*
X126552816Y-100825553D02*
X126531833Y-100871003D01*
X126474551Y-100986166D01*
X126458826Y-100864864D01*
X126443460Y-100789508D01*
X126406881Y-100759666D01*
X126323605Y-100762989D01*
X126266467Y-100771638D01*
X126129667Y-100795430D01*
X126013595Y-100818947D01*
X125994583Y-100823446D01*
X125920117Y-100816880D01*
X125896539Y-100769724D01*
X125930774Y-100713743D01*
X125966435Y-100694309D01*
X126045783Y-100674674D01*
X126173617Y-100653196D01*
X126253638Y-100642691D01*
X126395819Y-100632670D01*
X126481160Y-100647333D01*
X126531427Y-100686331D01*
X126566763Y-100750509D01*
X126552816Y-100825553D01*
G36*
X126758924Y-101058994D02*
X126665229Y-101095245D01*
X126499051Y-101133849D01*
X126396750Y-101153018D01*
X126219825Y-101185425D01*
X126072047Y-101214085D01*
X125975073Y-101234725D01*
X125952250Y-101240754D01*
X125908426Y-101222279D01*
X125899333Y-101182416D01*
X125919578Y-101133182D01*
X125991014Y-101095086D01*
X126129694Y-101059872D01*
X126142750Y-101057218D01*
X126410870Y-101007660D01*
X126603322Y-100982529D01*
X126725417Y-100981538D01*
X126782467Y-101004401D01*
X126788333Y-101022359D01*
X126758924Y-101058994D01*
X126758924Y-101058994D01*
G37*
X126758924Y-101058994D02*
X126665229Y-101095245D01*
X126499051Y-101133849D01*
X126396750Y-101153018D01*
X126219825Y-101185425D01*
X126072047Y-101214085D01*
X125975073Y-101234725D01*
X125952250Y-101240754D01*
X125908426Y-101222279D01*
X125899333Y-101182416D01*
X125919578Y-101133182D01*
X125991014Y-101095086D01*
X126129694Y-101059872D01*
X126142750Y-101057218D01*
X126410870Y-101007660D01*
X126603322Y-100982529D01*
X126725417Y-100981538D01*
X126782467Y-101004401D01*
X126788333Y-101022359D01*
X126758924Y-101058994D01*
G36*
X126694337Y-101414995D02*
X126639226Y-101489051D01*
X126637568Y-101490718D01*
X126581050Y-101586852D01*
X126566784Y-101652491D01*
X126535972Y-101753069D01*
X126474133Y-101848674D01*
X126386167Y-101949183D01*
X126481417Y-101919905D01*
X126555970Y-101911978D01*
X126576667Y-101956174D01*
X126540685Y-102014954D01*
X126481417Y-102041740D01*
X126342034Y-102070348D01*
X126191452Y-102100219D01*
X126054188Y-102126623D01*
X125954762Y-102144832D01*
X125918416Y-102150333D01*
X125901230Y-102115966D01*
X125899333Y-102089686D01*
X125908170Y-102051350D01*
X125946795Y-102022274D01*
X126033381Y-101993909D01*
X126174263Y-101960364D01*
X126323855Y-101905847D01*
X126397337Y-101824450D01*
X126407333Y-101767677D01*
X126426965Y-101696155D01*
X126448310Y-101677611D01*
X126466352Y-101636512D01*
X126452619Y-101604472D01*
X126415199Y-101571553D01*
X126346703Y-101568363D01*
X126223163Y-101593995D01*
X126216914Y-101595563D01*
X126078765Y-101622637D01*
X125994472Y-101616738D01*
X125958605Y-101596490D01*
X125910727Y-101525000D01*
X125902930Y-101446115D01*
X125935099Y-101394016D01*
X125959306Y-101388333D01*
X126023318Y-101415916D01*
X126034716Y-101434648D01*
X126082435Y-101460416D01*
X126178449Y-101461845D01*
X126291780Y-101444331D01*
X126391448Y-101413271D01*
X126446477Y-101374061D01*
X126449667Y-101362359D01*
X126483657Y-101310433D01*
X126513167Y-101303666D01*
X126569464Y-101328916D01*
X126576667Y-101350529D01*
X126607460Y-101378835D01*
X126640167Y-101373024D01*
X126694777Y-101370595D01*
X126694337Y-101414995D01*
X126694337Y-101414995D01*
G37*
X126694337Y-101414995D02*
X126639226Y-101489051D01*
X126637568Y-101490718D01*
X126581050Y-101586852D01*
X126566784Y-101652491D01*
X126535972Y-101753069D01*
X126474133Y-101848674D01*
X126386167Y-101949183D01*
X126481417Y-101919905D01*
X126555970Y-101911978D01*
X126576667Y-101956174D01*
X126540685Y-102014954D01*
X126481417Y-102041740D01*
X126342034Y-102070348D01*
X126191452Y-102100219D01*
X126054188Y-102126623D01*
X125954762Y-102144832D01*
X125918416Y-102150333D01*
X125901230Y-102115966D01*
X125899333Y-102089686D01*
X125908170Y-102051350D01*
X125946795Y-102022274D01*
X126033381Y-101993909D01*
X126174263Y-101960364D01*
X126323855Y-101905847D01*
X126397337Y-101824450D01*
X126407333Y-101767677D01*
X126426965Y-101696155D01*
X126448310Y-101677611D01*
X126466352Y-101636512D01*
X126452619Y-101604472D01*
X126415199Y-101571553D01*
X126346703Y-101568363D01*
X126223163Y-101593995D01*
X126216914Y-101595563D01*
X126078765Y-101622637D01*
X125994472Y-101616738D01*
X125958605Y-101596490D01*
X125910727Y-101525000D01*
X125902930Y-101446115D01*
X125935099Y-101394016D01*
X125959306Y-101388333D01*
X126023318Y-101415916D01*
X126034716Y-101434648D01*
X126082435Y-101460416D01*
X126178449Y-101461845D01*
X126291780Y-101444331D01*
X126391448Y-101413271D01*
X126446477Y-101374061D01*
X126449667Y-101362359D01*
X126483657Y-101310433D01*
X126513167Y-101303666D01*
X126569464Y-101328916D01*
X126576667Y-101350529D01*
X126607460Y-101378835D01*
X126640167Y-101373024D01*
X126694777Y-101370595D01*
X126694337Y-101414995D01*
G36*
X126540842Y-102665669D02*
X126461723Y-102786583D01*
X126436895Y-102806447D01*
X126305817Y-102861183D01*
X126159629Y-102868893D01*
X126030758Y-102831676D01*
X125965234Y-102775913D01*
X125909435Y-102658979D01*
X125916204Y-102535189D01*
X125941962Y-102460017D01*
X126023547Y-102354583D01*
X126149361Y-102290919D01*
X126292181Y-102272753D01*
X126314177Y-102277904D01*
X126314177Y-102412306D01*
X126166866Y-102421929D01*
X126068563Y-102482972D01*
X126033021Y-102585803D01*
X126034380Y-102608263D01*
X126065983Y-102697860D01*
X126149396Y-102733409D01*
X126161823Y-102735026D01*
X126309134Y-102725403D01*
X126407438Y-102664360D01*
X126442979Y-102561529D01*
X126441621Y-102539069D01*
X126410017Y-102449472D01*
X126326605Y-102413923D01*
X126314177Y-102412306D01*
X126314177Y-102277904D01*
X126424782Y-102303811D01*
X126515932Y-102381446D01*
X126561040Y-102519183D01*
X126540842Y-102665669D01*
X126540842Y-102665669D01*
G37*
X126540842Y-102665669D02*
X126461723Y-102786583D01*
X126436895Y-102806447D01*
X126305817Y-102861183D01*
X126159629Y-102868893D01*
X126030758Y-102831676D01*
X125965234Y-102775913D01*
X125909435Y-102658979D01*
X125916204Y-102535189D01*
X125941962Y-102460017D01*
X126023547Y-102354583D01*
X126149361Y-102290919D01*
X126292181Y-102272753D01*
X126314177Y-102277904D01*
X126314177Y-102412306D01*
X126166866Y-102421929D01*
X126068563Y-102482972D01*
X126033021Y-102585803D01*
X126034380Y-102608263D01*
X126065983Y-102697860D01*
X126149396Y-102733409D01*
X126161823Y-102735026D01*
X126309134Y-102725403D01*
X126407438Y-102664360D01*
X126442979Y-102561529D01*
X126441621Y-102539069D01*
X126410017Y-102449472D01*
X126326605Y-102413923D01*
X126314177Y-102412306D01*
X126314177Y-102277904D01*
X126424782Y-102303811D01*
X126515932Y-102381446D01*
X126561040Y-102519183D01*
X126540842Y-102665669D01*
G36*
X126734401Y-103606468D02*
X126592752Y-103652567D01*
X126396750Y-103693862D01*
X126219935Y-103727193D01*
X126072214Y-103756247D01*
X125975201Y-103776717D01*
X125952250Y-103782452D01*
X125908533Y-103762306D01*
X125899333Y-103722128D01*
X125915961Y-103677652D01*
X125976343Y-103642523D01*
X126096229Y-103609720D01*
X126197077Y-103589400D01*
X126336967Y-103558285D01*
X126431689Y-103527951D01*
X126463286Y-103504337D01*
X126461660Y-103501915D01*
X126407648Y-103470360D01*
X126299499Y-103418967D01*
X126174500Y-103364744D01*
X126015472Y-103286075D01*
X125925471Y-103213945D01*
X125908279Y-103153748D01*
X125967678Y-103110875D01*
X125991771Y-103104217D01*
X126122534Y-103075234D01*
X126282418Y-103041799D01*
X126448303Y-103008480D01*
X126597069Y-102979844D01*
X126705596Y-102960459D01*
X126748768Y-102954666D01*
X126792012Y-102976981D01*
X126782188Y-103027013D01*
X126732183Y-103079394D01*
X126671917Y-103105940D01*
X126557235Y-103133352D01*
X126411646Y-103170506D01*
X126365000Y-103182862D01*
X126174500Y-103233897D01*
X126481417Y-103354970D01*
X126665783Y-103435183D01*
X126770008Y-103501413D01*
X126793184Y-103557296D01*
X126734401Y-103606468D01*
X126734401Y-103606468D01*
G37*
X126734401Y-103606468D02*
X126592752Y-103652567D01*
X126396750Y-103693862D01*
X126219935Y-103727193D01*
X126072214Y-103756247D01*
X125975201Y-103776717D01*
X125952250Y-103782452D01*
X125908533Y-103762306D01*
X125899333Y-103722128D01*
X125915961Y-103677652D01*
X125976343Y-103642523D01*
X126096229Y-103609720D01*
X126197077Y-103589400D01*
X126336967Y-103558285D01*
X126431689Y-103527951D01*
X126463286Y-103504337D01*
X126461660Y-103501915D01*
X126407648Y-103470360D01*
X126299499Y-103418967D01*
X126174500Y-103364744D01*
X126015472Y-103286075D01*
X125925471Y-103213945D01*
X125908279Y-103153748D01*
X125967678Y-103110875D01*
X125991771Y-103104217D01*
X126122534Y-103075234D01*
X126282418Y-103041799D01*
X126448303Y-103008480D01*
X126597069Y-102979844D01*
X126705596Y-102960459D01*
X126748768Y-102954666D01*
X126792012Y-102976981D01*
X126782188Y-103027013D01*
X126732183Y-103079394D01*
X126671917Y-103105940D01*
X126557235Y-103133352D01*
X126411646Y-103170506D01*
X126365000Y-103182862D01*
X126174500Y-103233897D01*
X126481417Y-103354970D01*
X126665783Y-103435183D01*
X126770008Y-103501413D01*
X126793184Y-103557296D01*
X126734401Y-103606468D01*
G36*
X126676748Y-104323222D02*
X126640167Y-104366785D01*
X126588120Y-104438283D01*
X126576667Y-104475642D01*
X126547046Y-104515227D01*
X126487436Y-104514746D01*
X126441718Y-104475510D01*
X126440246Y-104471571D01*
X126408104Y-104445777D01*
X126327290Y-104449754D01*
X126220823Y-104473245D01*
X126081325Y-104500854D01*
X125996166Y-104495874D01*
X125958605Y-104475157D01*
X125910727Y-104403667D01*
X125902930Y-104324782D01*
X125935099Y-104272683D01*
X125959306Y-104267000D01*
X126023318Y-104294582D01*
X126034716Y-104313315D01*
X126082435Y-104339083D01*
X126178449Y-104340511D01*
X126291780Y-104322997D01*
X126391448Y-104291937D01*
X126446477Y-104252728D01*
X126449667Y-104241026D01*
X126483657Y-104189099D01*
X126513167Y-104182333D01*
X126569464Y-104207583D01*
X126576667Y-104229195D01*
X126607460Y-104257502D01*
X126640167Y-104251691D01*
X126694750Y-104249378D01*
X126703667Y-104265304D01*
X126676748Y-104323222D01*
X126676748Y-104323222D01*
G37*
X126676748Y-104323222D02*
X126640167Y-104366785D01*
X126588120Y-104438283D01*
X126576667Y-104475642D01*
X126547046Y-104515227D01*
X126487436Y-104514746D01*
X126441718Y-104475510D01*
X126440246Y-104471571D01*
X126408104Y-104445777D01*
X126327290Y-104449754D01*
X126220823Y-104473245D01*
X126081325Y-104500854D01*
X125996166Y-104495874D01*
X125958605Y-104475157D01*
X125910727Y-104403667D01*
X125902930Y-104324782D01*
X125935099Y-104272683D01*
X125959306Y-104267000D01*
X126023318Y-104294582D01*
X126034716Y-104313315D01*
X126082435Y-104339083D01*
X126178449Y-104340511D01*
X126291780Y-104322997D01*
X126391448Y-104291937D01*
X126446477Y-104252728D01*
X126449667Y-104241026D01*
X126483657Y-104189099D01*
X126513167Y-104182333D01*
X126569464Y-104207583D01*
X126576667Y-104229195D01*
X126607460Y-104257502D01*
X126640167Y-104251691D01*
X126694750Y-104249378D01*
X126703667Y-104265304D01*
X126676748Y-104323222D01*
G36*
X126555282Y-104982362D02*
X126508268Y-105065481D01*
X126445857Y-105129665D01*
X126395407Y-105118643D01*
X126393968Y-105117234D01*
X126372529Y-105058637D01*
X126398867Y-105020533D01*
X126444546Y-104942567D01*
X126445404Y-104867454D01*
X126404963Y-104825580D01*
X126376228Y-104825268D01*
X126313092Y-104879868D01*
X126276342Y-105002115D01*
X126228884Y-105148029D01*
X126151599Y-105227076D01*
X126055664Y-105233061D01*
X125965857Y-105174142D01*
X125907711Y-105092767D01*
X125913079Y-105006617D01*
X125943156Y-104941550D01*
X125965356Y-104874155D01*
X125943156Y-104859666D01*
X125902601Y-104826187D01*
X125899333Y-104805852D01*
X125938938Y-104767651D01*
X126047548Y-104727764D01*
X126097674Y-104716077D01*
X126097674Y-104861835D01*
X126054556Y-104887888D01*
X126028735Y-104958745D01*
X126034879Y-105047735D01*
X126054188Y-105085077D01*
X126104340Y-105089232D01*
X126159106Y-105040219D01*
X126193229Y-104964091D01*
X126195667Y-104939149D01*
X126164901Y-104873153D01*
X126097674Y-104861835D01*
X126097674Y-104716077D01*
X126163917Y-104700630D01*
X126309771Y-104674568D01*
X126397592Y-104669345D01*
X126452051Y-104687681D01*
X126497820Y-104732297D01*
X126502583Y-104737967D01*
X126568705Y-104859540D01*
X126555282Y-104982362D01*
X126555282Y-104982362D01*
G37*
X126555282Y-104982362D02*
X126508268Y-105065481D01*
X126445857Y-105129665D01*
X126395407Y-105118643D01*
X126393968Y-105117234D01*
X126372529Y-105058637D01*
X126398867Y-105020533D01*
X126444546Y-104942567D01*
X126445404Y-104867454D01*
X126404963Y-104825580D01*
X126376228Y-104825268D01*
X126313092Y-104879868D01*
X126276342Y-105002115D01*
X126228884Y-105148029D01*
X126151599Y-105227076D01*
X126055664Y-105233061D01*
X125965857Y-105174142D01*
X125907711Y-105092767D01*
X125913079Y-105006617D01*
X125943156Y-104941550D01*
X125965356Y-104874155D01*
X125943156Y-104859666D01*
X125902601Y-104826187D01*
X125899333Y-104805852D01*
X125938938Y-104767651D01*
X126047548Y-104727764D01*
X126097674Y-104716077D01*
X126097674Y-104861835D01*
X126054556Y-104887888D01*
X126028735Y-104958745D01*
X126034879Y-105047735D01*
X126054188Y-105085077D01*
X126104340Y-105089232D01*
X126159106Y-105040219D01*
X126193229Y-104964091D01*
X126195667Y-104939149D01*
X126164901Y-104873153D01*
X126097674Y-104861835D01*
X126097674Y-104716077D01*
X126163917Y-104700630D01*
X126309771Y-104674568D01*
X126397592Y-104669345D01*
X126452051Y-104687681D01*
X126497820Y-104732297D01*
X126502583Y-104737967D01*
X126568705Y-104859540D01*
X126555282Y-104982362D01*
G36*
X126745502Y-91073140D02*
X126696588Y-91088907D01*
X126663670Y-91045518D01*
X126661333Y-91020194D01*
X126688226Y-90947420D01*
X126727938Y-90932000D01*
X126778801Y-90963739D01*
X126780854Y-91002575D01*
X126745502Y-91073140D01*
X126745502Y-91073140D01*
G37*
X126745502Y-91073140D02*
X126696588Y-91088907D01*
X126663670Y-91045518D01*
X126661333Y-91020194D01*
X126688226Y-90947420D01*
X126727938Y-90932000D01*
X126778801Y-90963739D01*
X126780854Y-91002575D01*
X126745502Y-91073140D01*
G36*
X126745502Y-93951807D02*
X126696588Y-93967574D01*
X126663670Y-93924184D01*
X126661333Y-93898861D01*
X126688226Y-93826087D01*
X126727938Y-93810666D01*
X126778801Y-93842406D01*
X126780854Y-93881241D01*
X126745502Y-93951807D01*
X126745502Y-93951807D01*
G37*
X126745502Y-93951807D02*
X126696588Y-93967574D01*
X126663670Y-93924184D01*
X126661333Y-93898861D01*
X126688226Y-93826087D01*
X126727938Y-93810666D01*
X126778801Y-93842406D01*
X126780854Y-93881241D01*
X126745502Y-93951807D01*
G36*
X136207500Y-93446254D02*
X131910667Y-95067232D01*
X131333772Y-95284762D01*
X130779059Y-95493727D01*
X130251671Y-95692200D01*
X129756745Y-95878256D01*
X129299423Y-96049970D01*
X128884844Y-96205416D01*
X128518149Y-96342668D01*
X128204477Y-96459802D01*
X127948969Y-96554891D01*
X127756765Y-96626010D01*
X127633004Y-96671233D01*
X127582828Y-96688635D01*
X127582083Y-96688771D01*
X127574362Y-96648251D01*
X127567318Y-96533094D01*
X127561188Y-96353329D01*
X127556209Y-96118983D01*
X127552614Y-95840087D01*
X127550642Y-95526667D01*
X127550333Y-95338789D01*
X127550333Y-93988246D01*
X127857250Y-93896514D01*
X128040654Y-93841425D01*
X128266216Y-93773281D01*
X128495138Y-93703813D01*
X128576917Y-93678906D01*
X128989667Y-93553030D01*
X128989193Y-90487500D01*
X128280346Y-90274354D01*
X127571500Y-90061209D01*
X127560352Y-88660148D01*
X127549205Y-87259086D01*
X130629519Y-88418799D01*
X130902503Y-88521563D01*
X130902503Y-91073282D01*
X130884354Y-91089777D01*
X130871181Y-91134786D01*
X130862196Y-91218244D01*
X130856610Y-91350085D01*
X130853634Y-91540243D01*
X130852480Y-91798654D01*
X130852333Y-92008647D01*
X130853383Y-92282837D01*
X130856324Y-92526282D01*
X130860848Y-92727053D01*
X130866642Y-92873218D01*
X130873398Y-92952847D01*
X130877185Y-92964000D01*
X130920679Y-92952201D01*
X131034213Y-92919013D01*
X131206845Y-92867746D01*
X131427630Y-92801711D01*
X131685625Y-92724217D01*
X131969888Y-92638576D01*
X132269474Y-92548098D01*
X132573441Y-92456094D01*
X132870844Y-92365873D01*
X133150741Y-92280747D01*
X133402189Y-92204027D01*
X133614244Y-92139022D01*
X133775963Y-92089043D01*
X133876402Y-92057400D01*
X133900333Y-92049450D01*
X133942596Y-92025983D01*
X133906983Y-91996411D01*
X133900333Y-91992798D01*
X133849414Y-91974549D01*
X133727637Y-91934915D01*
X133545182Y-91877036D01*
X133312229Y-91804054D01*
X133038956Y-91719108D01*
X132735544Y-91625339D01*
X132412171Y-91525886D01*
X132079018Y-91423891D01*
X131746263Y-91322493D01*
X131424086Y-91224832D01*
X131122666Y-91134050D01*
X130926417Y-91075366D01*
X130902503Y-91073282D01*
X130902503Y-88521563D01*
X131156323Y-88617113D01*
X131689630Y-88817833D01*
X132219664Y-89017282D01*
X132736646Y-89211781D01*
X133230799Y-89397653D01*
X133692345Y-89571220D01*
X134111505Y-89728806D01*
X134478503Y-89866732D01*
X134783560Y-89981321D01*
X134969790Y-90051225D01*
X136229746Y-90523938D01*
X136207500Y-93446254D01*
X136207500Y-93446254D01*
G37*
X136207500Y-93446254D02*
X131910667Y-95067232D01*
X131333772Y-95284762D01*
X130779059Y-95493727D01*
X130251671Y-95692200D01*
X129756745Y-95878256D01*
X129299423Y-96049970D01*
X128884844Y-96205416D01*
X128518149Y-96342668D01*
X128204477Y-96459802D01*
X127948969Y-96554891D01*
X127756765Y-96626010D01*
X127633004Y-96671233D01*
X127582828Y-96688635D01*
X127582083Y-96688771D01*
X127574362Y-96648251D01*
X127567318Y-96533094D01*
X127561188Y-96353329D01*
X127556209Y-96118983D01*
X127552614Y-95840087D01*
X127550642Y-95526667D01*
X127550333Y-95338789D01*
X127550333Y-93988246D01*
X127857250Y-93896514D01*
X128040654Y-93841425D01*
X128266216Y-93773281D01*
X128495138Y-93703813D01*
X128576917Y-93678906D01*
X128989667Y-93553030D01*
X128989193Y-90487500D01*
X128280346Y-90274354D01*
X127571500Y-90061209D01*
X127560352Y-88660148D01*
X127549205Y-87259086D01*
X130629519Y-88418799D01*
X130902503Y-88521563D01*
X130902503Y-91073282D01*
X130884354Y-91089777D01*
X130871181Y-91134786D01*
X130862196Y-91218244D01*
X130856610Y-91350085D01*
X130853634Y-91540243D01*
X130852480Y-91798654D01*
X130852333Y-92008647D01*
X130853383Y-92282837D01*
X130856324Y-92526282D01*
X130860848Y-92727053D01*
X130866642Y-92873218D01*
X130873398Y-92952847D01*
X130877185Y-92964000D01*
X130920679Y-92952201D01*
X131034213Y-92919013D01*
X131206845Y-92867746D01*
X131427630Y-92801711D01*
X131685625Y-92724217D01*
X131969888Y-92638576D01*
X132269474Y-92548098D01*
X132573441Y-92456094D01*
X132870844Y-92365873D01*
X133150741Y-92280747D01*
X133402189Y-92204027D01*
X133614244Y-92139022D01*
X133775963Y-92089043D01*
X133876402Y-92057400D01*
X133900333Y-92049450D01*
X133942596Y-92025983D01*
X133906983Y-91996411D01*
X133900333Y-91992798D01*
X133849414Y-91974549D01*
X133727637Y-91934915D01*
X133545182Y-91877036D01*
X133312229Y-91804054D01*
X133038956Y-91719108D01*
X132735544Y-91625339D01*
X132412171Y-91525886D01*
X132079018Y-91423891D01*
X131746263Y-91322493D01*
X131424086Y-91224832D01*
X131122666Y-91134050D01*
X130926417Y-91075366D01*
X130902503Y-91073282D01*
X130902503Y-88521563D01*
X131156323Y-88617113D01*
X131689630Y-88817833D01*
X132219664Y-89017282D01*
X132736646Y-89211781D01*
X133230799Y-89397653D01*
X133692345Y-89571220D01*
X134111505Y-89728806D01*
X134478503Y-89866732D01*
X134783560Y-89981321D01*
X134969790Y-90051225D01*
X136229746Y-90523938D01*
X136207500Y-93446254D01*
G36*
X136207500Y-104114254D02*
X131910667Y-105735232D01*
X131333772Y-105952762D01*
X130779059Y-106161727D01*
X130251671Y-106360200D01*
X129756745Y-106546256D01*
X129299423Y-106717970D01*
X128884844Y-106873416D01*
X128518149Y-107010668D01*
X128204477Y-107127802D01*
X127948969Y-107222891D01*
X127756765Y-107294010D01*
X127633004Y-107339233D01*
X127582828Y-107356635D01*
X127582083Y-107356771D01*
X127574362Y-107316251D01*
X127567318Y-107201094D01*
X127561188Y-107021329D01*
X127556209Y-106786983D01*
X127552614Y-106508087D01*
X127550642Y-106194667D01*
X127550333Y-106006789D01*
X127550333Y-104656246D01*
X127857250Y-104564514D01*
X128040654Y-104509425D01*
X128266216Y-104441281D01*
X128495138Y-104371813D01*
X128576917Y-104346906D01*
X128989667Y-104221030D01*
X128989193Y-101155500D01*
X128280346Y-100942354D01*
X127571500Y-100729209D01*
X127560352Y-99328148D01*
X127549205Y-97927086D01*
X130629519Y-99086799D01*
X130902503Y-99189563D01*
X130902503Y-101741282D01*
X130884354Y-101757777D01*
X130871181Y-101802786D01*
X130862196Y-101886244D01*
X130856610Y-102018085D01*
X130853634Y-102208243D01*
X130852480Y-102466654D01*
X130852333Y-102676647D01*
X130853383Y-102950837D01*
X130856324Y-103194282D01*
X130860848Y-103395053D01*
X130866642Y-103541218D01*
X130873398Y-103620847D01*
X130877185Y-103632000D01*
X130920679Y-103620201D01*
X131034213Y-103587013D01*
X131206845Y-103535746D01*
X131427630Y-103469711D01*
X131685625Y-103392217D01*
X131969888Y-103306576D01*
X132269474Y-103216098D01*
X132573441Y-103124094D01*
X132870844Y-103033873D01*
X133150741Y-102948747D01*
X133402189Y-102872027D01*
X133614244Y-102807022D01*
X133775963Y-102757043D01*
X133876402Y-102725400D01*
X133900333Y-102717450D01*
X133942596Y-102693983D01*
X133906983Y-102664411D01*
X133900333Y-102660798D01*
X133849414Y-102642549D01*
X133727637Y-102602915D01*
X133545182Y-102545036D01*
X133312229Y-102472054D01*
X133038956Y-102387108D01*
X132735544Y-102293339D01*
X132412171Y-102193886D01*
X132079018Y-102091891D01*
X131746263Y-101990493D01*
X131424086Y-101892832D01*
X131122666Y-101802050D01*
X130926417Y-101743366D01*
X130902503Y-101741282D01*
X130902503Y-99189563D01*
X131156323Y-99285113D01*
X131689630Y-99485833D01*
X132219664Y-99685282D01*
X132736646Y-99879781D01*
X133230799Y-100065653D01*
X133692345Y-100239220D01*
X134111505Y-100396806D01*
X134478503Y-100534732D01*
X134783560Y-100649321D01*
X134969790Y-100719225D01*
X136229746Y-101191938D01*
X136207500Y-104114254D01*
X136207500Y-104114254D01*
G37*
X136207500Y-104114254D02*
X131910667Y-105735232D01*
X131333772Y-105952762D01*
X130779059Y-106161727D01*
X130251671Y-106360200D01*
X129756745Y-106546256D01*
X129299423Y-106717970D01*
X128884844Y-106873416D01*
X128518149Y-107010668D01*
X128204477Y-107127802D01*
X127948969Y-107222891D01*
X127756765Y-107294010D01*
X127633004Y-107339233D01*
X127582828Y-107356635D01*
X127582083Y-107356771D01*
X127574362Y-107316251D01*
X127567318Y-107201094D01*
X127561188Y-107021329D01*
X127556209Y-106786983D01*
X127552614Y-106508087D01*
X127550642Y-106194667D01*
X127550333Y-106006789D01*
X127550333Y-104656246D01*
X127857250Y-104564514D01*
X128040654Y-104509425D01*
X128266216Y-104441281D01*
X128495138Y-104371813D01*
X128576917Y-104346906D01*
X128989667Y-104221030D01*
X128989193Y-101155500D01*
X128280346Y-100942354D01*
X127571500Y-100729209D01*
X127560352Y-99328148D01*
X127549205Y-97927086D01*
X130629519Y-99086799D01*
X130902503Y-99189563D01*
X130902503Y-101741282D01*
X130884354Y-101757777D01*
X130871181Y-101802786D01*
X130862196Y-101886244D01*
X130856610Y-102018085D01*
X130853634Y-102208243D01*
X130852480Y-102466654D01*
X130852333Y-102676647D01*
X130853383Y-102950837D01*
X130856324Y-103194282D01*
X130860848Y-103395053D01*
X130866642Y-103541218D01*
X130873398Y-103620847D01*
X130877185Y-103632000D01*
X130920679Y-103620201D01*
X131034213Y-103587013D01*
X131206845Y-103535746D01*
X131427630Y-103469711D01*
X131685625Y-103392217D01*
X131969888Y-103306576D01*
X132269474Y-103216098D01*
X132573441Y-103124094D01*
X132870844Y-103033873D01*
X133150741Y-102948747D01*
X133402189Y-102872027D01*
X133614244Y-102807022D01*
X133775963Y-102757043D01*
X133876402Y-102725400D01*
X133900333Y-102717450D01*
X133942596Y-102693983D01*
X133906983Y-102664411D01*
X133900333Y-102660798D01*
X133849414Y-102642549D01*
X133727637Y-102602915D01*
X133545182Y-102545036D01*
X133312229Y-102472054D01*
X133038956Y-102387108D01*
X132735544Y-102293339D01*
X132412171Y-102193886D01*
X132079018Y-102091891D01*
X131746263Y-101990493D01*
X131424086Y-101892832D01*
X131122666Y-101802050D01*
X130926417Y-101743366D01*
X130902503Y-101741282D01*
X130902503Y-99189563D01*
X131156323Y-99285113D01*
X131689630Y-99485833D01*
X132219664Y-99685282D01*
X132736646Y-99879781D01*
X133230799Y-100065653D01*
X133692345Y-100239220D01*
X134111505Y-100396806D01*
X134478503Y-100534732D01*
X134783560Y-100649321D01*
X134969790Y-100719225D01*
X136229746Y-101191938D01*
X136207500Y-104114254D01*
G36*
X136207500Y-120031588D02*
X131910667Y-121652565D01*
X131333772Y-121870096D01*
X130779059Y-122079060D01*
X130251671Y-122277533D01*
X129756745Y-122463590D01*
X129299423Y-122635303D01*
X128884844Y-122790749D01*
X128518149Y-122928002D01*
X128204477Y-123045135D01*
X127948969Y-123140224D01*
X127756765Y-123211343D01*
X127633004Y-123256566D01*
X127582828Y-123273969D01*
X127582083Y-123274105D01*
X127574362Y-123233585D01*
X127567318Y-123118427D01*
X127561188Y-122938662D01*
X127556209Y-122704317D01*
X127552614Y-122425420D01*
X127550642Y-122112000D01*
X127550333Y-121924123D01*
X127550333Y-120573579D01*
X127857250Y-120481847D01*
X128040654Y-120426758D01*
X128266216Y-120358614D01*
X128495138Y-120289146D01*
X128576917Y-120264239D01*
X128989667Y-120138364D01*
X128989430Y-118605598D01*
X128989193Y-117072833D01*
X128280346Y-116859688D01*
X127571500Y-116646543D01*
X127560352Y-115245481D01*
X127549205Y-113844420D01*
X130629519Y-115004132D01*
X130902503Y-115106896D01*
X130902503Y-117658615D01*
X130884354Y-117675111D01*
X130871181Y-117720120D01*
X130862196Y-117803577D01*
X130856610Y-117935418D01*
X130853634Y-118125576D01*
X130852480Y-118383987D01*
X130852333Y-118593980D01*
X130853383Y-118868170D01*
X130856324Y-119111616D01*
X130860848Y-119312386D01*
X130866642Y-119458551D01*
X130873398Y-119538181D01*
X130877185Y-119549333D01*
X130920679Y-119537535D01*
X131034213Y-119504347D01*
X131206845Y-119453080D01*
X131427630Y-119387044D01*
X131685625Y-119309551D01*
X131969888Y-119223909D01*
X132269474Y-119133431D01*
X132573441Y-119041427D01*
X132870844Y-118951206D01*
X133150741Y-118866081D01*
X133402189Y-118789360D01*
X133614244Y-118724355D01*
X133775963Y-118674376D01*
X133876402Y-118642734D01*
X133900333Y-118634784D01*
X133942596Y-118611317D01*
X133906983Y-118581745D01*
X133900333Y-118578132D01*
X133849414Y-118559882D01*
X133727637Y-118520248D01*
X133545182Y-118462370D01*
X133312229Y-118389387D01*
X133038956Y-118304441D01*
X132735544Y-118210672D01*
X132412171Y-118111219D01*
X132079018Y-118009224D01*
X131746263Y-117907826D01*
X131424086Y-117810166D01*
X131122666Y-117719383D01*
X130926417Y-117660699D01*
X130902503Y-117658615D01*
X130902503Y-115106896D01*
X131156323Y-115202447D01*
X131689630Y-115403167D01*
X132219664Y-115602615D01*
X132736646Y-115797114D01*
X133230799Y-115982986D01*
X133692345Y-116156554D01*
X134111505Y-116314139D01*
X134478503Y-116452066D01*
X134783560Y-116566655D01*
X134969790Y-116636558D01*
X136229746Y-117109272D01*
X136207500Y-120031588D01*
X136207500Y-120031588D01*
G37*
X136207500Y-120031588D02*
X131910667Y-121652565D01*
X131333772Y-121870096D01*
X130779059Y-122079060D01*
X130251671Y-122277533D01*
X129756745Y-122463590D01*
X129299423Y-122635303D01*
X128884844Y-122790749D01*
X128518149Y-122928002D01*
X128204477Y-123045135D01*
X127948969Y-123140224D01*
X127756765Y-123211343D01*
X127633004Y-123256566D01*
X127582828Y-123273969D01*
X127582083Y-123274105D01*
X127574362Y-123233585D01*
X127567318Y-123118427D01*
X127561188Y-122938662D01*
X127556209Y-122704317D01*
X127552614Y-122425420D01*
X127550642Y-122112000D01*
X127550333Y-121924123D01*
X127550333Y-120573579D01*
X127857250Y-120481847D01*
X128040654Y-120426758D01*
X128266216Y-120358614D01*
X128495138Y-120289146D01*
X128576917Y-120264239D01*
X128989667Y-120138364D01*
X128989430Y-118605598D01*
X128989193Y-117072833D01*
X128280346Y-116859688D01*
X127571500Y-116646543D01*
X127560352Y-115245481D01*
X127549205Y-113844420D01*
X130629519Y-115004132D01*
X130902503Y-115106896D01*
X130902503Y-117658615D01*
X130884354Y-117675111D01*
X130871181Y-117720120D01*
X130862196Y-117803577D01*
X130856610Y-117935418D01*
X130853634Y-118125576D01*
X130852480Y-118383987D01*
X130852333Y-118593980D01*
X130853383Y-118868170D01*
X130856324Y-119111616D01*
X130860848Y-119312386D01*
X130866642Y-119458551D01*
X130873398Y-119538181D01*
X130877185Y-119549333D01*
X130920679Y-119537535D01*
X131034213Y-119504347D01*
X131206845Y-119453080D01*
X131427630Y-119387044D01*
X131685625Y-119309551D01*
X131969888Y-119223909D01*
X132269474Y-119133431D01*
X132573441Y-119041427D01*
X132870844Y-118951206D01*
X133150741Y-118866081D01*
X133402189Y-118789360D01*
X133614244Y-118724355D01*
X133775963Y-118674376D01*
X133876402Y-118642734D01*
X133900333Y-118634784D01*
X133942596Y-118611317D01*
X133906983Y-118581745D01*
X133900333Y-118578132D01*
X133849414Y-118559882D01*
X133727637Y-118520248D01*
X133545182Y-118462370D01*
X133312229Y-118389387D01*
X133038956Y-118304441D01*
X132735544Y-118210672D01*
X132412171Y-118111219D01*
X132079018Y-118009224D01*
X131746263Y-117907826D01*
X131424086Y-117810166D01*
X131122666Y-117719383D01*
X130926417Y-117660699D01*
X130902503Y-117658615D01*
X130902503Y-115106896D01*
X131156323Y-115202447D01*
X131689630Y-115403167D01*
X132219664Y-115602615D01*
X132736646Y-115797114D01*
X133230799Y-115982986D01*
X133692345Y-116156554D01*
X134111505Y-116314139D01*
X134478503Y-116452066D01*
X134783560Y-116566655D01*
X134969790Y-116636558D01*
X136229746Y-117109272D01*
X136207500Y-120031588D01*
G36*
X142184382Y-120121910D02*
X142160733Y-120152583D01*
X142098943Y-120218398D01*
X142071362Y-120218111D01*
X142070667Y-120210683D01*
X142099596Y-120175346D01*
X142144750Y-120136600D01*
X142194894Y-120099988D01*
X142184382Y-120121910D01*
X142184382Y-120121910D01*
G37*
X142184382Y-120121910D02*
X142160733Y-120152583D01*
X142098943Y-120218398D01*
X142071362Y-120218111D01*
X142070667Y-120210683D01*
X142099596Y-120175346D01*
X142144750Y-120136600D01*
X142194894Y-120099988D01*
X142184382Y-120121910D01*
G36*
X142349876Y-120008459D02*
X142310524Y-120053549D01*
X142301002Y-120057333D01*
X142283602Y-120037242D01*
X142322590Y-119995415D01*
X142331208Y-119989790D01*
X142360176Y-119984801D01*
X142349876Y-120008459D01*
X142349876Y-120008459D01*
G37*
X142349876Y-120008459D02*
X142310524Y-120053549D01*
X142301002Y-120057333D01*
X142283602Y-120037242D01*
X142322590Y-119995415D01*
X142331208Y-119989790D01*
X142360176Y-119984801D01*
X142349876Y-120008459D01*
G36*
X142561543Y-119839125D02*
X142518917Y-119884572D01*
X142494412Y-119875249D01*
X142494000Y-119869331D01*
X142524069Y-119833525D01*
X142542874Y-119820457D01*
X142571843Y-119815467D01*
X142561543Y-119839125D01*
X142561543Y-119839125D01*
G37*
X142561543Y-119839125D02*
X142518917Y-119884572D01*
X142494412Y-119875249D01*
X142494000Y-119869331D01*
X142524069Y-119833525D01*
X142542874Y-119820457D01*
X142571843Y-119815467D01*
X142561543Y-119839125D01*
G36*
X148364222Y-99003555D02*
X148339055Y-98997744D01*
X148336000Y-98975333D01*
X148351489Y-98940488D01*
X148364222Y-98947111D01*
X148369289Y-98997350D01*
X148364222Y-99003555D01*
X148364222Y-99003555D01*
G37*
X148364222Y-99003555D02*
X148339055Y-98997744D01*
X148336000Y-98975333D01*
X148351489Y-98940488D01*
X148364222Y-98947111D01*
X148369289Y-98997350D01*
X148364222Y-99003555D01*
G36*
X148406556Y-99130555D02*
X148381389Y-99124744D01*
X148378333Y-99102333D01*
X148393823Y-99067488D01*
X148406556Y-99074111D01*
X148411622Y-99124350D01*
X148406556Y-99130555D01*
X148406556Y-99130555D01*
G37*
X148406556Y-99130555D02*
X148381389Y-99124744D01*
X148378333Y-99102333D01*
X148393823Y-99067488D01*
X148406556Y-99074111D01*
X148411622Y-99124350D01*
X148406556Y-99130555D01*
G36*
X148441833Y-99229333D02*
X148420667Y-99208166D01*
X148441833Y-99187000D01*
X148463000Y-99208166D01*
X148441833Y-99229333D01*
X148441833Y-99229333D01*
G37*
X148441833Y-99229333D02*
X148420667Y-99208166D01*
X148441833Y-99187000D01*
X148463000Y-99208166D01*
X148441833Y-99229333D01*
G36*
X148484167Y-99356333D02*
X148463000Y-99335166D01*
X148484167Y-99314000D01*
X148505333Y-99335166D01*
X148484167Y-99356333D01*
X148484167Y-99356333D01*
G37*
X148484167Y-99356333D02*
X148463000Y-99335166D01*
X148484167Y-99314000D01*
X148505333Y-99335166D01*
X148484167Y-99356333D01*
G36*
X148526500Y-99483333D02*
X148505333Y-99462166D01*
X148526500Y-99441000D01*
X148547667Y-99462166D01*
X148526500Y-99483333D01*
X148526500Y-99483333D01*
G37*
X148526500Y-99483333D02*
X148505333Y-99462166D01*
X148526500Y-99441000D01*
X148547667Y-99462166D01*
X148526500Y-99483333D01*
G36*
X148568833Y-99610333D02*
X148547667Y-99589166D01*
X148568833Y-99568000D01*
X148590000Y-99589166D01*
X148568833Y-99610333D01*
X148568833Y-99610333D01*
G37*
X148568833Y-99610333D02*
X148547667Y-99589166D01*
X148568833Y-99568000D01*
X148590000Y-99589166D01*
X148568833Y-99610333D01*
M02*
