G04 #@! TF.FileFunction,Copper,L2,Bot,Signal*
%FSLAX46Y46*%
G04 Gerber Fmt 4.6, Leading zero omitted, Abs format (unit mm)*
G04 Created by KiCad (PCBNEW 4.0.6) date Wednesday, July 12, 2017 'AMt' 08:43:24 AM*
%MOMM*%
%LPD*%
G01*
G04 APERTURE LIST*
%ADD10C,0.100000*%
%ADD11C,4.826000*%
%ADD12C,1.778000*%
%ADD13R,1.778000X1.778000*%
%ADD14R,1.600000X1.600000*%
%ADD15C,1.600000*%
%ADD16R,1.727200X1.727200*%
%ADD17O,1.727200X1.727200*%
%ADD18R,2.032000X2.032000*%
%ADD19O,2.032000X2.032000*%
%ADD20R,3.500120X3.500120*%
%ADD21C,1.524000*%
%ADD22C,3.556000*%
%ADD23C,4.064000*%
%ADD24C,0.600000*%
%ADD25C,0.250000*%
%ADD26C,0.762000*%
%ADD27C,0.254000*%
G04 APERTURE END LIST*
D10*
D11*
X168275000Y-103505000D03*
X168275000Y-136525000D03*
X186055000Y-136525000D03*
D12*
X186055000Y-121285000D03*
X186055000Y-123825000D03*
X186055000Y-126365000D03*
X186055000Y-128905000D03*
D13*
X186055000Y-131445000D03*
D12*
X186055000Y-118745000D03*
X186055000Y-116205000D03*
X186055000Y-113665000D03*
X186055000Y-111125000D03*
X186055000Y-108585000D03*
D11*
X186055000Y-103505000D03*
D14*
X192405000Y-97790000D03*
D15*
X192405000Y-100290000D03*
D16*
X136525000Y-129540000D03*
D17*
X136525000Y-132080000D03*
X133985000Y-129540000D03*
X133985000Y-132080000D03*
X131445000Y-129540000D03*
X131445000Y-132080000D03*
D18*
X192405000Y-80645000D03*
D19*
X194945000Y-80645000D03*
D20*
X191284860Y-90805000D03*
X197284340Y-90805000D03*
X194284600Y-86106000D03*
D18*
X200025000Y-109855000D03*
D19*
X200025000Y-112395000D03*
D18*
X195580000Y-112395000D03*
D19*
X195580000Y-109855000D03*
D21*
X178054000Y-81534000D03*
X175514000Y-81534000D03*
X170434000Y-98298000D03*
X172974000Y-98298000D03*
X175514000Y-98298000D03*
X178054000Y-98298000D03*
X180594000Y-98298000D03*
X183134000Y-98298000D03*
D22*
X169164000Y-80010000D03*
X184404000Y-80010000D03*
D21*
X132334000Y-82169000D03*
X129794000Y-82169000D03*
X124714000Y-98933000D03*
X127254000Y-98933000D03*
X129794000Y-98933000D03*
X132334000Y-98933000D03*
X134874000Y-98933000D03*
X137414000Y-98933000D03*
D22*
X123444000Y-80645000D03*
X138684000Y-80645000D03*
D15*
X146685000Y-120015000D03*
X146685000Y-122555000D03*
X146685000Y-125095000D03*
X146685000Y-127635000D03*
X146685000Y-117475000D03*
X146685000Y-114935000D03*
X146685000Y-112395000D03*
X146685000Y-130175000D03*
X146685000Y-132715000D03*
X146685000Y-135255000D03*
X146685000Y-137795000D03*
X149225000Y-125095000D03*
X151765000Y-125095000D03*
X154305000Y-125095000D03*
X156845000Y-125095000D03*
X159385000Y-125095000D03*
X161925000Y-137795000D03*
X161925000Y-135255000D03*
X161925000Y-132715000D03*
X161925000Y-130175000D03*
X161925000Y-127635000D03*
X161925000Y-125095000D03*
X161925000Y-122555000D03*
X161925000Y-120015000D03*
X146685000Y-109855000D03*
X146685000Y-107315000D03*
X146685000Y-104775000D03*
X146685000Y-102235000D03*
X146685000Y-99695000D03*
X146685000Y-97155000D03*
X146685000Y-94615000D03*
X146685000Y-92075000D03*
X146685000Y-89535000D03*
X146685000Y-86995000D03*
X146685000Y-84455000D03*
X146685000Y-81915000D03*
D14*
X146685000Y-79375000D03*
D15*
X161925000Y-117475000D03*
X161925000Y-114935000D03*
X161925000Y-112395000D03*
X161925000Y-109855000D03*
X161925000Y-107315000D03*
X161925000Y-104775000D03*
X161925000Y-102235000D03*
X161925000Y-99695000D03*
X161925000Y-97155000D03*
X161925000Y-94615000D03*
X161925000Y-92075000D03*
X161925000Y-89535000D03*
X161925000Y-86995000D03*
X161925000Y-84455000D03*
X161925000Y-81915000D03*
X161925000Y-79375000D03*
X159385000Y-81915000D03*
X159385000Y-86995000D03*
X159385000Y-89535000D03*
X159385000Y-92075000D03*
X154305000Y-94615000D03*
X154305000Y-97155000D03*
X154305000Y-99695000D03*
X154305000Y-102235000D03*
X154305000Y-117475000D03*
X154305000Y-120015000D03*
X154305000Y-122555000D03*
X154305000Y-127635000D03*
X154305000Y-130175000D03*
X154305000Y-132715000D03*
X154305000Y-135255000D03*
X154305000Y-137795000D03*
X156845000Y-137795000D03*
X156845000Y-135255000D03*
X156845000Y-132715000D03*
X156845000Y-130175000D03*
X156845000Y-127635000D03*
X156845000Y-122555000D03*
X156845000Y-120015000D03*
X156845000Y-117475000D03*
X156845000Y-102235000D03*
X156845000Y-99695000D03*
X156845000Y-97155000D03*
X156845000Y-94615000D03*
X149685000Y-85725000D03*
X149685000Y-88265000D03*
X149685000Y-90805000D03*
X149685000Y-93345000D03*
X149685000Y-95885000D03*
D22*
X138430000Y-106045000D03*
X124460000Y-106045000D03*
D12*
X131445000Y-120015000D03*
X133985000Y-120015000D03*
X136525000Y-120015000D03*
X139065000Y-120015000D03*
X128905000Y-120015000D03*
X126365000Y-120015000D03*
X123825000Y-120015000D03*
D23*
X115570000Y-81915000D03*
X115570000Y-135255000D03*
X201930000Y-135255000D03*
X201930000Y-81915000D03*
D24*
X145034000Y-98425000D03*
X154940000Y-104394000D03*
X157353000Y-106807000D03*
X189230000Y-106680000D03*
X163830000Y-95250000D03*
X168275000Y-95250000D03*
X169545000Y-110490000D03*
X156464000Y-107188000D03*
X170942000Y-113030000D03*
X179705000Y-128270000D03*
X155829000Y-108077000D03*
X193040000Y-122555000D03*
D25*
X170434000Y-98298000D02*
X170434000Y-98171000D01*
X170434000Y-98171000D02*
X172720000Y-95885000D01*
X172720000Y-95885000D02*
X190500000Y-95885000D01*
X190500000Y-95885000D02*
X192405000Y-97790000D01*
X133985000Y-132080000D02*
X134112000Y-132080000D01*
X134112000Y-132080000D02*
X135382000Y-130810000D01*
X135382000Y-130810000D02*
X138938000Y-130810000D01*
X138938000Y-130810000D02*
X145923000Y-123825000D01*
X145923000Y-123825000D02*
X147701000Y-123825000D01*
X147701000Y-123825000D02*
X149987000Y-121793000D01*
X149987000Y-121793000D02*
X149987000Y-104013000D01*
X149987000Y-104013000D02*
X146685000Y-102235000D01*
X131445000Y-129540000D02*
X131445000Y-128778000D01*
X131445000Y-128778000D02*
X133096000Y-127127000D01*
X133096000Y-127127000D02*
X136906000Y-127127000D01*
X136906000Y-127127000D02*
X145288000Y-118745000D01*
X145288000Y-118745000D02*
X147574000Y-118745000D01*
X147574000Y-118745000D02*
X148463000Y-117856000D01*
X148463000Y-117856000D02*
X148463000Y-109093000D01*
X148463000Y-109093000D02*
X146685000Y-107315000D01*
X146685000Y-112395000D02*
X145923000Y-112395000D01*
X145923000Y-112395000D02*
X144272000Y-110744000D01*
X144272000Y-110744000D02*
X144272000Y-103505000D01*
X144272000Y-103505000D02*
X142748000Y-101981000D01*
X142748000Y-101981000D02*
X134112000Y-101981000D01*
X134112000Y-101981000D02*
X132334000Y-100203000D01*
X132334000Y-100203000D02*
X132334000Y-98933000D01*
X134239000Y-100457000D02*
X132334000Y-98933000D01*
X135001000Y-100457000D02*
X134239000Y-100457000D01*
X136017000Y-99822000D02*
X135001000Y-100457000D01*
X136017000Y-98679000D02*
X136017000Y-99822000D01*
X137287000Y-97409000D02*
X136017000Y-98679000D01*
X144018000Y-97409000D02*
X137287000Y-97409000D01*
X145034000Y-98425000D02*
X144018000Y-97409000D01*
X157353000Y-106807000D02*
X154940000Y-104394000D01*
X178054000Y-98298000D02*
X178054000Y-100584000D01*
X178054000Y-100584000D02*
X184150000Y-106680000D01*
X184150000Y-106680000D02*
X189230000Y-106680000D01*
X168275000Y-95250000D02*
X163830000Y-95250000D01*
X186055000Y-123825000D02*
X182880000Y-123825000D01*
X182880000Y-123825000D02*
X169545000Y-110490000D01*
X186055000Y-121285000D02*
X184785000Y-121285000D01*
X168910000Y-99695000D02*
X161925000Y-99695000D01*
X171450000Y-102235000D02*
X168910000Y-99695000D01*
X171450000Y-107950000D02*
X171450000Y-102235000D01*
X184785000Y-121285000D02*
X171450000Y-107950000D01*
X156464000Y-107188000D02*
X146685000Y-97409000D01*
X146685000Y-97409000D02*
X146685000Y-97155000D01*
X146685000Y-94615000D02*
X139192000Y-94615000D01*
X139192000Y-94615000D02*
X134874000Y-98933000D01*
X136525000Y-129540000D02*
X137160000Y-129540000D01*
X137160000Y-129540000D02*
X145415000Y-121285000D01*
X145415000Y-121285000D02*
X147193000Y-121285000D01*
X147193000Y-121285000D02*
X149225000Y-119761000D01*
X149225000Y-119761000D02*
X149225000Y-105791000D01*
X149225000Y-105791000D02*
X146685000Y-104775000D01*
X179705000Y-128270000D02*
X170942000Y-113030000D01*
X139446000Y-100965000D02*
X137414000Y-98933000D01*
X148717000Y-100965000D02*
X139446000Y-100965000D01*
X155829000Y-108077000D02*
X148717000Y-100965000D01*
D26*
X146685000Y-79375000D02*
X159385000Y-79375000D01*
X159385000Y-79375000D02*
X161925000Y-81915000D01*
X194945000Y-80645000D02*
X194945000Y-78740000D01*
X194945000Y-78740000D02*
X193675000Y-77470000D01*
X193675000Y-77470000D02*
X167640000Y-77470000D01*
X167640000Y-77470000D02*
X163195000Y-81915000D01*
X163195000Y-81915000D02*
X161925000Y-81915000D01*
X193040000Y-122555000D02*
X191135000Y-122555000D01*
X197284340Y-90805000D02*
X197284340Y-97990660D01*
X194985000Y-100290000D02*
X192405000Y-100290000D01*
X197284340Y-97990660D02*
X194985000Y-100290000D01*
X194945000Y-80645000D02*
X197485000Y-83185000D01*
X197485000Y-83185000D02*
X197485000Y-90604340D01*
X197485000Y-90604340D02*
X197284340Y-90805000D01*
X136525000Y-132080000D02*
X136525000Y-133350000D01*
X128905000Y-123190000D02*
X128905000Y-120015000D01*
X125730000Y-126365000D02*
X128905000Y-123190000D01*
X125730000Y-132715000D02*
X125730000Y-126365000D01*
X128905000Y-135890000D02*
X125730000Y-132715000D01*
X133985000Y-135890000D02*
X128905000Y-135890000D01*
X136525000Y-133350000D02*
X133985000Y-135890000D01*
X129794000Y-98933000D02*
X129794000Y-96266000D01*
X129794000Y-96266000D02*
X146685000Y-79375000D01*
X128905000Y-120015000D02*
X128905000Y-106680000D01*
X129794000Y-105791000D02*
X129794000Y-98933000D01*
X128905000Y-106680000D02*
X129794000Y-105791000D01*
D25*
X175514000Y-98298000D02*
X175514000Y-98171000D01*
X175514000Y-98171000D02*
X177165000Y-96520000D01*
X188635000Y-96520000D02*
X192405000Y-100290000D01*
X177165000Y-96520000D02*
X188635000Y-96520000D01*
D26*
X186055000Y-126365000D02*
X188595000Y-126365000D01*
X188595000Y-126365000D02*
X191135000Y-123825000D01*
X191135000Y-123825000D02*
X191135000Y-122555000D01*
X191135000Y-122555000D02*
X191135000Y-101560000D01*
X191135000Y-101560000D02*
X192405000Y-100290000D01*
D27*
G36*
X206325000Y-139650000D02*
X111175000Y-139650000D01*
X111175000Y-135783172D01*
X112902538Y-135783172D01*
X113307709Y-136763761D01*
X114057293Y-137514655D01*
X115037173Y-137921536D01*
X116098172Y-137922462D01*
X117078761Y-137517291D01*
X117829655Y-136767707D01*
X118236536Y-135787827D01*
X118237462Y-134726828D01*
X117832291Y-133746239D01*
X117082707Y-132995345D01*
X116102827Y-132588464D01*
X115041828Y-132587538D01*
X114061239Y-132992709D01*
X113310345Y-133742293D01*
X112903464Y-134722173D01*
X112902538Y-135783172D01*
X111175000Y-135783172D01*
X111175000Y-129540000D01*
X129917041Y-129540000D01*
X130031115Y-130113489D01*
X130355971Y-130599670D01*
X130670752Y-130810000D01*
X130355971Y-131020330D01*
X130031115Y-131506511D01*
X129917041Y-132080000D01*
X130031115Y-132653489D01*
X130355971Y-133139670D01*
X130842152Y-133464526D01*
X131415641Y-133578600D01*
X131474359Y-133578600D01*
X132047848Y-133464526D01*
X132534029Y-133139670D01*
X132715000Y-132868828D01*
X132895971Y-133139670D01*
X133382152Y-133464526D01*
X133955641Y-133578600D01*
X134014359Y-133578600D01*
X134587848Y-133464526D01*
X135074029Y-133139670D01*
X135254992Y-132868839D01*
X135636510Y-133286821D01*
X136165973Y-133534968D01*
X136398000Y-133414469D01*
X136398000Y-132207000D01*
X136652000Y-132207000D01*
X136652000Y-133414469D01*
X136884027Y-133534968D01*
X137413490Y-133286821D01*
X137807688Y-132854947D01*
X137979958Y-132439026D01*
X137858817Y-132207000D01*
X136652000Y-132207000D01*
X136398000Y-132207000D01*
X136378000Y-132207000D01*
X136378000Y-131953000D01*
X136398000Y-131953000D01*
X136398000Y-131933000D01*
X136652000Y-131933000D01*
X136652000Y-131953000D01*
X137858817Y-131953000D01*
X137979958Y-131720974D01*
X137917426Y-131570000D01*
X138938000Y-131570000D01*
X139228839Y-131512148D01*
X139475401Y-131347401D01*
X145306434Y-125516368D01*
X145467757Y-125906800D01*
X145871077Y-126310824D01*
X146001215Y-126364862D01*
X145873200Y-126417757D01*
X145469176Y-126821077D01*
X145250250Y-127348309D01*
X145249752Y-127919187D01*
X145467757Y-128446800D01*
X145871077Y-128850824D01*
X146001215Y-128904862D01*
X145873200Y-128957757D01*
X145469176Y-129361077D01*
X145250250Y-129888309D01*
X145249752Y-130459187D01*
X145467757Y-130986800D01*
X145871077Y-131390824D01*
X146001215Y-131444862D01*
X145873200Y-131497757D01*
X145469176Y-131901077D01*
X145250250Y-132428309D01*
X145249752Y-132999187D01*
X145467757Y-133526800D01*
X145871077Y-133930824D01*
X146001215Y-133984862D01*
X145873200Y-134037757D01*
X145469176Y-134441077D01*
X145250250Y-134968309D01*
X145249752Y-135539187D01*
X145467757Y-136066800D01*
X145871077Y-136470824D01*
X146001215Y-136524862D01*
X145873200Y-136577757D01*
X145469176Y-136981077D01*
X145250250Y-137508309D01*
X145249752Y-138079187D01*
X145467757Y-138606800D01*
X145871077Y-139010824D01*
X146398309Y-139229750D01*
X146969187Y-139230248D01*
X147496800Y-139012243D01*
X147900824Y-138608923D01*
X148119750Y-138081691D01*
X148120248Y-137510813D01*
X147902243Y-136983200D01*
X147498923Y-136579176D01*
X147368785Y-136525138D01*
X147496800Y-136472243D01*
X147900824Y-136068923D01*
X148119750Y-135541691D01*
X148120248Y-134970813D01*
X147902243Y-134443200D01*
X147498923Y-134039176D01*
X147368785Y-133985138D01*
X147496800Y-133932243D01*
X147900824Y-133528923D01*
X148119750Y-133001691D01*
X148120248Y-132430813D01*
X147902243Y-131903200D01*
X147498923Y-131499176D01*
X147368785Y-131445138D01*
X147496800Y-131392243D01*
X147900824Y-130988923D01*
X148119750Y-130461691D01*
X148120248Y-129890813D01*
X147902243Y-129363200D01*
X147498923Y-128959176D01*
X147368785Y-128905138D01*
X147496800Y-128852243D01*
X147900824Y-128448923D01*
X148119750Y-127921691D01*
X148120248Y-127350813D01*
X147902243Y-126823200D01*
X147498923Y-126419176D01*
X147368785Y-126365138D01*
X147496800Y-126312243D01*
X147900824Y-125908923D01*
X147954862Y-125778785D01*
X148007757Y-125906800D01*
X148411077Y-126310824D01*
X148938309Y-126529750D01*
X149509187Y-126530248D01*
X150036800Y-126312243D01*
X150440824Y-125908923D01*
X150494862Y-125778785D01*
X150547757Y-125906800D01*
X150951077Y-126310824D01*
X151478309Y-126529750D01*
X152049187Y-126530248D01*
X152576800Y-126312243D01*
X152980824Y-125908923D01*
X153034862Y-125778785D01*
X153087757Y-125906800D01*
X153491077Y-126310824D01*
X153621215Y-126364862D01*
X153493200Y-126417757D01*
X153089176Y-126821077D01*
X152870250Y-127348309D01*
X152869752Y-127919187D01*
X153087757Y-128446800D01*
X153491077Y-128850824D01*
X153621215Y-128904862D01*
X153493200Y-128957757D01*
X153089176Y-129361077D01*
X152870250Y-129888309D01*
X152869752Y-130459187D01*
X153087757Y-130986800D01*
X153491077Y-131390824D01*
X153621215Y-131444862D01*
X153493200Y-131497757D01*
X153089176Y-131901077D01*
X152870250Y-132428309D01*
X152869752Y-132999187D01*
X153087757Y-133526800D01*
X153491077Y-133930824D01*
X153621215Y-133984862D01*
X153493200Y-134037757D01*
X153089176Y-134441077D01*
X152870250Y-134968309D01*
X152869752Y-135539187D01*
X153087757Y-136066800D01*
X153491077Y-136470824D01*
X153621215Y-136524862D01*
X153493200Y-136577757D01*
X153089176Y-136981077D01*
X152870250Y-137508309D01*
X152869752Y-138079187D01*
X153087757Y-138606800D01*
X153491077Y-139010824D01*
X154018309Y-139229750D01*
X154589187Y-139230248D01*
X155116800Y-139012243D01*
X155520824Y-138608923D01*
X155574862Y-138478785D01*
X155627757Y-138606800D01*
X156031077Y-139010824D01*
X156558309Y-139229750D01*
X157129187Y-139230248D01*
X157656800Y-139012243D01*
X158060824Y-138608923D01*
X158279750Y-138081691D01*
X158280248Y-137510813D01*
X158062243Y-136983200D01*
X157658923Y-136579176D01*
X157528785Y-136525138D01*
X157656800Y-136472243D01*
X158060824Y-136068923D01*
X158279750Y-135541691D01*
X158280248Y-134970813D01*
X158062243Y-134443200D01*
X157658923Y-134039176D01*
X157528785Y-133985138D01*
X157656800Y-133932243D01*
X158060824Y-133528923D01*
X158279750Y-133001691D01*
X158280248Y-132430813D01*
X158062243Y-131903200D01*
X157658923Y-131499176D01*
X157528785Y-131445138D01*
X157656800Y-131392243D01*
X158060824Y-130988923D01*
X158279750Y-130461691D01*
X158280248Y-129890813D01*
X158062243Y-129363200D01*
X157658923Y-128959176D01*
X157528785Y-128905138D01*
X157656800Y-128852243D01*
X158060824Y-128448923D01*
X158279750Y-127921691D01*
X158280248Y-127350813D01*
X158062243Y-126823200D01*
X157658923Y-126419176D01*
X157528785Y-126365138D01*
X157656800Y-126312243D01*
X158060824Y-125908923D01*
X158114862Y-125778785D01*
X158167757Y-125906800D01*
X158571077Y-126310824D01*
X159098309Y-126529750D01*
X159669187Y-126530248D01*
X160196800Y-126312243D01*
X160600824Y-125908923D01*
X160654862Y-125778785D01*
X160707757Y-125906800D01*
X161111077Y-126310824D01*
X161241215Y-126364862D01*
X161113200Y-126417757D01*
X160709176Y-126821077D01*
X160490250Y-127348309D01*
X160489752Y-127919187D01*
X160707757Y-128446800D01*
X161111077Y-128850824D01*
X161241215Y-128904862D01*
X161113200Y-128957757D01*
X160709176Y-129361077D01*
X160490250Y-129888309D01*
X160489752Y-130459187D01*
X160707757Y-130986800D01*
X161111077Y-131390824D01*
X161241215Y-131444862D01*
X161113200Y-131497757D01*
X160709176Y-131901077D01*
X160490250Y-132428309D01*
X160489752Y-132999187D01*
X160707757Y-133526800D01*
X161111077Y-133930824D01*
X161241215Y-133984862D01*
X161113200Y-134037757D01*
X160709176Y-134441077D01*
X160490250Y-134968309D01*
X160489752Y-135539187D01*
X160707757Y-136066800D01*
X161111077Y-136470824D01*
X161241215Y-136524862D01*
X161113200Y-136577757D01*
X160709176Y-136981077D01*
X160490250Y-137508309D01*
X160489752Y-138079187D01*
X160707757Y-138606800D01*
X161111077Y-139010824D01*
X161638309Y-139229750D01*
X162209187Y-139230248D01*
X162736800Y-139012243D01*
X163140824Y-138608923D01*
X163359750Y-138081691D01*
X163360248Y-137510813D01*
X163202332Y-137128625D01*
X165226472Y-137128625D01*
X165689525Y-138249298D01*
X166546192Y-139107462D01*
X167666055Y-139572470D01*
X168878625Y-139573528D01*
X169999298Y-139110475D01*
X170857462Y-138253808D01*
X171322470Y-137133945D01*
X171322474Y-137128625D01*
X183006472Y-137128625D01*
X183469525Y-138249298D01*
X184326192Y-139107462D01*
X185446055Y-139572470D01*
X186658625Y-139573528D01*
X187779298Y-139110475D01*
X188637462Y-138253808D01*
X189102470Y-137133945D01*
X189103528Y-135921375D01*
X189046424Y-135783172D01*
X199262538Y-135783172D01*
X199667709Y-136763761D01*
X200417293Y-137514655D01*
X201397173Y-137921536D01*
X202458172Y-137922462D01*
X203438761Y-137517291D01*
X204189655Y-136767707D01*
X204596536Y-135787827D01*
X204597462Y-134726828D01*
X204192291Y-133746239D01*
X203442707Y-132995345D01*
X202462827Y-132588464D01*
X201401828Y-132587538D01*
X200421239Y-132992709D01*
X199670345Y-133742293D01*
X199263464Y-134722173D01*
X199262538Y-135783172D01*
X189046424Y-135783172D01*
X188640475Y-134800702D01*
X187783808Y-133942538D01*
X186663945Y-133477530D01*
X185451375Y-133476472D01*
X184330702Y-133939525D01*
X183472538Y-134796192D01*
X183007530Y-135916055D01*
X183006472Y-137128625D01*
X171322474Y-137128625D01*
X171323528Y-135921375D01*
X170860475Y-134800702D01*
X170003808Y-133942538D01*
X168883945Y-133477530D01*
X167671375Y-133476472D01*
X166550702Y-133939525D01*
X165692538Y-134796192D01*
X165227530Y-135916055D01*
X165226472Y-137128625D01*
X163202332Y-137128625D01*
X163142243Y-136983200D01*
X162738923Y-136579176D01*
X162608785Y-136525138D01*
X162736800Y-136472243D01*
X163140824Y-136068923D01*
X163359750Y-135541691D01*
X163360248Y-134970813D01*
X163142243Y-134443200D01*
X162738923Y-134039176D01*
X162608785Y-133985138D01*
X162736800Y-133932243D01*
X163140824Y-133528923D01*
X163359750Y-133001691D01*
X163360248Y-132430813D01*
X163142243Y-131903200D01*
X162738923Y-131499176D01*
X162608785Y-131445138D01*
X162736800Y-131392243D01*
X163140824Y-130988923D01*
X163320589Y-130556000D01*
X184518560Y-130556000D01*
X184518560Y-132334000D01*
X184562838Y-132569317D01*
X184701910Y-132785441D01*
X184914110Y-132930431D01*
X185166000Y-132981440D01*
X186944000Y-132981440D01*
X187179317Y-132937162D01*
X187395441Y-132798090D01*
X187540431Y-132585890D01*
X187591440Y-132334000D01*
X187591440Y-130556000D01*
X187547162Y-130320683D01*
X187408090Y-130104559D01*
X187195890Y-129959569D01*
X187162506Y-129952809D01*
X187346231Y-129769404D01*
X187578735Y-129209472D01*
X187579264Y-128603188D01*
X187347738Y-128042851D01*
X186919404Y-127613769D01*
X186892494Y-127602595D01*
X186947591Y-127437196D01*
X186055000Y-126544605D01*
X185162409Y-127437196D01*
X185217353Y-127602138D01*
X185192851Y-127612262D01*
X184763769Y-128040596D01*
X184531265Y-128600528D01*
X184530736Y-129206812D01*
X184762262Y-129767149D01*
X184944948Y-129950154D01*
X184930683Y-129952838D01*
X184714559Y-130091910D01*
X184569569Y-130304110D01*
X184518560Y-130556000D01*
X163320589Y-130556000D01*
X163359750Y-130461691D01*
X163360248Y-129890813D01*
X163142243Y-129363200D01*
X162738923Y-128959176D01*
X162608785Y-128905138D01*
X162736800Y-128852243D01*
X163140824Y-128448923D01*
X163359750Y-127921691D01*
X163360248Y-127350813D01*
X163142243Y-126823200D01*
X162738923Y-126419176D01*
X162608785Y-126365138D01*
X162736800Y-126312243D01*
X163140824Y-125908923D01*
X163359750Y-125381691D01*
X163360248Y-124810813D01*
X163142243Y-124283200D01*
X162738923Y-123879176D01*
X162608785Y-123825138D01*
X162736800Y-123772243D01*
X163140824Y-123368923D01*
X163359750Y-122841691D01*
X163360248Y-122270813D01*
X163142243Y-121743200D01*
X162738923Y-121339176D01*
X162608785Y-121285138D01*
X162736800Y-121232243D01*
X163140824Y-120828923D01*
X163359750Y-120301691D01*
X163360248Y-119730813D01*
X163142243Y-119203200D01*
X162738923Y-118799176D01*
X162608785Y-118745138D01*
X162736800Y-118692243D01*
X163140824Y-118288923D01*
X163359750Y-117761691D01*
X163360248Y-117190813D01*
X163142243Y-116663200D01*
X162738923Y-116259176D01*
X162608785Y-116205138D01*
X162736800Y-116152243D01*
X163140824Y-115748923D01*
X163359750Y-115221691D01*
X163360248Y-114650813D01*
X163142243Y-114123200D01*
X162738923Y-113719176D01*
X162608785Y-113665138D01*
X162736800Y-113612243D01*
X163140824Y-113208923D01*
X163359750Y-112681691D01*
X163360248Y-112110813D01*
X163142243Y-111583200D01*
X162738923Y-111179176D01*
X162608785Y-111125138D01*
X162736800Y-111072243D01*
X163140824Y-110668923D01*
X163359750Y-110141691D01*
X163360248Y-109570813D01*
X163142243Y-109043200D01*
X162738923Y-108639176D01*
X162608785Y-108585138D01*
X162736800Y-108532243D01*
X163140824Y-108128923D01*
X163359750Y-107601691D01*
X163360248Y-107030813D01*
X163142243Y-106503200D01*
X162738923Y-106099176D01*
X162608785Y-106045138D01*
X162736800Y-105992243D01*
X163140824Y-105588923D01*
X163359750Y-105061691D01*
X163360248Y-104490813D01*
X163142243Y-103963200D01*
X162738923Y-103559176D01*
X162608785Y-103505138D01*
X162736800Y-103452243D01*
X163140824Y-103048923D01*
X163359750Y-102521691D01*
X163360248Y-101950813D01*
X163142243Y-101423200D01*
X162738923Y-101019176D01*
X162608785Y-100965138D01*
X162736800Y-100912243D01*
X163140824Y-100508923D01*
X163163215Y-100455000D01*
X168595198Y-100455000D01*
X168597478Y-100457280D01*
X167671375Y-100456472D01*
X166550702Y-100919525D01*
X165692538Y-101776192D01*
X165227530Y-102896055D01*
X165226472Y-104108625D01*
X165689525Y-105229298D01*
X166546192Y-106087462D01*
X167666055Y-106552470D01*
X168878625Y-106553528D01*
X169999298Y-106090475D01*
X170690000Y-105400978D01*
X170690000Y-107950000D01*
X170747852Y-108240839D01*
X170912599Y-108487401D01*
X184247599Y-121822401D01*
X184494161Y-121987148D01*
X184714239Y-122030925D01*
X184762262Y-122147149D01*
X185169737Y-122555336D01*
X184763769Y-122960596D01*
X184720417Y-123065000D01*
X183194802Y-123065000D01*
X170480122Y-110350320D01*
X170480162Y-110304833D01*
X170338117Y-109961057D01*
X170075327Y-109697808D01*
X169731799Y-109555162D01*
X169359833Y-109554838D01*
X169016057Y-109696883D01*
X168752808Y-109959673D01*
X168610162Y-110303201D01*
X168609838Y-110675167D01*
X168751883Y-111018943D01*
X169014673Y-111282192D01*
X169358201Y-111424838D01*
X169405077Y-111424879D01*
X170314983Y-112334785D01*
X170149808Y-112499673D01*
X170007162Y-112843201D01*
X170006838Y-113215167D01*
X170148883Y-113558943D01*
X170411673Y-113822192D01*
X170555066Y-113881734D01*
X178770088Y-128168728D01*
X178769838Y-128455167D01*
X178911883Y-128798943D01*
X179174673Y-129062192D01*
X179518201Y-129204838D01*
X179890167Y-129205162D01*
X180233943Y-129063117D01*
X180497192Y-128800327D01*
X180639838Y-128456799D01*
X180640162Y-128084833D01*
X180498117Y-127741057D01*
X180235327Y-127477808D01*
X180091934Y-127418266D01*
X179349436Y-126126965D01*
X184519484Y-126126965D01*
X184545277Y-126732700D01*
X184727461Y-127172533D01*
X184982804Y-127257591D01*
X185875395Y-126365000D01*
X186234605Y-126365000D01*
X187127196Y-127257591D01*
X187382539Y-127172533D01*
X187590516Y-126603035D01*
X187564723Y-125997300D01*
X187382539Y-125557467D01*
X187127196Y-125472409D01*
X186234605Y-126365000D01*
X185875395Y-126365000D01*
X184982804Y-125472409D01*
X184727461Y-125557467D01*
X184519484Y-126126965D01*
X179349436Y-126126965D01*
X172912511Y-114932313D01*
X182342599Y-124362401D01*
X182589161Y-124527148D01*
X182880000Y-124585000D01*
X184720055Y-124585000D01*
X184762262Y-124687149D01*
X185190596Y-125116231D01*
X185217506Y-125127405D01*
X185162409Y-125292804D01*
X186055000Y-126185395D01*
X186947591Y-125292804D01*
X186892647Y-125127862D01*
X186917149Y-125117738D01*
X187346231Y-124689404D01*
X187578735Y-124129472D01*
X187579264Y-123523188D01*
X187347738Y-122962851D01*
X186940263Y-122554664D01*
X187346231Y-122149404D01*
X187578735Y-121589472D01*
X187579264Y-120983188D01*
X187347738Y-120422851D01*
X186940263Y-120014664D01*
X187346231Y-119609404D01*
X187578735Y-119049472D01*
X187579264Y-118443188D01*
X187347738Y-117882851D01*
X186940263Y-117474664D01*
X187346231Y-117069404D01*
X187578735Y-116509472D01*
X187579264Y-115903188D01*
X187347738Y-115342851D01*
X186940263Y-114934664D01*
X187346231Y-114529404D01*
X187578735Y-113969472D01*
X187579264Y-113363188D01*
X187347738Y-112802851D01*
X186940263Y-112394664D01*
X187346231Y-111989404D01*
X187578735Y-111429472D01*
X187579264Y-110823188D01*
X187347738Y-110262851D01*
X186940599Y-109855000D01*
X193896655Y-109855000D01*
X194022330Y-110486810D01*
X194249499Y-110826792D01*
X194112559Y-110914910D01*
X193967569Y-111127110D01*
X193916560Y-111379000D01*
X193916560Y-113411000D01*
X193960838Y-113646317D01*
X194099910Y-113862441D01*
X194312110Y-114007431D01*
X194564000Y-114058440D01*
X196596000Y-114058440D01*
X196831317Y-114014162D01*
X197047441Y-113875090D01*
X197192431Y-113662890D01*
X197243440Y-113411000D01*
X197243440Y-112395000D01*
X198341655Y-112395000D01*
X198467330Y-113026810D01*
X198825222Y-113562433D01*
X199360845Y-113920325D01*
X199992655Y-114046000D01*
X200057345Y-114046000D01*
X200689155Y-113920325D01*
X201224778Y-113562433D01*
X201582670Y-113026810D01*
X201708345Y-112395000D01*
X201582670Y-111763190D01*
X201355501Y-111423208D01*
X201492441Y-111335090D01*
X201637431Y-111122890D01*
X201688440Y-110871000D01*
X201688440Y-108839000D01*
X201644162Y-108603683D01*
X201505090Y-108387559D01*
X201292890Y-108242569D01*
X201041000Y-108191560D01*
X199009000Y-108191560D01*
X198773683Y-108235838D01*
X198557559Y-108374910D01*
X198412569Y-108587110D01*
X198361560Y-108839000D01*
X198361560Y-110871000D01*
X198405838Y-111106317D01*
X198544910Y-111322441D01*
X198693837Y-111424198D01*
X198467330Y-111763190D01*
X198341655Y-112395000D01*
X197243440Y-112395000D01*
X197243440Y-111379000D01*
X197199162Y-111143683D01*
X197060090Y-110927559D01*
X196911163Y-110825802D01*
X197137670Y-110486810D01*
X197263345Y-109855000D01*
X197137670Y-109223190D01*
X196779778Y-108687567D01*
X196244155Y-108329675D01*
X195612345Y-108204000D01*
X195547655Y-108204000D01*
X194915845Y-108329675D01*
X194380222Y-108687567D01*
X194022330Y-109223190D01*
X193896655Y-109855000D01*
X186940599Y-109855000D01*
X186940263Y-109854664D01*
X187346231Y-109449404D01*
X187578735Y-108889472D01*
X187579264Y-108283188D01*
X187347738Y-107722851D01*
X187065380Y-107440000D01*
X188667537Y-107440000D01*
X188699673Y-107472192D01*
X189043201Y-107614838D01*
X189415167Y-107615162D01*
X189758943Y-107473117D01*
X190022192Y-107210327D01*
X190164838Y-106866799D01*
X190165162Y-106494833D01*
X190023117Y-106151057D01*
X189760327Y-105887808D01*
X189416799Y-105745162D01*
X189044833Y-105744838D01*
X188701057Y-105886883D01*
X188667882Y-105920000D01*
X187950071Y-105920000D01*
X188637462Y-105233808D01*
X189102470Y-104113945D01*
X189103528Y-102901375D01*
X188640475Y-101780702D01*
X188158361Y-101297745D01*
X191576861Y-101297745D01*
X191650995Y-101543864D01*
X192188223Y-101736965D01*
X192758454Y-101709778D01*
X193159005Y-101543864D01*
X193233139Y-101297745D01*
X192405000Y-100469605D01*
X191576861Y-101297745D01*
X188158361Y-101297745D01*
X187783808Y-100922538D01*
X186663945Y-100457530D01*
X185451375Y-100456472D01*
X184330702Y-100919525D01*
X183472538Y-101776192D01*
X183007530Y-102896055D01*
X183006472Y-104108625D01*
X183255063Y-104710261D01*
X178814000Y-100269198D01*
X178814000Y-100073223D01*
X190958035Y-100073223D01*
X190985222Y-100643454D01*
X191151136Y-101044005D01*
X191397255Y-101118139D01*
X192225395Y-100290000D01*
X192584605Y-100290000D01*
X193412745Y-101118139D01*
X193658864Y-101044005D01*
X193851965Y-100506777D01*
X193824778Y-99936546D01*
X193658864Y-99535995D01*
X193412745Y-99461861D01*
X192584605Y-100290000D01*
X192225395Y-100290000D01*
X191397255Y-99461861D01*
X191151136Y-99535995D01*
X190958035Y-100073223D01*
X178814000Y-100073223D01*
X178814000Y-99495531D01*
X178844303Y-99483010D01*
X179237629Y-99090370D01*
X179323949Y-98882488D01*
X179408990Y-99088303D01*
X179801630Y-99481629D01*
X180314900Y-99694757D01*
X180870661Y-99695242D01*
X181384303Y-99483010D01*
X181777629Y-99090370D01*
X181863949Y-98882488D01*
X181948990Y-99088303D01*
X182341630Y-99481629D01*
X182854900Y-99694757D01*
X183410661Y-99695242D01*
X183924303Y-99483010D01*
X184317629Y-99090370D01*
X184530757Y-98577100D01*
X184531242Y-98021339D01*
X184319010Y-97507697D01*
X183926370Y-97114371D01*
X183413100Y-96901243D01*
X182857339Y-96900758D01*
X182343697Y-97112990D01*
X181950371Y-97505630D01*
X181864051Y-97713512D01*
X181779010Y-97507697D01*
X181386370Y-97114371D01*
X180873100Y-96901243D01*
X180317339Y-96900758D01*
X179803697Y-97112990D01*
X179410371Y-97505630D01*
X179324051Y-97713512D01*
X179239010Y-97507697D01*
X178846370Y-97114371D01*
X178333100Y-96901243D01*
X177777339Y-96900758D01*
X177263697Y-97112990D01*
X176870371Y-97505630D01*
X176790605Y-97697727D01*
X176736397Y-97566857D01*
X176494213Y-97497392D01*
X175693605Y-98298000D01*
X176494213Y-99098608D01*
X176736397Y-99029143D01*
X176786509Y-98888682D01*
X176868990Y-99088303D01*
X177261630Y-99481629D01*
X177294000Y-99495070D01*
X177294000Y-100584000D01*
X177351852Y-100874839D01*
X177516599Y-101121401D01*
X183612599Y-107217401D01*
X183859161Y-107382148D01*
X184150000Y-107440000D01*
X185044855Y-107440000D01*
X184763769Y-107720596D01*
X184531265Y-108280528D01*
X184530736Y-108886812D01*
X184762262Y-109447149D01*
X185169737Y-109855336D01*
X184763769Y-110260596D01*
X184531265Y-110820528D01*
X184530736Y-111426812D01*
X184762262Y-111987149D01*
X185169737Y-112395336D01*
X184763769Y-112800596D01*
X184531265Y-113360528D01*
X184530736Y-113966812D01*
X184762262Y-114527149D01*
X185169737Y-114935336D01*
X184763769Y-115340596D01*
X184531265Y-115900528D01*
X184530736Y-116506812D01*
X184762262Y-117067149D01*
X185169737Y-117475336D01*
X184763769Y-117880596D01*
X184531265Y-118440528D01*
X184530736Y-119046812D01*
X184762262Y-119607149D01*
X185169737Y-120015336D01*
X184879685Y-120304883D01*
X172210000Y-107635198D01*
X172210000Y-102235000D01*
X172152148Y-101944161D01*
X172152148Y-101944160D01*
X171987401Y-101697599D01*
X169863601Y-99573799D01*
X170154900Y-99694757D01*
X170710661Y-99695242D01*
X171224303Y-99483010D01*
X171617629Y-99090370D01*
X171703949Y-98882488D01*
X171788990Y-99088303D01*
X172181630Y-99481629D01*
X172694900Y-99694757D01*
X173250661Y-99695242D01*
X173764303Y-99483010D01*
X173969457Y-99278213D01*
X174713392Y-99278213D01*
X174782857Y-99520397D01*
X175306302Y-99707144D01*
X175861368Y-99679362D01*
X176245143Y-99520397D01*
X176314608Y-99278213D01*
X175514000Y-98477605D01*
X174713392Y-99278213D01*
X173969457Y-99278213D01*
X174157629Y-99090370D01*
X174237395Y-98898273D01*
X174291603Y-99029143D01*
X174533787Y-99098608D01*
X175334395Y-98298000D01*
X174533787Y-97497392D01*
X174291603Y-97566857D01*
X174241491Y-97707318D01*
X174159010Y-97507697D01*
X173969432Y-97317787D01*
X174713392Y-97317787D01*
X175514000Y-98118395D01*
X176314608Y-97317787D01*
X176245143Y-97075603D01*
X175721698Y-96888856D01*
X175166632Y-96916638D01*
X174782857Y-97075603D01*
X174713392Y-97317787D01*
X173969432Y-97317787D01*
X173766370Y-97114371D01*
X173253100Y-96901243D01*
X172778973Y-96900829D01*
X173034802Y-96645000D01*
X190185198Y-96645000D01*
X190957560Y-97417362D01*
X190957560Y-98590000D01*
X191001838Y-98825317D01*
X191140910Y-99041441D01*
X191353110Y-99186431D01*
X191591201Y-99234646D01*
X191576861Y-99282255D01*
X192405000Y-100110395D01*
X193233139Y-99282255D01*
X193218855Y-99234833D01*
X193440317Y-99193162D01*
X193656441Y-99054090D01*
X193801431Y-98841890D01*
X193852440Y-98590000D01*
X193852440Y-96990000D01*
X193808162Y-96754683D01*
X193669090Y-96538559D01*
X193456890Y-96393569D01*
X193205000Y-96342560D01*
X192032362Y-96342560D01*
X191037401Y-95347599D01*
X190790839Y-95182852D01*
X190500000Y-95125000D01*
X172720000Y-95125000D01*
X172429160Y-95182852D01*
X172182599Y-95347599D01*
X170629028Y-96901170D01*
X170157339Y-96900758D01*
X169643697Y-97112990D01*
X169250371Y-97505630D01*
X169037243Y-98018900D01*
X169036758Y-98574661D01*
X169212873Y-99000893D01*
X169200839Y-98992852D01*
X168910000Y-98935000D01*
X163163646Y-98935000D01*
X163142243Y-98883200D01*
X162738923Y-98479176D01*
X162608785Y-98425138D01*
X162736800Y-98372243D01*
X163140824Y-97968923D01*
X163359750Y-97441691D01*
X163360248Y-96870813D01*
X163142243Y-96343200D01*
X162738923Y-95939176D01*
X162608785Y-95885138D01*
X162736800Y-95832243D01*
X162964844Y-95604596D01*
X163036883Y-95778943D01*
X163299673Y-96042192D01*
X163643201Y-96184838D01*
X164015167Y-96185162D01*
X164358943Y-96043117D01*
X164392118Y-96010000D01*
X167712537Y-96010000D01*
X167744673Y-96042192D01*
X168088201Y-96184838D01*
X168460167Y-96185162D01*
X168803943Y-96043117D01*
X169067192Y-95780327D01*
X169209838Y-95436799D01*
X169210162Y-95064833D01*
X169068117Y-94721057D01*
X168805327Y-94457808D01*
X168461799Y-94315162D01*
X168089833Y-94314838D01*
X167746057Y-94456883D01*
X167712882Y-94490000D01*
X164392463Y-94490000D01*
X164360327Y-94457808D01*
X164016799Y-94315162D01*
X163644833Y-94314838D01*
X163360159Y-94432462D01*
X163360248Y-94330813D01*
X163142243Y-93803200D01*
X162738923Y-93399176D01*
X162608785Y-93345138D01*
X162736800Y-93292243D01*
X163140824Y-92888923D01*
X163359750Y-92361691D01*
X163360248Y-91790813D01*
X163142243Y-91263200D01*
X162738923Y-90859176D01*
X162608785Y-90805138D01*
X162736800Y-90752243D01*
X163140824Y-90348923D01*
X163359750Y-89821691D01*
X163360248Y-89250813D01*
X163279316Y-89054940D01*
X188887360Y-89054940D01*
X188887360Y-92555060D01*
X188931638Y-92790377D01*
X189070710Y-93006501D01*
X189282910Y-93151491D01*
X189534800Y-93202500D01*
X193034920Y-93202500D01*
X193270237Y-93158222D01*
X193486361Y-93019150D01*
X193631351Y-92806950D01*
X193682360Y-92555060D01*
X193682360Y-91090750D01*
X194899280Y-91090750D01*
X194899280Y-92681370D01*
X194995953Y-92914759D01*
X195174582Y-93093387D01*
X195407971Y-93190060D01*
X196998590Y-93190060D01*
X197157340Y-93031310D01*
X197157340Y-90932000D01*
X197411340Y-90932000D01*
X197411340Y-93031310D01*
X197570090Y-93190060D01*
X199160709Y-93190060D01*
X199394098Y-93093387D01*
X199572727Y-92914759D01*
X199669400Y-92681370D01*
X199669400Y-91090750D01*
X199510650Y-90932000D01*
X197411340Y-90932000D01*
X197157340Y-90932000D01*
X195058030Y-90932000D01*
X194899280Y-91090750D01*
X193682360Y-91090750D01*
X193682360Y-89054940D01*
X193638082Y-88819623D01*
X193499010Y-88603499D01*
X193352657Y-88503500D01*
X195206240Y-88503500D01*
X195174582Y-88516613D01*
X194995953Y-88695241D01*
X194899280Y-88928630D01*
X194899280Y-90519250D01*
X195058030Y-90678000D01*
X197157340Y-90678000D01*
X197157340Y-88578690D01*
X197411340Y-88578690D01*
X197411340Y-90678000D01*
X199510650Y-90678000D01*
X199669400Y-90519250D01*
X199669400Y-88928630D01*
X199572727Y-88695241D01*
X199394098Y-88516613D01*
X199160709Y-88419940D01*
X197570090Y-88419940D01*
X197411340Y-88578690D01*
X197157340Y-88578690D01*
X196998590Y-88419940D01*
X196331023Y-88419940D01*
X196486101Y-88320150D01*
X196631091Y-88107950D01*
X196682100Y-87856060D01*
X196682100Y-84355940D01*
X196637822Y-84120623D01*
X196498750Y-83904499D01*
X196286550Y-83759509D01*
X196034660Y-83708500D01*
X192534540Y-83708500D01*
X192299223Y-83752778D01*
X192083099Y-83891850D01*
X191938109Y-84104050D01*
X191887100Y-84355940D01*
X191887100Y-87856060D01*
X191931378Y-88091377D01*
X192070450Y-88307501D01*
X192216803Y-88407500D01*
X189534800Y-88407500D01*
X189299483Y-88451778D01*
X189083359Y-88590850D01*
X188938369Y-88803050D01*
X188887360Y-89054940D01*
X163279316Y-89054940D01*
X163142243Y-88723200D01*
X162738923Y-88319176D01*
X162608785Y-88265138D01*
X162736800Y-88212243D01*
X163140824Y-87808923D01*
X163359750Y-87281691D01*
X163360248Y-86710813D01*
X163142243Y-86183200D01*
X162738923Y-85779176D01*
X162608785Y-85725138D01*
X162736800Y-85672243D01*
X163140824Y-85268923D01*
X163359750Y-84741691D01*
X163360248Y-84170813D01*
X163142243Y-83643200D01*
X162738923Y-83239176D01*
X162624232Y-83191552D01*
X162679005Y-83168864D01*
X162753139Y-82922745D01*
X161925000Y-82094605D01*
X161096861Y-82922745D01*
X161170995Y-83168864D01*
X161229254Y-83189805D01*
X161113200Y-83237757D01*
X160709176Y-83641077D01*
X160490250Y-84168309D01*
X160489752Y-84739187D01*
X160707757Y-85266800D01*
X161111077Y-85670824D01*
X161241215Y-85724862D01*
X161113200Y-85777757D01*
X160709176Y-86181077D01*
X160655138Y-86311215D01*
X160602243Y-86183200D01*
X160198923Y-85779176D01*
X159671691Y-85560250D01*
X159100813Y-85559752D01*
X158573200Y-85777757D01*
X158169176Y-86181077D01*
X157950250Y-86708309D01*
X157949752Y-87279187D01*
X158167757Y-87806800D01*
X158571077Y-88210824D01*
X158701215Y-88264862D01*
X158573200Y-88317757D01*
X158169176Y-88721077D01*
X157950250Y-89248309D01*
X157949752Y-89819187D01*
X158167757Y-90346800D01*
X158571077Y-90750824D01*
X158701215Y-90804862D01*
X158573200Y-90857757D01*
X158169176Y-91261077D01*
X157950250Y-91788309D01*
X157949752Y-92359187D01*
X158167757Y-92886800D01*
X158571077Y-93290824D01*
X159098309Y-93509750D01*
X159669187Y-93510248D01*
X160196800Y-93292243D01*
X160600824Y-92888923D01*
X160654862Y-92758785D01*
X160707757Y-92886800D01*
X161111077Y-93290824D01*
X161241215Y-93344862D01*
X161113200Y-93397757D01*
X160709176Y-93801077D01*
X160490250Y-94328309D01*
X160489752Y-94899187D01*
X160707757Y-95426800D01*
X161111077Y-95830824D01*
X161241215Y-95884862D01*
X161113200Y-95937757D01*
X160709176Y-96341077D01*
X160490250Y-96868309D01*
X160489752Y-97439187D01*
X160707757Y-97966800D01*
X161111077Y-98370824D01*
X161241215Y-98424862D01*
X161113200Y-98477757D01*
X160709176Y-98881077D01*
X160490250Y-99408309D01*
X160489752Y-99979187D01*
X160707757Y-100506800D01*
X161111077Y-100910824D01*
X161241215Y-100964862D01*
X161113200Y-101017757D01*
X160709176Y-101421077D01*
X160490250Y-101948309D01*
X160489752Y-102519187D01*
X160707757Y-103046800D01*
X161111077Y-103450824D01*
X161241215Y-103504862D01*
X161113200Y-103557757D01*
X160709176Y-103961077D01*
X160490250Y-104488309D01*
X160489752Y-105059187D01*
X160707757Y-105586800D01*
X161111077Y-105990824D01*
X161241215Y-106044862D01*
X161113200Y-106097757D01*
X160709176Y-106501077D01*
X160490250Y-107028309D01*
X160489752Y-107599187D01*
X160707757Y-108126800D01*
X161111077Y-108530824D01*
X161241215Y-108584862D01*
X161113200Y-108637757D01*
X160709176Y-109041077D01*
X160490250Y-109568309D01*
X160489752Y-110139187D01*
X160707757Y-110666800D01*
X161111077Y-111070824D01*
X161241215Y-111124862D01*
X161113200Y-111177757D01*
X160709176Y-111581077D01*
X160490250Y-112108309D01*
X160489752Y-112679187D01*
X160707757Y-113206800D01*
X161111077Y-113610824D01*
X161241215Y-113664862D01*
X161113200Y-113717757D01*
X160709176Y-114121077D01*
X160490250Y-114648309D01*
X160489752Y-115219187D01*
X160707757Y-115746800D01*
X161111077Y-116150824D01*
X161241215Y-116204862D01*
X161113200Y-116257757D01*
X160709176Y-116661077D01*
X160490250Y-117188309D01*
X160489752Y-117759187D01*
X160707757Y-118286800D01*
X161111077Y-118690824D01*
X161241215Y-118744862D01*
X161113200Y-118797757D01*
X160709176Y-119201077D01*
X160490250Y-119728309D01*
X160489752Y-120299187D01*
X160707757Y-120826800D01*
X161111077Y-121230824D01*
X161241215Y-121284862D01*
X161113200Y-121337757D01*
X160709176Y-121741077D01*
X160490250Y-122268309D01*
X160489752Y-122839187D01*
X160707757Y-123366800D01*
X161111077Y-123770824D01*
X161241215Y-123824862D01*
X161113200Y-123877757D01*
X160709176Y-124281077D01*
X160655138Y-124411215D01*
X160602243Y-124283200D01*
X160198923Y-123879176D01*
X159671691Y-123660250D01*
X159100813Y-123659752D01*
X158573200Y-123877757D01*
X158169176Y-124281077D01*
X158115138Y-124411215D01*
X158062243Y-124283200D01*
X157658923Y-123879176D01*
X157528785Y-123825138D01*
X157656800Y-123772243D01*
X158060824Y-123368923D01*
X158279750Y-122841691D01*
X158280248Y-122270813D01*
X158062243Y-121743200D01*
X157658923Y-121339176D01*
X157528785Y-121285138D01*
X157656800Y-121232243D01*
X158060824Y-120828923D01*
X158279750Y-120301691D01*
X158280248Y-119730813D01*
X158062243Y-119203200D01*
X157658923Y-118799176D01*
X157528785Y-118745138D01*
X157656800Y-118692243D01*
X158060824Y-118288923D01*
X158279750Y-117761691D01*
X158280248Y-117190813D01*
X158062243Y-116663200D01*
X157658923Y-116259176D01*
X157131691Y-116040250D01*
X156560813Y-116039752D01*
X156033200Y-116257757D01*
X155629176Y-116661077D01*
X155575138Y-116791215D01*
X155522243Y-116663200D01*
X155118923Y-116259176D01*
X154591691Y-116040250D01*
X154020813Y-116039752D01*
X153493200Y-116257757D01*
X153089176Y-116661077D01*
X152870250Y-117188309D01*
X152869752Y-117759187D01*
X153087757Y-118286800D01*
X153491077Y-118690824D01*
X153621215Y-118744862D01*
X153493200Y-118797757D01*
X153089176Y-119201077D01*
X152870250Y-119728309D01*
X152869752Y-120299187D01*
X153087757Y-120826800D01*
X153491077Y-121230824D01*
X153621215Y-121284862D01*
X153493200Y-121337757D01*
X153089176Y-121741077D01*
X152870250Y-122268309D01*
X152869752Y-122839187D01*
X153087757Y-123366800D01*
X153491077Y-123770824D01*
X153621215Y-123824862D01*
X153493200Y-123877757D01*
X153089176Y-124281077D01*
X153035138Y-124411215D01*
X152982243Y-124283200D01*
X152578923Y-123879176D01*
X152051691Y-123660250D01*
X151480813Y-123659752D01*
X150953200Y-123877757D01*
X150549176Y-124281077D01*
X150495138Y-124411215D01*
X150442243Y-124283200D01*
X150038923Y-123879176D01*
X149511691Y-123660250D01*
X149030768Y-123659830D01*
X150491917Y-122361031D01*
X150505579Y-122342978D01*
X150524401Y-122330401D01*
X150594601Y-122225339D01*
X150670858Y-122124569D01*
X150676571Y-122102662D01*
X150689148Y-122083839D01*
X150713801Y-121959903D01*
X150745688Y-121837629D01*
X150742583Y-121815205D01*
X150747000Y-121793000D01*
X150747000Y-104069802D01*
X154893878Y-108216680D01*
X154893838Y-108262167D01*
X155035883Y-108605943D01*
X155298673Y-108869192D01*
X155642201Y-109011838D01*
X156014167Y-109012162D01*
X156357943Y-108870117D01*
X156621192Y-108607327D01*
X156763838Y-108263799D01*
X156764002Y-108075713D01*
X156992943Y-107981117D01*
X157232582Y-107741896D01*
X157538167Y-107742162D01*
X157881943Y-107600117D01*
X158145192Y-107337327D01*
X158287838Y-106993799D01*
X158288162Y-106621833D01*
X158146117Y-106278057D01*
X157883327Y-106014808D01*
X157539799Y-105872162D01*
X157492923Y-105872121D01*
X155875122Y-104254320D01*
X155875162Y-104208833D01*
X155733117Y-103865057D01*
X155470327Y-103601808D01*
X155126799Y-103459162D01*
X155100111Y-103459139D01*
X155116800Y-103452243D01*
X155520824Y-103048923D01*
X155574862Y-102918785D01*
X155627757Y-103046800D01*
X156031077Y-103450824D01*
X156558309Y-103669750D01*
X157129187Y-103670248D01*
X157656800Y-103452243D01*
X158060824Y-103048923D01*
X158279750Y-102521691D01*
X158280248Y-101950813D01*
X158062243Y-101423200D01*
X157658923Y-101019176D01*
X157528785Y-100965138D01*
X157656800Y-100912243D01*
X158060824Y-100508923D01*
X158279750Y-99981691D01*
X158280248Y-99410813D01*
X158062243Y-98883200D01*
X157658923Y-98479176D01*
X157528785Y-98425138D01*
X157656800Y-98372243D01*
X158060824Y-97968923D01*
X158279750Y-97441691D01*
X158280248Y-96870813D01*
X158062243Y-96343200D01*
X157658923Y-95939176D01*
X157528785Y-95885138D01*
X157656800Y-95832243D01*
X158060824Y-95428923D01*
X158279750Y-94901691D01*
X158280248Y-94330813D01*
X158062243Y-93803200D01*
X157658923Y-93399176D01*
X157131691Y-93180250D01*
X156560813Y-93179752D01*
X156033200Y-93397757D01*
X155629176Y-93801077D01*
X155575138Y-93931215D01*
X155522243Y-93803200D01*
X155118923Y-93399176D01*
X154591691Y-93180250D01*
X154020813Y-93179752D01*
X153493200Y-93397757D01*
X153089176Y-93801077D01*
X152870250Y-94328309D01*
X152869752Y-94899187D01*
X153087757Y-95426800D01*
X153491077Y-95830824D01*
X153621215Y-95884862D01*
X153493200Y-95937757D01*
X153089176Y-96341077D01*
X152870250Y-96868309D01*
X152869752Y-97439187D01*
X153087757Y-97966800D01*
X153491077Y-98370824D01*
X153621215Y-98424862D01*
X153493200Y-98477757D01*
X153089176Y-98881077D01*
X152870250Y-99408309D01*
X152869752Y-99979187D01*
X153087757Y-100506800D01*
X153491077Y-100910824D01*
X153621215Y-100964862D01*
X153493200Y-101017757D01*
X153089176Y-101421077D01*
X152870250Y-101948309D01*
X152869752Y-102518950D01*
X148023731Y-97672929D01*
X148119750Y-97441691D01*
X148120248Y-96870813D01*
X147902243Y-96343200D01*
X147498923Y-95939176D01*
X147368785Y-95885138D01*
X147496800Y-95832243D01*
X147900824Y-95428923D01*
X148119750Y-94901691D01*
X148120248Y-94330813D01*
X147902243Y-93803200D01*
X147498923Y-93399176D01*
X147368785Y-93345138D01*
X147496800Y-93292243D01*
X147900824Y-92888923D01*
X148119750Y-92361691D01*
X148120248Y-91790813D01*
X147902243Y-91263200D01*
X147498923Y-90859176D01*
X147368785Y-90805138D01*
X147496800Y-90752243D01*
X147900824Y-90348923D01*
X148119750Y-89821691D01*
X148120248Y-89250813D01*
X147902243Y-88723200D01*
X147498923Y-88319176D01*
X147368785Y-88265138D01*
X147496800Y-88212243D01*
X147900824Y-87808923D01*
X148119750Y-87281691D01*
X148120248Y-86710813D01*
X147902243Y-86183200D01*
X147728534Y-86009187D01*
X148249752Y-86009187D01*
X148467757Y-86536800D01*
X148871077Y-86940824D01*
X149001215Y-86994862D01*
X148873200Y-87047757D01*
X148469176Y-87451077D01*
X148250250Y-87978309D01*
X148249752Y-88549187D01*
X148467757Y-89076800D01*
X148871077Y-89480824D01*
X149001215Y-89534862D01*
X148873200Y-89587757D01*
X148469176Y-89991077D01*
X148250250Y-90518309D01*
X148249752Y-91089187D01*
X148467757Y-91616800D01*
X148871077Y-92020824D01*
X149001215Y-92074862D01*
X148873200Y-92127757D01*
X148469176Y-92531077D01*
X148250250Y-93058309D01*
X148249752Y-93629187D01*
X148467757Y-94156800D01*
X148871077Y-94560824D01*
X149001215Y-94614862D01*
X148873200Y-94667757D01*
X148469176Y-95071077D01*
X148250250Y-95598309D01*
X148249752Y-96169187D01*
X148467757Y-96696800D01*
X148871077Y-97100824D01*
X149398309Y-97319750D01*
X149969187Y-97320248D01*
X150496800Y-97102243D01*
X150900824Y-96698923D01*
X151119750Y-96171691D01*
X151120248Y-95600813D01*
X150902243Y-95073200D01*
X150498923Y-94669176D01*
X150368785Y-94615138D01*
X150496800Y-94562243D01*
X150900824Y-94158923D01*
X151119750Y-93631691D01*
X151120248Y-93060813D01*
X150902243Y-92533200D01*
X150498923Y-92129176D01*
X150368785Y-92075138D01*
X150496800Y-92022243D01*
X150900824Y-91618923D01*
X151119750Y-91091691D01*
X151120248Y-90520813D01*
X150902243Y-89993200D01*
X150498923Y-89589176D01*
X150368785Y-89535138D01*
X150496800Y-89482243D01*
X150900824Y-89078923D01*
X151119750Y-88551691D01*
X151120248Y-87980813D01*
X150902243Y-87453200D01*
X150498923Y-87049176D01*
X150368785Y-86995138D01*
X150496800Y-86942243D01*
X150900824Y-86538923D01*
X151119750Y-86011691D01*
X151120248Y-85440813D01*
X150902243Y-84913200D01*
X150498923Y-84509176D01*
X149971691Y-84290250D01*
X149400813Y-84289752D01*
X148873200Y-84507757D01*
X148469176Y-84911077D01*
X148250250Y-85438309D01*
X148249752Y-86009187D01*
X147728534Y-86009187D01*
X147498923Y-85779176D01*
X147368785Y-85725138D01*
X147496800Y-85672243D01*
X147900824Y-85268923D01*
X148119750Y-84741691D01*
X148120248Y-84170813D01*
X147902243Y-83643200D01*
X147498923Y-83239176D01*
X147368785Y-83185138D01*
X147496800Y-83132243D01*
X147900824Y-82728923D01*
X148119750Y-82201691D01*
X148119752Y-82199187D01*
X157949752Y-82199187D01*
X158167757Y-82726800D01*
X158571077Y-83130824D01*
X159098309Y-83349750D01*
X159669187Y-83350248D01*
X160196800Y-83132243D01*
X160600824Y-82728923D01*
X160648448Y-82614232D01*
X160671136Y-82669005D01*
X160917255Y-82743139D01*
X161745395Y-81915000D01*
X162104605Y-81915000D01*
X162932745Y-82743139D01*
X163178864Y-82669005D01*
X163371965Y-82131777D01*
X163344778Y-81561546D01*
X163178864Y-81160995D01*
X162932745Y-81086861D01*
X162104605Y-81915000D01*
X161745395Y-81915000D01*
X160917255Y-81086861D01*
X160671136Y-81160995D01*
X160650195Y-81219254D01*
X160602243Y-81103200D01*
X160198923Y-80699176D01*
X159671691Y-80480250D01*
X159100813Y-80479752D01*
X158573200Y-80697757D01*
X158169176Y-81101077D01*
X157950250Y-81628309D01*
X157949752Y-82199187D01*
X148119752Y-82199187D01*
X148120248Y-81630813D01*
X147902243Y-81103200D01*
X147609554Y-80810000D01*
X147611310Y-80810000D01*
X147844699Y-80713327D01*
X148023327Y-80534698D01*
X148120000Y-80301309D01*
X148120000Y-79660750D01*
X148118437Y-79659187D01*
X160489752Y-79659187D01*
X160707757Y-80186800D01*
X161111077Y-80590824D01*
X161225768Y-80638448D01*
X161170995Y-80661136D01*
X161096861Y-80907255D01*
X161925000Y-81735395D01*
X162753139Y-80907255D01*
X162679005Y-80661136D01*
X162620746Y-80640195D01*
X162736800Y-80592243D01*
X162841355Y-80487870D01*
X166750583Y-80487870D01*
X167117166Y-81375069D01*
X167795361Y-82054449D01*
X168681919Y-82422580D01*
X169641870Y-82423417D01*
X170529069Y-82056834D01*
X170775672Y-81810661D01*
X174116758Y-81810661D01*
X174328990Y-82324303D01*
X174721630Y-82717629D01*
X175234900Y-82930757D01*
X175790661Y-82931242D01*
X176304303Y-82719010D01*
X176697629Y-82326370D01*
X176783949Y-82118488D01*
X176868990Y-82324303D01*
X177261630Y-82717629D01*
X177774900Y-82930757D01*
X178330661Y-82931242D01*
X178844303Y-82719010D01*
X179120622Y-82443172D01*
X199262538Y-82443172D01*
X199667709Y-83423761D01*
X200417293Y-84174655D01*
X201397173Y-84581536D01*
X202458172Y-84582462D01*
X203438761Y-84177291D01*
X204189655Y-83427707D01*
X204596536Y-82447827D01*
X204597462Y-81386828D01*
X204192291Y-80406239D01*
X203442707Y-79655345D01*
X202462827Y-79248464D01*
X201401828Y-79247538D01*
X200421239Y-79652709D01*
X199670345Y-80402293D01*
X199263464Y-81382173D01*
X199262538Y-82443172D01*
X179120622Y-82443172D01*
X179237629Y-82326370D01*
X179450757Y-81813100D01*
X179451242Y-81257339D01*
X179239010Y-80743697D01*
X178983630Y-80487870D01*
X181990583Y-80487870D01*
X182357166Y-81375069D01*
X183035361Y-82054449D01*
X183921919Y-82422580D01*
X184881870Y-82423417D01*
X185769069Y-82056834D01*
X186448449Y-81378639D01*
X186816580Y-80492081D01*
X186817332Y-79629000D01*
X190741560Y-79629000D01*
X190741560Y-81661000D01*
X190785838Y-81896317D01*
X190924910Y-82112441D01*
X191137110Y-82257431D01*
X191389000Y-82308440D01*
X193421000Y-82308440D01*
X193656317Y-82264162D01*
X193872441Y-82125090D01*
X193983840Y-81962052D01*
X194080182Y-82051385D01*
X194562056Y-82250975D01*
X194818000Y-82131836D01*
X194818000Y-80772000D01*
X195072000Y-80772000D01*
X195072000Y-82131836D01*
X195327944Y-82250975D01*
X195809818Y-82051385D01*
X196282188Y-81613379D01*
X196550983Y-81027946D01*
X196432367Y-80772000D01*
X195072000Y-80772000D01*
X194818000Y-80772000D01*
X194798000Y-80772000D01*
X194798000Y-80518000D01*
X194818000Y-80518000D01*
X194818000Y-79158164D01*
X195072000Y-79158164D01*
X195072000Y-80518000D01*
X196432367Y-80518000D01*
X196550983Y-80262054D01*
X196282188Y-79676621D01*
X195809818Y-79238615D01*
X195327944Y-79039025D01*
X195072000Y-79158164D01*
X194818000Y-79158164D01*
X194562056Y-79039025D01*
X194080182Y-79238615D01*
X193982602Y-79329097D01*
X193885090Y-79177559D01*
X193672890Y-79032569D01*
X193421000Y-78981560D01*
X191389000Y-78981560D01*
X191153683Y-79025838D01*
X190937559Y-79164910D01*
X190792569Y-79377110D01*
X190741560Y-79629000D01*
X186817332Y-79629000D01*
X186817417Y-79532130D01*
X186450834Y-78644931D01*
X185772639Y-77965551D01*
X184886081Y-77597420D01*
X183926130Y-77596583D01*
X183038931Y-77963166D01*
X182359551Y-78641361D01*
X181991420Y-79527919D01*
X181990583Y-80487870D01*
X178983630Y-80487870D01*
X178846370Y-80350371D01*
X178333100Y-80137243D01*
X177777339Y-80136758D01*
X177263697Y-80348990D01*
X176870371Y-80741630D01*
X176784051Y-80949512D01*
X176699010Y-80743697D01*
X176306370Y-80350371D01*
X175793100Y-80137243D01*
X175237339Y-80136758D01*
X174723697Y-80348990D01*
X174330371Y-80741630D01*
X174117243Y-81254900D01*
X174116758Y-81810661D01*
X170775672Y-81810661D01*
X171208449Y-81378639D01*
X171576580Y-80492081D01*
X171577417Y-79532130D01*
X171210834Y-78644931D01*
X170532639Y-77965551D01*
X169646081Y-77597420D01*
X168686130Y-77596583D01*
X167798931Y-77963166D01*
X167119551Y-78641361D01*
X166751420Y-79527919D01*
X166750583Y-80487870D01*
X162841355Y-80487870D01*
X163140824Y-80188923D01*
X163359750Y-79661691D01*
X163360248Y-79090813D01*
X163142243Y-78563200D01*
X162738923Y-78159176D01*
X162211691Y-77940250D01*
X161640813Y-77939752D01*
X161113200Y-78157757D01*
X160709176Y-78561077D01*
X160490250Y-79088309D01*
X160489752Y-79659187D01*
X148118437Y-79659187D01*
X147961250Y-79502000D01*
X146812000Y-79502000D01*
X146812000Y-79522000D01*
X146558000Y-79522000D01*
X146558000Y-79502000D01*
X145408750Y-79502000D01*
X145250000Y-79660750D01*
X145250000Y-80301309D01*
X145346673Y-80534698D01*
X145525301Y-80713327D01*
X145758690Y-80810000D01*
X145760761Y-80810000D01*
X145469176Y-81101077D01*
X145250250Y-81628309D01*
X145249752Y-82199187D01*
X145467757Y-82726800D01*
X145871077Y-83130824D01*
X146001215Y-83184862D01*
X145873200Y-83237757D01*
X145469176Y-83641077D01*
X145250250Y-84168309D01*
X145249752Y-84739187D01*
X145467757Y-85266800D01*
X145871077Y-85670824D01*
X146001215Y-85724862D01*
X145873200Y-85777757D01*
X145469176Y-86181077D01*
X145250250Y-86708309D01*
X145249752Y-87279187D01*
X145467757Y-87806800D01*
X145871077Y-88210824D01*
X146001215Y-88264862D01*
X145873200Y-88317757D01*
X145469176Y-88721077D01*
X145250250Y-89248309D01*
X145249752Y-89819187D01*
X145467757Y-90346800D01*
X145871077Y-90750824D01*
X146001215Y-90804862D01*
X145873200Y-90857757D01*
X145469176Y-91261077D01*
X145250250Y-91788309D01*
X145249752Y-92359187D01*
X145467757Y-92886800D01*
X145871077Y-93290824D01*
X146001215Y-93344862D01*
X145873200Y-93397757D01*
X145469176Y-93801077D01*
X145446785Y-93855000D01*
X139192000Y-93855000D01*
X138901161Y-93912852D01*
X138654599Y-94077599D01*
X135183381Y-97548817D01*
X135153100Y-97536243D01*
X134597339Y-97535758D01*
X134083697Y-97747990D01*
X133690371Y-98140630D01*
X133604051Y-98348512D01*
X133519010Y-98142697D01*
X133126370Y-97749371D01*
X132613100Y-97536243D01*
X132057339Y-97535758D01*
X131543697Y-97747990D01*
X131150371Y-98140630D01*
X131070605Y-98332727D01*
X131016397Y-98201857D01*
X130774213Y-98132392D01*
X129973605Y-98933000D01*
X130774213Y-99733608D01*
X131016397Y-99664143D01*
X131066509Y-99523682D01*
X131148990Y-99723303D01*
X131541630Y-100116629D01*
X131574000Y-100130070D01*
X131574000Y-100203000D01*
X131631852Y-100493839D01*
X131796599Y-100740401D01*
X133574599Y-102518401D01*
X133821161Y-102683148D01*
X134112000Y-102741000D01*
X142433198Y-102741000D01*
X143512000Y-103819802D01*
X143512000Y-110744000D01*
X143569852Y-111034839D01*
X143734599Y-111281401D01*
X145332394Y-112879196D01*
X145467757Y-113206800D01*
X145871077Y-113610824D01*
X146001215Y-113664862D01*
X145873200Y-113717757D01*
X145469176Y-114121077D01*
X145250250Y-114648309D01*
X145249752Y-115219187D01*
X145467757Y-115746800D01*
X145871077Y-116150824D01*
X146001215Y-116204862D01*
X145873200Y-116257757D01*
X145469176Y-116661077D01*
X145250250Y-117188309D01*
X145249752Y-117759187D01*
X145343056Y-117985000D01*
X145288000Y-117985000D01*
X144997161Y-118042852D01*
X144750599Y-118207599D01*
X136591198Y-126367000D01*
X133096000Y-126367000D01*
X132805161Y-126424852D01*
X132558599Y-126589599D01*
X131030111Y-128118087D01*
X130842152Y-128155474D01*
X130355971Y-128480330D01*
X130031115Y-128966511D01*
X129917041Y-129540000D01*
X111175000Y-129540000D01*
X111175000Y-120316812D01*
X122300736Y-120316812D01*
X122532262Y-120877149D01*
X122960596Y-121306231D01*
X123520528Y-121538735D01*
X124126812Y-121539264D01*
X124687149Y-121307738D01*
X125095336Y-120900263D01*
X125500596Y-121306231D01*
X126060528Y-121538735D01*
X126666812Y-121539264D01*
X127227149Y-121307738D01*
X127448076Y-121087196D01*
X128012409Y-121087196D01*
X128097467Y-121342539D01*
X128666965Y-121550516D01*
X129272700Y-121524723D01*
X129712533Y-121342539D01*
X129797591Y-121087196D01*
X128905000Y-120194605D01*
X128012409Y-121087196D01*
X127448076Y-121087196D01*
X127656231Y-120879404D01*
X127667405Y-120852494D01*
X127832804Y-120907591D01*
X128725395Y-120015000D01*
X129084605Y-120015000D01*
X129977196Y-120907591D01*
X130142138Y-120852647D01*
X130152262Y-120877149D01*
X130580596Y-121306231D01*
X131140528Y-121538735D01*
X131746812Y-121539264D01*
X132307149Y-121307738D01*
X132715336Y-120900263D01*
X133120596Y-121306231D01*
X133680528Y-121538735D01*
X134286812Y-121539264D01*
X134847149Y-121307738D01*
X135255336Y-120900263D01*
X135660596Y-121306231D01*
X136220528Y-121538735D01*
X136826812Y-121539264D01*
X137387149Y-121307738D01*
X137795336Y-120900263D01*
X138200596Y-121306231D01*
X138760528Y-121538735D01*
X139366812Y-121539264D01*
X139927149Y-121307738D01*
X140356231Y-120879404D01*
X140588735Y-120319472D01*
X140589264Y-119713188D01*
X140357738Y-119152851D01*
X139929404Y-118723769D01*
X139369472Y-118491265D01*
X138763188Y-118490736D01*
X138202851Y-118722262D01*
X137794664Y-119129737D01*
X137389404Y-118723769D01*
X136829472Y-118491265D01*
X136223188Y-118490736D01*
X135662851Y-118722262D01*
X135254664Y-119129737D01*
X134849404Y-118723769D01*
X134289472Y-118491265D01*
X133683188Y-118490736D01*
X133122851Y-118722262D01*
X132714664Y-119129737D01*
X132309404Y-118723769D01*
X131749472Y-118491265D01*
X131143188Y-118490736D01*
X130582851Y-118722262D01*
X130153769Y-119150596D01*
X130142595Y-119177506D01*
X129977196Y-119122409D01*
X129084605Y-120015000D01*
X128725395Y-120015000D01*
X127832804Y-119122409D01*
X127667862Y-119177353D01*
X127657738Y-119152851D01*
X127448058Y-118942804D01*
X128012409Y-118942804D01*
X128905000Y-119835395D01*
X129797591Y-118942804D01*
X129712533Y-118687461D01*
X129143035Y-118479484D01*
X128537300Y-118505277D01*
X128097467Y-118687461D01*
X128012409Y-118942804D01*
X127448058Y-118942804D01*
X127229404Y-118723769D01*
X126669472Y-118491265D01*
X126063188Y-118490736D01*
X125502851Y-118722262D01*
X125094664Y-119129737D01*
X124689404Y-118723769D01*
X124129472Y-118491265D01*
X123523188Y-118490736D01*
X122962851Y-118722262D01*
X122533769Y-119150596D01*
X122301265Y-119710528D01*
X122300736Y-120316812D01*
X111175000Y-120316812D01*
X111175000Y-106522870D01*
X122046583Y-106522870D01*
X122413166Y-107410069D01*
X123091361Y-108089449D01*
X123977919Y-108457580D01*
X124937870Y-108458417D01*
X125825069Y-108091834D01*
X126504449Y-107413639D01*
X126872580Y-106527081D01*
X126872583Y-106522870D01*
X136016583Y-106522870D01*
X136383166Y-107410069D01*
X137061361Y-108089449D01*
X137947919Y-108457580D01*
X138907870Y-108458417D01*
X139795069Y-108091834D01*
X140474449Y-107413639D01*
X140842580Y-106527081D01*
X140843417Y-105567130D01*
X140476834Y-104679931D01*
X139798639Y-104000551D01*
X138912081Y-103632420D01*
X137952130Y-103631583D01*
X137064931Y-103998166D01*
X136385551Y-104676361D01*
X136017420Y-105562919D01*
X136016583Y-106522870D01*
X126872583Y-106522870D01*
X126873417Y-105567130D01*
X126506834Y-104679931D01*
X125828639Y-104000551D01*
X124942081Y-103632420D01*
X123982130Y-103631583D01*
X123094931Y-103998166D01*
X122415551Y-104676361D01*
X122047420Y-105562919D01*
X122046583Y-106522870D01*
X111175000Y-106522870D01*
X111175000Y-99209661D01*
X123316758Y-99209661D01*
X123528990Y-99723303D01*
X123921630Y-100116629D01*
X124434900Y-100329757D01*
X124990661Y-100330242D01*
X125504303Y-100118010D01*
X125897629Y-99725370D01*
X125983949Y-99517488D01*
X126068990Y-99723303D01*
X126461630Y-100116629D01*
X126974900Y-100329757D01*
X127530661Y-100330242D01*
X128044303Y-100118010D01*
X128249457Y-99913213D01*
X128993392Y-99913213D01*
X129062857Y-100155397D01*
X129586302Y-100342144D01*
X130141368Y-100314362D01*
X130525143Y-100155397D01*
X130594608Y-99913213D01*
X129794000Y-99112605D01*
X128993392Y-99913213D01*
X128249457Y-99913213D01*
X128437629Y-99725370D01*
X128517395Y-99533273D01*
X128571603Y-99664143D01*
X128813787Y-99733608D01*
X129614395Y-98933000D01*
X128813787Y-98132392D01*
X128571603Y-98201857D01*
X128521491Y-98342318D01*
X128439010Y-98142697D01*
X128249432Y-97952787D01*
X128993392Y-97952787D01*
X129794000Y-98753395D01*
X130594608Y-97952787D01*
X130525143Y-97710603D01*
X130001698Y-97523856D01*
X129446632Y-97551638D01*
X129062857Y-97710603D01*
X128993392Y-97952787D01*
X128249432Y-97952787D01*
X128046370Y-97749371D01*
X127533100Y-97536243D01*
X126977339Y-97535758D01*
X126463697Y-97747990D01*
X126070371Y-98140630D01*
X125984051Y-98348512D01*
X125899010Y-98142697D01*
X125506370Y-97749371D01*
X124993100Y-97536243D01*
X124437339Y-97535758D01*
X123923697Y-97747990D01*
X123530371Y-98140630D01*
X123317243Y-98653900D01*
X123316758Y-99209661D01*
X111175000Y-99209661D01*
X111175000Y-82443172D01*
X112902538Y-82443172D01*
X113307709Y-83423761D01*
X114057293Y-84174655D01*
X115037173Y-84581536D01*
X116098172Y-84582462D01*
X117078761Y-84177291D01*
X117829655Y-83427707D01*
X118236536Y-82447827D01*
X118237462Y-81386828D01*
X118128397Y-81122870D01*
X121030583Y-81122870D01*
X121397166Y-82010069D01*
X122075361Y-82689449D01*
X122961919Y-83057580D01*
X123921870Y-83058417D01*
X124809069Y-82691834D01*
X125055672Y-82445661D01*
X128396758Y-82445661D01*
X128608990Y-82959303D01*
X129001630Y-83352629D01*
X129514900Y-83565757D01*
X130070661Y-83566242D01*
X130584303Y-83354010D01*
X130977629Y-82961370D01*
X131063949Y-82753488D01*
X131148990Y-82959303D01*
X131541630Y-83352629D01*
X132054900Y-83565757D01*
X132610661Y-83566242D01*
X133124303Y-83354010D01*
X133517629Y-82961370D01*
X133730757Y-82448100D01*
X133731242Y-81892339D01*
X133519010Y-81378697D01*
X133263630Y-81122870D01*
X136270583Y-81122870D01*
X136637166Y-82010069D01*
X137315361Y-82689449D01*
X138201919Y-83057580D01*
X139161870Y-83058417D01*
X140049069Y-82691834D01*
X140728449Y-82013639D01*
X141096580Y-81127081D01*
X141097417Y-80167130D01*
X140730834Y-79279931D01*
X140052639Y-78600551D01*
X139686920Y-78448691D01*
X145250000Y-78448691D01*
X145250000Y-79089250D01*
X145408750Y-79248000D01*
X146558000Y-79248000D01*
X146558000Y-78098750D01*
X146812000Y-78098750D01*
X146812000Y-79248000D01*
X147961250Y-79248000D01*
X148120000Y-79089250D01*
X148120000Y-78448691D01*
X148023327Y-78215302D01*
X147844699Y-78036673D01*
X147611310Y-77940000D01*
X146970750Y-77940000D01*
X146812000Y-78098750D01*
X146558000Y-78098750D01*
X146399250Y-77940000D01*
X145758690Y-77940000D01*
X145525301Y-78036673D01*
X145346673Y-78215302D01*
X145250000Y-78448691D01*
X139686920Y-78448691D01*
X139166081Y-78232420D01*
X138206130Y-78231583D01*
X137318931Y-78598166D01*
X136639551Y-79276361D01*
X136271420Y-80162919D01*
X136270583Y-81122870D01*
X133263630Y-81122870D01*
X133126370Y-80985371D01*
X132613100Y-80772243D01*
X132057339Y-80771758D01*
X131543697Y-80983990D01*
X131150371Y-81376630D01*
X131064051Y-81584512D01*
X130979010Y-81378697D01*
X130586370Y-80985371D01*
X130073100Y-80772243D01*
X129517339Y-80771758D01*
X129003697Y-80983990D01*
X128610371Y-81376630D01*
X128397243Y-81889900D01*
X128396758Y-82445661D01*
X125055672Y-82445661D01*
X125488449Y-82013639D01*
X125856580Y-81127081D01*
X125857417Y-80167130D01*
X125490834Y-79279931D01*
X124812639Y-78600551D01*
X123926081Y-78232420D01*
X122966130Y-78231583D01*
X122078931Y-78598166D01*
X121399551Y-79276361D01*
X121031420Y-80162919D01*
X121030583Y-81122870D01*
X118128397Y-81122870D01*
X117832291Y-80406239D01*
X117082707Y-79655345D01*
X116102827Y-79248464D01*
X115041828Y-79247538D01*
X114061239Y-79652709D01*
X113310345Y-80402293D01*
X112903464Y-81382173D01*
X112902538Y-82443172D01*
X111175000Y-82443172D01*
X111175000Y-77520000D01*
X206325000Y-77520000D01*
X206325000Y-139650000D01*
X206325000Y-139650000D01*
G37*
X206325000Y-139650000D02*
X111175000Y-139650000D01*
X111175000Y-135783172D01*
X112902538Y-135783172D01*
X113307709Y-136763761D01*
X114057293Y-137514655D01*
X115037173Y-137921536D01*
X116098172Y-137922462D01*
X117078761Y-137517291D01*
X117829655Y-136767707D01*
X118236536Y-135787827D01*
X118237462Y-134726828D01*
X117832291Y-133746239D01*
X117082707Y-132995345D01*
X116102827Y-132588464D01*
X115041828Y-132587538D01*
X114061239Y-132992709D01*
X113310345Y-133742293D01*
X112903464Y-134722173D01*
X112902538Y-135783172D01*
X111175000Y-135783172D01*
X111175000Y-129540000D01*
X129917041Y-129540000D01*
X130031115Y-130113489D01*
X130355971Y-130599670D01*
X130670752Y-130810000D01*
X130355971Y-131020330D01*
X130031115Y-131506511D01*
X129917041Y-132080000D01*
X130031115Y-132653489D01*
X130355971Y-133139670D01*
X130842152Y-133464526D01*
X131415641Y-133578600D01*
X131474359Y-133578600D01*
X132047848Y-133464526D01*
X132534029Y-133139670D01*
X132715000Y-132868828D01*
X132895971Y-133139670D01*
X133382152Y-133464526D01*
X133955641Y-133578600D01*
X134014359Y-133578600D01*
X134587848Y-133464526D01*
X135074029Y-133139670D01*
X135254992Y-132868839D01*
X135636510Y-133286821D01*
X136165973Y-133534968D01*
X136398000Y-133414469D01*
X136398000Y-132207000D01*
X136652000Y-132207000D01*
X136652000Y-133414469D01*
X136884027Y-133534968D01*
X137413490Y-133286821D01*
X137807688Y-132854947D01*
X137979958Y-132439026D01*
X137858817Y-132207000D01*
X136652000Y-132207000D01*
X136398000Y-132207000D01*
X136378000Y-132207000D01*
X136378000Y-131953000D01*
X136398000Y-131953000D01*
X136398000Y-131933000D01*
X136652000Y-131933000D01*
X136652000Y-131953000D01*
X137858817Y-131953000D01*
X137979958Y-131720974D01*
X137917426Y-131570000D01*
X138938000Y-131570000D01*
X139228839Y-131512148D01*
X139475401Y-131347401D01*
X145306434Y-125516368D01*
X145467757Y-125906800D01*
X145871077Y-126310824D01*
X146001215Y-126364862D01*
X145873200Y-126417757D01*
X145469176Y-126821077D01*
X145250250Y-127348309D01*
X145249752Y-127919187D01*
X145467757Y-128446800D01*
X145871077Y-128850824D01*
X146001215Y-128904862D01*
X145873200Y-128957757D01*
X145469176Y-129361077D01*
X145250250Y-129888309D01*
X145249752Y-130459187D01*
X145467757Y-130986800D01*
X145871077Y-131390824D01*
X146001215Y-131444862D01*
X145873200Y-131497757D01*
X145469176Y-131901077D01*
X145250250Y-132428309D01*
X145249752Y-132999187D01*
X145467757Y-133526800D01*
X145871077Y-133930824D01*
X146001215Y-133984862D01*
X145873200Y-134037757D01*
X145469176Y-134441077D01*
X145250250Y-134968309D01*
X145249752Y-135539187D01*
X145467757Y-136066800D01*
X145871077Y-136470824D01*
X146001215Y-136524862D01*
X145873200Y-136577757D01*
X145469176Y-136981077D01*
X145250250Y-137508309D01*
X145249752Y-138079187D01*
X145467757Y-138606800D01*
X145871077Y-139010824D01*
X146398309Y-139229750D01*
X146969187Y-139230248D01*
X147496800Y-139012243D01*
X147900824Y-138608923D01*
X148119750Y-138081691D01*
X148120248Y-137510813D01*
X147902243Y-136983200D01*
X147498923Y-136579176D01*
X147368785Y-136525138D01*
X147496800Y-136472243D01*
X147900824Y-136068923D01*
X148119750Y-135541691D01*
X148120248Y-134970813D01*
X147902243Y-134443200D01*
X147498923Y-134039176D01*
X147368785Y-133985138D01*
X147496800Y-133932243D01*
X147900824Y-133528923D01*
X148119750Y-133001691D01*
X148120248Y-132430813D01*
X147902243Y-131903200D01*
X147498923Y-131499176D01*
X147368785Y-131445138D01*
X147496800Y-131392243D01*
X147900824Y-130988923D01*
X148119750Y-130461691D01*
X148120248Y-129890813D01*
X147902243Y-129363200D01*
X147498923Y-128959176D01*
X147368785Y-128905138D01*
X147496800Y-128852243D01*
X147900824Y-128448923D01*
X148119750Y-127921691D01*
X148120248Y-127350813D01*
X147902243Y-126823200D01*
X147498923Y-126419176D01*
X147368785Y-126365138D01*
X147496800Y-126312243D01*
X147900824Y-125908923D01*
X147954862Y-125778785D01*
X148007757Y-125906800D01*
X148411077Y-126310824D01*
X148938309Y-126529750D01*
X149509187Y-126530248D01*
X150036800Y-126312243D01*
X150440824Y-125908923D01*
X150494862Y-125778785D01*
X150547757Y-125906800D01*
X150951077Y-126310824D01*
X151478309Y-126529750D01*
X152049187Y-126530248D01*
X152576800Y-126312243D01*
X152980824Y-125908923D01*
X153034862Y-125778785D01*
X153087757Y-125906800D01*
X153491077Y-126310824D01*
X153621215Y-126364862D01*
X153493200Y-126417757D01*
X153089176Y-126821077D01*
X152870250Y-127348309D01*
X152869752Y-127919187D01*
X153087757Y-128446800D01*
X153491077Y-128850824D01*
X153621215Y-128904862D01*
X153493200Y-128957757D01*
X153089176Y-129361077D01*
X152870250Y-129888309D01*
X152869752Y-130459187D01*
X153087757Y-130986800D01*
X153491077Y-131390824D01*
X153621215Y-131444862D01*
X153493200Y-131497757D01*
X153089176Y-131901077D01*
X152870250Y-132428309D01*
X152869752Y-132999187D01*
X153087757Y-133526800D01*
X153491077Y-133930824D01*
X153621215Y-133984862D01*
X153493200Y-134037757D01*
X153089176Y-134441077D01*
X152870250Y-134968309D01*
X152869752Y-135539187D01*
X153087757Y-136066800D01*
X153491077Y-136470824D01*
X153621215Y-136524862D01*
X153493200Y-136577757D01*
X153089176Y-136981077D01*
X152870250Y-137508309D01*
X152869752Y-138079187D01*
X153087757Y-138606800D01*
X153491077Y-139010824D01*
X154018309Y-139229750D01*
X154589187Y-139230248D01*
X155116800Y-139012243D01*
X155520824Y-138608923D01*
X155574862Y-138478785D01*
X155627757Y-138606800D01*
X156031077Y-139010824D01*
X156558309Y-139229750D01*
X157129187Y-139230248D01*
X157656800Y-139012243D01*
X158060824Y-138608923D01*
X158279750Y-138081691D01*
X158280248Y-137510813D01*
X158062243Y-136983200D01*
X157658923Y-136579176D01*
X157528785Y-136525138D01*
X157656800Y-136472243D01*
X158060824Y-136068923D01*
X158279750Y-135541691D01*
X158280248Y-134970813D01*
X158062243Y-134443200D01*
X157658923Y-134039176D01*
X157528785Y-133985138D01*
X157656800Y-133932243D01*
X158060824Y-133528923D01*
X158279750Y-133001691D01*
X158280248Y-132430813D01*
X158062243Y-131903200D01*
X157658923Y-131499176D01*
X157528785Y-131445138D01*
X157656800Y-131392243D01*
X158060824Y-130988923D01*
X158279750Y-130461691D01*
X158280248Y-129890813D01*
X158062243Y-129363200D01*
X157658923Y-128959176D01*
X157528785Y-128905138D01*
X157656800Y-128852243D01*
X158060824Y-128448923D01*
X158279750Y-127921691D01*
X158280248Y-127350813D01*
X158062243Y-126823200D01*
X157658923Y-126419176D01*
X157528785Y-126365138D01*
X157656800Y-126312243D01*
X158060824Y-125908923D01*
X158114862Y-125778785D01*
X158167757Y-125906800D01*
X158571077Y-126310824D01*
X159098309Y-126529750D01*
X159669187Y-126530248D01*
X160196800Y-126312243D01*
X160600824Y-125908923D01*
X160654862Y-125778785D01*
X160707757Y-125906800D01*
X161111077Y-126310824D01*
X161241215Y-126364862D01*
X161113200Y-126417757D01*
X160709176Y-126821077D01*
X160490250Y-127348309D01*
X160489752Y-127919187D01*
X160707757Y-128446800D01*
X161111077Y-128850824D01*
X161241215Y-128904862D01*
X161113200Y-128957757D01*
X160709176Y-129361077D01*
X160490250Y-129888309D01*
X160489752Y-130459187D01*
X160707757Y-130986800D01*
X161111077Y-131390824D01*
X161241215Y-131444862D01*
X161113200Y-131497757D01*
X160709176Y-131901077D01*
X160490250Y-132428309D01*
X160489752Y-132999187D01*
X160707757Y-133526800D01*
X161111077Y-133930824D01*
X161241215Y-133984862D01*
X161113200Y-134037757D01*
X160709176Y-134441077D01*
X160490250Y-134968309D01*
X160489752Y-135539187D01*
X160707757Y-136066800D01*
X161111077Y-136470824D01*
X161241215Y-136524862D01*
X161113200Y-136577757D01*
X160709176Y-136981077D01*
X160490250Y-137508309D01*
X160489752Y-138079187D01*
X160707757Y-138606800D01*
X161111077Y-139010824D01*
X161638309Y-139229750D01*
X162209187Y-139230248D01*
X162736800Y-139012243D01*
X163140824Y-138608923D01*
X163359750Y-138081691D01*
X163360248Y-137510813D01*
X163202332Y-137128625D01*
X165226472Y-137128625D01*
X165689525Y-138249298D01*
X166546192Y-139107462D01*
X167666055Y-139572470D01*
X168878625Y-139573528D01*
X169999298Y-139110475D01*
X170857462Y-138253808D01*
X171322470Y-137133945D01*
X171322474Y-137128625D01*
X183006472Y-137128625D01*
X183469525Y-138249298D01*
X184326192Y-139107462D01*
X185446055Y-139572470D01*
X186658625Y-139573528D01*
X187779298Y-139110475D01*
X188637462Y-138253808D01*
X189102470Y-137133945D01*
X189103528Y-135921375D01*
X189046424Y-135783172D01*
X199262538Y-135783172D01*
X199667709Y-136763761D01*
X200417293Y-137514655D01*
X201397173Y-137921536D01*
X202458172Y-137922462D01*
X203438761Y-137517291D01*
X204189655Y-136767707D01*
X204596536Y-135787827D01*
X204597462Y-134726828D01*
X204192291Y-133746239D01*
X203442707Y-132995345D01*
X202462827Y-132588464D01*
X201401828Y-132587538D01*
X200421239Y-132992709D01*
X199670345Y-133742293D01*
X199263464Y-134722173D01*
X199262538Y-135783172D01*
X189046424Y-135783172D01*
X188640475Y-134800702D01*
X187783808Y-133942538D01*
X186663945Y-133477530D01*
X185451375Y-133476472D01*
X184330702Y-133939525D01*
X183472538Y-134796192D01*
X183007530Y-135916055D01*
X183006472Y-137128625D01*
X171322474Y-137128625D01*
X171323528Y-135921375D01*
X170860475Y-134800702D01*
X170003808Y-133942538D01*
X168883945Y-133477530D01*
X167671375Y-133476472D01*
X166550702Y-133939525D01*
X165692538Y-134796192D01*
X165227530Y-135916055D01*
X165226472Y-137128625D01*
X163202332Y-137128625D01*
X163142243Y-136983200D01*
X162738923Y-136579176D01*
X162608785Y-136525138D01*
X162736800Y-136472243D01*
X163140824Y-136068923D01*
X163359750Y-135541691D01*
X163360248Y-134970813D01*
X163142243Y-134443200D01*
X162738923Y-134039176D01*
X162608785Y-133985138D01*
X162736800Y-133932243D01*
X163140824Y-133528923D01*
X163359750Y-133001691D01*
X163360248Y-132430813D01*
X163142243Y-131903200D01*
X162738923Y-131499176D01*
X162608785Y-131445138D01*
X162736800Y-131392243D01*
X163140824Y-130988923D01*
X163320589Y-130556000D01*
X184518560Y-130556000D01*
X184518560Y-132334000D01*
X184562838Y-132569317D01*
X184701910Y-132785441D01*
X184914110Y-132930431D01*
X185166000Y-132981440D01*
X186944000Y-132981440D01*
X187179317Y-132937162D01*
X187395441Y-132798090D01*
X187540431Y-132585890D01*
X187591440Y-132334000D01*
X187591440Y-130556000D01*
X187547162Y-130320683D01*
X187408090Y-130104559D01*
X187195890Y-129959569D01*
X187162506Y-129952809D01*
X187346231Y-129769404D01*
X187578735Y-129209472D01*
X187579264Y-128603188D01*
X187347738Y-128042851D01*
X186919404Y-127613769D01*
X186892494Y-127602595D01*
X186947591Y-127437196D01*
X186055000Y-126544605D01*
X185162409Y-127437196D01*
X185217353Y-127602138D01*
X185192851Y-127612262D01*
X184763769Y-128040596D01*
X184531265Y-128600528D01*
X184530736Y-129206812D01*
X184762262Y-129767149D01*
X184944948Y-129950154D01*
X184930683Y-129952838D01*
X184714559Y-130091910D01*
X184569569Y-130304110D01*
X184518560Y-130556000D01*
X163320589Y-130556000D01*
X163359750Y-130461691D01*
X163360248Y-129890813D01*
X163142243Y-129363200D01*
X162738923Y-128959176D01*
X162608785Y-128905138D01*
X162736800Y-128852243D01*
X163140824Y-128448923D01*
X163359750Y-127921691D01*
X163360248Y-127350813D01*
X163142243Y-126823200D01*
X162738923Y-126419176D01*
X162608785Y-126365138D01*
X162736800Y-126312243D01*
X163140824Y-125908923D01*
X163359750Y-125381691D01*
X163360248Y-124810813D01*
X163142243Y-124283200D01*
X162738923Y-123879176D01*
X162608785Y-123825138D01*
X162736800Y-123772243D01*
X163140824Y-123368923D01*
X163359750Y-122841691D01*
X163360248Y-122270813D01*
X163142243Y-121743200D01*
X162738923Y-121339176D01*
X162608785Y-121285138D01*
X162736800Y-121232243D01*
X163140824Y-120828923D01*
X163359750Y-120301691D01*
X163360248Y-119730813D01*
X163142243Y-119203200D01*
X162738923Y-118799176D01*
X162608785Y-118745138D01*
X162736800Y-118692243D01*
X163140824Y-118288923D01*
X163359750Y-117761691D01*
X163360248Y-117190813D01*
X163142243Y-116663200D01*
X162738923Y-116259176D01*
X162608785Y-116205138D01*
X162736800Y-116152243D01*
X163140824Y-115748923D01*
X163359750Y-115221691D01*
X163360248Y-114650813D01*
X163142243Y-114123200D01*
X162738923Y-113719176D01*
X162608785Y-113665138D01*
X162736800Y-113612243D01*
X163140824Y-113208923D01*
X163359750Y-112681691D01*
X163360248Y-112110813D01*
X163142243Y-111583200D01*
X162738923Y-111179176D01*
X162608785Y-111125138D01*
X162736800Y-111072243D01*
X163140824Y-110668923D01*
X163359750Y-110141691D01*
X163360248Y-109570813D01*
X163142243Y-109043200D01*
X162738923Y-108639176D01*
X162608785Y-108585138D01*
X162736800Y-108532243D01*
X163140824Y-108128923D01*
X163359750Y-107601691D01*
X163360248Y-107030813D01*
X163142243Y-106503200D01*
X162738923Y-106099176D01*
X162608785Y-106045138D01*
X162736800Y-105992243D01*
X163140824Y-105588923D01*
X163359750Y-105061691D01*
X163360248Y-104490813D01*
X163142243Y-103963200D01*
X162738923Y-103559176D01*
X162608785Y-103505138D01*
X162736800Y-103452243D01*
X163140824Y-103048923D01*
X163359750Y-102521691D01*
X163360248Y-101950813D01*
X163142243Y-101423200D01*
X162738923Y-101019176D01*
X162608785Y-100965138D01*
X162736800Y-100912243D01*
X163140824Y-100508923D01*
X163163215Y-100455000D01*
X168595198Y-100455000D01*
X168597478Y-100457280D01*
X167671375Y-100456472D01*
X166550702Y-100919525D01*
X165692538Y-101776192D01*
X165227530Y-102896055D01*
X165226472Y-104108625D01*
X165689525Y-105229298D01*
X166546192Y-106087462D01*
X167666055Y-106552470D01*
X168878625Y-106553528D01*
X169999298Y-106090475D01*
X170690000Y-105400978D01*
X170690000Y-107950000D01*
X170747852Y-108240839D01*
X170912599Y-108487401D01*
X184247599Y-121822401D01*
X184494161Y-121987148D01*
X184714239Y-122030925D01*
X184762262Y-122147149D01*
X185169737Y-122555336D01*
X184763769Y-122960596D01*
X184720417Y-123065000D01*
X183194802Y-123065000D01*
X170480122Y-110350320D01*
X170480162Y-110304833D01*
X170338117Y-109961057D01*
X170075327Y-109697808D01*
X169731799Y-109555162D01*
X169359833Y-109554838D01*
X169016057Y-109696883D01*
X168752808Y-109959673D01*
X168610162Y-110303201D01*
X168609838Y-110675167D01*
X168751883Y-111018943D01*
X169014673Y-111282192D01*
X169358201Y-111424838D01*
X169405077Y-111424879D01*
X170314983Y-112334785D01*
X170149808Y-112499673D01*
X170007162Y-112843201D01*
X170006838Y-113215167D01*
X170148883Y-113558943D01*
X170411673Y-113822192D01*
X170555066Y-113881734D01*
X178770088Y-128168728D01*
X178769838Y-128455167D01*
X178911883Y-128798943D01*
X179174673Y-129062192D01*
X179518201Y-129204838D01*
X179890167Y-129205162D01*
X180233943Y-129063117D01*
X180497192Y-128800327D01*
X180639838Y-128456799D01*
X180640162Y-128084833D01*
X180498117Y-127741057D01*
X180235327Y-127477808D01*
X180091934Y-127418266D01*
X179349436Y-126126965D01*
X184519484Y-126126965D01*
X184545277Y-126732700D01*
X184727461Y-127172533D01*
X184982804Y-127257591D01*
X185875395Y-126365000D01*
X186234605Y-126365000D01*
X187127196Y-127257591D01*
X187382539Y-127172533D01*
X187590516Y-126603035D01*
X187564723Y-125997300D01*
X187382539Y-125557467D01*
X187127196Y-125472409D01*
X186234605Y-126365000D01*
X185875395Y-126365000D01*
X184982804Y-125472409D01*
X184727461Y-125557467D01*
X184519484Y-126126965D01*
X179349436Y-126126965D01*
X172912511Y-114932313D01*
X182342599Y-124362401D01*
X182589161Y-124527148D01*
X182880000Y-124585000D01*
X184720055Y-124585000D01*
X184762262Y-124687149D01*
X185190596Y-125116231D01*
X185217506Y-125127405D01*
X185162409Y-125292804D01*
X186055000Y-126185395D01*
X186947591Y-125292804D01*
X186892647Y-125127862D01*
X186917149Y-125117738D01*
X187346231Y-124689404D01*
X187578735Y-124129472D01*
X187579264Y-123523188D01*
X187347738Y-122962851D01*
X186940263Y-122554664D01*
X187346231Y-122149404D01*
X187578735Y-121589472D01*
X187579264Y-120983188D01*
X187347738Y-120422851D01*
X186940263Y-120014664D01*
X187346231Y-119609404D01*
X187578735Y-119049472D01*
X187579264Y-118443188D01*
X187347738Y-117882851D01*
X186940263Y-117474664D01*
X187346231Y-117069404D01*
X187578735Y-116509472D01*
X187579264Y-115903188D01*
X187347738Y-115342851D01*
X186940263Y-114934664D01*
X187346231Y-114529404D01*
X187578735Y-113969472D01*
X187579264Y-113363188D01*
X187347738Y-112802851D01*
X186940263Y-112394664D01*
X187346231Y-111989404D01*
X187578735Y-111429472D01*
X187579264Y-110823188D01*
X187347738Y-110262851D01*
X186940599Y-109855000D01*
X193896655Y-109855000D01*
X194022330Y-110486810D01*
X194249499Y-110826792D01*
X194112559Y-110914910D01*
X193967569Y-111127110D01*
X193916560Y-111379000D01*
X193916560Y-113411000D01*
X193960838Y-113646317D01*
X194099910Y-113862441D01*
X194312110Y-114007431D01*
X194564000Y-114058440D01*
X196596000Y-114058440D01*
X196831317Y-114014162D01*
X197047441Y-113875090D01*
X197192431Y-113662890D01*
X197243440Y-113411000D01*
X197243440Y-112395000D01*
X198341655Y-112395000D01*
X198467330Y-113026810D01*
X198825222Y-113562433D01*
X199360845Y-113920325D01*
X199992655Y-114046000D01*
X200057345Y-114046000D01*
X200689155Y-113920325D01*
X201224778Y-113562433D01*
X201582670Y-113026810D01*
X201708345Y-112395000D01*
X201582670Y-111763190D01*
X201355501Y-111423208D01*
X201492441Y-111335090D01*
X201637431Y-111122890D01*
X201688440Y-110871000D01*
X201688440Y-108839000D01*
X201644162Y-108603683D01*
X201505090Y-108387559D01*
X201292890Y-108242569D01*
X201041000Y-108191560D01*
X199009000Y-108191560D01*
X198773683Y-108235838D01*
X198557559Y-108374910D01*
X198412569Y-108587110D01*
X198361560Y-108839000D01*
X198361560Y-110871000D01*
X198405838Y-111106317D01*
X198544910Y-111322441D01*
X198693837Y-111424198D01*
X198467330Y-111763190D01*
X198341655Y-112395000D01*
X197243440Y-112395000D01*
X197243440Y-111379000D01*
X197199162Y-111143683D01*
X197060090Y-110927559D01*
X196911163Y-110825802D01*
X197137670Y-110486810D01*
X197263345Y-109855000D01*
X197137670Y-109223190D01*
X196779778Y-108687567D01*
X196244155Y-108329675D01*
X195612345Y-108204000D01*
X195547655Y-108204000D01*
X194915845Y-108329675D01*
X194380222Y-108687567D01*
X194022330Y-109223190D01*
X193896655Y-109855000D01*
X186940599Y-109855000D01*
X186940263Y-109854664D01*
X187346231Y-109449404D01*
X187578735Y-108889472D01*
X187579264Y-108283188D01*
X187347738Y-107722851D01*
X187065380Y-107440000D01*
X188667537Y-107440000D01*
X188699673Y-107472192D01*
X189043201Y-107614838D01*
X189415167Y-107615162D01*
X189758943Y-107473117D01*
X190022192Y-107210327D01*
X190164838Y-106866799D01*
X190165162Y-106494833D01*
X190023117Y-106151057D01*
X189760327Y-105887808D01*
X189416799Y-105745162D01*
X189044833Y-105744838D01*
X188701057Y-105886883D01*
X188667882Y-105920000D01*
X187950071Y-105920000D01*
X188637462Y-105233808D01*
X189102470Y-104113945D01*
X189103528Y-102901375D01*
X188640475Y-101780702D01*
X188158361Y-101297745D01*
X191576861Y-101297745D01*
X191650995Y-101543864D01*
X192188223Y-101736965D01*
X192758454Y-101709778D01*
X193159005Y-101543864D01*
X193233139Y-101297745D01*
X192405000Y-100469605D01*
X191576861Y-101297745D01*
X188158361Y-101297745D01*
X187783808Y-100922538D01*
X186663945Y-100457530D01*
X185451375Y-100456472D01*
X184330702Y-100919525D01*
X183472538Y-101776192D01*
X183007530Y-102896055D01*
X183006472Y-104108625D01*
X183255063Y-104710261D01*
X178814000Y-100269198D01*
X178814000Y-100073223D01*
X190958035Y-100073223D01*
X190985222Y-100643454D01*
X191151136Y-101044005D01*
X191397255Y-101118139D01*
X192225395Y-100290000D01*
X192584605Y-100290000D01*
X193412745Y-101118139D01*
X193658864Y-101044005D01*
X193851965Y-100506777D01*
X193824778Y-99936546D01*
X193658864Y-99535995D01*
X193412745Y-99461861D01*
X192584605Y-100290000D01*
X192225395Y-100290000D01*
X191397255Y-99461861D01*
X191151136Y-99535995D01*
X190958035Y-100073223D01*
X178814000Y-100073223D01*
X178814000Y-99495531D01*
X178844303Y-99483010D01*
X179237629Y-99090370D01*
X179323949Y-98882488D01*
X179408990Y-99088303D01*
X179801630Y-99481629D01*
X180314900Y-99694757D01*
X180870661Y-99695242D01*
X181384303Y-99483010D01*
X181777629Y-99090370D01*
X181863949Y-98882488D01*
X181948990Y-99088303D01*
X182341630Y-99481629D01*
X182854900Y-99694757D01*
X183410661Y-99695242D01*
X183924303Y-99483010D01*
X184317629Y-99090370D01*
X184530757Y-98577100D01*
X184531242Y-98021339D01*
X184319010Y-97507697D01*
X183926370Y-97114371D01*
X183413100Y-96901243D01*
X182857339Y-96900758D01*
X182343697Y-97112990D01*
X181950371Y-97505630D01*
X181864051Y-97713512D01*
X181779010Y-97507697D01*
X181386370Y-97114371D01*
X180873100Y-96901243D01*
X180317339Y-96900758D01*
X179803697Y-97112990D01*
X179410371Y-97505630D01*
X179324051Y-97713512D01*
X179239010Y-97507697D01*
X178846370Y-97114371D01*
X178333100Y-96901243D01*
X177777339Y-96900758D01*
X177263697Y-97112990D01*
X176870371Y-97505630D01*
X176790605Y-97697727D01*
X176736397Y-97566857D01*
X176494213Y-97497392D01*
X175693605Y-98298000D01*
X176494213Y-99098608D01*
X176736397Y-99029143D01*
X176786509Y-98888682D01*
X176868990Y-99088303D01*
X177261630Y-99481629D01*
X177294000Y-99495070D01*
X177294000Y-100584000D01*
X177351852Y-100874839D01*
X177516599Y-101121401D01*
X183612599Y-107217401D01*
X183859161Y-107382148D01*
X184150000Y-107440000D01*
X185044855Y-107440000D01*
X184763769Y-107720596D01*
X184531265Y-108280528D01*
X184530736Y-108886812D01*
X184762262Y-109447149D01*
X185169737Y-109855336D01*
X184763769Y-110260596D01*
X184531265Y-110820528D01*
X184530736Y-111426812D01*
X184762262Y-111987149D01*
X185169737Y-112395336D01*
X184763769Y-112800596D01*
X184531265Y-113360528D01*
X184530736Y-113966812D01*
X184762262Y-114527149D01*
X185169737Y-114935336D01*
X184763769Y-115340596D01*
X184531265Y-115900528D01*
X184530736Y-116506812D01*
X184762262Y-117067149D01*
X185169737Y-117475336D01*
X184763769Y-117880596D01*
X184531265Y-118440528D01*
X184530736Y-119046812D01*
X184762262Y-119607149D01*
X185169737Y-120015336D01*
X184879685Y-120304883D01*
X172210000Y-107635198D01*
X172210000Y-102235000D01*
X172152148Y-101944161D01*
X172152148Y-101944160D01*
X171987401Y-101697599D01*
X169863601Y-99573799D01*
X170154900Y-99694757D01*
X170710661Y-99695242D01*
X171224303Y-99483010D01*
X171617629Y-99090370D01*
X171703949Y-98882488D01*
X171788990Y-99088303D01*
X172181630Y-99481629D01*
X172694900Y-99694757D01*
X173250661Y-99695242D01*
X173764303Y-99483010D01*
X173969457Y-99278213D01*
X174713392Y-99278213D01*
X174782857Y-99520397D01*
X175306302Y-99707144D01*
X175861368Y-99679362D01*
X176245143Y-99520397D01*
X176314608Y-99278213D01*
X175514000Y-98477605D01*
X174713392Y-99278213D01*
X173969457Y-99278213D01*
X174157629Y-99090370D01*
X174237395Y-98898273D01*
X174291603Y-99029143D01*
X174533787Y-99098608D01*
X175334395Y-98298000D01*
X174533787Y-97497392D01*
X174291603Y-97566857D01*
X174241491Y-97707318D01*
X174159010Y-97507697D01*
X173969432Y-97317787D01*
X174713392Y-97317787D01*
X175514000Y-98118395D01*
X176314608Y-97317787D01*
X176245143Y-97075603D01*
X175721698Y-96888856D01*
X175166632Y-96916638D01*
X174782857Y-97075603D01*
X174713392Y-97317787D01*
X173969432Y-97317787D01*
X173766370Y-97114371D01*
X173253100Y-96901243D01*
X172778973Y-96900829D01*
X173034802Y-96645000D01*
X190185198Y-96645000D01*
X190957560Y-97417362D01*
X190957560Y-98590000D01*
X191001838Y-98825317D01*
X191140910Y-99041441D01*
X191353110Y-99186431D01*
X191591201Y-99234646D01*
X191576861Y-99282255D01*
X192405000Y-100110395D01*
X193233139Y-99282255D01*
X193218855Y-99234833D01*
X193440317Y-99193162D01*
X193656441Y-99054090D01*
X193801431Y-98841890D01*
X193852440Y-98590000D01*
X193852440Y-96990000D01*
X193808162Y-96754683D01*
X193669090Y-96538559D01*
X193456890Y-96393569D01*
X193205000Y-96342560D01*
X192032362Y-96342560D01*
X191037401Y-95347599D01*
X190790839Y-95182852D01*
X190500000Y-95125000D01*
X172720000Y-95125000D01*
X172429160Y-95182852D01*
X172182599Y-95347599D01*
X170629028Y-96901170D01*
X170157339Y-96900758D01*
X169643697Y-97112990D01*
X169250371Y-97505630D01*
X169037243Y-98018900D01*
X169036758Y-98574661D01*
X169212873Y-99000893D01*
X169200839Y-98992852D01*
X168910000Y-98935000D01*
X163163646Y-98935000D01*
X163142243Y-98883200D01*
X162738923Y-98479176D01*
X162608785Y-98425138D01*
X162736800Y-98372243D01*
X163140824Y-97968923D01*
X163359750Y-97441691D01*
X163360248Y-96870813D01*
X163142243Y-96343200D01*
X162738923Y-95939176D01*
X162608785Y-95885138D01*
X162736800Y-95832243D01*
X162964844Y-95604596D01*
X163036883Y-95778943D01*
X163299673Y-96042192D01*
X163643201Y-96184838D01*
X164015167Y-96185162D01*
X164358943Y-96043117D01*
X164392118Y-96010000D01*
X167712537Y-96010000D01*
X167744673Y-96042192D01*
X168088201Y-96184838D01*
X168460167Y-96185162D01*
X168803943Y-96043117D01*
X169067192Y-95780327D01*
X169209838Y-95436799D01*
X169210162Y-95064833D01*
X169068117Y-94721057D01*
X168805327Y-94457808D01*
X168461799Y-94315162D01*
X168089833Y-94314838D01*
X167746057Y-94456883D01*
X167712882Y-94490000D01*
X164392463Y-94490000D01*
X164360327Y-94457808D01*
X164016799Y-94315162D01*
X163644833Y-94314838D01*
X163360159Y-94432462D01*
X163360248Y-94330813D01*
X163142243Y-93803200D01*
X162738923Y-93399176D01*
X162608785Y-93345138D01*
X162736800Y-93292243D01*
X163140824Y-92888923D01*
X163359750Y-92361691D01*
X163360248Y-91790813D01*
X163142243Y-91263200D01*
X162738923Y-90859176D01*
X162608785Y-90805138D01*
X162736800Y-90752243D01*
X163140824Y-90348923D01*
X163359750Y-89821691D01*
X163360248Y-89250813D01*
X163279316Y-89054940D01*
X188887360Y-89054940D01*
X188887360Y-92555060D01*
X188931638Y-92790377D01*
X189070710Y-93006501D01*
X189282910Y-93151491D01*
X189534800Y-93202500D01*
X193034920Y-93202500D01*
X193270237Y-93158222D01*
X193486361Y-93019150D01*
X193631351Y-92806950D01*
X193682360Y-92555060D01*
X193682360Y-91090750D01*
X194899280Y-91090750D01*
X194899280Y-92681370D01*
X194995953Y-92914759D01*
X195174582Y-93093387D01*
X195407971Y-93190060D01*
X196998590Y-93190060D01*
X197157340Y-93031310D01*
X197157340Y-90932000D01*
X197411340Y-90932000D01*
X197411340Y-93031310D01*
X197570090Y-93190060D01*
X199160709Y-93190060D01*
X199394098Y-93093387D01*
X199572727Y-92914759D01*
X199669400Y-92681370D01*
X199669400Y-91090750D01*
X199510650Y-90932000D01*
X197411340Y-90932000D01*
X197157340Y-90932000D01*
X195058030Y-90932000D01*
X194899280Y-91090750D01*
X193682360Y-91090750D01*
X193682360Y-89054940D01*
X193638082Y-88819623D01*
X193499010Y-88603499D01*
X193352657Y-88503500D01*
X195206240Y-88503500D01*
X195174582Y-88516613D01*
X194995953Y-88695241D01*
X194899280Y-88928630D01*
X194899280Y-90519250D01*
X195058030Y-90678000D01*
X197157340Y-90678000D01*
X197157340Y-88578690D01*
X197411340Y-88578690D01*
X197411340Y-90678000D01*
X199510650Y-90678000D01*
X199669400Y-90519250D01*
X199669400Y-88928630D01*
X199572727Y-88695241D01*
X199394098Y-88516613D01*
X199160709Y-88419940D01*
X197570090Y-88419940D01*
X197411340Y-88578690D01*
X197157340Y-88578690D01*
X196998590Y-88419940D01*
X196331023Y-88419940D01*
X196486101Y-88320150D01*
X196631091Y-88107950D01*
X196682100Y-87856060D01*
X196682100Y-84355940D01*
X196637822Y-84120623D01*
X196498750Y-83904499D01*
X196286550Y-83759509D01*
X196034660Y-83708500D01*
X192534540Y-83708500D01*
X192299223Y-83752778D01*
X192083099Y-83891850D01*
X191938109Y-84104050D01*
X191887100Y-84355940D01*
X191887100Y-87856060D01*
X191931378Y-88091377D01*
X192070450Y-88307501D01*
X192216803Y-88407500D01*
X189534800Y-88407500D01*
X189299483Y-88451778D01*
X189083359Y-88590850D01*
X188938369Y-88803050D01*
X188887360Y-89054940D01*
X163279316Y-89054940D01*
X163142243Y-88723200D01*
X162738923Y-88319176D01*
X162608785Y-88265138D01*
X162736800Y-88212243D01*
X163140824Y-87808923D01*
X163359750Y-87281691D01*
X163360248Y-86710813D01*
X163142243Y-86183200D01*
X162738923Y-85779176D01*
X162608785Y-85725138D01*
X162736800Y-85672243D01*
X163140824Y-85268923D01*
X163359750Y-84741691D01*
X163360248Y-84170813D01*
X163142243Y-83643200D01*
X162738923Y-83239176D01*
X162624232Y-83191552D01*
X162679005Y-83168864D01*
X162753139Y-82922745D01*
X161925000Y-82094605D01*
X161096861Y-82922745D01*
X161170995Y-83168864D01*
X161229254Y-83189805D01*
X161113200Y-83237757D01*
X160709176Y-83641077D01*
X160490250Y-84168309D01*
X160489752Y-84739187D01*
X160707757Y-85266800D01*
X161111077Y-85670824D01*
X161241215Y-85724862D01*
X161113200Y-85777757D01*
X160709176Y-86181077D01*
X160655138Y-86311215D01*
X160602243Y-86183200D01*
X160198923Y-85779176D01*
X159671691Y-85560250D01*
X159100813Y-85559752D01*
X158573200Y-85777757D01*
X158169176Y-86181077D01*
X157950250Y-86708309D01*
X157949752Y-87279187D01*
X158167757Y-87806800D01*
X158571077Y-88210824D01*
X158701215Y-88264862D01*
X158573200Y-88317757D01*
X158169176Y-88721077D01*
X157950250Y-89248309D01*
X157949752Y-89819187D01*
X158167757Y-90346800D01*
X158571077Y-90750824D01*
X158701215Y-90804862D01*
X158573200Y-90857757D01*
X158169176Y-91261077D01*
X157950250Y-91788309D01*
X157949752Y-92359187D01*
X158167757Y-92886800D01*
X158571077Y-93290824D01*
X159098309Y-93509750D01*
X159669187Y-93510248D01*
X160196800Y-93292243D01*
X160600824Y-92888923D01*
X160654862Y-92758785D01*
X160707757Y-92886800D01*
X161111077Y-93290824D01*
X161241215Y-93344862D01*
X161113200Y-93397757D01*
X160709176Y-93801077D01*
X160490250Y-94328309D01*
X160489752Y-94899187D01*
X160707757Y-95426800D01*
X161111077Y-95830824D01*
X161241215Y-95884862D01*
X161113200Y-95937757D01*
X160709176Y-96341077D01*
X160490250Y-96868309D01*
X160489752Y-97439187D01*
X160707757Y-97966800D01*
X161111077Y-98370824D01*
X161241215Y-98424862D01*
X161113200Y-98477757D01*
X160709176Y-98881077D01*
X160490250Y-99408309D01*
X160489752Y-99979187D01*
X160707757Y-100506800D01*
X161111077Y-100910824D01*
X161241215Y-100964862D01*
X161113200Y-101017757D01*
X160709176Y-101421077D01*
X160490250Y-101948309D01*
X160489752Y-102519187D01*
X160707757Y-103046800D01*
X161111077Y-103450824D01*
X161241215Y-103504862D01*
X161113200Y-103557757D01*
X160709176Y-103961077D01*
X160490250Y-104488309D01*
X160489752Y-105059187D01*
X160707757Y-105586800D01*
X161111077Y-105990824D01*
X161241215Y-106044862D01*
X161113200Y-106097757D01*
X160709176Y-106501077D01*
X160490250Y-107028309D01*
X160489752Y-107599187D01*
X160707757Y-108126800D01*
X161111077Y-108530824D01*
X161241215Y-108584862D01*
X161113200Y-108637757D01*
X160709176Y-109041077D01*
X160490250Y-109568309D01*
X160489752Y-110139187D01*
X160707757Y-110666800D01*
X161111077Y-111070824D01*
X161241215Y-111124862D01*
X161113200Y-111177757D01*
X160709176Y-111581077D01*
X160490250Y-112108309D01*
X160489752Y-112679187D01*
X160707757Y-113206800D01*
X161111077Y-113610824D01*
X161241215Y-113664862D01*
X161113200Y-113717757D01*
X160709176Y-114121077D01*
X160490250Y-114648309D01*
X160489752Y-115219187D01*
X160707757Y-115746800D01*
X161111077Y-116150824D01*
X161241215Y-116204862D01*
X161113200Y-116257757D01*
X160709176Y-116661077D01*
X160490250Y-117188309D01*
X160489752Y-117759187D01*
X160707757Y-118286800D01*
X161111077Y-118690824D01*
X161241215Y-118744862D01*
X161113200Y-118797757D01*
X160709176Y-119201077D01*
X160490250Y-119728309D01*
X160489752Y-120299187D01*
X160707757Y-120826800D01*
X161111077Y-121230824D01*
X161241215Y-121284862D01*
X161113200Y-121337757D01*
X160709176Y-121741077D01*
X160490250Y-122268309D01*
X160489752Y-122839187D01*
X160707757Y-123366800D01*
X161111077Y-123770824D01*
X161241215Y-123824862D01*
X161113200Y-123877757D01*
X160709176Y-124281077D01*
X160655138Y-124411215D01*
X160602243Y-124283200D01*
X160198923Y-123879176D01*
X159671691Y-123660250D01*
X159100813Y-123659752D01*
X158573200Y-123877757D01*
X158169176Y-124281077D01*
X158115138Y-124411215D01*
X158062243Y-124283200D01*
X157658923Y-123879176D01*
X157528785Y-123825138D01*
X157656800Y-123772243D01*
X158060824Y-123368923D01*
X158279750Y-122841691D01*
X158280248Y-122270813D01*
X158062243Y-121743200D01*
X157658923Y-121339176D01*
X157528785Y-121285138D01*
X157656800Y-121232243D01*
X158060824Y-120828923D01*
X158279750Y-120301691D01*
X158280248Y-119730813D01*
X158062243Y-119203200D01*
X157658923Y-118799176D01*
X157528785Y-118745138D01*
X157656800Y-118692243D01*
X158060824Y-118288923D01*
X158279750Y-117761691D01*
X158280248Y-117190813D01*
X158062243Y-116663200D01*
X157658923Y-116259176D01*
X157131691Y-116040250D01*
X156560813Y-116039752D01*
X156033200Y-116257757D01*
X155629176Y-116661077D01*
X155575138Y-116791215D01*
X155522243Y-116663200D01*
X155118923Y-116259176D01*
X154591691Y-116040250D01*
X154020813Y-116039752D01*
X153493200Y-116257757D01*
X153089176Y-116661077D01*
X152870250Y-117188309D01*
X152869752Y-117759187D01*
X153087757Y-118286800D01*
X153491077Y-118690824D01*
X153621215Y-118744862D01*
X153493200Y-118797757D01*
X153089176Y-119201077D01*
X152870250Y-119728309D01*
X152869752Y-120299187D01*
X153087757Y-120826800D01*
X153491077Y-121230824D01*
X153621215Y-121284862D01*
X153493200Y-121337757D01*
X153089176Y-121741077D01*
X152870250Y-122268309D01*
X152869752Y-122839187D01*
X153087757Y-123366800D01*
X153491077Y-123770824D01*
X153621215Y-123824862D01*
X153493200Y-123877757D01*
X153089176Y-124281077D01*
X153035138Y-124411215D01*
X152982243Y-124283200D01*
X152578923Y-123879176D01*
X152051691Y-123660250D01*
X151480813Y-123659752D01*
X150953200Y-123877757D01*
X150549176Y-124281077D01*
X150495138Y-124411215D01*
X150442243Y-124283200D01*
X150038923Y-123879176D01*
X149511691Y-123660250D01*
X149030768Y-123659830D01*
X150491917Y-122361031D01*
X150505579Y-122342978D01*
X150524401Y-122330401D01*
X150594601Y-122225339D01*
X150670858Y-122124569D01*
X150676571Y-122102662D01*
X150689148Y-122083839D01*
X150713801Y-121959903D01*
X150745688Y-121837629D01*
X150742583Y-121815205D01*
X150747000Y-121793000D01*
X150747000Y-104069802D01*
X154893878Y-108216680D01*
X154893838Y-108262167D01*
X155035883Y-108605943D01*
X155298673Y-108869192D01*
X155642201Y-109011838D01*
X156014167Y-109012162D01*
X156357943Y-108870117D01*
X156621192Y-108607327D01*
X156763838Y-108263799D01*
X156764002Y-108075713D01*
X156992943Y-107981117D01*
X157232582Y-107741896D01*
X157538167Y-107742162D01*
X157881943Y-107600117D01*
X158145192Y-107337327D01*
X158287838Y-106993799D01*
X158288162Y-106621833D01*
X158146117Y-106278057D01*
X157883327Y-106014808D01*
X157539799Y-105872162D01*
X157492923Y-105872121D01*
X155875122Y-104254320D01*
X155875162Y-104208833D01*
X155733117Y-103865057D01*
X155470327Y-103601808D01*
X155126799Y-103459162D01*
X155100111Y-103459139D01*
X155116800Y-103452243D01*
X155520824Y-103048923D01*
X155574862Y-102918785D01*
X155627757Y-103046800D01*
X156031077Y-103450824D01*
X156558309Y-103669750D01*
X157129187Y-103670248D01*
X157656800Y-103452243D01*
X158060824Y-103048923D01*
X158279750Y-102521691D01*
X158280248Y-101950813D01*
X158062243Y-101423200D01*
X157658923Y-101019176D01*
X157528785Y-100965138D01*
X157656800Y-100912243D01*
X158060824Y-100508923D01*
X158279750Y-99981691D01*
X158280248Y-99410813D01*
X158062243Y-98883200D01*
X157658923Y-98479176D01*
X157528785Y-98425138D01*
X157656800Y-98372243D01*
X158060824Y-97968923D01*
X158279750Y-97441691D01*
X158280248Y-96870813D01*
X158062243Y-96343200D01*
X157658923Y-95939176D01*
X157528785Y-95885138D01*
X157656800Y-95832243D01*
X158060824Y-95428923D01*
X158279750Y-94901691D01*
X158280248Y-94330813D01*
X158062243Y-93803200D01*
X157658923Y-93399176D01*
X157131691Y-93180250D01*
X156560813Y-93179752D01*
X156033200Y-93397757D01*
X155629176Y-93801077D01*
X155575138Y-93931215D01*
X155522243Y-93803200D01*
X155118923Y-93399176D01*
X154591691Y-93180250D01*
X154020813Y-93179752D01*
X153493200Y-93397757D01*
X153089176Y-93801077D01*
X152870250Y-94328309D01*
X152869752Y-94899187D01*
X153087757Y-95426800D01*
X153491077Y-95830824D01*
X153621215Y-95884862D01*
X153493200Y-95937757D01*
X153089176Y-96341077D01*
X152870250Y-96868309D01*
X152869752Y-97439187D01*
X153087757Y-97966800D01*
X153491077Y-98370824D01*
X153621215Y-98424862D01*
X153493200Y-98477757D01*
X153089176Y-98881077D01*
X152870250Y-99408309D01*
X152869752Y-99979187D01*
X153087757Y-100506800D01*
X153491077Y-100910824D01*
X153621215Y-100964862D01*
X153493200Y-101017757D01*
X153089176Y-101421077D01*
X152870250Y-101948309D01*
X152869752Y-102518950D01*
X148023731Y-97672929D01*
X148119750Y-97441691D01*
X148120248Y-96870813D01*
X147902243Y-96343200D01*
X147498923Y-95939176D01*
X147368785Y-95885138D01*
X147496800Y-95832243D01*
X147900824Y-95428923D01*
X148119750Y-94901691D01*
X148120248Y-94330813D01*
X147902243Y-93803200D01*
X147498923Y-93399176D01*
X147368785Y-93345138D01*
X147496800Y-93292243D01*
X147900824Y-92888923D01*
X148119750Y-92361691D01*
X148120248Y-91790813D01*
X147902243Y-91263200D01*
X147498923Y-90859176D01*
X147368785Y-90805138D01*
X147496800Y-90752243D01*
X147900824Y-90348923D01*
X148119750Y-89821691D01*
X148120248Y-89250813D01*
X147902243Y-88723200D01*
X147498923Y-88319176D01*
X147368785Y-88265138D01*
X147496800Y-88212243D01*
X147900824Y-87808923D01*
X148119750Y-87281691D01*
X148120248Y-86710813D01*
X147902243Y-86183200D01*
X147728534Y-86009187D01*
X148249752Y-86009187D01*
X148467757Y-86536800D01*
X148871077Y-86940824D01*
X149001215Y-86994862D01*
X148873200Y-87047757D01*
X148469176Y-87451077D01*
X148250250Y-87978309D01*
X148249752Y-88549187D01*
X148467757Y-89076800D01*
X148871077Y-89480824D01*
X149001215Y-89534862D01*
X148873200Y-89587757D01*
X148469176Y-89991077D01*
X148250250Y-90518309D01*
X148249752Y-91089187D01*
X148467757Y-91616800D01*
X148871077Y-92020824D01*
X149001215Y-92074862D01*
X148873200Y-92127757D01*
X148469176Y-92531077D01*
X148250250Y-93058309D01*
X148249752Y-93629187D01*
X148467757Y-94156800D01*
X148871077Y-94560824D01*
X149001215Y-94614862D01*
X148873200Y-94667757D01*
X148469176Y-95071077D01*
X148250250Y-95598309D01*
X148249752Y-96169187D01*
X148467757Y-96696800D01*
X148871077Y-97100824D01*
X149398309Y-97319750D01*
X149969187Y-97320248D01*
X150496800Y-97102243D01*
X150900824Y-96698923D01*
X151119750Y-96171691D01*
X151120248Y-95600813D01*
X150902243Y-95073200D01*
X150498923Y-94669176D01*
X150368785Y-94615138D01*
X150496800Y-94562243D01*
X150900824Y-94158923D01*
X151119750Y-93631691D01*
X151120248Y-93060813D01*
X150902243Y-92533200D01*
X150498923Y-92129176D01*
X150368785Y-92075138D01*
X150496800Y-92022243D01*
X150900824Y-91618923D01*
X151119750Y-91091691D01*
X151120248Y-90520813D01*
X150902243Y-89993200D01*
X150498923Y-89589176D01*
X150368785Y-89535138D01*
X150496800Y-89482243D01*
X150900824Y-89078923D01*
X151119750Y-88551691D01*
X151120248Y-87980813D01*
X150902243Y-87453200D01*
X150498923Y-87049176D01*
X150368785Y-86995138D01*
X150496800Y-86942243D01*
X150900824Y-86538923D01*
X151119750Y-86011691D01*
X151120248Y-85440813D01*
X150902243Y-84913200D01*
X150498923Y-84509176D01*
X149971691Y-84290250D01*
X149400813Y-84289752D01*
X148873200Y-84507757D01*
X148469176Y-84911077D01*
X148250250Y-85438309D01*
X148249752Y-86009187D01*
X147728534Y-86009187D01*
X147498923Y-85779176D01*
X147368785Y-85725138D01*
X147496800Y-85672243D01*
X147900824Y-85268923D01*
X148119750Y-84741691D01*
X148120248Y-84170813D01*
X147902243Y-83643200D01*
X147498923Y-83239176D01*
X147368785Y-83185138D01*
X147496800Y-83132243D01*
X147900824Y-82728923D01*
X148119750Y-82201691D01*
X148119752Y-82199187D01*
X157949752Y-82199187D01*
X158167757Y-82726800D01*
X158571077Y-83130824D01*
X159098309Y-83349750D01*
X159669187Y-83350248D01*
X160196800Y-83132243D01*
X160600824Y-82728923D01*
X160648448Y-82614232D01*
X160671136Y-82669005D01*
X160917255Y-82743139D01*
X161745395Y-81915000D01*
X162104605Y-81915000D01*
X162932745Y-82743139D01*
X163178864Y-82669005D01*
X163371965Y-82131777D01*
X163344778Y-81561546D01*
X163178864Y-81160995D01*
X162932745Y-81086861D01*
X162104605Y-81915000D01*
X161745395Y-81915000D01*
X160917255Y-81086861D01*
X160671136Y-81160995D01*
X160650195Y-81219254D01*
X160602243Y-81103200D01*
X160198923Y-80699176D01*
X159671691Y-80480250D01*
X159100813Y-80479752D01*
X158573200Y-80697757D01*
X158169176Y-81101077D01*
X157950250Y-81628309D01*
X157949752Y-82199187D01*
X148119752Y-82199187D01*
X148120248Y-81630813D01*
X147902243Y-81103200D01*
X147609554Y-80810000D01*
X147611310Y-80810000D01*
X147844699Y-80713327D01*
X148023327Y-80534698D01*
X148120000Y-80301309D01*
X148120000Y-79660750D01*
X148118437Y-79659187D01*
X160489752Y-79659187D01*
X160707757Y-80186800D01*
X161111077Y-80590824D01*
X161225768Y-80638448D01*
X161170995Y-80661136D01*
X161096861Y-80907255D01*
X161925000Y-81735395D01*
X162753139Y-80907255D01*
X162679005Y-80661136D01*
X162620746Y-80640195D01*
X162736800Y-80592243D01*
X162841355Y-80487870D01*
X166750583Y-80487870D01*
X167117166Y-81375069D01*
X167795361Y-82054449D01*
X168681919Y-82422580D01*
X169641870Y-82423417D01*
X170529069Y-82056834D01*
X170775672Y-81810661D01*
X174116758Y-81810661D01*
X174328990Y-82324303D01*
X174721630Y-82717629D01*
X175234900Y-82930757D01*
X175790661Y-82931242D01*
X176304303Y-82719010D01*
X176697629Y-82326370D01*
X176783949Y-82118488D01*
X176868990Y-82324303D01*
X177261630Y-82717629D01*
X177774900Y-82930757D01*
X178330661Y-82931242D01*
X178844303Y-82719010D01*
X179120622Y-82443172D01*
X199262538Y-82443172D01*
X199667709Y-83423761D01*
X200417293Y-84174655D01*
X201397173Y-84581536D01*
X202458172Y-84582462D01*
X203438761Y-84177291D01*
X204189655Y-83427707D01*
X204596536Y-82447827D01*
X204597462Y-81386828D01*
X204192291Y-80406239D01*
X203442707Y-79655345D01*
X202462827Y-79248464D01*
X201401828Y-79247538D01*
X200421239Y-79652709D01*
X199670345Y-80402293D01*
X199263464Y-81382173D01*
X199262538Y-82443172D01*
X179120622Y-82443172D01*
X179237629Y-82326370D01*
X179450757Y-81813100D01*
X179451242Y-81257339D01*
X179239010Y-80743697D01*
X178983630Y-80487870D01*
X181990583Y-80487870D01*
X182357166Y-81375069D01*
X183035361Y-82054449D01*
X183921919Y-82422580D01*
X184881870Y-82423417D01*
X185769069Y-82056834D01*
X186448449Y-81378639D01*
X186816580Y-80492081D01*
X186817332Y-79629000D01*
X190741560Y-79629000D01*
X190741560Y-81661000D01*
X190785838Y-81896317D01*
X190924910Y-82112441D01*
X191137110Y-82257431D01*
X191389000Y-82308440D01*
X193421000Y-82308440D01*
X193656317Y-82264162D01*
X193872441Y-82125090D01*
X193983840Y-81962052D01*
X194080182Y-82051385D01*
X194562056Y-82250975D01*
X194818000Y-82131836D01*
X194818000Y-80772000D01*
X195072000Y-80772000D01*
X195072000Y-82131836D01*
X195327944Y-82250975D01*
X195809818Y-82051385D01*
X196282188Y-81613379D01*
X196550983Y-81027946D01*
X196432367Y-80772000D01*
X195072000Y-80772000D01*
X194818000Y-80772000D01*
X194798000Y-80772000D01*
X194798000Y-80518000D01*
X194818000Y-80518000D01*
X194818000Y-79158164D01*
X195072000Y-79158164D01*
X195072000Y-80518000D01*
X196432367Y-80518000D01*
X196550983Y-80262054D01*
X196282188Y-79676621D01*
X195809818Y-79238615D01*
X195327944Y-79039025D01*
X195072000Y-79158164D01*
X194818000Y-79158164D01*
X194562056Y-79039025D01*
X194080182Y-79238615D01*
X193982602Y-79329097D01*
X193885090Y-79177559D01*
X193672890Y-79032569D01*
X193421000Y-78981560D01*
X191389000Y-78981560D01*
X191153683Y-79025838D01*
X190937559Y-79164910D01*
X190792569Y-79377110D01*
X190741560Y-79629000D01*
X186817332Y-79629000D01*
X186817417Y-79532130D01*
X186450834Y-78644931D01*
X185772639Y-77965551D01*
X184886081Y-77597420D01*
X183926130Y-77596583D01*
X183038931Y-77963166D01*
X182359551Y-78641361D01*
X181991420Y-79527919D01*
X181990583Y-80487870D01*
X178983630Y-80487870D01*
X178846370Y-80350371D01*
X178333100Y-80137243D01*
X177777339Y-80136758D01*
X177263697Y-80348990D01*
X176870371Y-80741630D01*
X176784051Y-80949512D01*
X176699010Y-80743697D01*
X176306370Y-80350371D01*
X175793100Y-80137243D01*
X175237339Y-80136758D01*
X174723697Y-80348990D01*
X174330371Y-80741630D01*
X174117243Y-81254900D01*
X174116758Y-81810661D01*
X170775672Y-81810661D01*
X171208449Y-81378639D01*
X171576580Y-80492081D01*
X171577417Y-79532130D01*
X171210834Y-78644931D01*
X170532639Y-77965551D01*
X169646081Y-77597420D01*
X168686130Y-77596583D01*
X167798931Y-77963166D01*
X167119551Y-78641361D01*
X166751420Y-79527919D01*
X166750583Y-80487870D01*
X162841355Y-80487870D01*
X163140824Y-80188923D01*
X163359750Y-79661691D01*
X163360248Y-79090813D01*
X163142243Y-78563200D01*
X162738923Y-78159176D01*
X162211691Y-77940250D01*
X161640813Y-77939752D01*
X161113200Y-78157757D01*
X160709176Y-78561077D01*
X160490250Y-79088309D01*
X160489752Y-79659187D01*
X148118437Y-79659187D01*
X147961250Y-79502000D01*
X146812000Y-79502000D01*
X146812000Y-79522000D01*
X146558000Y-79522000D01*
X146558000Y-79502000D01*
X145408750Y-79502000D01*
X145250000Y-79660750D01*
X145250000Y-80301309D01*
X145346673Y-80534698D01*
X145525301Y-80713327D01*
X145758690Y-80810000D01*
X145760761Y-80810000D01*
X145469176Y-81101077D01*
X145250250Y-81628309D01*
X145249752Y-82199187D01*
X145467757Y-82726800D01*
X145871077Y-83130824D01*
X146001215Y-83184862D01*
X145873200Y-83237757D01*
X145469176Y-83641077D01*
X145250250Y-84168309D01*
X145249752Y-84739187D01*
X145467757Y-85266800D01*
X145871077Y-85670824D01*
X146001215Y-85724862D01*
X145873200Y-85777757D01*
X145469176Y-86181077D01*
X145250250Y-86708309D01*
X145249752Y-87279187D01*
X145467757Y-87806800D01*
X145871077Y-88210824D01*
X146001215Y-88264862D01*
X145873200Y-88317757D01*
X145469176Y-88721077D01*
X145250250Y-89248309D01*
X145249752Y-89819187D01*
X145467757Y-90346800D01*
X145871077Y-90750824D01*
X146001215Y-90804862D01*
X145873200Y-90857757D01*
X145469176Y-91261077D01*
X145250250Y-91788309D01*
X145249752Y-92359187D01*
X145467757Y-92886800D01*
X145871077Y-93290824D01*
X146001215Y-93344862D01*
X145873200Y-93397757D01*
X145469176Y-93801077D01*
X145446785Y-93855000D01*
X139192000Y-93855000D01*
X138901161Y-93912852D01*
X138654599Y-94077599D01*
X135183381Y-97548817D01*
X135153100Y-97536243D01*
X134597339Y-97535758D01*
X134083697Y-97747990D01*
X133690371Y-98140630D01*
X133604051Y-98348512D01*
X133519010Y-98142697D01*
X133126370Y-97749371D01*
X132613100Y-97536243D01*
X132057339Y-97535758D01*
X131543697Y-97747990D01*
X131150371Y-98140630D01*
X131070605Y-98332727D01*
X131016397Y-98201857D01*
X130774213Y-98132392D01*
X129973605Y-98933000D01*
X130774213Y-99733608D01*
X131016397Y-99664143D01*
X131066509Y-99523682D01*
X131148990Y-99723303D01*
X131541630Y-100116629D01*
X131574000Y-100130070D01*
X131574000Y-100203000D01*
X131631852Y-100493839D01*
X131796599Y-100740401D01*
X133574599Y-102518401D01*
X133821161Y-102683148D01*
X134112000Y-102741000D01*
X142433198Y-102741000D01*
X143512000Y-103819802D01*
X143512000Y-110744000D01*
X143569852Y-111034839D01*
X143734599Y-111281401D01*
X145332394Y-112879196D01*
X145467757Y-113206800D01*
X145871077Y-113610824D01*
X146001215Y-113664862D01*
X145873200Y-113717757D01*
X145469176Y-114121077D01*
X145250250Y-114648309D01*
X145249752Y-115219187D01*
X145467757Y-115746800D01*
X145871077Y-116150824D01*
X146001215Y-116204862D01*
X145873200Y-116257757D01*
X145469176Y-116661077D01*
X145250250Y-117188309D01*
X145249752Y-117759187D01*
X145343056Y-117985000D01*
X145288000Y-117985000D01*
X144997161Y-118042852D01*
X144750599Y-118207599D01*
X136591198Y-126367000D01*
X133096000Y-126367000D01*
X132805161Y-126424852D01*
X132558599Y-126589599D01*
X131030111Y-128118087D01*
X130842152Y-128155474D01*
X130355971Y-128480330D01*
X130031115Y-128966511D01*
X129917041Y-129540000D01*
X111175000Y-129540000D01*
X111175000Y-120316812D01*
X122300736Y-120316812D01*
X122532262Y-120877149D01*
X122960596Y-121306231D01*
X123520528Y-121538735D01*
X124126812Y-121539264D01*
X124687149Y-121307738D01*
X125095336Y-120900263D01*
X125500596Y-121306231D01*
X126060528Y-121538735D01*
X126666812Y-121539264D01*
X127227149Y-121307738D01*
X127448076Y-121087196D01*
X128012409Y-121087196D01*
X128097467Y-121342539D01*
X128666965Y-121550516D01*
X129272700Y-121524723D01*
X129712533Y-121342539D01*
X129797591Y-121087196D01*
X128905000Y-120194605D01*
X128012409Y-121087196D01*
X127448076Y-121087196D01*
X127656231Y-120879404D01*
X127667405Y-120852494D01*
X127832804Y-120907591D01*
X128725395Y-120015000D01*
X129084605Y-120015000D01*
X129977196Y-120907591D01*
X130142138Y-120852647D01*
X130152262Y-120877149D01*
X130580596Y-121306231D01*
X131140528Y-121538735D01*
X131746812Y-121539264D01*
X132307149Y-121307738D01*
X132715336Y-120900263D01*
X133120596Y-121306231D01*
X133680528Y-121538735D01*
X134286812Y-121539264D01*
X134847149Y-121307738D01*
X135255336Y-120900263D01*
X135660596Y-121306231D01*
X136220528Y-121538735D01*
X136826812Y-121539264D01*
X137387149Y-121307738D01*
X137795336Y-120900263D01*
X138200596Y-121306231D01*
X138760528Y-121538735D01*
X139366812Y-121539264D01*
X139927149Y-121307738D01*
X140356231Y-120879404D01*
X140588735Y-120319472D01*
X140589264Y-119713188D01*
X140357738Y-119152851D01*
X139929404Y-118723769D01*
X139369472Y-118491265D01*
X138763188Y-118490736D01*
X138202851Y-118722262D01*
X137794664Y-119129737D01*
X137389404Y-118723769D01*
X136829472Y-118491265D01*
X136223188Y-118490736D01*
X135662851Y-118722262D01*
X135254664Y-119129737D01*
X134849404Y-118723769D01*
X134289472Y-118491265D01*
X133683188Y-118490736D01*
X133122851Y-118722262D01*
X132714664Y-119129737D01*
X132309404Y-118723769D01*
X131749472Y-118491265D01*
X131143188Y-118490736D01*
X130582851Y-118722262D01*
X130153769Y-119150596D01*
X130142595Y-119177506D01*
X129977196Y-119122409D01*
X129084605Y-120015000D01*
X128725395Y-120015000D01*
X127832804Y-119122409D01*
X127667862Y-119177353D01*
X127657738Y-119152851D01*
X127448058Y-118942804D01*
X128012409Y-118942804D01*
X128905000Y-119835395D01*
X129797591Y-118942804D01*
X129712533Y-118687461D01*
X129143035Y-118479484D01*
X128537300Y-118505277D01*
X128097467Y-118687461D01*
X128012409Y-118942804D01*
X127448058Y-118942804D01*
X127229404Y-118723769D01*
X126669472Y-118491265D01*
X126063188Y-118490736D01*
X125502851Y-118722262D01*
X125094664Y-119129737D01*
X124689404Y-118723769D01*
X124129472Y-118491265D01*
X123523188Y-118490736D01*
X122962851Y-118722262D01*
X122533769Y-119150596D01*
X122301265Y-119710528D01*
X122300736Y-120316812D01*
X111175000Y-120316812D01*
X111175000Y-106522870D01*
X122046583Y-106522870D01*
X122413166Y-107410069D01*
X123091361Y-108089449D01*
X123977919Y-108457580D01*
X124937870Y-108458417D01*
X125825069Y-108091834D01*
X126504449Y-107413639D01*
X126872580Y-106527081D01*
X126872583Y-106522870D01*
X136016583Y-106522870D01*
X136383166Y-107410069D01*
X137061361Y-108089449D01*
X137947919Y-108457580D01*
X138907870Y-108458417D01*
X139795069Y-108091834D01*
X140474449Y-107413639D01*
X140842580Y-106527081D01*
X140843417Y-105567130D01*
X140476834Y-104679931D01*
X139798639Y-104000551D01*
X138912081Y-103632420D01*
X137952130Y-103631583D01*
X137064931Y-103998166D01*
X136385551Y-104676361D01*
X136017420Y-105562919D01*
X136016583Y-106522870D01*
X126872583Y-106522870D01*
X126873417Y-105567130D01*
X126506834Y-104679931D01*
X125828639Y-104000551D01*
X124942081Y-103632420D01*
X123982130Y-103631583D01*
X123094931Y-103998166D01*
X122415551Y-104676361D01*
X122047420Y-105562919D01*
X122046583Y-106522870D01*
X111175000Y-106522870D01*
X111175000Y-99209661D01*
X123316758Y-99209661D01*
X123528990Y-99723303D01*
X123921630Y-100116629D01*
X124434900Y-100329757D01*
X124990661Y-100330242D01*
X125504303Y-100118010D01*
X125897629Y-99725370D01*
X125983949Y-99517488D01*
X126068990Y-99723303D01*
X126461630Y-100116629D01*
X126974900Y-100329757D01*
X127530661Y-100330242D01*
X128044303Y-100118010D01*
X128249457Y-99913213D01*
X128993392Y-99913213D01*
X129062857Y-100155397D01*
X129586302Y-100342144D01*
X130141368Y-100314362D01*
X130525143Y-100155397D01*
X130594608Y-99913213D01*
X129794000Y-99112605D01*
X128993392Y-99913213D01*
X128249457Y-99913213D01*
X128437629Y-99725370D01*
X128517395Y-99533273D01*
X128571603Y-99664143D01*
X128813787Y-99733608D01*
X129614395Y-98933000D01*
X128813787Y-98132392D01*
X128571603Y-98201857D01*
X128521491Y-98342318D01*
X128439010Y-98142697D01*
X128249432Y-97952787D01*
X128993392Y-97952787D01*
X129794000Y-98753395D01*
X130594608Y-97952787D01*
X130525143Y-97710603D01*
X130001698Y-97523856D01*
X129446632Y-97551638D01*
X129062857Y-97710603D01*
X128993392Y-97952787D01*
X128249432Y-97952787D01*
X128046370Y-97749371D01*
X127533100Y-97536243D01*
X126977339Y-97535758D01*
X126463697Y-97747990D01*
X126070371Y-98140630D01*
X125984051Y-98348512D01*
X125899010Y-98142697D01*
X125506370Y-97749371D01*
X124993100Y-97536243D01*
X124437339Y-97535758D01*
X123923697Y-97747990D01*
X123530371Y-98140630D01*
X123317243Y-98653900D01*
X123316758Y-99209661D01*
X111175000Y-99209661D01*
X111175000Y-82443172D01*
X112902538Y-82443172D01*
X113307709Y-83423761D01*
X114057293Y-84174655D01*
X115037173Y-84581536D01*
X116098172Y-84582462D01*
X117078761Y-84177291D01*
X117829655Y-83427707D01*
X118236536Y-82447827D01*
X118237462Y-81386828D01*
X118128397Y-81122870D01*
X121030583Y-81122870D01*
X121397166Y-82010069D01*
X122075361Y-82689449D01*
X122961919Y-83057580D01*
X123921870Y-83058417D01*
X124809069Y-82691834D01*
X125055672Y-82445661D01*
X128396758Y-82445661D01*
X128608990Y-82959303D01*
X129001630Y-83352629D01*
X129514900Y-83565757D01*
X130070661Y-83566242D01*
X130584303Y-83354010D01*
X130977629Y-82961370D01*
X131063949Y-82753488D01*
X131148990Y-82959303D01*
X131541630Y-83352629D01*
X132054900Y-83565757D01*
X132610661Y-83566242D01*
X133124303Y-83354010D01*
X133517629Y-82961370D01*
X133730757Y-82448100D01*
X133731242Y-81892339D01*
X133519010Y-81378697D01*
X133263630Y-81122870D01*
X136270583Y-81122870D01*
X136637166Y-82010069D01*
X137315361Y-82689449D01*
X138201919Y-83057580D01*
X139161870Y-83058417D01*
X140049069Y-82691834D01*
X140728449Y-82013639D01*
X141096580Y-81127081D01*
X141097417Y-80167130D01*
X140730834Y-79279931D01*
X140052639Y-78600551D01*
X139686920Y-78448691D01*
X145250000Y-78448691D01*
X145250000Y-79089250D01*
X145408750Y-79248000D01*
X146558000Y-79248000D01*
X146558000Y-78098750D01*
X146812000Y-78098750D01*
X146812000Y-79248000D01*
X147961250Y-79248000D01*
X148120000Y-79089250D01*
X148120000Y-78448691D01*
X148023327Y-78215302D01*
X147844699Y-78036673D01*
X147611310Y-77940000D01*
X146970750Y-77940000D01*
X146812000Y-78098750D01*
X146558000Y-78098750D01*
X146399250Y-77940000D01*
X145758690Y-77940000D01*
X145525301Y-78036673D01*
X145346673Y-78215302D01*
X145250000Y-78448691D01*
X139686920Y-78448691D01*
X139166081Y-78232420D01*
X138206130Y-78231583D01*
X137318931Y-78598166D01*
X136639551Y-79276361D01*
X136271420Y-80162919D01*
X136270583Y-81122870D01*
X133263630Y-81122870D01*
X133126370Y-80985371D01*
X132613100Y-80772243D01*
X132057339Y-80771758D01*
X131543697Y-80983990D01*
X131150371Y-81376630D01*
X131064051Y-81584512D01*
X130979010Y-81378697D01*
X130586370Y-80985371D01*
X130073100Y-80772243D01*
X129517339Y-80771758D01*
X129003697Y-80983990D01*
X128610371Y-81376630D01*
X128397243Y-81889900D01*
X128396758Y-82445661D01*
X125055672Y-82445661D01*
X125488449Y-82013639D01*
X125856580Y-81127081D01*
X125857417Y-80167130D01*
X125490834Y-79279931D01*
X124812639Y-78600551D01*
X123926081Y-78232420D01*
X122966130Y-78231583D01*
X122078931Y-78598166D01*
X121399551Y-79276361D01*
X121031420Y-80162919D01*
X121030583Y-81122870D01*
X118128397Y-81122870D01*
X117832291Y-80406239D01*
X117082707Y-79655345D01*
X116102827Y-79248464D01*
X115041828Y-79247538D01*
X114061239Y-79652709D01*
X113310345Y-80402293D01*
X112903464Y-81382173D01*
X112902538Y-82443172D01*
X111175000Y-82443172D01*
X111175000Y-77520000D01*
X206325000Y-77520000D01*
X206325000Y-139650000D01*
M02*
