G04 #@! TF.FileFunction,Copper,L1,Top,Signal*
%FSLAX46Y46*%
G04 Gerber Fmt 4.6, Leading zero omitted, Abs format (unit mm)*
G04 Created by KiCad (PCBNEW 4.0.6) date Wednesday, July 12, 2017 'AMt' 08:43:24 AM*
%MOMM*%
%LPD*%
G01*
G04 APERTURE LIST*
%ADD10C,0.100000*%
%ADD11C,4.826000*%
%ADD12C,1.778000*%
%ADD13R,1.778000X1.778000*%
%ADD14R,1.600000X1.600000*%
%ADD15C,1.600000*%
%ADD16R,1.727200X1.727200*%
%ADD17O,1.727200X1.727200*%
%ADD18R,2.032000X2.032000*%
%ADD19O,2.032000X2.032000*%
%ADD20R,3.500120X3.500120*%
%ADD21C,1.524000*%
%ADD22C,3.556000*%
%ADD23C,4.064000*%
%ADD24R,3.500000X1.000000*%
%ADD25R,3.400000X1.600000*%
%ADD26C,0.600000*%
%ADD27C,0.250000*%
%ADD28C,0.762000*%
G04 APERTURE END LIST*
D10*
D11*
X168275000Y-103505000D03*
X168275000Y-136525000D03*
X186055000Y-136525000D03*
D12*
X186055000Y-121285000D03*
X186055000Y-123825000D03*
X186055000Y-126365000D03*
X186055000Y-128905000D03*
D13*
X186055000Y-131445000D03*
D12*
X186055000Y-118745000D03*
X186055000Y-116205000D03*
X186055000Y-113665000D03*
X186055000Y-111125000D03*
X186055000Y-108585000D03*
D11*
X186055000Y-103505000D03*
D14*
X192405000Y-97790000D03*
D15*
X192405000Y-100290000D03*
D16*
X136525000Y-129540000D03*
D17*
X136525000Y-132080000D03*
X133985000Y-129540000D03*
X133985000Y-132080000D03*
X131445000Y-129540000D03*
X131445000Y-132080000D03*
D18*
X192405000Y-80645000D03*
D19*
X194945000Y-80645000D03*
D20*
X191284860Y-90805000D03*
X197284340Y-90805000D03*
X194284600Y-86106000D03*
D18*
X200025000Y-109855000D03*
D19*
X200025000Y-112395000D03*
D18*
X195580000Y-112395000D03*
D19*
X195580000Y-109855000D03*
D21*
X178054000Y-81534000D03*
X175514000Y-81534000D03*
X170434000Y-98298000D03*
X172974000Y-98298000D03*
X175514000Y-98298000D03*
X178054000Y-98298000D03*
X180594000Y-98298000D03*
X183134000Y-98298000D03*
D22*
X169164000Y-80010000D03*
X184404000Y-80010000D03*
D21*
X132334000Y-82169000D03*
X129794000Y-82169000D03*
X124714000Y-98933000D03*
X127254000Y-98933000D03*
X129794000Y-98933000D03*
X132334000Y-98933000D03*
X134874000Y-98933000D03*
X137414000Y-98933000D03*
D22*
X123444000Y-80645000D03*
X138684000Y-80645000D03*
D15*
X146685000Y-120015000D03*
X146685000Y-122555000D03*
X146685000Y-125095000D03*
X146685000Y-127635000D03*
X146685000Y-117475000D03*
X146685000Y-114935000D03*
X146685000Y-112395000D03*
X146685000Y-130175000D03*
X146685000Y-132715000D03*
X146685000Y-135255000D03*
X146685000Y-137795000D03*
X149225000Y-125095000D03*
X151765000Y-125095000D03*
X154305000Y-125095000D03*
X156845000Y-125095000D03*
X159385000Y-125095000D03*
X161925000Y-137795000D03*
X161925000Y-135255000D03*
X161925000Y-132715000D03*
X161925000Y-130175000D03*
X161925000Y-127635000D03*
X161925000Y-125095000D03*
X161925000Y-122555000D03*
X161925000Y-120015000D03*
X146685000Y-109855000D03*
X146685000Y-107315000D03*
X146685000Y-104775000D03*
X146685000Y-102235000D03*
X146685000Y-99695000D03*
X146685000Y-97155000D03*
X146685000Y-94615000D03*
X146685000Y-92075000D03*
X146685000Y-89535000D03*
X146685000Y-86995000D03*
X146685000Y-84455000D03*
X146685000Y-81915000D03*
D14*
X146685000Y-79375000D03*
D15*
X161925000Y-117475000D03*
X161925000Y-114935000D03*
X161925000Y-112395000D03*
X161925000Y-109855000D03*
X161925000Y-107315000D03*
X161925000Y-104775000D03*
X161925000Y-102235000D03*
X161925000Y-99695000D03*
X161925000Y-97155000D03*
X161925000Y-94615000D03*
X161925000Y-92075000D03*
X161925000Y-89535000D03*
X161925000Y-86995000D03*
X161925000Y-84455000D03*
X161925000Y-81915000D03*
X161925000Y-79375000D03*
X159385000Y-81915000D03*
X159385000Y-86995000D03*
X159385000Y-89535000D03*
X159385000Y-92075000D03*
X154305000Y-94615000D03*
X154305000Y-97155000D03*
X154305000Y-99695000D03*
X154305000Y-102235000D03*
X154305000Y-117475000D03*
X154305000Y-120015000D03*
X154305000Y-122555000D03*
X154305000Y-127635000D03*
X154305000Y-130175000D03*
X154305000Y-132715000D03*
X154305000Y-135255000D03*
X154305000Y-137795000D03*
X156845000Y-137795000D03*
X156845000Y-135255000D03*
X156845000Y-132715000D03*
X156845000Y-130175000D03*
X156845000Y-127635000D03*
X156845000Y-122555000D03*
X156845000Y-120015000D03*
X156845000Y-117475000D03*
X156845000Y-102235000D03*
X156845000Y-99695000D03*
X156845000Y-97155000D03*
X156845000Y-94615000D03*
X149685000Y-85725000D03*
X149685000Y-88265000D03*
X149685000Y-90805000D03*
X149685000Y-93345000D03*
X149685000Y-95885000D03*
D22*
X138430000Y-106045000D03*
X124460000Y-106045000D03*
D12*
X131445000Y-120015000D03*
X133985000Y-120015000D03*
X136525000Y-120015000D03*
X139065000Y-120015000D03*
X128905000Y-120015000D03*
X126365000Y-120015000D03*
X123825000Y-120015000D03*
D23*
X115570000Y-81915000D03*
X115570000Y-135255000D03*
X201930000Y-135255000D03*
X201930000Y-81915000D03*
D24*
X196615000Y-124190000D03*
X196615000Y-122190000D03*
D25*
X202165000Y-126590000D03*
X202165000Y-119790000D03*
D26*
X145034000Y-98425000D03*
X154940000Y-104394000D03*
X157353000Y-106807000D03*
X189230000Y-106680000D03*
X163830000Y-95250000D03*
X168275000Y-95250000D03*
X169545000Y-110490000D03*
X156464000Y-107188000D03*
X170942000Y-113030000D03*
X179705000Y-128270000D03*
X155829000Y-108077000D03*
X193040000Y-122555000D03*
D27*
X157607000Y-81534000D02*
X151003000Y-81534000D01*
X140462000Y-83185000D02*
X124714000Y-98933000D01*
X149352000Y-83185000D02*
X140462000Y-83185000D01*
X151003000Y-81534000D02*
X149352000Y-83185000D01*
D28*
X161925000Y-79375000D02*
X159512000Y-79375000D01*
X157607000Y-85217000D02*
X159385000Y-86995000D01*
X157607000Y-81280000D02*
X157607000Y-81534000D01*
X157607000Y-81534000D02*
X157607000Y-85217000D01*
X159512000Y-79375000D02*
X157607000Y-81280000D01*
X170434000Y-98298000D02*
X166370000Y-98298000D01*
X164084000Y-81534000D02*
X161925000Y-79375000D01*
X164084000Y-85090000D02*
X164084000Y-81534000D01*
X164846000Y-85852000D02*
X164084000Y-85090000D01*
X164846000Y-96774000D02*
X164846000Y-85852000D01*
X166370000Y-98298000D02*
X164846000Y-96774000D01*
X186055000Y-131445000D02*
X187325000Y-131445000D01*
X197485000Y-97790000D02*
X192405000Y-97790000D01*
X203835000Y-104140000D02*
X197485000Y-97790000D01*
X203835000Y-113665000D02*
X203835000Y-104140000D01*
X200660000Y-116840000D02*
X203835000Y-113665000D01*
X196215000Y-116840000D02*
X200660000Y-116840000D01*
X191135000Y-121920000D02*
X196215000Y-116840000D01*
X191135000Y-127635000D02*
X191135000Y-121920000D01*
X187325000Y-131445000D02*
X191135000Y-127635000D01*
X123825000Y-120015000D02*
X123825000Y-110490000D01*
X123825000Y-110490000D02*
X121920000Y-108585000D01*
X121920000Y-108585000D02*
X121920000Y-101727000D01*
X121920000Y-101727000D02*
X124714000Y-98933000D01*
X191284860Y-90805000D02*
X191284860Y-96669860D01*
X191284860Y-96669860D02*
X192405000Y-97790000D01*
X191284860Y-90805000D02*
X191284860Y-81765140D01*
X191284860Y-81765140D02*
X192405000Y-80645000D01*
D27*
X146685000Y-99695000D02*
X140335000Y-99695000D01*
X132715000Y-130810000D02*
X133985000Y-129540000D01*
X130302000Y-130810000D02*
X132715000Y-130810000D01*
X129667000Y-130175000D02*
X130302000Y-130810000D01*
X129667000Y-128905000D02*
X129667000Y-130175000D01*
X130810000Y-127762000D02*
X129667000Y-128905000D01*
X130810000Y-125349000D02*
X130810000Y-127762000D01*
X135255000Y-120904000D02*
X130810000Y-125349000D01*
X135255000Y-104775000D02*
X135255000Y-120904000D01*
X140335000Y-99695000D02*
X135255000Y-104775000D01*
X146685000Y-89535000D02*
X139192000Y-89535000D01*
X129032000Y-132080000D02*
X131445000Y-132080000D01*
X128397000Y-131445000D02*
X129032000Y-132080000D01*
X128397000Y-128524000D02*
X128397000Y-131445000D01*
X130175000Y-126746000D02*
X128397000Y-128524000D01*
X130175000Y-117856000D02*
X130175000Y-126746000D01*
X131064000Y-116967000D02*
X130175000Y-117856000D01*
X131064000Y-97663000D02*
X131064000Y-116967000D01*
X139192000Y-89535000D02*
X131064000Y-97663000D01*
X178054000Y-98298000D02*
X178054000Y-102870000D01*
X147828000Y-98425000D02*
X145034000Y-98425000D01*
X153162000Y-103759000D02*
X147828000Y-98425000D01*
X154305000Y-103759000D02*
X153162000Y-103759000D01*
X154940000Y-104394000D02*
X154305000Y-103759000D01*
X159258000Y-108712000D02*
X157353000Y-106807000D01*
X163703000Y-108712000D02*
X159258000Y-108712000D01*
X169418000Y-114427000D02*
X163703000Y-108712000D01*
X171069000Y-114427000D02*
X169418000Y-114427000D01*
X172720000Y-112776000D02*
X171069000Y-114427000D01*
X172720000Y-108204000D02*
X172720000Y-112776000D01*
X178054000Y-102870000D02*
X172720000Y-108204000D01*
X189230000Y-106680000D02*
X189865000Y-107315000D01*
X189865000Y-107315000D02*
X197485000Y-107315000D01*
X197485000Y-107315000D02*
X200025000Y-109855000D01*
X200025000Y-112395000D02*
X201295000Y-112395000D01*
X151765000Y-109855000D02*
X146685000Y-109855000D01*
X158750000Y-102870000D02*
X151765000Y-109855000D01*
X158750000Y-97790000D02*
X158750000Y-102870000D01*
X160655000Y-95885000D02*
X158750000Y-97790000D01*
X163195000Y-95885000D02*
X160655000Y-95885000D01*
X163830000Y-95250000D02*
X163195000Y-95885000D01*
X183515000Y-95250000D02*
X168275000Y-95250000D01*
X190500000Y-102235000D02*
X183515000Y-95250000D01*
X195580000Y-102235000D02*
X190500000Y-102235000D01*
X202565000Y-109220000D02*
X195580000Y-102235000D01*
X202565000Y-111125000D02*
X202565000Y-109220000D01*
X201295000Y-112395000D02*
X202565000Y-111125000D01*
X164465000Y-99695000D02*
X161925000Y-97155000D01*
X164465000Y-105410000D02*
X164465000Y-99695000D01*
X169545000Y-110490000D02*
X164465000Y-105410000D01*
X186055000Y-123825000D02*
X186055000Y-123190000D01*
X186055000Y-123190000D02*
X191770000Y-117475000D01*
X191770000Y-117475000D02*
X191770000Y-116205000D01*
X191770000Y-116205000D02*
X195580000Y-112395000D01*
X186055000Y-121285000D02*
X186690000Y-121285000D01*
X186690000Y-121285000D02*
X190500000Y-117475000D01*
X190500000Y-117475000D02*
X190500000Y-114935000D01*
X190500000Y-114935000D02*
X195580000Y-109855000D01*
X180594000Y-98298000D02*
X180594000Y-101854000D01*
X160401000Y-111125000D02*
X156464000Y-107188000D01*
X163322000Y-111125000D02*
X160401000Y-111125000D01*
X167640000Y-115443000D02*
X163322000Y-111125000D01*
X172085000Y-115443000D02*
X167640000Y-115443000D01*
X174117000Y-113411000D02*
X172085000Y-115443000D01*
X174117000Y-108331000D02*
X174117000Y-113411000D01*
X180594000Y-101854000D02*
X174117000Y-108331000D01*
X161925000Y-137795000D02*
X163195000Y-137795000D01*
X172085000Y-132715000D02*
X186055000Y-118745000D01*
X166370000Y-132715000D02*
X172085000Y-132715000D01*
X165100000Y-133985000D02*
X166370000Y-132715000D01*
X165100000Y-135890000D02*
X165100000Y-133985000D01*
X163195000Y-137795000D02*
X165100000Y-135890000D01*
X161925000Y-135255000D02*
X162560000Y-135255000D01*
X162560000Y-135255000D02*
X166370000Y-131445000D01*
X166370000Y-131445000D02*
X170815000Y-131445000D01*
X170815000Y-131445000D02*
X186055000Y-116205000D01*
X161925000Y-132715000D02*
X163195000Y-132715000D01*
X170815000Y-128905000D02*
X186055000Y-113665000D01*
X167005000Y-128905000D02*
X170815000Y-128905000D01*
X163195000Y-132715000D02*
X167005000Y-128905000D01*
X161925000Y-130175000D02*
X163830000Y-130175000D01*
X170180000Y-127000000D02*
X186055000Y-111125000D01*
X167005000Y-127000000D02*
X170180000Y-127000000D01*
X163830000Y-130175000D02*
X167005000Y-127000000D01*
X161925000Y-127635000D02*
X163830000Y-127635000D01*
X169545000Y-125095000D02*
X186055000Y-108585000D01*
X166370000Y-125095000D02*
X169545000Y-125095000D01*
X163830000Y-127635000D02*
X166370000Y-125095000D01*
X196615000Y-124190000D02*
X193945000Y-124190000D01*
X149225000Y-81915000D02*
X146685000Y-81915000D01*
X153035000Y-78105000D02*
X149225000Y-81915000D01*
X163322000Y-77978000D02*
X153035000Y-78105000D01*
X167005000Y-96012000D02*
X166243000Y-95035077D01*
X166243000Y-95035077D02*
X165100000Y-79248000D01*
X165100000Y-79248000D02*
X163322000Y-77978000D01*
X167640000Y-96266000D02*
X167005000Y-96012000D01*
X171704000Y-97155000D02*
X167640000Y-96266000D01*
X170942000Y-113030000D02*
X171704000Y-97155000D01*
X184785000Y-133350000D02*
X179705000Y-128270000D01*
X187960000Y-133350000D02*
X184785000Y-133350000D01*
X192405000Y-128905000D02*
X187960000Y-133350000D01*
X192405000Y-125730000D02*
X192405000Y-128905000D01*
X193945000Y-124190000D02*
X192405000Y-125730000D01*
X161925000Y-112395000D02*
X160147000Y-112395000D01*
X160147000Y-112395000D02*
X155829000Y-108077000D01*
X183134000Y-98298000D02*
X183134000Y-100711000D01*
X165735000Y-116205000D02*
X161925000Y-112395000D01*
X172720000Y-116205000D02*
X165735000Y-116205000D01*
X175260000Y-113665000D02*
X172720000Y-116205000D01*
X175260000Y-108585000D02*
X175260000Y-113665000D01*
X183134000Y-100711000D02*
X175260000Y-108585000D01*
X161925000Y-102235000D02*
X160147000Y-102235000D01*
X145415000Y-113665000D02*
X139065000Y-120015000D01*
X148717000Y-113665000D02*
X145415000Y-113665000D01*
X160147000Y-102235000D02*
X148717000Y-113665000D01*
X161925000Y-92075000D02*
X161925000Y-92456000D01*
X161925000Y-92456000D02*
X158115000Y-96266000D01*
X158115000Y-96266000D02*
X158115000Y-102743000D01*
X158115000Y-102743000D02*
X152400000Y-108458000D01*
X152400000Y-108458000D02*
X145796000Y-108458000D01*
X145796000Y-108458000D02*
X136525000Y-117729000D01*
X136525000Y-117729000D02*
X136525000Y-120015000D01*
X161925000Y-89535000D02*
X161417000Y-89535000D01*
X161417000Y-89535000D02*
X160147000Y-90805000D01*
X160147000Y-90805000D02*
X154559000Y-90805000D01*
X154559000Y-90805000D02*
X150622000Y-94742000D01*
X150622000Y-94742000D02*
X148590000Y-94742000D01*
X148590000Y-94742000D02*
X147447000Y-95885000D01*
X147447000Y-95885000D02*
X142875000Y-95885000D01*
X142875000Y-95885000D02*
X133858000Y-104902000D01*
X133858000Y-104902000D02*
X133858000Y-119888000D01*
X133858000Y-119888000D02*
X133985000Y-120015000D01*
D28*
X196615000Y-122190000D02*
X193405000Y-122190000D01*
X193405000Y-122190000D02*
X193040000Y-122555000D01*
M02*
