G04 #@! TF.FileFunction,Copper,L2,Bot,Signal*
%FSLAX46Y46*%
G04 Gerber Fmt 4.6, Leading zero omitted, Abs format (unit mm)*
G04 Created by KiCad (PCBNEW 4.0.6) date Friday, September 08, 2017 'PMt' 06:19:34 PM*
%MOMM*%
%LPD*%
G01*
G04 APERTURE LIST*
%ADD10C,0.100000*%
%ADD11C,2.032000*%
%ADD12C,3.810000*%
%ADD13C,1.524000*%
%ADD14C,1.400000*%
%ADD15R,1.600000X1.600000*%
%ADD16O,1.600000X1.600000*%
%ADD17R,2.032000X2.032000*%
%ADD18R,1.524000X1.524000*%
%ADD19R,1.727200X1.727200*%
%ADD20O,1.727200X1.727200*%
%ADD21R,1.700000X1.700000*%
%ADD22O,1.700000X1.700000*%
%ADD23O,2.499360X1.501140*%
%ADD24C,5.588000*%
%ADD25O,2.032000X2.032000*%
%ADD26R,2.000000X2.000000*%
%ADD27C,2.000000*%
%ADD28C,1.600000*%
%ADD29C,0.762000*%
%ADD30C,0.762000*%
%ADD31C,0.250000*%
%ADD32C,0.254000*%
G04 APERTURE END LIST*
D10*
D11*
X102616000Y-87376000D03*
X102616000Y-84836000D03*
X102616000Y-82296000D03*
X102616000Y-79756000D03*
X102616000Y-77216000D03*
X102616000Y-74676000D03*
X102616000Y-72136000D03*
X102616000Y-69596000D03*
X102616000Y-67056000D03*
D12*
X132080000Y-67056000D03*
X132080000Y-87376000D03*
D13*
X112699800Y-38455600D03*
X112699800Y-40455596D03*
X112699800Y-42455592D03*
X112699800Y-44455588D03*
X112699800Y-46455584D03*
X112699800Y-48455580D03*
X112699800Y-50457100D03*
X112699800Y-52456080D03*
X112699800Y-54457600D03*
X112699800Y-56455564D03*
X134696200Y-56455564D03*
X134696200Y-54457600D03*
X134696200Y-52456080D03*
X134696200Y-50455576D03*
X134696200Y-48455580D03*
X134696200Y-46455584D03*
X134696200Y-44455588D03*
X134696200Y-42455592D03*
X134696200Y-40455596D03*
X134696200Y-38455600D03*
X113284000Y-98044000D03*
X100330000Y-98044000D03*
X100330000Y-94996000D03*
X113284000Y-94996000D03*
D14*
X106974000Y-43129200D03*
X109474000Y-43129200D03*
X106934000Y-40640000D03*
X109434000Y-40640000D03*
X106948600Y-38100000D03*
X109448600Y-38100000D03*
D15*
X132384800Y-98475800D03*
D16*
X132384800Y-106095800D03*
D15*
X128625600Y-98450400D03*
D16*
X128625600Y-106070400D03*
D17*
X120396000Y-95653860D03*
D18*
X120396000Y-101653340D03*
D17*
X125095000Y-98653600D03*
D19*
X143002000Y-96774000D03*
D20*
X140462000Y-96774000D03*
X143002000Y-94234000D03*
X140462000Y-94234000D03*
X143002000Y-91694000D03*
X140462000Y-91694000D03*
X143002000Y-89154000D03*
X140462000Y-89154000D03*
X143002000Y-86614000D03*
X140462000Y-86614000D03*
D21*
X145288000Y-77724000D03*
D22*
X145288000Y-75184000D03*
X145288000Y-72644000D03*
X145288000Y-70104000D03*
X145288000Y-67564000D03*
X145288000Y-65024000D03*
D21*
X127914400Y-95072200D03*
D22*
X130454400Y-95072200D03*
D23*
X140208000Y-72898000D03*
X140208000Y-75438000D03*
X140208000Y-70358000D03*
D24*
X102108000Y-106680000D03*
X103378000Y-53340000D03*
X145288000Y-106680000D03*
X144018000Y-49530000D03*
X145288000Y-38100000D03*
X102108000Y-38100000D03*
D17*
X136550400Y-106019600D03*
D25*
X139090400Y-106019600D03*
D26*
X124917200Y-92633800D03*
D27*
X122377200Y-92633800D03*
D28*
X127406400Y-91770200D03*
D16*
X135026400Y-91770200D03*
D29*
X111480600Y-99898200D03*
X138506200Y-90170000D03*
X127914400Y-44297600D03*
X125298200Y-50495200D03*
X145440400Y-86258400D03*
X147243800Y-80772000D03*
X142942425Y-60003575D03*
X143560800Y-61620400D03*
X142116925Y-58339875D03*
D30*
X147777200Y-59740800D02*
X138491976Y-50455576D01*
X138491976Y-50455576D02*
X134696200Y-50455576D01*
X147777200Y-76846800D02*
X147777200Y-59740800D01*
X145288000Y-77724000D02*
X146900000Y-77724000D01*
X146900000Y-77724000D02*
X147777200Y-76846800D01*
X114554000Y-92633800D02*
X104216200Y-82296000D01*
X104216200Y-82296000D02*
X102616000Y-82296000D01*
X122377200Y-92633800D02*
X114554000Y-92633800D01*
X112699800Y-56455564D02*
X128696212Y-56455564D01*
X133934201Y-51217575D02*
X134696200Y-50455576D01*
X128696212Y-56455564D02*
X133934201Y-51217575D01*
X120396000Y-101653340D02*
X135582660Y-101653340D01*
X135582660Y-101653340D02*
X140462000Y-96774000D01*
X111480600Y-99898200D02*
X113235740Y-101653340D01*
X113235740Y-101653340D02*
X120396000Y-101653340D01*
D31*
X138506200Y-90170000D02*
X139045015Y-90170000D01*
X139045015Y-90170000D02*
X139217616Y-90342601D01*
X139217616Y-90342601D02*
X141650601Y-90342601D01*
X141650601Y-90342601D02*
X142138401Y-90830401D01*
X142138401Y-90830401D02*
X143002000Y-91694000D01*
D30*
X139708890Y-72898000D02*
X140208000Y-72898000D01*
D31*
X127812800Y-47980600D02*
X128066800Y-47726600D01*
X125298200Y-50495200D02*
X127812800Y-47980600D01*
X127812800Y-47980600D02*
X127812800Y-44399200D01*
X127812800Y-44399200D02*
X127914400Y-44297600D01*
X147243800Y-80772000D02*
X147243800Y-83870800D01*
X147243800Y-83870800D02*
X147243800Y-84048600D01*
X145440400Y-86258400D02*
X147243800Y-84455000D01*
X147243800Y-84455000D02*
X147243800Y-83870800D01*
X142942425Y-60542390D02*
X142942425Y-60003575D01*
X142842411Y-60642404D02*
X142942425Y-60542390D01*
X142842411Y-85014459D02*
X142842411Y-60642404D01*
X141650601Y-86206269D02*
X142842411Y-85014459D01*
X141650601Y-87965399D02*
X141650601Y-86206269D01*
X140462000Y-89154000D02*
X141650601Y-87965399D01*
X143467421Y-62163046D02*
X143467421Y-61713779D01*
X143467421Y-61713779D02*
X143560800Y-61620400D01*
X143467421Y-86148579D02*
X143467421Y-62587310D01*
X143002000Y-86614000D02*
X143467421Y-86148579D01*
X143467421Y-62587310D02*
X143467421Y-62163046D01*
X142116925Y-58878690D02*
X142116925Y-58339875D01*
X142116925Y-84959075D02*
X142116925Y-58878690D01*
X140462000Y-86614000D02*
X142116925Y-84959075D01*
D30*
X139708890Y-70358000D02*
X140208000Y-70358000D01*
X136474200Y-88212838D02*
X136474200Y-73592690D01*
X132384800Y-92302238D02*
X136474200Y-88212838D01*
X136474200Y-73592690D02*
X139708890Y-70358000D01*
X132384800Y-98475800D02*
X132384800Y-92302238D01*
X128625600Y-98450400D02*
X132359400Y-98450400D01*
X132359400Y-98450400D02*
X132384800Y-98475800D01*
D32*
G36*
X143348165Y-35191340D02*
X142382730Y-36155092D01*
X141859597Y-37414937D01*
X141858406Y-38779078D01*
X142379340Y-40039835D01*
X143343092Y-41005270D01*
X144602937Y-41528403D01*
X145967078Y-41529594D01*
X147227835Y-41008660D01*
X148193270Y-40044908D01*
X148388000Y-39575946D01*
X148388000Y-105203243D01*
X148196660Y-104740165D01*
X147232908Y-103774730D01*
X145973063Y-103251597D01*
X144608922Y-103250406D01*
X143348165Y-103771340D01*
X142382730Y-104735092D01*
X141859597Y-105994937D01*
X141858406Y-107359078D01*
X142379340Y-108619835D01*
X143343092Y-109585270D01*
X143812054Y-109780000D01*
X103584757Y-109780000D01*
X104047835Y-109588660D01*
X105013270Y-108624908D01*
X105536403Y-107365063D01*
X105537557Y-106042287D01*
X127190600Y-106042287D01*
X127190600Y-106098513D01*
X127299833Y-106647664D01*
X127610902Y-107113211D01*
X128076449Y-107424280D01*
X128625600Y-107533513D01*
X129174751Y-107424280D01*
X129640298Y-107113211D01*
X129951367Y-106647664D01*
X130060600Y-106098513D01*
X130060600Y-106067687D01*
X130949800Y-106067687D01*
X130949800Y-106123913D01*
X131059033Y-106673064D01*
X131370102Y-107138611D01*
X131835649Y-107449680D01*
X132384800Y-107558913D01*
X132933951Y-107449680D01*
X133399498Y-107138611D01*
X133710567Y-106673064D01*
X133819800Y-106123913D01*
X133819800Y-106067687D01*
X133710567Y-105518536D01*
X133399498Y-105052989D01*
X133325583Y-105003600D01*
X134886960Y-105003600D01*
X134886960Y-107035600D01*
X134931238Y-107270917D01*
X135070310Y-107487041D01*
X135282510Y-107632031D01*
X135534400Y-107683040D01*
X137566400Y-107683040D01*
X137801717Y-107638762D01*
X138017841Y-107499690D01*
X138129240Y-107336652D01*
X138225582Y-107425985D01*
X138707456Y-107625575D01*
X138963400Y-107506436D01*
X138963400Y-106146600D01*
X139217400Y-106146600D01*
X139217400Y-107506436D01*
X139473344Y-107625575D01*
X139955218Y-107425985D01*
X140427588Y-106987979D01*
X140696383Y-106402546D01*
X140577767Y-106146600D01*
X139217400Y-106146600D01*
X138963400Y-106146600D01*
X138943400Y-106146600D01*
X138943400Y-105892600D01*
X138963400Y-105892600D01*
X138963400Y-104532764D01*
X139217400Y-104532764D01*
X139217400Y-105892600D01*
X140577767Y-105892600D01*
X140696383Y-105636654D01*
X140427588Y-105051221D01*
X139955218Y-104613215D01*
X139473344Y-104413625D01*
X139217400Y-104532764D01*
X138963400Y-104532764D01*
X138707456Y-104413625D01*
X138225582Y-104613215D01*
X138128002Y-104703697D01*
X138030490Y-104552159D01*
X137818290Y-104407169D01*
X137566400Y-104356160D01*
X135534400Y-104356160D01*
X135299083Y-104400438D01*
X135082959Y-104539510D01*
X134937969Y-104751710D01*
X134886960Y-105003600D01*
X133325583Y-105003600D01*
X132933951Y-104741920D01*
X132384800Y-104632687D01*
X131835649Y-104741920D01*
X131370102Y-105052989D01*
X131059033Y-105518536D01*
X130949800Y-106067687D01*
X130060600Y-106067687D01*
X130060600Y-106042287D01*
X129951367Y-105493136D01*
X129640298Y-105027589D01*
X129174751Y-104716520D01*
X128625600Y-104607287D01*
X128076449Y-104716520D01*
X127610902Y-105027589D01*
X127299833Y-105493136D01*
X127190600Y-106042287D01*
X105537557Y-106042287D01*
X105537594Y-106000922D01*
X105016660Y-104740165D01*
X104052908Y-103774730D01*
X102793063Y-103251597D01*
X101428922Y-103250406D01*
X100168165Y-103771340D01*
X99202730Y-104735092D01*
X99008000Y-105204054D01*
X99008000Y-101939090D01*
X118999000Y-101939090D01*
X118999000Y-102541649D01*
X119095673Y-102775038D01*
X119274301Y-102953667D01*
X119507690Y-103050340D01*
X120110250Y-103050340D01*
X120269000Y-102891590D01*
X120269000Y-101780340D01*
X120523000Y-101780340D01*
X120523000Y-102891590D01*
X120681750Y-103050340D01*
X121284310Y-103050340D01*
X121517699Y-102953667D01*
X121696327Y-102775038D01*
X121793000Y-102541649D01*
X121793000Y-101939090D01*
X121634250Y-101780340D01*
X120523000Y-101780340D01*
X120269000Y-101780340D01*
X119157750Y-101780340D01*
X118999000Y-101939090D01*
X99008000Y-101939090D01*
X99008000Y-100765031D01*
X118999000Y-100765031D01*
X118999000Y-101367590D01*
X119157750Y-101526340D01*
X120269000Y-101526340D01*
X120269000Y-100415090D01*
X120523000Y-100415090D01*
X120523000Y-101526340D01*
X121634250Y-101526340D01*
X121793000Y-101367590D01*
X121793000Y-100765031D01*
X121696327Y-100531642D01*
X121517699Y-100353013D01*
X121284310Y-100256340D01*
X120681750Y-100256340D01*
X120523000Y-100415090D01*
X120269000Y-100415090D01*
X120110250Y-100256340D01*
X119507690Y-100256340D01*
X119274301Y-100353013D01*
X119095673Y-100531642D01*
X118999000Y-100765031D01*
X99008000Y-100765031D01*
X99008000Y-98502761D01*
X99144990Y-98834303D01*
X99537630Y-99227629D01*
X100050900Y-99440757D01*
X100606661Y-99441242D01*
X101120303Y-99229010D01*
X101513629Y-98836370D01*
X101726757Y-98323100D01*
X101726759Y-98320661D01*
X111886758Y-98320661D01*
X112098990Y-98834303D01*
X112491630Y-99227629D01*
X113004900Y-99440757D01*
X113560661Y-99441242D01*
X114074303Y-99229010D01*
X114467629Y-98836370D01*
X114680757Y-98323100D01*
X114681242Y-97767339D01*
X114627636Y-97637600D01*
X123431560Y-97637600D01*
X123431560Y-99669600D01*
X123475838Y-99904917D01*
X123614910Y-100121041D01*
X123827110Y-100266031D01*
X124079000Y-100317040D01*
X126111000Y-100317040D01*
X126346317Y-100272762D01*
X126562441Y-100133690D01*
X126707431Y-99921490D01*
X126758440Y-99669600D01*
X126758440Y-97637600D01*
X126714162Y-97402283D01*
X126575090Y-97186159D01*
X126362890Y-97041169D01*
X126111000Y-96990160D01*
X124079000Y-96990160D01*
X123843683Y-97034438D01*
X123627559Y-97173510D01*
X123482569Y-97385710D01*
X123431560Y-97637600D01*
X114627636Y-97637600D01*
X114469010Y-97253697D01*
X114076370Y-96860371D01*
X113563100Y-96647243D01*
X113007339Y-96646758D01*
X112493697Y-96858990D01*
X112100371Y-97251630D01*
X111887243Y-97764900D01*
X111886758Y-98320661D01*
X101726759Y-98320661D01*
X101727242Y-97767339D01*
X101515010Y-97253697D01*
X101122370Y-96860371D01*
X100609100Y-96647243D01*
X100053339Y-96646758D01*
X99539697Y-96858990D01*
X99146371Y-97251630D01*
X99008000Y-97584865D01*
X99008000Y-95454761D01*
X99144990Y-95786303D01*
X99537630Y-96179629D01*
X100050900Y-96392757D01*
X100606661Y-96393242D01*
X101120303Y-96181010D01*
X101513629Y-95788370D01*
X101726757Y-95275100D01*
X101726759Y-95272661D01*
X111886758Y-95272661D01*
X112098990Y-95786303D01*
X112491630Y-96179629D01*
X113004900Y-96392757D01*
X113560661Y-96393242D01*
X114074303Y-96181010D01*
X114467629Y-95788370D01*
X114680757Y-95275100D01*
X114681242Y-94719339D01*
X114647576Y-94637860D01*
X118732560Y-94637860D01*
X118732560Y-96669860D01*
X118776838Y-96905177D01*
X118915910Y-97121301D01*
X119128110Y-97266291D01*
X119380000Y-97317300D01*
X121412000Y-97317300D01*
X121647317Y-97273022D01*
X121863441Y-97133950D01*
X122008431Y-96921750D01*
X122059440Y-96669860D01*
X122059440Y-94637860D01*
X122015162Y-94402543D01*
X121880656Y-94193515D01*
X122112661Y-94279708D01*
X122762660Y-94255656D01*
X123251464Y-94053187D01*
X123317519Y-93874527D01*
X123453110Y-94085241D01*
X123665310Y-94230231D01*
X123917200Y-94281240D01*
X125917200Y-94281240D01*
X126152517Y-94236962D01*
X126175457Y-94222200D01*
X126416960Y-94222200D01*
X126416960Y-95922200D01*
X126461238Y-96157517D01*
X126600310Y-96373641D01*
X126812510Y-96518631D01*
X127064400Y-96569640D01*
X128764400Y-96569640D01*
X128999717Y-96525362D01*
X129215841Y-96386290D01*
X129360831Y-96174090D01*
X129374486Y-96106659D01*
X129404346Y-96151347D01*
X129886115Y-96473254D01*
X130454400Y-96586293D01*
X131022685Y-96473254D01*
X131368800Y-96241988D01*
X131368800Y-97069003D01*
X131349483Y-97072638D01*
X131133359Y-97211710D01*
X130988369Y-97423910D01*
X130986245Y-97434400D01*
X130032397Y-97434400D01*
X130028762Y-97415083D01*
X129889690Y-97198959D01*
X129677490Y-97053969D01*
X129425600Y-97002960D01*
X127825600Y-97002960D01*
X127590283Y-97047238D01*
X127374159Y-97186310D01*
X127229169Y-97398510D01*
X127178160Y-97650400D01*
X127178160Y-99250400D01*
X127222438Y-99485717D01*
X127361510Y-99701841D01*
X127573710Y-99846831D01*
X127825600Y-99897840D01*
X129425600Y-99897840D01*
X129660917Y-99853562D01*
X129877041Y-99714490D01*
X130022031Y-99502290D01*
X130029299Y-99466400D01*
X130973224Y-99466400D01*
X130981638Y-99511117D01*
X131120710Y-99727241D01*
X131332910Y-99872231D01*
X131584800Y-99923240D01*
X133184800Y-99923240D01*
X133420117Y-99878962D01*
X133636241Y-99739890D01*
X133781231Y-99527690D01*
X133832240Y-99275800D01*
X133832240Y-97675800D01*
X133787962Y-97440483D01*
X133648890Y-97224359D01*
X133515222Y-97133027D01*
X139007032Y-97133027D01*
X139255179Y-97662490D01*
X139687053Y-98056688D01*
X140102974Y-98228958D01*
X140335000Y-98107817D01*
X140335000Y-96901000D01*
X139127531Y-96901000D01*
X139007032Y-97133027D01*
X133515222Y-97133027D01*
X133436690Y-97079369D01*
X133400800Y-97072101D01*
X133400800Y-92723078D01*
X133742903Y-92380975D01*
X133795359Y-92507623D01*
X134171266Y-92922589D01*
X134677359Y-93162114D01*
X134899400Y-93040829D01*
X134899400Y-91897200D01*
X135153400Y-91897200D01*
X135153400Y-93040829D01*
X135375441Y-93162114D01*
X135881534Y-92922589D01*
X136257441Y-92507623D01*
X136418304Y-92119239D01*
X136296315Y-91897200D01*
X135153400Y-91897200D01*
X134899400Y-91897200D01*
X134879400Y-91897200D01*
X134879400Y-91643200D01*
X134899400Y-91643200D01*
X134899400Y-91623200D01*
X135153400Y-91623200D01*
X135153400Y-91643200D01*
X136296315Y-91643200D01*
X136418304Y-91421161D01*
X136257441Y-91032777D01*
X135881534Y-90617811D01*
X135626684Y-90497195D01*
X137192621Y-88931258D01*
X137412862Y-88601645D01*
X137432523Y-88502800D01*
X137490200Y-88212838D01*
X137490200Y-75779275D01*
X138366007Y-75779275D01*
X138380190Y-75850903D01*
X138639342Y-76327944D01*
X139061323Y-76669499D01*
X139581890Y-76823570D01*
X140081000Y-76823570D01*
X140081000Y-75565000D01*
X138488661Y-75565000D01*
X138366007Y-75779275D01*
X137490200Y-75779275D01*
X137490200Y-74013530D01*
X138339378Y-73164353D01*
X138391867Y-73428235D01*
X138692221Y-73877746D01*
X139141732Y-74178100D01*
X139151032Y-74179950D01*
X139061323Y-74206501D01*
X138639342Y-74548056D01*
X138380190Y-75025097D01*
X138366007Y-75096725D01*
X138488661Y-75311000D01*
X140081000Y-75311000D01*
X140081000Y-75291000D01*
X140335000Y-75291000D01*
X140335000Y-75311000D01*
X140355000Y-75311000D01*
X140355000Y-75565000D01*
X140335000Y-75565000D01*
X140335000Y-76823570D01*
X140834110Y-76823570D01*
X141354677Y-76669499D01*
X141356925Y-76667679D01*
X141356925Y-84644273D01*
X140839973Y-85161225D01*
X140462000Y-85086041D01*
X139888511Y-85200115D01*
X139402330Y-85524971D01*
X139077474Y-86011152D01*
X138963400Y-86584641D01*
X138963400Y-86643359D01*
X139077474Y-87216848D01*
X139402330Y-87703029D01*
X139673172Y-87884000D01*
X139402330Y-88064971D01*
X139077474Y-88551152D01*
X138963400Y-89124641D01*
X138963400Y-89183359D01*
X138979960Y-89266613D01*
X138709182Y-89154176D01*
X138304992Y-89153824D01*
X137931434Y-89308175D01*
X137645379Y-89593731D01*
X137490376Y-89967018D01*
X137490024Y-90371208D01*
X137644375Y-90744766D01*
X137929931Y-91030821D01*
X138303218Y-91185824D01*
X138707408Y-91186176D01*
X139009746Y-91061253D01*
X139087163Y-91076652D01*
X139077474Y-91091152D01*
X138963400Y-91664641D01*
X138963400Y-91723359D01*
X139077474Y-92296848D01*
X139402330Y-92783029D01*
X139673172Y-92964000D01*
X139402330Y-93144971D01*
X139077474Y-93631152D01*
X138963400Y-94204641D01*
X138963400Y-94263359D01*
X139077474Y-94836848D01*
X139402330Y-95323029D01*
X139673161Y-95503992D01*
X139255179Y-95885510D01*
X139007032Y-96414973D01*
X139127531Y-96647000D01*
X140335000Y-96647000D01*
X140335000Y-96627000D01*
X140589000Y-96627000D01*
X140589000Y-96647000D01*
X140609000Y-96647000D01*
X140609000Y-96901000D01*
X140589000Y-96901000D01*
X140589000Y-98107817D01*
X140821026Y-98228958D01*
X141236947Y-98056688D01*
X141521027Y-97797391D01*
X141535238Y-97872917D01*
X141674310Y-98089041D01*
X141886510Y-98234031D01*
X142138400Y-98285040D01*
X143865600Y-98285040D01*
X144100917Y-98240762D01*
X144317041Y-98101690D01*
X144462031Y-97889490D01*
X144513040Y-97637600D01*
X144513040Y-95910400D01*
X144468762Y-95675083D01*
X144329690Y-95458959D01*
X144117490Y-95313969D01*
X144073655Y-95305092D01*
X144386526Y-94836848D01*
X144500600Y-94263359D01*
X144500600Y-94204641D01*
X144386526Y-93631152D01*
X144061670Y-93144971D01*
X143790828Y-92964000D01*
X144061670Y-92783029D01*
X144386526Y-92296848D01*
X144500600Y-91723359D01*
X144500600Y-91664641D01*
X144386526Y-91091152D01*
X144061670Y-90604971D01*
X143790828Y-90424000D01*
X144061670Y-90243029D01*
X144386526Y-89756848D01*
X144500600Y-89183359D01*
X144500600Y-89124641D01*
X144386526Y-88551152D01*
X144061670Y-88064971D01*
X143790828Y-87884000D01*
X144061670Y-87703029D01*
X144386526Y-87216848D01*
X144500453Y-86644097D01*
X144578575Y-86833166D01*
X144864131Y-87119221D01*
X145237418Y-87274224D01*
X145641608Y-87274576D01*
X146015166Y-87120225D01*
X146301221Y-86834669D01*
X146456224Y-86461382D01*
X146456350Y-86317252D01*
X147781201Y-84992401D01*
X147945948Y-84745839D01*
X148003800Y-84455000D01*
X148003800Y-81448914D01*
X148104621Y-81348269D01*
X148259624Y-80974982D01*
X148259976Y-80570792D01*
X148105625Y-80197234D01*
X147820069Y-79911179D01*
X147446782Y-79756176D01*
X147042592Y-79755824D01*
X146669034Y-79910175D01*
X146382979Y-80195731D01*
X146227976Y-80569018D01*
X146227624Y-80973208D01*
X146381975Y-81346766D01*
X146483800Y-81448769D01*
X146483800Y-84140198D01*
X145381650Y-85242348D01*
X145239192Y-85242224D01*
X144865634Y-85396575D01*
X144579579Y-85682131D01*
X144424576Y-86055418D01*
X144424449Y-86201801D01*
X144386526Y-86011152D01*
X144227421Y-85773035D01*
X144227421Y-79174094D01*
X144311691Y-79209000D01*
X145002250Y-79209000D01*
X145161000Y-79050250D01*
X145161000Y-77851000D01*
X145415000Y-77851000D01*
X145415000Y-79050250D01*
X145573750Y-79209000D01*
X146264309Y-79209000D01*
X146497698Y-79112327D01*
X146676327Y-78933699D01*
X146773000Y-78700310D01*
X146773000Y-78009750D01*
X146614250Y-77851000D01*
X145415000Y-77851000D01*
X145161000Y-77851000D01*
X145141000Y-77851000D01*
X145141000Y-77597000D01*
X145161000Y-77597000D01*
X145161000Y-77577000D01*
X145415000Y-77577000D01*
X145415000Y-77597000D01*
X146614250Y-77597000D01*
X146773000Y-77438250D01*
X146773000Y-76747690D01*
X146676327Y-76514301D01*
X146497698Y-76335673D01*
X146323223Y-76263403D01*
X146367147Y-76234054D01*
X146689054Y-75752285D01*
X146802093Y-75184000D01*
X146689054Y-74615715D01*
X146367147Y-74133946D01*
X146037974Y-73914000D01*
X146367147Y-73694054D01*
X146689054Y-73212285D01*
X146802093Y-72644000D01*
X146689054Y-72075715D01*
X146367147Y-71593946D01*
X146037974Y-71374000D01*
X146367147Y-71154054D01*
X146689054Y-70672285D01*
X146802093Y-70104000D01*
X146689054Y-69535715D01*
X146367147Y-69053946D01*
X146037974Y-68834000D01*
X146367147Y-68614054D01*
X146689054Y-68132285D01*
X146802093Y-67564000D01*
X146689054Y-66995715D01*
X146367147Y-66513946D01*
X146037974Y-66294000D01*
X146367147Y-66074054D01*
X146689054Y-65592285D01*
X146802093Y-65024000D01*
X146689054Y-64455715D01*
X146367147Y-63973946D01*
X145885378Y-63652039D01*
X145317093Y-63539000D01*
X145258907Y-63539000D01*
X144690622Y-63652039D01*
X144227421Y-63961539D01*
X144227421Y-62390530D01*
X144421621Y-62196669D01*
X144576624Y-61823382D01*
X144576976Y-61419192D01*
X144422625Y-61045634D01*
X144137069Y-60759579D01*
X143774156Y-60608884D01*
X143803246Y-60579844D01*
X143958249Y-60206557D01*
X143958601Y-59802367D01*
X143804250Y-59428809D01*
X143518694Y-59142754D01*
X143145407Y-58987751D01*
X142906223Y-58987543D01*
X142977746Y-58916144D01*
X143132749Y-58542857D01*
X143133101Y-58138667D01*
X142978750Y-57765109D01*
X142693194Y-57479054D01*
X142319907Y-57324051D01*
X141915717Y-57323699D01*
X141542159Y-57478050D01*
X141256104Y-57763606D01*
X141101101Y-58136893D01*
X141100749Y-58541083D01*
X141255100Y-58914641D01*
X141356925Y-59016644D01*
X141356925Y-69133130D01*
X141274268Y-69077900D01*
X140744033Y-68972430D01*
X139671967Y-68972430D01*
X139141732Y-69077900D01*
X138692221Y-69378254D01*
X138391867Y-69827765D01*
X138289960Y-70340090D01*
X135755780Y-72874270D01*
X135535538Y-73203883D01*
X135535538Y-73203884D01*
X135458200Y-73592690D01*
X135458200Y-87791997D01*
X131666380Y-91583818D01*
X131446138Y-91913431D01*
X131446138Y-91913432D01*
X131368800Y-92302238D01*
X131368800Y-93902412D01*
X131022685Y-93671146D01*
X130454400Y-93558107D01*
X129886115Y-93671146D01*
X129404346Y-93993053D01*
X129376550Y-94034652D01*
X129367562Y-93986883D01*
X129228490Y-93770759D01*
X129016290Y-93625769D01*
X128764400Y-93574760D01*
X127064400Y-93574760D01*
X126829083Y-93619038D01*
X126612959Y-93758110D01*
X126467969Y-93970310D01*
X126416960Y-94222200D01*
X126175457Y-94222200D01*
X126368641Y-94097890D01*
X126513631Y-93885690D01*
X126564640Y-93633800D01*
X126564640Y-92958138D01*
X126592477Y-92986024D01*
X127119709Y-93204950D01*
X127690587Y-93205448D01*
X128218200Y-92987443D01*
X128622224Y-92584123D01*
X128841150Y-92056891D01*
X128841648Y-91486013D01*
X128623643Y-90958400D01*
X128220323Y-90554376D01*
X127693091Y-90335450D01*
X127122213Y-90334952D01*
X126594600Y-90552957D01*
X126190576Y-90956277D01*
X126157849Y-91035093D01*
X125917200Y-90986360D01*
X123917200Y-90986360D01*
X123681883Y-91030638D01*
X123465759Y-91169710D01*
X123320769Y-91381910D01*
X123318158Y-91394802D01*
X123251464Y-91214413D01*
X122641739Y-90987892D01*
X121991740Y-91011944D01*
X121502936Y-91214413D01*
X121404273Y-91481268D01*
X122377200Y-92454195D01*
X122391343Y-92440053D01*
X122570948Y-92619658D01*
X122556805Y-92633800D01*
X122570948Y-92647943D01*
X122391343Y-92827548D01*
X122377200Y-92813405D01*
X121404273Y-93786332D01*
X121485211Y-94005246D01*
X121412000Y-93990420D01*
X119380000Y-93990420D01*
X119144683Y-94034698D01*
X118928559Y-94173770D01*
X118783569Y-94385970D01*
X118732560Y-94637860D01*
X114647576Y-94637860D01*
X114469010Y-94205697D01*
X114076370Y-93812371D01*
X113563100Y-93599243D01*
X113007339Y-93598758D01*
X112493697Y-93810990D01*
X112100371Y-94203630D01*
X111887243Y-94716900D01*
X111886758Y-95272661D01*
X101726759Y-95272661D01*
X101727242Y-94719339D01*
X101515010Y-94205697D01*
X101122370Y-93812371D01*
X100609100Y-93599243D01*
X100053339Y-93598758D01*
X99539697Y-93810990D01*
X99146371Y-94203630D01*
X99008000Y-94536865D01*
X99008000Y-92369261D01*
X120731292Y-92369261D01*
X120755344Y-93019260D01*
X120957813Y-93508064D01*
X121224668Y-93606727D01*
X122197595Y-92633800D01*
X121224668Y-91660873D01*
X120957813Y-91759536D01*
X120731292Y-92369261D01*
X99008000Y-92369261D01*
X99008000Y-85162963D01*
X100964714Y-85162963D01*
X101215534Y-85769995D01*
X101551132Y-86106179D01*
X101217166Y-86439563D01*
X100965287Y-87046155D01*
X100964714Y-87702963D01*
X101215534Y-88309995D01*
X101679563Y-88774834D01*
X102286155Y-89026713D01*
X102942963Y-89027286D01*
X103549995Y-88776466D01*
X104014834Y-88312437D01*
X104194804Y-87879021D01*
X129539560Y-87879021D01*
X129925437Y-88812915D01*
X130639327Y-89528052D01*
X131572546Y-89915559D01*
X132583021Y-89916440D01*
X133516915Y-89530563D01*
X134232052Y-88816673D01*
X134619559Y-87883454D01*
X134620440Y-86872979D01*
X134234563Y-85939085D01*
X133520673Y-85223948D01*
X132587454Y-84836441D01*
X131576979Y-84835560D01*
X130643085Y-85221437D01*
X129927948Y-85935327D01*
X129540441Y-86868546D01*
X129539560Y-87879021D01*
X104194804Y-87879021D01*
X104266713Y-87705845D01*
X104267286Y-87049037D01*
X104016466Y-86442005D01*
X103680868Y-86105821D01*
X104014834Y-85772437D01*
X104266713Y-85165845D01*
X104267286Y-84509037D01*
X104016466Y-83902005D01*
X103593634Y-83478435D01*
X103600502Y-83460107D01*
X102616000Y-82475605D01*
X101631498Y-83460107D01*
X101638547Y-83478917D01*
X101217166Y-83899563D01*
X100965287Y-84506155D01*
X100964714Y-85162963D01*
X99008000Y-85162963D01*
X99008000Y-82027642D01*
X100954184Y-82027642D01*
X100977986Y-82684019D01*
X101183378Y-83179880D01*
X101451893Y-83280502D01*
X102436395Y-82296000D01*
X102795605Y-82296000D01*
X103780107Y-83280502D01*
X104048622Y-83179880D01*
X104277816Y-82564358D01*
X104254014Y-81907981D01*
X104048622Y-81412120D01*
X103780107Y-81311498D01*
X102795605Y-82296000D01*
X102436395Y-82296000D01*
X101451893Y-81311498D01*
X101183378Y-81412120D01*
X100954184Y-82027642D01*
X99008000Y-82027642D01*
X99008000Y-67382963D01*
X100964714Y-67382963D01*
X101215534Y-67989995D01*
X101551132Y-68326179D01*
X101217166Y-68659563D01*
X100965287Y-69266155D01*
X100964714Y-69922963D01*
X101215534Y-70529995D01*
X101551132Y-70866179D01*
X101217166Y-71199563D01*
X100965287Y-71806155D01*
X100964714Y-72462963D01*
X101215534Y-73069995D01*
X101551132Y-73406179D01*
X101217166Y-73739563D01*
X100965287Y-74346155D01*
X100964714Y-75002963D01*
X101215534Y-75609995D01*
X101551132Y-75946179D01*
X101217166Y-76279563D01*
X100965287Y-76886155D01*
X100964714Y-77542963D01*
X101215534Y-78149995D01*
X101551132Y-78486179D01*
X101217166Y-78819563D01*
X100965287Y-79426155D01*
X100964714Y-80082963D01*
X101215534Y-80689995D01*
X101638366Y-81113565D01*
X101631498Y-81131893D01*
X102616000Y-82116395D01*
X103600502Y-81131893D01*
X103593453Y-81113083D01*
X104014834Y-80692437D01*
X104266713Y-80085845D01*
X104267286Y-79429037D01*
X104016466Y-78822005D01*
X103680868Y-78485821D01*
X104014834Y-78152437D01*
X104266713Y-77545845D01*
X104267286Y-76889037D01*
X104016466Y-76282005D01*
X103680868Y-75945821D01*
X104014834Y-75612437D01*
X104266713Y-75005845D01*
X104267286Y-74349037D01*
X104016466Y-73742005D01*
X103680868Y-73405821D01*
X104014834Y-73072437D01*
X104266713Y-72465845D01*
X104267286Y-71809037D01*
X104016466Y-71202005D01*
X103680868Y-70865821D01*
X104014834Y-70532437D01*
X104266713Y-69925845D01*
X104267286Y-69269037D01*
X104016466Y-68662005D01*
X103680868Y-68325821D01*
X104014834Y-67992437D01*
X104194804Y-67559021D01*
X129539560Y-67559021D01*
X129925437Y-68492915D01*
X130639327Y-69208052D01*
X131572546Y-69595559D01*
X132583021Y-69596440D01*
X133516915Y-69210563D01*
X134232052Y-68496673D01*
X134619559Y-67563454D01*
X134620440Y-66552979D01*
X134234563Y-65619085D01*
X133520673Y-64903948D01*
X132587454Y-64516441D01*
X131576979Y-64515560D01*
X130643085Y-64901437D01*
X129927948Y-65615327D01*
X129540441Y-66548546D01*
X129539560Y-67559021D01*
X104194804Y-67559021D01*
X104266713Y-67385845D01*
X104267286Y-66729037D01*
X104016466Y-66122005D01*
X103552437Y-65657166D01*
X102945845Y-65405287D01*
X102289037Y-65404714D01*
X101682005Y-65655534D01*
X101217166Y-66119563D01*
X100965287Y-66726155D01*
X100964714Y-67382963D01*
X99008000Y-67382963D01*
X99008000Y-57435777D01*
X111899192Y-57435777D01*
X111968657Y-57677961D01*
X112492102Y-57864708D01*
X113047168Y-57836926D01*
X113430943Y-57677961D01*
X113500408Y-57435777D01*
X112699800Y-56635169D01*
X111899192Y-57435777D01*
X99008000Y-57435777D01*
X99008000Y-54019078D01*
X99948406Y-54019078D01*
X100469340Y-55279835D01*
X101433092Y-56245270D01*
X102692937Y-56768403D01*
X104057078Y-56769594D01*
X105317835Y-56248660D01*
X105318630Y-56247866D01*
X111290656Y-56247866D01*
X111318438Y-56802932D01*
X111477403Y-57186707D01*
X111719587Y-57256172D01*
X112520195Y-56455564D01*
X112879405Y-56455564D01*
X113680013Y-57256172D01*
X113922197Y-57186707D01*
X114108944Y-56663262D01*
X114081162Y-56108196D01*
X113922197Y-55724421D01*
X113680013Y-55654956D01*
X112879405Y-56455564D01*
X112520195Y-56455564D01*
X111719587Y-55654956D01*
X111477403Y-55724421D01*
X111290656Y-56247866D01*
X105318630Y-56247866D01*
X106283270Y-55284908D01*
X106806403Y-54025063D01*
X106807594Y-52660922D01*
X106286660Y-51400165D01*
X105322908Y-50434730D01*
X104063063Y-49911597D01*
X102698922Y-49910406D01*
X101438165Y-50431340D01*
X100472730Y-51395092D01*
X99949597Y-52654937D01*
X99948406Y-54019078D01*
X99008000Y-54019078D01*
X99008000Y-44064475D01*
X106218331Y-44064475D01*
X106280169Y-44300242D01*
X106781122Y-44476619D01*
X107311440Y-44447864D01*
X107667831Y-44300242D01*
X107729669Y-44064475D01*
X106974000Y-43308805D01*
X106218331Y-44064475D01*
X99008000Y-44064475D01*
X99008000Y-42936322D01*
X105626581Y-42936322D01*
X105655336Y-43466640D01*
X105802958Y-43823031D01*
X106038725Y-43884869D01*
X106794395Y-43129200D01*
X106038725Y-42373531D01*
X105802958Y-42435369D01*
X105626581Y-42936322D01*
X99008000Y-42936322D01*
X99008000Y-41575275D01*
X106178331Y-41575275D01*
X106240169Y-41811042D01*
X106453774Y-41886249D01*
X106280169Y-41958158D01*
X106218331Y-42193925D01*
X106974000Y-42949595D01*
X107729669Y-42193925D01*
X107667831Y-41958158D01*
X107454226Y-41882951D01*
X107627831Y-41811042D01*
X107689669Y-41575275D01*
X106934000Y-40819605D01*
X106178331Y-41575275D01*
X99008000Y-41575275D01*
X99008000Y-39576757D01*
X99199340Y-40039835D01*
X100163092Y-41005270D01*
X101422937Y-41528403D01*
X102787078Y-41529594D01*
X104047835Y-41008660D01*
X104610353Y-40447122D01*
X105586581Y-40447122D01*
X105615336Y-40977440D01*
X105762958Y-41333831D01*
X105998725Y-41395669D01*
X106754395Y-40640000D01*
X107113605Y-40640000D01*
X107869275Y-41395669D01*
X108105042Y-41333831D01*
X108183793Y-41110158D01*
X108301582Y-41395229D01*
X108676796Y-41771098D01*
X108970156Y-41892912D01*
X108718771Y-41996782D01*
X108342902Y-42371996D01*
X108230709Y-42642187D01*
X108145042Y-42435369D01*
X107909275Y-42373531D01*
X107153605Y-43129200D01*
X107909275Y-43884869D01*
X108145042Y-43823031D01*
X108223793Y-43599358D01*
X108341582Y-43884429D01*
X108716796Y-44260298D01*
X109207287Y-44463968D01*
X109738383Y-44464431D01*
X110229229Y-44261618D01*
X110605098Y-43886404D01*
X110808768Y-43395913D01*
X110809231Y-42864817D01*
X110606418Y-42373971D01*
X110231204Y-41998102D01*
X109937844Y-41876288D01*
X110189229Y-41772418D01*
X110565098Y-41397204D01*
X110768768Y-40906713D01*
X110769231Y-40375617D01*
X110566418Y-39884771D01*
X110191204Y-39508902D01*
X109863755Y-39372933D01*
X110203829Y-39232418D01*
X110579698Y-38857204D01*
X110631578Y-38732261D01*
X111302558Y-38732261D01*
X111514790Y-39245903D01*
X111724140Y-39455619D01*
X111516171Y-39663226D01*
X111303043Y-40176496D01*
X111302558Y-40732257D01*
X111514790Y-41245899D01*
X111724140Y-41455615D01*
X111516171Y-41663222D01*
X111303043Y-42176492D01*
X111302558Y-42732253D01*
X111514790Y-43245895D01*
X111724140Y-43455611D01*
X111516171Y-43663218D01*
X111303043Y-44176488D01*
X111302558Y-44732249D01*
X111514790Y-45245891D01*
X111724140Y-45455607D01*
X111516171Y-45663214D01*
X111303043Y-46176484D01*
X111302558Y-46732245D01*
X111514790Y-47245887D01*
X111724140Y-47455603D01*
X111516171Y-47663210D01*
X111303043Y-48176480D01*
X111302558Y-48732241D01*
X111514790Y-49245883D01*
X111724902Y-49456363D01*
X111516171Y-49664730D01*
X111303043Y-50178000D01*
X111302558Y-50733761D01*
X111514790Y-51247403D01*
X111723632Y-51456610D01*
X111516171Y-51663710D01*
X111303043Y-52176980D01*
X111302558Y-52732741D01*
X111514790Y-53246383D01*
X111724902Y-53456863D01*
X111516171Y-53665230D01*
X111303043Y-54178500D01*
X111302558Y-54734261D01*
X111514790Y-55247903D01*
X111907430Y-55641229D01*
X112177009Y-55753168D01*
X112699800Y-56275959D01*
X113222633Y-55753126D01*
X113490103Y-55642610D01*
X113883429Y-55249970D01*
X114096557Y-54736700D01*
X114097042Y-54180939D01*
X113884810Y-53667297D01*
X113674698Y-53456817D01*
X113883429Y-53248450D01*
X114096557Y-52735180D01*
X114096559Y-52732741D01*
X133298958Y-52732741D01*
X133511190Y-53246383D01*
X133721302Y-53456863D01*
X133512571Y-53665230D01*
X133299443Y-54178500D01*
X133298958Y-54734261D01*
X133511190Y-55247903D01*
X133719524Y-55456601D01*
X133512571Y-55663194D01*
X133299443Y-56176464D01*
X133298958Y-56732225D01*
X133511190Y-57245867D01*
X133903830Y-57639193D01*
X134417100Y-57852321D01*
X134972861Y-57852806D01*
X135486503Y-57640574D01*
X135879829Y-57247934D01*
X136092957Y-56734664D01*
X136093442Y-56178903D01*
X135881210Y-55665261D01*
X135672876Y-55456563D01*
X135879829Y-55249970D01*
X136092957Y-54736700D01*
X136093442Y-54180939D01*
X135881210Y-53667297D01*
X135671098Y-53456817D01*
X135879829Y-53248450D01*
X136092957Y-52735180D01*
X136093442Y-52179419D01*
X135881210Y-51665777D01*
X135488570Y-51272451D01*
X135223335Y-51162316D01*
X134696200Y-50635181D01*
X134169039Y-51162342D01*
X133905897Y-51271070D01*
X133512571Y-51663710D01*
X133299443Y-52176980D01*
X133298958Y-52732741D01*
X114096559Y-52732741D01*
X114097042Y-52179419D01*
X113884810Y-51665777D01*
X113675968Y-51456570D01*
X113883429Y-51249470D01*
X114096557Y-50736200D01*
X114096591Y-50696408D01*
X124282024Y-50696408D01*
X124436375Y-51069966D01*
X124721931Y-51356021D01*
X125095218Y-51511024D01*
X125499408Y-51511376D01*
X125872966Y-51357025D01*
X126159021Y-51071469D01*
X126314024Y-50698182D01*
X126314150Y-50554052D01*
X126620324Y-50247878D01*
X133287056Y-50247878D01*
X133314838Y-50802944D01*
X133473803Y-51186719D01*
X133715987Y-51256184D01*
X134516595Y-50455576D01*
X134875805Y-50455576D01*
X135676413Y-51256184D01*
X135918597Y-51186719D01*
X136105344Y-50663274D01*
X136082611Y-50209078D01*
X140588406Y-50209078D01*
X141109340Y-51469835D01*
X142073092Y-52435270D01*
X143332937Y-52958403D01*
X144697078Y-52959594D01*
X145957835Y-52438660D01*
X146923270Y-51474908D01*
X147446403Y-50215063D01*
X147447594Y-48850922D01*
X146926660Y-47590165D01*
X145962908Y-46624730D01*
X144703063Y-46101597D01*
X143338922Y-46100406D01*
X142078165Y-46621340D01*
X141112730Y-47585092D01*
X140589597Y-48844937D01*
X140588406Y-50209078D01*
X136082611Y-50209078D01*
X136077562Y-50108208D01*
X135918597Y-49724433D01*
X135676413Y-49654968D01*
X134875805Y-50455576D01*
X134516595Y-50455576D01*
X133715987Y-49654968D01*
X133473803Y-49724433D01*
X133287056Y-50247878D01*
X126620324Y-50247878D01*
X128604201Y-48264001D01*
X128768948Y-48017440D01*
X128826800Y-47726600D01*
X128768948Y-47435761D01*
X128604201Y-47189199D01*
X128572800Y-47168218D01*
X128572800Y-45075937D01*
X128775221Y-44873869D01*
X128930224Y-44500582D01*
X128930576Y-44096392D01*
X128776225Y-43722834D01*
X128490669Y-43436779D01*
X128117382Y-43281776D01*
X127713192Y-43281424D01*
X127339634Y-43435775D01*
X127053579Y-43721331D01*
X126898576Y-44094618D01*
X126898224Y-44498808D01*
X127052575Y-44872366D01*
X127052800Y-44872591D01*
X127052800Y-47665798D01*
X125239450Y-49479148D01*
X125096992Y-49479024D01*
X124723434Y-49633375D01*
X124437379Y-49918931D01*
X124282376Y-50292218D01*
X124282024Y-50696408D01*
X114096591Y-50696408D01*
X114097042Y-50180439D01*
X113884810Y-49666797D01*
X113674698Y-49456317D01*
X113883429Y-49247950D01*
X114096557Y-48734680D01*
X114097042Y-48178919D01*
X113884810Y-47665277D01*
X113675460Y-47455561D01*
X113883429Y-47247954D01*
X114096557Y-46734684D01*
X114097042Y-46178923D01*
X113884810Y-45665281D01*
X113675460Y-45455565D01*
X113883429Y-45247958D01*
X114096557Y-44734688D01*
X114097042Y-44178927D01*
X113884810Y-43665285D01*
X113675460Y-43455569D01*
X113883429Y-43247962D01*
X114096557Y-42734692D01*
X114097042Y-42178931D01*
X113884810Y-41665289D01*
X113675460Y-41455573D01*
X113883429Y-41247966D01*
X114096557Y-40734696D01*
X114097042Y-40178935D01*
X113884810Y-39665293D01*
X113675460Y-39455577D01*
X113883429Y-39247970D01*
X114096557Y-38734700D01*
X114096559Y-38732261D01*
X133298958Y-38732261D01*
X133511190Y-39245903D01*
X133720540Y-39455619D01*
X133512571Y-39663226D01*
X133299443Y-40176496D01*
X133298958Y-40732257D01*
X133511190Y-41245899D01*
X133720540Y-41455615D01*
X133512571Y-41663222D01*
X133299443Y-42176492D01*
X133298958Y-42732253D01*
X133511190Y-43245895D01*
X133720540Y-43455611D01*
X133512571Y-43663218D01*
X133299443Y-44176488D01*
X133298958Y-44732249D01*
X133511190Y-45245891D01*
X133720540Y-45455607D01*
X133512571Y-45663214D01*
X133299443Y-46176484D01*
X133298958Y-46732245D01*
X133511190Y-47245887D01*
X133720540Y-47455603D01*
X133512571Y-47663210D01*
X133299443Y-48176480D01*
X133298958Y-48732241D01*
X133511190Y-49245883D01*
X133903830Y-49639209D01*
X134169934Y-49749705D01*
X134696200Y-50275971D01*
X135222496Y-49749675D01*
X135486503Y-49640590D01*
X135879829Y-49247950D01*
X136092957Y-48734680D01*
X136093442Y-48178919D01*
X135881210Y-47665277D01*
X135671860Y-47455561D01*
X135879829Y-47247954D01*
X136092957Y-46734684D01*
X136093442Y-46178923D01*
X135881210Y-45665281D01*
X135671860Y-45455565D01*
X135879829Y-45247958D01*
X136092957Y-44734688D01*
X136093442Y-44178927D01*
X135881210Y-43665285D01*
X135671860Y-43455569D01*
X135879829Y-43247962D01*
X136092957Y-42734692D01*
X136093442Y-42178931D01*
X135881210Y-41665289D01*
X135671860Y-41455573D01*
X135879829Y-41247966D01*
X136092957Y-40734696D01*
X136093442Y-40178935D01*
X135881210Y-39665293D01*
X135671860Y-39455577D01*
X135879829Y-39247970D01*
X136092957Y-38734700D01*
X136093442Y-38178939D01*
X135881210Y-37665297D01*
X135488570Y-37271971D01*
X134975300Y-37058843D01*
X134419539Y-37058358D01*
X133905897Y-37270590D01*
X133512571Y-37663230D01*
X133299443Y-38176500D01*
X133298958Y-38732261D01*
X114096559Y-38732261D01*
X114097042Y-38178939D01*
X113884810Y-37665297D01*
X113492170Y-37271971D01*
X112978900Y-37058843D01*
X112423139Y-37058358D01*
X111909497Y-37270590D01*
X111516171Y-37663230D01*
X111303043Y-38176500D01*
X111302558Y-38732261D01*
X110631578Y-38732261D01*
X110783368Y-38366713D01*
X110783831Y-37835617D01*
X110581018Y-37344771D01*
X110205804Y-36968902D01*
X109715313Y-36765232D01*
X109184217Y-36764769D01*
X108693371Y-36967582D01*
X108317502Y-37342796D01*
X108205309Y-37612987D01*
X108119642Y-37406169D01*
X107883875Y-37344331D01*
X107128205Y-38100000D01*
X107883875Y-38855669D01*
X108119642Y-38793831D01*
X108198393Y-38570158D01*
X108316182Y-38855229D01*
X108691396Y-39231098D01*
X109018845Y-39367067D01*
X108678771Y-39507582D01*
X108302902Y-39882796D01*
X108190709Y-40152987D01*
X108105042Y-39946169D01*
X107869275Y-39884331D01*
X107113605Y-40640000D01*
X106754395Y-40640000D01*
X105998725Y-39884331D01*
X105762958Y-39946169D01*
X105586581Y-40447122D01*
X104610353Y-40447122D01*
X105013270Y-40044908D01*
X105154526Y-39704725D01*
X106178331Y-39704725D01*
X106934000Y-40460395D01*
X107689669Y-39704725D01*
X107627831Y-39468958D01*
X107377447Y-39380802D01*
X107642431Y-39271042D01*
X107704269Y-39035275D01*
X106948600Y-38279605D01*
X106192931Y-39035275D01*
X106254769Y-39271042D01*
X106505153Y-39359198D01*
X106240169Y-39468958D01*
X106178331Y-39704725D01*
X105154526Y-39704725D01*
X105536403Y-38785063D01*
X105537169Y-37907122D01*
X105601181Y-37907122D01*
X105629936Y-38437440D01*
X105777558Y-38793831D01*
X106013325Y-38855669D01*
X106768995Y-38100000D01*
X106013325Y-37344331D01*
X105777558Y-37406169D01*
X105601181Y-37907122D01*
X105537169Y-37907122D01*
X105537594Y-37420922D01*
X105431736Y-37164725D01*
X106192931Y-37164725D01*
X106948600Y-37920395D01*
X107704269Y-37164725D01*
X107642431Y-36928958D01*
X107141478Y-36752581D01*
X106611160Y-36781336D01*
X106254769Y-36928958D01*
X106192931Y-37164725D01*
X105431736Y-37164725D01*
X105016660Y-36160165D01*
X104052908Y-35194730D01*
X103583946Y-35000000D01*
X143811243Y-35000000D01*
X143348165Y-35191340D01*
X143348165Y-35191340D01*
G37*
X143348165Y-35191340D02*
X142382730Y-36155092D01*
X141859597Y-37414937D01*
X141858406Y-38779078D01*
X142379340Y-40039835D01*
X143343092Y-41005270D01*
X144602937Y-41528403D01*
X145967078Y-41529594D01*
X147227835Y-41008660D01*
X148193270Y-40044908D01*
X148388000Y-39575946D01*
X148388000Y-105203243D01*
X148196660Y-104740165D01*
X147232908Y-103774730D01*
X145973063Y-103251597D01*
X144608922Y-103250406D01*
X143348165Y-103771340D01*
X142382730Y-104735092D01*
X141859597Y-105994937D01*
X141858406Y-107359078D01*
X142379340Y-108619835D01*
X143343092Y-109585270D01*
X143812054Y-109780000D01*
X103584757Y-109780000D01*
X104047835Y-109588660D01*
X105013270Y-108624908D01*
X105536403Y-107365063D01*
X105537557Y-106042287D01*
X127190600Y-106042287D01*
X127190600Y-106098513D01*
X127299833Y-106647664D01*
X127610902Y-107113211D01*
X128076449Y-107424280D01*
X128625600Y-107533513D01*
X129174751Y-107424280D01*
X129640298Y-107113211D01*
X129951367Y-106647664D01*
X130060600Y-106098513D01*
X130060600Y-106067687D01*
X130949800Y-106067687D01*
X130949800Y-106123913D01*
X131059033Y-106673064D01*
X131370102Y-107138611D01*
X131835649Y-107449680D01*
X132384800Y-107558913D01*
X132933951Y-107449680D01*
X133399498Y-107138611D01*
X133710567Y-106673064D01*
X133819800Y-106123913D01*
X133819800Y-106067687D01*
X133710567Y-105518536D01*
X133399498Y-105052989D01*
X133325583Y-105003600D01*
X134886960Y-105003600D01*
X134886960Y-107035600D01*
X134931238Y-107270917D01*
X135070310Y-107487041D01*
X135282510Y-107632031D01*
X135534400Y-107683040D01*
X137566400Y-107683040D01*
X137801717Y-107638762D01*
X138017841Y-107499690D01*
X138129240Y-107336652D01*
X138225582Y-107425985D01*
X138707456Y-107625575D01*
X138963400Y-107506436D01*
X138963400Y-106146600D01*
X139217400Y-106146600D01*
X139217400Y-107506436D01*
X139473344Y-107625575D01*
X139955218Y-107425985D01*
X140427588Y-106987979D01*
X140696383Y-106402546D01*
X140577767Y-106146600D01*
X139217400Y-106146600D01*
X138963400Y-106146600D01*
X138943400Y-106146600D01*
X138943400Y-105892600D01*
X138963400Y-105892600D01*
X138963400Y-104532764D01*
X139217400Y-104532764D01*
X139217400Y-105892600D01*
X140577767Y-105892600D01*
X140696383Y-105636654D01*
X140427588Y-105051221D01*
X139955218Y-104613215D01*
X139473344Y-104413625D01*
X139217400Y-104532764D01*
X138963400Y-104532764D01*
X138707456Y-104413625D01*
X138225582Y-104613215D01*
X138128002Y-104703697D01*
X138030490Y-104552159D01*
X137818290Y-104407169D01*
X137566400Y-104356160D01*
X135534400Y-104356160D01*
X135299083Y-104400438D01*
X135082959Y-104539510D01*
X134937969Y-104751710D01*
X134886960Y-105003600D01*
X133325583Y-105003600D01*
X132933951Y-104741920D01*
X132384800Y-104632687D01*
X131835649Y-104741920D01*
X131370102Y-105052989D01*
X131059033Y-105518536D01*
X130949800Y-106067687D01*
X130060600Y-106067687D01*
X130060600Y-106042287D01*
X129951367Y-105493136D01*
X129640298Y-105027589D01*
X129174751Y-104716520D01*
X128625600Y-104607287D01*
X128076449Y-104716520D01*
X127610902Y-105027589D01*
X127299833Y-105493136D01*
X127190600Y-106042287D01*
X105537557Y-106042287D01*
X105537594Y-106000922D01*
X105016660Y-104740165D01*
X104052908Y-103774730D01*
X102793063Y-103251597D01*
X101428922Y-103250406D01*
X100168165Y-103771340D01*
X99202730Y-104735092D01*
X99008000Y-105204054D01*
X99008000Y-101939090D01*
X118999000Y-101939090D01*
X118999000Y-102541649D01*
X119095673Y-102775038D01*
X119274301Y-102953667D01*
X119507690Y-103050340D01*
X120110250Y-103050340D01*
X120269000Y-102891590D01*
X120269000Y-101780340D01*
X120523000Y-101780340D01*
X120523000Y-102891590D01*
X120681750Y-103050340D01*
X121284310Y-103050340D01*
X121517699Y-102953667D01*
X121696327Y-102775038D01*
X121793000Y-102541649D01*
X121793000Y-101939090D01*
X121634250Y-101780340D01*
X120523000Y-101780340D01*
X120269000Y-101780340D01*
X119157750Y-101780340D01*
X118999000Y-101939090D01*
X99008000Y-101939090D01*
X99008000Y-100765031D01*
X118999000Y-100765031D01*
X118999000Y-101367590D01*
X119157750Y-101526340D01*
X120269000Y-101526340D01*
X120269000Y-100415090D01*
X120523000Y-100415090D01*
X120523000Y-101526340D01*
X121634250Y-101526340D01*
X121793000Y-101367590D01*
X121793000Y-100765031D01*
X121696327Y-100531642D01*
X121517699Y-100353013D01*
X121284310Y-100256340D01*
X120681750Y-100256340D01*
X120523000Y-100415090D01*
X120269000Y-100415090D01*
X120110250Y-100256340D01*
X119507690Y-100256340D01*
X119274301Y-100353013D01*
X119095673Y-100531642D01*
X118999000Y-100765031D01*
X99008000Y-100765031D01*
X99008000Y-98502761D01*
X99144990Y-98834303D01*
X99537630Y-99227629D01*
X100050900Y-99440757D01*
X100606661Y-99441242D01*
X101120303Y-99229010D01*
X101513629Y-98836370D01*
X101726757Y-98323100D01*
X101726759Y-98320661D01*
X111886758Y-98320661D01*
X112098990Y-98834303D01*
X112491630Y-99227629D01*
X113004900Y-99440757D01*
X113560661Y-99441242D01*
X114074303Y-99229010D01*
X114467629Y-98836370D01*
X114680757Y-98323100D01*
X114681242Y-97767339D01*
X114627636Y-97637600D01*
X123431560Y-97637600D01*
X123431560Y-99669600D01*
X123475838Y-99904917D01*
X123614910Y-100121041D01*
X123827110Y-100266031D01*
X124079000Y-100317040D01*
X126111000Y-100317040D01*
X126346317Y-100272762D01*
X126562441Y-100133690D01*
X126707431Y-99921490D01*
X126758440Y-99669600D01*
X126758440Y-97637600D01*
X126714162Y-97402283D01*
X126575090Y-97186159D01*
X126362890Y-97041169D01*
X126111000Y-96990160D01*
X124079000Y-96990160D01*
X123843683Y-97034438D01*
X123627559Y-97173510D01*
X123482569Y-97385710D01*
X123431560Y-97637600D01*
X114627636Y-97637600D01*
X114469010Y-97253697D01*
X114076370Y-96860371D01*
X113563100Y-96647243D01*
X113007339Y-96646758D01*
X112493697Y-96858990D01*
X112100371Y-97251630D01*
X111887243Y-97764900D01*
X111886758Y-98320661D01*
X101726759Y-98320661D01*
X101727242Y-97767339D01*
X101515010Y-97253697D01*
X101122370Y-96860371D01*
X100609100Y-96647243D01*
X100053339Y-96646758D01*
X99539697Y-96858990D01*
X99146371Y-97251630D01*
X99008000Y-97584865D01*
X99008000Y-95454761D01*
X99144990Y-95786303D01*
X99537630Y-96179629D01*
X100050900Y-96392757D01*
X100606661Y-96393242D01*
X101120303Y-96181010D01*
X101513629Y-95788370D01*
X101726757Y-95275100D01*
X101726759Y-95272661D01*
X111886758Y-95272661D01*
X112098990Y-95786303D01*
X112491630Y-96179629D01*
X113004900Y-96392757D01*
X113560661Y-96393242D01*
X114074303Y-96181010D01*
X114467629Y-95788370D01*
X114680757Y-95275100D01*
X114681242Y-94719339D01*
X114647576Y-94637860D01*
X118732560Y-94637860D01*
X118732560Y-96669860D01*
X118776838Y-96905177D01*
X118915910Y-97121301D01*
X119128110Y-97266291D01*
X119380000Y-97317300D01*
X121412000Y-97317300D01*
X121647317Y-97273022D01*
X121863441Y-97133950D01*
X122008431Y-96921750D01*
X122059440Y-96669860D01*
X122059440Y-94637860D01*
X122015162Y-94402543D01*
X121880656Y-94193515D01*
X122112661Y-94279708D01*
X122762660Y-94255656D01*
X123251464Y-94053187D01*
X123317519Y-93874527D01*
X123453110Y-94085241D01*
X123665310Y-94230231D01*
X123917200Y-94281240D01*
X125917200Y-94281240D01*
X126152517Y-94236962D01*
X126175457Y-94222200D01*
X126416960Y-94222200D01*
X126416960Y-95922200D01*
X126461238Y-96157517D01*
X126600310Y-96373641D01*
X126812510Y-96518631D01*
X127064400Y-96569640D01*
X128764400Y-96569640D01*
X128999717Y-96525362D01*
X129215841Y-96386290D01*
X129360831Y-96174090D01*
X129374486Y-96106659D01*
X129404346Y-96151347D01*
X129886115Y-96473254D01*
X130454400Y-96586293D01*
X131022685Y-96473254D01*
X131368800Y-96241988D01*
X131368800Y-97069003D01*
X131349483Y-97072638D01*
X131133359Y-97211710D01*
X130988369Y-97423910D01*
X130986245Y-97434400D01*
X130032397Y-97434400D01*
X130028762Y-97415083D01*
X129889690Y-97198959D01*
X129677490Y-97053969D01*
X129425600Y-97002960D01*
X127825600Y-97002960D01*
X127590283Y-97047238D01*
X127374159Y-97186310D01*
X127229169Y-97398510D01*
X127178160Y-97650400D01*
X127178160Y-99250400D01*
X127222438Y-99485717D01*
X127361510Y-99701841D01*
X127573710Y-99846831D01*
X127825600Y-99897840D01*
X129425600Y-99897840D01*
X129660917Y-99853562D01*
X129877041Y-99714490D01*
X130022031Y-99502290D01*
X130029299Y-99466400D01*
X130973224Y-99466400D01*
X130981638Y-99511117D01*
X131120710Y-99727241D01*
X131332910Y-99872231D01*
X131584800Y-99923240D01*
X133184800Y-99923240D01*
X133420117Y-99878962D01*
X133636241Y-99739890D01*
X133781231Y-99527690D01*
X133832240Y-99275800D01*
X133832240Y-97675800D01*
X133787962Y-97440483D01*
X133648890Y-97224359D01*
X133515222Y-97133027D01*
X139007032Y-97133027D01*
X139255179Y-97662490D01*
X139687053Y-98056688D01*
X140102974Y-98228958D01*
X140335000Y-98107817D01*
X140335000Y-96901000D01*
X139127531Y-96901000D01*
X139007032Y-97133027D01*
X133515222Y-97133027D01*
X133436690Y-97079369D01*
X133400800Y-97072101D01*
X133400800Y-92723078D01*
X133742903Y-92380975D01*
X133795359Y-92507623D01*
X134171266Y-92922589D01*
X134677359Y-93162114D01*
X134899400Y-93040829D01*
X134899400Y-91897200D01*
X135153400Y-91897200D01*
X135153400Y-93040829D01*
X135375441Y-93162114D01*
X135881534Y-92922589D01*
X136257441Y-92507623D01*
X136418304Y-92119239D01*
X136296315Y-91897200D01*
X135153400Y-91897200D01*
X134899400Y-91897200D01*
X134879400Y-91897200D01*
X134879400Y-91643200D01*
X134899400Y-91643200D01*
X134899400Y-91623200D01*
X135153400Y-91623200D01*
X135153400Y-91643200D01*
X136296315Y-91643200D01*
X136418304Y-91421161D01*
X136257441Y-91032777D01*
X135881534Y-90617811D01*
X135626684Y-90497195D01*
X137192621Y-88931258D01*
X137412862Y-88601645D01*
X137432523Y-88502800D01*
X137490200Y-88212838D01*
X137490200Y-75779275D01*
X138366007Y-75779275D01*
X138380190Y-75850903D01*
X138639342Y-76327944D01*
X139061323Y-76669499D01*
X139581890Y-76823570D01*
X140081000Y-76823570D01*
X140081000Y-75565000D01*
X138488661Y-75565000D01*
X138366007Y-75779275D01*
X137490200Y-75779275D01*
X137490200Y-74013530D01*
X138339378Y-73164353D01*
X138391867Y-73428235D01*
X138692221Y-73877746D01*
X139141732Y-74178100D01*
X139151032Y-74179950D01*
X139061323Y-74206501D01*
X138639342Y-74548056D01*
X138380190Y-75025097D01*
X138366007Y-75096725D01*
X138488661Y-75311000D01*
X140081000Y-75311000D01*
X140081000Y-75291000D01*
X140335000Y-75291000D01*
X140335000Y-75311000D01*
X140355000Y-75311000D01*
X140355000Y-75565000D01*
X140335000Y-75565000D01*
X140335000Y-76823570D01*
X140834110Y-76823570D01*
X141354677Y-76669499D01*
X141356925Y-76667679D01*
X141356925Y-84644273D01*
X140839973Y-85161225D01*
X140462000Y-85086041D01*
X139888511Y-85200115D01*
X139402330Y-85524971D01*
X139077474Y-86011152D01*
X138963400Y-86584641D01*
X138963400Y-86643359D01*
X139077474Y-87216848D01*
X139402330Y-87703029D01*
X139673172Y-87884000D01*
X139402330Y-88064971D01*
X139077474Y-88551152D01*
X138963400Y-89124641D01*
X138963400Y-89183359D01*
X138979960Y-89266613D01*
X138709182Y-89154176D01*
X138304992Y-89153824D01*
X137931434Y-89308175D01*
X137645379Y-89593731D01*
X137490376Y-89967018D01*
X137490024Y-90371208D01*
X137644375Y-90744766D01*
X137929931Y-91030821D01*
X138303218Y-91185824D01*
X138707408Y-91186176D01*
X139009746Y-91061253D01*
X139087163Y-91076652D01*
X139077474Y-91091152D01*
X138963400Y-91664641D01*
X138963400Y-91723359D01*
X139077474Y-92296848D01*
X139402330Y-92783029D01*
X139673172Y-92964000D01*
X139402330Y-93144971D01*
X139077474Y-93631152D01*
X138963400Y-94204641D01*
X138963400Y-94263359D01*
X139077474Y-94836848D01*
X139402330Y-95323029D01*
X139673161Y-95503992D01*
X139255179Y-95885510D01*
X139007032Y-96414973D01*
X139127531Y-96647000D01*
X140335000Y-96647000D01*
X140335000Y-96627000D01*
X140589000Y-96627000D01*
X140589000Y-96647000D01*
X140609000Y-96647000D01*
X140609000Y-96901000D01*
X140589000Y-96901000D01*
X140589000Y-98107817D01*
X140821026Y-98228958D01*
X141236947Y-98056688D01*
X141521027Y-97797391D01*
X141535238Y-97872917D01*
X141674310Y-98089041D01*
X141886510Y-98234031D01*
X142138400Y-98285040D01*
X143865600Y-98285040D01*
X144100917Y-98240762D01*
X144317041Y-98101690D01*
X144462031Y-97889490D01*
X144513040Y-97637600D01*
X144513040Y-95910400D01*
X144468762Y-95675083D01*
X144329690Y-95458959D01*
X144117490Y-95313969D01*
X144073655Y-95305092D01*
X144386526Y-94836848D01*
X144500600Y-94263359D01*
X144500600Y-94204641D01*
X144386526Y-93631152D01*
X144061670Y-93144971D01*
X143790828Y-92964000D01*
X144061670Y-92783029D01*
X144386526Y-92296848D01*
X144500600Y-91723359D01*
X144500600Y-91664641D01*
X144386526Y-91091152D01*
X144061670Y-90604971D01*
X143790828Y-90424000D01*
X144061670Y-90243029D01*
X144386526Y-89756848D01*
X144500600Y-89183359D01*
X144500600Y-89124641D01*
X144386526Y-88551152D01*
X144061670Y-88064971D01*
X143790828Y-87884000D01*
X144061670Y-87703029D01*
X144386526Y-87216848D01*
X144500453Y-86644097D01*
X144578575Y-86833166D01*
X144864131Y-87119221D01*
X145237418Y-87274224D01*
X145641608Y-87274576D01*
X146015166Y-87120225D01*
X146301221Y-86834669D01*
X146456224Y-86461382D01*
X146456350Y-86317252D01*
X147781201Y-84992401D01*
X147945948Y-84745839D01*
X148003800Y-84455000D01*
X148003800Y-81448914D01*
X148104621Y-81348269D01*
X148259624Y-80974982D01*
X148259976Y-80570792D01*
X148105625Y-80197234D01*
X147820069Y-79911179D01*
X147446782Y-79756176D01*
X147042592Y-79755824D01*
X146669034Y-79910175D01*
X146382979Y-80195731D01*
X146227976Y-80569018D01*
X146227624Y-80973208D01*
X146381975Y-81346766D01*
X146483800Y-81448769D01*
X146483800Y-84140198D01*
X145381650Y-85242348D01*
X145239192Y-85242224D01*
X144865634Y-85396575D01*
X144579579Y-85682131D01*
X144424576Y-86055418D01*
X144424449Y-86201801D01*
X144386526Y-86011152D01*
X144227421Y-85773035D01*
X144227421Y-79174094D01*
X144311691Y-79209000D01*
X145002250Y-79209000D01*
X145161000Y-79050250D01*
X145161000Y-77851000D01*
X145415000Y-77851000D01*
X145415000Y-79050250D01*
X145573750Y-79209000D01*
X146264309Y-79209000D01*
X146497698Y-79112327D01*
X146676327Y-78933699D01*
X146773000Y-78700310D01*
X146773000Y-78009750D01*
X146614250Y-77851000D01*
X145415000Y-77851000D01*
X145161000Y-77851000D01*
X145141000Y-77851000D01*
X145141000Y-77597000D01*
X145161000Y-77597000D01*
X145161000Y-77577000D01*
X145415000Y-77577000D01*
X145415000Y-77597000D01*
X146614250Y-77597000D01*
X146773000Y-77438250D01*
X146773000Y-76747690D01*
X146676327Y-76514301D01*
X146497698Y-76335673D01*
X146323223Y-76263403D01*
X146367147Y-76234054D01*
X146689054Y-75752285D01*
X146802093Y-75184000D01*
X146689054Y-74615715D01*
X146367147Y-74133946D01*
X146037974Y-73914000D01*
X146367147Y-73694054D01*
X146689054Y-73212285D01*
X146802093Y-72644000D01*
X146689054Y-72075715D01*
X146367147Y-71593946D01*
X146037974Y-71374000D01*
X146367147Y-71154054D01*
X146689054Y-70672285D01*
X146802093Y-70104000D01*
X146689054Y-69535715D01*
X146367147Y-69053946D01*
X146037974Y-68834000D01*
X146367147Y-68614054D01*
X146689054Y-68132285D01*
X146802093Y-67564000D01*
X146689054Y-66995715D01*
X146367147Y-66513946D01*
X146037974Y-66294000D01*
X146367147Y-66074054D01*
X146689054Y-65592285D01*
X146802093Y-65024000D01*
X146689054Y-64455715D01*
X146367147Y-63973946D01*
X145885378Y-63652039D01*
X145317093Y-63539000D01*
X145258907Y-63539000D01*
X144690622Y-63652039D01*
X144227421Y-63961539D01*
X144227421Y-62390530D01*
X144421621Y-62196669D01*
X144576624Y-61823382D01*
X144576976Y-61419192D01*
X144422625Y-61045634D01*
X144137069Y-60759579D01*
X143774156Y-60608884D01*
X143803246Y-60579844D01*
X143958249Y-60206557D01*
X143958601Y-59802367D01*
X143804250Y-59428809D01*
X143518694Y-59142754D01*
X143145407Y-58987751D01*
X142906223Y-58987543D01*
X142977746Y-58916144D01*
X143132749Y-58542857D01*
X143133101Y-58138667D01*
X142978750Y-57765109D01*
X142693194Y-57479054D01*
X142319907Y-57324051D01*
X141915717Y-57323699D01*
X141542159Y-57478050D01*
X141256104Y-57763606D01*
X141101101Y-58136893D01*
X141100749Y-58541083D01*
X141255100Y-58914641D01*
X141356925Y-59016644D01*
X141356925Y-69133130D01*
X141274268Y-69077900D01*
X140744033Y-68972430D01*
X139671967Y-68972430D01*
X139141732Y-69077900D01*
X138692221Y-69378254D01*
X138391867Y-69827765D01*
X138289960Y-70340090D01*
X135755780Y-72874270D01*
X135535538Y-73203883D01*
X135535538Y-73203884D01*
X135458200Y-73592690D01*
X135458200Y-87791997D01*
X131666380Y-91583818D01*
X131446138Y-91913431D01*
X131446138Y-91913432D01*
X131368800Y-92302238D01*
X131368800Y-93902412D01*
X131022685Y-93671146D01*
X130454400Y-93558107D01*
X129886115Y-93671146D01*
X129404346Y-93993053D01*
X129376550Y-94034652D01*
X129367562Y-93986883D01*
X129228490Y-93770759D01*
X129016290Y-93625769D01*
X128764400Y-93574760D01*
X127064400Y-93574760D01*
X126829083Y-93619038D01*
X126612959Y-93758110D01*
X126467969Y-93970310D01*
X126416960Y-94222200D01*
X126175457Y-94222200D01*
X126368641Y-94097890D01*
X126513631Y-93885690D01*
X126564640Y-93633800D01*
X126564640Y-92958138D01*
X126592477Y-92986024D01*
X127119709Y-93204950D01*
X127690587Y-93205448D01*
X128218200Y-92987443D01*
X128622224Y-92584123D01*
X128841150Y-92056891D01*
X128841648Y-91486013D01*
X128623643Y-90958400D01*
X128220323Y-90554376D01*
X127693091Y-90335450D01*
X127122213Y-90334952D01*
X126594600Y-90552957D01*
X126190576Y-90956277D01*
X126157849Y-91035093D01*
X125917200Y-90986360D01*
X123917200Y-90986360D01*
X123681883Y-91030638D01*
X123465759Y-91169710D01*
X123320769Y-91381910D01*
X123318158Y-91394802D01*
X123251464Y-91214413D01*
X122641739Y-90987892D01*
X121991740Y-91011944D01*
X121502936Y-91214413D01*
X121404273Y-91481268D01*
X122377200Y-92454195D01*
X122391343Y-92440053D01*
X122570948Y-92619658D01*
X122556805Y-92633800D01*
X122570948Y-92647943D01*
X122391343Y-92827548D01*
X122377200Y-92813405D01*
X121404273Y-93786332D01*
X121485211Y-94005246D01*
X121412000Y-93990420D01*
X119380000Y-93990420D01*
X119144683Y-94034698D01*
X118928559Y-94173770D01*
X118783569Y-94385970D01*
X118732560Y-94637860D01*
X114647576Y-94637860D01*
X114469010Y-94205697D01*
X114076370Y-93812371D01*
X113563100Y-93599243D01*
X113007339Y-93598758D01*
X112493697Y-93810990D01*
X112100371Y-94203630D01*
X111887243Y-94716900D01*
X111886758Y-95272661D01*
X101726759Y-95272661D01*
X101727242Y-94719339D01*
X101515010Y-94205697D01*
X101122370Y-93812371D01*
X100609100Y-93599243D01*
X100053339Y-93598758D01*
X99539697Y-93810990D01*
X99146371Y-94203630D01*
X99008000Y-94536865D01*
X99008000Y-92369261D01*
X120731292Y-92369261D01*
X120755344Y-93019260D01*
X120957813Y-93508064D01*
X121224668Y-93606727D01*
X122197595Y-92633800D01*
X121224668Y-91660873D01*
X120957813Y-91759536D01*
X120731292Y-92369261D01*
X99008000Y-92369261D01*
X99008000Y-85162963D01*
X100964714Y-85162963D01*
X101215534Y-85769995D01*
X101551132Y-86106179D01*
X101217166Y-86439563D01*
X100965287Y-87046155D01*
X100964714Y-87702963D01*
X101215534Y-88309995D01*
X101679563Y-88774834D01*
X102286155Y-89026713D01*
X102942963Y-89027286D01*
X103549995Y-88776466D01*
X104014834Y-88312437D01*
X104194804Y-87879021D01*
X129539560Y-87879021D01*
X129925437Y-88812915D01*
X130639327Y-89528052D01*
X131572546Y-89915559D01*
X132583021Y-89916440D01*
X133516915Y-89530563D01*
X134232052Y-88816673D01*
X134619559Y-87883454D01*
X134620440Y-86872979D01*
X134234563Y-85939085D01*
X133520673Y-85223948D01*
X132587454Y-84836441D01*
X131576979Y-84835560D01*
X130643085Y-85221437D01*
X129927948Y-85935327D01*
X129540441Y-86868546D01*
X129539560Y-87879021D01*
X104194804Y-87879021D01*
X104266713Y-87705845D01*
X104267286Y-87049037D01*
X104016466Y-86442005D01*
X103680868Y-86105821D01*
X104014834Y-85772437D01*
X104266713Y-85165845D01*
X104267286Y-84509037D01*
X104016466Y-83902005D01*
X103593634Y-83478435D01*
X103600502Y-83460107D01*
X102616000Y-82475605D01*
X101631498Y-83460107D01*
X101638547Y-83478917D01*
X101217166Y-83899563D01*
X100965287Y-84506155D01*
X100964714Y-85162963D01*
X99008000Y-85162963D01*
X99008000Y-82027642D01*
X100954184Y-82027642D01*
X100977986Y-82684019D01*
X101183378Y-83179880D01*
X101451893Y-83280502D01*
X102436395Y-82296000D01*
X102795605Y-82296000D01*
X103780107Y-83280502D01*
X104048622Y-83179880D01*
X104277816Y-82564358D01*
X104254014Y-81907981D01*
X104048622Y-81412120D01*
X103780107Y-81311498D01*
X102795605Y-82296000D01*
X102436395Y-82296000D01*
X101451893Y-81311498D01*
X101183378Y-81412120D01*
X100954184Y-82027642D01*
X99008000Y-82027642D01*
X99008000Y-67382963D01*
X100964714Y-67382963D01*
X101215534Y-67989995D01*
X101551132Y-68326179D01*
X101217166Y-68659563D01*
X100965287Y-69266155D01*
X100964714Y-69922963D01*
X101215534Y-70529995D01*
X101551132Y-70866179D01*
X101217166Y-71199563D01*
X100965287Y-71806155D01*
X100964714Y-72462963D01*
X101215534Y-73069995D01*
X101551132Y-73406179D01*
X101217166Y-73739563D01*
X100965287Y-74346155D01*
X100964714Y-75002963D01*
X101215534Y-75609995D01*
X101551132Y-75946179D01*
X101217166Y-76279563D01*
X100965287Y-76886155D01*
X100964714Y-77542963D01*
X101215534Y-78149995D01*
X101551132Y-78486179D01*
X101217166Y-78819563D01*
X100965287Y-79426155D01*
X100964714Y-80082963D01*
X101215534Y-80689995D01*
X101638366Y-81113565D01*
X101631498Y-81131893D01*
X102616000Y-82116395D01*
X103600502Y-81131893D01*
X103593453Y-81113083D01*
X104014834Y-80692437D01*
X104266713Y-80085845D01*
X104267286Y-79429037D01*
X104016466Y-78822005D01*
X103680868Y-78485821D01*
X104014834Y-78152437D01*
X104266713Y-77545845D01*
X104267286Y-76889037D01*
X104016466Y-76282005D01*
X103680868Y-75945821D01*
X104014834Y-75612437D01*
X104266713Y-75005845D01*
X104267286Y-74349037D01*
X104016466Y-73742005D01*
X103680868Y-73405821D01*
X104014834Y-73072437D01*
X104266713Y-72465845D01*
X104267286Y-71809037D01*
X104016466Y-71202005D01*
X103680868Y-70865821D01*
X104014834Y-70532437D01*
X104266713Y-69925845D01*
X104267286Y-69269037D01*
X104016466Y-68662005D01*
X103680868Y-68325821D01*
X104014834Y-67992437D01*
X104194804Y-67559021D01*
X129539560Y-67559021D01*
X129925437Y-68492915D01*
X130639327Y-69208052D01*
X131572546Y-69595559D01*
X132583021Y-69596440D01*
X133516915Y-69210563D01*
X134232052Y-68496673D01*
X134619559Y-67563454D01*
X134620440Y-66552979D01*
X134234563Y-65619085D01*
X133520673Y-64903948D01*
X132587454Y-64516441D01*
X131576979Y-64515560D01*
X130643085Y-64901437D01*
X129927948Y-65615327D01*
X129540441Y-66548546D01*
X129539560Y-67559021D01*
X104194804Y-67559021D01*
X104266713Y-67385845D01*
X104267286Y-66729037D01*
X104016466Y-66122005D01*
X103552437Y-65657166D01*
X102945845Y-65405287D01*
X102289037Y-65404714D01*
X101682005Y-65655534D01*
X101217166Y-66119563D01*
X100965287Y-66726155D01*
X100964714Y-67382963D01*
X99008000Y-67382963D01*
X99008000Y-57435777D01*
X111899192Y-57435777D01*
X111968657Y-57677961D01*
X112492102Y-57864708D01*
X113047168Y-57836926D01*
X113430943Y-57677961D01*
X113500408Y-57435777D01*
X112699800Y-56635169D01*
X111899192Y-57435777D01*
X99008000Y-57435777D01*
X99008000Y-54019078D01*
X99948406Y-54019078D01*
X100469340Y-55279835D01*
X101433092Y-56245270D01*
X102692937Y-56768403D01*
X104057078Y-56769594D01*
X105317835Y-56248660D01*
X105318630Y-56247866D01*
X111290656Y-56247866D01*
X111318438Y-56802932D01*
X111477403Y-57186707D01*
X111719587Y-57256172D01*
X112520195Y-56455564D01*
X112879405Y-56455564D01*
X113680013Y-57256172D01*
X113922197Y-57186707D01*
X114108944Y-56663262D01*
X114081162Y-56108196D01*
X113922197Y-55724421D01*
X113680013Y-55654956D01*
X112879405Y-56455564D01*
X112520195Y-56455564D01*
X111719587Y-55654956D01*
X111477403Y-55724421D01*
X111290656Y-56247866D01*
X105318630Y-56247866D01*
X106283270Y-55284908D01*
X106806403Y-54025063D01*
X106807594Y-52660922D01*
X106286660Y-51400165D01*
X105322908Y-50434730D01*
X104063063Y-49911597D01*
X102698922Y-49910406D01*
X101438165Y-50431340D01*
X100472730Y-51395092D01*
X99949597Y-52654937D01*
X99948406Y-54019078D01*
X99008000Y-54019078D01*
X99008000Y-44064475D01*
X106218331Y-44064475D01*
X106280169Y-44300242D01*
X106781122Y-44476619D01*
X107311440Y-44447864D01*
X107667831Y-44300242D01*
X107729669Y-44064475D01*
X106974000Y-43308805D01*
X106218331Y-44064475D01*
X99008000Y-44064475D01*
X99008000Y-42936322D01*
X105626581Y-42936322D01*
X105655336Y-43466640D01*
X105802958Y-43823031D01*
X106038725Y-43884869D01*
X106794395Y-43129200D01*
X106038725Y-42373531D01*
X105802958Y-42435369D01*
X105626581Y-42936322D01*
X99008000Y-42936322D01*
X99008000Y-41575275D01*
X106178331Y-41575275D01*
X106240169Y-41811042D01*
X106453774Y-41886249D01*
X106280169Y-41958158D01*
X106218331Y-42193925D01*
X106974000Y-42949595D01*
X107729669Y-42193925D01*
X107667831Y-41958158D01*
X107454226Y-41882951D01*
X107627831Y-41811042D01*
X107689669Y-41575275D01*
X106934000Y-40819605D01*
X106178331Y-41575275D01*
X99008000Y-41575275D01*
X99008000Y-39576757D01*
X99199340Y-40039835D01*
X100163092Y-41005270D01*
X101422937Y-41528403D01*
X102787078Y-41529594D01*
X104047835Y-41008660D01*
X104610353Y-40447122D01*
X105586581Y-40447122D01*
X105615336Y-40977440D01*
X105762958Y-41333831D01*
X105998725Y-41395669D01*
X106754395Y-40640000D01*
X107113605Y-40640000D01*
X107869275Y-41395669D01*
X108105042Y-41333831D01*
X108183793Y-41110158D01*
X108301582Y-41395229D01*
X108676796Y-41771098D01*
X108970156Y-41892912D01*
X108718771Y-41996782D01*
X108342902Y-42371996D01*
X108230709Y-42642187D01*
X108145042Y-42435369D01*
X107909275Y-42373531D01*
X107153605Y-43129200D01*
X107909275Y-43884869D01*
X108145042Y-43823031D01*
X108223793Y-43599358D01*
X108341582Y-43884429D01*
X108716796Y-44260298D01*
X109207287Y-44463968D01*
X109738383Y-44464431D01*
X110229229Y-44261618D01*
X110605098Y-43886404D01*
X110808768Y-43395913D01*
X110809231Y-42864817D01*
X110606418Y-42373971D01*
X110231204Y-41998102D01*
X109937844Y-41876288D01*
X110189229Y-41772418D01*
X110565098Y-41397204D01*
X110768768Y-40906713D01*
X110769231Y-40375617D01*
X110566418Y-39884771D01*
X110191204Y-39508902D01*
X109863755Y-39372933D01*
X110203829Y-39232418D01*
X110579698Y-38857204D01*
X110631578Y-38732261D01*
X111302558Y-38732261D01*
X111514790Y-39245903D01*
X111724140Y-39455619D01*
X111516171Y-39663226D01*
X111303043Y-40176496D01*
X111302558Y-40732257D01*
X111514790Y-41245899D01*
X111724140Y-41455615D01*
X111516171Y-41663222D01*
X111303043Y-42176492D01*
X111302558Y-42732253D01*
X111514790Y-43245895D01*
X111724140Y-43455611D01*
X111516171Y-43663218D01*
X111303043Y-44176488D01*
X111302558Y-44732249D01*
X111514790Y-45245891D01*
X111724140Y-45455607D01*
X111516171Y-45663214D01*
X111303043Y-46176484D01*
X111302558Y-46732245D01*
X111514790Y-47245887D01*
X111724140Y-47455603D01*
X111516171Y-47663210D01*
X111303043Y-48176480D01*
X111302558Y-48732241D01*
X111514790Y-49245883D01*
X111724902Y-49456363D01*
X111516171Y-49664730D01*
X111303043Y-50178000D01*
X111302558Y-50733761D01*
X111514790Y-51247403D01*
X111723632Y-51456610D01*
X111516171Y-51663710D01*
X111303043Y-52176980D01*
X111302558Y-52732741D01*
X111514790Y-53246383D01*
X111724902Y-53456863D01*
X111516171Y-53665230D01*
X111303043Y-54178500D01*
X111302558Y-54734261D01*
X111514790Y-55247903D01*
X111907430Y-55641229D01*
X112177009Y-55753168D01*
X112699800Y-56275959D01*
X113222633Y-55753126D01*
X113490103Y-55642610D01*
X113883429Y-55249970D01*
X114096557Y-54736700D01*
X114097042Y-54180939D01*
X113884810Y-53667297D01*
X113674698Y-53456817D01*
X113883429Y-53248450D01*
X114096557Y-52735180D01*
X114096559Y-52732741D01*
X133298958Y-52732741D01*
X133511190Y-53246383D01*
X133721302Y-53456863D01*
X133512571Y-53665230D01*
X133299443Y-54178500D01*
X133298958Y-54734261D01*
X133511190Y-55247903D01*
X133719524Y-55456601D01*
X133512571Y-55663194D01*
X133299443Y-56176464D01*
X133298958Y-56732225D01*
X133511190Y-57245867D01*
X133903830Y-57639193D01*
X134417100Y-57852321D01*
X134972861Y-57852806D01*
X135486503Y-57640574D01*
X135879829Y-57247934D01*
X136092957Y-56734664D01*
X136093442Y-56178903D01*
X135881210Y-55665261D01*
X135672876Y-55456563D01*
X135879829Y-55249970D01*
X136092957Y-54736700D01*
X136093442Y-54180939D01*
X135881210Y-53667297D01*
X135671098Y-53456817D01*
X135879829Y-53248450D01*
X136092957Y-52735180D01*
X136093442Y-52179419D01*
X135881210Y-51665777D01*
X135488570Y-51272451D01*
X135223335Y-51162316D01*
X134696200Y-50635181D01*
X134169039Y-51162342D01*
X133905897Y-51271070D01*
X133512571Y-51663710D01*
X133299443Y-52176980D01*
X133298958Y-52732741D01*
X114096559Y-52732741D01*
X114097042Y-52179419D01*
X113884810Y-51665777D01*
X113675968Y-51456570D01*
X113883429Y-51249470D01*
X114096557Y-50736200D01*
X114096591Y-50696408D01*
X124282024Y-50696408D01*
X124436375Y-51069966D01*
X124721931Y-51356021D01*
X125095218Y-51511024D01*
X125499408Y-51511376D01*
X125872966Y-51357025D01*
X126159021Y-51071469D01*
X126314024Y-50698182D01*
X126314150Y-50554052D01*
X126620324Y-50247878D01*
X133287056Y-50247878D01*
X133314838Y-50802944D01*
X133473803Y-51186719D01*
X133715987Y-51256184D01*
X134516595Y-50455576D01*
X134875805Y-50455576D01*
X135676413Y-51256184D01*
X135918597Y-51186719D01*
X136105344Y-50663274D01*
X136082611Y-50209078D01*
X140588406Y-50209078D01*
X141109340Y-51469835D01*
X142073092Y-52435270D01*
X143332937Y-52958403D01*
X144697078Y-52959594D01*
X145957835Y-52438660D01*
X146923270Y-51474908D01*
X147446403Y-50215063D01*
X147447594Y-48850922D01*
X146926660Y-47590165D01*
X145962908Y-46624730D01*
X144703063Y-46101597D01*
X143338922Y-46100406D01*
X142078165Y-46621340D01*
X141112730Y-47585092D01*
X140589597Y-48844937D01*
X140588406Y-50209078D01*
X136082611Y-50209078D01*
X136077562Y-50108208D01*
X135918597Y-49724433D01*
X135676413Y-49654968D01*
X134875805Y-50455576D01*
X134516595Y-50455576D01*
X133715987Y-49654968D01*
X133473803Y-49724433D01*
X133287056Y-50247878D01*
X126620324Y-50247878D01*
X128604201Y-48264001D01*
X128768948Y-48017440D01*
X128826800Y-47726600D01*
X128768948Y-47435761D01*
X128604201Y-47189199D01*
X128572800Y-47168218D01*
X128572800Y-45075937D01*
X128775221Y-44873869D01*
X128930224Y-44500582D01*
X128930576Y-44096392D01*
X128776225Y-43722834D01*
X128490669Y-43436779D01*
X128117382Y-43281776D01*
X127713192Y-43281424D01*
X127339634Y-43435775D01*
X127053579Y-43721331D01*
X126898576Y-44094618D01*
X126898224Y-44498808D01*
X127052575Y-44872366D01*
X127052800Y-44872591D01*
X127052800Y-47665798D01*
X125239450Y-49479148D01*
X125096992Y-49479024D01*
X124723434Y-49633375D01*
X124437379Y-49918931D01*
X124282376Y-50292218D01*
X124282024Y-50696408D01*
X114096591Y-50696408D01*
X114097042Y-50180439D01*
X113884810Y-49666797D01*
X113674698Y-49456317D01*
X113883429Y-49247950D01*
X114096557Y-48734680D01*
X114097042Y-48178919D01*
X113884810Y-47665277D01*
X113675460Y-47455561D01*
X113883429Y-47247954D01*
X114096557Y-46734684D01*
X114097042Y-46178923D01*
X113884810Y-45665281D01*
X113675460Y-45455565D01*
X113883429Y-45247958D01*
X114096557Y-44734688D01*
X114097042Y-44178927D01*
X113884810Y-43665285D01*
X113675460Y-43455569D01*
X113883429Y-43247962D01*
X114096557Y-42734692D01*
X114097042Y-42178931D01*
X113884810Y-41665289D01*
X113675460Y-41455573D01*
X113883429Y-41247966D01*
X114096557Y-40734696D01*
X114097042Y-40178935D01*
X113884810Y-39665293D01*
X113675460Y-39455577D01*
X113883429Y-39247970D01*
X114096557Y-38734700D01*
X114096559Y-38732261D01*
X133298958Y-38732261D01*
X133511190Y-39245903D01*
X133720540Y-39455619D01*
X133512571Y-39663226D01*
X133299443Y-40176496D01*
X133298958Y-40732257D01*
X133511190Y-41245899D01*
X133720540Y-41455615D01*
X133512571Y-41663222D01*
X133299443Y-42176492D01*
X133298958Y-42732253D01*
X133511190Y-43245895D01*
X133720540Y-43455611D01*
X133512571Y-43663218D01*
X133299443Y-44176488D01*
X133298958Y-44732249D01*
X133511190Y-45245891D01*
X133720540Y-45455607D01*
X133512571Y-45663214D01*
X133299443Y-46176484D01*
X133298958Y-46732245D01*
X133511190Y-47245887D01*
X133720540Y-47455603D01*
X133512571Y-47663210D01*
X133299443Y-48176480D01*
X133298958Y-48732241D01*
X133511190Y-49245883D01*
X133903830Y-49639209D01*
X134169934Y-49749705D01*
X134696200Y-50275971D01*
X135222496Y-49749675D01*
X135486503Y-49640590D01*
X135879829Y-49247950D01*
X136092957Y-48734680D01*
X136093442Y-48178919D01*
X135881210Y-47665277D01*
X135671860Y-47455561D01*
X135879829Y-47247954D01*
X136092957Y-46734684D01*
X136093442Y-46178923D01*
X135881210Y-45665281D01*
X135671860Y-45455565D01*
X135879829Y-45247958D01*
X136092957Y-44734688D01*
X136093442Y-44178927D01*
X135881210Y-43665285D01*
X135671860Y-43455569D01*
X135879829Y-43247962D01*
X136092957Y-42734692D01*
X136093442Y-42178931D01*
X135881210Y-41665289D01*
X135671860Y-41455573D01*
X135879829Y-41247966D01*
X136092957Y-40734696D01*
X136093442Y-40178935D01*
X135881210Y-39665293D01*
X135671860Y-39455577D01*
X135879829Y-39247970D01*
X136092957Y-38734700D01*
X136093442Y-38178939D01*
X135881210Y-37665297D01*
X135488570Y-37271971D01*
X134975300Y-37058843D01*
X134419539Y-37058358D01*
X133905897Y-37270590D01*
X133512571Y-37663230D01*
X133299443Y-38176500D01*
X133298958Y-38732261D01*
X114096559Y-38732261D01*
X114097042Y-38178939D01*
X113884810Y-37665297D01*
X113492170Y-37271971D01*
X112978900Y-37058843D01*
X112423139Y-37058358D01*
X111909497Y-37270590D01*
X111516171Y-37663230D01*
X111303043Y-38176500D01*
X111302558Y-38732261D01*
X110631578Y-38732261D01*
X110783368Y-38366713D01*
X110783831Y-37835617D01*
X110581018Y-37344771D01*
X110205804Y-36968902D01*
X109715313Y-36765232D01*
X109184217Y-36764769D01*
X108693371Y-36967582D01*
X108317502Y-37342796D01*
X108205309Y-37612987D01*
X108119642Y-37406169D01*
X107883875Y-37344331D01*
X107128205Y-38100000D01*
X107883875Y-38855669D01*
X108119642Y-38793831D01*
X108198393Y-38570158D01*
X108316182Y-38855229D01*
X108691396Y-39231098D01*
X109018845Y-39367067D01*
X108678771Y-39507582D01*
X108302902Y-39882796D01*
X108190709Y-40152987D01*
X108105042Y-39946169D01*
X107869275Y-39884331D01*
X107113605Y-40640000D01*
X106754395Y-40640000D01*
X105998725Y-39884331D01*
X105762958Y-39946169D01*
X105586581Y-40447122D01*
X104610353Y-40447122D01*
X105013270Y-40044908D01*
X105154526Y-39704725D01*
X106178331Y-39704725D01*
X106934000Y-40460395D01*
X107689669Y-39704725D01*
X107627831Y-39468958D01*
X107377447Y-39380802D01*
X107642431Y-39271042D01*
X107704269Y-39035275D01*
X106948600Y-38279605D01*
X106192931Y-39035275D01*
X106254769Y-39271042D01*
X106505153Y-39359198D01*
X106240169Y-39468958D01*
X106178331Y-39704725D01*
X105154526Y-39704725D01*
X105536403Y-38785063D01*
X105537169Y-37907122D01*
X105601181Y-37907122D01*
X105629936Y-38437440D01*
X105777558Y-38793831D01*
X106013325Y-38855669D01*
X106768995Y-38100000D01*
X106013325Y-37344331D01*
X105777558Y-37406169D01*
X105601181Y-37907122D01*
X105537169Y-37907122D01*
X105537594Y-37420922D01*
X105431736Y-37164725D01*
X106192931Y-37164725D01*
X106948600Y-37920395D01*
X107704269Y-37164725D01*
X107642431Y-36928958D01*
X107141478Y-36752581D01*
X106611160Y-36781336D01*
X106254769Y-36928958D01*
X106192931Y-37164725D01*
X105431736Y-37164725D01*
X105016660Y-36160165D01*
X104052908Y-35194730D01*
X103583946Y-35000000D01*
X143811243Y-35000000D01*
X143348165Y-35191340D01*
M02*
