G04 #@! TF.FileFunction,Legend,Top*
%FSLAX46Y46*%
G04 Gerber Fmt 4.6, Leading zero omitted, Abs format (unit mm)*
G04 Created by KiCad (PCBNEW 4.0.6) date Thursday, August 03, 2017 'PMt' 09:26:43 PM*
%MOMM*%
%LPD*%
G01*
G04 APERTURE LIST*
%ADD10C,0.100000*%
%ADD11C,0.150000*%
%ADD12C,0.127000*%
%ADD13C,0.200000*%
%ADD14C,0.120000*%
%ADD15C,0.010000*%
%ADD16C,0.073800*%
G04 APERTURE END LIST*
D10*
D11*
X135809219Y-104055362D02*
X135809219Y-103063362D01*
X136187124Y-103063362D01*
X136281600Y-103110600D01*
X136328839Y-103157838D01*
X136376077Y-103252314D01*
X136376077Y-103394029D01*
X136328839Y-103488505D01*
X136281600Y-103535743D01*
X136187124Y-103582981D01*
X135809219Y-103582981D01*
X136942934Y-104055362D02*
X136848458Y-104008124D01*
X136801219Y-103960886D01*
X136753981Y-103866410D01*
X136753981Y-103582981D01*
X136801219Y-103488505D01*
X136848458Y-103441267D01*
X136942934Y-103394029D01*
X137084648Y-103394029D01*
X137179124Y-103441267D01*
X137226362Y-103488505D01*
X137273600Y-103582981D01*
X137273600Y-103866410D01*
X137226362Y-103960886D01*
X137179124Y-104008124D01*
X137084648Y-104055362D01*
X136942934Y-104055362D01*
X137604267Y-103394029D02*
X137793220Y-104055362D01*
X137982172Y-103582981D01*
X138171124Y-104055362D01*
X138360077Y-103394029D01*
X139115886Y-104008124D02*
X139021410Y-104055362D01*
X138832458Y-104055362D01*
X138737981Y-104008124D01*
X138690743Y-103913648D01*
X138690743Y-103535743D01*
X138737981Y-103441267D01*
X138832458Y-103394029D01*
X139021410Y-103394029D01*
X139115886Y-103441267D01*
X139163124Y-103535743D01*
X139163124Y-103630219D01*
X138690743Y-103724695D01*
X139588267Y-104055362D02*
X139588267Y-103394029D01*
X139588267Y-103582981D02*
X139635506Y-103488505D01*
X139682744Y-103441267D01*
X139777220Y-103394029D01*
X139871696Y-103394029D01*
X135745485Y-108452657D02*
X136501295Y-108452657D01*
X136123390Y-108830562D02*
X136123390Y-108074752D01*
X139241105Y-108452657D02*
X139996915Y-108452657D01*
D12*
X128979991Y-95442314D02*
X128810657Y-95442314D01*
X128810657Y-95708410D02*
X128810657Y-95200410D01*
X129052562Y-95200410D01*
X129173515Y-95200410D02*
X129463801Y-95200410D01*
X129318658Y-95708410D02*
X129318658Y-95200410D01*
X129633134Y-95708410D02*
X129633134Y-95200410D01*
X129754087Y-95200410D01*
X129826658Y-95224600D01*
X129875039Y-95272981D01*
X129899230Y-95321362D01*
X129923420Y-95418124D01*
X129923420Y-95490695D01*
X129899230Y-95587457D01*
X129875039Y-95635838D01*
X129826658Y-95684219D01*
X129754087Y-95708410D01*
X129633134Y-95708410D01*
X130141134Y-95708410D02*
X130141134Y-95200410D01*
X130770087Y-95708410D02*
X130770087Y-95200410D01*
X130963611Y-95200410D01*
X131011992Y-95224600D01*
X131036183Y-95248790D01*
X131060373Y-95297171D01*
X131060373Y-95369743D01*
X131036183Y-95418124D01*
X131011992Y-95442314D01*
X130963611Y-95466505D01*
X130770087Y-95466505D01*
X131374849Y-95200410D02*
X131471611Y-95200410D01*
X131519992Y-95224600D01*
X131568373Y-95272981D01*
X131592564Y-95369743D01*
X131592564Y-95539076D01*
X131568373Y-95635838D01*
X131519992Y-95684219D01*
X131471611Y-95708410D01*
X131374849Y-95708410D01*
X131326468Y-95684219D01*
X131278087Y-95635838D01*
X131253897Y-95539076D01*
X131253897Y-95369743D01*
X131278087Y-95272981D01*
X131326468Y-95224600D01*
X131374849Y-95200410D01*
X131761896Y-95200410D02*
X131882849Y-95708410D01*
X131979611Y-95345552D01*
X132076373Y-95708410D01*
X132197325Y-95200410D01*
X128563914Y-46610210D02*
X128563914Y-46102210D01*
X128733248Y-46465067D01*
X128902581Y-46102210D01*
X128902581Y-46610210D01*
X129241247Y-46102210D02*
X129338009Y-46102210D01*
X129386390Y-46126400D01*
X129434771Y-46174781D01*
X129458962Y-46271543D01*
X129458962Y-46440876D01*
X129434771Y-46537638D01*
X129386390Y-46586019D01*
X129338009Y-46610210D01*
X129241247Y-46610210D01*
X129192866Y-46586019D01*
X129144485Y-46537638D01*
X129120295Y-46440876D01*
X129120295Y-46271543D01*
X129144485Y-46174781D01*
X129192866Y-46126400D01*
X129241247Y-46102210D01*
X129652485Y-46586019D02*
X129725056Y-46610210D01*
X129846009Y-46610210D01*
X129894390Y-46586019D01*
X129918580Y-46561829D01*
X129942771Y-46513448D01*
X129942771Y-46465067D01*
X129918580Y-46416686D01*
X129894390Y-46392495D01*
X129846009Y-46368305D01*
X129749247Y-46344114D01*
X129700866Y-46319924D01*
X129676675Y-46295733D01*
X129652485Y-46247352D01*
X129652485Y-46198971D01*
X129676675Y-46150590D01*
X129700866Y-46126400D01*
X129749247Y-46102210D01*
X129870199Y-46102210D01*
X129942771Y-46126400D01*
X130160485Y-46610210D02*
X130160485Y-46102210D01*
X119343714Y-46838810D02*
X119343714Y-46330810D01*
X119513048Y-46693667D01*
X119682381Y-46330810D01*
X119682381Y-46838810D01*
X119900095Y-46814619D02*
X119972666Y-46838810D01*
X120093619Y-46838810D01*
X120142000Y-46814619D01*
X120166190Y-46790429D01*
X120190381Y-46742048D01*
X120190381Y-46693667D01*
X120166190Y-46645286D01*
X120142000Y-46621095D01*
X120093619Y-46596905D01*
X119996857Y-46572714D01*
X119948476Y-46548524D01*
X119924285Y-46524333D01*
X119900095Y-46475952D01*
X119900095Y-46427571D01*
X119924285Y-46379190D01*
X119948476Y-46355000D01*
X119996857Y-46330810D01*
X120117809Y-46330810D01*
X120190381Y-46355000D01*
X120408095Y-46838810D02*
X120408095Y-46330810D01*
X120746762Y-46330810D02*
X120843524Y-46330810D01*
X120891905Y-46355000D01*
X120940286Y-46403381D01*
X120964477Y-46500143D01*
X120964477Y-46669476D01*
X120940286Y-46766238D01*
X120891905Y-46814619D01*
X120843524Y-46838810D01*
X120746762Y-46838810D01*
X120698381Y-46814619D01*
X120650000Y-46766238D01*
X120625810Y-46669476D01*
X120625810Y-46500143D01*
X120650000Y-46403381D01*
X120698381Y-46355000D01*
X120746762Y-46330810D01*
X128392161Y-41327010D02*
X128730828Y-41835010D01*
X128730828Y-41327010D02*
X128392161Y-41835010D01*
X128924352Y-41641486D02*
X129311400Y-41641486D01*
X129480733Y-41327010D02*
X129771019Y-41327010D01*
X129625876Y-41835010D02*
X129625876Y-41327010D01*
X129891971Y-41327010D02*
X130230638Y-41835010D01*
X130230638Y-41327010D02*
X129891971Y-41835010D01*
X119238485Y-41225410D02*
X119577152Y-41733410D01*
X119577152Y-41225410D02*
X119238485Y-41733410D01*
X119770676Y-41539886D02*
X120157724Y-41539886D01*
X120689914Y-41733410D02*
X120520581Y-41491505D01*
X120399628Y-41733410D02*
X120399628Y-41225410D01*
X120593152Y-41225410D01*
X120641533Y-41249600D01*
X120665724Y-41273790D01*
X120689914Y-41322171D01*
X120689914Y-41394743D01*
X120665724Y-41443124D01*
X120641533Y-41467314D01*
X120593152Y-41491505D01*
X120399628Y-41491505D01*
X120859247Y-41225410D02*
X121197914Y-41733410D01*
X121197914Y-41225410D02*
X120859247Y-41733410D01*
X121241457Y-39588319D02*
X121314028Y-39612510D01*
X121434981Y-39612510D01*
X121483362Y-39588319D01*
X121507552Y-39564129D01*
X121531743Y-39515748D01*
X121531743Y-39467367D01*
X121507552Y-39418986D01*
X121483362Y-39394795D01*
X121434981Y-39370605D01*
X121338219Y-39346414D01*
X121289838Y-39322224D01*
X121265647Y-39298033D01*
X121241457Y-39249652D01*
X121241457Y-39201271D01*
X121265647Y-39152890D01*
X121289838Y-39128700D01*
X121338219Y-39104510D01*
X121459171Y-39104510D01*
X121531743Y-39128700D01*
X121942981Y-39588319D02*
X121894600Y-39612510D01*
X121797838Y-39612510D01*
X121749457Y-39588319D01*
X121725267Y-39539938D01*
X121725267Y-39346414D01*
X121749457Y-39298033D01*
X121797838Y-39273843D01*
X121894600Y-39273843D01*
X121942981Y-39298033D01*
X121967172Y-39346414D01*
X121967172Y-39394795D01*
X121725267Y-39443176D01*
X122184886Y-39612510D02*
X122184886Y-39273843D01*
X122184886Y-39370605D02*
X122209077Y-39322224D01*
X122233267Y-39298033D01*
X122281648Y-39273843D01*
X122330029Y-39273843D01*
X122499362Y-39612510D02*
X122499362Y-39273843D01*
X122499362Y-39104510D02*
X122475172Y-39128700D01*
X122499362Y-39152890D01*
X122523553Y-39128700D01*
X122499362Y-39104510D01*
X122499362Y-39152890D01*
X122958982Y-39612510D02*
X122958982Y-39346414D01*
X122934791Y-39298033D01*
X122886410Y-39273843D01*
X122789648Y-39273843D01*
X122741267Y-39298033D01*
X122958982Y-39588319D02*
X122910601Y-39612510D01*
X122789648Y-39612510D01*
X122741267Y-39588319D01*
X122717077Y-39539938D01*
X122717077Y-39491557D01*
X122741267Y-39443176D01*
X122789648Y-39418986D01*
X122910601Y-39418986D01*
X122958982Y-39394795D01*
X123273458Y-39612510D02*
X123225077Y-39588319D01*
X123200886Y-39539938D01*
X123200886Y-39104510D01*
X123854029Y-39418986D02*
X124241077Y-39418986D01*
X124797458Y-39104510D02*
X125087744Y-39104510D01*
X124942601Y-39612510D02*
X124942601Y-39104510D01*
X125329649Y-39612510D02*
X125281268Y-39588319D01*
X125257077Y-39564129D01*
X125232887Y-39515748D01*
X125232887Y-39370605D01*
X125257077Y-39322224D01*
X125281268Y-39298033D01*
X125329649Y-39273843D01*
X125402220Y-39273843D01*
X125450601Y-39298033D01*
X125474792Y-39322224D01*
X125498982Y-39370605D01*
X125498982Y-39515748D01*
X125474792Y-39564129D01*
X125450601Y-39588319D01*
X125402220Y-39612510D01*
X125329649Y-39612510D01*
X125716696Y-39273843D02*
X125716696Y-39781843D01*
X125716696Y-39298033D02*
X125765077Y-39273843D01*
X125861839Y-39273843D01*
X125910220Y-39298033D01*
X125934411Y-39322224D01*
X125958601Y-39370605D01*
X125958601Y-39515748D01*
X125934411Y-39564129D01*
X125910220Y-39588319D01*
X125861839Y-39612510D01*
X125765077Y-39612510D01*
X125716696Y-39588319D01*
X126563363Y-39273843D02*
X126563363Y-39781843D01*
X126563363Y-39298033D02*
X126611744Y-39273843D01*
X126708506Y-39273843D01*
X126756887Y-39298033D01*
X126781078Y-39322224D01*
X126805268Y-39370605D01*
X126805268Y-39515748D01*
X126781078Y-39564129D01*
X126756887Y-39588319D01*
X126708506Y-39612510D01*
X126611744Y-39612510D01*
X126563363Y-39588319D01*
X127240697Y-39612510D02*
X127240697Y-39346414D01*
X127216506Y-39298033D01*
X127168125Y-39273843D01*
X127071363Y-39273843D01*
X127022982Y-39298033D01*
X127240697Y-39588319D02*
X127192316Y-39612510D01*
X127071363Y-39612510D01*
X127022982Y-39588319D01*
X126998792Y-39539938D01*
X126998792Y-39491557D01*
X127022982Y-39443176D01*
X127071363Y-39418986D01*
X127192316Y-39418986D01*
X127240697Y-39394795D01*
X127700316Y-39612510D02*
X127700316Y-39104510D01*
X127700316Y-39588319D02*
X127651935Y-39612510D01*
X127555173Y-39612510D01*
X127506792Y-39588319D01*
X127482601Y-39564129D01*
X127458411Y-39515748D01*
X127458411Y-39370605D01*
X127482601Y-39322224D01*
X127506792Y-39298033D01*
X127555173Y-39273843D01*
X127651935Y-39273843D01*
X127700316Y-39298033D01*
X127918030Y-39588319D02*
X127966411Y-39612510D01*
X128063173Y-39612510D01*
X128111554Y-39588319D01*
X128135744Y-39539938D01*
X128135744Y-39515748D01*
X128111554Y-39467367D01*
X128063173Y-39443176D01*
X127990601Y-39443176D01*
X127942220Y-39418986D01*
X127918030Y-39370605D01*
X127918030Y-39346414D01*
X127942220Y-39298033D01*
X127990601Y-39273843D01*
X128063173Y-39273843D01*
X128111554Y-39298033D01*
X121035838Y-40477319D02*
X121108409Y-40501510D01*
X121229362Y-40501510D01*
X121277743Y-40477319D01*
X121301933Y-40453129D01*
X121326124Y-40404748D01*
X121326124Y-40356367D01*
X121301933Y-40307986D01*
X121277743Y-40283795D01*
X121229362Y-40259605D01*
X121132600Y-40235414D01*
X121084219Y-40211224D01*
X121060028Y-40187033D01*
X121035838Y-40138652D01*
X121035838Y-40090271D01*
X121060028Y-40041890D01*
X121084219Y-40017700D01*
X121132600Y-39993510D01*
X121253552Y-39993510D01*
X121326124Y-40017700D01*
X121543838Y-40501510D02*
X121543838Y-39993510D01*
X121737362Y-39993510D01*
X121785743Y-40017700D01*
X121809934Y-40041890D01*
X121834124Y-40090271D01*
X121834124Y-40162843D01*
X121809934Y-40211224D01*
X121785743Y-40235414D01*
X121737362Y-40259605D01*
X121543838Y-40259605D01*
X122051838Y-40501510D02*
X122051838Y-39993510D01*
X122680791Y-40307986D02*
X123067839Y-40307986D01*
X123866125Y-40235414D02*
X123938696Y-40259605D01*
X123962887Y-40283795D01*
X123987077Y-40332176D01*
X123987077Y-40404748D01*
X123962887Y-40453129D01*
X123938696Y-40477319D01*
X123890315Y-40501510D01*
X123696791Y-40501510D01*
X123696791Y-39993510D01*
X123866125Y-39993510D01*
X123914506Y-40017700D01*
X123938696Y-40041890D01*
X123962887Y-40090271D01*
X123962887Y-40138652D01*
X123938696Y-40187033D01*
X123914506Y-40211224D01*
X123866125Y-40235414D01*
X123696791Y-40235414D01*
X124277363Y-40501510D02*
X124228982Y-40477319D01*
X124204791Y-40453129D01*
X124180601Y-40404748D01*
X124180601Y-40259605D01*
X124204791Y-40211224D01*
X124228982Y-40187033D01*
X124277363Y-40162843D01*
X124349934Y-40162843D01*
X124398315Y-40187033D01*
X124422506Y-40211224D01*
X124446696Y-40259605D01*
X124446696Y-40404748D01*
X124422506Y-40453129D01*
X124398315Y-40477319D01*
X124349934Y-40501510D01*
X124277363Y-40501510D01*
X124591839Y-40162843D02*
X124785363Y-40162843D01*
X124664410Y-39993510D02*
X124664410Y-40428938D01*
X124688601Y-40477319D01*
X124736982Y-40501510D01*
X124785363Y-40501510D01*
X124882125Y-40162843D02*
X125075649Y-40162843D01*
X124954696Y-39993510D02*
X124954696Y-40428938D01*
X124978887Y-40477319D01*
X125027268Y-40501510D01*
X125075649Y-40501510D01*
X125317554Y-40501510D02*
X125269173Y-40477319D01*
X125244982Y-40453129D01*
X125220792Y-40404748D01*
X125220792Y-40259605D01*
X125244982Y-40211224D01*
X125269173Y-40187033D01*
X125317554Y-40162843D01*
X125390125Y-40162843D01*
X125438506Y-40187033D01*
X125462697Y-40211224D01*
X125486887Y-40259605D01*
X125486887Y-40404748D01*
X125462697Y-40453129D01*
X125438506Y-40477319D01*
X125390125Y-40501510D01*
X125317554Y-40501510D01*
X125704601Y-40501510D02*
X125704601Y-40162843D01*
X125704601Y-40211224D02*
X125728792Y-40187033D01*
X125777173Y-40162843D01*
X125849744Y-40162843D01*
X125898125Y-40187033D01*
X125922316Y-40235414D01*
X125922316Y-40501510D01*
X125922316Y-40235414D02*
X125946506Y-40187033D01*
X125994887Y-40162843D01*
X126067459Y-40162843D01*
X126115839Y-40187033D01*
X126140030Y-40235414D01*
X126140030Y-40501510D01*
X126768982Y-40162843D02*
X126768982Y-40670843D01*
X126768982Y-40187033D02*
X126817363Y-40162843D01*
X126914125Y-40162843D01*
X126962506Y-40187033D01*
X126986697Y-40211224D01*
X127010887Y-40259605D01*
X127010887Y-40404748D01*
X126986697Y-40453129D01*
X126962506Y-40477319D01*
X126914125Y-40501510D01*
X126817363Y-40501510D01*
X126768982Y-40477319D01*
X127446316Y-40501510D02*
X127446316Y-40235414D01*
X127422125Y-40187033D01*
X127373744Y-40162843D01*
X127276982Y-40162843D01*
X127228601Y-40187033D01*
X127446316Y-40477319D02*
X127397935Y-40501510D01*
X127276982Y-40501510D01*
X127228601Y-40477319D01*
X127204411Y-40428938D01*
X127204411Y-40380557D01*
X127228601Y-40332176D01*
X127276982Y-40307986D01*
X127397935Y-40307986D01*
X127446316Y-40283795D01*
X127905935Y-40501510D02*
X127905935Y-39993510D01*
X127905935Y-40477319D02*
X127857554Y-40501510D01*
X127760792Y-40501510D01*
X127712411Y-40477319D01*
X127688220Y-40453129D01*
X127664030Y-40404748D01*
X127664030Y-40259605D01*
X127688220Y-40211224D01*
X127712411Y-40187033D01*
X127760792Y-40162843D01*
X127857554Y-40162843D01*
X127905935Y-40187033D01*
X128123649Y-40477319D02*
X128172030Y-40501510D01*
X128268792Y-40501510D01*
X128317173Y-40477319D01*
X128341363Y-40428938D01*
X128341363Y-40404748D01*
X128317173Y-40356367D01*
X128268792Y-40332176D01*
X128196220Y-40332176D01*
X128147839Y-40307986D01*
X128123649Y-40259605D01*
X128123649Y-40235414D01*
X128147839Y-40187033D01*
X128196220Y-40162843D01*
X128268792Y-40162843D01*
X128317173Y-40187033D01*
D11*
X126329123Y-108321162D02*
X125856742Y-108321162D01*
X125809504Y-108793543D01*
X125856742Y-108746305D01*
X125951219Y-108699067D01*
X126187409Y-108699067D01*
X126281885Y-108746305D01*
X126329123Y-108793543D01*
X126376362Y-108888019D01*
X126376362Y-109124210D01*
X126329123Y-109218686D01*
X126281885Y-109265924D01*
X126187409Y-109313162D01*
X125951219Y-109313162D01*
X125856742Y-109265924D01*
X125809504Y-109218686D01*
X127557314Y-108935257D02*
X128313124Y-108935257D01*
X130060934Y-109313162D02*
X129494076Y-109313162D01*
X129777505Y-109313162D02*
X129777505Y-108321162D01*
X129683029Y-108462876D01*
X129588553Y-108557352D01*
X129494076Y-108604590D01*
X130958457Y-108321162D02*
X130486076Y-108321162D01*
X130438838Y-108793543D01*
X130486076Y-108746305D01*
X130580553Y-108699067D01*
X130816743Y-108699067D01*
X130911219Y-108746305D01*
X130958457Y-108793543D01*
X131005696Y-108888019D01*
X131005696Y-109124210D01*
X130958457Y-109218686D01*
X130911219Y-109265924D01*
X130816743Y-109313162D01*
X130580553Y-109313162D01*
X130486076Y-109265924D01*
X130438838Y-109218686D01*
X132044934Y-108321162D02*
X132375601Y-109313162D01*
X132706268Y-108321162D01*
X133036934Y-109313162D02*
X133036934Y-108651829D01*
X133036934Y-108321162D02*
X132989696Y-108368400D01*
X133036934Y-108415638D01*
X133084173Y-108368400D01*
X133036934Y-108321162D01*
X133036934Y-108415638D01*
X133509315Y-108651829D02*
X133509315Y-109313162D01*
X133509315Y-108746305D02*
X133556554Y-108699067D01*
X133651030Y-108651829D01*
X133792744Y-108651829D01*
X133887220Y-108699067D01*
X133934458Y-108793543D01*
X133934458Y-109313162D01*
X102234828Y-59796162D02*
X102234828Y-58804162D01*
X102801686Y-59796162D01*
X102801686Y-58804162D01*
X103274066Y-58804162D02*
X103274066Y-59607210D01*
X103321305Y-59701686D01*
X103368543Y-59748924D01*
X103463019Y-59796162D01*
X103651971Y-59796162D01*
X103746447Y-59748924D01*
X103793686Y-59701686D01*
X103840924Y-59607210D01*
X103840924Y-58804162D01*
X105021876Y-59512733D02*
X105494257Y-59512733D01*
X104927400Y-59796162D02*
X105258067Y-58804162D01*
X105588734Y-59796162D01*
X105919400Y-59796162D02*
X105919400Y-58804162D01*
X106344543Y-59512733D02*
X106816924Y-59512733D01*
X106250067Y-59796162D02*
X106580734Y-58804162D01*
X106911401Y-59796162D01*
X107194829Y-59512733D02*
X107667210Y-59512733D01*
X107100353Y-59796162D02*
X107431020Y-58804162D01*
X107761687Y-59796162D01*
X99353304Y-61434162D02*
X99353304Y-60442162D01*
X99731209Y-60442162D01*
X99825685Y-60489400D01*
X99872924Y-60536638D01*
X99920162Y-60631114D01*
X99920162Y-60772829D01*
X99872924Y-60867305D01*
X99825685Y-60914543D01*
X99731209Y-60961781D01*
X99353304Y-60961781D01*
X100345304Y-61434162D02*
X100345304Y-60772829D01*
X100345304Y-60961781D02*
X100392543Y-60867305D01*
X100439781Y-60820067D01*
X100534257Y-60772829D01*
X100628733Y-60772829D01*
X101101114Y-61434162D02*
X101006638Y-61386924D01*
X100959399Y-61339686D01*
X100912161Y-61245210D01*
X100912161Y-60961781D01*
X100959399Y-60867305D01*
X101006638Y-60820067D01*
X101101114Y-60772829D01*
X101242828Y-60772829D01*
X101337304Y-60820067D01*
X101384542Y-60867305D01*
X101431780Y-60961781D01*
X101431780Y-61245210D01*
X101384542Y-61339686D01*
X101337304Y-61386924D01*
X101242828Y-61434162D01*
X101101114Y-61434162D01*
X101856923Y-60772829D02*
X101856923Y-61623114D01*
X101809685Y-61717590D01*
X101715209Y-61764829D01*
X101667971Y-61764829D01*
X101856923Y-60442162D02*
X101809685Y-60489400D01*
X101856923Y-60536638D01*
X101904162Y-60489400D01*
X101856923Y-60442162D01*
X101856923Y-60536638D01*
X102707209Y-61386924D02*
X102612733Y-61434162D01*
X102423781Y-61434162D01*
X102329304Y-61386924D01*
X102282066Y-61292448D01*
X102282066Y-60914543D01*
X102329304Y-60820067D01*
X102423781Y-60772829D01*
X102612733Y-60772829D01*
X102707209Y-60820067D01*
X102754447Y-60914543D01*
X102754447Y-61009019D01*
X102282066Y-61103495D01*
X103604733Y-61386924D02*
X103510257Y-61434162D01*
X103321305Y-61434162D01*
X103226829Y-61386924D01*
X103179590Y-61339686D01*
X103132352Y-61245210D01*
X103132352Y-60961781D01*
X103179590Y-60867305D01*
X103226829Y-60820067D01*
X103321305Y-60772829D01*
X103510257Y-60772829D01*
X103604733Y-60820067D01*
X103888162Y-60772829D02*
X104266067Y-60772829D01*
X104029876Y-60442162D02*
X104029876Y-61292448D01*
X104077115Y-61386924D01*
X104171591Y-61434162D01*
X104266067Y-61434162D01*
X105352543Y-61434162D02*
X105352543Y-60442162D01*
X105919401Y-61434162D02*
X105494258Y-60867305D01*
X105919401Y-60442162D02*
X105352543Y-61009019D01*
X106769686Y-61434162D02*
X106769686Y-60914543D01*
X106722448Y-60820067D01*
X106627972Y-60772829D01*
X106439020Y-60772829D01*
X106344543Y-60820067D01*
X106769686Y-61386924D02*
X106675210Y-61434162D01*
X106439020Y-61434162D01*
X106344543Y-61386924D01*
X106297305Y-61292448D01*
X106297305Y-61197971D01*
X106344543Y-61103495D01*
X106439020Y-61056257D01*
X106675210Y-61056257D01*
X106769686Y-61009019D01*
X107242067Y-61434162D02*
X107242067Y-60772829D01*
X107242067Y-60961781D02*
X107289306Y-60867305D01*
X107336544Y-60820067D01*
X107431020Y-60772829D01*
X107525496Y-60772829D01*
X107856162Y-61434162D02*
X107856162Y-60772829D01*
X107856162Y-60867305D02*
X107903401Y-60820067D01*
X107997877Y-60772829D01*
X108139591Y-60772829D01*
X108234067Y-60820067D01*
X108281305Y-60914543D01*
X108281305Y-61434162D01*
X108281305Y-60914543D02*
X108328543Y-60820067D01*
X108423020Y-60772829D01*
X108564734Y-60772829D01*
X108659210Y-60820067D01*
X108706448Y-60914543D01*
X108706448Y-61434162D01*
X109603972Y-61434162D02*
X109603972Y-60914543D01*
X109556734Y-60820067D01*
X109462258Y-60772829D01*
X109273306Y-60772829D01*
X109178829Y-60820067D01*
X109603972Y-61386924D02*
X109509496Y-61434162D01*
X109273306Y-61434162D01*
X109178829Y-61386924D01*
X109131591Y-61292448D01*
X109131591Y-61197971D01*
X109178829Y-61103495D01*
X109273306Y-61056257D01*
X109509496Y-61056257D01*
X109603972Y-61009019D01*
X110076353Y-60772829D02*
X110076353Y-61434162D01*
X110076353Y-60867305D02*
X110123592Y-60820067D01*
X110218068Y-60772829D01*
X110359782Y-60772829D01*
X110454258Y-60820067D01*
X110501496Y-60914543D01*
X110501496Y-61434162D01*
X100298066Y-62788733D02*
X100770447Y-62788733D01*
X100203590Y-63072162D02*
X100534257Y-62080162D01*
X100864924Y-63072162D01*
X101620733Y-63072162D02*
X101620733Y-62080162D01*
X101620733Y-63024924D02*
X101526257Y-63072162D01*
X101337305Y-63072162D01*
X101242829Y-63024924D01*
X101195590Y-62977686D01*
X101148352Y-62883210D01*
X101148352Y-62599781D01*
X101195590Y-62505305D01*
X101242829Y-62458067D01*
X101337305Y-62410829D01*
X101526257Y-62410829D01*
X101620733Y-62458067D01*
X102518257Y-63072162D02*
X102518257Y-62552543D01*
X102471019Y-62458067D01*
X102376543Y-62410829D01*
X102187591Y-62410829D01*
X102093114Y-62458067D01*
X102518257Y-63024924D02*
X102423781Y-63072162D01*
X102187591Y-63072162D01*
X102093114Y-63024924D01*
X102045876Y-62930448D01*
X102045876Y-62835971D01*
X102093114Y-62741495D01*
X102187591Y-62694257D01*
X102423781Y-62694257D01*
X102518257Y-62647019D01*
X102990638Y-63072162D02*
X102990638Y-62410829D01*
X102990638Y-62505305D02*
X103037877Y-62458067D01*
X103132353Y-62410829D01*
X103274067Y-62410829D01*
X103368543Y-62458067D01*
X103415781Y-62552543D01*
X103415781Y-63072162D01*
X103415781Y-62552543D02*
X103463019Y-62458067D01*
X103557496Y-62410829D01*
X103699210Y-62410829D01*
X103793686Y-62458067D01*
X103840924Y-62552543D01*
X103840924Y-63072162D01*
X105069115Y-63072162D02*
X105069115Y-62080162D01*
X105447020Y-62080162D01*
X105541496Y-62127400D01*
X105588735Y-62174638D01*
X105635973Y-62269114D01*
X105635973Y-62410829D01*
X105588735Y-62505305D01*
X105541496Y-62552543D01*
X105447020Y-62599781D01*
X105069115Y-62599781D01*
X106202830Y-63072162D02*
X106108354Y-63024924D01*
X106061115Y-62977686D01*
X106013877Y-62883210D01*
X106013877Y-62599781D01*
X106061115Y-62505305D01*
X106108354Y-62458067D01*
X106202830Y-62410829D01*
X106344544Y-62410829D01*
X106439020Y-62458067D01*
X106486258Y-62505305D01*
X106533496Y-62599781D01*
X106533496Y-62883210D01*
X106486258Y-62977686D01*
X106439020Y-63024924D01*
X106344544Y-63072162D01*
X106202830Y-63072162D01*
X106958639Y-63072162D02*
X106958639Y-62410829D01*
X106958639Y-62080162D02*
X106911401Y-62127400D01*
X106958639Y-62174638D01*
X107005878Y-62127400D01*
X106958639Y-62080162D01*
X106958639Y-62174638D01*
X107431020Y-63072162D02*
X107431020Y-62410829D01*
X107431020Y-62599781D02*
X107478259Y-62505305D01*
X107525497Y-62458067D01*
X107619973Y-62410829D01*
X107714449Y-62410829D01*
X108045115Y-63072162D02*
X108045115Y-62410829D01*
X108045115Y-62080162D02*
X107997877Y-62127400D01*
X108045115Y-62174638D01*
X108092354Y-62127400D01*
X108045115Y-62080162D01*
X108045115Y-62174638D01*
X108895401Y-63024924D02*
X108800925Y-63072162D01*
X108611973Y-63072162D01*
X108517496Y-63024924D01*
X108470258Y-62930448D01*
X108470258Y-62552543D01*
X108517496Y-62458067D01*
X108611973Y-62410829D01*
X108800925Y-62410829D01*
X108895401Y-62458067D01*
X108942639Y-62552543D01*
X108942639Y-62647019D01*
X108470258Y-62741495D01*
X109367782Y-63072162D02*
X109367782Y-62410829D01*
X109367782Y-62599781D02*
X109415021Y-62505305D01*
X109462259Y-62458067D01*
X109556735Y-62410829D01*
X109651211Y-62410829D01*
X107095686Y-45686162D02*
X106528828Y-45686162D01*
X106812257Y-45686162D02*
X106812257Y-44694162D01*
X106717781Y-44835876D01*
X106623305Y-44930352D01*
X106528828Y-44977590D01*
X107709781Y-44694162D02*
X107804257Y-44694162D01*
X107898733Y-44741400D01*
X107945971Y-44788638D01*
X107993209Y-44883114D01*
X108040448Y-45072067D01*
X108040448Y-45308257D01*
X107993209Y-45497210D01*
X107945971Y-45591686D01*
X107898733Y-45638924D01*
X107804257Y-45686162D01*
X107709781Y-45686162D01*
X107615305Y-45638924D01*
X107568067Y-45591686D01*
X107520828Y-45497210D01*
X107473590Y-45308257D01*
X107473590Y-45072067D01*
X107520828Y-44883114D01*
X107568067Y-44788638D01*
X107615305Y-44741400D01*
X107709781Y-44694162D01*
X108465590Y-45024829D02*
X108465590Y-46016829D01*
X108937971Y-45544448D02*
X108985210Y-45638924D01*
X109079686Y-45686162D01*
X108465590Y-45544448D02*
X108512829Y-45638924D01*
X108607305Y-45686162D01*
X108796257Y-45686162D01*
X108890733Y-45638924D01*
X108937971Y-45544448D01*
X108937971Y-45024829D01*
X109835495Y-45166543D02*
X109504828Y-45166543D01*
X109504828Y-45686162D02*
X109504828Y-44694162D01*
X109977209Y-44694162D01*
X108037266Y-35703029D02*
X108037266Y-36364362D01*
X107801076Y-35325124D02*
X107564885Y-36033695D01*
X108178981Y-36033695D01*
X108462409Y-35372362D02*
X109123743Y-35372362D01*
X108698600Y-36364362D01*
X109501647Y-35703029D02*
X109501647Y-36695029D01*
X109501647Y-35750267D02*
X109596124Y-35703029D01*
X109785076Y-35703029D01*
X109879552Y-35750267D01*
X109926790Y-35797505D01*
X109974028Y-35891981D01*
X109974028Y-36175410D01*
X109926790Y-36269886D01*
X109879552Y-36317124D01*
X109785076Y-36364362D01*
X109596124Y-36364362D01*
X109501647Y-36317124D01*
X110729838Y-35844743D02*
X110399171Y-35844743D01*
X110399171Y-36364362D02*
X110399171Y-35372362D01*
X110871552Y-35372362D01*
D12*
X144229667Y-62522100D02*
X144169190Y-62491862D01*
X144078476Y-62491862D01*
X143987762Y-62522100D01*
X143927286Y-62582576D01*
X143897047Y-62643052D01*
X143866809Y-62764005D01*
X143866809Y-62854719D01*
X143897047Y-62975671D01*
X143927286Y-63036148D01*
X143987762Y-63096624D01*
X144078476Y-63126862D01*
X144138952Y-63126862D01*
X144229667Y-63096624D01*
X144259905Y-63066386D01*
X144259905Y-62854719D01*
X144138952Y-62854719D01*
X144894905Y-63126862D02*
X144683238Y-62824481D01*
X144532047Y-63126862D02*
X144532047Y-62491862D01*
X144773952Y-62491862D01*
X144834428Y-62522100D01*
X144864667Y-62552338D01*
X144894905Y-62612814D01*
X144894905Y-62703529D01*
X144864667Y-62764005D01*
X144834428Y-62794243D01*
X144773952Y-62824481D01*
X144532047Y-62824481D01*
X145167047Y-62794243D02*
X145378714Y-62794243D01*
X145469428Y-63126862D02*
X145167047Y-63126862D01*
X145167047Y-62491862D01*
X145469428Y-62491862D01*
X145741571Y-62794243D02*
X145953238Y-62794243D01*
X146043952Y-63126862D02*
X145741571Y-63126862D01*
X145741571Y-62491862D01*
X146043952Y-62491862D01*
X146316095Y-63126862D02*
X146316095Y-62491862D01*
X146678953Y-63126862D01*
X146678953Y-62491862D01*
D11*
X144608391Y-79590200D02*
X144513914Y-79542962D01*
X144372200Y-79542962D01*
X144230486Y-79590200D01*
X144136010Y-79684676D01*
X144088771Y-79779152D01*
X144041533Y-79968105D01*
X144041533Y-80109819D01*
X144088771Y-80298771D01*
X144136010Y-80393248D01*
X144230486Y-80487724D01*
X144372200Y-80534962D01*
X144466676Y-80534962D01*
X144608391Y-80487724D01*
X144655629Y-80440486D01*
X144655629Y-80109819D01*
X144466676Y-80109819D01*
X145080771Y-80534962D02*
X145080771Y-79542962D01*
X145647629Y-80534962D01*
X145647629Y-79542962D01*
X146120009Y-80534962D02*
X146120009Y-79542962D01*
X146356200Y-79542962D01*
X146497914Y-79590200D01*
X146592390Y-79684676D01*
X146639629Y-79779152D01*
X146686867Y-79968105D01*
X146686867Y-80109819D01*
X146639629Y-80298771D01*
X146592390Y-80393248D01*
X146497914Y-80487724D01*
X146356200Y-80534962D01*
X146120009Y-80534962D01*
D13*
X149098000Y-57404000D02*
X136398000Y-57404000D01*
X98298000Y-57912000D02*
X110998000Y-57912000D01*
D11*
X120650000Y-30734000D02*
X120650000Y-18034000D01*
X120650000Y-18034000D02*
X126746000Y-18034000D01*
X126746000Y-18034000D02*
X126746000Y-30734000D01*
X111506000Y-37338000D02*
X119126000Y-30734000D01*
X119126000Y-30734000D02*
X128524000Y-30734000D01*
X128524000Y-30734000D02*
X135890000Y-37338000D01*
X111506000Y-63754000D02*
X111506000Y-37338000D01*
X111506000Y-63754000D02*
X135890000Y-63754000D01*
X135890000Y-63754000D02*
X135890000Y-37338000D01*
X110744000Y-83058000D02*
X110744000Y-71120000D01*
X125730000Y-83058000D02*
X110744000Y-83058000D01*
X125730000Y-71120000D02*
X125730000Y-83058000D01*
X110744000Y-71120000D02*
X125730000Y-71120000D01*
X100584000Y-89916000D02*
X134620000Y-89916000D01*
X134620000Y-89916000D02*
X134620000Y-64516000D01*
X134620000Y-64516000D02*
X100584000Y-64516000D01*
X100584000Y-64516000D02*
X100584000Y-89916000D01*
X101092000Y-92202000D02*
X103124000Y-92202000D01*
X112522000Y-92202000D02*
X110236000Y-92202000D01*
X99314000Y-93726000D02*
X101092000Y-92202000D01*
X112522000Y-92202000D02*
X114300000Y-93726000D01*
X114300000Y-99314000D02*
X114300000Y-93726000D01*
X99314000Y-99314000D02*
X99314000Y-93726000D01*
D14*
X105864000Y-42069200D02*
X110584000Y-42069200D01*
X105864000Y-44189200D02*
X110584000Y-44189200D01*
X105864000Y-42069200D02*
X105864000Y-44189200D01*
X110584000Y-42069200D02*
X110584000Y-44189200D01*
X105824000Y-39580000D02*
X110544000Y-39580000D01*
X105824000Y-41700000D02*
X110544000Y-41700000D01*
X105824000Y-39580000D02*
X105824000Y-41700000D01*
X110544000Y-39580000D02*
X110544000Y-41700000D01*
X105838600Y-37040000D02*
X110558600Y-37040000D01*
X105838600Y-39160000D02*
X110558600Y-39160000D01*
X105838600Y-37040000D02*
X105838600Y-39160000D01*
X110558600Y-37040000D02*
X110558600Y-39160000D01*
X133444800Y-100225800D02*
X131324800Y-100225800D01*
X131324800Y-100225800D02*
X131324800Y-104345800D01*
X131324800Y-104345800D02*
X133444800Y-104345800D01*
X133444800Y-104345800D02*
X133444800Y-100225800D01*
X132384800Y-99455800D02*
X132384800Y-100225800D01*
X132384800Y-105115800D02*
X132384800Y-104345800D01*
X133444800Y-100885800D02*
X131324800Y-100885800D01*
X129685600Y-100200400D02*
X127565600Y-100200400D01*
X127565600Y-100200400D02*
X127565600Y-104320400D01*
X127565600Y-104320400D02*
X129685600Y-104320400D01*
X129685600Y-104320400D02*
X129685600Y-100200400D01*
X128625600Y-99430400D02*
X128625600Y-100200400D01*
X128625600Y-105090400D02*
X128625600Y-104320400D01*
X129685600Y-100860400D02*
X127565600Y-100860400D01*
D11*
X115895120Y-105854500D02*
X124896880Y-105854500D01*
X115895120Y-109354620D02*
X124896880Y-109354620D01*
X124896880Y-109354620D02*
X124896880Y-94853760D01*
X124896880Y-94853760D02*
X115895120Y-94853760D01*
X115895120Y-94853760D02*
X115895120Y-109354620D01*
X137182000Y-101854000D02*
X137182000Y-81534000D01*
X137732000Y-101314000D02*
X137732000Y-82094000D01*
X146282000Y-101854000D02*
X146282000Y-81534000D01*
X145732000Y-101314000D02*
X145732000Y-93944000D01*
X145732000Y-89444000D02*
X145732000Y-82094000D01*
X145732000Y-93944000D02*
X146282000Y-93944000D01*
X145732000Y-89444000D02*
X146282000Y-89444000D01*
X137182000Y-101854000D02*
X146282000Y-101854000D01*
X137732000Y-101314000D02*
X145732000Y-101314000D01*
X137182000Y-81534000D02*
X146282000Y-81534000D01*
X137732000Y-82094000D02*
X145732000Y-82094000D01*
X137182000Y-101854000D02*
X137732000Y-101314000D01*
X137182000Y-81534000D02*
X137732000Y-82094000D01*
X146282000Y-101854000D02*
X145732000Y-101314000D01*
X146282000Y-81534000D02*
X145732000Y-82094000D01*
X130175000Y-45847000D02*
X130175000Y-42037000D01*
X130175000Y-42037000D02*
X128397000Y-42037000D01*
X128397000Y-42037000D02*
X128397000Y-45847000D01*
X130175000Y-45847000D02*
X128397000Y-45847000D01*
D14*
X146678000Y-76454000D02*
X146678000Y-63634000D01*
X146678000Y-63634000D02*
X143898000Y-63634000D01*
X143898000Y-63634000D02*
X143898000Y-76454000D01*
X143898000Y-76454000D02*
X146678000Y-76454000D01*
X146678000Y-77724000D02*
X146678000Y-79114000D01*
X146678000Y-79114000D02*
X145288000Y-79114000D01*
D11*
X121031000Y-45847000D02*
X121031000Y-42037000D01*
X121031000Y-42037000D02*
X119253000Y-42037000D01*
X119253000Y-42037000D02*
X119253000Y-45847000D01*
X121031000Y-45847000D02*
X119253000Y-45847000D01*
D14*
X130505200Y-94684200D02*
X133165200Y-94684200D01*
X133165200Y-94684200D02*
X133165200Y-91904200D01*
X133165200Y-91904200D02*
X130505200Y-91904200D01*
X130505200Y-91904200D02*
X130505200Y-94684200D01*
X129235200Y-94684200D02*
X127845200Y-94684200D01*
X127845200Y-94684200D02*
X127845200Y-93294200D01*
D11*
X137160000Y-74422000D02*
X138303000Y-74422000D01*
X137160000Y-71374000D02*
X138303000Y-71374000D01*
X138303000Y-67564000D02*
X141986000Y-67564000D01*
X141986000Y-67564000D02*
X141986000Y-78232000D01*
X141986000Y-78232000D02*
X138303000Y-78232000D01*
X137160000Y-67564000D02*
X138303000Y-67564000D01*
X138303000Y-67564000D02*
X138303000Y-78232000D01*
X138303000Y-78232000D02*
X137160000Y-78232000D01*
X137160000Y-72898000D02*
X137160000Y-78232000D01*
X137160000Y-72898000D02*
X137160000Y-67564000D01*
X104394000Y-106680000D02*
G75*
G03X104394000Y-106680000I-2286000J0D01*
G01*
X105664000Y-53340000D02*
G75*
G03X105664000Y-53340000I-2286000J0D01*
G01*
X147574000Y-106680000D02*
G75*
G03X147574000Y-106680000I-2286000J0D01*
G01*
X146304000Y-49530000D02*
G75*
G03X146304000Y-49530000I-2286000J0D01*
G01*
X147574000Y-38100000D02*
G75*
G03X147574000Y-38100000I-2286000J0D01*
G01*
X104394000Y-38100000D02*
G75*
G03X104394000Y-38100000I-2286000J0D01*
G01*
D15*
G36*
X110824510Y-102925455D02*
X110845693Y-102932323D01*
X110877021Y-102944039D01*
X110916357Y-102959708D01*
X110961563Y-102978434D01*
X111010502Y-102999323D01*
X111061036Y-103021478D01*
X111111029Y-103044003D01*
X111158342Y-103066005D01*
X111189294Y-103080893D01*
X111396140Y-103190798D01*
X111593950Y-103313406D01*
X111782250Y-103448108D01*
X111960571Y-103594297D01*
X112128441Y-103751364D01*
X112285389Y-103918701D01*
X112430944Y-104095699D01*
X112564635Y-104281752D01*
X112685990Y-104476249D01*
X112794538Y-104678584D01*
X112889808Y-104888148D01*
X112971330Y-105104332D01*
X113038631Y-105326529D01*
X113086393Y-105529856D01*
X113126257Y-105765018D01*
X113150366Y-106000666D01*
X113158755Y-106236243D01*
X113151459Y-106471196D01*
X113128511Y-106704969D01*
X113089948Y-106937008D01*
X113035802Y-107166759D01*
X112971266Y-107378554D01*
X112887935Y-107600059D01*
X112790706Y-107814195D01*
X112680000Y-108020453D01*
X112556237Y-108218322D01*
X112419837Y-108407292D01*
X112271219Y-108586853D01*
X112110804Y-108756496D01*
X111939012Y-108915710D01*
X111756261Y-109063985D01*
X111562973Y-109200812D01*
X111375825Y-109316359D01*
X111168846Y-109426611D01*
X110955667Y-109522293D01*
X110736599Y-109603315D01*
X110511952Y-109669587D01*
X110282036Y-109721017D01*
X110047161Y-109757515D01*
X109807638Y-109778991D01*
X109787822Y-109780082D01*
X109728245Y-109783105D01*
X109679582Y-109785208D01*
X109637800Y-109786388D01*
X109598862Y-109786639D01*
X109558733Y-109785957D01*
X109513379Y-109784339D01*
X109458763Y-109781778D01*
X109417643Y-109779672D01*
X109311018Y-109772010D01*
X109196118Y-109760010D01*
X109079677Y-109744501D01*
X108968431Y-109726311D01*
X108938111Y-109720655D01*
X108709399Y-109668699D01*
X108486340Y-109602200D01*
X108269494Y-109521648D01*
X108059422Y-109427537D01*
X107856686Y-109320359D01*
X107661846Y-109200605D01*
X107475464Y-109068768D01*
X107298099Y-108925341D01*
X107130314Y-108770815D01*
X106972668Y-108605682D01*
X106936025Y-108561981D01*
X107152484Y-108561981D01*
X107168894Y-108521155D01*
X107195091Y-108473301D01*
X107231917Y-108429519D01*
X107274872Y-108394809D01*
X107291002Y-108385480D01*
X107317934Y-108373469D01*
X107344257Y-108366926D01*
X107376929Y-108364371D01*
X107391200Y-108364144D01*
X107447060Y-108368589D01*
X107494745Y-108383879D01*
X107539120Y-108411801D01*
X107553579Y-108423841D01*
X107577820Y-108451113D01*
X107600086Y-108486589D01*
X107617666Y-108524824D01*
X107627848Y-108560374D01*
X107629319Y-108575871D01*
X107631192Y-108595007D01*
X107635831Y-108605149D01*
X107637263Y-108605637D01*
X107642938Y-108598598D01*
X107645126Y-108580174D01*
X107644093Y-108554404D01*
X107640106Y-108525330D01*
X107633431Y-108496989D01*
X107629290Y-108484675D01*
X107621243Y-108462347D01*
X107618883Y-108446950D01*
X107624145Y-108435196D01*
X107638962Y-108423801D01*
X107665270Y-108409476D01*
X107677150Y-108403368D01*
X107739515Y-108376044D01*
X107802874Y-108358559D01*
X107872150Y-108349827D01*
X107926981Y-108348343D01*
X107971372Y-108349051D01*
X108005019Y-108351153D01*
X108033040Y-108355365D01*
X108060552Y-108362406D01*
X108085731Y-108370589D01*
X108169584Y-108407164D01*
X108243998Y-108455303D01*
X108308236Y-108513521D01*
X108361559Y-108580333D01*
X108403228Y-108654254D01*
X108432505Y-108733798D01*
X108448652Y-108817480D01*
X108450930Y-108903816D01*
X108438600Y-108991320D01*
X108422500Y-109047839D01*
X108389360Y-109121959D01*
X108343239Y-109192599D01*
X108286976Y-109256300D01*
X108223412Y-109309598D01*
X108190093Y-109331082D01*
X108165544Y-109346050D01*
X108148016Y-109358054D01*
X108140560Y-109364965D01*
X108140611Y-109365631D01*
X108151191Y-109365801D01*
X108171485Y-109357831D01*
X108198770Y-109343446D01*
X108230321Y-109324369D01*
X108263416Y-109302327D01*
X108295330Y-109279043D01*
X108323340Y-109256242D01*
X108343099Y-109237411D01*
X108358422Y-109224419D01*
X108376621Y-109218305D01*
X108402947Y-109216825D01*
X108452470Y-109221343D01*
X108505089Y-109233569D01*
X108553198Y-109251503D01*
X108571798Y-109261167D01*
X108616519Y-109293870D01*
X108658062Y-109336250D01*
X108693725Y-109384530D01*
X108720806Y-109434933D01*
X108736603Y-109483684D01*
X108738307Y-109493897D01*
X108743319Y-109520177D01*
X108748529Y-109531373D01*
X108752908Y-109528229D01*
X108755425Y-109511490D01*
X108755051Y-109481898D01*
X108755046Y-109481805D01*
X108743529Y-109418722D01*
X108717832Y-109358413D01*
X108679647Y-109303329D01*
X108630664Y-109255921D01*
X108573888Y-109219307D01*
X108551115Y-109208557D01*
X108530695Y-109201913D01*
X108507491Y-109198417D01*
X108476365Y-109197112D01*
X108454209Y-109196981D01*
X108378186Y-109196981D01*
X108405566Y-109154179D01*
X108421915Y-109125364D01*
X108439810Y-109088794D01*
X108455716Y-109051753D01*
X108457554Y-109047022D01*
X108467032Y-109021401D01*
X108473741Y-108999772D01*
X108478193Y-108978429D01*
X108480901Y-108953664D01*
X108482374Y-108921770D01*
X108483126Y-108879039D01*
X108483318Y-108860348D01*
X108484475Y-108738028D01*
X108515291Y-108722181D01*
X108613110Y-108680621D01*
X108716224Y-108653090D01*
X108822650Y-108639511D01*
X108930408Y-108639805D01*
X109037516Y-108653892D01*
X109141991Y-108681693D01*
X109241853Y-108723130D01*
X109296794Y-108753329D01*
X109386480Y-108816754D01*
X109466612Y-108892585D01*
X109536476Y-108980041D01*
X109595357Y-109078343D01*
X109596492Y-109080560D01*
X109617133Y-109121152D01*
X109630995Y-109150140D01*
X109638337Y-109170146D01*
X109639421Y-109183794D01*
X109634507Y-109193709D01*
X109623854Y-109202514D01*
X109609508Y-109211701D01*
X109557220Y-109251453D01*
X109505553Y-109302880D01*
X109457772Y-109362004D01*
X109417142Y-109424845D01*
X109390500Y-109478611D01*
X109379110Y-109509627D01*
X109368158Y-109546077D01*
X109358504Y-109584128D01*
X109351008Y-109619949D01*
X109346528Y-109649708D01*
X109345926Y-109669573D01*
X109346781Y-109673453D01*
X109354217Y-109684658D01*
X109361740Y-109680279D01*
X109369156Y-109660601D01*
X109375315Y-109631559D01*
X109398604Y-109542115D01*
X109435481Y-109458894D01*
X109484500Y-109383041D01*
X109544212Y-109315702D01*
X109613170Y-109258022D01*
X109689928Y-109211147D01*
X109773036Y-109176223D01*
X109861049Y-109154395D01*
X109952519Y-109146809D01*
X109986467Y-109147812D01*
X110026576Y-109151301D01*
X110067168Y-109156613D01*
X110101222Y-109162779D01*
X110109794Y-109164827D01*
X110182981Y-109190480D01*
X110256028Y-109227983D01*
X110324748Y-109274591D01*
X110384955Y-109327561D01*
X110421570Y-109369244D01*
X110441860Y-109398160D01*
X110463849Y-109433604D01*
X110485184Y-109471308D01*
X110503516Y-109507009D01*
X110516493Y-109536439D01*
X110520655Y-109549014D01*
X110526977Y-109561339D01*
X110533430Y-109562736D01*
X110535712Y-109552623D01*
X110531587Y-109531496D01*
X110522071Y-109502372D01*
X110508178Y-109468270D01*
X110490923Y-109432208D01*
X110487061Y-109424843D01*
X110437370Y-109347768D01*
X110375253Y-109278012D01*
X110303448Y-109218208D01*
X110224697Y-109170988D01*
X110220919Y-109169145D01*
X110167064Y-109144987D01*
X110118843Y-109128144D01*
X110071021Y-109117467D01*
X110018360Y-109111811D01*
X109955626Y-109110027D01*
X109951044Y-109110018D01*
X109881321Y-109112308D01*
X109821527Y-109120051D01*
X109766312Y-109134383D01*
X109710329Y-109156439D01*
X109692047Y-109164991D01*
X109654099Y-109183298D01*
X109633736Y-109122670D01*
X109591821Y-109022087D01*
X109536931Y-108929985D01*
X109470016Y-108847220D01*
X109392023Y-108774648D01*
X109303902Y-108713122D01*
X109206600Y-108663499D01*
X109101068Y-108626634D01*
X109076387Y-108620209D01*
X109012517Y-108608837D01*
X108940364Y-108602989D01*
X108865969Y-108602727D01*
X108795372Y-108608114D01*
X108744544Y-108616791D01*
X108659865Y-108641111D01*
X108578467Y-108673872D01*
X108521905Y-108703425D01*
X108474823Y-108731147D01*
X108454692Y-108674113D01*
X108418088Y-108593636D01*
X108368585Y-108520948D01*
X108307740Y-108457273D01*
X108237110Y-108403839D01*
X108158250Y-108361871D01*
X108072719Y-108332596D01*
X108004732Y-108319656D01*
X107928070Y-108316624D01*
X107848774Y-108325638D01*
X107771003Y-108345645D01*
X107698917Y-108375592D01*
X107639776Y-108412075D01*
X107622708Y-108424093D01*
X107611427Y-108430620D01*
X107609990Y-108431012D01*
X107602588Y-108425610D01*
X107588409Y-108411732D01*
X107577001Y-108399498D01*
X107533239Y-108362397D01*
X107481440Y-108337115D01*
X107424821Y-108324276D01*
X107366603Y-108324509D01*
X107310006Y-108338439D01*
X107295264Y-108344703D01*
X107243019Y-108376601D01*
X107201583Y-108417506D01*
X107172507Y-108465409D01*
X107157343Y-108518298D01*
X107156600Y-108524252D01*
X107152484Y-108561981D01*
X106936025Y-108561981D01*
X106825724Y-108430435D01*
X106690041Y-108245567D01*
X106566180Y-108051568D01*
X106454704Y-107848932D01*
X106356171Y-107638151D01*
X106271144Y-107419717D01*
X106251880Y-107363418D01*
X106207233Y-107220213D01*
X106169774Y-107079441D01*
X106138494Y-106936532D01*
X106112386Y-106786916D01*
X106091790Y-106637137D01*
X106086516Y-106581924D01*
X106082379Y-106513957D01*
X106079379Y-106436319D01*
X106077515Y-106352091D01*
X106076788Y-106264354D01*
X106077198Y-106176190D01*
X106078745Y-106090679D01*
X106081429Y-106010903D01*
X106085251Y-105939944D01*
X106090209Y-105880883D01*
X106091765Y-105867200D01*
X106128110Y-105628284D01*
X106177993Y-105397344D01*
X106241655Y-105173684D01*
X106319334Y-104956611D01*
X106411270Y-104745430D01*
X106517702Y-104539449D01*
X106595581Y-104406700D01*
X106615990Y-104374417D01*
X106640699Y-104336745D01*
X106668140Y-104295925D01*
X106696743Y-104254197D01*
X106724939Y-104213803D01*
X106751160Y-104176984D01*
X106773837Y-104145980D01*
X106791400Y-104123033D01*
X106802281Y-104110383D01*
X106804080Y-104108886D01*
X106802961Y-104112941D01*
X106794033Y-104127649D01*
X106778741Y-104150763D01*
X106758530Y-104180038D01*
X106755665Y-104184111D01*
X106628888Y-104377646D01*
X106515641Y-104579043D01*
X106416175Y-104787459D01*
X106330744Y-105002051D01*
X106259602Y-105221976D01*
X106203001Y-105446392D01*
X106161194Y-105674456D01*
X106134435Y-105905324D01*
X106122978Y-106138155D01*
X106123793Y-106287887D01*
X106135459Y-106504407D01*
X106158951Y-106713267D01*
X106194847Y-106917281D01*
X106243723Y-107119262D01*
X106306159Y-107322023D01*
X106373945Y-107506293D01*
X106396484Y-107561149D01*
X106422016Y-107619470D01*
X106449652Y-107679567D01*
X106478507Y-107739749D01*
X106507693Y-107798326D01*
X106536323Y-107853607D01*
X106563511Y-107903903D01*
X106588370Y-107947522D01*
X106610012Y-107982775D01*
X106627552Y-108007971D01*
X106640102Y-108021420D01*
X106645075Y-108023091D01*
X106659398Y-108018179D01*
X106681797Y-108010143D01*
X106692700Y-108006152D01*
X106740134Y-107996941D01*
X106789513Y-108003216D01*
X106827769Y-108018329D01*
X106855059Y-108037720D01*
X106881194Y-108065364D01*
X106901840Y-108095913D01*
X106912451Y-108122885D01*
X106917990Y-108137272D01*
X106930360Y-108145213D01*
X106949567Y-108149472D01*
X107004035Y-108164680D01*
X107053136Y-108190693D01*
X107093662Y-108225275D01*
X107122406Y-108266188D01*
X107125152Y-108271947D01*
X107138628Y-108301832D01*
X107227211Y-108306052D01*
X107315794Y-108310273D01*
X107367388Y-108280454D01*
X107465176Y-108232931D01*
X107568081Y-108199860D01*
X107674405Y-108181356D01*
X107782450Y-108177535D01*
X107890517Y-108188511D01*
X107996908Y-108214398D01*
X108051899Y-108234150D01*
X108119182Y-108261165D01*
X108146113Y-108238296D01*
X108167281Y-108222255D01*
X108195846Y-108203044D01*
X108222653Y-108186591D01*
X108247749Y-108170342D01*
X108265385Y-108155667D01*
X108272257Y-108145326D01*
X108272263Y-108145130D01*
X108275649Y-108131343D01*
X108284364Y-108109269D01*
X108292369Y-108092155D01*
X108318156Y-108054230D01*
X108351883Y-108024848D01*
X108389514Y-108007364D01*
X108396362Y-108005745D01*
X108420849Y-108000848D01*
X108420174Y-107936133D01*
X108420762Y-107899166D01*
X108424228Y-107871530D01*
X108431754Y-107846773D01*
X108440042Y-107827762D01*
X108472088Y-107776357D01*
X108514411Y-107734228D01*
X108559729Y-107706368D01*
X108581136Y-107694654D01*
X108594907Y-107683483D01*
X108597700Y-107678146D01*
X108595791Y-107668067D01*
X108590376Y-107644536D01*
X108581928Y-107609474D01*
X108570917Y-107564796D01*
X108557814Y-107512423D01*
X108543089Y-107454271D01*
X108534200Y-107419467D01*
X108518718Y-107358480D01*
X108504601Y-107301806D01*
X108492323Y-107251437D01*
X108482361Y-107209365D01*
X108475189Y-107177583D01*
X108471284Y-107158082D01*
X108470700Y-107153332D01*
X108477507Y-107115007D01*
X108495877Y-107074719D01*
X108522733Y-107036646D01*
X108554999Y-107004965D01*
X108589597Y-106983854D01*
X108597700Y-106980889D01*
X108611906Y-106976131D01*
X108615311Y-106973430D01*
X108606345Y-106972099D01*
X108583441Y-106971450D01*
X108575872Y-106971322D01*
X108550165Y-106970137D01*
X108532235Y-106967846D01*
X108526263Y-106965256D01*
X108529964Y-106955915D01*
X108539410Y-106937897D01*
X108546441Y-106925569D01*
X108566619Y-106891137D01*
X108415138Y-106891137D01*
X108415138Y-106827736D01*
X108296075Y-106768106D01*
X108177013Y-106708475D01*
X108177013Y-106596084D01*
X108296075Y-106471802D01*
X108415138Y-106347519D01*
X108415138Y-105420453D01*
X108415215Y-105258965D01*
X108415445Y-105110614D01*
X108415825Y-104975679D01*
X108416353Y-104854443D01*
X108417027Y-104747188D01*
X108417844Y-104654195D01*
X108418802Y-104575747D01*
X108419898Y-104512124D01*
X108421131Y-104463610D01*
X108422497Y-104430485D01*
X108423564Y-104416309D01*
X108446830Y-104266869D01*
X108482942Y-104126485D01*
X108531848Y-103995348D01*
X108546866Y-103962339D01*
X108563808Y-103928387D01*
X108583354Y-103892143D01*
X108603851Y-103856329D01*
X108623651Y-103823666D01*
X108641100Y-103796877D01*
X108654550Y-103778683D01*
X108662350Y-103771805D01*
X108662420Y-103771802D01*
X108669706Y-103778258D01*
X108682762Y-103795902D01*
X108699876Y-103821921D01*
X108719333Y-103853503D01*
X108739422Y-103887834D01*
X108758430Y-103922103D01*
X108774643Y-103953495D01*
X108780358Y-103965472D01*
X108824269Y-104074701D01*
X108860319Y-104193859D01*
X108887273Y-104318450D01*
X108899132Y-104398554D01*
X108900452Y-104417730D01*
X108901673Y-104452290D01*
X108902790Y-104501742D01*
X108903799Y-104565595D01*
X108904696Y-104643358D01*
X108905478Y-104734540D01*
X108906139Y-104838649D01*
X108906677Y-104955194D01*
X108907086Y-105083684D01*
X108907364Y-105223628D01*
X108907504Y-105374535D01*
X108907516Y-105406616D01*
X108907770Y-106347418D01*
X109026579Y-106473610D01*
X109145388Y-106599801D01*
X109145388Y-106708644D01*
X108915200Y-106823414D01*
X108915200Y-106891137D01*
X108839794Y-106891137D01*
X108807391Y-106891650D01*
X108781964Y-106893029D01*
X108766957Y-106895034D01*
X108764388Y-106896393D01*
X108768089Y-106905734D01*
X108777535Y-106923752D01*
X108784566Y-106936080D01*
X108804744Y-106970512D01*
X108750831Y-106971071D01*
X108696919Y-106971631D01*
X108727949Y-106983000D01*
X108755747Y-106995885D01*
X108782295Y-107012201D01*
X108784675Y-107013968D01*
X108808805Y-107039419D01*
X108830116Y-107074209D01*
X108845459Y-107112035D01*
X108851685Y-107146596D01*
X108851700Y-107148126D01*
X108849759Y-107163459D01*
X108844258Y-107192016D01*
X108835680Y-107231671D01*
X108824507Y-107280294D01*
X108811223Y-107335759D01*
X108796311Y-107395939D01*
X108788200Y-107427892D01*
X108772813Y-107488260D01*
X108758795Y-107543717D01*
X108746609Y-107592390D01*
X108736722Y-107632404D01*
X108729596Y-107661886D01*
X108725698Y-107678961D01*
X108725098Y-107682446D01*
X108731933Y-107688842D01*
X108749441Y-107699379D01*
X108773130Y-107711432D01*
X108822595Y-107743251D01*
X108861620Y-107785797D01*
X108889022Y-107836902D01*
X108903616Y-107894393D01*
X108904598Y-107952315D01*
X108902631Y-107980131D01*
X108903601Y-107995514D01*
X108907979Y-108001714D01*
X108911846Y-108002387D01*
X108936880Y-108008636D01*
X108964813Y-108024984D01*
X108990519Y-108047833D01*
X109006139Y-108068555D01*
X109020981Y-108106199D01*
X109026819Y-108149100D01*
X109022972Y-108190067D01*
X109018936Y-108203351D01*
X109016446Y-108213904D01*
X109019232Y-108224113D01*
X109029303Y-108236971D01*
X109048670Y-108255471D01*
X109061858Y-108267232D01*
X109109044Y-108314156D01*
X109154928Y-108369191D01*
X109194756Y-108426312D01*
X109214789Y-108461024D01*
X109236669Y-108502942D01*
X109277495Y-108497918D01*
X109333856Y-108498609D01*
X109387347Y-108513718D01*
X109435310Y-108541789D01*
X109475088Y-108581367D01*
X109498606Y-108619047D01*
X109512820Y-108645986D01*
X109525025Y-108662178D01*
X109539066Y-108671635D01*
X109554169Y-108677037D01*
X109623787Y-108705012D01*
X109693930Y-108747285D01*
X109762470Y-108802501D01*
X109784965Y-108823918D01*
X109818942Y-108858690D01*
X109844292Y-108887875D01*
X109864506Y-108916146D01*
X109883075Y-108948170D01*
X109894623Y-108970618D01*
X109910225Y-109001660D01*
X109923067Y-109026875D01*
X109931594Y-109043234D01*
X109934243Y-109047888D01*
X109941808Y-109045867D01*
X109958526Y-109038422D01*
X109967154Y-109034142D01*
X110011800Y-109019843D01*
X110060069Y-109018862D01*
X110107857Y-109030646D01*
X110151062Y-109054645D01*
X110157419Y-109059702D01*
X110169631Y-109068675D01*
X110183172Y-109074796D01*
X110201669Y-109078857D01*
X110228747Y-109081650D01*
X110268031Y-109083969D01*
X110268544Y-109083995D01*
X110355856Y-109088380D01*
X110387606Y-109062445D01*
X110458554Y-109012962D01*
X110536572Y-108975503D01*
X110562231Y-108966160D01*
X110594822Y-108955908D01*
X110623442Y-108949469D01*
X110653823Y-108946029D01*
X110691698Y-108944771D01*
X110713044Y-108944701D01*
X110757950Y-108945538D01*
X110793020Y-108948393D01*
X110824249Y-108954098D01*
X110857633Y-108963481D01*
X110864479Y-108965672D01*
X110944462Y-108999742D01*
X111018348Y-109047487D01*
X111071744Y-109094993D01*
X111114101Y-109138378D01*
X111135822Y-109122978D01*
X111185133Y-109097339D01*
X111240036Y-109084755D01*
X111297272Y-109085104D01*
X111353581Y-109098263D01*
X111405705Y-109124111D01*
X111419121Y-109133618D01*
X111455151Y-109161120D01*
X111542591Y-109102028D01*
X111733395Y-108963706D01*
X111913384Y-108814157D01*
X112082149Y-108653977D01*
X112239283Y-108483763D01*
X112384376Y-108304109D01*
X112517020Y-108115613D01*
X112636808Y-107918871D01*
X112743331Y-107714478D01*
X112836181Y-107503030D01*
X112914948Y-107285125D01*
X112979226Y-107061357D01*
X112999864Y-106974481D01*
X113030605Y-106822709D01*
X113053727Y-106674317D01*
X113069615Y-106525253D01*
X113078654Y-106371470D01*
X113081229Y-106208919D01*
X113080300Y-106127555D01*
X113070074Y-105910693D01*
X113047584Y-105701483D01*
X113012293Y-105496872D01*
X112963658Y-105293808D01*
X112901140Y-105089237D01*
X112891678Y-105061543D01*
X112809089Y-104846786D01*
X112712341Y-104638418D01*
X112602074Y-104437115D01*
X112478930Y-104243555D01*
X112343552Y-104058413D01*
X112196583Y-103882365D01*
X112038663Y-103716089D01*
X111870436Y-103560259D01*
X111692544Y-103415553D01*
X111505628Y-103282646D01*
X111310331Y-103162215D01*
X111107294Y-103054936D01*
X110897783Y-102961737D01*
X110864657Y-102948001D01*
X110838078Y-102936337D01*
X110820822Y-102928011D01*
X110815610Y-102924332D01*
X110824510Y-102925455D01*
X110824510Y-102925455D01*
G37*
X110824510Y-102925455D02*
X110845693Y-102932323D01*
X110877021Y-102944039D01*
X110916357Y-102959708D01*
X110961563Y-102978434D01*
X111010502Y-102999323D01*
X111061036Y-103021478D01*
X111111029Y-103044003D01*
X111158342Y-103066005D01*
X111189294Y-103080893D01*
X111396140Y-103190798D01*
X111593950Y-103313406D01*
X111782250Y-103448108D01*
X111960571Y-103594297D01*
X112128441Y-103751364D01*
X112285389Y-103918701D01*
X112430944Y-104095699D01*
X112564635Y-104281752D01*
X112685990Y-104476249D01*
X112794538Y-104678584D01*
X112889808Y-104888148D01*
X112971330Y-105104332D01*
X113038631Y-105326529D01*
X113086393Y-105529856D01*
X113126257Y-105765018D01*
X113150366Y-106000666D01*
X113158755Y-106236243D01*
X113151459Y-106471196D01*
X113128511Y-106704969D01*
X113089948Y-106937008D01*
X113035802Y-107166759D01*
X112971266Y-107378554D01*
X112887935Y-107600059D01*
X112790706Y-107814195D01*
X112680000Y-108020453D01*
X112556237Y-108218322D01*
X112419837Y-108407292D01*
X112271219Y-108586853D01*
X112110804Y-108756496D01*
X111939012Y-108915710D01*
X111756261Y-109063985D01*
X111562973Y-109200812D01*
X111375825Y-109316359D01*
X111168846Y-109426611D01*
X110955667Y-109522293D01*
X110736599Y-109603315D01*
X110511952Y-109669587D01*
X110282036Y-109721017D01*
X110047161Y-109757515D01*
X109807638Y-109778991D01*
X109787822Y-109780082D01*
X109728245Y-109783105D01*
X109679582Y-109785208D01*
X109637800Y-109786388D01*
X109598862Y-109786639D01*
X109558733Y-109785957D01*
X109513379Y-109784339D01*
X109458763Y-109781778D01*
X109417643Y-109779672D01*
X109311018Y-109772010D01*
X109196118Y-109760010D01*
X109079677Y-109744501D01*
X108968431Y-109726311D01*
X108938111Y-109720655D01*
X108709399Y-109668699D01*
X108486340Y-109602200D01*
X108269494Y-109521648D01*
X108059422Y-109427537D01*
X107856686Y-109320359D01*
X107661846Y-109200605D01*
X107475464Y-109068768D01*
X107298099Y-108925341D01*
X107130314Y-108770815D01*
X106972668Y-108605682D01*
X106936025Y-108561981D01*
X107152484Y-108561981D01*
X107168894Y-108521155D01*
X107195091Y-108473301D01*
X107231917Y-108429519D01*
X107274872Y-108394809D01*
X107291002Y-108385480D01*
X107317934Y-108373469D01*
X107344257Y-108366926D01*
X107376929Y-108364371D01*
X107391200Y-108364144D01*
X107447060Y-108368589D01*
X107494745Y-108383879D01*
X107539120Y-108411801D01*
X107553579Y-108423841D01*
X107577820Y-108451113D01*
X107600086Y-108486589D01*
X107617666Y-108524824D01*
X107627848Y-108560374D01*
X107629319Y-108575871D01*
X107631192Y-108595007D01*
X107635831Y-108605149D01*
X107637263Y-108605637D01*
X107642938Y-108598598D01*
X107645126Y-108580174D01*
X107644093Y-108554404D01*
X107640106Y-108525330D01*
X107633431Y-108496989D01*
X107629290Y-108484675D01*
X107621243Y-108462347D01*
X107618883Y-108446950D01*
X107624145Y-108435196D01*
X107638962Y-108423801D01*
X107665270Y-108409476D01*
X107677150Y-108403368D01*
X107739515Y-108376044D01*
X107802874Y-108358559D01*
X107872150Y-108349827D01*
X107926981Y-108348343D01*
X107971372Y-108349051D01*
X108005019Y-108351153D01*
X108033040Y-108355365D01*
X108060552Y-108362406D01*
X108085731Y-108370589D01*
X108169584Y-108407164D01*
X108243998Y-108455303D01*
X108308236Y-108513521D01*
X108361559Y-108580333D01*
X108403228Y-108654254D01*
X108432505Y-108733798D01*
X108448652Y-108817480D01*
X108450930Y-108903816D01*
X108438600Y-108991320D01*
X108422500Y-109047839D01*
X108389360Y-109121959D01*
X108343239Y-109192599D01*
X108286976Y-109256300D01*
X108223412Y-109309598D01*
X108190093Y-109331082D01*
X108165544Y-109346050D01*
X108148016Y-109358054D01*
X108140560Y-109364965D01*
X108140611Y-109365631D01*
X108151191Y-109365801D01*
X108171485Y-109357831D01*
X108198770Y-109343446D01*
X108230321Y-109324369D01*
X108263416Y-109302327D01*
X108295330Y-109279043D01*
X108323340Y-109256242D01*
X108343099Y-109237411D01*
X108358422Y-109224419D01*
X108376621Y-109218305D01*
X108402947Y-109216825D01*
X108452470Y-109221343D01*
X108505089Y-109233569D01*
X108553198Y-109251503D01*
X108571798Y-109261167D01*
X108616519Y-109293870D01*
X108658062Y-109336250D01*
X108693725Y-109384530D01*
X108720806Y-109434933D01*
X108736603Y-109483684D01*
X108738307Y-109493897D01*
X108743319Y-109520177D01*
X108748529Y-109531373D01*
X108752908Y-109528229D01*
X108755425Y-109511490D01*
X108755051Y-109481898D01*
X108755046Y-109481805D01*
X108743529Y-109418722D01*
X108717832Y-109358413D01*
X108679647Y-109303329D01*
X108630664Y-109255921D01*
X108573888Y-109219307D01*
X108551115Y-109208557D01*
X108530695Y-109201913D01*
X108507491Y-109198417D01*
X108476365Y-109197112D01*
X108454209Y-109196981D01*
X108378186Y-109196981D01*
X108405566Y-109154179D01*
X108421915Y-109125364D01*
X108439810Y-109088794D01*
X108455716Y-109051753D01*
X108457554Y-109047022D01*
X108467032Y-109021401D01*
X108473741Y-108999772D01*
X108478193Y-108978429D01*
X108480901Y-108953664D01*
X108482374Y-108921770D01*
X108483126Y-108879039D01*
X108483318Y-108860348D01*
X108484475Y-108738028D01*
X108515291Y-108722181D01*
X108613110Y-108680621D01*
X108716224Y-108653090D01*
X108822650Y-108639511D01*
X108930408Y-108639805D01*
X109037516Y-108653892D01*
X109141991Y-108681693D01*
X109241853Y-108723130D01*
X109296794Y-108753329D01*
X109386480Y-108816754D01*
X109466612Y-108892585D01*
X109536476Y-108980041D01*
X109595357Y-109078343D01*
X109596492Y-109080560D01*
X109617133Y-109121152D01*
X109630995Y-109150140D01*
X109638337Y-109170146D01*
X109639421Y-109183794D01*
X109634507Y-109193709D01*
X109623854Y-109202514D01*
X109609508Y-109211701D01*
X109557220Y-109251453D01*
X109505553Y-109302880D01*
X109457772Y-109362004D01*
X109417142Y-109424845D01*
X109390500Y-109478611D01*
X109379110Y-109509627D01*
X109368158Y-109546077D01*
X109358504Y-109584128D01*
X109351008Y-109619949D01*
X109346528Y-109649708D01*
X109345926Y-109669573D01*
X109346781Y-109673453D01*
X109354217Y-109684658D01*
X109361740Y-109680279D01*
X109369156Y-109660601D01*
X109375315Y-109631559D01*
X109398604Y-109542115D01*
X109435481Y-109458894D01*
X109484500Y-109383041D01*
X109544212Y-109315702D01*
X109613170Y-109258022D01*
X109689928Y-109211147D01*
X109773036Y-109176223D01*
X109861049Y-109154395D01*
X109952519Y-109146809D01*
X109986467Y-109147812D01*
X110026576Y-109151301D01*
X110067168Y-109156613D01*
X110101222Y-109162779D01*
X110109794Y-109164827D01*
X110182981Y-109190480D01*
X110256028Y-109227983D01*
X110324748Y-109274591D01*
X110384955Y-109327561D01*
X110421570Y-109369244D01*
X110441860Y-109398160D01*
X110463849Y-109433604D01*
X110485184Y-109471308D01*
X110503516Y-109507009D01*
X110516493Y-109536439D01*
X110520655Y-109549014D01*
X110526977Y-109561339D01*
X110533430Y-109562736D01*
X110535712Y-109552623D01*
X110531587Y-109531496D01*
X110522071Y-109502372D01*
X110508178Y-109468270D01*
X110490923Y-109432208D01*
X110487061Y-109424843D01*
X110437370Y-109347768D01*
X110375253Y-109278012D01*
X110303448Y-109218208D01*
X110224697Y-109170988D01*
X110220919Y-109169145D01*
X110167064Y-109144987D01*
X110118843Y-109128144D01*
X110071021Y-109117467D01*
X110018360Y-109111811D01*
X109955626Y-109110027D01*
X109951044Y-109110018D01*
X109881321Y-109112308D01*
X109821527Y-109120051D01*
X109766312Y-109134383D01*
X109710329Y-109156439D01*
X109692047Y-109164991D01*
X109654099Y-109183298D01*
X109633736Y-109122670D01*
X109591821Y-109022087D01*
X109536931Y-108929985D01*
X109470016Y-108847220D01*
X109392023Y-108774648D01*
X109303902Y-108713122D01*
X109206600Y-108663499D01*
X109101068Y-108626634D01*
X109076387Y-108620209D01*
X109012517Y-108608837D01*
X108940364Y-108602989D01*
X108865969Y-108602727D01*
X108795372Y-108608114D01*
X108744544Y-108616791D01*
X108659865Y-108641111D01*
X108578467Y-108673872D01*
X108521905Y-108703425D01*
X108474823Y-108731147D01*
X108454692Y-108674113D01*
X108418088Y-108593636D01*
X108368585Y-108520948D01*
X108307740Y-108457273D01*
X108237110Y-108403839D01*
X108158250Y-108361871D01*
X108072719Y-108332596D01*
X108004732Y-108319656D01*
X107928070Y-108316624D01*
X107848774Y-108325638D01*
X107771003Y-108345645D01*
X107698917Y-108375592D01*
X107639776Y-108412075D01*
X107622708Y-108424093D01*
X107611427Y-108430620D01*
X107609990Y-108431012D01*
X107602588Y-108425610D01*
X107588409Y-108411732D01*
X107577001Y-108399498D01*
X107533239Y-108362397D01*
X107481440Y-108337115D01*
X107424821Y-108324276D01*
X107366603Y-108324509D01*
X107310006Y-108338439D01*
X107295264Y-108344703D01*
X107243019Y-108376601D01*
X107201583Y-108417506D01*
X107172507Y-108465409D01*
X107157343Y-108518298D01*
X107156600Y-108524252D01*
X107152484Y-108561981D01*
X106936025Y-108561981D01*
X106825724Y-108430435D01*
X106690041Y-108245567D01*
X106566180Y-108051568D01*
X106454704Y-107848932D01*
X106356171Y-107638151D01*
X106271144Y-107419717D01*
X106251880Y-107363418D01*
X106207233Y-107220213D01*
X106169774Y-107079441D01*
X106138494Y-106936532D01*
X106112386Y-106786916D01*
X106091790Y-106637137D01*
X106086516Y-106581924D01*
X106082379Y-106513957D01*
X106079379Y-106436319D01*
X106077515Y-106352091D01*
X106076788Y-106264354D01*
X106077198Y-106176190D01*
X106078745Y-106090679D01*
X106081429Y-106010903D01*
X106085251Y-105939944D01*
X106090209Y-105880883D01*
X106091765Y-105867200D01*
X106128110Y-105628284D01*
X106177993Y-105397344D01*
X106241655Y-105173684D01*
X106319334Y-104956611D01*
X106411270Y-104745430D01*
X106517702Y-104539449D01*
X106595581Y-104406700D01*
X106615990Y-104374417D01*
X106640699Y-104336745D01*
X106668140Y-104295925D01*
X106696743Y-104254197D01*
X106724939Y-104213803D01*
X106751160Y-104176984D01*
X106773837Y-104145980D01*
X106791400Y-104123033D01*
X106802281Y-104110383D01*
X106804080Y-104108886D01*
X106802961Y-104112941D01*
X106794033Y-104127649D01*
X106778741Y-104150763D01*
X106758530Y-104180038D01*
X106755665Y-104184111D01*
X106628888Y-104377646D01*
X106515641Y-104579043D01*
X106416175Y-104787459D01*
X106330744Y-105002051D01*
X106259602Y-105221976D01*
X106203001Y-105446392D01*
X106161194Y-105674456D01*
X106134435Y-105905324D01*
X106122978Y-106138155D01*
X106123793Y-106287887D01*
X106135459Y-106504407D01*
X106158951Y-106713267D01*
X106194847Y-106917281D01*
X106243723Y-107119262D01*
X106306159Y-107322023D01*
X106373945Y-107506293D01*
X106396484Y-107561149D01*
X106422016Y-107619470D01*
X106449652Y-107679567D01*
X106478507Y-107739749D01*
X106507693Y-107798326D01*
X106536323Y-107853607D01*
X106563511Y-107903903D01*
X106588370Y-107947522D01*
X106610012Y-107982775D01*
X106627552Y-108007971D01*
X106640102Y-108021420D01*
X106645075Y-108023091D01*
X106659398Y-108018179D01*
X106681797Y-108010143D01*
X106692700Y-108006152D01*
X106740134Y-107996941D01*
X106789513Y-108003216D01*
X106827769Y-108018329D01*
X106855059Y-108037720D01*
X106881194Y-108065364D01*
X106901840Y-108095913D01*
X106912451Y-108122885D01*
X106917990Y-108137272D01*
X106930360Y-108145213D01*
X106949567Y-108149472D01*
X107004035Y-108164680D01*
X107053136Y-108190693D01*
X107093662Y-108225275D01*
X107122406Y-108266188D01*
X107125152Y-108271947D01*
X107138628Y-108301832D01*
X107227211Y-108306052D01*
X107315794Y-108310273D01*
X107367388Y-108280454D01*
X107465176Y-108232931D01*
X107568081Y-108199860D01*
X107674405Y-108181356D01*
X107782450Y-108177535D01*
X107890517Y-108188511D01*
X107996908Y-108214398D01*
X108051899Y-108234150D01*
X108119182Y-108261165D01*
X108146113Y-108238296D01*
X108167281Y-108222255D01*
X108195846Y-108203044D01*
X108222653Y-108186591D01*
X108247749Y-108170342D01*
X108265385Y-108155667D01*
X108272257Y-108145326D01*
X108272263Y-108145130D01*
X108275649Y-108131343D01*
X108284364Y-108109269D01*
X108292369Y-108092155D01*
X108318156Y-108054230D01*
X108351883Y-108024848D01*
X108389514Y-108007364D01*
X108396362Y-108005745D01*
X108420849Y-108000848D01*
X108420174Y-107936133D01*
X108420762Y-107899166D01*
X108424228Y-107871530D01*
X108431754Y-107846773D01*
X108440042Y-107827762D01*
X108472088Y-107776357D01*
X108514411Y-107734228D01*
X108559729Y-107706368D01*
X108581136Y-107694654D01*
X108594907Y-107683483D01*
X108597700Y-107678146D01*
X108595791Y-107668067D01*
X108590376Y-107644536D01*
X108581928Y-107609474D01*
X108570917Y-107564796D01*
X108557814Y-107512423D01*
X108543089Y-107454271D01*
X108534200Y-107419467D01*
X108518718Y-107358480D01*
X108504601Y-107301806D01*
X108492323Y-107251437D01*
X108482361Y-107209365D01*
X108475189Y-107177583D01*
X108471284Y-107158082D01*
X108470700Y-107153332D01*
X108477507Y-107115007D01*
X108495877Y-107074719D01*
X108522733Y-107036646D01*
X108554999Y-107004965D01*
X108589597Y-106983854D01*
X108597700Y-106980889D01*
X108611906Y-106976131D01*
X108615311Y-106973430D01*
X108606345Y-106972099D01*
X108583441Y-106971450D01*
X108575872Y-106971322D01*
X108550165Y-106970137D01*
X108532235Y-106967846D01*
X108526263Y-106965256D01*
X108529964Y-106955915D01*
X108539410Y-106937897D01*
X108546441Y-106925569D01*
X108566619Y-106891137D01*
X108415138Y-106891137D01*
X108415138Y-106827736D01*
X108296075Y-106768106D01*
X108177013Y-106708475D01*
X108177013Y-106596084D01*
X108296075Y-106471802D01*
X108415138Y-106347519D01*
X108415138Y-105420453D01*
X108415215Y-105258965D01*
X108415445Y-105110614D01*
X108415825Y-104975679D01*
X108416353Y-104854443D01*
X108417027Y-104747188D01*
X108417844Y-104654195D01*
X108418802Y-104575747D01*
X108419898Y-104512124D01*
X108421131Y-104463610D01*
X108422497Y-104430485D01*
X108423564Y-104416309D01*
X108446830Y-104266869D01*
X108482942Y-104126485D01*
X108531848Y-103995348D01*
X108546866Y-103962339D01*
X108563808Y-103928387D01*
X108583354Y-103892143D01*
X108603851Y-103856329D01*
X108623651Y-103823666D01*
X108641100Y-103796877D01*
X108654550Y-103778683D01*
X108662350Y-103771805D01*
X108662420Y-103771802D01*
X108669706Y-103778258D01*
X108682762Y-103795902D01*
X108699876Y-103821921D01*
X108719333Y-103853503D01*
X108739422Y-103887834D01*
X108758430Y-103922103D01*
X108774643Y-103953495D01*
X108780358Y-103965472D01*
X108824269Y-104074701D01*
X108860319Y-104193859D01*
X108887273Y-104318450D01*
X108899132Y-104398554D01*
X108900452Y-104417730D01*
X108901673Y-104452290D01*
X108902790Y-104501742D01*
X108903799Y-104565595D01*
X108904696Y-104643358D01*
X108905478Y-104734540D01*
X108906139Y-104838649D01*
X108906677Y-104955194D01*
X108907086Y-105083684D01*
X108907364Y-105223628D01*
X108907504Y-105374535D01*
X108907516Y-105406616D01*
X108907770Y-106347418D01*
X109026579Y-106473610D01*
X109145388Y-106599801D01*
X109145388Y-106708644D01*
X108915200Y-106823414D01*
X108915200Y-106891137D01*
X108839794Y-106891137D01*
X108807391Y-106891650D01*
X108781964Y-106893029D01*
X108766957Y-106895034D01*
X108764388Y-106896393D01*
X108768089Y-106905734D01*
X108777535Y-106923752D01*
X108784566Y-106936080D01*
X108804744Y-106970512D01*
X108750831Y-106971071D01*
X108696919Y-106971631D01*
X108727949Y-106983000D01*
X108755747Y-106995885D01*
X108782295Y-107012201D01*
X108784675Y-107013968D01*
X108808805Y-107039419D01*
X108830116Y-107074209D01*
X108845459Y-107112035D01*
X108851685Y-107146596D01*
X108851700Y-107148126D01*
X108849759Y-107163459D01*
X108844258Y-107192016D01*
X108835680Y-107231671D01*
X108824507Y-107280294D01*
X108811223Y-107335759D01*
X108796311Y-107395939D01*
X108788200Y-107427892D01*
X108772813Y-107488260D01*
X108758795Y-107543717D01*
X108746609Y-107592390D01*
X108736722Y-107632404D01*
X108729596Y-107661886D01*
X108725698Y-107678961D01*
X108725098Y-107682446D01*
X108731933Y-107688842D01*
X108749441Y-107699379D01*
X108773130Y-107711432D01*
X108822595Y-107743251D01*
X108861620Y-107785797D01*
X108889022Y-107836902D01*
X108903616Y-107894393D01*
X108904598Y-107952315D01*
X108902631Y-107980131D01*
X108903601Y-107995514D01*
X108907979Y-108001714D01*
X108911846Y-108002387D01*
X108936880Y-108008636D01*
X108964813Y-108024984D01*
X108990519Y-108047833D01*
X109006139Y-108068555D01*
X109020981Y-108106199D01*
X109026819Y-108149100D01*
X109022972Y-108190067D01*
X109018936Y-108203351D01*
X109016446Y-108213904D01*
X109019232Y-108224113D01*
X109029303Y-108236971D01*
X109048670Y-108255471D01*
X109061858Y-108267232D01*
X109109044Y-108314156D01*
X109154928Y-108369191D01*
X109194756Y-108426312D01*
X109214789Y-108461024D01*
X109236669Y-108502942D01*
X109277495Y-108497918D01*
X109333856Y-108498609D01*
X109387347Y-108513718D01*
X109435310Y-108541789D01*
X109475088Y-108581367D01*
X109498606Y-108619047D01*
X109512820Y-108645986D01*
X109525025Y-108662178D01*
X109539066Y-108671635D01*
X109554169Y-108677037D01*
X109623787Y-108705012D01*
X109693930Y-108747285D01*
X109762470Y-108802501D01*
X109784965Y-108823918D01*
X109818942Y-108858690D01*
X109844292Y-108887875D01*
X109864506Y-108916146D01*
X109883075Y-108948170D01*
X109894623Y-108970618D01*
X109910225Y-109001660D01*
X109923067Y-109026875D01*
X109931594Y-109043234D01*
X109934243Y-109047888D01*
X109941808Y-109045867D01*
X109958526Y-109038422D01*
X109967154Y-109034142D01*
X110011800Y-109019843D01*
X110060069Y-109018862D01*
X110107857Y-109030646D01*
X110151062Y-109054645D01*
X110157419Y-109059702D01*
X110169631Y-109068675D01*
X110183172Y-109074796D01*
X110201669Y-109078857D01*
X110228747Y-109081650D01*
X110268031Y-109083969D01*
X110268544Y-109083995D01*
X110355856Y-109088380D01*
X110387606Y-109062445D01*
X110458554Y-109012962D01*
X110536572Y-108975503D01*
X110562231Y-108966160D01*
X110594822Y-108955908D01*
X110623442Y-108949469D01*
X110653823Y-108946029D01*
X110691698Y-108944771D01*
X110713044Y-108944701D01*
X110757950Y-108945538D01*
X110793020Y-108948393D01*
X110824249Y-108954098D01*
X110857633Y-108963481D01*
X110864479Y-108965672D01*
X110944462Y-108999742D01*
X111018348Y-109047487D01*
X111071744Y-109094993D01*
X111114101Y-109138378D01*
X111135822Y-109122978D01*
X111185133Y-109097339D01*
X111240036Y-109084755D01*
X111297272Y-109085104D01*
X111353581Y-109098263D01*
X111405705Y-109124111D01*
X111419121Y-109133618D01*
X111455151Y-109161120D01*
X111542591Y-109102028D01*
X111733395Y-108963706D01*
X111913384Y-108814157D01*
X112082149Y-108653977D01*
X112239283Y-108483763D01*
X112384376Y-108304109D01*
X112517020Y-108115613D01*
X112636808Y-107918871D01*
X112743331Y-107714478D01*
X112836181Y-107503030D01*
X112914948Y-107285125D01*
X112979226Y-107061357D01*
X112999864Y-106974481D01*
X113030605Y-106822709D01*
X113053727Y-106674317D01*
X113069615Y-106525253D01*
X113078654Y-106371470D01*
X113081229Y-106208919D01*
X113080300Y-106127555D01*
X113070074Y-105910693D01*
X113047584Y-105701483D01*
X113012293Y-105496872D01*
X112963658Y-105293808D01*
X112901140Y-105089237D01*
X112891678Y-105061543D01*
X112809089Y-104846786D01*
X112712341Y-104638418D01*
X112602074Y-104437115D01*
X112478930Y-104243555D01*
X112343552Y-104058413D01*
X112196583Y-103882365D01*
X112038663Y-103716089D01*
X111870436Y-103560259D01*
X111692544Y-103415553D01*
X111505628Y-103282646D01*
X111310331Y-103162215D01*
X111107294Y-103054936D01*
X110897783Y-102961737D01*
X110864657Y-102948001D01*
X110838078Y-102936337D01*
X110820822Y-102928011D01*
X110815610Y-102924332D01*
X110824510Y-102925455D01*
G36*
X112509608Y-107004547D02*
X112510888Y-107006429D01*
X112507237Y-107017081D01*
X112497644Y-107037613D01*
X112484146Y-107064184D01*
X112468779Y-107092950D01*
X112453580Y-107120069D01*
X112440586Y-107141696D01*
X112434211Y-107151090D01*
X112418128Y-107167218D01*
X112401774Y-107175851D01*
X112389058Y-107175839D01*
X112383888Y-107166030D01*
X112383888Y-107165907D01*
X112390573Y-107155448D01*
X112400904Y-107150476D01*
X112409787Y-107147012D01*
X112414314Y-107140025D01*
X112415226Y-107125748D01*
X112413266Y-107100413D01*
X112412424Y-107092003D01*
X112408952Y-107061597D01*
X112405298Y-107035382D01*
X112402484Y-107020121D01*
X112402151Y-107005957D01*
X112410657Y-107002262D01*
X112420417Y-107006749D01*
X112427175Y-107021638D01*
X112431653Y-107049068D01*
X112433369Y-107069731D01*
X112435487Y-107101481D01*
X112461395Y-107051871D01*
X112475808Y-107027267D01*
X112489186Y-107009517D01*
X112498748Y-107002282D01*
X112499096Y-107002262D01*
X112509608Y-107004547D01*
X112509608Y-107004547D01*
G37*
X112509608Y-107004547D02*
X112510888Y-107006429D01*
X112507237Y-107017081D01*
X112497644Y-107037613D01*
X112484146Y-107064184D01*
X112468779Y-107092950D01*
X112453580Y-107120069D01*
X112440586Y-107141696D01*
X112434211Y-107151090D01*
X112418128Y-107167218D01*
X112401774Y-107175851D01*
X112389058Y-107175839D01*
X112383888Y-107166030D01*
X112383888Y-107165907D01*
X112390573Y-107155448D01*
X112400904Y-107150476D01*
X112409787Y-107147012D01*
X112414314Y-107140025D01*
X112415226Y-107125748D01*
X112413266Y-107100413D01*
X112412424Y-107092003D01*
X112408952Y-107061597D01*
X112405298Y-107035382D01*
X112402484Y-107020121D01*
X112402151Y-107005957D01*
X112410657Y-107002262D01*
X112420417Y-107006749D01*
X112427175Y-107021638D01*
X112431653Y-107049068D01*
X112433369Y-107069731D01*
X112435487Y-107101481D01*
X112461395Y-107051871D01*
X112475808Y-107027267D01*
X112489186Y-107009517D01*
X112498748Y-107002282D01*
X112499096Y-107002262D01*
X112509608Y-107004547D01*
G36*
X109701852Y-107006823D02*
X109715894Y-107016153D01*
X109724751Y-107024819D01*
X109728632Y-107034679D01*
X109728048Y-107050357D01*
X109723509Y-107076479D01*
X109722894Y-107079653D01*
X109715920Y-107107775D01*
X109708413Y-107125092D01*
X109703165Y-107129262D01*
X109693827Y-107124150D01*
X109693075Y-107121045D01*
X109688216Y-107116883D01*
X109677722Y-107121045D01*
X109658019Y-107128535D01*
X109643086Y-107124495D01*
X109634111Y-107116789D01*
X109622649Y-107097892D01*
X109649426Y-107097892D01*
X109651145Y-107100562D01*
X109664817Y-107104856D01*
X109680936Y-107100203D01*
X109691144Y-107089284D01*
X109691592Y-107087590D01*
X109688560Y-107076060D01*
X109678754Y-107073700D01*
X109663435Y-107077929D01*
X109652075Y-107087535D01*
X109649426Y-107097892D01*
X109622649Y-107097892D01*
X109622389Y-107097465D01*
X109625375Y-107079816D01*
X109641907Y-107065940D01*
X109666366Y-107058573D01*
X109690348Y-107051083D01*
X109699525Y-107039844D01*
X109696033Y-107029180D01*
X109683894Y-107025979D01*
X109668807Y-107030902D01*
X109662913Y-107035600D01*
X109651461Y-107040756D01*
X109644781Y-107036518D01*
X109642314Y-107027089D01*
X109653917Y-107015487D01*
X109654485Y-107015087D01*
X109679318Y-107003516D01*
X109701852Y-107006823D01*
X109701852Y-107006823D01*
G37*
X109701852Y-107006823D02*
X109715894Y-107016153D01*
X109724751Y-107024819D01*
X109728632Y-107034679D01*
X109728048Y-107050357D01*
X109723509Y-107076479D01*
X109722894Y-107079653D01*
X109715920Y-107107775D01*
X109708413Y-107125092D01*
X109703165Y-107129262D01*
X109693827Y-107124150D01*
X109693075Y-107121045D01*
X109688216Y-107116883D01*
X109677722Y-107121045D01*
X109658019Y-107128535D01*
X109643086Y-107124495D01*
X109634111Y-107116789D01*
X109622649Y-107097892D01*
X109649426Y-107097892D01*
X109651145Y-107100562D01*
X109664817Y-107104856D01*
X109680936Y-107100203D01*
X109691144Y-107089284D01*
X109691592Y-107087590D01*
X109688560Y-107076060D01*
X109678754Y-107073700D01*
X109663435Y-107077929D01*
X109652075Y-107087535D01*
X109649426Y-107097892D01*
X109622649Y-107097892D01*
X109622389Y-107097465D01*
X109625375Y-107079816D01*
X109641907Y-107065940D01*
X109666366Y-107058573D01*
X109690348Y-107051083D01*
X109699525Y-107039844D01*
X109696033Y-107029180D01*
X109683894Y-107025979D01*
X109668807Y-107030902D01*
X109662913Y-107035600D01*
X109651461Y-107040756D01*
X109644781Y-107036518D01*
X109642314Y-107027089D01*
X109653917Y-107015487D01*
X109654485Y-107015087D01*
X109679318Y-107003516D01*
X109701852Y-107006823D01*
G36*
X109808398Y-106984290D02*
X109807070Y-106990356D01*
X109807420Y-107000550D01*
X109811288Y-107002262D01*
X109819078Y-107008677D01*
X109820075Y-107014168D01*
X109814184Y-107024702D01*
X109809070Y-107026075D01*
X109801472Y-107033009D01*
X109795118Y-107049939D01*
X109791021Y-107071057D01*
X109790193Y-107090554D01*
X109793645Y-107102621D01*
X109795516Y-107103878D01*
X109803454Y-107113220D01*
X109804200Y-107118017D01*
X109798263Y-107127059D01*
X109784723Y-107128617D01*
X109769990Y-107122668D01*
X109765170Y-107118149D01*
X109760270Y-107106428D01*
X109761459Y-107087421D01*
X109765529Y-107068983D01*
X109770597Y-107044584D01*
X109770065Y-107031802D01*
X109765843Y-107027841D01*
X109758013Y-107019732D01*
X109757434Y-107008473D01*
X109764350Y-107002292D01*
X109765079Y-107002262D01*
X109777156Y-106997156D01*
X109785490Y-106990356D01*
X109798227Y-106980638D01*
X109804518Y-106978450D01*
X109808398Y-106984290D01*
X109808398Y-106984290D01*
G37*
X109808398Y-106984290D02*
X109807070Y-106990356D01*
X109807420Y-107000550D01*
X109811288Y-107002262D01*
X109819078Y-107008677D01*
X109820075Y-107014168D01*
X109814184Y-107024702D01*
X109809070Y-107026075D01*
X109801472Y-107033009D01*
X109795118Y-107049939D01*
X109791021Y-107071057D01*
X109790193Y-107090554D01*
X109793645Y-107102621D01*
X109795516Y-107103878D01*
X109803454Y-107113220D01*
X109804200Y-107118017D01*
X109798263Y-107127059D01*
X109784723Y-107128617D01*
X109769990Y-107122668D01*
X109765170Y-107118149D01*
X109760270Y-107106428D01*
X109761459Y-107087421D01*
X109765529Y-107068983D01*
X109770597Y-107044584D01*
X109770065Y-107031802D01*
X109765843Y-107027841D01*
X109758013Y-107019732D01*
X109757434Y-107008473D01*
X109764350Y-107002292D01*
X109765079Y-107002262D01*
X109777156Y-106997156D01*
X109785490Y-106990356D01*
X109798227Y-106980638D01*
X109804518Y-106978450D01*
X109808398Y-106984290D01*
G36*
X109949028Y-106967446D02*
X109961706Y-106988678D01*
X109975206Y-107020121D01*
X109997907Y-107077668D01*
X110007476Y-107041950D01*
X110014521Y-107014834D01*
X110020535Y-106990342D01*
X110021899Y-106984403D01*
X110028790Y-106970262D01*
X110038861Y-106962732D01*
X110047398Y-106963813D01*
X110049950Y-106972496D01*
X110048100Y-106986816D01*
X110043684Y-107010740D01*
X110037635Y-107040048D01*
X110030889Y-107070518D01*
X110024378Y-107097928D01*
X110019035Y-107118055D01*
X110015859Y-107126624D01*
X110004774Y-107128827D01*
X109991714Y-107115649D01*
X109976963Y-107087424D01*
X109971535Y-107074263D01*
X109960985Y-107048848D01*
X109952086Y-107030002D01*
X109946958Y-107022033D01*
X109942994Y-107027493D01*
X109937554Y-107044980D01*
X109931746Y-107070859D01*
X109931146Y-107073985D01*
X109924674Y-107103966D01*
X109918479Y-107121115D01*
X109911235Y-107128393D01*
X109906363Y-107129262D01*
X109895839Y-107124914D01*
X109895053Y-107119340D01*
X109897763Y-107107539D01*
X109902493Y-107084169D01*
X109908435Y-107053284D01*
X109911663Y-107035996D01*
X109920366Y-106995496D01*
X109929040Y-106970684D01*
X109938367Y-106961391D01*
X109949028Y-106967446D01*
X109949028Y-106967446D01*
G37*
X109949028Y-106967446D02*
X109961706Y-106988678D01*
X109975206Y-107020121D01*
X109997907Y-107077668D01*
X110007476Y-107041950D01*
X110014521Y-107014834D01*
X110020535Y-106990342D01*
X110021899Y-106984403D01*
X110028790Y-106970262D01*
X110038861Y-106962732D01*
X110047398Y-106963813D01*
X110049950Y-106972496D01*
X110048100Y-106986816D01*
X110043684Y-107010740D01*
X110037635Y-107040048D01*
X110030889Y-107070518D01*
X110024378Y-107097928D01*
X110019035Y-107118055D01*
X110015859Y-107126624D01*
X110004774Y-107128827D01*
X109991714Y-107115649D01*
X109976963Y-107087424D01*
X109971535Y-107074263D01*
X109960985Y-107048848D01*
X109952086Y-107030002D01*
X109946958Y-107022033D01*
X109942994Y-107027493D01*
X109937554Y-107044980D01*
X109931746Y-107070859D01*
X109931146Y-107073985D01*
X109924674Y-107103966D01*
X109918479Y-107121115D01*
X109911235Y-107128393D01*
X109906363Y-107129262D01*
X109895839Y-107124914D01*
X109895053Y-107119340D01*
X109897763Y-107107539D01*
X109902493Y-107084169D01*
X109908435Y-107053284D01*
X109911663Y-107035996D01*
X109920366Y-106995496D01*
X109929040Y-106970684D01*
X109938367Y-106961391D01*
X109949028Y-106967446D01*
G36*
X110152497Y-107010662D02*
X110157741Y-107013650D01*
X110172143Y-107031630D01*
X110177735Y-107057147D01*
X110174152Y-107084297D01*
X110163372Y-107104546D01*
X110141076Y-107120875D01*
X110113944Y-107126373D01*
X110088289Y-107120024D01*
X110083997Y-107117319D01*
X110070793Y-107099137D01*
X110066757Y-107077869D01*
X110090017Y-107077869D01*
X110092469Y-107095636D01*
X110095242Y-107100158D01*
X110110458Y-107105766D01*
X110129420Y-107102338D01*
X110144203Y-107091598D01*
X110145723Y-107089182D01*
X110151551Y-107068678D01*
X110151955Y-107051479D01*
X110143665Y-107033946D01*
X110127722Y-107026308D01*
X110109900Y-107029988D01*
X110100317Y-107038744D01*
X110092843Y-107056355D01*
X110090017Y-107077869D01*
X110066757Y-107077869D01*
X110065884Y-107073275D01*
X110069678Y-107045828D01*
X110078054Y-107028469D01*
X110098795Y-107011352D01*
X110125754Y-107005017D01*
X110152497Y-107010662D01*
X110152497Y-107010662D01*
G37*
X110152497Y-107010662D02*
X110157741Y-107013650D01*
X110172143Y-107031630D01*
X110177735Y-107057147D01*
X110174152Y-107084297D01*
X110163372Y-107104546D01*
X110141076Y-107120875D01*
X110113944Y-107126373D01*
X110088289Y-107120024D01*
X110083997Y-107117319D01*
X110070793Y-107099137D01*
X110066757Y-107077869D01*
X110090017Y-107077869D01*
X110092469Y-107095636D01*
X110095242Y-107100158D01*
X110110458Y-107105766D01*
X110129420Y-107102338D01*
X110144203Y-107091598D01*
X110145723Y-107089182D01*
X110151551Y-107068678D01*
X110151955Y-107051479D01*
X110143665Y-107033946D01*
X110127722Y-107026308D01*
X110109900Y-107029988D01*
X110100317Y-107038744D01*
X110092843Y-107056355D01*
X110090017Y-107077869D01*
X110066757Y-107077869D01*
X110065884Y-107073275D01*
X110069678Y-107045828D01*
X110078054Y-107028469D01*
X110098795Y-107011352D01*
X110125754Y-107005017D01*
X110152497Y-107010662D01*
G36*
X110346936Y-106990049D02*
X110346820Y-106990356D01*
X110347170Y-107000550D01*
X110351038Y-107002262D01*
X110358828Y-107008677D01*
X110359825Y-107014168D01*
X110353934Y-107024702D01*
X110348820Y-107026075D01*
X110341222Y-107033009D01*
X110334868Y-107049939D01*
X110330771Y-107071057D01*
X110329943Y-107090554D01*
X110333395Y-107102621D01*
X110335266Y-107103878D01*
X110343613Y-107112333D01*
X110341344Y-107123250D01*
X110330275Y-107129220D01*
X110329047Y-107129262D01*
X110309922Y-107124161D01*
X110301212Y-107108324D01*
X110302596Y-107080951D01*
X110305094Y-107069716D01*
X110310107Y-107046060D01*
X110309723Y-107032899D01*
X110303770Y-107025740D01*
X110303424Y-107025521D01*
X110292441Y-107023239D01*
X110289710Y-107026329D01*
X110280631Y-107032880D01*
X110272823Y-107034012D01*
X110254479Y-107040516D01*
X110241642Y-107060727D01*
X110236694Y-107077713D01*
X110230045Y-107105472D01*
X110224765Y-107121044D01*
X110219252Y-107127837D01*
X110212446Y-107129262D01*
X110202205Y-107127234D01*
X110201075Y-107125684D01*
X110202512Y-107116560D01*
X110206230Y-107096478D01*
X110211344Y-107070035D01*
X110216967Y-107041827D01*
X110221436Y-107020121D01*
X110229012Y-107006166D01*
X110237480Y-107002262D01*
X110245844Y-107006346D01*
X110244280Y-107020121D01*
X110238791Y-107037981D01*
X110257636Y-107021487D01*
X110276868Y-107009276D01*
X110294420Y-107004115D01*
X110314602Y-106997995D01*
X110324753Y-106990843D01*
X110338717Y-106980305D01*
X110347185Y-106980017D01*
X110346936Y-106990049D01*
X110346936Y-106990049D01*
G37*
X110346936Y-106990049D02*
X110346820Y-106990356D01*
X110347170Y-107000550D01*
X110351038Y-107002262D01*
X110358828Y-107008677D01*
X110359825Y-107014168D01*
X110353934Y-107024702D01*
X110348820Y-107026075D01*
X110341222Y-107033009D01*
X110334868Y-107049939D01*
X110330771Y-107071057D01*
X110329943Y-107090554D01*
X110333395Y-107102621D01*
X110335266Y-107103878D01*
X110343613Y-107112333D01*
X110341344Y-107123250D01*
X110330275Y-107129220D01*
X110329047Y-107129262D01*
X110309922Y-107124161D01*
X110301212Y-107108324D01*
X110302596Y-107080951D01*
X110305094Y-107069716D01*
X110310107Y-107046060D01*
X110309723Y-107032899D01*
X110303770Y-107025740D01*
X110303424Y-107025521D01*
X110292441Y-107023239D01*
X110289710Y-107026329D01*
X110280631Y-107032880D01*
X110272823Y-107034012D01*
X110254479Y-107040516D01*
X110241642Y-107060727D01*
X110236694Y-107077713D01*
X110230045Y-107105472D01*
X110224765Y-107121044D01*
X110219252Y-107127837D01*
X110212446Y-107129262D01*
X110202205Y-107127234D01*
X110201075Y-107125684D01*
X110202512Y-107116560D01*
X110206230Y-107096478D01*
X110211344Y-107070035D01*
X110216967Y-107041827D01*
X110221436Y-107020121D01*
X110229012Y-107006166D01*
X110237480Y-107002262D01*
X110245844Y-107006346D01*
X110244280Y-107020121D01*
X110238791Y-107037981D01*
X110257636Y-107021487D01*
X110276868Y-107009276D01*
X110294420Y-107004115D01*
X110314602Y-106997995D01*
X110324753Y-106990843D01*
X110338717Y-106980305D01*
X110347185Y-106980017D01*
X110346936Y-106990049D01*
G36*
X110418848Y-106968117D02*
X110420678Y-106985408D01*
X110418006Y-107015443D01*
X110410778Y-107059219D01*
X110406034Y-107083621D01*
X110399410Y-107110652D01*
X110392358Y-107124856D01*
X110383330Y-107129245D01*
X110382559Y-107129262D01*
X110372186Y-107124927D01*
X110371621Y-107119340D01*
X110374424Y-107107527D01*
X110379137Y-107084132D01*
X110384958Y-107053217D01*
X110388072Y-107035996D01*
X110395682Y-106998116D01*
X110402617Y-106974528D01*
X110409390Y-106963697D01*
X110412570Y-106962575D01*
X110418848Y-106968117D01*
X110418848Y-106968117D01*
G37*
X110418848Y-106968117D02*
X110420678Y-106985408D01*
X110418006Y-107015443D01*
X110410778Y-107059219D01*
X110406034Y-107083621D01*
X110399410Y-107110652D01*
X110392358Y-107124856D01*
X110383330Y-107129245D01*
X110382559Y-107129262D01*
X110372186Y-107124927D01*
X110371621Y-107119340D01*
X110374424Y-107107527D01*
X110379137Y-107084132D01*
X110384958Y-107053217D01*
X110388072Y-107035996D01*
X110395682Y-106998116D01*
X110402617Y-106974528D01*
X110409390Y-106963697D01*
X110412570Y-106962575D01*
X110418848Y-106968117D01*
G36*
X110470190Y-107006780D02*
X110475575Y-107010744D01*
X110483269Y-107021102D01*
X110485647Y-107037736D01*
X110483758Y-107062830D01*
X110478890Y-107096529D01*
X110473257Y-107117035D01*
X110465794Y-107127030D01*
X110457334Y-107129262D01*
X110449010Y-107124293D01*
X110449866Y-107111403D01*
X110453995Y-107091976D01*
X110458609Y-107066386D01*
X110459580Y-107060424D01*
X110462182Y-107039521D01*
X110459572Y-107029447D01*
X110449432Y-107025426D01*
X110442100Y-107024357D01*
X110419356Y-107021409D01*
X110440949Y-107010668D01*
X110458219Y-107004107D01*
X110470190Y-107006780D01*
X110470190Y-107006780D01*
G37*
X110470190Y-107006780D02*
X110475575Y-107010744D01*
X110483269Y-107021102D01*
X110485647Y-107037736D01*
X110483758Y-107062830D01*
X110478890Y-107096529D01*
X110473257Y-107117035D01*
X110465794Y-107127030D01*
X110457334Y-107129262D01*
X110449010Y-107124293D01*
X110449866Y-107111403D01*
X110453995Y-107091976D01*
X110458609Y-107066386D01*
X110459580Y-107060424D01*
X110462182Y-107039521D01*
X110459572Y-107029447D01*
X110449432Y-107025426D01*
X110442100Y-107024357D01*
X110419356Y-107021409D01*
X110440949Y-107010668D01*
X110458219Y-107004107D01*
X110470190Y-107006780D01*
G36*
X110594485Y-107009234D02*
X110612139Y-107026500D01*
X110621369Y-107048581D01*
X110621763Y-107053856D01*
X110620629Y-107065221D01*
X110614640Y-107071138D01*
X110599909Y-107073374D01*
X110578106Y-107073700D01*
X110551311Y-107074557D01*
X110538059Y-107078072D01*
X110536066Y-107085663D01*
X110541527Y-107096391D01*
X110551441Y-107102934D01*
X110571117Y-107103204D01*
X110583077Y-107101566D01*
X110603763Y-107098702D01*
X110611435Y-107099664D01*
X110608648Y-107105187D01*
X110605888Y-107108118D01*
X110581134Y-107123632D01*
X110554012Y-107124286D01*
X110532122Y-107113260D01*
X110514148Y-107090913D01*
X110511083Y-107065247D01*
X110516121Y-107053738D01*
X110545403Y-107053738D01*
X110555959Y-107057328D01*
X110569320Y-107057825D01*
X110588028Y-107057013D01*
X110597618Y-107055009D01*
X110597950Y-107054505D01*
X110591096Y-107036130D01*
X110574168Y-107026488D01*
X110569320Y-107026075D01*
X110554795Y-107027261D01*
X110550325Y-107029394D01*
X110547856Y-107038724D01*
X110545507Y-107045269D01*
X110545403Y-107053738D01*
X110516121Y-107053738D01*
X110522887Y-107038286D01*
X110533839Y-107025464D01*
X110552474Y-107010651D01*
X110569925Y-107002695D01*
X110573527Y-107002262D01*
X110594485Y-107009234D01*
X110594485Y-107009234D01*
G37*
X110594485Y-107009234D02*
X110612139Y-107026500D01*
X110621369Y-107048581D01*
X110621763Y-107053856D01*
X110620629Y-107065221D01*
X110614640Y-107071138D01*
X110599909Y-107073374D01*
X110578106Y-107073700D01*
X110551311Y-107074557D01*
X110538059Y-107078072D01*
X110536066Y-107085663D01*
X110541527Y-107096391D01*
X110551441Y-107102934D01*
X110571117Y-107103204D01*
X110583077Y-107101566D01*
X110603763Y-107098702D01*
X110611435Y-107099664D01*
X110608648Y-107105187D01*
X110605888Y-107108118D01*
X110581134Y-107123632D01*
X110554012Y-107124286D01*
X110532122Y-107113260D01*
X110514148Y-107090913D01*
X110511083Y-107065247D01*
X110516121Y-107053738D01*
X110545403Y-107053738D01*
X110555959Y-107057328D01*
X110569320Y-107057825D01*
X110588028Y-107057013D01*
X110597618Y-107055009D01*
X110597950Y-107054505D01*
X110591096Y-107036130D01*
X110574168Y-107026488D01*
X110569320Y-107026075D01*
X110554795Y-107027261D01*
X110550325Y-107029394D01*
X110547856Y-107038724D01*
X110545507Y-107045269D01*
X110545403Y-107053738D01*
X110516121Y-107053738D01*
X110522887Y-107038286D01*
X110533839Y-107025464D01*
X110552474Y-107010651D01*
X110569925Y-107002695D01*
X110573527Y-107002262D01*
X110594485Y-107009234D01*
G36*
X110717852Y-107006823D02*
X110731894Y-107016153D01*
X110740751Y-107024819D01*
X110744632Y-107034679D01*
X110744048Y-107050357D01*
X110739509Y-107076479D01*
X110738894Y-107079653D01*
X110731920Y-107107775D01*
X110724413Y-107125092D01*
X110719165Y-107129262D01*
X110709827Y-107124150D01*
X110709075Y-107121045D01*
X110704216Y-107116883D01*
X110693722Y-107121045D01*
X110674019Y-107128535D01*
X110659086Y-107124495D01*
X110650111Y-107116789D01*
X110638649Y-107097892D01*
X110665426Y-107097892D01*
X110667145Y-107100562D01*
X110680817Y-107104856D01*
X110696936Y-107100203D01*
X110707144Y-107089284D01*
X110707592Y-107087590D01*
X110704560Y-107076060D01*
X110694754Y-107073700D01*
X110679435Y-107077929D01*
X110668075Y-107087535D01*
X110665426Y-107097892D01*
X110638649Y-107097892D01*
X110638389Y-107097465D01*
X110641375Y-107079816D01*
X110657907Y-107065940D01*
X110682366Y-107058573D01*
X110706348Y-107051083D01*
X110715525Y-107039844D01*
X110712033Y-107029180D01*
X110699894Y-107025979D01*
X110684807Y-107030902D01*
X110678913Y-107035600D01*
X110667461Y-107040756D01*
X110660781Y-107036518D01*
X110658314Y-107027089D01*
X110669917Y-107015487D01*
X110670485Y-107015087D01*
X110695318Y-107003516D01*
X110717852Y-107006823D01*
X110717852Y-107006823D01*
G37*
X110717852Y-107006823D02*
X110731894Y-107016153D01*
X110740751Y-107024819D01*
X110744632Y-107034679D01*
X110744048Y-107050357D01*
X110739509Y-107076479D01*
X110738894Y-107079653D01*
X110731920Y-107107775D01*
X110724413Y-107125092D01*
X110719165Y-107129262D01*
X110709827Y-107124150D01*
X110709075Y-107121045D01*
X110704216Y-107116883D01*
X110693722Y-107121045D01*
X110674019Y-107128535D01*
X110659086Y-107124495D01*
X110650111Y-107116789D01*
X110638649Y-107097892D01*
X110665426Y-107097892D01*
X110667145Y-107100562D01*
X110680817Y-107104856D01*
X110696936Y-107100203D01*
X110707144Y-107089284D01*
X110707592Y-107087590D01*
X110704560Y-107076060D01*
X110694754Y-107073700D01*
X110679435Y-107077929D01*
X110668075Y-107087535D01*
X110665426Y-107097892D01*
X110638649Y-107097892D01*
X110638389Y-107097465D01*
X110641375Y-107079816D01*
X110657907Y-107065940D01*
X110682366Y-107058573D01*
X110706348Y-107051083D01*
X110715525Y-107039844D01*
X110712033Y-107029180D01*
X110699894Y-107025979D01*
X110684807Y-107030902D01*
X110678913Y-107035600D01*
X110667461Y-107040756D01*
X110660781Y-107036518D01*
X110658314Y-107027089D01*
X110669917Y-107015487D01*
X110670485Y-107015087D01*
X110695318Y-107003516D01*
X110717852Y-107006823D01*
G36*
X110845632Y-107007216D02*
X110860231Y-107016819D01*
X110871733Y-107027596D01*
X110871056Y-107033506D01*
X110865333Y-107036316D01*
X110852029Y-107036863D01*
X110847767Y-107033665D01*
X110837719Y-107027877D01*
X110822258Y-107026283D01*
X110808758Y-107028835D01*
X110804325Y-107033950D01*
X110810853Y-107041924D01*
X110827183Y-107052348D01*
X110834091Y-107055809D01*
X110857368Y-107071615D01*
X110866492Y-107089358D01*
X110860922Y-107107053D01*
X110850635Y-107116589D01*
X110822840Y-107127805D01*
X110792359Y-107123747D01*
X110782497Y-107119574D01*
X110768906Y-107110811D01*
X110764638Y-107104705D01*
X110770627Y-107094625D01*
X110783707Y-107093103D01*
X110792330Y-107097438D01*
X110807563Y-107103456D01*
X110825649Y-107103170D01*
X110839037Y-107097178D01*
X110841318Y-107093543D01*
X110836293Y-107085968D01*
X110820681Y-107076218D01*
X110812174Y-107072305D01*
X110788824Y-107057897D01*
X110780422Y-107041400D01*
X110787304Y-107024191D01*
X110798154Y-107014618D01*
X110822721Y-107003406D01*
X110845632Y-107007216D01*
X110845632Y-107007216D01*
G37*
X110845632Y-107007216D02*
X110860231Y-107016819D01*
X110871733Y-107027596D01*
X110871056Y-107033506D01*
X110865333Y-107036316D01*
X110852029Y-107036863D01*
X110847767Y-107033665D01*
X110837719Y-107027877D01*
X110822258Y-107026283D01*
X110808758Y-107028835D01*
X110804325Y-107033950D01*
X110810853Y-107041924D01*
X110827183Y-107052348D01*
X110834091Y-107055809D01*
X110857368Y-107071615D01*
X110866492Y-107089358D01*
X110860922Y-107107053D01*
X110850635Y-107116589D01*
X110822840Y-107127805D01*
X110792359Y-107123747D01*
X110782497Y-107119574D01*
X110768906Y-107110811D01*
X110764638Y-107104705D01*
X110770627Y-107094625D01*
X110783707Y-107093103D01*
X110792330Y-107097438D01*
X110807563Y-107103456D01*
X110825649Y-107103170D01*
X110839037Y-107097178D01*
X110841318Y-107093543D01*
X110836293Y-107085968D01*
X110820681Y-107076218D01*
X110812174Y-107072305D01*
X110788824Y-107057897D01*
X110780422Y-107041400D01*
X110787304Y-107024191D01*
X110798154Y-107014618D01*
X110822721Y-107003406D01*
X110845632Y-107007216D01*
G36*
X110951710Y-106980410D02*
X110955138Y-106989694D01*
X110961099Y-107002181D01*
X110965059Y-107004570D01*
X110968337Y-107011240D01*
X110957999Y-107024534D01*
X110957122Y-107025385D01*
X110944320Y-107041780D01*
X110939154Y-107056149D01*
X110937016Y-107074921D01*
X110934260Y-107087590D01*
X110933464Y-107101525D01*
X110942902Y-107105449D01*
X110942967Y-107105450D01*
X110952283Y-107109901D01*
X110951433Y-107119029D01*
X110941685Y-107126499D01*
X110938605Y-107127268D01*
X110922221Y-107125019D01*
X110916291Y-107122124D01*
X110910425Y-107110032D01*
X110909591Y-107087995D01*
X110913548Y-107061044D01*
X110920251Y-107038675D01*
X110919560Y-107028004D01*
X110912580Y-107026075D01*
X110903790Y-107021104D01*
X110904642Y-107014168D01*
X110914162Y-107003628D01*
X110919419Y-107002262D01*
X110930906Y-106995876D01*
X110934195Y-106990356D01*
X110942666Y-106979912D01*
X110951710Y-106980410D01*
X110951710Y-106980410D01*
G37*
X110951710Y-106980410D02*
X110955138Y-106989694D01*
X110961099Y-107002181D01*
X110965059Y-107004570D01*
X110968337Y-107011240D01*
X110957999Y-107024534D01*
X110957122Y-107025385D01*
X110944320Y-107041780D01*
X110939154Y-107056149D01*
X110937016Y-107074921D01*
X110934260Y-107087590D01*
X110933464Y-107101525D01*
X110942902Y-107105449D01*
X110942967Y-107105450D01*
X110952283Y-107109901D01*
X110951433Y-107119029D01*
X110941685Y-107126499D01*
X110938605Y-107127268D01*
X110922221Y-107125019D01*
X110916291Y-107122124D01*
X110910425Y-107110032D01*
X110909591Y-107087995D01*
X110913548Y-107061044D01*
X110920251Y-107038675D01*
X110919560Y-107028004D01*
X110912580Y-107026075D01*
X110903790Y-107021104D01*
X110904642Y-107014168D01*
X110914162Y-107003628D01*
X110919419Y-107002262D01*
X110930906Y-106995876D01*
X110934195Y-106990356D01*
X110942666Y-106979912D01*
X110951710Y-106980410D01*
G36*
X111055798Y-107009978D02*
X111073440Y-107023555D01*
X111081916Y-107045386D01*
X111082138Y-107050070D01*
X111081256Y-107064059D01*
X111075880Y-107071034D01*
X111061916Y-107073435D01*
X111042450Y-107073700D01*
X111017639Y-107074928D01*
X111005471Y-107079244D01*
X111002763Y-107085855D01*
X111009167Y-107098889D01*
X111024252Y-107104230D01*
X111041827Y-107099739D01*
X111042227Y-107099493D01*
X111057909Y-107095219D01*
X111065797Y-107097224D01*
X111069667Y-107104321D01*
X111059965Y-107114471D01*
X111057367Y-107116339D01*
X111033348Y-107127896D01*
X111011148Y-107125254D01*
X110996591Y-107116906D01*
X110983615Y-107099156D01*
X110978703Y-107073623D01*
X110981502Y-107052251D01*
X111006641Y-107052251D01*
X111011599Y-107056832D01*
X111029007Y-107057822D01*
X111030846Y-107057825D01*
X111049986Y-107056304D01*
X111057002Y-107050473D01*
X111056842Y-107043934D01*
X111048068Y-107031140D01*
X111032684Y-107027658D01*
X111017178Y-107033838D01*
X111010958Y-107041468D01*
X111006641Y-107052251D01*
X110981502Y-107052251D01*
X110982265Y-107046434D01*
X110990671Y-107028748D01*
X111010133Y-107011577D01*
X111033269Y-107005653D01*
X111055798Y-107009978D01*
X111055798Y-107009978D01*
G37*
X111055798Y-107009978D02*
X111073440Y-107023555D01*
X111081916Y-107045386D01*
X111082138Y-107050070D01*
X111081256Y-107064059D01*
X111075880Y-107071034D01*
X111061916Y-107073435D01*
X111042450Y-107073700D01*
X111017639Y-107074928D01*
X111005471Y-107079244D01*
X111002763Y-107085855D01*
X111009167Y-107098889D01*
X111024252Y-107104230D01*
X111041827Y-107099739D01*
X111042227Y-107099493D01*
X111057909Y-107095219D01*
X111065797Y-107097224D01*
X111069667Y-107104321D01*
X111059965Y-107114471D01*
X111057367Y-107116339D01*
X111033348Y-107127896D01*
X111011148Y-107125254D01*
X110996591Y-107116906D01*
X110983615Y-107099156D01*
X110978703Y-107073623D01*
X110981502Y-107052251D01*
X111006641Y-107052251D01*
X111011599Y-107056832D01*
X111029007Y-107057822D01*
X111030846Y-107057825D01*
X111049986Y-107056304D01*
X111057002Y-107050473D01*
X111056842Y-107043934D01*
X111048068Y-107031140D01*
X111032684Y-107027658D01*
X111017178Y-107033838D01*
X111010958Y-107041468D01*
X111006641Y-107052251D01*
X110981502Y-107052251D01*
X110982265Y-107046434D01*
X110990671Y-107028748D01*
X111010133Y-107011577D01*
X111033269Y-107005653D01*
X111055798Y-107009978D01*
G36*
X111143608Y-107008880D02*
X111145638Y-107018137D01*
X111146280Y-107028874D01*
X111150776Y-107028385D01*
X111161513Y-107018137D01*
X111178633Y-107004804D01*
X111189753Y-107004072D01*
X111193263Y-107014365D01*
X111186633Y-107025984D01*
X111173901Y-107033829D01*
X111155317Y-107045401D01*
X111142712Y-107065524D01*
X111133915Y-107097737D01*
X111133552Y-107099643D01*
X111127096Y-107119765D01*
X111118388Y-107129069D01*
X111116973Y-107129262D01*
X111106994Y-107124423D01*
X111105950Y-107120869D01*
X111107173Y-107109274D01*
X111110384Y-107086821D01*
X111114898Y-107058297D01*
X111115051Y-107057369D01*
X111122154Y-107023687D01*
X111129745Y-107005588D01*
X111134894Y-107002262D01*
X111143608Y-107008880D01*
X111143608Y-107008880D01*
G37*
X111143608Y-107008880D02*
X111145638Y-107018137D01*
X111146280Y-107028874D01*
X111150776Y-107028385D01*
X111161513Y-107018137D01*
X111178633Y-107004804D01*
X111189753Y-107004072D01*
X111193263Y-107014365D01*
X111186633Y-107025984D01*
X111173901Y-107033829D01*
X111155317Y-107045401D01*
X111142712Y-107065524D01*
X111133915Y-107097737D01*
X111133552Y-107099643D01*
X111127096Y-107119765D01*
X111118388Y-107129069D01*
X111116973Y-107129262D01*
X111106994Y-107124423D01*
X111105950Y-107120869D01*
X111107173Y-107109274D01*
X111110384Y-107086821D01*
X111114898Y-107058297D01*
X111115051Y-107057369D01*
X111122154Y-107023687D01*
X111129745Y-107005588D01*
X111134894Y-107002262D01*
X111143608Y-107008880D01*
G36*
X111236964Y-107005340D02*
X111236042Y-107013592D01*
X111234378Y-107024164D01*
X111242338Y-107024043D01*
X111259892Y-107013988D01*
X111281304Y-107006294D01*
X111299115Y-107011200D01*
X111307392Y-107022456D01*
X111309197Y-107038472D01*
X111307057Y-107061657D01*
X111302083Y-107087137D01*
X111295384Y-107110038D01*
X111288071Y-107125488D01*
X111283064Y-107129262D01*
X111276930Y-107126650D01*
X111274406Y-107116680D01*
X111275111Y-107096153D01*
X111276899Y-107077668D01*
X111279498Y-107049957D01*
X111279329Y-107034469D01*
X111275692Y-107027684D01*
X111267883Y-107026085D01*
X111266597Y-107026075D01*
X111250591Y-107029934D01*
X111238735Y-107043205D01*
X111229311Y-107068426D01*
X111224580Y-107088131D01*
X111216776Y-107114789D01*
X111207990Y-107128088D01*
X111204511Y-107129262D01*
X111194695Y-107123713D01*
X111193752Y-107119340D01*
X111195418Y-107106815D01*
X111199285Y-107083874D01*
X111204072Y-107057857D01*
X111211387Y-107026796D01*
X111219230Y-107009420D01*
X111227367Y-107003702D01*
X111236964Y-107005340D01*
X111236964Y-107005340D01*
G37*
X111236964Y-107005340D02*
X111236042Y-107013592D01*
X111234378Y-107024164D01*
X111242338Y-107024043D01*
X111259892Y-107013988D01*
X111281304Y-107006294D01*
X111299115Y-107011200D01*
X111307392Y-107022456D01*
X111309197Y-107038472D01*
X111307057Y-107061657D01*
X111302083Y-107087137D01*
X111295384Y-107110038D01*
X111288071Y-107125488D01*
X111283064Y-107129262D01*
X111276930Y-107126650D01*
X111274406Y-107116680D01*
X111275111Y-107096153D01*
X111276899Y-107077668D01*
X111279498Y-107049957D01*
X111279329Y-107034469D01*
X111275692Y-107027684D01*
X111267883Y-107026085D01*
X111266597Y-107026075D01*
X111250591Y-107029934D01*
X111238735Y-107043205D01*
X111229311Y-107068426D01*
X111224580Y-107088131D01*
X111216776Y-107114789D01*
X111207990Y-107128088D01*
X111204511Y-107129262D01*
X111194695Y-107123713D01*
X111193752Y-107119340D01*
X111195418Y-107106815D01*
X111199285Y-107083874D01*
X111204072Y-107057857D01*
X111211387Y-107026796D01*
X111219230Y-107009420D01*
X111227367Y-107003702D01*
X111236964Y-107005340D01*
G36*
X111548078Y-106969273D02*
X111550326Y-106980434D01*
X111547623Y-107006809D01*
X111540872Y-107038086D01*
X111531649Y-107068878D01*
X111521528Y-107093798D01*
X111513543Y-107106197D01*
X111489642Y-107120528D01*
X111459916Y-107126006D01*
X111434070Y-107121636D01*
X111418251Y-107109752D01*
X111410959Y-107089617D01*
X111411697Y-107058944D01*
X111415507Y-107035943D01*
X111422569Y-107001593D01*
X111427975Y-106979979D01*
X111432842Y-106968206D01*
X111438289Y-106963380D01*
X111443829Y-106962575D01*
X111454069Y-106963700D01*
X111455191Y-106964559D01*
X111453810Y-106972720D01*
X111450165Y-106992516D01*
X111444987Y-107019991D01*
X111443879Y-107025810D01*
X111438934Y-107054990D01*
X111436185Y-107077995D01*
X111436124Y-107090513D01*
X111436419Y-107091294D01*
X111446201Y-107095503D01*
X111464948Y-107097489D01*
X111467295Y-107097512D01*
X111484434Y-107095784D01*
X111496618Y-107088781D01*
X111505587Y-107073780D01*
X111513080Y-107048055D01*
X111519625Y-107015525D01*
X111526942Y-106984134D01*
X111534646Y-106966280D01*
X111539916Y-106962575D01*
X111548078Y-106969273D01*
X111548078Y-106969273D01*
G37*
X111548078Y-106969273D02*
X111550326Y-106980434D01*
X111547623Y-107006809D01*
X111540872Y-107038086D01*
X111531649Y-107068878D01*
X111521528Y-107093798D01*
X111513543Y-107106197D01*
X111489642Y-107120528D01*
X111459916Y-107126006D01*
X111434070Y-107121636D01*
X111418251Y-107109752D01*
X111410959Y-107089617D01*
X111411697Y-107058944D01*
X111415507Y-107035943D01*
X111422569Y-107001593D01*
X111427975Y-106979979D01*
X111432842Y-106968206D01*
X111438289Y-106963380D01*
X111443829Y-106962575D01*
X111454069Y-106963700D01*
X111455191Y-106964559D01*
X111453810Y-106972720D01*
X111450165Y-106992516D01*
X111444987Y-107019991D01*
X111443879Y-107025810D01*
X111438934Y-107054990D01*
X111436185Y-107077995D01*
X111436124Y-107090513D01*
X111436419Y-107091294D01*
X111446201Y-107095503D01*
X111464948Y-107097489D01*
X111467295Y-107097512D01*
X111484434Y-107095784D01*
X111496618Y-107088781D01*
X111505587Y-107073780D01*
X111513080Y-107048055D01*
X111519625Y-107015525D01*
X111526942Y-106984134D01*
X111534646Y-106966280D01*
X111539916Y-106962575D01*
X111548078Y-106969273D01*
G36*
X111610027Y-107005340D02*
X111609104Y-107013592D01*
X111607440Y-107024164D01*
X111615401Y-107024043D01*
X111632955Y-107013988D01*
X111654367Y-107006294D01*
X111672177Y-107011200D01*
X111680455Y-107022456D01*
X111682260Y-107038472D01*
X111680120Y-107061657D01*
X111675146Y-107087137D01*
X111668447Y-107110038D01*
X111661133Y-107125488D01*
X111656126Y-107129262D01*
X111649992Y-107126650D01*
X111647469Y-107116680D01*
X111648173Y-107096153D01*
X111649962Y-107077668D01*
X111652560Y-107049957D01*
X111652392Y-107034469D01*
X111648755Y-107027684D01*
X111640946Y-107026085D01*
X111639659Y-107026075D01*
X111623653Y-107029934D01*
X111611798Y-107043205D01*
X111602374Y-107068426D01*
X111597643Y-107088131D01*
X111589838Y-107114789D01*
X111581053Y-107128088D01*
X111577574Y-107129262D01*
X111567757Y-107123713D01*
X111566814Y-107119340D01*
X111568480Y-107106815D01*
X111572348Y-107083874D01*
X111577134Y-107057857D01*
X111584450Y-107026796D01*
X111592293Y-107009420D01*
X111600429Y-107003702D01*
X111610027Y-107005340D01*
X111610027Y-107005340D01*
G37*
X111610027Y-107005340D02*
X111609104Y-107013592D01*
X111607440Y-107024164D01*
X111615401Y-107024043D01*
X111632955Y-107013988D01*
X111654367Y-107006294D01*
X111672177Y-107011200D01*
X111680455Y-107022456D01*
X111682260Y-107038472D01*
X111680120Y-107061657D01*
X111675146Y-107087137D01*
X111668447Y-107110038D01*
X111661133Y-107125488D01*
X111656126Y-107129262D01*
X111649992Y-107126650D01*
X111647469Y-107116680D01*
X111648173Y-107096153D01*
X111649962Y-107077668D01*
X111652560Y-107049957D01*
X111652392Y-107034469D01*
X111648755Y-107027684D01*
X111640946Y-107026085D01*
X111639659Y-107026075D01*
X111623653Y-107029934D01*
X111611798Y-107043205D01*
X111602374Y-107068426D01*
X111597643Y-107088131D01*
X111589838Y-107114789D01*
X111581053Y-107128088D01*
X111577574Y-107129262D01*
X111567757Y-107123713D01*
X111566814Y-107119340D01*
X111568480Y-107106815D01*
X111572348Y-107083874D01*
X111577134Y-107057857D01*
X111584450Y-107026796D01*
X111592293Y-107009420D01*
X111600429Y-107003702D01*
X111610027Y-107005340D01*
G36*
X111754642Y-107004306D02*
X111755464Y-107015164D01*
X111754578Y-107019336D01*
X111750601Y-107037427D01*
X111745022Y-107064096D01*
X111741051Y-107083621D01*
X111733152Y-107113254D01*
X111724473Y-107127788D01*
X111720543Y-107129262D01*
X111711125Y-107122786D01*
X111709546Y-107115371D01*
X111711295Y-107100384D01*
X111715467Y-107075879D01*
X111719784Y-107053904D01*
X111727260Y-107024854D01*
X111735396Y-107008911D01*
X111744307Y-107003509D01*
X111754642Y-107004306D01*
X111754642Y-107004306D01*
G37*
X111754642Y-107004306D02*
X111755464Y-107015164D01*
X111754578Y-107019336D01*
X111750601Y-107037427D01*
X111745022Y-107064096D01*
X111741051Y-107083621D01*
X111733152Y-107113254D01*
X111724473Y-107127788D01*
X111720543Y-107129262D01*
X111711125Y-107122786D01*
X111709546Y-107115371D01*
X111711295Y-107100384D01*
X111715467Y-107075879D01*
X111719784Y-107053904D01*
X111727260Y-107024854D01*
X111735396Y-107008911D01*
X111744307Y-107003509D01*
X111754642Y-107004306D01*
G36*
X111886765Y-107002334D02*
X111889783Y-107004246D01*
X111888591Y-107010541D01*
X111882296Y-107023763D01*
X111870006Y-107046454D01*
X111856044Y-107071710D01*
X111836091Y-107105242D01*
X111820815Y-107123987D01*
X111809210Y-107127983D01*
X111800270Y-107117267D01*
X111792992Y-107091875D01*
X111789738Y-107074155D01*
X111784309Y-107040385D01*
X111781656Y-107019286D01*
X111781873Y-107007883D01*
X111785052Y-107003201D01*
X111791285Y-107002264D01*
X111791973Y-107002262D01*
X111800198Y-107009052D01*
X111806371Y-107030109D01*
X111808762Y-107045918D01*
X111812624Y-107069785D01*
X111816874Y-107085642D01*
X111819586Y-107089575D01*
X111825618Y-107083025D01*
X111835919Y-107065986D01*
X111846366Y-107045918D01*
X111860612Y-107020969D01*
X111873560Y-107005615D01*
X111880431Y-107002262D01*
X111886765Y-107002334D01*
X111886765Y-107002334D01*
G37*
X111886765Y-107002334D02*
X111889783Y-107004246D01*
X111888591Y-107010541D01*
X111882296Y-107023763D01*
X111870006Y-107046454D01*
X111856044Y-107071710D01*
X111836091Y-107105242D01*
X111820815Y-107123987D01*
X111809210Y-107127983D01*
X111800270Y-107117267D01*
X111792992Y-107091875D01*
X111789738Y-107074155D01*
X111784309Y-107040385D01*
X111781656Y-107019286D01*
X111781873Y-107007883D01*
X111785052Y-107003201D01*
X111791285Y-107002264D01*
X111791973Y-107002262D01*
X111800198Y-107009052D01*
X111806371Y-107030109D01*
X111808762Y-107045918D01*
X111812624Y-107069785D01*
X111816874Y-107085642D01*
X111819586Y-107089575D01*
X111825618Y-107083025D01*
X111835919Y-107065986D01*
X111846366Y-107045918D01*
X111860612Y-107020969D01*
X111873560Y-107005615D01*
X111880431Y-107002262D01*
X111886765Y-107002334D01*
G36*
X111984485Y-107009978D02*
X112002127Y-107023555D01*
X112010603Y-107045386D01*
X112010825Y-107050070D01*
X112009943Y-107064059D01*
X112004567Y-107071034D01*
X111990604Y-107073435D01*
X111971138Y-107073700D01*
X111946326Y-107074928D01*
X111934158Y-107079244D01*
X111931450Y-107085855D01*
X111937854Y-107098889D01*
X111952939Y-107104230D01*
X111970514Y-107099739D01*
X111970915Y-107099493D01*
X111986596Y-107095219D01*
X111994484Y-107097224D01*
X111998354Y-107104321D01*
X111988653Y-107114471D01*
X111986055Y-107116339D01*
X111962035Y-107127896D01*
X111939835Y-107125254D01*
X111925279Y-107116906D01*
X111912303Y-107099156D01*
X111907390Y-107073623D01*
X111910190Y-107052251D01*
X111935328Y-107052251D01*
X111940287Y-107056832D01*
X111957695Y-107057822D01*
X111959534Y-107057825D01*
X111978674Y-107056304D01*
X111985689Y-107050473D01*
X111985529Y-107043934D01*
X111976756Y-107031140D01*
X111961371Y-107027658D01*
X111945866Y-107033838D01*
X111939645Y-107041468D01*
X111935328Y-107052251D01*
X111910190Y-107052251D01*
X111910953Y-107046434D01*
X111919359Y-107028748D01*
X111938821Y-107011577D01*
X111961956Y-107005653D01*
X111984485Y-107009978D01*
X111984485Y-107009978D01*
G37*
X111984485Y-107009978D02*
X112002127Y-107023555D01*
X112010603Y-107045386D01*
X112010825Y-107050070D01*
X112009943Y-107064059D01*
X112004567Y-107071034D01*
X111990604Y-107073435D01*
X111971138Y-107073700D01*
X111946326Y-107074928D01*
X111934158Y-107079244D01*
X111931450Y-107085855D01*
X111937854Y-107098889D01*
X111952939Y-107104230D01*
X111970514Y-107099739D01*
X111970915Y-107099493D01*
X111986596Y-107095219D01*
X111994484Y-107097224D01*
X111998354Y-107104321D01*
X111988653Y-107114471D01*
X111986055Y-107116339D01*
X111962035Y-107127896D01*
X111939835Y-107125254D01*
X111925279Y-107116906D01*
X111912303Y-107099156D01*
X111907390Y-107073623D01*
X111910190Y-107052251D01*
X111935328Y-107052251D01*
X111940287Y-107056832D01*
X111957695Y-107057822D01*
X111959534Y-107057825D01*
X111978674Y-107056304D01*
X111985689Y-107050473D01*
X111985529Y-107043934D01*
X111976756Y-107031140D01*
X111961371Y-107027658D01*
X111945866Y-107033838D01*
X111939645Y-107041468D01*
X111935328Y-107052251D01*
X111910190Y-107052251D01*
X111910953Y-107046434D01*
X111919359Y-107028748D01*
X111938821Y-107011577D01*
X111961956Y-107005653D01*
X111984485Y-107009978D01*
G36*
X112071469Y-107006346D02*
X112069905Y-107020121D01*
X112064416Y-107037981D01*
X112083773Y-107020121D01*
X112101195Y-107005894D01*
X112110588Y-107003883D01*
X112113904Y-107013961D01*
X112114013Y-107018137D01*
X112108319Y-107031506D01*
X112099109Y-107034012D01*
X112080526Y-107040230D01*
X112067631Y-107059756D01*
X112062319Y-107077713D01*
X112055670Y-107105472D01*
X112050390Y-107121044D01*
X112044877Y-107127837D01*
X112038071Y-107129262D01*
X112027830Y-107127234D01*
X112026700Y-107125684D01*
X112028137Y-107116560D01*
X112031855Y-107096478D01*
X112036969Y-107070035D01*
X112042592Y-107041827D01*
X112047061Y-107020121D01*
X112054637Y-107006166D01*
X112063105Y-107002262D01*
X112071469Y-107006346D01*
X112071469Y-107006346D01*
G37*
X112071469Y-107006346D02*
X112069905Y-107020121D01*
X112064416Y-107037981D01*
X112083773Y-107020121D01*
X112101195Y-107005894D01*
X112110588Y-107003883D01*
X112113904Y-107013961D01*
X112114013Y-107018137D01*
X112108319Y-107031506D01*
X112099109Y-107034012D01*
X112080526Y-107040230D01*
X112067631Y-107059756D01*
X112062319Y-107077713D01*
X112055670Y-107105472D01*
X112050390Y-107121044D01*
X112044877Y-107127837D01*
X112038071Y-107129262D01*
X112027830Y-107127234D01*
X112026700Y-107125684D01*
X112028137Y-107116560D01*
X112031855Y-107096478D01*
X112036969Y-107070035D01*
X112042592Y-107041827D01*
X112047061Y-107020121D01*
X112054637Y-107006166D01*
X112063105Y-107002262D01*
X112071469Y-107006346D01*
G36*
X112208032Y-107009759D02*
X112220559Y-107017748D01*
X112224313Y-107027073D01*
X112216200Y-107035595D01*
X112213231Y-107036882D01*
X112203010Y-107037047D01*
X112201325Y-107033763D01*
X112194892Y-107027936D01*
X112180483Y-107026277D01*
X112165432Y-107028761D01*
X112157730Y-107033913D01*
X112161326Y-107041233D01*
X112176034Y-107050603D01*
X112185043Y-107054619D01*
X112208536Y-107069053D01*
X112217773Y-107086534D01*
X112212247Y-107104880D01*
X112199559Y-107116906D01*
X112177458Y-107127403D01*
X112154056Y-107126012D01*
X112140622Y-107121378D01*
X112123102Y-107111265D01*
X112118273Y-107101397D01*
X112125710Y-107094722D01*
X112138463Y-107094831D01*
X112142008Y-107097859D01*
X112152569Y-107103324D01*
X112170043Y-107105450D01*
X112188211Y-107101950D01*
X112193010Y-107093429D01*
X112184791Y-107082847D01*
X112166308Y-107073931D01*
X112146924Y-107064783D01*
X112135206Y-107054186D01*
X112134587Y-107052897D01*
X112134606Y-107033552D01*
X112147222Y-107016594D01*
X112169043Y-107006348D01*
X112189828Y-107005246D01*
X112208032Y-107009759D01*
X112208032Y-107009759D01*
G37*
X112208032Y-107009759D02*
X112220559Y-107017748D01*
X112224313Y-107027073D01*
X112216200Y-107035595D01*
X112213231Y-107036882D01*
X112203010Y-107037047D01*
X112201325Y-107033763D01*
X112194892Y-107027936D01*
X112180483Y-107026277D01*
X112165432Y-107028761D01*
X112157730Y-107033913D01*
X112161326Y-107041233D01*
X112176034Y-107050603D01*
X112185043Y-107054619D01*
X112208536Y-107069053D01*
X112217773Y-107086534D01*
X112212247Y-107104880D01*
X112199559Y-107116906D01*
X112177458Y-107127403D01*
X112154056Y-107126012D01*
X112140622Y-107121378D01*
X112123102Y-107111265D01*
X112118273Y-107101397D01*
X112125710Y-107094722D01*
X112138463Y-107094831D01*
X112142008Y-107097859D01*
X112152569Y-107103324D01*
X112170043Y-107105450D01*
X112188211Y-107101950D01*
X112193010Y-107093429D01*
X112184791Y-107082847D01*
X112166308Y-107073931D01*
X112146924Y-107064783D01*
X112135206Y-107054186D01*
X112134587Y-107052897D01*
X112134606Y-107033552D01*
X112147222Y-107016594D01*
X112169043Y-107006348D01*
X112189828Y-107005246D01*
X112208032Y-107009759D01*
G36*
X112294392Y-107004306D02*
X112295214Y-107015164D01*
X112294328Y-107019336D01*
X112290351Y-107037427D01*
X112284772Y-107064096D01*
X112280801Y-107083621D01*
X112272902Y-107113254D01*
X112264223Y-107127788D01*
X112260293Y-107129262D01*
X112250875Y-107122786D01*
X112249296Y-107115371D01*
X112251045Y-107100384D01*
X112255217Y-107075879D01*
X112259534Y-107053904D01*
X112267010Y-107024854D01*
X112275146Y-107008911D01*
X112284057Y-107003509D01*
X112294392Y-107004306D01*
X112294392Y-107004306D01*
G37*
X112294392Y-107004306D02*
X112295214Y-107015164D01*
X112294328Y-107019336D01*
X112290351Y-107037427D01*
X112284772Y-107064096D01*
X112280801Y-107083621D01*
X112272902Y-107113254D01*
X112264223Y-107127788D01*
X112260293Y-107129262D01*
X112250875Y-107122786D01*
X112249296Y-107115371D01*
X112251045Y-107100384D01*
X112255217Y-107075879D01*
X112259534Y-107053904D01*
X112267010Y-107024854D01*
X112275146Y-107008911D01*
X112284057Y-107003509D01*
X112294392Y-107004306D01*
G36*
X112364585Y-106980410D02*
X112368013Y-106989694D01*
X112373974Y-107002181D01*
X112377934Y-107004570D01*
X112381212Y-107011240D01*
X112370874Y-107024534D01*
X112369997Y-107025385D01*
X112357195Y-107041780D01*
X112352029Y-107056149D01*
X112349891Y-107074921D01*
X112347135Y-107087590D01*
X112346339Y-107101525D01*
X112355777Y-107105449D01*
X112355842Y-107105450D01*
X112365158Y-107109901D01*
X112364308Y-107119029D01*
X112354560Y-107126499D01*
X112351480Y-107127268D01*
X112335096Y-107125019D01*
X112329166Y-107122124D01*
X112323300Y-107110032D01*
X112322466Y-107087995D01*
X112326423Y-107061044D01*
X112333126Y-107038675D01*
X112332435Y-107028004D01*
X112325455Y-107026075D01*
X112316665Y-107021104D01*
X112317517Y-107014168D01*
X112327037Y-107003628D01*
X112332294Y-107002262D01*
X112343781Y-106995876D01*
X112347070Y-106990356D01*
X112355541Y-106979912D01*
X112364585Y-106980410D01*
X112364585Y-106980410D01*
G37*
X112364585Y-106980410D02*
X112368013Y-106989694D01*
X112373974Y-107002181D01*
X112377934Y-107004570D01*
X112381212Y-107011240D01*
X112370874Y-107024534D01*
X112369997Y-107025385D01*
X112357195Y-107041780D01*
X112352029Y-107056149D01*
X112349891Y-107074921D01*
X112347135Y-107087590D01*
X112346339Y-107101525D01*
X112355777Y-107105449D01*
X112355842Y-107105450D01*
X112365158Y-107109901D01*
X112364308Y-107119029D01*
X112354560Y-107126499D01*
X112351480Y-107127268D01*
X112335096Y-107125019D01*
X112329166Y-107122124D01*
X112323300Y-107110032D01*
X112322466Y-107087995D01*
X112326423Y-107061044D01*
X112333126Y-107038675D01*
X112332435Y-107028004D01*
X112325455Y-107026075D01*
X112316665Y-107021104D01*
X112317517Y-107014168D01*
X112327037Y-107003628D01*
X112332294Y-107002262D01*
X112343781Y-106995876D01*
X112347070Y-106990356D01*
X112355541Y-106979912D01*
X112364585Y-106980410D01*
G36*
X111763961Y-106969773D02*
X111764763Y-106973899D01*
X111758086Y-106984203D01*
X111748226Y-106986387D01*
X111736129Y-106982595D01*
X111734993Y-106976465D01*
X111743534Y-106966582D01*
X111755536Y-106964149D01*
X111763961Y-106969773D01*
X111763961Y-106969773D01*
G37*
X111763961Y-106969773D02*
X111764763Y-106973899D01*
X111758086Y-106984203D01*
X111748226Y-106986387D01*
X111736129Y-106982595D01*
X111734993Y-106976465D01*
X111743534Y-106966582D01*
X111755536Y-106964149D01*
X111763961Y-106969773D01*
G36*
X112303711Y-106969773D02*
X112304513Y-106973899D01*
X112297836Y-106984203D01*
X112287976Y-106986387D01*
X112275879Y-106982595D01*
X112274743Y-106976465D01*
X112283284Y-106966582D01*
X112295286Y-106964149D01*
X112303711Y-106969773D01*
X112303711Y-106969773D01*
G37*
X112303711Y-106969773D02*
X112304513Y-106973899D01*
X112297836Y-106984203D01*
X112287976Y-106986387D01*
X112275879Y-106982595D01*
X112274743Y-106976465D01*
X112283284Y-106966582D01*
X112295286Y-106964149D01*
X112303711Y-106969773D01*
G36*
X107484908Y-105428551D02*
X107502561Y-105475577D01*
X107525121Y-105535626D01*
X107551896Y-105606865D01*
X107582198Y-105687459D01*
X107615338Y-105775577D01*
X107650624Y-105869384D01*
X107687369Y-105967048D01*
X107724882Y-106066734D01*
X107762474Y-106166610D01*
X107790988Y-106242352D01*
X108008434Y-106819911D01*
X107483036Y-106815731D01*
X107403106Y-106549913D01*
X107115713Y-106549869D01*
X106828319Y-106549825D01*
X106804718Y-106627215D01*
X106792192Y-106668413D01*
X106779056Y-106711817D01*
X106767511Y-106750152D01*
X106763916Y-106762153D01*
X106746716Y-106819700D01*
X106493489Y-106819700D01*
X106431906Y-106819520D01*
X106375737Y-106819012D01*
X106326863Y-106818219D01*
X106287164Y-106817186D01*
X106258521Y-106815956D01*
X106242813Y-106814575D01*
X106240368Y-106813746D01*
X106243127Y-106805670D01*
X106251137Y-106783706D01*
X106264036Y-106748820D01*
X106281463Y-106701975D01*
X106303056Y-106644135D01*
X106328456Y-106576263D01*
X106357300Y-106499323D01*
X106389228Y-106414279D01*
X106423879Y-106322096D01*
X106460891Y-106223735D01*
X106471370Y-106195915D01*
X106938763Y-106195915D01*
X106946327Y-106197252D01*
X106967529Y-106198440D01*
X107000133Y-106199419D01*
X107041900Y-106200132D01*
X107090594Y-106200520D01*
X107117891Y-106200575D01*
X107175691Y-106200501D01*
X107219479Y-106200183D01*
X107251118Y-106199471D01*
X107272470Y-106198219D01*
X107285399Y-106196278D01*
X107291767Y-106193500D01*
X107293436Y-106189738D01*
X107292881Y-106186684D01*
X107277136Y-106134100D01*
X107259682Y-106076265D01*
X107241108Y-106015089D01*
X107222003Y-105952480D01*
X107202956Y-105890347D01*
X107184556Y-105830598D01*
X107167391Y-105775142D01*
X107152050Y-105725888D01*
X107139122Y-105684744D01*
X107129196Y-105653619D01*
X107122860Y-105634421D01*
X107120863Y-105629075D01*
X107115003Y-105621150D01*
X107110688Y-105627828D01*
X107110240Y-105629075D01*
X107106275Y-105641339D01*
X107098559Y-105666128D01*
X107087713Y-105701388D01*
X107074357Y-105745069D01*
X107059113Y-105795118D01*
X107042600Y-105849484D01*
X107025440Y-105906114D01*
X107008254Y-105962957D01*
X106991662Y-106017960D01*
X106976284Y-106069073D01*
X106962742Y-106114242D01*
X106951657Y-106151417D01*
X106943648Y-106178545D01*
X106939337Y-106193575D01*
X106938763Y-106195915D01*
X106471370Y-106195915D01*
X106499904Y-106120162D01*
X106540557Y-106012340D01*
X106544406Y-106002137D01*
X106848340Y-105196481D01*
X107122307Y-105194395D01*
X107396274Y-105192310D01*
X107484908Y-105428551D01*
X107484908Y-105428551D01*
G37*
X107484908Y-105428551D02*
X107502561Y-105475577D01*
X107525121Y-105535626D01*
X107551896Y-105606865D01*
X107582198Y-105687459D01*
X107615338Y-105775577D01*
X107650624Y-105869384D01*
X107687369Y-105967048D01*
X107724882Y-106066734D01*
X107762474Y-106166610D01*
X107790988Y-106242352D01*
X108008434Y-106819911D01*
X107483036Y-106815731D01*
X107403106Y-106549913D01*
X107115713Y-106549869D01*
X106828319Y-106549825D01*
X106804718Y-106627215D01*
X106792192Y-106668413D01*
X106779056Y-106711817D01*
X106767511Y-106750152D01*
X106763916Y-106762153D01*
X106746716Y-106819700D01*
X106493489Y-106819700D01*
X106431906Y-106819520D01*
X106375737Y-106819012D01*
X106326863Y-106818219D01*
X106287164Y-106817186D01*
X106258521Y-106815956D01*
X106242813Y-106814575D01*
X106240368Y-106813746D01*
X106243127Y-106805670D01*
X106251137Y-106783706D01*
X106264036Y-106748820D01*
X106281463Y-106701975D01*
X106303056Y-106644135D01*
X106328456Y-106576263D01*
X106357300Y-106499323D01*
X106389228Y-106414279D01*
X106423879Y-106322096D01*
X106460891Y-106223735D01*
X106471370Y-106195915D01*
X106938763Y-106195915D01*
X106946327Y-106197252D01*
X106967529Y-106198440D01*
X107000133Y-106199419D01*
X107041900Y-106200132D01*
X107090594Y-106200520D01*
X107117891Y-106200575D01*
X107175691Y-106200501D01*
X107219479Y-106200183D01*
X107251118Y-106199471D01*
X107272470Y-106198219D01*
X107285399Y-106196278D01*
X107291767Y-106193500D01*
X107293436Y-106189738D01*
X107292881Y-106186684D01*
X107277136Y-106134100D01*
X107259682Y-106076265D01*
X107241108Y-106015089D01*
X107222003Y-105952480D01*
X107202956Y-105890347D01*
X107184556Y-105830598D01*
X107167391Y-105775142D01*
X107152050Y-105725888D01*
X107139122Y-105684744D01*
X107129196Y-105653619D01*
X107122860Y-105634421D01*
X107120863Y-105629075D01*
X107115003Y-105621150D01*
X107110688Y-105627828D01*
X107110240Y-105629075D01*
X107106275Y-105641339D01*
X107098559Y-105666128D01*
X107087713Y-105701388D01*
X107074357Y-105745069D01*
X107059113Y-105795118D01*
X107042600Y-105849484D01*
X107025440Y-105906114D01*
X107008254Y-105962957D01*
X106991662Y-106017960D01*
X106976284Y-106069073D01*
X106962742Y-106114242D01*
X106951657Y-106151417D01*
X106943648Y-106178545D01*
X106939337Y-106193575D01*
X106938763Y-106195915D01*
X106471370Y-106195915D01*
X106499904Y-106120162D01*
X106540557Y-106012340D01*
X106544406Y-106002137D01*
X106848340Y-105196481D01*
X107122307Y-105194395D01*
X107396274Y-105192310D01*
X107484908Y-105428551D01*
G36*
X110469408Y-105428551D02*
X110487061Y-105475577D01*
X110509621Y-105535626D01*
X110536396Y-105606865D01*
X110566698Y-105687459D01*
X110599838Y-105775577D01*
X110635124Y-105869384D01*
X110671869Y-105967048D01*
X110709382Y-106066734D01*
X110746974Y-106166610D01*
X110775488Y-106242352D01*
X110992934Y-106819911D01*
X110467536Y-106815731D01*
X110387606Y-106549913D01*
X110100213Y-106549869D01*
X109812819Y-106549825D01*
X109789218Y-106627215D01*
X109776692Y-106668413D01*
X109763556Y-106711817D01*
X109752011Y-106750152D01*
X109748416Y-106762153D01*
X109731216Y-106819700D01*
X109477989Y-106819700D01*
X109416406Y-106819520D01*
X109360237Y-106819012D01*
X109311363Y-106818219D01*
X109271664Y-106817186D01*
X109243021Y-106815956D01*
X109227313Y-106814575D01*
X109224868Y-106813746D01*
X109227627Y-106805670D01*
X109235637Y-106783706D01*
X109248536Y-106748820D01*
X109265963Y-106701975D01*
X109287556Y-106644135D01*
X109312956Y-106576263D01*
X109341800Y-106499323D01*
X109373728Y-106414279D01*
X109408379Y-106322096D01*
X109445391Y-106223735D01*
X109455870Y-106195915D01*
X109923263Y-106195915D01*
X109930827Y-106197252D01*
X109952029Y-106198440D01*
X109984633Y-106199419D01*
X110026400Y-106200132D01*
X110075094Y-106200520D01*
X110102391Y-106200575D01*
X110160191Y-106200501D01*
X110203979Y-106200183D01*
X110235618Y-106199471D01*
X110256970Y-106198219D01*
X110269899Y-106196278D01*
X110276267Y-106193500D01*
X110277936Y-106189738D01*
X110277381Y-106186684D01*
X110261636Y-106134100D01*
X110244182Y-106076265D01*
X110225608Y-106015089D01*
X110206503Y-105952480D01*
X110187456Y-105890347D01*
X110169056Y-105830598D01*
X110151891Y-105775142D01*
X110136550Y-105725888D01*
X110123622Y-105684744D01*
X110113696Y-105653619D01*
X110107360Y-105634421D01*
X110105363Y-105629075D01*
X110099503Y-105621150D01*
X110095188Y-105627828D01*
X110094740Y-105629075D01*
X110090775Y-105641339D01*
X110083059Y-105666128D01*
X110072213Y-105701388D01*
X110058857Y-105745069D01*
X110043613Y-105795118D01*
X110027100Y-105849484D01*
X110009940Y-105906114D01*
X109992754Y-105962957D01*
X109976162Y-106017960D01*
X109960784Y-106069073D01*
X109947242Y-106114242D01*
X109936157Y-106151417D01*
X109928148Y-106178545D01*
X109923837Y-106193575D01*
X109923263Y-106195915D01*
X109455870Y-106195915D01*
X109484404Y-106120162D01*
X109525057Y-106012340D01*
X109528906Y-106002137D01*
X109832840Y-105196481D01*
X110106807Y-105194395D01*
X110380774Y-105192310D01*
X110469408Y-105428551D01*
X110469408Y-105428551D01*
G37*
X110469408Y-105428551D02*
X110487061Y-105475577D01*
X110509621Y-105535626D01*
X110536396Y-105606865D01*
X110566698Y-105687459D01*
X110599838Y-105775577D01*
X110635124Y-105869384D01*
X110671869Y-105967048D01*
X110709382Y-106066734D01*
X110746974Y-106166610D01*
X110775488Y-106242352D01*
X110992934Y-106819911D01*
X110467536Y-106815731D01*
X110387606Y-106549913D01*
X110100213Y-106549869D01*
X109812819Y-106549825D01*
X109789218Y-106627215D01*
X109776692Y-106668413D01*
X109763556Y-106711817D01*
X109752011Y-106750152D01*
X109748416Y-106762153D01*
X109731216Y-106819700D01*
X109477989Y-106819700D01*
X109416406Y-106819520D01*
X109360237Y-106819012D01*
X109311363Y-106818219D01*
X109271664Y-106817186D01*
X109243021Y-106815956D01*
X109227313Y-106814575D01*
X109224868Y-106813746D01*
X109227627Y-106805670D01*
X109235637Y-106783706D01*
X109248536Y-106748820D01*
X109265963Y-106701975D01*
X109287556Y-106644135D01*
X109312956Y-106576263D01*
X109341800Y-106499323D01*
X109373728Y-106414279D01*
X109408379Y-106322096D01*
X109445391Y-106223735D01*
X109455870Y-106195915D01*
X109923263Y-106195915D01*
X109930827Y-106197252D01*
X109952029Y-106198440D01*
X109984633Y-106199419D01*
X110026400Y-106200132D01*
X110075094Y-106200520D01*
X110102391Y-106200575D01*
X110160191Y-106200501D01*
X110203979Y-106200183D01*
X110235618Y-106199471D01*
X110256970Y-106198219D01*
X110269899Y-106196278D01*
X110276267Y-106193500D01*
X110277936Y-106189738D01*
X110277381Y-106186684D01*
X110261636Y-106134100D01*
X110244182Y-106076265D01*
X110225608Y-106015089D01*
X110206503Y-105952480D01*
X110187456Y-105890347D01*
X110169056Y-105830598D01*
X110151891Y-105775142D01*
X110136550Y-105725888D01*
X110123622Y-105684744D01*
X110113696Y-105653619D01*
X110107360Y-105634421D01*
X110105363Y-105629075D01*
X110099503Y-105621150D01*
X110095188Y-105627828D01*
X110094740Y-105629075D01*
X110090775Y-105641339D01*
X110083059Y-105666128D01*
X110072213Y-105701388D01*
X110058857Y-105745069D01*
X110043613Y-105795118D01*
X110027100Y-105849484D01*
X110009940Y-105906114D01*
X109992754Y-105962957D01*
X109976162Y-106017960D01*
X109960784Y-106069073D01*
X109947242Y-106114242D01*
X109936157Y-106151417D01*
X109928148Y-106178545D01*
X109923837Y-106193575D01*
X109923263Y-106195915D01*
X109455870Y-106195915D01*
X109484404Y-106120162D01*
X109525057Y-106012340D01*
X109528906Y-106002137D01*
X109832840Y-105196481D01*
X110106807Y-105194395D01*
X110380774Y-105192310D01*
X110469408Y-105428551D01*
G36*
X112469658Y-105428551D02*
X112487311Y-105475577D01*
X112509871Y-105535626D01*
X112536646Y-105606865D01*
X112566948Y-105687459D01*
X112600088Y-105775577D01*
X112635374Y-105869384D01*
X112672119Y-105967048D01*
X112709632Y-106066734D01*
X112747224Y-106166610D01*
X112775738Y-106242352D01*
X112993184Y-106819911D01*
X112467786Y-106815731D01*
X112387856Y-106549913D01*
X112100463Y-106549869D01*
X111813069Y-106549825D01*
X111789468Y-106627215D01*
X111776942Y-106668413D01*
X111763806Y-106711817D01*
X111752261Y-106750152D01*
X111748666Y-106762153D01*
X111731466Y-106819700D01*
X111478239Y-106819700D01*
X111416656Y-106819520D01*
X111360487Y-106819012D01*
X111311613Y-106818219D01*
X111271914Y-106817186D01*
X111243271Y-106815956D01*
X111227563Y-106814575D01*
X111225118Y-106813746D01*
X111227877Y-106805670D01*
X111235887Y-106783706D01*
X111248786Y-106748820D01*
X111266213Y-106701975D01*
X111287806Y-106644135D01*
X111313206Y-106576263D01*
X111342050Y-106499323D01*
X111373978Y-106414279D01*
X111408629Y-106322096D01*
X111445641Y-106223735D01*
X111456120Y-106195915D01*
X111923513Y-106195915D01*
X111931077Y-106197252D01*
X111952279Y-106198440D01*
X111984883Y-106199419D01*
X112026650Y-106200132D01*
X112075344Y-106200520D01*
X112102641Y-106200575D01*
X112160441Y-106200501D01*
X112204229Y-106200183D01*
X112235868Y-106199471D01*
X112257220Y-106198219D01*
X112270149Y-106196278D01*
X112276517Y-106193500D01*
X112278186Y-106189738D01*
X112277631Y-106186684D01*
X112261886Y-106134100D01*
X112244432Y-106076265D01*
X112225858Y-106015089D01*
X112206753Y-105952480D01*
X112187706Y-105890347D01*
X112169306Y-105830598D01*
X112152141Y-105775142D01*
X112136800Y-105725888D01*
X112123872Y-105684744D01*
X112113946Y-105653619D01*
X112107610Y-105634421D01*
X112105613Y-105629075D01*
X112099753Y-105621150D01*
X112095438Y-105627828D01*
X112094990Y-105629075D01*
X112091025Y-105641339D01*
X112083309Y-105666128D01*
X112072463Y-105701388D01*
X112059107Y-105745069D01*
X112043863Y-105795118D01*
X112027350Y-105849484D01*
X112010190Y-105906114D01*
X111993004Y-105962957D01*
X111976412Y-106017960D01*
X111961034Y-106069073D01*
X111947492Y-106114242D01*
X111936407Y-106151417D01*
X111928398Y-106178545D01*
X111924087Y-106193575D01*
X111923513Y-106195915D01*
X111456120Y-106195915D01*
X111484654Y-106120162D01*
X111525307Y-106012340D01*
X111529156Y-106002137D01*
X111833090Y-105196481D01*
X112107057Y-105194395D01*
X112381024Y-105192310D01*
X112469658Y-105428551D01*
X112469658Y-105428551D01*
G37*
X112469658Y-105428551D02*
X112487311Y-105475577D01*
X112509871Y-105535626D01*
X112536646Y-105606865D01*
X112566948Y-105687459D01*
X112600088Y-105775577D01*
X112635374Y-105869384D01*
X112672119Y-105967048D01*
X112709632Y-106066734D01*
X112747224Y-106166610D01*
X112775738Y-106242352D01*
X112993184Y-106819911D01*
X112467786Y-106815731D01*
X112387856Y-106549913D01*
X112100463Y-106549869D01*
X111813069Y-106549825D01*
X111789468Y-106627215D01*
X111776942Y-106668413D01*
X111763806Y-106711817D01*
X111752261Y-106750152D01*
X111748666Y-106762153D01*
X111731466Y-106819700D01*
X111478239Y-106819700D01*
X111416656Y-106819520D01*
X111360487Y-106819012D01*
X111311613Y-106818219D01*
X111271914Y-106817186D01*
X111243271Y-106815956D01*
X111227563Y-106814575D01*
X111225118Y-106813746D01*
X111227877Y-106805670D01*
X111235887Y-106783706D01*
X111248786Y-106748820D01*
X111266213Y-106701975D01*
X111287806Y-106644135D01*
X111313206Y-106576263D01*
X111342050Y-106499323D01*
X111373978Y-106414279D01*
X111408629Y-106322096D01*
X111445641Y-106223735D01*
X111456120Y-106195915D01*
X111923513Y-106195915D01*
X111931077Y-106197252D01*
X111952279Y-106198440D01*
X111984883Y-106199419D01*
X112026650Y-106200132D01*
X112075344Y-106200520D01*
X112102641Y-106200575D01*
X112160441Y-106200501D01*
X112204229Y-106200183D01*
X112235868Y-106199471D01*
X112257220Y-106198219D01*
X112270149Y-106196278D01*
X112276517Y-106193500D01*
X112278186Y-106189738D01*
X112277631Y-106186684D01*
X112261886Y-106134100D01*
X112244432Y-106076265D01*
X112225858Y-106015089D01*
X112206753Y-105952480D01*
X112187706Y-105890347D01*
X112169306Y-105830598D01*
X112152141Y-105775142D01*
X112136800Y-105725888D01*
X112123872Y-105684744D01*
X112113946Y-105653619D01*
X112107610Y-105634421D01*
X112105613Y-105629075D01*
X112099753Y-105621150D01*
X112095438Y-105627828D01*
X112094990Y-105629075D01*
X112091025Y-105641339D01*
X112083309Y-105666128D01*
X112072463Y-105701388D01*
X112059107Y-105745069D01*
X112043863Y-105795118D01*
X112027350Y-105849484D01*
X112010190Y-105906114D01*
X111993004Y-105962957D01*
X111976412Y-106017960D01*
X111961034Y-106069073D01*
X111947492Y-106114242D01*
X111936407Y-106151417D01*
X111928398Y-106178545D01*
X111924087Y-106193575D01*
X111923513Y-106195915D01*
X111456120Y-106195915D01*
X111484654Y-106120162D01*
X111525307Y-106012340D01*
X111529156Y-106002137D01*
X111833090Y-105196481D01*
X112107057Y-105194395D01*
X112381024Y-105192310D01*
X112469658Y-105428551D01*
G36*
X106833084Y-104077495D02*
X106828650Y-104083246D01*
X106817064Y-104095587D01*
X106811893Y-104095533D01*
X106811763Y-104094140D01*
X106817187Y-104087514D01*
X106825653Y-104080250D01*
X106835055Y-104073385D01*
X106833084Y-104077495D01*
X106833084Y-104077495D01*
G37*
X106833084Y-104077495D02*
X106828650Y-104083246D01*
X106817064Y-104095587D01*
X106811893Y-104095533D01*
X106811763Y-104094140D01*
X106817187Y-104087514D01*
X106825653Y-104080250D01*
X106835055Y-104073385D01*
X106833084Y-104077495D01*
G36*
X106856897Y-104046702D02*
X106855419Y-104049512D01*
X106847940Y-104057092D01*
X106846544Y-104057450D01*
X106846003Y-104052322D01*
X106847481Y-104049512D01*
X106854960Y-104041932D01*
X106856356Y-104041575D01*
X106856897Y-104046702D01*
X106856897Y-104046702D01*
G37*
X106856897Y-104046702D02*
X106855419Y-104049512D01*
X106847940Y-104057092D01*
X106846544Y-104057450D01*
X106846003Y-104052322D01*
X106847481Y-104049512D01*
X106854960Y-104041932D01*
X106856356Y-104041575D01*
X106856897Y-104046702D01*
G36*
X106888647Y-104007014D02*
X106887169Y-104009825D01*
X106879690Y-104017405D01*
X106878294Y-104017762D01*
X106877753Y-104012635D01*
X106879231Y-104009825D01*
X106886710Y-104002244D01*
X106888106Y-104001887D01*
X106888647Y-104007014D01*
X106888647Y-104007014D01*
G37*
X106888647Y-104007014D02*
X106887169Y-104009825D01*
X106879690Y-104017405D01*
X106878294Y-104017762D01*
X106877753Y-104012635D01*
X106879231Y-104009825D01*
X106886710Y-104002244D01*
X106888106Y-104001887D01*
X106888647Y-104007014D01*
G36*
X110801679Y-102917095D02*
X110800590Y-102921814D01*
X110796388Y-102922387D01*
X110789854Y-102919483D01*
X110791096Y-102917095D01*
X110800516Y-102916145D01*
X110801679Y-102917095D01*
X110801679Y-102917095D01*
G37*
X110801679Y-102917095D02*
X110800590Y-102921814D01*
X110796388Y-102922387D01*
X110789854Y-102919483D01*
X110791096Y-102917095D01*
X110800516Y-102916145D01*
X110801679Y-102917095D01*
G36*
X110777867Y-102909158D02*
X110776777Y-102913877D01*
X110772575Y-102914450D01*
X110766042Y-102911545D01*
X110767283Y-102909158D01*
X110776703Y-102908208D01*
X110777867Y-102909158D01*
X110777867Y-102909158D01*
G37*
X110777867Y-102909158D02*
X110776777Y-102913877D01*
X110772575Y-102914450D01*
X110766042Y-102911545D01*
X110767283Y-102909158D01*
X110776703Y-102908208D01*
X110777867Y-102909158D01*
G36*
X110756700Y-102902543D02*
X110752731Y-102906512D01*
X110748763Y-102902543D01*
X110752731Y-102898575D01*
X110756700Y-102902543D01*
X110756700Y-102902543D01*
G37*
X110756700Y-102902543D02*
X110752731Y-102906512D01*
X110748763Y-102902543D01*
X110752731Y-102898575D01*
X110756700Y-102902543D01*
G36*
X110732888Y-102894606D02*
X110728919Y-102898575D01*
X110724950Y-102894606D01*
X110728919Y-102890637D01*
X110732888Y-102894606D01*
X110732888Y-102894606D01*
G37*
X110732888Y-102894606D02*
X110728919Y-102898575D01*
X110724950Y-102894606D01*
X110728919Y-102890637D01*
X110732888Y-102894606D01*
G36*
X110709075Y-102886668D02*
X110705106Y-102890637D01*
X110701138Y-102886668D01*
X110705106Y-102882700D01*
X110709075Y-102886668D01*
X110709075Y-102886668D01*
G37*
X110709075Y-102886668D02*
X110705106Y-102890637D01*
X110701138Y-102886668D01*
X110705106Y-102882700D01*
X110709075Y-102886668D01*
G36*
X110685263Y-102878731D02*
X110681294Y-102882700D01*
X110677325Y-102878731D01*
X110681294Y-102874762D01*
X110685263Y-102878731D01*
X110685263Y-102878731D01*
G37*
X110685263Y-102878731D02*
X110681294Y-102882700D01*
X110677325Y-102878731D01*
X110681294Y-102874762D01*
X110685263Y-102878731D01*
D11*
X137820400Y-104749600D02*
X140360400Y-104749600D01*
X135000400Y-104469600D02*
X136550400Y-104469600D01*
X137820400Y-104749600D02*
X137820400Y-107289600D01*
X136550400Y-107569600D02*
X135000400Y-107569600D01*
X135000400Y-107569600D02*
X135000400Y-104469600D01*
X137820400Y-107289600D02*
X140360400Y-107289600D01*
X140360400Y-107289600D02*
X140360400Y-104749600D01*
X123102762Y-62428381D02*
X122769428Y-61952190D01*
X122531333Y-62428381D02*
X122531333Y-61428381D01*
X122912286Y-61428381D01*
X123007524Y-61476000D01*
X123055143Y-61523619D01*
X123102762Y-61618857D01*
X123102762Y-61761714D01*
X123055143Y-61856952D01*
X123007524Y-61904571D01*
X122912286Y-61952190D01*
X122531333Y-61952190D01*
X123864667Y-61904571D02*
X123531333Y-61904571D01*
X123531333Y-62428381D02*
X123531333Y-61428381D01*
X124007524Y-61428381D01*
X124912286Y-62428381D02*
X124340857Y-62428381D01*
X124626571Y-62428381D02*
X124626571Y-61428381D01*
X124531333Y-61571238D01*
X124436095Y-61666476D01*
X124340857Y-61714095D01*
X121259886Y-35936181D02*
X120926552Y-35459990D01*
X120688457Y-35936181D02*
X120688457Y-34936181D01*
X121069410Y-34936181D01*
X121164648Y-34983800D01*
X121212267Y-35031419D01*
X121259886Y-35126657D01*
X121259886Y-35269514D01*
X121212267Y-35364752D01*
X121164648Y-35412371D01*
X121069410Y-35459990D01*
X120688457Y-35459990D01*
X121688457Y-35936181D02*
X121688457Y-34936181D01*
X122069410Y-34936181D01*
X122164648Y-34983800D01*
X122212267Y-35031419D01*
X122259886Y-35126657D01*
X122259886Y-35269514D01*
X122212267Y-35364752D01*
X122164648Y-35412371D01*
X122069410Y-35459990D01*
X121688457Y-35459990D01*
X122688457Y-35555229D02*
X123450362Y-35555229D01*
X123878933Y-35888562D02*
X124021790Y-35936181D01*
X124259886Y-35936181D01*
X124355124Y-35888562D01*
X124402743Y-35840943D01*
X124450362Y-35745705D01*
X124450362Y-35650467D01*
X124402743Y-35555229D01*
X124355124Y-35507610D01*
X124259886Y-35459990D01*
X124069409Y-35412371D01*
X123974171Y-35364752D01*
X123926552Y-35317133D01*
X123878933Y-35221895D01*
X123878933Y-35126657D01*
X123926552Y-35031419D01*
X123974171Y-34983800D01*
X124069409Y-34936181D01*
X124307505Y-34936181D01*
X124450362Y-34983800D01*
X124878933Y-35936181D02*
X124878933Y-34936181D01*
X125212267Y-35650467D01*
X125545600Y-34936181D01*
X125545600Y-35936181D01*
X125974171Y-35650467D02*
X126450362Y-35650467D01*
X125878933Y-35936181D02*
X126212266Y-34936181D01*
X126545600Y-35936181D01*
X118204202Y-55838895D02*
X118424452Y-54076895D01*
X119095690Y-54076895D01*
X119253011Y-54160800D01*
X119326428Y-54244705D01*
X119389357Y-54412514D01*
X119357892Y-54664229D01*
X119253011Y-54832038D01*
X119158618Y-54915943D01*
X118980321Y-54999848D01*
X118309083Y-54999848D01*
X120973059Y-55838895D02*
X120490607Y-54999848D01*
X119966202Y-55838895D02*
X120186452Y-54076895D01*
X120857690Y-54076895D01*
X121015011Y-54160800D01*
X121088428Y-54244705D01*
X121151357Y-54412514D01*
X121119892Y-54664229D01*
X121015011Y-54832038D01*
X120920618Y-54915943D01*
X120742321Y-54999848D01*
X120071083Y-54999848D01*
X122284071Y-54076895D02*
X122619690Y-54076895D01*
X122777011Y-54160800D01*
X122923845Y-54328610D01*
X122965797Y-54664229D01*
X122892381Y-55251562D01*
X122766523Y-55587181D01*
X122577737Y-55754990D01*
X122399440Y-55838895D01*
X122063821Y-55838895D01*
X121906499Y-55754990D01*
X121759666Y-55587181D01*
X121717714Y-55251562D01*
X121791130Y-54664229D01*
X121916988Y-54328610D01*
X122105773Y-54160800D01*
X122284071Y-54076895D01*
X124843166Y-55754990D02*
X125084392Y-55838895D01*
X125503916Y-55838895D01*
X125682214Y-55754990D01*
X125776606Y-55671086D01*
X125881488Y-55503276D01*
X125902464Y-55335467D01*
X125839535Y-55167657D01*
X125766119Y-55083752D01*
X125608797Y-54999848D01*
X125283666Y-54915943D01*
X125126345Y-54832038D01*
X125052928Y-54748133D01*
X124990000Y-54580324D01*
X125010976Y-54412514D01*
X125115857Y-54244705D01*
X125210250Y-54160800D01*
X125388547Y-54076895D01*
X125808071Y-54076895D01*
X126049297Y-54160800D01*
X126647118Y-54076895D02*
X127737880Y-54076895D01*
X127066642Y-54748133D01*
X127318356Y-54748133D01*
X127475678Y-54832038D01*
X127549094Y-54915943D01*
X127612023Y-55083752D01*
X127559583Y-55503276D01*
X127454701Y-55671086D01*
X127360309Y-55754990D01*
X127182011Y-55838895D01*
X126678583Y-55838895D01*
X126521261Y-55754990D01*
X126447844Y-55671086D01*
X128975475Y-54915943D02*
X129216701Y-54999848D01*
X129290118Y-55083752D01*
X129353047Y-55251562D01*
X129321583Y-55503276D01*
X129216701Y-55671086D01*
X129122308Y-55754990D01*
X128944011Y-55838895D01*
X128272773Y-55838895D01*
X128493023Y-54076895D01*
X129080356Y-54076895D01*
X129237678Y-54160800D01*
X129311094Y-54244705D01*
X129374023Y-54412514D01*
X129353047Y-54580324D01*
X129248165Y-54748133D01*
X129153773Y-54832038D01*
X128975475Y-54915943D01*
X128388142Y-54915943D01*
X121260486Y-51536895D02*
X122435153Y-53298895D01*
X122435153Y-51536895D02*
X121260486Y-53298895D01*
X123106391Y-53298895D02*
X123106391Y-51536895D01*
X123106391Y-52208133D02*
X123274200Y-52124229D01*
X123609819Y-52124229D01*
X123777629Y-52208133D01*
X123861534Y-52292038D01*
X123945438Y-52459848D01*
X123945438Y-52963276D01*
X123861534Y-53131086D01*
X123777629Y-53214990D01*
X123609819Y-53298895D01*
X123274200Y-53298895D01*
X123106391Y-53214990D01*
X125371819Y-53214990D02*
X125204009Y-53298895D01*
X124868390Y-53298895D01*
X124700581Y-53214990D01*
X124616676Y-53047181D01*
X124616676Y-52375943D01*
X124700581Y-52208133D01*
X124868390Y-52124229D01*
X125204009Y-52124229D01*
X125371819Y-52208133D01*
X125455724Y-52375943D01*
X125455724Y-52543752D01*
X124616676Y-52711562D01*
X126882105Y-53214990D02*
X126714295Y-53298895D01*
X126378676Y-53298895D01*
X126210867Y-53214990D01*
X126126962Y-53047181D01*
X126126962Y-52375943D01*
X126210867Y-52208133D01*
X126378676Y-52124229D01*
X126714295Y-52124229D01*
X126882105Y-52208133D01*
X126966010Y-52375943D01*
X126966010Y-52543752D01*
X126126962Y-52711562D01*
X116529029Y-88904771D02*
X116671886Y-88952390D01*
X116719505Y-89000010D01*
X116767124Y-89095248D01*
X116767124Y-89238105D01*
X116719505Y-89333343D01*
X116671886Y-89380962D01*
X116576648Y-89428581D01*
X116195695Y-89428581D01*
X116195695Y-88428581D01*
X116529029Y-88428581D01*
X116624267Y-88476200D01*
X116671886Y-88523819D01*
X116719505Y-88619057D01*
X116719505Y-88714295D01*
X116671886Y-88809533D01*
X116624267Y-88857152D01*
X116529029Y-88904771D01*
X116195695Y-88904771D01*
X117386171Y-88428581D02*
X117576648Y-88428581D01*
X117671886Y-88476200D01*
X117767124Y-88571438D01*
X117814743Y-88761914D01*
X117814743Y-89095248D01*
X117767124Y-89285724D01*
X117671886Y-89380962D01*
X117576648Y-89428581D01*
X117386171Y-89428581D01*
X117290933Y-89380962D01*
X117195695Y-89285724D01*
X117148076Y-89095248D01*
X117148076Y-88761914D01*
X117195695Y-88571438D01*
X117290933Y-88476200D01*
X117386171Y-88428581D01*
X118576648Y-88904771D02*
X118719505Y-88952390D01*
X118767124Y-89000010D01*
X118814743Y-89095248D01*
X118814743Y-89238105D01*
X118767124Y-89333343D01*
X118719505Y-89380962D01*
X118624267Y-89428581D01*
X118243314Y-89428581D01*
X118243314Y-88428581D01*
X118576648Y-88428581D01*
X118671886Y-88476200D01*
X118719505Y-88523819D01*
X118767124Y-88619057D01*
X118767124Y-88714295D01*
X118719505Y-88809533D01*
X118671886Y-88857152D01*
X118576648Y-88904771D01*
X118243314Y-88904771D01*
X119767124Y-89428581D02*
X119195695Y-89428581D01*
X119481409Y-89428581D02*
X119481409Y-88428581D01*
X119386171Y-88571438D01*
X119290933Y-88666676D01*
X119195695Y-88714295D01*
X116443333Y-77382667D02*
X116919524Y-77382667D01*
X116348095Y-77668381D02*
X116681428Y-76668381D01*
X117014762Y-77668381D01*
X117252857Y-76668381D02*
X117919524Y-76668381D01*
X117490952Y-77668381D01*
X118729048Y-77001714D02*
X118729048Y-77668381D01*
X118490952Y-76620762D02*
X118252857Y-77335048D01*
X118871905Y-77335048D01*
X119681429Y-76668381D02*
X119490952Y-76668381D01*
X119395714Y-76716000D01*
X119348095Y-76763619D01*
X119252857Y-76906476D01*
X119205238Y-77096952D01*
X119205238Y-77477905D01*
X119252857Y-77573143D01*
X119300476Y-77620762D01*
X119395714Y-77668381D01*
X119586191Y-77668381D01*
X119681429Y-77620762D01*
X119729048Y-77573143D01*
X119776667Y-77477905D01*
X119776667Y-77239810D01*
X119729048Y-77144571D01*
X119681429Y-77096952D01*
X119586191Y-77049333D01*
X119395714Y-77049333D01*
X119300476Y-77096952D01*
X119252857Y-77144571D01*
X119205238Y-77239810D01*
X117395715Y-74684000D02*
X117300477Y-74636381D01*
X117157620Y-74636381D01*
X117014762Y-74684000D01*
X116919524Y-74779238D01*
X116871905Y-74874476D01*
X116824286Y-75064952D01*
X116824286Y-75207810D01*
X116871905Y-75398286D01*
X116919524Y-75493524D01*
X117014762Y-75588762D01*
X117157620Y-75636381D01*
X117252858Y-75636381D01*
X117395715Y-75588762D01*
X117443334Y-75541143D01*
X117443334Y-75207810D01*
X117252858Y-75207810D01*
X117871905Y-75636381D02*
X117871905Y-74636381D01*
X118252858Y-74636381D01*
X118348096Y-74684000D01*
X118395715Y-74731619D01*
X118443334Y-74826857D01*
X118443334Y-74969714D01*
X118395715Y-75064952D01*
X118348096Y-75112571D01*
X118252858Y-75160190D01*
X117871905Y-75160190D01*
X118824286Y-75588762D02*
X118967143Y-75636381D01*
X119205239Y-75636381D01*
X119300477Y-75588762D01*
X119348096Y-75541143D01*
X119395715Y-75445905D01*
X119395715Y-75350667D01*
X119348096Y-75255429D01*
X119300477Y-75207810D01*
X119205239Y-75160190D01*
X119014762Y-75112571D01*
X118919524Y-75064952D01*
X118871905Y-75017333D01*
X118824286Y-74922095D01*
X118824286Y-74826857D01*
X118871905Y-74731619D01*
X118919524Y-74684000D01*
X119014762Y-74636381D01*
X119252858Y-74636381D01*
X119395715Y-74684000D01*
X106148286Y-90606571D02*
X106291143Y-90654190D01*
X106338762Y-90701810D01*
X106386381Y-90797048D01*
X106386381Y-90939905D01*
X106338762Y-91035143D01*
X106291143Y-91082762D01*
X106195905Y-91130381D01*
X105814952Y-91130381D01*
X105814952Y-90130381D01*
X106148286Y-90130381D01*
X106243524Y-90178000D01*
X106291143Y-90225619D01*
X106338762Y-90320857D01*
X106338762Y-90416095D01*
X106291143Y-90511333D01*
X106243524Y-90558952D01*
X106148286Y-90606571D01*
X105814952Y-90606571D01*
X106672095Y-90130381D02*
X107243524Y-90130381D01*
X106957809Y-91130381D02*
X106957809Y-90130381D01*
X108100667Y-91130381D02*
X107529238Y-91130381D01*
X107814952Y-91130381D02*
X107814952Y-90130381D01*
X107719714Y-90273238D01*
X107624476Y-90368476D01*
X107529238Y-90416095D01*
D16*
X105750744Y-102817114D02*
X105727315Y-102840543D01*
X105657029Y-102863971D01*
X105610172Y-102863971D01*
X105539887Y-102840543D01*
X105493029Y-102793686D01*
X105469601Y-102746829D01*
X105446172Y-102653114D01*
X105446172Y-102582829D01*
X105469601Y-102489114D01*
X105493029Y-102442257D01*
X105539887Y-102395400D01*
X105610172Y-102371971D01*
X105657029Y-102371971D01*
X105727315Y-102395400D01*
X105750744Y-102418829D01*
X106242744Y-102863971D02*
X106078744Y-102629686D01*
X105961601Y-102863971D02*
X105961601Y-102371971D01*
X106149029Y-102371971D01*
X106195887Y-102395400D01*
X106219315Y-102418829D01*
X106242744Y-102465686D01*
X106242744Y-102535971D01*
X106219315Y-102582829D01*
X106195887Y-102606257D01*
X106149029Y-102629686D01*
X105961601Y-102629686D01*
X106711315Y-102863971D02*
X106430172Y-102863971D01*
X106570744Y-102863971D02*
X106570744Y-102371971D01*
X106523887Y-102442257D01*
X106477029Y-102489114D01*
X106430172Y-102512543D01*
X106898743Y-102418829D02*
X106922172Y-102395400D01*
X106969029Y-102371971D01*
X107086172Y-102371971D01*
X107133029Y-102395400D01*
X107156458Y-102418829D01*
X107179886Y-102465686D01*
X107179886Y-102512543D01*
X107156458Y-102582829D01*
X106875315Y-102863971D01*
X107179886Y-102863971D01*
X107367314Y-102418829D02*
X107390743Y-102395400D01*
X107437600Y-102371971D01*
X107554743Y-102371971D01*
X107601600Y-102395400D01*
X107625029Y-102418829D01*
X107648457Y-102465686D01*
X107648457Y-102512543D01*
X107625029Y-102582829D01*
X107343886Y-102863971D01*
X107648457Y-102863971D01*
X107953028Y-102371971D02*
X107999885Y-102371971D01*
X108046742Y-102395400D01*
X108070171Y-102418829D01*
X108093600Y-102465686D01*
X108117028Y-102559400D01*
X108117028Y-102676543D01*
X108093600Y-102770257D01*
X108070171Y-102817114D01*
X108046742Y-102840543D01*
X107999885Y-102863971D01*
X107953028Y-102863971D01*
X107906171Y-102840543D01*
X107882742Y-102817114D01*
X107859314Y-102770257D01*
X107835885Y-102676543D01*
X107835885Y-102559400D01*
X107859314Y-102465686D01*
X107882742Y-102418829D01*
X107906171Y-102395400D01*
X107953028Y-102371971D01*
D11*
X104659134Y-43511743D02*
X104611515Y-43559362D01*
X104468658Y-43606981D01*
X104373420Y-43606981D01*
X104230562Y-43559362D01*
X104135324Y-43464124D01*
X104087705Y-43368886D01*
X104040086Y-43178410D01*
X104040086Y-43035552D01*
X104087705Y-42845076D01*
X104135324Y-42749838D01*
X104230562Y-42654600D01*
X104373420Y-42606981D01*
X104468658Y-42606981D01*
X104611515Y-42654600D01*
X104659134Y-42702219D01*
X105611515Y-43606981D02*
X105040086Y-43606981D01*
X105325800Y-43606981D02*
X105325800Y-42606981D01*
X105230562Y-42749838D01*
X105135324Y-42845076D01*
X105040086Y-42892695D01*
X104659134Y-41327343D02*
X104611515Y-41374962D01*
X104468658Y-41422581D01*
X104373420Y-41422581D01*
X104230562Y-41374962D01*
X104135324Y-41279724D01*
X104087705Y-41184486D01*
X104040086Y-40994010D01*
X104040086Y-40851152D01*
X104087705Y-40660676D01*
X104135324Y-40565438D01*
X104230562Y-40470200D01*
X104373420Y-40422581D01*
X104468658Y-40422581D01*
X104611515Y-40470200D01*
X104659134Y-40517819D01*
X105040086Y-40517819D02*
X105087705Y-40470200D01*
X105182943Y-40422581D01*
X105421039Y-40422581D01*
X105516277Y-40470200D01*
X105563896Y-40517819D01*
X105611515Y-40613057D01*
X105611515Y-40708295D01*
X105563896Y-40851152D01*
X104992467Y-41422581D01*
X105611515Y-41422581D01*
X106005334Y-36374343D02*
X105957715Y-36421962D01*
X105814858Y-36469581D01*
X105719620Y-36469581D01*
X105576762Y-36421962D01*
X105481524Y-36326724D01*
X105433905Y-36231486D01*
X105386286Y-36041010D01*
X105386286Y-35898152D01*
X105433905Y-35707676D01*
X105481524Y-35612438D01*
X105576762Y-35517200D01*
X105719620Y-35469581D01*
X105814858Y-35469581D01*
X105957715Y-35517200D01*
X106005334Y-35564819D01*
X106338667Y-35469581D02*
X106957715Y-35469581D01*
X106624381Y-35850533D01*
X106767239Y-35850533D01*
X106862477Y-35898152D01*
X106910096Y-35945771D01*
X106957715Y-36041010D01*
X106957715Y-36279105D01*
X106910096Y-36374343D01*
X106862477Y-36421962D01*
X106767239Y-36469581D01*
X106481524Y-36469581D01*
X106386286Y-36421962D01*
X106338667Y-36374343D01*
X134897181Y-103023895D02*
X133897181Y-103023895D01*
X133897181Y-102785800D01*
X133944800Y-102642942D01*
X134040038Y-102547704D01*
X134135276Y-102500085D01*
X134325752Y-102452466D01*
X134468610Y-102452466D01*
X134659086Y-102500085D01*
X134754324Y-102547704D01*
X134849562Y-102642942D01*
X134897181Y-102785800D01*
X134897181Y-103023895D01*
X134897181Y-101500085D02*
X134897181Y-102071514D01*
X134897181Y-101785800D02*
X133897181Y-101785800D01*
X134040038Y-101881038D01*
X134135276Y-101976276D01*
X134182895Y-102071514D01*
X131137981Y-102998495D02*
X130137981Y-102998495D01*
X130137981Y-102760400D01*
X130185600Y-102617542D01*
X130280838Y-102522304D01*
X130376076Y-102474685D01*
X130566552Y-102427066D01*
X130709410Y-102427066D01*
X130899886Y-102474685D01*
X130995124Y-102522304D01*
X131090362Y-102617542D01*
X131137981Y-102760400D01*
X131137981Y-102998495D01*
X130233219Y-102046114D02*
X130185600Y-101998495D01*
X130137981Y-101903257D01*
X130137981Y-101665161D01*
X130185600Y-101569923D01*
X130233219Y-101522304D01*
X130328457Y-101474685D01*
X130423695Y-101474685D01*
X130566552Y-101522304D01*
X131137981Y-102093733D01*
X131137981Y-101474685D01*
X120265867Y-92898981D02*
X120265867Y-93613267D01*
X120218247Y-93756124D01*
X120123009Y-93851362D01*
X119980152Y-93898981D01*
X119884914Y-93898981D01*
X121265867Y-93898981D02*
X120694438Y-93898981D01*
X120980152Y-93898981D02*
X120980152Y-92898981D01*
X120884914Y-93041838D01*
X120789676Y-93137076D01*
X120694438Y-93184695D01*
X138034781Y-92078133D02*
X138749067Y-92078133D01*
X138891924Y-92125753D01*
X138987162Y-92220991D01*
X139034781Y-92363848D01*
X139034781Y-92459086D01*
X138130019Y-91649562D02*
X138082400Y-91601943D01*
X138034781Y-91506705D01*
X138034781Y-91268609D01*
X138082400Y-91173371D01*
X138130019Y-91125752D01*
X138225257Y-91078133D01*
X138320495Y-91078133D01*
X138463352Y-91125752D01*
X139034781Y-91697181D01*
X139034781Y-91078133D01*
X127214381Y-44275333D02*
X127928667Y-44275333D01*
X128071524Y-44322953D01*
X128166762Y-44418191D01*
X128214381Y-44561048D01*
X128214381Y-44656286D01*
X127214381Y-43894381D02*
X127214381Y-43275333D01*
X127595333Y-43608667D01*
X127595333Y-43465809D01*
X127642952Y-43370571D01*
X127690571Y-43322952D01*
X127785810Y-43275333D01*
X128023905Y-43275333D01*
X128119143Y-43322952D01*
X128166762Y-43370571D01*
X128214381Y-43465809D01*
X128214381Y-43751524D01*
X128166762Y-43846762D01*
X128119143Y-43894381D01*
X147305781Y-73053533D02*
X148020067Y-73053533D01*
X148162924Y-73101153D01*
X148258162Y-73196391D01*
X148305781Y-73339248D01*
X148305781Y-73434486D01*
X147639114Y-72148771D02*
X148305781Y-72148771D01*
X147258162Y-72386867D02*
X147972448Y-72624962D01*
X147972448Y-72005914D01*
X118070381Y-44275333D02*
X118784667Y-44275333D01*
X118927524Y-44322953D01*
X119022762Y-44418191D01*
X119070381Y-44561048D01*
X119070381Y-44656286D01*
X118070381Y-43322952D02*
X118070381Y-43799143D01*
X118546571Y-43846762D01*
X118498952Y-43799143D01*
X118451333Y-43703905D01*
X118451333Y-43465809D01*
X118498952Y-43370571D01*
X118546571Y-43322952D01*
X118641810Y-43275333D01*
X118879905Y-43275333D01*
X118975143Y-43322952D01*
X119022762Y-43370571D01*
X119070381Y-43465809D01*
X119070381Y-43703905D01*
X119022762Y-43799143D01*
X118975143Y-43846762D01*
X126297581Y-94127533D02*
X127011867Y-94127533D01*
X127154724Y-94175153D01*
X127249962Y-94270391D01*
X127297581Y-94413248D01*
X127297581Y-94508486D01*
X127297581Y-93651343D02*
X126297581Y-93651343D01*
X126297581Y-93270390D01*
X126345200Y-93175152D01*
X126392819Y-93127533D01*
X126488057Y-93079914D01*
X126630914Y-93079914D01*
X126726152Y-93127533D01*
X126773771Y-93175152D01*
X126821390Y-93270390D01*
X126821390Y-93651343D01*
X127297581Y-92127533D02*
X127297581Y-92698962D01*
X127297581Y-92413248D02*
X126297581Y-92413248D01*
X126440438Y-92508486D01*
X126535676Y-92603724D01*
X126583295Y-92698962D01*
X136088381Y-75040858D02*
X135421714Y-75040858D01*
X135612190Y-75040858D02*
X135516952Y-74993239D01*
X135469333Y-74945620D01*
X135421714Y-74850382D01*
X135421714Y-74755143D01*
X136040762Y-74040857D02*
X136088381Y-74136095D01*
X136088381Y-74326572D01*
X136040762Y-74421810D01*
X135945524Y-74469429D01*
X135564571Y-74469429D01*
X135469333Y-74421810D01*
X135421714Y-74326572D01*
X135421714Y-74136095D01*
X135469333Y-74040857D01*
X135564571Y-73993238D01*
X135659810Y-73993238D01*
X135755048Y-74469429D01*
X135421714Y-73136095D02*
X136231238Y-73136095D01*
X136326476Y-73183714D01*
X136374095Y-73231333D01*
X136421714Y-73326572D01*
X136421714Y-73469429D01*
X136374095Y-73564667D01*
X136040762Y-73136095D02*
X136088381Y-73231333D01*
X136088381Y-73421810D01*
X136040762Y-73517048D01*
X135993143Y-73564667D01*
X135897905Y-73612286D01*
X135612190Y-73612286D01*
X135516952Y-73564667D01*
X135469333Y-73517048D01*
X135421714Y-73421810D01*
X135421714Y-73231333D01*
X135469333Y-73136095D01*
X135421714Y-72231333D02*
X136088381Y-72231333D01*
X135421714Y-72659905D02*
X135945524Y-72659905D01*
X136040762Y-72612286D01*
X136088381Y-72517048D01*
X136088381Y-72374190D01*
X136040762Y-72278952D01*
X135993143Y-72231333D01*
X136088381Y-71612286D02*
X136040762Y-71707524D01*
X135945524Y-71755143D01*
X135088381Y-71755143D01*
X136088381Y-70707523D02*
X136088381Y-71278952D01*
X136088381Y-70993238D02*
X135088381Y-70993238D01*
X135231238Y-71088476D01*
X135326476Y-71183714D01*
X135374095Y-71278952D01*
X140890667Y-105421181D02*
X140890667Y-106135467D01*
X140843047Y-106278324D01*
X140747809Y-106373562D01*
X140604952Y-106421181D01*
X140509714Y-106421181D01*
X141795429Y-105421181D02*
X141604952Y-105421181D01*
X141509714Y-105468800D01*
X141462095Y-105516419D01*
X141366857Y-105659276D01*
X141319238Y-105849752D01*
X141319238Y-106230705D01*
X141366857Y-106325943D01*
X141414476Y-106373562D01*
X141509714Y-106421181D01*
X141700191Y-106421181D01*
X141795429Y-106373562D01*
X141843048Y-106325943D01*
X141890667Y-106230705D01*
X141890667Y-105992610D01*
X141843048Y-105897371D01*
X141795429Y-105849752D01*
X141700191Y-105802133D01*
X141509714Y-105802133D01*
X141414476Y-105849752D01*
X141366857Y-105897371D01*
X141319238Y-105992610D01*
M02*
