G04 #@! TF.FileFunction,Copper,L1,Top,Signal*
%FSLAX46Y46*%
G04 Gerber Fmt 4.6, Leading zero omitted, Abs format (unit mm)*
G04 Created by KiCad (PCBNEW 4.0.6) date Friday, July 28, 2017 'PMt' 04:28:37 PM*
%MOMM*%
%LPD*%
G01*
G04 APERTURE LIST*
%ADD10C,0.100000*%
%ADD11C,1.524000*%
%ADD12C,2.032000*%
%ADD13C,3.810000*%
%ADD14C,10.160000*%
%ADD15C,1.400000*%
%ADD16R,1.600000X1.600000*%
%ADD17O,1.600000X1.600000*%
%ADD18R,2.032000X2.032000*%
%ADD19R,1.524000X1.524000*%
%ADD20R,1.727200X1.727200*%
%ADD21O,1.727200X1.727200*%
%ADD22R,1.270000X0.965200*%
%ADD23R,1.700000X1.700000*%
%ADD24O,1.700000X1.700000*%
%ADD25O,2.499360X1.501140*%
%ADD26C,5.588000*%
%ADD27C,0.762000*%
%ADD28C,0.762000*%
%ADD29C,0.250000*%
G04 APERTURE END LIST*
D10*
D11*
X112699800Y-38455600D03*
X112699800Y-40455596D03*
X112699800Y-42455592D03*
X112699800Y-44455588D03*
X112699800Y-46455584D03*
X112699800Y-48455580D03*
X112699800Y-50457100D03*
X112699800Y-52456080D03*
X112699800Y-54457600D03*
X112699800Y-56455564D03*
X134696200Y-56455564D03*
X134696200Y-54457600D03*
X134696200Y-52456080D03*
X134696200Y-50455576D03*
X134696200Y-48455580D03*
X134696200Y-46455584D03*
X134696200Y-44455588D03*
X134696200Y-42455592D03*
X134696200Y-40455596D03*
X134696200Y-38455600D03*
D12*
X102616000Y-67056000D03*
X102616000Y-69596000D03*
X102616000Y-72136000D03*
X102616000Y-74676000D03*
X102616000Y-77216000D03*
X102616000Y-79756000D03*
X102616000Y-82296000D03*
X102616000Y-84836000D03*
X102616000Y-87376000D03*
D13*
X132080000Y-67056000D03*
X132080000Y-87376000D03*
D14*
X106680000Y-96520000D03*
D11*
X113284000Y-98044000D03*
X100330000Y-98044000D03*
X100330000Y-94996000D03*
X113284000Y-94996000D03*
D15*
X106974000Y-43129200D03*
X109474000Y-43129200D03*
X106934000Y-40640000D03*
X109434000Y-40640000D03*
X106948600Y-38100000D03*
X109448600Y-38100000D03*
D16*
X132384800Y-98475800D03*
D17*
X132384800Y-106095800D03*
D16*
X128625600Y-98450400D03*
D17*
X128625600Y-106070400D03*
D18*
X120396000Y-95653860D03*
D19*
X120396000Y-101653340D03*
D18*
X125095000Y-98653600D03*
D20*
X143002000Y-96774000D03*
D21*
X140462000Y-96774000D03*
X143002000Y-94234000D03*
X140462000Y-94234000D03*
X143002000Y-91694000D03*
X140462000Y-91694000D03*
X143002000Y-89154000D03*
X140462000Y-89154000D03*
X143002000Y-86614000D03*
X140462000Y-86614000D03*
D22*
X129286000Y-45212000D03*
X129286000Y-43942000D03*
X129286000Y-42672000D03*
D23*
X145288000Y-77724000D03*
D24*
X145288000Y-75184000D03*
X145288000Y-72644000D03*
X145288000Y-70104000D03*
X145288000Y-67564000D03*
X145288000Y-65024000D03*
D22*
X120142000Y-45212000D03*
X120142000Y-43942000D03*
X120142000Y-42672000D03*
D23*
X129235200Y-93294200D03*
D24*
X131775200Y-93294200D03*
D25*
X140208000Y-72898000D03*
X140208000Y-75438000D03*
X140208000Y-70358000D03*
D26*
X102108000Y-106680000D03*
X103378000Y-53340000D03*
X145288000Y-106680000D03*
X144018000Y-49530000D03*
X145288000Y-38100000D03*
X102108000Y-38100000D03*
D27*
X102463600Y-92532200D03*
X111480600Y-99898200D03*
X106756200Y-89535000D03*
X137591800Y-80543400D03*
X127914400Y-44297600D03*
X125298200Y-50495200D03*
X145440400Y-86258400D03*
X147243800Y-80772000D03*
X142942425Y-60003575D03*
X143560800Y-61620400D03*
X142116925Y-58339875D03*
D28*
X106680000Y-96520000D02*
X106451400Y-96520000D01*
X106451400Y-96520000D02*
X102463600Y-92532200D01*
X106680000Y-96520000D02*
X108102400Y-96520000D01*
X108102400Y-96520000D02*
X111480600Y-99898200D01*
D29*
X104052840Y-74676000D02*
X102616000Y-74676000D01*
X144734398Y-85298398D02*
X134112000Y-74676000D01*
X134112000Y-74676000D02*
X104052840Y-74676000D01*
X143002000Y-91694000D02*
X144734398Y-89961602D01*
X144734398Y-89961602D02*
X144734398Y-85298398D01*
X143002000Y-96774000D02*
X142221130Y-96774000D01*
X101467801Y-88717001D02*
X100761800Y-88011000D01*
X100761800Y-88011000D02*
X100761800Y-79070200D01*
X100761800Y-79070200D02*
X101523800Y-78308200D01*
X142221130Y-96774000D02*
X140869731Y-95422601D01*
X128937003Y-88717001D02*
X101467801Y-88717001D01*
X140869731Y-95422601D02*
X135642603Y-95422601D01*
X135642603Y-95422601D02*
X128937003Y-88717001D01*
X101523800Y-78308200D02*
X102616000Y-77216000D01*
X143002000Y-96774000D02*
X142365590Y-96774000D01*
X138303000Y-79756000D02*
X144190601Y-85643601D01*
X144190601Y-85643601D02*
X144190601Y-87965399D01*
X144190601Y-87965399D02*
X143865599Y-88290401D01*
X143865599Y-88290401D02*
X143002000Y-89154000D01*
X102616000Y-79756000D02*
X138303000Y-79756000D01*
D28*
X106756200Y-90551000D02*
X111074200Y-90551000D01*
X102489000Y-90551000D02*
X106756200Y-90551000D01*
X106756200Y-90551000D02*
X106756200Y-89535000D01*
X100330000Y-94996000D02*
X101091999Y-94234001D01*
X113284000Y-92760800D02*
X113284000Y-94996000D01*
X101091999Y-94234001D02*
X101091999Y-91948001D01*
X101091999Y-91948001D02*
X102489000Y-90551000D01*
X111074200Y-90551000D02*
X113284000Y-92760800D01*
X100330000Y-94996000D02*
X100330000Y-98044000D01*
X113284000Y-94996000D02*
X113284000Y-98044000D01*
X109448600Y-38100000D02*
X112344200Y-38100000D01*
X112344200Y-38100000D02*
X112699800Y-38455600D01*
X109434000Y-40640000D02*
X109434000Y-38114600D01*
X109434000Y-38114600D02*
X109448600Y-38100000D01*
X109474000Y-43129200D02*
X109474000Y-40680000D01*
X109474000Y-40680000D02*
X109434000Y-40640000D01*
X140208000Y-72898000D02*
X124457562Y-72898000D01*
X124457562Y-72898000D02*
X109434000Y-57874438D01*
X109434000Y-57874438D02*
X109474000Y-57834438D01*
X109474000Y-57834438D02*
X109474000Y-43129200D01*
X104571800Y-87376000D02*
X111404400Y-80543400D01*
X111404400Y-80543400D02*
X137591800Y-80543400D01*
X102616000Y-87376000D02*
X104571800Y-87376000D01*
X129235200Y-93294200D02*
X129235200Y-94906200D01*
X129235200Y-94906200D02*
X130454400Y-96125400D01*
X130454400Y-96125400D02*
X130454400Y-103110230D01*
X130454400Y-103110230D02*
X128625600Y-104939030D01*
X128625600Y-104939030D02*
X128625600Y-106070400D01*
D29*
X127914400Y-44297600D02*
X128930400Y-44297600D01*
X128930400Y-44297600D02*
X129286000Y-43942000D01*
X125916767Y-53602967D02*
X125298200Y-52984400D01*
X125298200Y-52984400D02*
X125298200Y-50495200D01*
X125916767Y-53628367D02*
X125916767Y-53602967D01*
X141782690Y-75883519D02*
X141782690Y-69494290D01*
X141782690Y-69494290D02*
X125916767Y-53628367D01*
X141757400Y-75908809D02*
X141782690Y-75883519D01*
X141757400Y-81508600D02*
X141757400Y-75908809D01*
X146146402Y-91089598D02*
X146146402Y-85897602D01*
X146146402Y-85897602D02*
X141757400Y-81508600D01*
X143002000Y-94234000D02*
X146146402Y-91089598D01*
X129133600Y-44094400D02*
X129286000Y-43942000D01*
X142232701Y-69307890D02*
X142232701Y-81272701D01*
X142232701Y-81272701D02*
X146608800Y-85648800D01*
X146608800Y-85648800D02*
X146608800Y-92386330D01*
X141650601Y-95422601D02*
X141325599Y-95097599D01*
X126226978Y-53255600D02*
X126541777Y-53570398D01*
X126541777Y-53570398D02*
X126541777Y-53616966D01*
X126541777Y-53616966D02*
X142232701Y-69307890D01*
X143572529Y-95422601D02*
X141650601Y-95422601D01*
X126226978Y-49141978D02*
X126226978Y-53255600D01*
X120142000Y-43942000D02*
X121027000Y-43942000D01*
X121027000Y-43942000D02*
X126226978Y-49141978D01*
X146608800Y-92386330D02*
X143572529Y-95422601D01*
X141325599Y-95097599D02*
X140462000Y-94234000D01*
X145465800Y-86283800D02*
X145440400Y-86258400D01*
X145465800Y-87182152D02*
X145465800Y-86283800D01*
X135458199Y-55219599D02*
X134696200Y-54457600D01*
X147040600Y-67577598D02*
X145852001Y-66388999D01*
X145852001Y-66388999D02*
X144913997Y-66388999D01*
X137587967Y-57349367D02*
X135458199Y-55219599D01*
X145288000Y-75184000D02*
X147040600Y-73431400D01*
X144913997Y-66388999D02*
X137587967Y-59062969D01*
X147040600Y-73431400D02*
X147040600Y-67577598D01*
X137587967Y-59062969D02*
X137587967Y-57349367D01*
X145465800Y-87350600D02*
X145465800Y-90989330D01*
X145465800Y-87182152D02*
X145465800Y-87350600D01*
X145465800Y-90989330D02*
X143572529Y-92882601D01*
X143572529Y-92882601D02*
X141650601Y-92882601D01*
X141650601Y-92882601D02*
X141325599Y-92557599D01*
X141325599Y-92557599D02*
X140462000Y-91694000D01*
X145288000Y-75184000D02*
X147243800Y-77139800D01*
X147243800Y-77139800D02*
X147243800Y-80772000D01*
X142561426Y-59622576D02*
X142942425Y-60003575D01*
X142401176Y-59622576D02*
X142561426Y-59622576D01*
X139141200Y-56362600D02*
X142401176Y-59622576D01*
X139141200Y-46900592D02*
X139141200Y-56362600D01*
X134696200Y-42455592D02*
X139141200Y-46900592D01*
X138487989Y-48247377D02*
X138487989Y-56413400D01*
X143560800Y-61620400D02*
X138487989Y-56547589D01*
X138487989Y-56547589D02*
X138487989Y-56413400D01*
X134696200Y-44455588D02*
X138487989Y-48247377D01*
X141735926Y-57958876D02*
X142116925Y-58339875D01*
X139877800Y-45637196D02*
X139877800Y-56100750D01*
X139877800Y-56100750D02*
X141735926Y-57958876D01*
X134696200Y-40455596D02*
X139877800Y-45637196D01*
X127127000Y-47345600D02*
X127127000Y-43946000D01*
X127127000Y-52882800D02*
X127127000Y-47345600D01*
X127127000Y-47313596D02*
X120269000Y-40455596D01*
X127127000Y-47345600D02*
X127127000Y-47313596D01*
X131749800Y-57505600D02*
X131749800Y-57480200D01*
X131749800Y-57480200D02*
X127773022Y-53503422D01*
X127773022Y-53503422D02*
X127747622Y-53503422D01*
X127747622Y-53503422D02*
X127127000Y-52882800D01*
X127127000Y-43946000D02*
X128401000Y-42672000D01*
X128401000Y-42672000D02*
X129286000Y-42672000D01*
X120269000Y-40455596D02*
X113777430Y-40455596D01*
X131749800Y-57505600D02*
X131521200Y-57277000D01*
X141808200Y-67564000D02*
X131749800Y-57505600D01*
X113777430Y-40455596D02*
X112699800Y-40455596D01*
X145288000Y-67564000D02*
X141808200Y-67564000D01*
D28*
X131775200Y-93294200D02*
X137439400Y-98958400D01*
X137439400Y-98958400D02*
X144576800Y-98958400D01*
X144576800Y-98958400D02*
X147548600Y-95986600D01*
X143306800Y-79476600D02*
X143306800Y-74625200D01*
X147548600Y-95986600D02*
X147548600Y-83718400D01*
X143306800Y-74625200D02*
X145288000Y-72644000D01*
X147548600Y-83718400D02*
X143306800Y-79476600D01*
D29*
X126676989Y-47859378D02*
X121489611Y-42672000D01*
X121489611Y-42672000D02*
X121027000Y-42672000D01*
X121027000Y-42672000D02*
X120142000Y-42672000D01*
X143711790Y-70104000D02*
X126676989Y-53069200D01*
X145288000Y-70104000D02*
X143711790Y-70104000D01*
X126676989Y-53069200D02*
X126676989Y-47859378D01*
X120142000Y-42672000D02*
X112916208Y-42672000D01*
X112916208Y-42672000D02*
X112699800Y-42455592D01*
D28*
X132359400Y-98450400D02*
X132384800Y-98475800D01*
D29*
X129286000Y-45212000D02*
X129286000Y-51045364D01*
X129286000Y-51045364D02*
X134696200Y-56455564D01*
X138037978Y-57759600D02*
X138037978Y-49797362D01*
X142327220Y-62063220D02*
X142327220Y-62048842D01*
X142327220Y-62048842D02*
X138037978Y-57759600D01*
X145288000Y-65024000D02*
X142327220Y-62063220D01*
X138037978Y-49797362D02*
X135458199Y-47217583D01*
X135458199Y-47217583D02*
X134696200Y-46455584D01*
X112699800Y-44455588D02*
X113777430Y-44455588D01*
X113777430Y-44455588D02*
X114533842Y-45212000D01*
X114533842Y-45212000D02*
X119257000Y-45212000D01*
X119257000Y-45212000D02*
X120142000Y-45212000D01*
D28*
X122783600Y-103860600D02*
X122783600Y-99819460D01*
X122783600Y-99819460D02*
X120396000Y-97431860D01*
X120396000Y-97431860D02*
X120396000Y-95653860D01*
X126898400Y-107975400D02*
X122783600Y-103860600D01*
X130505200Y-107975400D02*
X126898400Y-107975400D01*
X132384800Y-106095800D02*
X130505200Y-107975400D01*
M02*
