M48
;DRILL file {KiCad 4.0.6} date Monday, July 31, 2017 'PMt' 07:30:24 PM
;FORMAT={-:-/ absolute / inch / decimal}
FMAT,2
INCH,TZ
T1C0.015
T2C0.016
T3C0.028
T4C0.030
T5C0.031
T6C0.039
T7C0.039
T8C0.040
T9C0.090
T10C0.120
%
G90
G05
M72
T1
X4.933Y-1.988
X5.036Y-1.744
X5.5952Y-2.2968
X5.6277Y-2.3623
X5.652Y-2.426
X5.726Y-3.396
T2
X4.034Y-3.643
X4.203Y-3.525
X4.389Y-3.933
X5.417Y-3.171
X5.797Y-3.18
T3
X4.21Y-1.6
X4.2106Y-1.5
X4.2116Y-1.698
X4.3084Y-1.6
X4.309Y-1.5
X4.31Y-1.698
T4
X4.437Y-1.514
X4.437Y-1.5927
X4.437Y-1.6715
X4.437Y-1.7502
X4.437Y-1.829
X4.437Y-1.9077
X4.437Y-1.9865
X4.437Y-2.0652
X4.437Y-2.144
X4.437Y-2.2227
X5.303Y-1.514
X5.303Y-1.5927
X5.303Y-1.6715
X5.303Y-1.7502
X5.303Y-1.829
X5.303Y-1.9077
X5.303Y-1.9864
X5.303Y-2.0652
X5.303Y-2.144
X5.303Y-2.2227
T5
X5.064Y-3.876
X5.064Y-4.176
X5.212Y-3.877
X5.212Y-4.177
T6
X5.088Y-3.673
X5.188Y-3.673
X5.72Y-2.56
X5.72Y-2.66
X5.72Y-2.76
X5.72Y-2.86
X5.72Y-2.96
X5.72Y-3.06
T7
X5.52Y-2.77
X5.52Y-2.87
X5.52Y-2.97
T8
X3.95Y-3.74
X3.95Y-3.86
X4.04Y-2.64
X4.04Y-2.74
X4.04Y-2.84
X4.04Y-2.94
X4.04Y-3.04
X4.04Y-3.14
X4.04Y-3.24
X4.04Y-3.34
X4.04Y-3.44
X4.46Y-3.74
X4.46Y-3.86
X4.74Y-3.7659
X4.74Y-4.0021
X4.925Y-3.884
X5.53Y-3.41
X5.53Y-3.51
X5.53Y-3.61
X5.53Y-3.71
X5.53Y-3.81
X5.63Y-3.41
X5.63Y-3.51
X5.63Y-3.61
X5.63Y-3.71
X5.63Y-3.81
T9
X5.2Y-2.64
X5.2Y-3.44
T10
X4.02Y-1.5
X4.02Y-4.2
X4.07Y-2.1
X5.67Y-1.95
X5.72Y-1.5
X5.72Y-4.2
T0
M30
