G04 #@! TF.FileFunction,Soldermask,Bot*
%FSLAX46Y46*%
G04 Gerber Fmt 4.6, Leading zero omitted, Abs format (unit mm)*
G04 Created by KiCad (PCBNEW 4.0.6) date Thursday, August 03, 2017 'PMt' 09:26:43 PM*
%MOMM*%
%LPD*%
G01*
G04 APERTURE LIST*
%ADD10C,0.100000*%
%ADD11C,1.930400*%
%ADD12C,2.438400*%
%ADD13C,4.216400*%
%ADD14C,1.806400*%
%ADD15R,2.006400X2.006400*%
%ADD16O,2.006400X2.006400*%
%ADD17R,2.438400X2.438400*%
%ADD18R,1.930400X1.930400*%
%ADD19R,2.133600X2.133600*%
%ADD20O,2.133600X2.133600*%
%ADD21R,2.106400X2.106400*%
%ADD22O,2.106400X2.106400*%
%ADD23O,2.905760X1.907540*%
%ADD24C,5.994400*%
%ADD25O,2.438400X2.438400*%
G04 APERTURE END LIST*
D10*
D11*
X112699800Y-38455600D03*
X112699800Y-40455596D03*
X112699800Y-42455592D03*
X112699800Y-44455588D03*
X112699800Y-46455584D03*
X112699800Y-48455580D03*
X112699800Y-50457100D03*
X112699800Y-52456080D03*
X112699800Y-54457600D03*
X112699800Y-56455564D03*
X134696200Y-56455564D03*
X134696200Y-54457600D03*
X134696200Y-52456080D03*
X134696200Y-50455576D03*
X134696200Y-48455580D03*
X134696200Y-46455584D03*
X134696200Y-44455588D03*
X134696200Y-42455592D03*
X134696200Y-40455596D03*
X134696200Y-38455600D03*
D12*
X102616000Y-67056000D03*
X102616000Y-69596000D03*
X102616000Y-72136000D03*
X102616000Y-74676000D03*
X102616000Y-77216000D03*
X102616000Y-79756000D03*
X102616000Y-82296000D03*
X102616000Y-84836000D03*
X102616000Y-87376000D03*
D13*
X132080000Y-67056000D03*
X132080000Y-87376000D03*
D11*
X113284000Y-98044000D03*
X100330000Y-98044000D03*
X100330000Y-94996000D03*
X113284000Y-94996000D03*
D14*
X106974000Y-43129200D03*
X109474000Y-43129200D03*
X106934000Y-40640000D03*
X109434000Y-40640000D03*
X106948600Y-38100000D03*
X109448600Y-38100000D03*
D15*
X132384800Y-98475800D03*
D16*
X132384800Y-106095800D03*
D15*
X128625600Y-98450400D03*
D16*
X128625600Y-106070400D03*
D17*
X120396000Y-95653860D03*
D18*
X120396000Y-101653340D03*
D17*
X125095000Y-98653600D03*
D19*
X143002000Y-96774000D03*
D20*
X140462000Y-96774000D03*
X143002000Y-94234000D03*
X140462000Y-94234000D03*
X143002000Y-91694000D03*
X140462000Y-91694000D03*
X143002000Y-89154000D03*
X140462000Y-89154000D03*
X143002000Y-86614000D03*
X140462000Y-86614000D03*
D21*
X145288000Y-77724000D03*
D22*
X145288000Y-75184000D03*
X145288000Y-72644000D03*
X145288000Y-70104000D03*
X145288000Y-67564000D03*
X145288000Y-65024000D03*
D21*
X129235200Y-93294200D03*
D22*
X131775200Y-93294200D03*
D23*
X140208000Y-72898000D03*
X140208000Y-75438000D03*
X140208000Y-70358000D03*
D24*
X102108000Y-106680000D03*
X103378000Y-53340000D03*
X145288000Y-106680000D03*
X144018000Y-49530000D03*
X145288000Y-38100000D03*
X102108000Y-38100000D03*
D17*
X136550400Y-106019600D03*
D25*
X139090400Y-106019600D03*
M02*
